<?xml-stylesheet type="text/css" href="https://fonts.googleapis.com/css?family=Open+Sans" ?><svg xmlns="http://www.w3.org/2000/svg" viewBox="0 0 600 180"><path fill="#fff" d="M0 0h600v180H0z"/><path fill="#fefefe" shape-rendering="crispEdges" d="M0 180h600V0H0z"/><clipPath id="a"><path d="M0 180h600V0H0z"/></clipPath><g clip-path="url(#a)"><path fill="#fff" shape-rendering="crispEdges" d="M60 130h500L60 5z"/><path fill="#fff" shape-rendering="crispEdges" d="M560 130V5H60z"/><path fill="none" stroke="#262626" stroke-width=".5" d="M60 130v-5M60 5v5M185 130v-5M185 5v5M310 130v-5M310 5v5M435 130v-5M435 5v5M560 130v-5M560 5v5"/><text fill="#262626" x="60" y="135" font-size="10" text-anchor="middle" dy="10" font-family="Open Sans">0</text><text fill="#262626" x="185" y="135" font-size="10" text-anchor="middle" dy="10" font-family="Open Sans">0.5</text><text fill="#262626" x="310" y="135" font-size="10" text-anchor="middle" dy="10" font-family="Open Sans">1</text><text fill="#262626" x="435" y="135" font-size="10" text-anchor="middle" dy="10" font-family="Open Sans">1.5</text><text fill="#262626" x="560" y="135" font-size="10" text-anchor="middle" dy="10" font-family="Open Sans">2</text><path fill="none" stroke="#262626" stroke-width=".5" d="M60 130h5M560 130h-5M60 109.167h5M560 109.167h-5M60 88.333h5M560 88.333h-5M60 67.5h5M560 67.5h-5M60 46.667h5M560 46.667h-5M60 25.833h5M560 25.833h-5M60 5h5M560 5h-5"/><text fill="#262626" x="55" y="130" font-size="10" text-anchor="end" dy="5" font-family="Open Sans">-1.5</text><text fill="#262626" x="55" y="109.167" font-size="10" text-anchor="end" dy="5" font-family="Open Sans">-1</text><text fill="#262626" x="55" y="88.333" font-size="10" text-anchor="end" dy="5" font-family="Open Sans">-0.5</text><text fill="#262626" x="55" y="67.5" font-size="10" text-anchor="end" dy="5" font-family="Open Sans">0</text><text fill="#262626" x="55" y="46.667" font-size="10" text-anchor="end" dy="5" font-family="Open Sans">0.5</text><text fill="#262626" x="55" y="25.833" font-size="10" text-anchor="end" dy="5" font-family="Open Sans">1</text><text fill="#262626" x="55" y="5" font-size="10" text-anchor="end" dy="5" font-family="Open Sans">1.5</text><path fill="none" stroke="#262626" stroke-width=".5" stroke-dasharray="16,0" d="M60 130h500M60 5h500M60 130V5M560 130V5"/><text fill="#262626" x="310" y="148" font-size="10" text-anchor="middle" dy="10" font-family="Open Sans">Time (milliseconds)</text><text fill="#262626" x="32" y="67.5" font-size="10" transform="rotate(-90 32 67.5)" text-anchor="middle" dy="0" font-family="Open Sans">Voltage (volts)</text><path fill="none" stroke="#0071bc" stroke-width=".5" d="M60 67.5l5.208-7.668 5.209-7.538 5.208-7.277 5.208-6.892 5.209-6.39 5.208-5.777 5.208-5.067 5.209-4.27 5.208-3.399 5.208-2.47 5.209-1.5 5.208-.502 5.208.503 5.209 1.499 5.208 2.47 5.208 3.399 5.209 4.27 5.208 5.067 5.208 5.777 5.209 6.39 5.208 6.892 5.208 7.277 5.209 7.538L185 67.5l5.208 7.668 5.209 7.538 5.208 7.277 5.208 6.892 5.209 6.39 5.208 5.778 5.208 5.067 5.209 4.269 5.208 3.399 5.208 2.47 5.209 1.499 5.208.503 5.208-.503 5.209-1.499 5.208-2.47 5.208-3.399 5.209-4.269 5.208-5.067 5.208-5.778 5.209-6.39 5.208-6.892 5.208-7.277 5.209-7.538L310 67.5l5.208-7.668 5.209-7.538 5.208-7.277 5.208-6.892 5.209-6.39 5.208-5.777 5.208-5.067 5.209-4.27 5.208-3.399 5.208-2.47 5.209-1.5 5.208-.502 5.208.503 5.209 1.499 5.208 2.47 5.208 3.399 5.209 4.27 5.208 5.067 5.208 5.777 5.209 6.39 5.208 6.892 5.208 7.277 5.209 7.538L435 67.5l5.208 7.668 5.209 7.538 5.208 7.277 5.208 6.892 5.209 6.39 5.208 5.778 5.208 5.067 5.209 4.269 5.208 3.399 5.208 2.47 5.209 1.499 5.208.503 5.208-.503 5.209-1.499 5.208-2.47 5.208-3.399 5.209-4.269 5.208-5.067 5.208-5.778 5.209-6.39 5.208-6.892 5.208-7.277 5.209-7.538L560 67.5"/></g></svg>