<?xml-stylesheet type="text/css" href="https://fonts.googleapis.com/css?family=Open+Sans:300italic,400italic,600italic,700italic,400,600,700,300&amp;subset=latin,cyrillic-ext,latin-ext,cyrillic" ?><svg xmlns="http://www.w3.org/2000/svg" viewBox="0 0 600 180"><path fill="#fff" d="M0 0h600v180H0z"/><path fill="#fefefe" shape-rendering="crispEdges" d="M0 180h600V0H0z"/><clipPath id="a"><path d="M0 180h600V0H0z"/></clipPath><g clip-path="url(#a)"><path fill="#fff" shape-rendering="crispEdges" d="M60 130h500L60 5z"/><path fill="#fff" shape-rendering="crispEdges" d="M560 130V5H60z"/><path fill="none" stroke="#262626" stroke-width=".5" d="M60 130v-5M60 5v5M143.333 130v-5M143.333 5v5M226.667 130v-5M226.667 5v5M310 130v-5M310 5v5M393.333 130v-5M393.333 5v5M476.667 130v-5M476.667 5v5M560 130v-5M560 5v5"/><text fill="#262626" x="60" y="135" font-size="10" text-anchor="middle" dy="10" font-family="Open Sans">0</text><text fill="#262626" x="143.333" y="135" font-size="10" text-anchor="middle" dy="10" font-family="Open Sans">0.5</text><text fill="#262626" x="226.667" y="135" font-size="10" text-anchor="middle" dy="10" font-family="Open Sans">1</text><text fill="#262626" x="310" y="135" font-size="10" text-anchor="middle" dy="10" font-family="Open Sans">1.5</text><text fill="#262626" x="393.333" y="135" font-size="10" text-anchor="middle" dy="10" font-family="Open Sans">2</text><text fill="#262626" x="476.667" y="135" font-size="10" text-anchor="middle" dy="10" font-family="Open Sans">2.5</text><text fill="#262626" x="560" y="135" font-size="10" text-anchor="middle" dy="10" font-family="Open Sans">3</text><path fill="none" stroke="#262626" stroke-width=".5" stroke-dasharray="16,0" d="M60 130h500M60 5h500M60 130V5M560 130V5"/><text fill="#262626" x="310" y="148" font-size="10" text-anchor="middle" dy="10" font-family="Open Sans">Time (milliseconds)</text><text fill="#262626" x="51" y="67.5" font-size="10" transform="rotate(-90 51 67.5)" text-anchor="middle" dy="0" font-family="Open Sans">Amplitude</text><path fill="none" stroke="#0071bc" stroke-width=".5" d="M60 67.5l2.232-5.253 2.232-5.216 2.232-5.142 2.233-5.031 2.232-4.886 2.232-4.704 2.232-4.491 2.232-4.245 2.232-3.97 2.232-3.665 2.233-3.335 2.232-2.982 2.232-2.608 2.232-2.214 2.232-1.806 2.232-1.385 2.232-.953 2.233-.516 2.232-.073 2.232.368 2.232.808 2.232 1.242 2.232 1.666 2.232 2.08 2.233 2.479 2.232 2.86 2.232 3.22 2.232 3.558 2.232 3.87 2.232 4.157 2.232 4.412 2.233 4.637 2.232 4.83 2.232 4.986 2.232 5.109 2.232 5.195 2.232 5.245 2.232 5.257 2.233 5.233 2.232 5.17 2.232 5.073 2.232 4.938 2.232 4.768 2.232 4.566 2.232 4.33 2.233 4.065 2.232 3.769 2.232 3.448 2.232 3.103 2.232 2.734 2.232 2.348 2.232 1.944 2.233 1.526 2.232 1.098 2.232.662L185 130l2.232-.221 2.232-.662 2.232-1.098 2.233-1.526 2.232-1.944 2.232-2.348 2.232-2.734 2.232-3.103 2.232-3.448 2.232-3.769 2.233-4.065 2.232-4.33 2.232-4.566 2.232-4.768 2.232-4.938 2.232-5.072 2.232-5.171 2.233-5.233 2.232-5.257 2.232-5.245 2.232-5.195 2.232-5.11 2.232-4.986 2.232-4.829 2.233-4.637 2.232-4.412 2.232-4.156 2.232-3.871 2.232-3.558 2.232-3.22 2.232-2.86 2.233-2.478 2.232-2.08 2.232-1.667 2.232-1.242 2.232-.808 2.232-.368 2.232.073 2.233.516 2.232.953 2.232 1.385 2.232 1.806 2.232 2.214 2.232 2.608 2.232 2.982 2.233 3.335 2.232 3.666 2.232 3.969 2.232 4.245 2.232 4.49 2.232 4.705 2.232 4.886 2.233 5.031 2.232 5.142 2.232 5.216L310 67.5l2.232 5.253 2.232 5.216 2.232 5.142 2.233 5.031 2.232 4.886 2.232 4.704 2.232 4.491 2.232 4.245 2.232 3.969 2.232 3.666 2.233 3.335 2.232 2.982 2.232 2.608 2.232 2.214 2.232 1.806 2.232 1.385 2.232.953 2.233.516 2.232.073 2.232-.368 2.232-.808 2.232-1.242 2.232-1.666 2.232-2.08 2.233-2.479 2.232-2.859 2.232-3.221 2.232-3.558 2.232-3.871 2.232-4.156 2.232-4.412 2.233-4.637 2.232-4.83 2.232-4.986 2.232-5.109 2.232-5.195 2.232-5.245 2.232-5.257 2.233-5.233 2.232-5.17 2.232-5.073 2.232-4.938 2.232-4.768 2.232-4.566 2.232-4.33 2.233-4.065 2.232-3.77 2.232-3.447 2.232-3.103 2.232-2.734 2.232-2.348 2.232-1.944 2.233-1.526 2.232-1.098 2.232-.662L435 5l2.232.221 2.232.662 2.232 1.098 2.233 1.526 2.232 1.944 2.232 2.348 2.232 2.734 2.232 3.103 2.232 3.448 2.232 3.77 2.233 4.064 2.232 4.33 2.232 4.566 2.232 4.768 2.232 4.938 2.232 5.072 2.232 5.171 2.233 5.233 2.232 5.257 2.232 5.245 2.232 5.195 2.232 5.11 2.232 4.986 2.232 4.829 2.233 4.637 2.232 4.412 2.232 4.156 2.232 3.871 2.232 3.558 2.232 3.221 2.232 2.859 2.233 2.479 2.232 2.08 2.232 1.666 2.232 1.242 2.232.808 2.232.368 2.232-.073 2.233-.516 2.232-.953 2.232-1.385 2.232-1.806 2.232-2.214 2.232-2.608 2.232-2.982 2.233-3.335 2.232-3.666 2.232-3.969 2.232-4.245 2.232-4.49 2.232-4.705 2.232-4.886 2.233-5.031 2.232-5.142 2.232-5.216L560 67.5"/><path fill="none" stroke="#000" stroke-width=".5" d="M60 67.5h500"/></g></svg>