<?xml version="1.0" encoding="UTF-8" standalone="no"?>
<?xml-stylesheet type="text/css" href="https://fonts.googleapis.com/css?family=Open+Sans" ?>
<svg xmlns="http://www.w3.org/2000/svg"
     xmlns:xlink="http://www.w3.org/1999/xlink"
     width="600px" height="300px" viewBox="0 0 600 300">
<title>gl2ps_renderer figure</title>
<desc>
Creator: GL2PS 1.4.0, (C) 1999-2017 C. Geuzaine
For: Octave
</desc>
<defs>
</defs>
<polygon fill="#ffffff" points="0,0 600,0 600,300 0,300"/>
<g>
<polygon fill="#fefefe" points="0,300 600,300 600,0 0,0" shape-rendering="crispEdges"/>
<clipPath id="cp00600300">
  <polygon points="0,300 600,300 600,0 0,0"/>
</clipPath>
<g clip-path="url(#cp00600300)">
<polygon fill="#ffffff" shape-rendering="crispEdges" points="78,267 543,267 78,22.5"/>
<polygon fill="#ffffff" shape-rendering="crispEdges" points="543,267 543,22.5 78,22.5"/>
<polyline fill="none" stroke="#262626" stroke-width="0.5" stroke-linecap="butt" stroke-linejoin="miter" points="78,267 78,262.359"/>
<polyline fill="none" stroke="#262626" stroke-width="0.5" stroke-linecap="butt" stroke-linejoin="miter" points="78,22.5 78,27.1405"/>
<polyline fill="none" stroke="#262626" stroke-width="0.5" stroke-linecap="butt" stroke-linejoin="miter" points="186.34,267 186.34,262.359"/>
<polyline fill="none" stroke="#262626" stroke-width="0.5" stroke-linecap="butt" stroke-linejoin="miter" points="186.34,22.5 186.34,27.1405"/>
<polyline fill="none" stroke="#262626" stroke-width="0.5" stroke-linecap="butt" stroke-linejoin="miter" points="341.34,267 341.34,262.359"/>
<polyline fill="none" stroke="#262626" stroke-width="0.5" stroke-linecap="butt" stroke-linejoin="miter" points="341.34,22.5 341.34,27.1405"/>
<polyline fill="none" stroke="#262626" stroke-width="0.5" stroke-linecap="butt" stroke-linejoin="miter" points="496.34,267 496.34,262.359"/>
<polyline fill="none" stroke="#262626" stroke-width="0.5" stroke-linecap="butt" stroke-linejoin="miter" points="496.34,22.5 496.34,27.1405"/>
<polyline fill="none" stroke="#262626" stroke-width="0.5" stroke-linecap="butt" stroke-linejoin="miter" points="543,267 543,262.359"/>
<polyline fill="none" stroke="#262626" stroke-width="0.5" stroke-linecap="butt" stroke-linejoin="miter" points="543,22.5 543,27.1405"/>
<text fill="#262626" x="78" y="271.99" font-size="10" text-anchor="middle" dy="10" font-family="Open Sans">20</text>
<text fill="#262626" x="186.34" y="271.99" font-size="10" text-anchor="middle" dy="10" font-family="Open Sans">100</text>
<text fill="#262626" x="341.34" y="271.99" font-size="10" text-anchor="middle" dy="10" font-family="Open Sans">1000</text>
<text fill="#262626" x="496.34" y="271.99" font-size="10" text-anchor="middle" dy="10" font-family="Open Sans">10000</text>
<text fill="#262626" x="543" y="271.99" font-size="10" text-anchor="middle" dy="10" font-family="Open Sans">20000</text>
<polyline fill="none" stroke="#262626" stroke-width="0.5" stroke-linecap="butt" stroke-linejoin="miter" stroke-dasharray="16,0" points="78,267 543,267"/>
<polyline fill="none" stroke="#262626" stroke-width="0.5" stroke-linecap="butt" stroke-linejoin="miter" stroke-dasharray="16,0" points="78,22.5 543,22.5"/>
<polyline fill="none" stroke="#262626" stroke-width="0.5" stroke-linecap="butt" stroke-linejoin="miter" stroke-dasharray="16,0" points="78,267 78,22.5"/>
<polyline fill="none" stroke="#262626" stroke-width="0.5" stroke-linecap="butt" stroke-linejoin="miter" stroke-dasharray="16,0" points="543,267 543,22.5"/>
<text fill="#262626" x="310.5" y="284.99" font-size="10" text-anchor="middle" dy="10" font-family="Open Sans">Frequency (Hz)</text>
<text fill="#262626" x="69" y="144.75" font-size="10" transform="rotate(-90, 69, 144.75)" text-anchor="middle" dy="0" font-family="Open Sans">Amplitude</text>
<polyline fill="none" stroke="#0071bc" stroke-width="0.5" stroke-linecap="butt" stroke-linejoin="miter" points="338.898,267.244 341.34,93.1893 343.336,267.244"/>
</g>
</g>
</svg>
