<?xml version="1.0" encoding="UTF-8" standalone="no"?>
<?xml-stylesheet type="text/css" href="https://fonts.googleapis.com/css?family=Open+Sans" ?>
<svg xmlns="http://www.w3.org/2000/svg"
     xmlns:xlink="http://www.w3.org/1999/xlink"
     width="600px" height="180px" viewBox="0 0 600 180">
<title>gl2ps_renderer figure</title>
<desc>
Creator: GL2PS 1.4.0, (C) 1999-2017 C. Geuzaine
For: Octave
</desc>
<defs>
</defs>
<polygon fill="#ffffff" points="0,0 600,0 600,180 0,180"/>
<g>
<polygon fill="#fefefe" points="0,180 600,180 600,0 0,0" shape-rendering="crispEdges"/>
<clipPath id="cp00600180">
  <polygon points="0,180 600,180 600,0 0,0"/>
</clipPath>
<g clip-path="url(#cp00600180)">
<polygon fill="#ffffff" shape-rendering="crispEdges" points="78,149.01 543,149.01 78,13.5"/>
<polygon fill="#ffffff" shape-rendering="crispEdges" points="543,149.01 543,13.5 78,13.5"/>
<polyline fill="none" stroke="#262626" stroke-width="0.5" stroke-linecap="butt" stroke-linejoin="miter" points="78,149.01 78,144.377"/>
<polyline fill="none" stroke="#262626" stroke-width="0.5" stroke-linecap="butt" stroke-linejoin="miter" points="78,13.5 78,18.1333"/>
<polyline fill="none" stroke="#262626" stroke-width="0.5" stroke-linecap="butt" stroke-linejoin="miter" points="194.25,149.01 194.25,144.377"/>
<polyline fill="none" stroke="#262626" stroke-width="0.5" stroke-linecap="butt" stroke-linejoin="miter" points="194.25,13.5 194.25,18.1333"/>
<polyline fill="none" stroke="#262626" stroke-width="0.5" stroke-linecap="butt" stroke-linejoin="miter" points="310.5,149.01 310.5,144.377"/>
<polyline fill="none" stroke="#262626" stroke-width="0.5" stroke-linecap="butt" stroke-linejoin="miter" points="310.5,13.5 310.5,18.1333"/>
<polyline fill="none" stroke="#262626" stroke-width="0.5" stroke-linecap="butt" stroke-linejoin="miter" points="426.75,149.01 426.75,144.377"/>
<polyline fill="none" stroke="#262626" stroke-width="0.5" stroke-linecap="butt" stroke-linejoin="miter" points="426.75,13.5 426.75,18.1333"/>
<polyline fill="none" stroke="#262626" stroke-width="0.5" stroke-linecap="butt" stroke-linejoin="miter" points="543,149.01 543,144.377"/>
<polyline fill="none" stroke="#262626" stroke-width="0.5" stroke-linecap="butt" stroke-linejoin="miter" points="543,13.5 543,18.1333"/>
<text fill="#262626" x="78" y="153.992" font-size="10" text-anchor="middle" dy="10" font-family="Open Sans">0</text>
<text fill="#262626" x="194.25" y="153.992" font-size="10" text-anchor="middle" dy="10" font-family="Open Sans">0.5</text>
<text fill="#262626" x="310.5" y="153.992" font-size="10" text-anchor="middle" dy="10" font-family="Open Sans">1</text>
<text fill="#262626" x="426.75" y="153.992" font-size="10" text-anchor="middle" dy="10" font-family="Open Sans">1.5</text>
<text fill="#262626" x="543" y="153.992" font-size="10" text-anchor="middle" dy="10" font-family="Open Sans">2</text>
<polyline fill="none" stroke="#262626" stroke-width="0.5" stroke-linecap="butt" stroke-linejoin="miter" points="78,149.01 82.65,149.01"/>
<polyline fill="none" stroke="#262626" stroke-width="0.5" stroke-linecap="butt" stroke-linejoin="miter" points="543,149.01 538.35,149.01"/>
<polyline fill="none" stroke="#262626" stroke-width="0.5" stroke-linecap="butt" stroke-linejoin="miter" points="78,115.133 82.65,115.133"/>
<polyline fill="none" stroke="#262626" stroke-width="0.5" stroke-linecap="butt" stroke-linejoin="miter" points="543,115.133 538.35,115.133"/>
<polyline fill="none" stroke="#262626" stroke-width="0.5" stroke-linecap="butt" stroke-linejoin="miter" points="78,81.2551 82.65,81.2551"/>
<polyline fill="none" stroke="#262626" stroke-width="0.5" stroke-linecap="butt" stroke-linejoin="miter" points="543,81.2551 538.35,81.2551"/>
<polyline fill="none" stroke="#262626" stroke-width="0.5" stroke-linecap="butt" stroke-linejoin="miter" points="78,47.3776 82.65,47.3776"/>
<polyline fill="none" stroke="#262626" stroke-width="0.5" stroke-linecap="butt" stroke-linejoin="miter" points="543,47.3776 538.35,47.3776"/>
<polyline fill="none" stroke="#262626" stroke-width="0.5" stroke-linecap="butt" stroke-linejoin="miter" points="78,13.5 82.65,13.5"/>
<polyline fill="none" stroke="#262626" stroke-width="0.5" stroke-linecap="butt" stroke-linejoin="miter" points="543,13.5 538.35,13.5"/>
<text fill="#262626" x="73" y="149.01" font-size="10" text-anchor="end" dy="5" font-family="Open Sans">-0.4</text>
<text fill="#262626" x="73" y="115.133" font-size="10" text-anchor="end" dy="5" font-family="Open Sans">-0.2</text>
<text fill="#262626" x="73" y="81.2551" font-size="10" text-anchor="end" dy="5" font-family="Open Sans">0</text>
<text fill="#262626" x="73" y="47.3776" font-size="10" text-anchor="end" dy="5" font-family="Open Sans">0.2</text>
<text fill="#262626" x="73" y="13.5" font-size="10" text-anchor="end" dy="5" font-family="Open Sans">0.4</text>
<polyline fill="none" stroke="#262626" stroke-width="0.5" stroke-linecap="butt" stroke-linejoin="miter" stroke-dasharray="16,0" points="78,149.01 543,149.01"/>
<polyline fill="none" stroke="#262626" stroke-width="0.5" stroke-linecap="butt" stroke-linejoin="miter" stroke-dasharray="16,0" points="78,13.5 543,13.5"/>
<polyline fill="none" stroke="#262626" stroke-width="0.5" stroke-linecap="butt" stroke-linejoin="miter" stroke-dasharray="16,0" points="78,149.01 78,13.5"/>
<polyline fill="none" stroke="#262626" stroke-width="0.5" stroke-linecap="butt" stroke-linejoin="miter" stroke-dasharray="16,0" points="543,149.01 543,13.5"/>
<text fill="#262626" x="310.5" y="166.992" font-size="10" text-anchor="middle" dy="10" font-family="Open Sans">Time (milliseconds)</text>
<text fill="#262626" x="50" y="81.2551" font-size="10" transform="rotate(-90, 50, 81.2551)" text-anchor="middle" dy="0" font-family="Open Sans">Sound pressure (Pa)</text>
<polyline fill="none" stroke="#0071bc" stroke-width="0.5" stroke-linecap="butt" stroke-linejoin="miter" points="78,81.2551 80.4219,77.3112 82.8437,73.3841 85.2656,69.4908 87.6875,65.6478 90.1093,61.8717 92.5312,58.1785 94.9531,54.5842 97.375,51.1041 99.7969,47.7531 102.219,44.5455 104.641,41.4952 107.062,38.6151 109.484,35.9176 111.906,33.4143 114.328,31.1158 116.75,29.032 119.172,27.1718 121.594,25.5433 124.016,24.1533 126.437,23.0078 128.859,22.1118 131.281,21.469 133.703,21.0822 136.125,20.9531 138.547,21.0822 140.969,21.469 143.391,22.1118 145.812,23.0078 148.234,24.1533 150.656,25.5433 153.078,27.1718 155.5,29.032 157.922,31.1158 160.344,33.4143 162.766,35.9176 165.187,38.6151 167.609,41.4952 170.031,44.5455 172.453,47.7531 174.875,51.1041 177.297,54.5842 179.719,58.1785 182.141,61.8717 184.562,65.6478 186.984,69.4908 189.406,73.3841 191.828,77.3112 194.25,81.2551 196.672,85.1991 199.094,89.1261 201.516,93.0195 203.938,96.8624 206.359,100.639 208.781,104.332 211.203,107.926 213.625,111.406 216.047,114.757 218.469,117.965 220.891,121.015 223.312,123.895 225.734,126.593 228.156,129.096 230.578,131.394 233,133.478 235.422,135.338 237.844,136.967 240.266,138.357 242.687,139.502 245.109,140.398 247.531,141.041 249.953,141.428 252.375,141.557 254.797,141.428 257.219,141.041 259.641,140.398 262.062,139.502 264.484,138.357 266.906,136.967 269.328,135.338 271.75,133.478 274.172,131.394 276.594,129.096 279.016,126.593 281.438,123.895 283.859,121.015 286.281,117.965 288.703,114.757 291.125,111.406 293.547,107.926 295.969,104.332 298.391,100.639 300.812,96.8624 303.234,93.0195 305.656,89.1261 308.078,85.1991 310.5,81.2551 312.922,77.3112 315.344,73.3841 317.766,69.4908 320.188,65.6478 322.609,61.8717 325.031,58.1785 327.453,54.5842 329.875,51.1041 332.297,47.7531 334.719,44.5455 337.141,41.4952 339.562,38.6151 341.984,35.9176 344.406,33.4143 346.828,31.1158 349.25,29.032 351.672,27.1718 354.094,25.5433 356.516,24.1533 358.938,23.0078 361.359,22.1118 363.781,21.469 366.203,21.0822 368.625,20.9531 371.047,21.0822 373.469,21.469 375.891,22.1118 378.312,23.0078 380.734,24.1533 383.156,25.5433 385.578,27.1718 388,29.032 390.422,31.1158 392.844,33.4143 395.266,35.9176 397.688,38.6151 400.109,41.4952 402.531,44.5455 404.953,47.7531 407.375,51.1041 409.797,54.5842 412.219,58.1785 414.641,61.8717 417.062,65.6478 419.484,69.4908 421.906,73.3841 424.328,77.3112 426.75,81.2551 429.172,85.1991 431.594,89.1261 434.016,93.0195 436.438,96.8624 438.859,100.639 441.281,104.332 443.703,107.926 446.125,111.406 448.547,114.757 450.969,117.965 453.391,121.015 455.812,123.895 458.234,126.593 460.656,129.096 463.078,131.394 465.5,133.478 467.922,135.338 470.344,136.967 472.766,138.357 475.188,139.502 477.609,140.398 480.031,141.041 482.453,141.428 484.875,141.557 487.297,141.428 489.719,141.041 492.141,140.398 494.562,139.502 496.984,138.357 499.406,136.967 501.828,135.338 504.25,133.478 506.672,131.394 509.094,129.096 511.516,126.593 513.938,123.895 516.359,121.015 518.781,117.965 521.203,114.757 523.625,111.406 526.047,107.926 528.469,104.332 530.891,100.639 533.312,96.8624 535.734,93.0195 538.156,89.1261 540.578,85.1991 543,81.2551"/>
</g>
<clipPath id="cp00600180">
  <polygon points="0,180 600,180 600,0 0,0"/>
</clipPath>
<g clip-path="url(#cp00600180)">
</g>
</g>
</svg>
