<?xml version="1.0" encoding="UTF-8" standalone="no"?>
<?xml-stylesheet type="text/css" href="https://fonts.googleapis.com/css?family=Open+Sans" ?>
<svg xmlns="http://www.w3.org/2000/svg"
     xmlns:xlink="http://www.w3.org/1999/xlink"
     width="600px" height="180px" viewBox="0 0 600 180">
<title>gl2ps_renderer figure</title>
<desc>
Creator: GL2PS 1.4.0, (C) 1999-2017 C. Geuzaine
For: Octave
</desc>
<defs>
</defs>
<polygon fill="#ffffff" points="0,0 600,0 600,180 0,180"/>
<g>
<polygon fill="#fefefe" points="0,180 600,180 600,0 0,0" shape-rendering="crispEdges"/>
<clipPath id="cp00600180">
  <polygon points="0,180 600,180 600,0 0,0"/>
</clipPath>
<g clip-path="url(#cp00600180)">
<polygon fill="#ffffff" shape-rendering="crispEdges" points="78,149.01 543,149.01 78,13.5"/>
<polygon fill="#ffffff" shape-rendering="crispEdges" points="543,149.01 543,13.5 78,13.5"/>
<polyline fill="none" stroke="#262626" stroke-width="0.5" stroke-linecap="butt" stroke-linejoin="miter" points="78,149.01 78,144.377"/>
<polyline fill="none" stroke="#262626" stroke-width="0.5" stroke-linecap="butt" stroke-linejoin="miter" points="78,13.5 78,18.1333"/>
<polyline fill="none" stroke="#262626" stroke-width="0.5" stroke-linecap="butt" stroke-linejoin="miter" points="155.5,149.01 155.5,144.377"/>
<polyline fill="none" stroke="#262626" stroke-width="0.5" stroke-linecap="butt" stroke-linejoin="miter" points="155.5,13.5 155.5,18.1333"/>
<polyline fill="none" stroke="#262626" stroke-width="0.5" stroke-linecap="butt" stroke-linejoin="miter" points="233,149.01 233,144.377"/>
<polyline fill="none" stroke="#262626" stroke-width="0.5" stroke-linecap="butt" stroke-linejoin="miter" points="233,13.5 233,18.1333"/>
<polyline fill="none" stroke="#262626" stroke-width="0.5" stroke-linecap="butt" stroke-linejoin="miter" points="310.5,149.01 310.5,144.377"/>
<polyline fill="none" stroke="#262626" stroke-width="0.5" stroke-linecap="butt" stroke-linejoin="miter" points="310.5,13.5 310.5,18.1333"/>
<polyline fill="none" stroke="#262626" stroke-width="0.5" stroke-linecap="butt" stroke-linejoin="miter" points="388,149.01 388,144.377"/>
<polyline fill="none" stroke="#262626" stroke-width="0.5" stroke-linecap="butt" stroke-linejoin="miter" points="388,13.5 388,18.1333"/>
<polyline fill="none" stroke="#262626" stroke-width="0.5" stroke-linecap="butt" stroke-linejoin="miter" points="465.5,149.01 465.5,144.377"/>
<polyline fill="none" stroke="#262626" stroke-width="0.5" stroke-linecap="butt" stroke-linejoin="miter" points="465.5,13.5 465.5,18.1333"/>
<polyline fill="none" stroke="#262626" stroke-width="0.5" stroke-linecap="butt" stroke-linejoin="miter" points="543,149.01 543,144.377"/>
<polyline fill="none" stroke="#262626" stroke-width="0.5" stroke-linecap="butt" stroke-linejoin="miter" points="543,13.5 543,18.1333"/>
<text fill="#262626" x="78" y="153.992" font-size="10" text-anchor="middle" dy="10" font-family="Open Sans">0</text>
<text fill="#262626" x="155.5" y="153.992" font-size="10" text-anchor="middle" dy="10" font-family="Open Sans">0.5</text>
<text fill="#262626" x="233" y="153.992" font-size="10" text-anchor="middle" dy="10" font-family="Open Sans">1</text>
<text fill="#262626" x="310.5" y="153.992" font-size="10" text-anchor="middle" dy="10" font-family="Open Sans">1.5</text>
<text fill="#262626" x="388" y="153.992" font-size="10" text-anchor="middle" dy="10" font-family="Open Sans">2</text>
<text fill="#262626" x="465.5" y="153.992" font-size="10" text-anchor="middle" dy="10" font-family="Open Sans">2.5</text>
<text fill="#262626" x="543" y="153.992" font-size="10" text-anchor="middle" dy="10" font-family="Open Sans">3</text>
<polyline fill="none" stroke="#262626" stroke-width="0.5" stroke-linecap="butt" stroke-linejoin="miter" stroke-dasharray="16,0" points="78,149.01 543,149.01"/>
<polyline fill="none" stroke="#262626" stroke-width="0.5" stroke-linecap="butt" stroke-linejoin="miter" stroke-dasharray="16,0" points="78,13.5 543,13.5"/>
<polyline fill="none" stroke="#262626" stroke-width="0.5" stroke-linecap="butt" stroke-linejoin="miter" stroke-dasharray="16,0" points="78,149.01 78,13.5"/>
<polyline fill="none" stroke="#262626" stroke-width="0.5" stroke-linecap="butt" stroke-linejoin="miter" stroke-dasharray="16,0" points="543,149.01 543,13.5"/>
<text fill="#262626" x="310.5" y="166.992" font-size="10" text-anchor="middle" dy="10" font-family="Open Sans">Time (milliseconds)</text>
<text fill="#262626" x="69" y="81.2551" font-size="10" transform="rotate(-90, 69, 81.2551)" text-anchor="middle" dy="0" font-family="Open Sans">Amplitude</text>
<polyline fill="none" stroke="#0071bc" stroke-width="0.5" stroke-linecap="butt" stroke-linejoin="miter" points="78,81.2551 80.0759,75.5603 82.1518,69.9057 84.2277,64.3315 86.3035,58.877 88.3795,53.5809 90.4553,48.4807 92.5312,43.6124 94.6071,39.0105 96.683,34.7076 98.7589,30.734 100.835,27.1181 102.911,23.8852 104.987,21.0584 107.062,18.6576 109.138,16.6997 111.214,15.1988 113.29,14.1653 115.366,13.6066 117.442,13.5267 119.518,13.926 121.594,14.8019 123.67,16.1481 125.746,17.955 127.821,20.2099 129.897,22.8968 131.973,25.9967 134.049,29.4877 136.125,33.345 138.201,37.5414 140.277,42.0472 142.353,46.8304 144.429,51.8573 146.504,57.0922 148.58,62.4981 150.656,68.0367 152.732,73.6689 154.808,79.3548 156.884,85.0542 158.96,90.7266 161.036,96.332 163.112,101.831 165.187,107.184 167.263,112.353 169.339,117.303 171.415,121.997 173.491,126.403 175.567,130.49 177.643,134.228 179.719,137.591 181.795,140.556 183.871,143.101 185.946,145.208 188.022,146.863 190.098,148.053 192.174,148.77 194.25,149.01 196.326,148.77 198.402,148.053 200.478,146.863 202.554,145.208 204.629,143.101 206.705,140.556 208.781,137.591 210.857,134.228 212.933,130.49 215.009,126.403 217.085,121.997 219.161,117.303 221.237,112.353 223.312,107.184 225.388,101.831 227.464,96.332 229.54,90.7266 231.616,85.0542 233.692,79.3548 235.768,73.6689 237.844,68.0367 239.92,62.4981 241.996,57.0922 244.071,51.8573 246.147,46.8304 248.223,42.0472 250.299,37.5414 252.375,33.345 254.451,29.4877 256.527,25.9967 258.603,22.8968 260.679,20.2099 262.754,17.955 264.83,16.1481 266.906,14.8019 268.982,13.926 271.058,13.5267 273.134,13.6066 275.21,14.1653 277.286,15.1988 279.362,16.6997 281.438,18.6576 283.513,21.0584 285.589,23.8852 287.665,27.1181 289.741,30.734 291.817,34.7076 293.893,39.0105 295.969,43.6124 298.045,48.4807 300.121,53.5809 302.196,58.877 304.272,64.3315 306.348,69.9057 308.424,75.5603 310.5,81.2551 312.576,86.95 314.652,92.6045 316.728,98.1787 318.804,103.633 320.879,108.929 322.955,114.03 325.031,118.898 327.107,123.5 329.183,127.803 331.259,131.776 333.335,135.392 335.411,138.625 337.487,141.452 339.562,143.853 341.638,145.81 343.714,147.311 345.79,148.345 347.866,148.904 349.942,148.984 352.018,148.584 354.094,147.708 356.17,146.362 358.246,144.555 360.321,142.3 362.397,139.613 364.473,136.514 366.549,133.023 368.625,129.165 370.701,124.969 372.777,120.463 374.853,115.68 376.929,110.653 379.004,105.418 381.08,100.012 383.156,94.4735 385.232,88.8413 387.308,83.1554 389.384,77.456 391.46,71.7836 393.536,66.1782 395.612,60.6795 397.688,55.3264 399.763,50.1567 401.839,45.2072 403.915,40.5128 405.991,36.1067 408.067,32.0202 410.143,28.282 412.219,24.9188 414.295,21.9543 416.371,19.4094 418.446,17.3022 420.522,15.6476 422.598,14.4573 424.674,13.7397 426.75,13.5 428.826,13.7397 430.902,14.4573 432.978,15.6476 435.054,17.3022 437.129,19.4094 439.205,21.9543 441.281,24.9188 443.357,28.282 445.433,32.0202 447.509,36.1067 449.585,40.5128 451.661,45.2072 453.737,50.1567 455.812,55.3264 457.888,60.6795 459.964,66.1782 462.04,71.7836 464.116,77.456 466.192,83.1554 468.268,88.8413 470.344,94.4735 472.42,100.012 474.496,105.418 476.571,110.653 478.647,115.68 480.723,120.463 482.799,124.969 484.875,129.165 486.951,133.023 489.027,136.514 491.103,139.613 493.179,142.3 495.255,144.555 497.33,146.362 499.406,147.708 501.482,148.584 503.558,148.984 505.634,148.904 507.71,148.345 509.786,147.311 511.862,145.81 513.938,143.853 516.013,141.452 518.089,138.625 520.165,135.392 522.241,131.776 524.317,127.803 526.393,123.5 528.469,118.898 530.545,114.03 532.621,108.929 534.696,103.633 536.772,98.1787 538.848,92.6045 540.924,86.95 543,81.2551"/>
</g>
<clipPath id="cp00600180">
  <polygon points="0,180 600,180 600,0 0,0"/>
</clipPath>
<g clip-path="url(#cp00600180)">
</g>
</g>
</svg>
