<?xml-stylesheet type="text/css" href="https://fonts.googleapis.com/css?family=Open+Sans:300italic,400italic,600italic,700italic,400,600,700,300&amp;subset=latin,cyrillic-ext,latin-ext,cyrillic" ?><svg xmlns="http://www.w3.org/2000/svg" viewBox="0 0 600 180"><path fill="#fff" d="M0 0h600v180H0z"/><path fill="#fefefe" shape-rendering="crispEdges" d="M0 180h600V0H0z"/><clipPath id="a"><path d="M0 180h600V0H0z"/></clipPath><g clip-path="url(#a)"><path fill="#fff" shape-rendering="crispEdges" d="M60 130h500L60 5z"/><path fill="#fff" shape-rendering="crispEdges" d="M560 130V5H60z"/><path fill="none" stroke="#262626" stroke-width=".5" d="M60 130v-5M173.636 130v-5M287.273 130v-5M400.909 130v-5M514.545 130v-5"/><text fill="#262626" x="60" y="135" font-size="10" text-anchor="middle" dy="10" font-family="Open Sans">0</text><text fill="#262626" x="173.636" y="135" font-size="10" text-anchor="middle" dy="10" font-family="Open Sans">20</text><text fill="#262626" x="287.273" y="135" font-size="10" text-anchor="middle" dy="10" font-family="Open Sans">40</text><text fill="#262626" x="400.909" y="135" font-size="10" text-anchor="middle" dy="10" font-family="Open Sans">60</text><text fill="#262626" x="514.545" y="135" font-size="10" text-anchor="middle" dy="10" font-family="Open Sans">80</text><path fill="none" stroke="#262626" stroke-width=".5" d="M60 129.998h5M60 98.75h5M60 67.499h5M60 36.249h5M60 5h5"/><text fill="#262626" x="55" y="129.998" font-size="10" text-anchor="end" dy="5" font-family="Open Sans">-32767</text><text fill="#262626" x="55" y="98.749" font-size="10" text-anchor="end" dy="5" font-family="Open Sans">-16384</text><text fill="#262626" x="55" y="67.499" font-size="10" text-anchor="end" dy="5" font-family="Open Sans">0</text><text fill="#262626" x="55" y="36.249" font-size="10" text-anchor="end" dy="5" font-family="Open Sans">16384</text><text fill="#262626" x="55" y="5" font-size="10" text-anchor="end" dy="5" font-family="Open Sans">32767</text><path fill="none" stroke="#262626" stroke-width=".5" stroke-dasharray="16,0" d="M60 130h500M60 130V5"/><text fill="#262626" x="310" y="148" font-size="10" text-anchor="middle" dy="10" font-family="Open Sans">Time (samples)</text><text fill="#262626" x="17" y="67.5" font-size="10" transform="rotate(-90 17 67.5)" text-anchor="middle" dy="0" font-family="Open Sans">Sample value</text><path fill="none" stroke="#0071bc" stroke-width=".5" d="M65.682 67.499v-8.874M71.364 67.499v-17.57M77.045 67.499V41.591M82.727 67.499V33.778M88.41 67.499V26.647M94.09 67.499V20.345M99.773 67.499v-52.5M105.455 67.499V10.715M111.136 67.499V7.583M116.818 67.499V5.665M122.5 67.499V5M128.182 67.499V5.602M133.864 67.499V7.459M139.545 67.499V10.531M145.227 67.499V14.758M150.909 67.499V20.054M156.591 67.499V26.311M162.273 67.499V33.404M167.955 67.499V41.187M173.636 67.499V49.503M179.318 67.499v-9.315M190.682 67.499v8.434M196.364 67.499v17.142M202.045 67.499v25.502M207.727 67.499v33.346M213.409 67.499v40.514M219.091 67.499v46.861M224.773 67.499v52.258M230.455 67.499v56.596M236.136 67.499v59.788M241.818 67.499v61.767M247.5 67.499v62.496M253.182 67.499v61.957M258.864 67.499v60.163M264.545 67.499v57.15M270.227 67.499v52.979M275.909 67.499v47.734M281.591 67.499v41.521M287.273 67.499v34.468M292.955 67.499v26.716M298.636 67.499v18.422M304.318 67.499v9.755M315.682 67.499v-7.992M321.364 67.499V50.786M327.045 67.499V42.404M332.727 67.499V34.531M338.409 67.499V27.325M344.091 67.499V20.934M349.773 67.499V15.487M355.455 67.499V11.093M361.136 67.499V7.843M366.818 67.499V5.801M372.5 67.499V5.009M378.182 67.499V5.485M383.864 67.499V7.217M389.545 67.499V10.17M395.227 67.499V14.286M400.909 67.499v-48.02M406.591 67.499V25.646M412.273 67.499V32.661M417.955 67.499V40.382M423.636 67.499V48.652M429.318 67.499V57.305M435 67.499v-1.335M440.682 67.499v7.55M446.364 67.499v16.284M452.045 67.499v24.687M457.727 67.499v32.589M463.409 67.499v39.832M469.091 67.499v46.267M474.773 67.499v51.764M480.455 67.499v56.213M486.136 67.499v59.522M491.818 67.499v61.625M497.5 67.499v62.48M503.182 67.499v62.068M508.864 67.499v60.398M514.545 67.499v57.505M520.227 67.499v53.446M525.909 67.499v48.304M531.591 67.499v42.183M537.273 67.499v35.207M542.955 67.499v27.518M548.636 67.499V86.77M554.318 67.499v10.634M560 67.499v1.78"/><path fill="#0071bc" shape-rendering="crispEdges" d="M60.667 68.654h-1.334l2-1.155z"/><path fill="#0071bc" shape-rendering="crispEdges" d="M59.333 68.654l-.666-1.155h2.666z"/><path fill="#0071bc" shape-rendering="crispEdges" d="M58.667 67.5l.666-1.156 2 1.155z"/><path fill="#0071bc" shape-rendering="crispEdges" d="M59.333 66.344h1.334l.666 1.155zM60.667 66.344l.666 1.155zM66.349 59.78h-1.334l2-1.156z"/><path fill="#0071bc" shape-rendering="crispEdges" d="M65.015 59.78l-.666-1.156h2.666zM64.349 58.624l.666-1.154 2 1.154z"/><path fill="#0071bc" shape-rendering="crispEdges" d="M65.015 57.47h1.334l.666 1.154zM66.349 57.47l.666 1.154zM72.03 51.085h-1.333l2-1.155z"/><path fill="#0071bc" shape-rendering="crispEdges" d="M70.697 51.085l-.667-1.155h2.667zM70.03 49.93l.667-1.155 2 1.155z"/><path fill="#0071bc" shape-rendering="crispEdges" d="M70.697 48.775h1.333l.667 1.155zM72.03 48.775l.667 1.155zM77.712 42.746H76.38l2-1.155zM76.379 42.746l-.667-1.155h2.667zM75.712 41.591l.667-1.154 2 1.154z"/><path fill="#0071bc" shape-rendering="crispEdges" d="M76.379 40.437h1.333l.667 1.154zM77.712 40.437l.667 1.154zM83.394 34.932H82.06l2-1.154z"/><path fill="#0071bc" shape-rendering="crispEdges" d="M82.06 34.932l-.666-1.154h2.667zM81.394 33.778l.667-1.155 2 1.155z"/><path fill="#0071bc" shape-rendering="crispEdges" d="M82.06 32.623h1.334l.667 1.155zM83.394 32.623l.667 1.155zM89.076 27.802h-1.334l2-1.155z"/><path fill="#0071bc" shape-rendering="crispEdges" d="M87.742 27.802l-.666-1.155h2.666zM87.076 26.647l.666-1.154 2 1.154zM87.742 25.493h1.334l.666 1.154zM89.076 25.493l.666 1.154zM94.758 21.5h-1.334l2-1.155z"/><path fill="#0071bc" shape-rendering="crispEdges" d="M93.424 21.5l-.666-1.155h2.666zM92.758 20.345l.666-1.155 2 1.155z"/><path fill="#0071bc" shape-rendering="crispEdges" d="M93.424 19.19h1.334l.666 1.155zM94.758 19.19l.666 1.155zM100.439 16.153h-1.333l2-1.155z"/><path fill="#0071bc" shape-rendering="crispEdges" d="M99.106 16.153l-.667-1.155h2.667zM98.44 14.998l.666-1.154 2 1.154z"/><path fill="#0071bc" shape-rendering="crispEdges" d="M99.106 13.844h1.333l.667 1.154zM100.439 13.844l.667 1.154zM106.121 11.87h-1.333l2-1.155z"/><path fill="#0071bc" shape-rendering="crispEdges" d="M104.788 11.87l-.667-1.155h2.667zM104.121 10.715l.667-1.154 2 1.154zM104.788 9.56h1.333l.667 1.155zM106.121 9.56l.667 1.155zM111.803 8.738h-1.333l2-1.155z"/><path fill="#0071bc" shape-rendering="crispEdges" d="M110.47 8.738l-.667-1.155h2.667z"/><path fill="#0071bc" shape-rendering="crispEdges" d="M109.803 7.583l.667-1.154 2 1.154z"/><path fill="#0071bc" shape-rendering="crispEdges" d="M110.47 6.429h1.333l.667 1.154zM111.803 6.429l.667 1.154zM117.485 6.82h-1.333l2-1.155z"/><path fill="#0071bc" shape-rendering="crispEdges" d="M116.152 6.82l-.667-1.155h2.667zM115.485 5.665l.667-1.154 2 1.154zM116.152 4.51h1.333l.667 1.155zM117.485 4.51l.667 1.155zM123.167 6.155h-1.334l2-1.155z"/><path fill="#0071bc" shape-rendering="crispEdges" d="M121.833 6.155L121.167 5h2.666zM121.167 5l.666-1.154 2 1.154z"/><path fill="#0071bc" shape-rendering="crispEdges" d="M121.833 3.846h1.334L123.833 5zM123.167 3.846L123.833 5zM128.849 6.757h-1.334l2-1.155z"/><path fill="#0071bc" shape-rendering="crispEdges" d="M127.515 6.757l-.666-1.155h2.666z"/><path fill="#0071bc" shape-rendering="crispEdges" d="M126.849 5.602l.666-1.155 2 1.155z"/><path fill="#0071bc" shape-rendering="crispEdges" d="M127.515 4.447h1.334l.666 1.155zM128.849 4.447l.666 1.155zM134.53 8.613h-1.333l2-1.155z"/><path fill="#0071bc" shape-rendering="crispEdges" d="M133.197 8.613l-.667-1.155h2.667z"/><path fill="#0071bc" shape-rendering="crispEdges" d="M132.53 7.458l.667-1.155 2 1.155z"/><path fill="#0071bc" shape-rendering="crispEdges" d="M133.197 6.303h1.333l.667 1.155zM134.53 6.303l.667 1.155zM140.212 11.685h-1.333l2-1.154z"/><path fill="#0071bc" shape-rendering="crispEdges" d="M138.879 11.685l-.667-1.154h2.667zM138.212 10.53l.667-1.154 2 1.155z"/><path fill="#0071bc" shape-rendering="crispEdges" d="M138.879 9.376h1.333l.667 1.155zM140.212 9.376l.667 1.155zM145.894 15.913h-1.333l2-1.155z"/><path fill="#0071bc" shape-rendering="crispEdges" d="M144.561 15.913l-.667-1.155h2.667zM143.894 14.758l.667-1.155 2 1.155z"/><path fill="#0071bc" shape-rendering="crispEdges" d="M144.561 13.603h1.333l.667 1.155zM145.894 13.603l.667 1.155zM151.576 21.209h-1.334l2-1.155z"/><path fill="#0071bc" shape-rendering="crispEdges" d="M150.242 21.209l-.666-1.155h2.666zM149.576 20.054l.666-1.155 2 1.155z"/><path fill="#0071bc" shape-rendering="crispEdges" d="M150.242 18.9h1.334l.666 1.154zM151.576 18.9l.666 1.154zM157.258 27.466h-1.334l2-1.155z"/><path fill="#0071bc" shape-rendering="crispEdges" d="M155.924 27.466l-.666-1.155h2.666zM155.258 26.311l.666-1.154 2 1.154z"/><path fill="#0071bc" shape-rendering="crispEdges" d="M155.924 25.157h1.334l.666 1.154zM157.258 25.157l.666 1.154zM162.939 34.558h-1.333l2-1.154z"/><path fill="#0071bc" shape-rendering="crispEdges" d="M161.606 34.558l-.667-1.154h2.667z"/><path fill="#0071bc" shape-rendering="crispEdges" d="M160.939 33.404l.667-1.155 2 1.155z"/><path fill="#0071bc" shape-rendering="crispEdges" d="M161.606 32.249h1.333l.667 1.155zM162.939 32.249l.667 1.155zM168.621 42.341h-1.333l2-1.154z"/><path fill="#0071bc" shape-rendering="crispEdges" d="M167.288 42.341l-.667-1.154h2.667zM166.621 41.187l.667-1.155 2 1.155z"/><path fill="#0071bc" shape-rendering="crispEdges" d="M167.288 40.032h1.333l.667 1.155zM168.621 40.032l.667 1.155zM174.303 50.658h-1.333l2-1.155z"/><path fill="#0071bc" shape-rendering="crispEdges" d="M172.97 50.658l-.667-1.155h2.667zM172.303 49.503l.667-1.155 2 1.155z"/><path fill="#0071bc" shape-rendering="crispEdges" d="M172.97 48.348h1.333l.667 1.155zM174.303 48.348l.667 1.155zM179.985 59.339h-1.333l2-1.155zM178.652 59.339l-.667-1.155h2.667zM177.985 58.184l.667-1.155 2 1.155z"/><path fill="#0071bc" shape-rendering="crispEdges" d="M178.652 57.03h1.333l.667 1.154zM179.985 57.03l.667 1.154zM185.667 68.209h-1.334l2-1.155z"/><path fill="#0071bc" shape-rendering="crispEdges" d="M184.333 68.209l-.666-1.155h2.666zM183.667 67.054l.666-1.155 2 1.155z"/><path fill="#0071bc" shape-rendering="crispEdges" d="M184.333 65.9h1.334l.666 1.154zM185.667 65.9l.666 1.154zM191.348 77.087h-1.333l2-1.154zM190.015 77.087l-.667-1.154h2.667zM189.348 75.933l.667-1.155 2 1.155z"/><path fill="#0071bc" shape-rendering="crispEdges" d="M190.015 74.778h1.333l.667 1.155zM191.348 74.778l.667 1.155zM197.03 85.795h-1.333l2-1.154z"/><path fill="#0071bc" shape-rendering="crispEdges" d="M195.697 85.795l-.667-1.154h2.667zM195.03 84.64l.667-1.154 2 1.154z"/><path fill="#0071bc" shape-rendering="crispEdges" d="M195.697 83.486h1.333l.667 1.154zM197.03 83.486l.667 1.154zM202.712 94.156h-1.333l2-1.155zM201.379 94.156L200.712 93h2.667z"/><path fill="#0071bc" shape-rendering="crispEdges" d="M200.712 93.001l.667-1.155 2 1.155z"/><path fill="#0071bc" shape-rendering="crispEdges" d="M201.379 91.846h1.333l.667 1.155zM202.712 91.846l.667 1.155zM208.394 101.999h-1.333l2-1.154z"/><path fill="#0071bc" shape-rendering="crispEdges" d="M207.061 101.999l-.667-1.154h2.667zM206.394 100.845l.667-1.155 2 1.155z"/><path fill="#0071bc" shape-rendering="crispEdges" d="M207.061 99.69h1.333l.667 1.155zM208.394 99.69l.667 1.155zM214.076 109.167h-1.334l2-1.154z"/><path fill="#0071bc" shape-rendering="crispEdges" d="M212.742 109.167l-.666-1.154h2.666zM212.076 108.013l.666-1.155 2 1.155z"/><path fill="#0071bc" shape-rendering="crispEdges" d="M212.742 106.858h1.334l.666 1.155zM214.076 106.858l.666 1.155zM219.758 115.514h-1.334l2-1.154z"/><path fill="#0071bc" shape-rendering="crispEdges" d="M218.424 115.514l-.666-1.154h2.666zM217.758 114.36l.666-1.155 2 1.155z"/><path fill="#0071bc" shape-rendering="crispEdges" d="M218.424 113.205h1.334l.666 1.155zM219.758 113.205l.666 1.155zM225.439 120.912h-1.333l2-1.155z"/><path fill="#0071bc" shape-rendering="crispEdges" d="M224.106 120.912l-.667-1.155h2.667zM223.439 119.757l.667-1.155 2 1.155z"/><path fill="#0071bc" shape-rendering="crispEdges" d="M224.106 118.602h1.333l.667 1.155zM225.439 118.602l.667 1.155zM231.121 125.25h-1.333l2-1.155z"/><path fill="#0071bc" shape-rendering="crispEdges" d="M229.788 125.25l-.667-1.155h2.667zM229.121 124.095l.667-1.154 2 1.154z"/><path fill="#0071bc" shape-rendering="crispEdges" d="M229.788 122.941h1.333l.667 1.154zM231.121 122.941l.667 1.154zM236.803 128.441h-1.333l2-1.154z"/><path fill="#0071bc" shape-rendering="crispEdges" d="M235.47 128.441l-.667-1.154h2.667zM234.803 127.287l.667-1.155 2 1.155z"/><path fill="#0071bc" shape-rendering="crispEdges" d="M235.47 126.132h1.333l.667 1.155zM236.803 126.132l.667 1.155zM242.485 130.421h-1.333l2-1.155zM241.152 130.421l-.667-1.155h2.667zM240.485 129.266l.667-1.154 2 1.154z"/><path fill="#0071bc" shape-rendering="crispEdges" d="M241.152 128.112h1.333l.667 1.154zM242.485 128.112l.667 1.154zM248.167 131.149h-1.334l2-1.154z"/><path fill="#0071bc" shape-rendering="crispEdges" d="M246.833 131.149l-.666-1.154h2.666zM246.167 129.995l.666-1.155 2 1.155z"/><path fill="#0071bc" shape-rendering="crispEdges" d="M246.833 128.84h1.334l.666 1.155zM248.167 128.84l.666 1.155zM253.848 130.611h-1.333l2-1.155zM252.515 130.611l-.667-1.155h2.667zM251.848 129.456l.667-1.155 2 1.155z"/><path fill="#0071bc" shape-rendering="crispEdges" d="M252.515 128.301h1.333l.667 1.155zM253.848 128.301l.667 1.155zM259.53 128.817h-1.333l2-1.155z"/><path fill="#0071bc" shape-rendering="crispEdges" d="M258.197 128.817l-.667-1.155h2.667zM257.53 127.662l.667-1.155 2 1.155zM258.197 126.507h1.333l.667 1.155zM259.53 126.507l.667 1.155zM265.212 125.804h-1.333l2-1.155z"/><path fill="#0071bc" shape-rendering="crispEdges" d="M263.879 125.804l-.667-1.155h2.667zM263.212 124.649l.667-1.155 2 1.155zM263.879 123.494h1.333l.667 1.155zM265.212 123.494l.667 1.155zM270.894 121.632h-1.333l2-1.154z"/><path fill="#0071bc" shape-rendering="crispEdges" d="M269.561 121.632l-.667-1.154h2.667zM268.894 120.478l.667-1.155 2 1.155z"/><path fill="#0071bc" shape-rendering="crispEdges" d="M269.561 119.323h1.333l.667 1.155zM270.894 119.323l.667 1.155zM276.576 116.387h-1.334l2-1.154z"/><path fill="#0071bc" shape-rendering="crispEdges" d="M275.242 116.387l-.666-1.154h2.666zM274.576 115.233l.666-1.155 2 1.155z"/><path fill="#0071bc" shape-rendering="crispEdges" d="M275.242 114.078h1.334l.666 1.155zM276.576 114.078l.666 1.155zM282.258 110.175h-1.334l2-1.155z"/><path fill="#0071bc" shape-rendering="crispEdges" d="M280.924 110.175l-.666-1.155h2.666zM280.258 109.02l.666-1.154 2 1.154z"/><path fill="#0071bc" shape-rendering="crispEdges" d="M280.924 107.866h1.334l.666 1.154zM282.258 107.866l.666 1.154zM287.939 103.121h-1.333l2-1.154z"/><path fill="#0071bc" shape-rendering="crispEdges" d="M286.606 103.121l-.667-1.154h2.667zM285.939 101.967l.667-1.155 2 1.155z"/><path fill="#0071bc" shape-rendering="crispEdges" d="M286.606 100.812h1.333l.667 1.155zM287.939 100.812l.667 1.155zM293.621 95.37h-1.333l2-1.156z"/><path fill="#0071bc" shape-rendering="crispEdges" d="M292.288 95.37l-.667-1.156h2.667z"/><path fill="#0071bc" shape-rendering="crispEdges" d="M291.621 94.215l.667-1.155 2 1.154zM292.288 93.06h1.333l.667 1.154zM293.621 93.06l.667 1.154zM299.303 87.076h-1.333l2-1.155z"/><path fill="#0071bc" shape-rendering="crispEdges" d="M297.97 87.076l-.667-1.155h2.667z"/><path fill="#0071bc" shape-rendering="crispEdges" d="M297.303 85.921l.667-1.155 2 1.155zM297.97 84.766h1.333l.667 1.155zM299.303 84.766l.667 1.155zM304.985 78.409h-1.333l2-1.155z"/><path fill="#0071bc" shape-rendering="crispEdges" d="M303.652 78.409l-.667-1.155h2.667zM302.985 77.254l.667-1.155 2 1.155z"/><path fill="#0071bc" shape-rendering="crispEdges" d="M303.652 76.1h1.333l.667 1.154zM304.985 76.1l.667 1.154zM310.667 69.544h-1.334l2-1.154z"/><path fill="#0071bc" shape-rendering="crispEdges" d="M309.333 69.544l-.666-1.154h2.666zM308.667 68.39l.666-1.155 2 1.154zM309.333 67.235h1.334l.666 1.154zM310.667 67.235l.666 1.154zM316.349 60.662h-1.334l2-1.155z"/><path fill="#0071bc" shape-rendering="crispEdges" d="M315.015 60.662l-.666-1.155h2.666zM314.349 59.507l.666-1.155 2 1.155z"/><path fill="#0071bc" shape-rendering="crispEdges" d="M315.015 58.352h1.334l.666 1.155zM316.349 58.352l.666 1.155zM322.03 51.94h-1.333l2-1.154z"/><path fill="#0071bc" shape-rendering="crispEdges" d="M320.697 51.94l-.667-1.154h2.667zM320.03 50.786l.667-1.154 2 1.154zM320.697 49.632h1.333l.667 1.154zM322.03 49.632l.667 1.154zM327.712 43.559h-1.333l2-1.155z"/><path fill="#0071bc" shape-rendering="crispEdges" d="M326.379 43.559l-.667-1.155h2.667z"/><path fill="#0071bc" shape-rendering="crispEdges" d="M325.712 42.404l.667-1.155 2 1.155z"/><path fill="#0071bc" shape-rendering="crispEdges" d="M326.379 41.25h1.333l.667 1.154zM327.712 41.25l.667 1.154zM333.394 35.685h-1.333l2-1.154z"/><path fill="#0071bc" shape-rendering="crispEdges" d="M332.061 35.685l-.667-1.154h2.667zM331.394 34.53l.667-1.154 2 1.155zM332.061 33.376h1.333l.667 1.155zM333.394 33.376l.667 1.155zM339.076 28.48h-1.334l2-1.155z"/><path fill="#0071bc" shape-rendering="crispEdges" d="M337.742 28.48l-.666-1.155h2.666zM337.076 27.325l.666-1.154 2 1.154z"/><path fill="#0071bc" shape-rendering="crispEdges" d="M337.742 26.17h1.334l.666 1.155zM339.076 26.17l.666 1.155zM344.758 22.089h-1.334l2-1.155z"/><path fill="#0071bc" shape-rendering="crispEdges" d="M343.424 22.089l-.666-1.155h2.666z"/><path fill="#0071bc" shape-rendering="crispEdges" d="M342.758 20.934l.666-1.155 2 1.155z"/><path fill="#0071bc" shape-rendering="crispEdges" d="M343.424 19.78h1.334l.666 1.154zM344.758 19.78l.666 1.154zM350.439 16.641h-1.333l2-1.154z"/><path fill="#0071bc" shape-rendering="crispEdges" d="M349.106 16.641l-.667-1.154h2.667z"/><path fill="#0071bc" shape-rendering="crispEdges" d="M348.439 15.487l.667-1.155 2 1.155z"/><path fill="#0071bc" shape-rendering="crispEdges" d="M349.106 14.332h1.333l.667 1.155zM350.439 14.332l.667 1.155zM356.121 12.248h-1.333l2-1.155z"/><path fill="#0071bc" shape-rendering="crispEdges" d="M354.788 12.248l-.667-1.155h2.667zM354.121 11.093l.667-1.155 2 1.155zM354.788 9.938h1.333l.667 1.155zM356.121 9.938l.667 1.155zM361.803 8.997h-1.333l2-1.154z"/><path fill="#0071bc" shape-rendering="crispEdges" d="M360.47 8.997l-.667-1.154h2.667zM359.803 7.843l.667-1.155 2 1.155zM360.47 6.688h1.333l.667 1.155zM361.803 6.688l.667 1.155zM367.485 6.956h-1.333l2-1.155z"/><path fill="#0071bc" shape-rendering="crispEdges" d="M366.152 6.956l-.667-1.155h2.667zM365.485 5.801l.667-1.155 2 1.155z"/><path fill="#0071bc" shape-rendering="crispEdges" d="M366.152 4.646h1.333l.667 1.155zM367.485 4.646l.667 1.155zM373.167 6.165h-1.334l2-1.155z"/><path fill="#0071bc" shape-rendering="crispEdges" d="M371.833 6.165l-.666-1.155h2.666zM371.167 5.01l.666-1.155 2 1.155zM371.833 3.855h1.334l.666 1.155zM373.167 3.855l.666 1.155zM378.848 6.64h-1.333l2-1.155z"/><path fill="#0071bc" shape-rendering="crispEdges" d="M377.515 6.64l-.667-1.155h2.667z"/><path fill="#0071bc" shape-rendering="crispEdges" d="M376.848 5.485l.667-1.155 2 1.155z"/><path fill="#0071bc" shape-rendering="crispEdges" d="M377.515 4.33h1.333l.667 1.155zM378.848 4.33l.667 1.155zM384.53 8.372h-1.333l2-1.155z"/><path fill="#0071bc" shape-rendering="crispEdges" d="M383.197 8.372l-.667-1.155h2.667zM382.53 7.217l.667-1.155 2 1.155z"/><path fill="#0071bc" shape-rendering="crispEdges" d="M383.197 6.062h1.333l.667 1.155zM384.53 6.062l.667 1.155zM390.212 11.325h-1.333l2-1.155z"/><path fill="#0071bc" shape-rendering="crispEdges" d="M388.879 11.325l-.667-1.155h2.667zM388.212 10.17l.667-1.154 2 1.154zM388.879 9.016h1.333l.667 1.154zM390.212 9.016l.667 1.154zM395.894 15.44h-1.333l2-1.154z"/><path fill="#0071bc" shape-rendering="crispEdges" d="M394.561 15.44l-.667-1.154h2.667zM393.894 14.286l.667-1.155 2 1.155z"/><path fill="#0071bc" shape-rendering="crispEdges" d="M394.561 13.13h1.333l.667 1.156zM395.894 13.13l.667 1.156zM401.576 20.634h-1.334l2-1.155z"/><path fill="#0071bc" shape-rendering="crispEdges" d="M400.242 20.634l-.666-1.155h2.666z"/><path fill="#0071bc" shape-rendering="crispEdges" d="M399.576 19.48l.666-1.155 2 1.154z"/><path fill="#0071bc" shape-rendering="crispEdges" d="M400.242 18.325h1.334l.666 1.154zM401.576 18.325l.666 1.154zM407.258 26.8h-1.334l2-1.154z"/><path fill="#0071bc" shape-rendering="crispEdges" d="M405.924 26.8l-.666-1.154h2.666zM405.258 25.646l.666-1.155 2 1.155z"/><path fill="#0071bc" shape-rendering="crispEdges" d="M405.924 24.491h1.334l.666 1.155zM407.258 24.491l.666 1.155zM412.939 33.816h-1.333l2-1.155z"/><path fill="#0071bc" shape-rendering="crispEdges" d="M411.606 33.816l-.667-1.155h2.667zM410.939 32.66l.667-1.154 2 1.155z"/><path fill="#0071bc" shape-rendering="crispEdges" d="M411.606 31.506h1.333l.667 1.155zM412.939 31.506l.667 1.155zM418.621 41.536h-1.333l2-1.154z"/><path fill="#0071bc" shape-rendering="crispEdges" d="M417.288 41.536l-.667-1.154h2.667zM416.621 40.382l.667-1.155 2 1.155zM417.288 39.227h1.333l.667 1.155zM418.621 39.227l.667 1.155zM424.303 49.807h-1.333l2-1.155z"/><path fill="#0071bc" shape-rendering="crispEdges" d="M422.97 49.807l-.667-1.155h2.667zM422.303 48.652l.667-1.154 2 1.154zM422.97 47.498h1.333l.667 1.154zM424.303 47.498l.667 1.154zM429.985 58.46h-1.333l2-1.156z"/><path fill="#0071bc" shape-rendering="crispEdges" d="M428.652 58.46l-.667-1.156h2.667zM427.985 57.304l.667-1.154 2 1.154zM428.652 56.15h1.333l.667 1.154zM429.985 56.15l.667 1.154zM435.667 67.318h-1.334l2-1.154z"/><path fill="#0071bc" shape-rendering="crispEdges" d="M434.333 67.318l-.666-1.154h2.666zM433.667 66.163l.666-1.154 2 1.154zM434.333 65.009h1.334l.666 1.154zM435.667 65.009l.666 1.154zM441.349 76.204h-1.334l2-1.154z"/><path fill="#0071bc" shape-rendering="crispEdges" d="M440.015 76.204l-.666-1.154h2.666zM439.349 75.05l.666-1.155 2 1.154z"/><path fill="#0071bc" shape-rendering="crispEdges" d="M440.015 73.895h1.334l.666 1.154zM441.349 73.895l.666 1.154zM447.03 84.937h-1.333l2-1.154z"/><path fill="#0071bc" shape-rendering="crispEdges" d="M445.697 84.937l-.667-1.154h2.667zM445.03 83.782l.667-1.154 2 1.154zM445.697 82.628h1.333l.667 1.154zM447.03 82.628l.667 1.154zM452.712 93.34h-1.333l2-1.154z"/><path fill="#0071bc" shape-rendering="crispEdges" d="M451.379 93.34l-.667-1.154h2.667zM450.712 92.186l.667-1.155 2 1.154z"/><path fill="#0071bc" shape-rendering="crispEdges" d="M451.379 91.03h1.333l.667 1.156zM452.712 91.03l.667 1.156zM458.394 101.243h-1.333l2-1.155z"/><path fill="#0071bc" shape-rendering="crispEdges" d="M457.061 101.243l-.667-1.155h2.667zM456.394 100.088l.667-1.154 2 1.154z"/><path fill="#0071bc" shape-rendering="crispEdges" d="M457.061 98.933h1.333l.667 1.155zM458.394 98.933l.667 1.155zM464.076 108.485h-1.334l2-1.154z"/><path fill="#0071bc" shape-rendering="crispEdges" d="M462.742 108.485l-.666-1.154h2.666zM462.076 107.331l.666-1.155 2 1.155z"/><path fill="#0071bc" shape-rendering="crispEdges" d="M462.742 106.176h1.334l.666 1.155zM464.076 106.176l.666 1.155zM469.758 114.92h-1.334l2-1.154z"/><path fill="#0071bc" shape-rendering="crispEdges" d="M468.424 114.92l-.666-1.154h2.666zM467.758 113.766l.666-1.155 2 1.155z"/><path fill="#0071bc" shape-rendering="crispEdges" d="M468.424 112.611h1.334l.666 1.155zM469.758 112.611l.666 1.155zM475.439 120.418h-1.333l2-1.155z"/><path fill="#0071bc" shape-rendering="crispEdges" d="M474.106 120.418l-.667-1.155h2.667zM473.439 119.263l.667-1.154 2 1.154zM474.106 118.109h1.333l.667 1.154zM475.439 118.109l.667 1.154zM481.121 124.867h-1.333l2-1.155z"/><path fill="#0071bc" shape-rendering="crispEdges" d="M479.788 124.867l-.667-1.155h2.667zM479.121 123.712l.667-1.155 2 1.155zM479.788 122.557h1.333l.667 1.155zM481.121 122.557l.667 1.155zM486.803 128.176h-1.333l2-1.155z"/><path fill="#0071bc" shape-rendering="crispEdges" d="M485.47 128.176l-.667-1.155h2.667z"/><path fill="#0071bc" shape-rendering="crispEdges" d="M484.803 127.021l.667-1.155 2 1.155zM485.47 125.866h1.333l.667 1.155zM486.803 125.866l.667 1.155zM492.485 130.279h-1.334l2-1.155z"/><path fill="#0071bc" shape-rendering="crispEdges" d="M491.151 130.279l-.666-1.155h2.666zM490.485 129.124l.666-1.154 2 1.154z"/><path fill="#0071bc" shape-rendering="crispEdges" d="M491.151 127.97h1.334l.666 1.154zM492.485 127.97l.666 1.154zM498.167 131.133h-1.334l2-1.154z"/><path fill="#0071bc" shape-rendering="crispEdges" d="M496.833 131.133l-.666-1.154h2.666zM496.167 129.979l.666-1.155 2 1.155zM496.833 128.824h1.334l.666 1.155zM498.167 128.824l.666 1.155zM503.849 130.722h-1.334l2-1.155z"/><path fill="#0071bc" shape-rendering="crispEdges" d="M502.515 130.722l-.666-1.155h2.666zM501.849 129.567l.666-1.155 2 1.155z"/><path fill="#0071bc" shape-rendering="crispEdges" d="M502.515 128.412h1.334l.666 1.155zM503.849 128.412l.666 1.155zM509.53 129.052h-1.333l2-1.155z"/><path fill="#0071bc" shape-rendering="crispEdges" d="M508.197 129.052l-.667-1.155h2.667z"/><path fill="#0071bc" shape-rendering="crispEdges" d="M507.53 127.897l.667-1.155 2 1.155zM508.197 126.742h1.333l.667 1.155zM509.53 126.742l.667 1.155zM515.212 126.158h-1.333l2-1.154z"/><path fill="#0071bc" shape-rendering="crispEdges" d="M513.879 126.158l-.667-1.154h2.667zM513.212 125.004l.667-1.155 2 1.155z"/><path fill="#0071bc" shape-rendering="crispEdges" d="M513.879 123.849h1.333l.667 1.155zM515.212 123.849l.667 1.155zM520.894 122.099h-1.333l2-1.154z"/><path fill="#0071bc" shape-rendering="crispEdges" d="M519.561 122.099l-.667-1.154h2.667zM518.894 120.945l.667-1.155 2 1.155z"/><path fill="#0071bc" shape-rendering="crispEdges" d="M519.561 119.79h1.333l.667 1.155zM520.894 119.79l.667 1.155zM526.576 116.957h-1.334l2-1.154zM525.242 116.957l-.666-1.154h2.666zM524.576 115.803l.666-1.155 2 1.155z"/><path fill="#0071bc" shape-rendering="crispEdges" d="M525.242 114.648h1.334l.666 1.155zM526.576 114.648l.666 1.155zM532.258 110.836h-1.334l2-1.154zM530.924 110.836l-.666-1.154h2.666zM530.258 109.682l.666-1.155 2 1.155z"/><path fill="#0071bc" shape-rendering="crispEdges" d="M530.924 108.527h1.334l.666 1.155zM532.258 108.527l.666 1.155zM537.939 103.861h-1.333l2-1.155z"/><path fill="#0071bc" shape-rendering="crispEdges" d="M536.606 103.861l-.667-1.155h2.667zM535.939 102.706l.667-1.155 2 1.155z"/><path fill="#0071bc" shape-rendering="crispEdges" d="M536.606 101.551h1.333l.667 1.155zM537.939 101.551l.667 1.155zM543.621 96.171h-1.333l2-1.154z"/><path fill="#0071bc" shape-rendering="crispEdges" d="M542.288 96.171l-.667-1.154h2.667zM541.621 95.017l.667-1.155 2 1.155z"/><path fill="#0071bc" shape-rendering="crispEdges" d="M542.288 93.862h1.333l.667 1.155zM543.621 93.862l.667 1.155zM549.303 87.925h-1.333l2-1.155z"/><path fill="#0071bc" shape-rendering="crispEdges" d="M547.97 87.925l-.667-1.155h2.667zM547.303 86.77l.667-1.155 2 1.155z"/><path fill="#0071bc" shape-rendering="crispEdges" d="M547.97 85.615h1.333l.667 1.155zM549.303 85.615l.667 1.155zM554.985 79.287h-1.334l2-1.154zM553.651 79.287l-.666-1.154h2.666zM552.985 78.133l.666-1.155 2 1.155z"/><path fill="#0071bc" shape-rendering="crispEdges" d="M553.651 76.978h1.334l.666 1.155zM554.985 76.978l.666 1.155zM560.667 70.434h-1.334l2-1.154zM559.333 70.434l-.666-1.154h2.666zM558.667 69.28l.666-1.155 2 1.155z"/><path fill="#0071bc" shape-rendering="crispEdges" d="M559.333 68.125h1.334l.666 1.155zM560.667 68.125l.666 1.155z"/><path fill="none" stroke="#000" stroke-width=".5" d="M60 67.499h500M60 67.499h500"/></g></svg>