<?xml-stylesheet type="text/css" href="https://fonts.googleapis.com/css?family=Open+Sans" ?><svg xmlns="http://www.w3.org/2000/svg" viewBox="0 0 600 180"><path fill="#fff" d="M0 0h600v180H0z"/><path fill="#fefefe" shape-rendering="crispEdges" d="M0 180h600V0H0z"/><clipPath id="a"><path d="M0 180h600V0H0z"/></clipPath><g clip-path="url(#a)"><path fill="#fff" shape-rendering="crispEdges" d="M60 130h500L60 5z"/><path fill="#fff" shape-rendering="crispEdges" d="M560 130V5H60z"/><path fill="none" stroke="#262626" stroke-width=".5" d="M60 130v-5M60 5v5M185 130v-5M185 5v5M310 130v-5M310 5v5M435 130v-5M435 5v5M560 130v-5M560 5v5"/><text fill="#262626" x="60" y="135" font-size="10" text-anchor="middle" dy="10" font-family="Open Sans">0</text><text fill="#262626" x="185" y="135" font-size="10" text-anchor="middle" dy="10" font-family="Open Sans">0.5</text><text fill="#262626" x="310" y="135" font-size="10" text-anchor="middle" dy="10" font-family="Open Sans">1</text><text fill="#262626" x="435" y="135" font-size="10" text-anchor="middle" dy="10" font-family="Open Sans">1.5</text><text fill="#262626" x="560" y="135" font-size="10" text-anchor="middle" dy="10" font-family="Open Sans">2</text><path fill="none" stroke="#262626" stroke-width=".5" d="M60 130h5M560 130h-5M60 98.75h5M560 98.75h-5M60 67.5h5M560 67.5h-5M60 36.25h5M560 36.25h-5M60 5h5M560 5h-5"/><text fill="#262626" x="55" y="130" font-size="10" text-anchor="end" dy="5" font-family="Open Sans">-0.4</text><text fill="#262626" x="55" y="98.75" font-size="10" text-anchor="end" dy="5" font-family="Open Sans">-0.2</text><text fill="#262626" x="55" y="67.5" font-size="10" text-anchor="end" dy="5" font-family="Open Sans">0</text><text fill="#262626" x="55" y="36.25" font-size="10" text-anchor="end" dy="5" font-family="Open Sans">0.2</text><text fill="#262626" x="55" y="5" font-size="10" text-anchor="end" dy="5" font-family="Open Sans">0.4</text><path fill="none" stroke="#262626" stroke-width=".5" stroke-dasharray="16,0" d="M60 130h500M60 5h500M60 130V5M560 130V5"/><text fill="#262626" x="310" y="148" font-size="10" text-anchor="middle" dy="10" font-family="Open Sans">Time (milliseconds)</text><text fill="#262626" x="32" y="67.5" font-size="10" transform="rotate(-90 32 67.5)" text-anchor="middle" dy="0" font-family="Open Sans">Sound pressure (Pa)</text><path fill="none" stroke="#0071bc" stroke-width=".5" d="M60 67.5l2.604-3.638 2.604-3.623 2.605-3.59 2.604-3.546 2.604-3.483 2.604-3.407 2.604-3.315 2.604-3.21 2.605-3.092 2.604-2.958 2.604-2.814 2.604-2.657 2.604-2.488 2.604-2.31 2.605-2.12 2.604-1.922 2.604-1.716 2.604-1.502 2.604-1.282 2.604-1.057 2.604-.826 2.605-.593 2.604-.357 2.604-.119 2.604.12 2.604.356 2.604.593 2.605.826 2.604 1.057 2.604 1.282 2.604 1.502 2.604 1.716 2.604 1.922 2.605 2.12 2.604 2.31 2.604 2.488 2.604 2.657 2.604 2.814 2.604 2.958 2.605 3.092 2.604 3.21 2.604 3.315 2.604 3.407 2.604 3.483 2.604 3.545 2.605 3.591 2.604 3.623L185 67.5l2.604 3.638 2.604 3.622 2.604 3.592 2.605 3.545 2.604 3.483 2.604 3.407 2.604 3.315 2.604 3.21 2.604 3.092 2.605 2.958 2.604 2.814 2.604 2.657 2.604 2.488 2.604 2.309 2.604 2.121 2.605 1.922 2.604 1.716 2.604 1.502 2.604 1.282 2.604 1.057 2.605.826 2.604.593 2.604.357 2.604.119 2.604-.119 2.604-.357 2.604-.593 2.605-.826 2.604-1.057 2.604-1.282 2.604-1.502 2.604-1.716 2.605-1.922 2.604-2.121 2.604-2.309 2.604-2.488 2.604-2.657 2.604-2.814 2.604-2.958 2.605-3.091 2.604-3.21 2.604-3.316 2.604-3.407 2.604-3.483 2.604-3.545 2.605-3.592 2.604-3.622L310 67.5l2.604-3.638 2.604-3.623 2.604-3.59 2.605-3.546 2.604-3.483 2.604-3.407 2.604-3.315 2.604-3.21 2.605-3.092 2.604-2.958 2.604-2.814 2.604-2.657 2.604-2.488 2.604-2.31 2.604-2.12 2.605-1.922 2.604-1.716 2.604-1.502 2.604-1.282 2.604-1.057 2.604-.826 2.605-.593 2.604-.357 2.604-.119 2.604.12 2.604.356 2.604.593 2.605.826 2.604 1.057 2.604 1.282 2.604 1.502 2.604 1.716 2.605 1.922 2.604 2.12 2.604 2.31 2.604 2.488 2.604 2.657 2.604 2.814 2.604 2.958 2.605 3.092 2.604 3.21 2.604 3.315 2.604 3.407 2.604 3.483 2.605 3.545 2.604 3.591 2.604 3.623L435 67.5l2.604 3.638 2.604 3.622 2.604 3.592 2.605 3.545 2.604 3.483 2.604 3.407 2.604 3.315 2.604 3.21 2.605 3.092 2.604 2.958 2.604 2.814 2.604 2.657 2.604 2.488 2.604 2.309 2.604 2.121 2.605 1.922 2.604 1.716 2.604 1.502 2.604 1.282 2.604 1.057 2.605.826 2.604.593 2.604.357 2.604.119 2.604-.119 2.604-.357 2.604-.593 2.605-.826 2.604-1.057 2.604-1.282 2.604-1.502 2.604-1.716 2.605-1.922 2.604-2.121 2.604-2.309 2.604-2.488 2.604-2.657 2.604-2.814 2.604-2.958 2.605-3.091 2.604-3.21 2.604-3.316 2.604-3.407 2.604-3.483 2.605-3.545 2.604-3.592 2.604-3.622L560 67.5"/></g></svg>