<?xml-stylesheet type="text/css" href="https://fonts.googleapis.com/css?family=Open+Sans:300italic,400italic,600italic,700italic,400,600,700,300&amp;subset=latin,cyrillic-ext,latin-ext,cyrillic" ?><svg viewBox="0 0 460.8 288" xmlns="http://www.w3.org/2000/svg" xmlns:xlink="http://www.w3.org/1999/xlink"><defs><style>*{stroke-linecap:butt;stroke-linejoin:round}</style></defs><g id="figure_1"><path d="M0 288h460.8V0H0z" fill="#fefefe" id="patch_1"/><g id="axes_1"><path d="M43.236 246.197h392.471V14.599H43.236z" fill="#fff" id="patch_2"/><g id="matplotlib.axis_1"><g id="xtick_1"><g id="line2d_1"><defs><path d="M0 0v3.5" id="mdebdc6bda8" stroke="#000" stroke-width=".8"/></defs><use x="43.236" xlink:href="#mdebdc6bda8" y="246.197" stroke="#000" stroke-width=".8"/></g><text x="43.236" y="260.795" font-family="Open Sans" font-size="10" font-weight="400" text-anchor="middle" id="text_1">20</text></g><g id="xtick_2"><use x="134.678" xlink:href="#mdebdc6bda8" y="246.197" stroke="#000" stroke-width=".8" id="line2d_2"/><text x="134.678" y="260.795" font-family="Open Sans" font-size="10" font-weight="400" text-anchor="middle" id="text_2">100</text></g><g id="xtick_3"><use x="265.501" xlink:href="#mdebdc6bda8" y="246.197" stroke="#000" stroke-width=".8" id="line2d_3"/><text x="265.501" y="260.795" font-family="Open Sans" font-size="10" font-weight="400" text-anchor="middle" id="text_3">1000</text></g><g id="xtick_4"><use x="396.325" xlink:href="#mdebdc6bda8" y="246.197" stroke="#000" stroke-width=".8" id="line2d_4"/><text x="396.325" y="260.795" font-family="Open Sans" font-size="10" font-weight="400" text-anchor="middle" id="text_4">10000</text></g><g id="xtick_5"><use x="435.707" xlink:href="#mdebdc6bda8" y="246.197" stroke="#000" stroke-width=".8" id="line2d_5"/><text x="435.707" y="260.795" font-family="Open Sans" font-size="10" font-weight="400" text-anchor="middle" id="text_5">20000</text></g><g id="xtick_6"><g id="line2d_6"><defs><path d="M0 0v2" id="m517eb2c7e8" stroke="#000" stroke-width=".6"/></defs><use x="43.236" xlink:href="#m517eb2c7e8" y="246.197" stroke="#000" stroke-width=".6"/></g></g><g id="xtick_7"><use x="66.273" xlink:href="#m517eb2c7e8" y="246.197" stroke="#000" stroke-width=".6" id="line2d_7"/></g><g id="xtick_8"><use x="82.618" xlink:href="#m517eb2c7e8" y="246.197" stroke="#000" stroke-width=".6" id="line2d_8"/></g><g id="xtick_9"><use x="95.296" xlink:href="#m517eb2c7e8" y="246.197" stroke="#000" stroke-width=".6" id="line2d_9"/></g><g id="xtick_10"><use x="105.655" xlink:href="#m517eb2c7e8" y="246.197" stroke="#000" stroke-width=".6" id="line2d_10"/></g><g id="xtick_11"><use x="114.413" xlink:href="#m517eb2c7e8" y="246.197" stroke="#000" stroke-width=".6" id="line2d_11"/></g><g id="xtick_12"><use x="122" xlink:href="#m517eb2c7e8" y="246.197" stroke="#000" stroke-width=".6" id="line2d_12"/></g><g id="xtick_13"><use x="128.692" xlink:href="#m517eb2c7e8" y="246.197" stroke="#000" stroke-width=".6" id="line2d_13"/></g><g id="xtick_14"><use x="174.06" xlink:href="#m517eb2c7e8" y="246.197" stroke="#000" stroke-width=".6" id="line2d_14"/></g><g id="xtick_15"><use x="197.097" xlink:href="#m517eb2c7e8" y="246.197" stroke="#000" stroke-width=".6" id="line2d_15"/></g><g id="xtick_16"><use x="213.441" xlink:href="#m517eb2c7e8" y="246.197" stroke="#000" stroke-width=".6" id="line2d_16"/></g><g id="xtick_17"><use x="226.12" xlink:href="#m517eb2c7e8" y="246.197" stroke="#000" stroke-width=".6" id="line2d_17"/></g><g id="xtick_18"><use x="236.478" xlink:href="#m517eb2c7e8" y="246.197" stroke="#000" stroke-width=".6" id="line2d_18"/></g><g id="xtick_19"><use x="245.237" xlink:href="#m517eb2c7e8" y="246.197" stroke="#000" stroke-width=".6" id="line2d_19"/></g><g id="xtick_20"><use x="252.823" xlink:href="#m517eb2c7e8" y="246.197" stroke="#000" stroke-width=".6" id="line2d_20"/></g><g id="xtick_21"><use x="259.515" xlink:href="#m517eb2c7e8" y="246.197" stroke="#000" stroke-width=".6" id="line2d_21"/></g><g id="xtick_22"><use x="304.883" xlink:href="#m517eb2c7e8" y="246.197" stroke="#000" stroke-width=".6" id="line2d_22"/></g><g id="xtick_23"><use x="327.92" xlink:href="#m517eb2c7e8" y="246.197" stroke="#000" stroke-width=".6" id="line2d_23"/></g><g id="xtick_24"><use x="344.265" xlink:href="#m517eb2c7e8" y="246.197" stroke="#000" stroke-width=".6" id="line2d_24"/></g><g id="xtick_25"><use x="356.943" xlink:href="#m517eb2c7e8" y="246.197" stroke="#000" stroke-width=".6" id="line2d_25"/></g><g id="xtick_26"><use x="367.302" xlink:href="#m517eb2c7e8" y="246.197" stroke="#000" stroke-width=".6" id="line2d_26"/></g><g id="xtick_27"><use x="376.06" xlink:href="#m517eb2c7e8" y="246.197" stroke="#000" stroke-width=".6" id="line2d_27"/></g><g id="xtick_28"><use x="383.647" xlink:href="#m517eb2c7e8" y="246.197" stroke="#000" stroke-width=".6" id="line2d_28"/></g><g id="xtick_29"><use x="390.339" xlink:href="#m517eb2c7e8" y="246.197" stroke="#000" stroke-width=".6" id="line2d_29"/></g><g id="xtick_30"><use x="435.707" xlink:href="#m517eb2c7e8" y="246.197" stroke="#000" stroke-width=".6" id="line2d_30"/></g><text x="239.471" y="274.797" font-family="Open Sans" font-size="10" font-weight="400" text-anchor="middle" id="text_6">Frequency (Hz)</text></g><g id="matplotlib.axis_2"><g id="ytick_1"><g id="line2d_31"><defs><path d="M0 0h-3.5" id="m775f205528" stroke="#000" stroke-width=".8"/></defs><use x="43.236" xlink:href="#m775f205528" y="246.197" stroke="#000" stroke-width=".8"/></g><text x="36.236" y="249.996" font-family="Open Sans" font-size="10" font-weight="400" text-anchor="end" id="text_7">−6</text></g><g id="ytick_2"><use x="43.236" xlink:href="#m775f205528" y="213.111" stroke="#000" stroke-width=".8" id="line2d_32"/><text x="36.236" y="216.911" font-family="Open Sans" font-size="10" font-weight="400" text-anchor="end" id="text_8">−5</text></g><g id="ytick_3"><use x="43.236" xlink:href="#m775f205528" y="180.026" stroke="#000" stroke-width=".8" id="line2d_33"/><text x="36.236" y="183.825" font-family="Open Sans" font-size="10" font-weight="400" text-anchor="end" id="text_9">−4</text></g><g id="ytick_4"><use x="43.236" xlink:href="#m775f205528" y="146.941" stroke="#000" stroke-width=".8" id="line2d_34"/><text x="36.236" y="150.74" font-family="Open Sans" font-size="10" font-weight="400" text-anchor="end" id="text_10">−3</text></g><g id="ytick_5"><use x="43.236" xlink:href="#m775f205528" y="113.855" stroke="#000" stroke-width=".8" id="line2d_35"/><text x="36.236" y="117.655" font-family="Open Sans" font-size="10" font-weight="400" text-anchor="end" id="text_11">−2</text></g><g id="ytick_6"><use x="43.236" xlink:href="#m775f205528" y="80.77" stroke="#000" stroke-width=".8" id="line2d_36"/><text x="36.236" y="84.569" font-family="Open Sans" font-size="10" font-weight="400" text-anchor="end" id="text_12">−1</text></g><g id="ytick_7"><use x="43.236" xlink:href="#m775f205528" y="47.685" stroke="#000" stroke-width=".8" id="line2d_37"/><text x="36.236" y="51.484" font-family="Open Sans" font-size="10" font-weight="400" text-anchor="end" id="text_13">0</text></g><g id="ytick_8"><use x="43.236" xlink:href="#m775f205528" y="14.599" stroke="#000" stroke-width=".8" id="line2d_38"/><text x="36.236" y="18.398" font-family="Open Sans" font-size="10" font-weight="400" text-anchor="end" id="text_14">1</text></g><text transform="rotate(-90 18.398 130.398)" x="18.398" y="130.398" font-family="Open Sans" font-size="10" font-weight="400" text-anchor="middle" id="text_15">Gain over 10 meters (dB)</text></g><path clip-path="url(#p3aacf7efac)" d="M43.236 47.694l101.8.164 59.172.296 24.14.323 16.889.442 13.001.563 10.574.683 8.911.798 7.701.91 6.781 1.013L298.262 54l6.05 1.346 5.468 1.451 4.987 1.548 5.023 1.8 4.615 1.893 4.64 2.153 4.29 2.23 4.31 2.485 4.3 2.735 4.275 2.975 4.484 3.397 4.626 3.795 4.71 4.15 5.14 4.83 5.789 5.758 6.85 7.142 10.594 11.417 14.554 15.625 10.912 11.35 15.143 15.741 5.71 6.29.975 1.113" fill="none" stroke="#1f77b4" stroke-dasharray="5.55,2.4" stroke-width="1.5" id="line2d_39"/><path clip-path="url(#p3aacf7efac)" d="M43.236 47.689l101.8.13 43.93.322 56.27.713 25.68.507 15.303.511 12.043.62 9.932.738 7.987.805 7.002.912 6.232 1.021 5.95 1.203 5.385 1.323 4.918 1.442 4.527 1.56 4.192 1.678 3.904 1.793 3.86 2.022 3.615 2.147 3.4 2.27 3.379 2.528 3.19 2.66 3.175 2.937 3.153 3.235 2.987 3.384 2.97 3.7 2.947 4.034 2.92 4.38 2.89 4.744 2.859 5.12 2.823 5.507 2.884 6.121 2.836 6.544 2.878 7.2 2.905 7.88 2.923 8.581 2.93 9.297 3 10.275 3.054 11.274 3.09 12.283 3.112 13.289 3.18 14.554.456 2.17" fill="none" stroke="#ff7f0e" stroke-linecap="square" stroke-width="1.5" id="line2d_40"/><path clip-path="url(#p3aacf7efac)" d="M43.236 47.687l110.559.102 35.171.235 24.475.385 21.111.56 23.686.869 38.733 1.674 17.316.939 11.707.852 9.038.872 7.795.97 6.853 1.081 5.883 1.146 5.33 1.254 4.873 1.365 4.668 1.54 4.313 1.662 4.008 1.784 3.744 1.906 3.649 2.11 3.428 2.243 3.234 2.374 3.173 2.604 3.114 2.849 2.952 2.999 2.904 3.264 2.856 3.545 2.807 3.842 2.76 4.155 2.712 4.486 2.665 4.832 2.692 5.347 2.64 5.742 2.655 6.32 2.6 6.763 2.61 7.404 2.61 8.086 1.147 3.785" fill="none" stroke="#2ca02c" stroke-dasharray="5.55,2.4" stroke-width="1.5" id="line2d_41"/><path d="M43.236 246.197V14.599" fill="none" stroke="#000" stroke-linecap="square" stroke-width=".8" id="patch_3"/><path d="M435.707 246.197V14.599" fill="none" stroke="#000" stroke-linecap="square" stroke-width=".8" id="patch_4"/><path d="M43.236 246.197h392.471" fill="none" stroke="#000" stroke-linecap="square" stroke-width=".8" id="patch_5"/><path d="M43.236 14.6h392.471" fill="none" stroke="#000" stroke-linecap="square" stroke-width=".8" id="patch_6"/><g id="legend_1"><path d="M50.236 241.197h97.71q2 0 2-2v-44.005q0-2-2-2h-97.71q-2 0-2 2v44.005q0 2 2 2z" fill="#fff" opacity=".8" stroke="#ccc" id="patch_7"/><path d="M52.236 201.29h20" fill="none" stroke="#1f77b4" stroke-dasharray="5.55,2.4" stroke-width="1.5" id="line2d_42"/><text x="80.236" y="204.791" font-family="Open Sans" font-size="10" font-weight="400" id="text_16">10 °C; 30 %RH</text><path d="M52.236 216.292h20" fill="none" stroke="#ff7f0e" stroke-linecap="square" stroke-width="1.5" id="line2d_44"/><text x="80.236" y="219.792" font-family="Open Sans" font-size="10" font-weight="400" id="text_17">20 °C; 50 %RH</text><path d="M52.236 231.294h20" fill="none" stroke="#2ca02c" stroke-dasharray="5.55,2.4" stroke-width="1.5" id="line2d_46"/><text x="80.236" y="234.794" font-family="Open Sans" font-size="10" font-weight="400" id="text_18">30 °C; 70 %RH</text></g></g></g><defs><clipPath id="p3aacf7efac"><path d="M43.236 14.599h392.471v231.598H43.236z"/></clipPath></defs></svg>