<?xml-stylesheet type="text/css" href="https://fonts.googleapis.com/css?family=Open+Sans:300italic,400italic,600italic,700italic,400,600,700,300&amp;subset=latin,cyrillic-ext,latin-ext,cyrillic" ?><svg viewBox="0 0 460.8 180" xmlns="http://www.w3.org/2000/svg" xmlns:xlink="http://www.w3.org/1999/xlink"><defs><style>*{stroke-linecap:butt;stroke-linejoin:round}</style></defs><g id="figure_1"><path d="M0 180h460.8V0H0z" fill="#fefefe" id="patch_1"/><g id="axes_1"><path d="M51.614 138.197H446.5V14.3H51.614z" fill="#fff" id="patch_2"/><path clip-path="url(#pb1523cfd7d)" d="M51.614 76.248H446.5" fill="none" stroke="gray" stroke-linecap="square" stroke-width="1.5" id="line2d_1"/><g id="matplotlib.axis_1"><g id="xtick_1"><g id="line2d_2"><defs><path d="M0 0v3.5" id="m46383f697b" stroke="#000" stroke-width=".8"/></defs><use x="51.614" xlink:href="#m46383f697b" y="138.197" stroke="#000" stroke-width=".8"/></g><text x="51.614" y="152.795" font-family="Open Sans" font-size="10" font-weight="400" text-anchor="middle" id="text_1">0.0</text></g><g id="xtick_2"><use x="117.648" xlink:href="#m46383f697b" y="138.197" stroke="#000" stroke-width=".8" id="line2d_3"/><text x="117.648" y="152.795" font-family="Open Sans" font-size="10" font-weight="400" text-anchor="middle" id="text_2">0.5</text></g><g id="xtick_3"><use x="183.683" xlink:href="#m46383f697b" y="138.197" stroke="#000" stroke-width=".8" id="line2d_4"/><text x="183.683" y="152.795" font-family="Open Sans" font-size="10" font-weight="400" text-anchor="middle" id="text_3">1.0</text></g><g id="xtick_4"><use x="249.717" xlink:href="#m46383f697b" y="138.197" stroke="#000" stroke-width=".8" id="line2d_5"/><text x="249.717" y="152.795" font-family="Open Sans" font-size="10" font-weight="400" text-anchor="middle" id="text_4">1.5</text></g><g id="xtick_5"><use x="315.752" xlink:href="#m46383f697b" y="138.197" stroke="#000" stroke-width=".8" id="line2d_6"/><text x="315.752" y="152.795" font-family="Open Sans" font-size="10" font-weight="400" text-anchor="middle" id="text_5">2.0</text></g><g id="xtick_6"><use x="381.786" xlink:href="#m46383f697b" y="138.197" stroke="#000" stroke-width=".8" id="line2d_7"/><text x="381.786" y="152.795" font-family="Open Sans" font-size="10" font-weight="400" text-anchor="middle" id="text_6">2.5</text></g><text x="249.057" y="166.797" font-family="Open Sans" font-size="10" font-weight="400" text-anchor="middle" id="text_7">Time (milliseconds)</text></g><g id="matplotlib.axis_2"><g id="ytick_1"><g id="line2d_8"><defs><path d="M0 0h-3.5" id="m568ee009f4" stroke="#000" stroke-width=".8"/></defs><use x="51.614" xlink:href="#m568ee009f4" y="132.565" stroke="#000" stroke-width=".8"/></g><text x="44.614" y="136.364" font-family="Open Sans" font-size="10" font-weight="400" text-anchor="end" id="text_8">−1.0</text></g><g id="ytick_2"><use x="51.614" xlink:href="#m568ee009f4" y="104.407" stroke="#000" stroke-width=".8" id="line2d_9"/><text x="44.614" y="108.206" font-family="Open Sans" font-size="10" font-weight="400" text-anchor="end" id="text_9">−0.5</text></g><g id="ytick_3"><use x="51.614" xlink:href="#m568ee009f4" y="76.248" stroke="#000" stroke-width=".8" id="line2d_10"/><text x="44.614" y="80.048" font-family="Open Sans" font-size="10" font-weight="400" text-anchor="end" id="text_10">0.0</text></g><g id="ytick_4"><use x="51.614" xlink:href="#m568ee009f4" y="48.09" stroke="#000" stroke-width=".8" id="line2d_11"/><text x="44.614" y="51.889" font-family="Open Sans" font-size="10" font-weight="400" text-anchor="end" id="text_11">0.5</text></g><g id="ytick_5"><use x="51.614" xlink:href="#m568ee009f4" y="19.932" stroke="#000" stroke-width=".8" id="line2d_12"/><text x="44.614" y="23.731" font-family="Open Sans" font-size="10" font-weight="400" text-anchor="end" id="text_12">1.0</text></g><text transform="rotate(-90 18.398 76.248)" x="18.398" y="76.248" font-family="Open Sans" font-size="10" font-weight="400" text-anchor="middle" id="text_13">Amplitude</text></g><path clip-path="url(#pb1523cfd7d)" d="M51.614 76.248l6.604-20.883 3.962-11.674 2.64-7.165 2.642-6.54 2.642-5.809 1.32-2.602 1.321-1.643h23.772l1.321 1.643 2.642 5.41 2.64 6.186 2.642 6.866 2.642 7.437 3.962 11.968 6.603 21.05 5.283 16.64 3.962 11.673 2.641 7.166 2.642 6.54 2.641 5.809 1.32 2.602 1.322 1.643h23.772l1.32-1.643 2.642-5.41 2.641-6.186 2.642-6.866 2.641-7.437 3.962-11.968 6.604-21.05 5.282-16.64 3.962-11.674 2.642-7.165 2.641-6.54 2.642-5.809 1.32-2.602 1.321-1.643h23.772l1.321 1.643 2.641 5.41 2.642 6.186 2.641 6.866 2.642 7.437 3.962 11.968 6.603 21.05 5.283 16.64 3.962 11.673 2.641 7.166 2.642 6.54 2.641 5.809 1.32 2.602 1.321 1.643h23.773l1.32-1.643 2.642-5.41 2.641-6.186 2.642-6.866 2.641-7.437 3.962-11.968 6.604-21.05 5.282-16.64 3.962-11.674 2.642-7.165 2.641-6.54 2.641-5.809 1.321-2.602 1.32-1.643h23.773l1.32 1.643 2.642 5.41 2.642 6.186 2.641 6.866 2.641 7.437 3.962 11.968 6.604 21.05 5.283 16.64 3.962 11.673 2.641 7.166 2.642 6.54 2.64 5.809 1.322 2.602 1.32 1.643h23.773l1.32-1.643 2.642-5.41 2.641-6.186 2.641-6.866 2.642-7.437 3.962-11.968 3.962-12.563" fill="none" stroke="#1f77b4" stroke-linecap="square" stroke-width="1.5" id="line2d_13"/><path d="M51.614 138.197V14.3" fill="none" stroke="#000" stroke-linecap="square" stroke-width=".8" id="patch_3"/><path d="M446.5 138.197V14.3" fill="none" stroke="#000" stroke-linecap="square" stroke-width=".8" id="patch_4"/><path d="M51.614 138.197H446.5" fill="none" stroke="#000" stroke-linecap="square" stroke-width=".8" id="patch_5"/><path d="M51.614 14.3H446.5" fill="none" stroke="#000" stroke-linecap="square" stroke-width=".8" id="patch_6"/></g></g><defs><clipPath id="pb1523cfd7d"><path d="M51.614 14.3H446.5v123.897H51.614z"/></clipPath></defs></svg>