<?xml-stylesheet type="text/css" href="https://fonts.googleapis.com/css?family=Open+Sans:300italic,400italic,600italic,700italic,400,600,700,300&amp;subset=latin,cyrillic-ext,latin-ext,cyrillic" ?><svg xmlns="http://www.w3.org/2000/svg" viewBox="0 0 600 300"><path fill="#fff" d="M0 0h600v300H0z"/><path fill="#fefefe" shape-rendering="crispEdges" d="M0 300h600V0H0z"/><clipPath id="a"><path d="M0 300h600V0H0z"/></clipPath><g clip-path="url(#a)"><path fill="#fff" shape-rendering="crispEdges" d="M60 250h500L60 5z"/><path fill="#fff" shape-rendering="crispEdges" d="M560 250V5H60z"/><path fill="none" stroke="#262626" stroke-width=".5" d="M343.162 250v-5M343.162 5v5M422.682 250v-5M422.682 5v5M459.657 250v-5M459.657 5v5M484.011 250v-5M484.011 5v5M502.202 250v-5M502.202 5v5"/><text fill="#262626" x="343.162" y="255" font-size="10" text-anchor="middle" dy="10" font-family="Open Sans">1k</text><text fill="#262626" x="422.682" y="255" font-size="10" text-anchor="middle" dy="10" font-family="Open Sans">3k</text><text fill="#262626" x="459.657" y="255" font-size="10" text-anchor="middle" dy="10" font-family="Open Sans">5k</text><text fill="#262626" x="484.011" y="255" font-size="10" text-anchor="middle" dy="10" font-family="Open Sans">7k</text><text fill="#262626" x="502.202" y="255" font-size="10" text-anchor="middle" dy="10" font-family="Open Sans">9k</text><path fill="none" stroke="#262626" stroke-width=".5" d="M60 250h5M560 250h-5M60 209.167h5M560 209.167h-5M60 168.333h5M560 168.333h-5M60 127.5h5M560 127.5h-5M60 86.667h5M560 86.667h-5M60 45.833h5M560 45.833h-5M60 5h5M560 5h-5"/><text fill="#262626" x="55" y="250" font-size="10" text-anchor="end" dy="5" font-family="Open Sans">-60</text><text fill="#262626" x="55" y="209.167" font-size="10" text-anchor="end" dy="5" font-family="Open Sans">-50</text><text fill="#262626" x="55" y="168.333" font-size="10" text-anchor="end" dy="5" font-family="Open Sans">-40</text><text fill="#262626" x="55" y="127.5" font-size="10" text-anchor="end" dy="5" font-family="Open Sans">-30</text><text fill="#262626" x="55" y="86.667" font-size="10" text-anchor="end" dy="5" font-family="Open Sans">-20</text><text fill="#262626" x="55" y="45.833" font-size="10" text-anchor="end" dy="5" font-family="Open Sans">-10</text><text fill="#262626" x="55" y="5" font-size="10" text-anchor="end" dy="5" font-family="Open Sans">0</text><path fill="none" stroke="#262626" stroke-width=".5" stroke-dasharray="16,0" d="M60 250h500M60 5h500M60 250V5M560 250V5"/><text fill="#262626" x="310" y="268" font-size="10" text-anchor="middle" dy="10" font-family="Open Sans">Frequency (Hz)</text><text fill="#262626" x="35" y="127.5" font-size="10" transform="rotate(-90 35 127.5)" text-anchor="middle" dy="0" font-family="Open Sans">Amplitude (dB)</text><path fill="none" stroke="#0071bc" stroke-width=".5" d="M338.434 250.245l4.728-236.461 3.862 236.461M421.702 250.245l.98-139.419.916 139.419M459.161 250.245l.496-115.076.476 115.076M483.826 250.245l.185-55.206.18 55.206M502.058 250.245l.144-55.491.141 55.491M516.616 250.245l.111-52.021.109 52.021M539.142 250.245l.035-21.08.034 21.08M548.229 250.245l.007-5.086.008 5.086"/></g><g clip-path="url(#a)"><path fill="none" stroke="red" stroke-width="2" d="M555 187.5l-.166 6.66-.498 6.632-.827 6.579-1.153 6.5-1.475 6.393-1.791 6.261-2.099 6.103-2.398 5.923-2.69 5.716-2.968 5.488-3.236 5.238-3.491 4.965-3.731 4.674-3.956 4.363-4.166 4.035-4.359 3.691-4.534 3.332-4.69 2.958-4.829 2.575-4.947 2.179-5.046 1.775-5.124 1.365-5.182.948-5.218.528-5.235.106-5.229-.317-5.203-.739-5.156-1.157-5.087-1.571-4.999-1.978-4.89-2.378-4.762-2.768-4.615-3.146-4.448-3.513-4.265-3.865-4.063-4.201-3.846-4.521-3.612-4.822-3.365-5.104-3.104-5.366-2.831-5.605-2.545-5.822-2.25-6.016-1.946-6.186-1.633-6.33-1.315-6.449-.991-6.543-.662-6.609-.332-6.65v-6.662l.332-6.65.662-6.609.991-6.543 1.315-6.449 1.633-6.33 1.946-6.186 2.25-6.016 2.545-5.822 2.831-5.605 3.104-5.366 3.365-5.104 3.612-4.822 3.846-4.521 4.063-4.201 4.265-3.865 4.448-3.513 4.615-3.146 4.762-2.768 4.89-2.378 4.999-1.978 5.087-1.571 5.156-1.157 5.203-.739 5.229-.317 5.235.106 5.218.528 5.182.948 5.124 1.365 5.046 1.775 4.947 2.18 4.829 2.574 4.69 2.958 4.534 3.332 4.359 3.691 4.166 4.035 3.956 4.363 3.731 4.674 3.491 4.965 3.236 5.238 2.968 5.488 2.69 5.716 2.398 5.923 2.099 6.103 1.791 6.261 1.475 6.393 1.153 6.5.827 6.579.498 6.632.166 6.66"/></g></svg>