<?xml-stylesheet type="text/css" href="https://fonts.googleapis.com/css?family=Open+Sans" ?><svg xmlns="http://www.w3.org/2000/svg" viewBox="0 0 600 180"><path fill="#fff" d="M0 0h600v180H0z"/><path fill="#fefefe" shape-rendering="crispEdges" d="M0 180h600V0H0z"/><clipPath id="a"><path d="M0 180h600V0H0z"/></clipPath><g clip-path="url(#a)"><path fill="#fff" shape-rendering="crispEdges" d="M60 130h500L60 5z"/><path fill="#fff" shape-rendering="crispEdges" d="M560 130V5H60z"/><path fill="none" stroke="#262626" stroke-width=".5" d="M60 130v-5M60 5v5M143.333 130v-5M143.333 5v5M226.667 130v-5M226.667 5v5M310 130v-5M310 5v5M393.333 130v-5M393.333 5v5M476.667 130v-5M476.667 5v5M560 130v-5M560 5v5"/><text fill="#262626" x="60" y="135" font-size="10" text-anchor="middle" dy="10" font-family="Open Sans">0</text><text fill="#262626" x="143.333" y="135" font-size="10" text-anchor="middle" dy="10" font-family="Open Sans">0.5</text><text fill="#262626" x="226.667" y="135" font-size="10" text-anchor="middle" dy="10" font-family="Open Sans">1</text><text fill="#262626" x="310" y="135" font-size="10" text-anchor="middle" dy="10" font-family="Open Sans">1.5</text><text fill="#262626" x="393.333" y="135" font-size="10" text-anchor="middle" dy="10" font-family="Open Sans">2</text><text fill="#262626" x="476.667" y="135" font-size="10" text-anchor="middle" dy="10" font-family="Open Sans">2.5</text><text fill="#262626" x="560" y="135" font-size="10" text-anchor="middle" dy="10" font-family="Open Sans">3</text><path fill="none" stroke="#262626" stroke-width=".5" stroke-dasharray="16,0" d="M60 130h500M60 5h500M60 130V5M560 130V5"/><text fill="#262626" x="310" y="148" font-size="10" text-anchor="middle" dy="10" font-family="Open Sans">Time (milliseconds)</text><path fill="none" stroke="#0071bc" stroke-width=".5" d="M60 67.5l.558-1.315.558-1.314.558-1.313.558-1.311.558-1.31.558-1.305.558-1.303.558-1.298.558-1.294.558-1.289.558-1.282.558-1.277.558-1.27.558-1.262.559-1.254.558-1.245.558-1.237.558-1.227.558-1.216.558-1.206.558-1.194.558-1.183.558-1.17.558-1.157.558-1.144.558-1.13.558-1.116.558-1.101.558-1.086.558-1.07.558-1.053.558-1.036.558-1.02.558-1.001.558-.983.558-.965.558-.946.558-.927.558-.906.558-.887.558-.865.558-.845.559-.824.558-.801.558-.78.558-.757.558-.608H116.92l.558.36.558.75.558.772.558.795.558.816.558.838.558.858.558.88.558.9.558.92.558.94.558.958.558.977.558.996.558 1.013.558 1.031.558 1.048.558 1.064.558 1.08.558 1.096.558 1.11.558 1.126.558 1.14.558 1.153.559 1.166.558 1.178.558 1.19.558 1.203.558 1.213.558 1.223.558 1.233.558 1.243.558 1.251.558 1.26.558 1.267.558 1.274.558 1.281.558 1.287.558 1.292.558 1.297.558 1.301.558 1.305.558 1.308.558 1.31.558 1.313.558 1.314.558 1.315.558 1.314.558 1.315.558 1.313.558 1.312.558 1.31.559 1.307.558 1.304.558 1.3.558 1.295.558 1.29.558 1.286.558 1.278.558 1.272.558 1.265.558 1.257.558 1.248.558 1.24.558 1.23.558 1.22.558 1.21.558 1.197.558 1.187.558 1.174.558 1.162.558 1.149.558 1.134.558 1.121.558 1.106.558 1.091.558 1.075.558 1.058.558 1.042.558 1.026.559 1.007.558.99.558.971.558.952.558.933.558.913.558.893.558.873.558.852.558.83.558.809.558.787.558.765.558.742.558.116H200.067l.558-.116.558-.742.558-.765.558-.787.558-.809.558-.83.558-.852.558-.873.558-.893.558-.913.558-.933.558-.952.558-.971.558-.99.558-1.007.559-1.026.558-1.042.558-1.058.558-1.075.558-1.091.558-1.106.558-1.12.558-1.135.558-1.149.558-1.162.558-1.174.558-1.187.558-1.198.558-1.21.558-1.22.558-1.23.558-1.239.558-1.248.558-1.257.558-1.265.558-1.272.558-1.278.558-1.285.558-1.29.558-1.296.558-1.3.558-1.304.558-1.307.559-1.31.558-1.312.558-1.313.558-1.315.558-1.314.558-1.315.558-1.314.558-1.312.558-1.31.558-1.309.558-1.305.558-1.301.558-1.297.558-1.292.558-1.287.558-1.28.558-1.275.558-1.267.558-1.26.558-1.251.558-1.243.558-1.233.558-1.223.558-1.213.558-1.202.558-1.19.558-1.18.559-1.165.558-1.153.558-1.14.558-1.125.558-1.11.558-1.097.558-1.08.558-1.064.558-1.048.558-1.03.558-1.014.558-.996.558-.977.558-.959.558-.94.558-.92.558-.899.558-.88.558-.858.558-.838.558-.816.558-.795.558-.772.558-.75.558-.36H283.772l.558.608.558.757.558.78.558.801.558.824.559.845.558.865.558.887.558.906.558.927.558.946.558.965.558.983.558 1.002.558 1.019.558 1.036.558 1.054.558 1.07.558 1.085.558 1.1.558 1.116.558 1.13.558 1.145.558 1.157.558 1.17.558 1.183.558 1.194.558 1.206.558 1.216.558 1.227.558 1.237.558 1.245.558 1.254.559 1.262.558 1.27.558 1.276.558 1.283.558 1.289.558 1.294.558 1.298.558 1.303.558 1.306.558 1.309.558 1.311.558 1.313.558 1.314L310 67.5l.558 1.315.558 1.314.558 1.313.558 1.311.558 1.31.558 1.305.558 1.303.558 1.298.558 1.294.558 1.289.558 1.282.558 1.277.558 1.27.558 1.262.559 1.254.558 1.245.558 1.237.558 1.227.558 1.216.558 1.206.558 1.194.558 1.183.558 1.17.558 1.157.558 1.144.558 1.131.558 1.115.558 1.101.558 1.086.558 1.069.558 1.054.558 1.036.558 1.019.558 1.002.558.983.558.965.558.946.558.927.558.906.558.887.558.865.559.845.558.824.558.801.558.78.558.757.558.608H366.92l.558-.361.558-.749.558-.773.558-.794.558-.816.558-.838.558-.858.558-.88.558-.9.558-.92.558-.939.558-.959.558-.977.558-.996.558-1.013.558-1.031.558-1.048.558-1.064.558-1.08.558-1.096.558-1.111.558-1.125.558-1.14.558-1.153.559-1.166.558-1.178.558-1.19.558-1.203.558-1.213.558-1.223.558-1.233.558-1.243.558-1.251.558-1.26.558-1.267.558-1.274.558-1.281.558-1.287.558-1.292.558-1.297.558-1.301.558-1.305.558-1.308.558-1.31.558-1.313.558-1.314.558-1.315.558-1.314.558-1.315.558-1.313.558-1.312.559-1.31.558-1.307.558-1.304.558-1.3.558-1.295.558-1.29.558-1.286.558-1.278.558-1.272.558-1.265.558-1.257.558-1.248.558-1.24.558-1.23.558-1.22.558-1.21.558-1.197.558-1.187.558-1.174.558-1.162.558-1.149.558-1.134.558-1.121.558-1.106.558-1.09.558-1.075.558-1.06.558-1.042.558-1.025.559-1.007.558-.99.558-.97.558-.953.558-.933.558-.913.558-.893.558-.873.558-.852.558-.83.558-.81.558-.786.558-.765.558-.742.558-.116H450.067l.558.116.558.742.558.765.558.787.558.808.558.831.558.852.558.873.558.893.558.913.558.933.558.952.558.971.558.99.559 1.007.558 1.025.558 1.043.558 1.059.558 1.074.558 1.091.558 1.106.558 1.12.558 1.135.558 1.149.558 1.162.558 1.174.558 1.187.558 1.198.558 1.21.558 1.22.558 1.23.558 1.239.558 1.248.558 1.257.558 1.265.558 1.272.558 1.278.558 1.285.558 1.29.558 1.296.558 1.3.558 1.304.558 1.307.559 1.31.558 1.312.558 1.313.558 1.315.558 1.314.558 1.315.558 1.314.558 1.312.558 1.31.558 1.309.558 1.305.558 1.301.558 1.297.558 1.292.558 1.287.558 1.28.558 1.275.558 1.267.558 1.26.558 1.251.558 1.243.558 1.233.558 1.223.558 1.213.558 1.202.558 1.19.559 1.18.558 1.165.558 1.153.558 1.14.558 1.125.558 1.111.558 1.096.558 1.08.558 1.064.558 1.048.558 1.031.558 1.013.558.996.558.977.558.959.558.939.558.92.558.9.558.88.558.858.558.838.558.816.558.794.558.773.558.749.558.361H533.772l.558-.608.558-.757.558-.78.559-.801.557-.824.558-.845.559-.865.558-.887.558-.906.558-.927.558-.946.558-.965.558-.983.558-1.002.558-1.019.558-1.036.558-1.054.558-1.069.558-1.086.558-1.101.558-1.115.558-1.13.558-1.145.558-1.157.558-1.17.558-1.183.558-1.194.558-1.206.558-1.216.558-1.227.558-1.237.558-1.245.559-1.254.557-1.262.559-1.27.558-1.276.558-1.283.558-1.289.558-1.294.558-1.298.558-1.303.558-1.306.558-1.309.558-1.311.558-1.313.558-1.314L560 67.5"/></g></svg>