<?xml-stylesheet type="text/css" href="https://fonts.googleapis.com/css?family=Open+Sans:300italic,400italic,600italic,700italic,400,600,700,300&amp;subset=latin,cyrillic-ext,latin-ext,cyrillic" ?><svg viewBox="0 0 460.8 288" xmlns="http://www.w3.org/2000/svg" xmlns:xlink="http://www.w3.org/1999/xlink"><defs><style>*{stroke-linecap:butt;stroke-linejoin:round}</style></defs><g id="figure_1"><path d="M0 288h460.8V0H0z" fill="#fefefe" id="patch_1"/><g id="axes_1"><path d="M48.953 246.197H446.5V14.599H48.953z" fill="#fff" id="patch_2"/><g id="matplotlib.axis_1"><g id="xtick_1"><g id="line2d_1"><defs><path d="M0 0v3.5" id="mc229bd63a7" stroke="#000" stroke-width=".8"/></defs><use x="274.093" xlink:href="#mc229bd63a7" y="246.197" stroke="#000" stroke-width=".8"/></g><text x="274.093" y="260.795" font-family="Open Sans" font-size="10" font-weight="400" text-anchor="middle" id="text_1">1k</text></g><g id="xtick_2"><use x="337.319" xlink:href="#mc229bd63a7" y="246.197" stroke="#000" stroke-width=".8" id="line2d_2"/><text x="337.319" y="260.795" font-family="Open Sans" font-size="10" font-weight="400" text-anchor="middle" id="text_2">3k</text></g><g id="xtick_3"><use x="366.718" xlink:href="#mc229bd63a7" y="246.197" stroke="#000" stroke-width=".8" id="line2d_3"/><text x="366.718" y="260.795" font-family="Open Sans" font-size="10" font-weight="400" text-anchor="middle" id="text_3">5k</text></g><g id="xtick_4"><use x="386.082" xlink:href="#mc229bd63a7" y="246.197" stroke="#000" stroke-width=".8" id="line2d_4"/><text x="386.082" y="260.795" font-family="Open Sans" font-size="10" font-weight="400" text-anchor="middle" id="text_4">7k</text></g><g id="xtick_5"><use x="400.545" xlink:href="#mc229bd63a7" y="246.197" stroke="#000" stroke-width=".8" id="line2d_5"/><text x="400.545" y="260.795" font-family="Open Sans" font-size="10" font-weight="400" text-anchor="middle" id="text_5">9k</text></g><text x="247.727" y="274.797" font-family="Open Sans" font-size="10" font-weight="400" text-anchor="middle" id="text_6">Frequency (Hz)</text></g><g id="matplotlib.axis_2"><g id="ytick_1"><g id="line2d_6"><defs><path d="M0 0h-3.5" id="m1780ff2f10" stroke="#000" stroke-width=".8"/></defs><use x="48.953" xlink:href="#m1780ff2f10" y="246.197" stroke="#000" stroke-width=".8"/></g><text x="41.953" y="249.996" font-family="Open Sans" font-size="10" font-weight="400" text-anchor="end" id="text_7">−60</text></g><g id="ytick_2"><use x="48.953" xlink:href="#m1780ff2f10" y="207.597" stroke="#000" stroke-width=".8" id="line2d_7"/><text x="41.953" y="211.396" font-family="Open Sans" font-size="10" font-weight="400" text-anchor="end" id="text_8">−50</text></g><g id="ytick_3"><use x="48.953" xlink:href="#m1780ff2f10" y="168.998" stroke="#000" stroke-width=".8" id="line2d_8"/><text x="41.953" y="172.797" font-family="Open Sans" font-size="10" font-weight="400" text-anchor="end" id="text_9">−40</text></g><g id="ytick_4"><use x="48.953" xlink:href="#m1780ff2f10" y="130.398" stroke="#000" stroke-width=".8" id="line2d_9"/><text x="41.953" y="134.197" font-family="Open Sans" font-size="10" font-weight="400" text-anchor="end" id="text_10">−30</text></g><g id="ytick_5"><use x="48.953" xlink:href="#m1780ff2f10" y="91.798" stroke="#000" stroke-width=".8" id="line2d_10"/><text x="41.953" y="95.598" font-family="Open Sans" font-size="10" font-weight="400" text-anchor="end" id="text_11">−20</text></g><g id="ytick_6"><use x="48.953" xlink:href="#m1780ff2f10" y="53.199" stroke="#000" stroke-width=".8" id="line2d_11"/><text x="41.953" y="56.998" font-family="Open Sans" font-size="10" font-weight="400" text-anchor="end" id="text_12">−10</text></g><g id="ytick_7"><use x="48.953" xlink:href="#m1780ff2f10" y="14.599" stroke="#000" stroke-width=".8" id="line2d_12"/><text x="41.953" y="18.398" font-family="Open Sans" font-size="10" font-weight="400" text-anchor="end" id="text_13">0</text></g><text transform="rotate(-90 18.398 130.398)" x="18.398" y="130.398" font-family="Open Sans" font-size="10" font-weight="400" text-anchor="middle" id="text_14">Amplitude (dB)</text></g><path clip-path="url(#pea1e59b3b3)" d="M268.686 289l5.407-266.11 3.51 266.11m58.61 0l1.106-174.41L338.3 289m27.863 0l.555-151.837.528 151.837m18.566 0l.27-96.333.246 96.333m14.008 0l.21-96.557.2 96.557m11.184 0l.164-95.01.161 95.01m9.426 0l.027-16.342.026 16.342m8.117 0l.093-69.665.092 69.665m7.041 0l.07-59.658.07 59.658m6.328 0l.003-2.633.003 2.633m5.708 0l.049-50.428.048 50.428m5.164 0l.023-27.568.025 27.568m4.762 0l.012-14.494.011 14.494" fill="none" stroke="#1f77b4" stroke-linecap="square" stroke-width="1.5" id="line2d_13"/><path d="M48.953 246.197V14.599" fill="none" stroke="#000" stroke-linecap="square" stroke-width=".8" id="patch_3"/><path d="M446.5 246.197V14.599" fill="none" stroke="#000" stroke-linecap="square" stroke-width=".8" id="patch_4"/><path d="M48.953 246.197H446.5" fill="none" stroke="#000" stroke-linecap="square" stroke-width=".8" id="patch_5"/><path d="M48.953 14.6H446.5" fill="none" stroke="#000" stroke-linecap="square" stroke-width=".8" id="patch_6"/></g><path d="M366.99 269.357c21.087 0 41.312-9.761 56.222-27.134 14.91-17.372 23.288-40.937 23.288-65.505 0-24.569-8.378-48.134-23.288-65.506s-35.135-27.133-56.221-27.133c-21.087 0-41.312 9.76-56.222 27.133-14.91 17.372-23.288 40.937-23.288 65.506 0 24.568 8.378 48.133 23.288 65.505 14.91 17.373 35.135 27.134 56.222 27.134z" fill="none" stroke="red" stroke-width="2" id="patch_7"/></g><defs><clipPath id="pea1e59b3b3"><path d="M48.953 14.599H446.5v231.598H48.953z"/></clipPath></defs></svg>