<?xml version="1.0" encoding="UTF-8" standalone="no"?>
<?xml-stylesheet type="text/css" href="https://fonts.googleapis.com/css?family=Open+Sans" ?>
<svg xmlns="http://www.w3.org/2000/svg"
     xmlns:xlink="http://www.w3.org/1999/xlink"
     width="600px" height="180px" viewBox="0 0 600 180">
<title>gl2ps_renderer figure</title>
<desc>
Creator: GL2PS 1.4.0, (C) 1999-2017 C. Geuzaine
For: Octave
</desc>
<defs>
</defs>
<polygon fill="#ffffff" points="0,0 600,0 600,180 0,180"/>
<g>
<polygon fill="#fefefe" points="0,180 600,180 600,0 0,0" shape-rendering="crispEdges"/>
<clipPath id="cp00600180">
  <polygon points="0,180 600,180 600,0 0,0"/>
</clipPath>
<g clip-path="url(#cp00600180)">
<polygon fill="#ffffff" shape-rendering="crispEdges" points="78,149.01 543,149.01 78,13.5"/>
<polygon fill="#ffffff" shape-rendering="crispEdges" points="543,149.01 543,13.5 78,13.5"/>
<polyline fill="none" stroke="#262626" stroke-width="0.5" stroke-linecap="butt" stroke-linejoin="miter" points="78,149.01 78,144.377"/>
<polyline fill="none" stroke="#262626" stroke-width="0.5" stroke-linecap="butt" stroke-linejoin="miter" points="78,13.5 78,18.1333"/>
<polyline fill="none" stroke="#262626" stroke-width="0.5" stroke-linecap="butt" stroke-linejoin="miter" points="155.5,149.01 155.5,144.377"/>
<polyline fill="none" stroke="#262626" stroke-width="0.5" stroke-linecap="butt" stroke-linejoin="miter" points="155.5,13.5 155.5,18.1333"/>
<polyline fill="none" stroke="#262626" stroke-width="0.5" stroke-linecap="butt" stroke-linejoin="miter" points="233,149.01 233,144.377"/>
<polyline fill="none" stroke="#262626" stroke-width="0.5" stroke-linecap="butt" stroke-linejoin="miter" points="233,13.5 233,18.1333"/>
<polyline fill="none" stroke="#262626" stroke-width="0.5" stroke-linecap="butt" stroke-linejoin="miter" points="310.5,149.01 310.5,144.377"/>
<polyline fill="none" stroke="#262626" stroke-width="0.5" stroke-linecap="butt" stroke-linejoin="miter" points="310.5,13.5 310.5,18.1333"/>
<polyline fill="none" stroke="#262626" stroke-width="0.5" stroke-linecap="butt" stroke-linejoin="miter" points="388,149.01 388,144.377"/>
<polyline fill="none" stroke="#262626" stroke-width="0.5" stroke-linecap="butt" stroke-linejoin="miter" points="388,13.5 388,18.1333"/>
<polyline fill="none" stroke="#262626" stroke-width="0.5" stroke-linecap="butt" stroke-linejoin="miter" points="465.5,149.01 465.5,144.377"/>
<polyline fill="none" stroke="#262626" stroke-width="0.5" stroke-linecap="butt" stroke-linejoin="miter" points="465.5,13.5 465.5,18.1333"/>
<polyline fill="none" stroke="#262626" stroke-width="0.5" stroke-linecap="butt" stroke-linejoin="miter" points="543,149.01 543,144.377"/>
<polyline fill="none" stroke="#262626" stroke-width="0.5" stroke-linecap="butt" stroke-linejoin="miter" points="543,13.5 543,18.1333"/>
<text fill="#262626" x="78" y="153.992" font-size="10" text-anchor="middle" dy="10" font-family="Open Sans">0</text>
<text fill="#262626" x="155.5" y="153.992" font-size="10" text-anchor="middle" dy="10" font-family="Open Sans">0.5</text>
<text fill="#262626" x="233" y="153.992" font-size="10" text-anchor="middle" dy="10" font-family="Open Sans">1</text>
<text fill="#262626" x="310.5" y="153.992" font-size="10" text-anchor="middle" dy="10" font-family="Open Sans">1.5</text>
<text fill="#262626" x="388" y="153.992" font-size="10" text-anchor="middle" dy="10" font-family="Open Sans">2</text>
<text fill="#262626" x="465.5" y="153.992" font-size="10" text-anchor="middle" dy="10" font-family="Open Sans">2.5</text>
<text fill="#262626" x="543" y="153.992" font-size="10" text-anchor="middle" dy="10" font-family="Open Sans">3</text>
<polyline fill="none" stroke="#262626" stroke-width="0.5" stroke-linecap="butt" stroke-linejoin="miter" stroke-dasharray="16,0" points="78,149.01 543,149.01"/>
<polyline fill="none" stroke="#262626" stroke-width="0.5" stroke-linecap="butt" stroke-linejoin="miter" stroke-dasharray="16,0" points="78,13.5 543,13.5"/>
<polyline fill="none" stroke="#262626" stroke-width="0.5" stroke-linecap="butt" stroke-linejoin="miter" stroke-dasharray="16,0" points="78,149.01 78,13.5"/>
<polyline fill="none" stroke="#262626" stroke-width="0.5" stroke-linecap="butt" stroke-linejoin="miter" stroke-dasharray="16,0" points="543,149.01 543,13.5"/>
<text fill="#262626" x="310.5" y="166.992" font-size="10" text-anchor="middle" dy="10" font-family="Open Sans">Time (milliseconds)</text>
<polyline fill="none" stroke="#0071bc" stroke-width="0.5" stroke-linecap="butt" stroke-linejoin="miter" points="78,81.2551 78.519,79.8298 79.0379,78.4052 79.5569,76.9818 80.0759,75.5603 80.5948,74.1413 81.1138,72.7254 81.6328,71.3134 82.1518,69.9057 82.6707,68.5031 83.1897,67.1061 83.7087,65.7153 84.2277,64.3315 84.7466,62.9551 85.2656,61.5868 85.7846,60.2273 86.3035,58.877 86.8225,57.5367 87.3415,56.2068 87.8605,54.888 88.3795,53.5809 88.8984,52.2861 89.4174,51.004 89.9364,49.7354 90.4553,48.4807 90.9743,47.2405 91.4933,46.0154 92.0123,44.8058 92.5312,43.6124 93.0502,42.4356 93.5692,41.2761 94.0882,40.1342 94.6071,39.0105 95.1261,37.9055 95.6451,36.8197 96.164,35.7536 96.683,34.7076 97.202,33.6822 97.721,32.6778 98.2399,31.695 98.7589,30.734 99.2779,29.7955 99.7969,28.8797 100.316,27.9871 100.835,27.1181 101.354,26.273 101.873,25.4523 102.392,24.7925 102.911,24.7925 103.43,24.7925 103.949,24.7925 104.468,24.7925 104.987,24.7925 105.506,24.7925 106.025,24.7925 106.544,24.7925 107.062,24.7925 107.581,24.7925 108.1,24.7925 108.619,24.7925 109.138,24.7925 109.657,24.7925 110.176,24.7925 110.695,24.7925 111.214,24.7925 111.733,24.7925 112.252,24.7925 112.771,24.7925 113.29,24.7925 113.809,24.7925 114.328,24.7925 114.847,24.7925 115.366,24.7925 115.885,24.7925 116.404,24.7925 116.923,24.7925 117.442,24.7925 117.961,24.7925 118.48,24.7925 118.999,24.7925 119.518,24.7925 120.037,24.7925 120.556,24.7925 121.075,24.7925 121.594,24.7925 122.113,24.7925 122.632,24.7925 123.151,24.7925 123.67,24.7925 124.189,24.7925 124.708,24.7925 125.227,24.7925 125.746,24.7925 126.264,24.7925 126.783,24.7925 127.302,24.7925 127.821,24.7925 128.34,24.7925 128.859,24.7925 129.378,24.7925 129.897,24.7925 130.416,24.7925 130.935,24.7925 131.454,25.1841 131.973,25.9967 132.492,26.8337 133.011,27.6948 133.53,28.5796 134.049,29.4877 134.568,30.4187 135.087,31.3722 135.606,32.3478 136.125,33.345 136.644,34.3634 137.163,35.4026 137.682,36.4621 138.201,37.5414 138.72,38.6401 139.239,39.7576 139.758,40.8934 140.277,42.0472 140.796,43.2183 141.315,44.4062 141.834,45.6104 142.353,46.8304 142.872,48.0656 143.391,49.3156 143.91,50.5796 144.429,51.8573 144.948,53.1479 145.466,54.451 145.985,55.7659 146.504,57.0922 147.023,58.4291 147.542,59.7761 148.061,61.1327 148.58,62.4981 149.099,63.8718 149.618,65.2533 150.137,66.6418 150.656,68.0367 151.175,69.4376 151.694,70.8436 152.213,72.2543 152.732,73.6689 153.251,75.087 153.77,76.5077 154.289,77.9305 154.808,79.3548 155.327,80.78 155.846,82.2053 156.365,83.6303 156.884,85.0542 157.403,86.4764 157.922,87.8963 158.441,89.3132 158.96,90.7266 159.479,92.1358 159.998,93.5402 160.517,94.9391 161.036,96.332 161.555,97.7183 162.074,99.0972 162.593,100.468 163.112,101.831 163.631,103.184 164.15,104.528 164.669,105.861 165.187,107.184 165.706,108.495 166.225,109.794 166.744,111.08 167.263,112.353 167.782,113.613 168.301,114.858 168.82,116.088 169.339,117.303 169.858,118.502 170.377,119.684 170.896,120.85 171.415,121.997 171.934,123.127 172.453,124.238 172.972,125.331 173.491,126.403 174.01,127.456 174.529,128.489 175.048,129.5 175.567,130.49 176.086,131.458 176.605,132.404 177.124,133.328 177.643,134.228 178.162,135.105 178.681,135.958 179.2,136.787 179.719,137.591 180.238,137.718 180.757,137.718 181.276,137.718 181.795,137.718 182.314,137.718 182.833,137.718 183.352,137.718 183.871,137.718 184.389,137.718 184.908,137.718 185.427,137.718 185.946,137.718 186.465,137.718 186.984,137.718 187.503,137.718 188.022,137.718 188.541,137.718 189.06,137.718 189.579,137.718 190.098,137.718 190.617,137.718 191.136,137.718 191.655,137.718 192.174,137.718 192.693,137.718 193.212,137.718 193.731,137.718 194.25,137.718 194.769,137.718 195.288,137.718 195.807,137.718 196.326,137.718 196.845,137.718 197.364,137.718 197.883,137.718 198.402,137.718 198.921,137.718 199.44,137.718 199.959,137.718 200.478,137.718 200.997,137.718 201.516,137.718 202.035,137.718 202.554,137.718 203.073,137.718 203.592,137.718 204.11,137.718 204.629,137.718 205.148,137.718 205.667,137.718 206.186,137.718 206.705,137.718 207.224,137.718 207.743,137.718 208.262,137.718 208.781,137.591 209.3,136.787 209.819,135.958 210.338,135.105 210.857,134.228 211.376,133.328 211.895,132.404 212.414,131.458 212.933,130.49 213.452,129.5 213.971,128.489 214.49,127.456 215.009,126.403 215.528,125.331 216.047,124.238 216.566,123.127 217.085,121.997 217.604,120.85 218.123,119.684 218.642,118.502 219.161,117.303 219.68,116.088 220.199,114.858 220.718,113.613 221.237,112.353 221.756,111.08 222.275,109.794 222.794,108.495 223.312,107.184 223.831,105.861 224.35,104.528 224.869,103.184 225.388,101.831 225.907,100.468 226.426,99.0972 226.945,97.7183 227.464,96.332 227.983,94.9391 228.502,93.5402 229.021,92.1358 229.54,90.7266 230.059,89.3132 230.578,87.8963 231.097,86.4764 231.616,85.0542 232.135,83.6303 232.654,82.2053 233.173,80.78 233.692,79.3548 234.211,77.9305 234.73,76.5077 235.249,75.087 235.768,73.6689 236.287,72.2543 236.806,70.8436 237.325,69.4376 237.844,68.0367 238.363,66.6418 238.882,65.2533 239.401,63.8718 239.92,62.4981 240.439,61.1327 240.958,59.7761 241.477,58.4291 241.996,57.0922 242.514,55.7659 243.033,54.451 243.552,53.1479 244.071,51.8573 244.59,50.5796 245.109,49.3156 245.628,48.0656 246.147,46.8304 246.666,45.6104 247.185,44.4062 247.704,43.2183 248.223,42.0472 248.742,40.8934 249.261,39.7576 249.78,38.6401 250.299,37.5414 250.818,36.4621 251.337,35.4026 251.856,34.3634 252.375,33.345 252.894,32.3478 253.413,31.3722 253.932,30.4187 254.451,29.4877 254.97,28.5796 255.489,27.6948 256.008,26.8337 256.527,25.9967 257.046,25.1841 257.565,24.7925 258.084,24.7925 258.603,24.7925 259.122,24.7925 259.641,24.7925 260.16,24.7925 260.679,24.7925 261.198,24.7925 261.716,24.7925 262.235,24.7925 262.754,24.7925 263.273,24.7925 263.792,24.7925 264.311,24.7925 264.83,24.7925 265.349,24.7925 265.868,24.7925 266.387,24.7925 266.906,24.7925 267.425,24.7925 267.944,24.7925 268.463,24.7925 268.982,24.7925 269.501,24.7925 270.02,24.7925 270.539,24.7925 271.058,24.7925 271.577,24.7925 272.096,24.7925 272.615,24.7925 273.134,24.7925 273.653,24.7925 274.172,24.7925 274.691,24.7925 275.21,24.7925 275.729,24.7925 276.248,24.7925 276.767,24.7925 277.286,24.7925 277.805,24.7925 278.324,24.7925 278.843,24.7925 279.362,24.7925 279.881,24.7925 280.4,24.7925 280.919,24.7925 281.438,24.7925 281.956,24.7925 282.475,24.7925 282.994,24.7925 283.513,24.7925 284.032,24.7925 284.551,24.7925 285.07,24.7925 285.589,24.7925 286.108,24.7925 286.627,25.4523 287.146,26.273 287.665,27.1181 288.184,27.9871 288.703,28.8797 289.222,29.7955 289.741,30.734 290.26,31.695 290.779,32.6778 291.298,33.6822 291.817,34.7076 292.336,35.7536 292.855,36.8197 293.374,37.9055 293.893,39.0105 294.412,40.1342 294.931,41.2761 295.45,42.4356 295.969,43.6124 296.488,44.8058 297.007,46.0154 297.526,47.2405 298.045,48.4807 298.564,49.7354 299.083,51.004 299.602,52.2861 300.121,53.5809 300.639,54.888 301.158,56.2068 301.677,57.5367 302.196,58.877 302.715,60.2273 303.234,61.5868 303.753,62.9551 304.272,64.3315 304.791,65.7153 305.31,67.1061 305.829,68.5031 306.348,69.9057 306.867,71.3134 307.386,72.7254 307.905,74.1413 308.424,75.5603 308.943,76.9818 309.462,78.4052 309.981,79.8298 310.5,81.2551 311.019,82.6804 311.538,84.1051 312.057,85.5285 312.576,86.95 313.095,88.3689 313.614,89.7848 314.133,91.1968 314.652,92.6045 315.171,94.0071 315.69,95.4041 316.209,96.7949 316.728,98.1787 317.247,99.5551 317.766,100.923 318.285,102.283 318.804,103.633 319.323,104.974 319.842,106.303 320.36,107.622 320.879,108.929 321.398,110.224 321.917,111.506 322.436,112.775 322.955,114.03 323.474,115.27 323.993,116.495 324.512,117.704 325.031,118.898 325.55,120.075 326.069,121.234 326.588,122.376 327.107,123.5 327.626,124.605 328.145,125.691 328.664,126.757 329.183,127.803 329.702,128.828 330.221,129.832 330.74,130.815 331.259,131.776 331.778,132.715 332.297,133.631 332.816,134.523 333.335,135.392 333.854,136.237 334.373,137.058 334.892,137.718 335.411,137.718 335.93,137.718 336.449,137.718 336.968,137.718 337.487,137.718 338.006,137.718 338.525,137.718 339.044,137.718 339.562,137.718 340.081,137.718 340.6,137.718 341.119,137.718 341.638,137.718 342.157,137.718 342.676,137.718 343.195,137.718 343.714,137.718 344.233,137.718 344.752,137.718 345.271,137.718 345.79,137.718 346.309,137.718 346.828,137.718 347.347,137.718 347.866,137.718 348.385,137.718 348.904,137.718 349.423,137.718 349.942,137.718 350.461,137.718 350.98,137.718 351.499,137.718 352.018,137.718 352.537,137.718 353.056,137.718 353.575,137.718 354.094,137.718 354.613,137.718 355.132,137.718 355.651,137.718 356.17,137.718 356.689,137.718 357.208,137.718 357.727,137.718 358.246,137.718 358.765,137.718 359.283,137.718 359.802,137.718 360.321,137.718 360.84,137.718 361.359,137.718 361.878,137.718 362.397,137.718 362.916,137.718 363.435,137.718 363.954,137.326 364.473,136.514 364.992,135.677 365.511,134.815 366.03,133.931 366.549,133.023 367.068,132.092 367.587,131.138 368.106,130.162 368.625,129.165 369.144,128.147 369.663,127.108 370.182,126.048 370.701,124.969 371.22,123.87 371.739,122.753 372.258,121.617 372.777,120.463 373.296,119.292 373.815,118.104 374.334,116.9 374.853,115.68 375.372,114.445 375.891,113.195 376.41,111.931 376.929,110.653 377.448,109.362 377.967,108.059 378.486,106.744 379.004,105.418 379.523,104.081 380.042,102.734 380.561,101.378 381.08,100.012 381.599,98.6384 382.118,97.257 382.637,95.8685 383.156,94.4735 383.675,93.0726 384.194,91.6666 384.713,90.2559 385.232,88.8413 385.751,87.4233 386.27,86.0025 386.789,84.5797 387.308,83.1554 387.827,81.7302 388.346,80.3049 388.865,78.8799 389.384,77.456 389.903,76.0338 390.422,74.6139 390.941,73.197 391.46,71.7836 391.979,70.3744 392.498,68.97 393.017,67.5711 393.536,66.1782 394.055,64.792 394.574,63.413 395.093,62.042 395.612,60.6795 396.131,59.326 396.65,57.9823 397.169,56.6489 397.688,55.3264 398.206,54.0153 398.725,52.7163 399.244,51.4299 399.763,50.1567 400.282,48.8973 400.801,47.6522 401.32,46.422 401.839,45.2072 402.358,44.0084 402.877,42.826 403.396,41.6606 403.915,40.5128 404.434,39.383 404.953,38.2717 405.472,37.1795 405.991,36.1067 406.51,35.054 407.029,34.0216 407.548,33.0102 408.067,32.0202 408.586,31.0519 409.105,30.1058 409.624,29.1824 410.143,28.282 410.662,27.4051 411.181,26.552 411.7,25.7231 412.219,24.9188 412.738,24.7925 413.257,24.7925 413.776,24.7925 414.295,24.7925 414.814,24.7925 415.333,24.7925 415.852,24.7925 416.371,24.7925 416.889,24.7925 417.409,24.7925 417.927,24.7925 418.446,24.7925 418.965,24.7925 419.484,24.7925 420.003,24.7925 420.522,24.7925 421.041,24.7925 421.56,24.7925 422.079,24.7925 422.598,24.7925 423.117,24.7925 423.636,24.7925 424.155,24.7925 424.674,24.7925 425.193,24.7925 425.712,24.7925 426.231,24.7925 426.75,24.7925 427.269,24.7925 427.788,24.7925 428.307,24.7925 428.826,24.7925 429.345,24.7925 429.864,24.7925 430.383,24.7925 430.902,24.7925 431.421,24.7925 431.94,24.7925 432.459,24.7925 432.978,24.7925 433.497,24.7925 434.016,24.7925 434.535,24.7925 435.054,24.7925 435.573,24.7925 436.092,24.7925 436.611,24.7925 437.129,24.7925 437.648,24.7925 438.167,24.7925 438.686,24.7925 439.205,24.7925 439.724,24.7925 440.243,24.7925 440.762,24.7925 441.281,24.9188 441.8,25.7231 442.319,26.552 442.838,27.4051 443.357,28.282 443.876,29.1824 444.395,30.1058 444.914,31.0519 445.433,32.0202 445.952,33.0102 446.471,34.0216 446.99,35.054 447.509,36.1067 448.028,37.1795 448.547,38.2717 449.066,39.383 449.585,40.5128 450.104,41.6606 450.623,42.826 451.142,44.0084 451.661,45.2072 452.18,46.422 452.699,47.6522 453.218,48.8973 453.737,50.1567 454.256,51.4299 454.775,52.7163 455.294,54.0153 455.812,55.3264 456.331,56.6489 456.85,57.9823 457.369,59.326 457.888,60.6795 458.407,62.042 458.926,63.413 459.445,64.792 459.964,66.1782 460.483,67.5711 461.002,68.97 461.521,70.3744 462.04,71.7836 462.559,73.197 463.078,74.6139 463.597,76.0338 464.116,77.456 464.635,78.8799 465.154,80.3049 465.673,81.7302 466.192,83.1554 466.711,84.5797 467.23,86.0025 467.749,87.4233 468.268,88.8413 468.787,90.2559 469.306,91.6666 469.825,93.0726 470.344,94.4735 470.863,95.8685 471.382,97.257 471.901,98.6384 472.42,100.012 472.939,101.378 473.458,102.734 473.977,104.081 474.496,105.418 475.015,106.744 475.533,108.059 476.052,109.362 476.571,110.653 477.09,111.931 477.609,113.195 478.128,114.445 478.647,115.68 479.166,116.9 479.685,118.104 480.204,119.292 480.723,120.463 481.242,121.617 481.761,122.753 482.28,123.87 482.799,124.969 483.318,126.048 483.837,127.108 484.356,128.147 484.875,129.165 485.394,130.162 485.913,131.138 486.432,132.092 486.951,133.023 487.47,133.931 487.989,134.815 488.508,135.677 489.027,136.514 489.546,137.326 490.065,137.718 490.584,137.718 491.103,137.718 491.622,137.718 492.141,137.718 492.66,137.718 493.179,137.718 493.698,137.718 494.217,137.718 494.736,137.718 495.255,137.718 495.773,137.718 496.292,137.718 496.811,137.718 497.33,137.718 497.849,137.718 498.368,137.718 498.887,137.718 499.406,137.718 499.925,137.718 500.444,137.718 500.963,137.718 501.482,137.718 502.001,137.718 502.52,137.718 503.039,137.718 503.558,137.718 504.077,137.718 504.596,137.718 505.115,137.718 505.634,137.718 506.153,137.718 506.672,137.718 507.191,137.718 507.71,137.718 508.229,137.718 508.748,137.718 509.267,137.718 509.786,137.718 510.305,137.718 510.824,137.718 511.343,137.718 511.862,137.718 512.381,137.718 512.9,137.718 513.419,137.718 513.938,137.718 514.456,137.718 514.975,137.718 515.494,137.718 516.013,137.718 516.532,137.718 517.051,137.718 517.57,137.718 518.089,137.718 518.608,137.718 519.127,137.058 519.646,136.237 520.165,135.392 520.684,134.523 521.203,133.631 521.722,132.715 522.241,131.776 522.76,130.815 523.279,129.832 523.798,128.828 524.317,127.803 524.836,126.757 525.355,125.691 525.874,124.605 526.393,123.5 526.912,122.376 527.431,121.234 527.95,120.075 528.469,118.898 528.988,117.704 529.507,116.495 530.026,115.27 530.545,114.03 531.064,112.775 531.583,111.506 532.102,110.224 532.621,108.929 533.14,107.622 533.658,106.303 534.177,104.974 534.696,103.633 535.215,102.283 535.734,100.923 536.253,99.5551 536.772,98.1787 537.291,96.7949 537.81,95.4041 538.329,94.0071 538.848,92.6045 539.367,91.1968 539.886,89.7848 540.405,88.3689 540.924,86.95 541.443,85.5285 541.962,84.1051 542.481,82.6804 543,81.2551"/>
</g>
<clipPath id="cp00600180">
  <polygon points="0,180 600,180 600,0 0,0"/>
</clipPath>
<g clip-path="url(#cp00600180)">
</g>
</g>
</svg>
