<?xml-stylesheet type="text/css" href="https://fonts.googleapis.com/css?family=Open+Sans:300italic,400italic,600italic,700italic,400,600,700,300&amp;subset=latin,cyrillic-ext,latin-ext,cyrillic" ?><svg viewBox="0 0 460.8 180" xmlns="http://www.w3.org/2000/svg" xmlns:xlink="http://www.w3.org/1999/xlink"><defs><style>*{stroke-linecap:butt;stroke-linejoin:round}</style></defs><g id="figure_1"><path d="M0 180h460.8V0H0z" fill="#fefefe" id="patch_1"/><g id="axes_1"><path d="M48.953 138.197h164.448V14.599H48.953z" fill="#fff" id="patch_2"/><path clip-path="url(#p108be57c92)" d="M48.953 60.948h164.448" fill="none" stroke="gray" stroke-dasharray="5.55,2.4" stroke-width="1.5" id="line2d_1"/><g id="matplotlib.axis_1"><g id="xtick_1"><g id="line2d_2"><defs><path d="M0 0v3.5" id="md2b323b55f" stroke="#000" stroke-width=".8"/></defs><use x="48.788" xlink:href="#md2b323b55f" y="138.197" stroke="#000" stroke-width=".8"/></g><text x="48.788" y="152.795" font-family="Open Sans" font-size="10" font-weight="400" text-anchor="middle" id="text_1">−180</text></g><g id="xtick_2"><use x="89.983" xlink:href="#md2b323b55f" y="138.197" stroke="#000" stroke-width=".8" id="line2d_3"/><text x="89.983" y="152.795" font-family="Open Sans" font-size="10" font-weight="400" text-anchor="middle" id="text_2">−90</text></g><g id="xtick_3"><use x="131.177" xlink:href="#md2b323b55f" y="138.197" stroke="#000" stroke-width=".8" id="line2d_4"/><text x="131.177" y="152.795" font-family="Open Sans" font-size="10" font-weight="400" text-anchor="middle" id="text_3">0</text></g><g id="xtick_4"><use x="172.371" xlink:href="#md2b323b55f" y="138.197" stroke="#000" stroke-width=".8" id="line2d_5"/><text x="172.371" y="152.795" font-family="Open Sans" font-size="10" font-weight="400" text-anchor="middle" id="text_4">90</text></g><g id="xtick_5"><use x="172.371" xlink:href="#md2b323b55f" y="138.197" stroke="#000" stroke-width=".8" id="line2d_6"/><text x="172.371" y="152.795" font-family="Open Sans" font-size="10" font-weight="400" text-anchor="middle" id="text_5">90</text></g><g id="xtick_6"><use x="213.566" xlink:href="#md2b323b55f" y="138.197" stroke="#000" stroke-width=".8" id="line2d_7"/><text x="213.566" y="152.795" font-family="Open Sans" font-size="10" font-weight="400" text-anchor="middle" id="text_6">180</text></g><text x="131.177" y="166.797" font-family="Open Sans" font-size="10" font-weight="400" text-anchor="middle" id="text_7">Phase (degrees)</text></g><g id="matplotlib.axis_2"><g id="ytick_1"><g id="line2d_8"><defs><path d="M0 0h-3.5" id="m51ee4c0240" stroke="#000" stroke-width=".8"/></defs><use x="48.953" xlink:href="#m51ee4c0240" y="122.747" stroke="#000" stroke-width=".8"/></g><text x="41.953" y="126.546" font-family="Open Sans" font-size="10" font-weight="400" text-anchor="end" id="text_8">−20</text></g><g id="ytick_2"><use x="48.953" xlink:href="#m51ee4c0240" y="91.848" stroke="#000" stroke-width=".8" id="line2d_9"/><text x="41.953" y="95.647" font-family="Open Sans" font-size="10" font-weight="400" text-anchor="end" id="text_9">−10</text></g><g id="ytick_3"><use x="48.953" xlink:href="#m51ee4c0240" y="60.948" stroke="#000" stroke-width=".8" id="line2d_10"/><text x="41.953" y="64.748" font-family="Open Sans" font-size="10" font-weight="400" text-anchor="end" id="text_10">0</text></g><g id="ytick_4"><use x="48.953" xlink:href="#m51ee4c0240" y="30.049" stroke="#000" stroke-width=".8" id="line2d_11"/><text x="41.953" y="33.848" font-family="Open Sans" font-size="10" font-weight="400" text-anchor="end" id="text_11">10</text></g><text transform="rotate(-90 18.398 76.398)" x="18.398" y="76.398" font-family="Open Sans" font-size="10" font-weight="400" text-anchor="middle" id="text_12">Resulting amplitude (dB)</text></g><path clip-path="url(#p108be57c92)" d="M49.095 181l.188-13.494.495-18.602.495-10.88.66-9.866.824-8.727.825-6.57.99-6.207 1.154-5.783 1.32-5.357 1.32-4.45 1.484-4.24 1.65-4.015 1.813-3.791 1.815-3.293 1.98-3.151 2.143-3.004 2.31-2.852 2.474-2.701 2.639-2.55 2.804-2.4 2.969-2.25 3.134-2.1 3.299-1.95 3.628-1.879 3.794-1.704 3.959-1.53 4.123-1.35 4.289-1.169 4.453-.98 4.618-.78 4.619-.557 4.783-.35 4.783-.123 4.784.1 4.783.326 4.619.533 4.618.757 4.453.954 4.289 1.142 4.123 1.323 3.96 1.5 3.793 1.672 3.628 1.843 3.464 2.016 3.134 2.073 2.97 2.22 2.803 2.365 2.64 2.511 2.473 2.658 2.31 2.802 2.144 2.946 1.98 3.085 1.813 3.215 1.815 3.69 1.65 3.894 1.484 4.09 1.32 4.269 1.154 4.404 1.154 5.287.99 5.558.825 5.721.825 7.29.66 7.717.66 10.878.494 12.613.33 13.71.188 13.493" fill="none" stroke="#1f77b4" stroke-linecap="square" stroke-width="1.5" id="line2d_12"/><path clip-path="url(#p108be57c92)" d="M48.953 109.844l.33-.187.495-.613.66-1.35.824-2.3 1.65-5.467 2.309-7.482 1.814-5.116 1.815-4.443 1.814-3.875 1.98-3.698 2.144-3.505 2.144-3.085 2.309-2.941 2.474-2.79 2.64-2.639 2.803-2.484 2.97-2.332 3.133-2.178 3.299-2.024 3.464-1.87 3.629-1.712 3.958-1.617 4.124-1.435 4.288-1.249 4.454-1.058 4.453-.833 4.618-.64 4.784-.433 4.783-.208 4.783.016 4.784.238 4.783.465 4.619.672 4.453.865 4.453 1.093 4.289 1.286 4.123 1.474 3.96 1.658 3.628 1.756 3.464 1.917 3.298 2.076 3.134 2.235 2.97 2.396 2.803 2.556 2.64 2.72 2.474 2.883 2.309 3.046 2.144 3.205 1.98 3.355 1.814 3.486 1.814 3.97 1.65 4.117 1.649 4.68 1.98 6.364 2.473 8.03.825 1.92.495.736.495.35" fill="none" stroke="#ff7f0e" stroke-linecap="square" stroke-width="1.5" id="line2d_13"/><path clip-path="url(#p108be57c92)" d="M48.953 76.16l1.155-.162 1.154-.405 1.32-.731 1.484-1.109 1.815-1.658 2.639-2.758 7.917-8.46 3.464-3.283 3.299-2.823 3.299-2.54 3.463-2.388 3.629-2.224 3.794-2.053 3.793-1.805 3.959-1.644 4.124-1.479 4.288-1.305 4.454-1.126 4.618-.937 4.783-.738 4.784-.512 4.783-.295 4.948-.08 4.948.149 4.784.361 4.783.581 4.783.81 4.619 1.011 4.453 1.202 4.289 1.386 4.123 1.562 3.959 1.733 3.794 1.898 3.628 2.059 3.464 2.212 3.464 2.48 3.299 2.637 3.299 2.926 3.298 3.223 3.794 4.023 6.103 6.518 1.814 1.606 1.485 1.047 1.32.663 1.154.337.825.09" fill="none" stroke="#2ca02c" stroke-linecap="square" stroke-width="1.5" id="line2d_14"/><path clip-path="url(#p108be57c92)" d="M48.953 50.856l2.31-.137 2.309-.368 2.474-.628 2.804-.954 3.299-1.372 4.618-2.188 13.36-6.465 5.278-2.239 5.114-1.925 4.948-1.627 4.948-1.397 5.113-1.207 5.114-.976 5.113-.75 5.278-.547 5.278-.32 5.278-.094 5.278.13 5.279.354 5.278.582 5.113.787 5.113 1.013 4.948 1.202 4.949 1.426 4.948 1.658 4.948 1.89 5.113 2.188 5.773 2.716 13.69 6.57 3.135 1.18 2.639.769 2.474.486 2.309.222.825.021" fill="none" stroke="#d62728" stroke-linecap="square" stroke-width="1.5" id="line2d_15"/><path d="M48.953 138.197V14.599" fill="none" stroke="#000" stroke-linecap="square" stroke-width=".8" id="patch_3"/><path d="M213.4 138.197V14.599" fill="none" stroke="#000" stroke-linecap="square" stroke-width=".8" id="patch_4"/><path d="M48.953 138.197h164.448" fill="none" stroke="#000" stroke-linecap="square" stroke-width=".8" id="patch_5"/><path d="M48.953 14.6h164.448" fill="none" stroke="#000" stroke-linecap="square" stroke-width=".8" id="patch_6"/><g id="legend_1"><path d="M104.715 133.197h52.924q2 0 2-2V72.19q0-2-2-2h-52.924q-2 0-2 2v59.006q0 2 2 2z" fill="#fff" opacity=".8" stroke="#ccc" id="patch_7"/><path d="M106.715 78.29h20" fill="none" stroke="#1f77b4" stroke-linecap="square" stroke-width="1.5" id="line2d_16"/><text x="134.715" y="81.789" font-family="Open Sans" font-size="10" font-weight="400" id="text_13">0 dB</text><path d="M106.715 93.29h20" fill="none" stroke="#ff7f0e" stroke-linecap="square" stroke-width="1.5" id="line2d_18"/><text x="134.715" y="96.791" font-family="Open Sans" font-size="10" font-weight="400" id="text_14">1 dB</text><path d="M106.715 108.292h20" fill="none" stroke="#2ca02c" stroke-linecap="square" stroke-width="1.5" id="line2d_20"/><text x="134.715" y="111.792" font-family="Open Sans" font-size="10" font-weight="400" id="text_15">3 dB</text><path d="M106.715 123.294h20" fill="none" stroke="#d62728" stroke-linecap="square" stroke-width="1.5" id="line2d_22"/><text x="134.715" y="126.794" font-family="Open Sans" font-size="10" font-weight="400" id="text_16">6 dB</text></g></g><g id="axes_2"><path d="M276.812 138.197h164.447V14.599H276.812z" fill="#fff" id="patch_8"/><path clip-path="url(#pc637c883d8)" d="M276.812 76.398h164.447" fill="none" stroke="gray" stroke-dasharray="5.55,2.4" stroke-width="1.5" id="line2d_24"/><g id="matplotlib.axis_3"><g id="xtick_7"><use x="276.647" xlink:href="#md2b323b55f" y="138.197" stroke="#000" stroke-width=".8" id="line2d_25"/><text x="276.647" y="152.795" font-family="Open Sans" font-size="10" font-weight="400" text-anchor="middle" id="text_17">−180</text></g><g id="xtick_8"><use x="317.841" xlink:href="#md2b323b55f" y="138.197" stroke="#000" stroke-width=".8" id="line2d_26"/><text x="317.841" y="152.795" font-family="Open Sans" font-size="10" font-weight="400" text-anchor="middle" id="text_18">−90</text></g><g id="xtick_9"><use x="359.036" xlink:href="#md2b323b55f" y="138.197" stroke="#000" stroke-width=".8" id="line2d_27"/><text x="359.036" y="152.795" font-family="Open Sans" font-size="10" font-weight="400" text-anchor="middle" id="text_19">0</text></g><g id="xtick_10"><use x="400.23" xlink:href="#md2b323b55f" y="138.197" stroke="#000" stroke-width=".8" id="line2d_28"/><text x="400.23" y="152.795" font-family="Open Sans" font-size="10" font-weight="400" text-anchor="middle" id="text_20">90</text></g><g id="xtick_11"><use x="400.23" xlink:href="#md2b323b55f" y="138.197" stroke="#000" stroke-width=".8" id="line2d_29"/><text x="400.23" y="152.795" font-family="Open Sans" font-size="10" font-weight="400" text-anchor="middle" id="text_21">90</text></g><g id="xtick_12"><use x="441.424" xlink:href="#md2b323b55f" y="138.197" stroke="#000" stroke-width=".8" id="line2d_30"/><text x="441.424" y="152.795" font-family="Open Sans" font-size="10" font-weight="400" text-anchor="middle" id="text_22">180</text></g><text x="359.036" y="166.797" font-family="Open Sans" font-size="10" font-weight="400" text-anchor="middle" id="text_23">Phase (degrees)</text></g><g id="matplotlib.axis_4"><g id="ytick_5"><use x="276.812" xlink:href="#m51ee4c0240" y="138.197" stroke="#000" stroke-width=".8" id="line2d_31"/><text x="269.812" y="141.996" font-family="Open Sans" font-size="10" font-weight="400" text-anchor="end" id="text_24">−180</text></g><g id="ytick_6"><use x="276.812" xlink:href="#m51ee4c0240" y="107.297" stroke="#000" stroke-width=".8" id="line2d_32"/><text x="269.812" y="111.097" font-family="Open Sans" font-size="10" font-weight="400" text-anchor="end" id="text_25">−90</text></g><g id="ytick_7"><use x="276.812" xlink:href="#m51ee4c0240" y="76.398" stroke="#000" stroke-width=".8" id="line2d_33"/><text x="269.812" y="80.197" font-family="Open Sans" font-size="10" font-weight="400" text-anchor="end" id="text_26">0</text></g><g id="ytick_8"><use x="276.812" xlink:href="#m51ee4c0240" y="45.499" stroke="#000" stroke-width=".8" id="line2d_34"/><text x="269.812" y="49.298" font-family="Open Sans" font-size="10" font-weight="400" text-anchor="end" id="text_27">90</text></g><g id="ytick_9"><use x="276.812" xlink:href="#m51ee4c0240" y="14.599" stroke="#000" stroke-width=".8" id="line2d_35"/><text x="269.812" y="18.398" font-family="Open Sans" font-size="10" font-weight="400" text-anchor="end" id="text_28">180</text></g><text transform="rotate(-90 240.54 76.398)" x="240.54" y="76.398" font-family="Open Sans" font-size="10" font-weight="400" text-anchor="middle" id="text_29">Resulting phase (degrees)</text></g><path clip-path="url(#pc637c883d8)" d="M276.812 107.236L441.259 45.56" fill="none" stroke="#1f77b4" stroke-linecap="square" stroke-width="1.5" id="line2d_36"/><path clip-path="url(#pc637c883d8)" d="M276.812 137.308l1.65-8.32 1.154-4.664.99-3.174 1.154-2.932 1.155-2.317 1.32-2.123 1.484-1.93 1.649-1.764 1.98-1.769 2.309-1.753 2.804-1.844 3.628-2.101 4.619-2.399 6.103-2.902 8.412-3.734 12.04-5.081 19.464-7.944L393.26 62.44l11.711-5.028 7.917-3.629 5.608-2.805 4.124-2.3 3.134-1.986 2.474-1.811 1.98-1.696 1.649-1.672 1.484-1.806 1.32-1.96 1.154-2.111.99-2.226.99-2.744.99-3.414.989-4.198 1.32-6.679.164-.886" fill="none" stroke="#ff7f0e" stroke-linecap="square" stroke-width="1.5" id="line2d_37"/><path clip-path="url(#pc637c883d8)" d="M276.812 137.855l3.793-7.629 2.31-4.171 2.144-3.444 2.144-3.039 2.31-2.874 2.473-2.7 2.64-2.537 2.968-2.532 3.3-2.514 3.793-2.608 4.453-2.786 5.279-3.036 6.597-3.526 8.247-4.142 10.887-5.203 17.154-7.923 24.576-11.376 10.721-5.213 7.918-4.086 6.267-3.479 5.114-3.091 4.123-2.743 3.629-2.681 3.134-2.598 2.639-2.462 2.474-2.61 2.31-2.768 2.143-2.923 2.145-3.315 2.144-3.734 2.474-4.776 2.144-4.395" fill="none" stroke="#2ca02c" stroke-linecap="square" stroke-width="1.5" id="line2d_38"/><path clip-path="url(#pc637c883d8)" d="M276.812 137.988l6.927-8.595 4.124-4.764 3.794-4.053 3.793-3.729 3.959-3.571 4.123-3.42 4.454-3.406 4.948-3.506 5.608-3.7 6.598-4.08 7.917-4.62 9.897-5.506 15.174-8.156 20.618-11.117 9.732-5.504 7.587-4.535 6.433-4.1 5.443-3.729 4.783-3.537 4.289-3.438 3.958-3.448 3.794-3.594 3.794-3.91 3.793-4.237 4.289-5.136 4.618-5.79" fill="none" stroke="#d62728" stroke-linecap="square" stroke-width="1.5" id="line2d_39"/><path d="M276.812 138.197V14.599" fill="none" stroke="#000" stroke-linecap="square" stroke-width=".8" id="patch_9"/><path d="M441.26 138.197V14.599" fill="none" stroke="#000" stroke-linecap="square" stroke-width=".8" id="patch_10"/><path d="M276.812 138.197h164.447" fill="none" stroke="#000" stroke-linecap="square" stroke-width=".8" id="patch_11"/><path d="M276.812 14.6h164.447" fill="none" stroke="#000" stroke-linecap="square" stroke-width=".8" id="patch_12"/></g></g><defs><clipPath id="p108be57c92"><path d="M48.953 14.599h164.448v123.598H48.953z"/></clipPath><clipPath id="pc637c883d8"><path d="M276.812 14.599H441.26v123.598H276.812z"/></clipPath></defs></svg>