<?xml-stylesheet type="text/css" href="https://fonts.googleapis.com/css?family=Open+Sans:300italic,400italic,600italic,700italic,400,600,700,300&amp;subset=latin,cyrillic-ext,latin-ext,cyrillic" ?><svg viewBox="0 0 460 288" xmlns="http://www.w3.org/2000/svg" xmlns:xlink="http://www.w3.org/1999/xlink"><defs><style>*{stroke-linecap:butt;stroke-linejoin:round}</style></defs><g id="figure_1"><path d="M0 288h460.8V0H0z" fill="#fefefe" id="patch_1"/><g id="axes_1"><path d="M48.953 246.197h386.754V14.599H48.953z" fill="#fff" id="patch_2"/><g id="matplotlib.axis_1"><g id="xtick_1"><g id="line2d_1"><defs><path d="M0 0v3.5" id="me453689abb" stroke="#000" stroke-width=".8"/></defs><use x="48.953" xlink:href="#me453689abb" y="246.197" stroke="#000" stroke-width=".8"/></g><text x="48.953" y="260.795" font-family="Open Sans" font-size="10" font-weight="400" text-anchor="middle" id="text_1">20</text></g><g id="xtick_2"><use x="139.063" xlink:href="#me453689abb" y="246.197" stroke="#000" stroke-width=".8" id="line2d_2"/><text x="139.063" y="260.795" font-family="Open Sans" font-size="10" font-weight="400" text-anchor="middle" id="text_2">100</text></g><g id="xtick_3"><use x="267.981" xlink:href="#me453689abb" y="246.197" stroke="#000" stroke-width=".8" id="line2d_3"/><text x="267.981" y="260.795" font-family="Open Sans" font-size="10" font-weight="400" text-anchor="middle" id="text_3">1000</text></g><g id="xtick_4"><use x="396.899" xlink:href="#me453689abb" y="246.197" stroke="#000" stroke-width=".8" id="line2d_4"/><text x="396.899" y="260.795" font-family="Open Sans" font-size="10" font-weight="400" text-anchor="middle" id="text_4">10000</text></g><g id="xtick_5"><use x="435.707" xlink:href="#me453689abb" y="246.197" stroke="#000" stroke-width=".8" id="line2d_5"/><text x="435.707" y="260.795" font-family="Open Sans" font-size="10" font-weight="400" text-anchor="middle" id="text_5">20000</text></g><g id="xtick_6"><g id="line2d_6"><defs><path d="M0 0v2" id="m6f345adbae" stroke="#000" stroke-width=".6"/></defs><use x="48.953" xlink:href="#m6f345adbae" y="246.197" stroke="#000" stroke-width=".6"/></g></g><g id="xtick_7"><use x="71.654" xlink:href="#m6f345adbae" y="246.197" stroke="#000" stroke-width=".6" id="line2d_7"/></g><g id="xtick_8"><use x="87.761" xlink:href="#m6f345adbae" y="246.197" stroke="#000" stroke-width=".6" id="line2d_8"/></g><g id="xtick_9"><use x="100.255" xlink:href="#m6f345adbae" y="246.197" stroke="#000" stroke-width=".6" id="line2d_9"/></g><g id="xtick_10"><use x="110.463" xlink:href="#m6f345adbae" y="246.197" stroke="#000" stroke-width=".6" id="line2d_10"/></g><g id="xtick_11"><use x="119.093" xlink:href="#m6f345adbae" y="246.197" stroke="#000" stroke-width=".6" id="line2d_11"/></g><g id="xtick_12"><use x="126.569" xlink:href="#m6f345adbae" y="246.197" stroke="#000" stroke-width=".6" id="line2d_12"/></g><g id="xtick_13"><use x="133.164" xlink:href="#m6f345adbae" y="246.197" stroke="#000" stroke-width=".6" id="line2d_13"/></g><g id="xtick_14"><use x="177.871" xlink:href="#m6f345adbae" y="246.197" stroke="#000" stroke-width=".6" id="line2d_14"/></g><g id="xtick_15"><use x="200.572" xlink:href="#m6f345adbae" y="246.197" stroke="#000" stroke-width=".6" id="line2d_15"/></g><g id="xtick_16"><use x="216.679" xlink:href="#m6f345adbae" y="246.197" stroke="#000" stroke-width=".6" id="line2d_16"/></g><g id="xtick_17"><use x="229.173" xlink:href="#m6f345adbae" y="246.197" stroke="#000" stroke-width=".6" id="line2d_17"/></g><g id="xtick_18"><use x="239.381" xlink:href="#m6f345adbae" y="246.197" stroke="#000" stroke-width=".6" id="line2d_18"/></g><g id="xtick_19"><use x="248.011" xlink:href="#m6f345adbae" y="246.197" stroke="#000" stroke-width=".6" id="line2d_19"/></g><g id="xtick_20"><use x="255.487" xlink:href="#m6f345adbae" y="246.197" stroke="#000" stroke-width=".6" id="line2d_20"/></g><g id="xtick_21"><use x="262.082" xlink:href="#m6f345adbae" y="246.197" stroke="#000" stroke-width=".6" id="line2d_21"/></g><g id="xtick_22"><use x="306.789" xlink:href="#m6f345adbae" y="246.197" stroke="#000" stroke-width=".6" id="line2d_22"/></g><g id="xtick_23"><use x="329.49" xlink:href="#m6f345adbae" y="246.197" stroke="#000" stroke-width=".6" id="line2d_23"/></g><g id="xtick_24"><use x="345.597" xlink:href="#m6f345adbae" y="246.197" stroke="#000" stroke-width=".6" id="line2d_24"/></g><g id="xtick_25"><use x="358.091" xlink:href="#m6f345adbae" y="246.197" stroke="#000" stroke-width=".6" id="line2d_25"/></g><g id="xtick_26"><use x="368.299" xlink:href="#m6f345adbae" y="246.197" stroke="#000" stroke-width=".6" id="line2d_26"/></g><g id="xtick_27"><use x="376.929" xlink:href="#m6f345adbae" y="246.197" stroke="#000" stroke-width=".6" id="line2d_27"/></g><g id="xtick_28"><use x="384.405" xlink:href="#m6f345adbae" y="246.197" stroke="#000" stroke-width=".6" id="line2d_28"/></g><g id="xtick_29"><use x="391" xlink:href="#m6f345adbae" y="246.197" stroke="#000" stroke-width=".6" id="line2d_29"/></g><g id="xtick_30"><use x="435.707" xlink:href="#m6f345adbae" y="246.197" stroke="#000" stroke-width=".6" id="line2d_30"/></g><text x="242.33" y="274.797" font-family="Open Sans" font-size="10" font-weight="400" text-anchor="middle" id="text_6">Frequency (Hz)</text></g><g id="matplotlib.axis_2"><g id="ytick_1"><g id="line2d_31"><defs><path d="M0 0h-3.5" id="mc1a911a7ee" stroke="#000" stroke-width=".8"/></defs><use x="48.953" xlink:href="#mc1a911a7ee" y="246.197" stroke="#000" stroke-width=".8"/></g><text x="41.953" y="249.996" font-family="Open Sans" font-size="10" font-weight="400" text-anchor="end" id="text_7">−80</text></g><g id="ytick_2"><use x="48.953" xlink:href="#mc1a911a7ee" y="220.464" stroke="#000" stroke-width=".8" id="line2d_32"/><text x="41.953" y="224.263" font-family="Open Sans" font-size="10" font-weight="400" text-anchor="end" id="text_8">−70</text></g><g id="ytick_3"><use x="48.953" xlink:href="#mc1a911a7ee" y="194.731" stroke="#000" stroke-width=".8" id="line2d_33"/><text x="41.953" y="198.53" font-family="Open Sans" font-size="10" font-weight="400" text-anchor="end" id="text_9">−60</text></g><g id="ytick_4"><use x="48.953" xlink:href="#mc1a911a7ee" y="168.998" stroke="#000" stroke-width=".8" id="line2d_34"/><text x="41.953" y="172.797" font-family="Open Sans" font-size="10" font-weight="400" text-anchor="end" id="text_10">−50</text></g><g id="ytick_5"><use x="48.953" xlink:href="#mc1a911a7ee" y="143.265" stroke="#000" stroke-width=".8" id="line2d_35"/><text x="41.953" y="147.064" font-family="Open Sans" font-size="10" font-weight="400" text-anchor="end" id="text_11">−40</text></g><g id="ytick_6"><use x="48.953" xlink:href="#mc1a911a7ee" y="117.532" stroke="#000" stroke-width=".8" id="line2d_36"/><text x="41.953" y="121.331" font-family="Open Sans" font-size="10" font-weight="400" text-anchor="end" id="text_12">−30</text></g><g id="ytick_7"><use x="48.953" xlink:href="#mc1a911a7ee" y="91.798" stroke="#000" stroke-width=".8" id="line2d_37"/><text x="41.953" y="95.598" font-family="Open Sans" font-size="10" font-weight="400" text-anchor="end" id="text_13">−20</text></g><g id="ytick_8"><use x="48.953" xlink:href="#mc1a911a7ee" y="66.065" stroke="#000" stroke-width=".8" id="line2d_38"/><text x="41.953" y="69.865" font-family="Open Sans" font-size="10" font-weight="400" text-anchor="end" id="text_14">−10</text></g><g id="ytick_9"><use x="48.953" xlink:href="#mc1a911a7ee" y="40.332" stroke="#000" stroke-width=".8" id="line2d_39"/><text x="41.953" y="44.132" font-family="Open Sans" font-size="10" font-weight="400" text-anchor="end" id="text_15">0</text></g><g id="ytick_10"><use x="48.953" xlink:href="#mc1a911a7ee" y="14.599" stroke="#000" stroke-width=".8" id="line2d_40"/><text x="41.953" y="18.398" font-family="Open Sans" font-size="10" font-weight="400" text-anchor="end" id="text_16">10</text></g><text transform="rotate(-90 18.398 130.398)" x="18.398" y="130.398" font-family="Open Sans" font-size="10" font-weight="400" text-anchor="middle" id="text_17">Amplitude (dB)</text></g><path clip-path="url(#p3d66b8347a)" d="M10.145 153.2l38.808 10.711 22.701 5.049 16.107 3.249 12.494-3.97 10.208 15.5 8.63-35.055 7.476 22.354 6.595-6.429 5.899-11.895 5.336 9.432 4.872 4.822 4.481 48.96 4.15-48.868 3.862 12.916 3.614-22.87 3.394 1.46 3.2 31.535L175 160.895l2.872-1.215 2.732 8.858 2.604 13.414 2.49-14.875 2.382-1.315 2.286-18.1 2.195 14.09 2.113-11.477 2.037 39.668 1.964-25.882 1.898-9.834 1.836 11.29 1.778-3.782 1.723 65.46 1.671-50.067 1.623 3.119 1.577-13.111 1.534 13.263 1.493-16.06 1.455 15.868 1.417-22.048 1.383 2.879 1.349 12.373 1.317-5.813 1.288 12.33 1.258-30.69 1.23 30.474 1.204-17.191 1.18 8.395 1.154-12.972 1.13 6.751 1.11-12.5 1.087 32.236 1.066 2.76 1.047-22.683 1.027 4.739 1.009-9.906.99 21.03.975-22.594.957 11.526.94-3.889.926-3.115.91 8.918.896-3.003.882-10.245.868-1.066.855 10.447.842 1.97.83-5.285.817 7.89.805-5.088.794-8.596.783 22.534.773-4.218.762-15.811.751 6.673.742-4.44.732 41.576.722-54.03.713 32.286.704-11.97.696 3.341.687 15.707.679-51.884.67 26.632.663-16.383.655 26.836.647-15.392.64 17.288.632-3.733.626-20.216.619 13.164.611-13.968.606 4.644.599 18.496.592-6.843.586-8.775.58 13.584.575-21.654.568 24.439.563-127.873.557 142.527.552 11.618.546-42.418.54 13.038.537-4.624.53-22.783.526 46.583.52-13.103.517-20.176.511-2.993.507 10.24.502-12.696.498 43.63.982-41.272.485 21.028.48 10.4.477-13.958.472 5.066.469 1.437.464-15.173.461-4.799.457 15.8.454-9.678.45 26.692.445-33.785.443 31.952.44-29.128.435 33.7.432-30.179.43 2.59.425 11.659.423-9.754.419 5.368.416 11.978.413-24.88.41-3.468.408 6.672.404 18.259.401-29.054.399 7.999.396 14.587.392-18.504.39 34.807.388-31.372.385 6.984.382-14.146.38 22.147.377-2.61.374 30.48.372-38.617.37 10.447.367 1.422.365.758.362-2.498.36-11.803.358-16.346.709 51.715.35-49.526.35 21.934.346-14.883.345-3.584.342 7.497.34 13.371.339-19.439.336 11.832.334 54.578.333-37.208.33-19.724.328-5.873.327 17.732.324-1.07.323-21.783.32 12.201.32 28.847.317-20.8.316.098.625-4.818.619-11.606.307 6.368.608-4.605.302 15.508.3-.08.299-20.03.297 20.46.295-9.829.294 3.272.293-6.185.29 7.043.29-9.335.288 17.698.286-21.194.285 36.474.283-41.828.282 11.571.56-8.503.278 13.543.277-7.668.549 10.135.272 29.383.271-39.351.27 18.62.268 7.717.268-9.948.266-4.777.264 4.262.526-18.16.261 1.431.26-.366.259-18.278.257 18.747.256-2.263.255.273.254-12.194.253 19.86.252-5.031.25-1.11.25 3.997.741-12.164.245 14.773.244-3.521.243 8.249.242-16.704.24 15.34.24-3.608.24-15.658.237 19.15.237 5.952.235-14.174.235 33.114.234-43.176.233 26.906.232 3.383.23-23.05.23-4.238.23.038.227 8.412.228 4.21.226 39.398.225-10.997.225-34.26.223 23.007.223-26.604.221 15.124.221 6.866.22-18.71.22 16.235.218.928.217-4.42.217-11.596.215 10.722.215-3.91.214 24.058.214-39.856.212 20.097.212 9.109.21-12.197.21.099.21-3.77.209-13.133.62 26.895.206-12.169.205 2.04.204 22.698.203-31.952.202-4.173.202 5.886.201-6.733.2 27.742.2-11.177.2-2.167.197-11.88.198 20.49.197-25.81.196 46.23.584-31.324.193 1.56.193 3.918.192-15.362.192 30.544.19-31.548.19 23.214.19-8.595.189 3.322.188-23.388.187 12.757.187-4.131.187 12.146.185 1.894.185-11.241.185 29.615.184-29.426.183 18.219.183-11.162.182 11.518.181-28.124.181-1.233.18 60.086.18-41.16.18 4.953.178 8.542.178 39.272.178-62.931.176 3.45.177 17.149.176-10.726.175-2.616.174-13.219.348 27.377.173-12.29.173 14.683.172-18.148.171 1.42.342 29.597.34-45.61.168 36.084.168-20.138.336 79.457.166-89.687.167.34.166-8.555.33 9.685.164 37.802.164-42.033.164 1.269.163 20.31.162-16.717.162 10.396.323-6.75.321 15.697.16-6.962.16 19.556.474-39.486.158 13.666.157 54.587.156-60.604.157 10.123.155-9.532.156 20.069.154-13.973.155 3.93.154-14.147.307 25.805.152-19.86.153 2.296.152-.832.151-5.076.151 23.012.301-34.441.3 30.487.149-8.165.297-20.172.295 49.736.294-41.027.293 13.369.145 28.7.146-41.841.144 1.66.433 11.836.286-7.442.143 4.06.142-1.582.142-7.466.142 28.88.282-29.863.14 4.768.14.34.14 8.493.14-2.576.139 3.02.138-6.138.277 14.825.138 5.354.137-36.756.137 29.147.137.975.136 6.31.136-24.64.136 16.903.27-17.082.135-2.702.135 1.862.134-10.537.133 38.951.134-21.736.133.797.133-16.101.265 24.04.132-22.859.131 17.922.262-7.205.131 21.81.13-20.634.39 16.938.129 11.249.129-17.209.256 11.749.128-25.346.128 17.57.127-8.98.128 1.006.126 3.49.253-11.55.126.471.126 17.75.25-25.576.25 15.633.124-19.291.248 48.498.246-38.113.246 15.925.244-23.603.122 6.492.122-2.037.121 38.464.242-42.976.12 17.787.24-16.474.12 24.318.12-22.568.12.22.118 14.528.12-1.652.236-13.023.236 5.085.117-1.384.117 55.961.117-59.196.117 28.747.117-11.96.116 20.203.116-27.433.116-.78.115 13.848.116-20.51.115.085.115 16.39.114-17.212.229 29.951.114-35.63.113 47.658.114-32.388.113 5.47.113-5.56.113 3.582.112 22.283.113-43.746.112 1.929.112-1.238.223 21.354.11 4.811.112-2.859.11-28.297.111 13.85.11-1.518.11 1.832.11 11.37.22-16.039.109 22.953.218-21.31.108 4.963.109-12.094.108 20.773.108-4.474.108 14.186.107-24.394.108 38.731.214-38.37.106 35.01.213-34.985.106-3.833.106 8.897.106-10.701.106 19.27.105-6.437.105 2.712.105-4.545.21 9.457.104 9.687.104-22.016.104 16.695.104-27.874.207 31.442.103-32.007.103 21.445.103-5.62.102 26.98.103-40.194.306 36.634.305-36.61.202 30.72.1-23.405.101 19.051.1-27.406.2 14.85.1-6.884.1 17.87.1-16.788.1 8.456.098-1.304.1 8.525.197-20.944.098 22.24.295-32.013.195 56.859.195-39.322.097 9.307.097-7.751.097 3.647.193-21.04.096 19.703.096-16.013.192 27.889.096-15.72.095 33.273.095-13.506.096-29.324.095 12.378.094-9.003.095 31.906.095-20.174.188 71.394.188-69.097.094 46.468.093-57.212.094 2.26.093-1.534.093 11.902.093-12.55.093 20.057.185-24.216.092 6.88.092 43.69.276-54.794.183 64.51.091-45.712.182 12.043.09-27.323.092 7.658.09 18.687.18-19.184.09 31.849.09-36.77.18 33.613.09-25.399.089 25.135.09-4.333.177-18.554.089.771.089 9.11.088-13.644.089 28.27.176-33.201.088 56.212.088-46.507.087 25.892.088-38.19.087.34.088-3.439.174 23.778.173-15.765.173 9.425.173-20.852.172 17.86.086-18.172.086 21.35.085-33.29.085 39.856.086-23.418.085 8.848.17-7.244.254 39.094.168-40.28.085 50.435.084-37.313.083 13.223.084-23.616.084 4.971.083 11.464.084-.902.083-4.383.083 16.333.083-8.257.083-25.041.248 34.837.165-20.303.082 18.587.082-21.054.082 30.44.081-10.708.245-34.526.163 24.391.08-5.192.082 2.956.08-4.92.081 7.096.08-8.539.081 14.77.08-26.17.081 1.142.16 15.76.08 3.503.16-8.301.08 34.12.079-36.563.158 32.58.158-33.318.158-6.974.157 17.258.157-6.288.079-1.808.078 4.964.078-10.494.078 3.38.31 37.584.232-44.58.077 9.069.077 33.755.077-32.413.077 4.86.076-16.23.23 36 .076-34.723.076 40.31.076-38.724.076 25.837.076-13.51.075 33.676.152-46.146.075 1.394.075 9.536.076-5.617.15 13.881.15-19.145.074 7.595.075-1.532.074 28.223.075-32.693.074 20.666.074-23.986.074 4.22.074 3.92.074-12.987.074 31.862.074-32.465.073 14.943.147 36.25.073-48.958.074 30.665.073-4.428.073-25.413.073 4.598.073 7.13.072-9.657.073 23.656.073-28.966.072 31.707.073-1.746.072.254.072-2.088.144-22.897.072 19.644.072-6.782.072-13.181.143 29.142.143-17.976.142-6.994.284 25.861.07-20.206.071 49.805.07-47.933.071 11.627.07 3.467.141-24.153.14 8.205.07 36.998.07-47.354.07 25.219.07 5.438.07-41.592.069 16.661.07 7.365.138-17.376.069 29.816.069-28.136.069 13.643.069-15.025.137 56.6.07-21.17.068-6.364.068-23.622.069 19.023.068-1.657.068-8.727.136 25.609.068-7.049.068 23.684.068-44.47.068 24.058.067-14.665.068 12.828.135-24.581.269 34.577.134-36.547.067.212.066 13.081.067-9.438.067 7.76.066-16.26.2 18.181.132-10.557.066 27.595.066-8.838.066-17.032.066 7.503.13-14.978.132 30.546.066-18.227.065 23.534.065-6.763.065.504.13-23.375.066 29.232.064-26.654.065 12.27.065 21.049.13-41.983.064 2.162.064 17.142.065-20.097.064 6.688.129 8.045.064-13.276.064 14.163.064-18.27.191 55.736.127-51.875.064 19.659.063-24.187.064 18.423.063-15.214.063 19.236.063-14.152.19 24.574.062-23.215.063 31.532.063-23.351.188-20.772.062 21.782.062-.186.063 2.923.186-20.2.186 29.63.185-24.77.062-3.119.062 10.92.061 30.946.061-16.887.062-25.517.061 27.704.061-16.836.061-15.315.062 20.37.122-20.221.06 27.614.061-3.635.061-7.158.121 19.3.06-10.357.061 13.217.06-27.575.061 12.923.12-23.63.181 25.984.18-16.232.06 34.887.06-20.291.178-22.441.06 6.988.059 18.563.06-8.026.059-10.423.059 6.148.059 18.13.059-29.443.06 21.401.058-9.05.059 12.188.059-20.902.059 13.066.117-3.488.059 3.358.058-2.969.059-12.591.058 15.646.058-22.936.059 21.962.058-1.012.058-21.545.058 4.498.058-.25.058 11.764.058-7.054.058 5.953.058 22.166.057-32.54.058 17.345.058-2.472.057-8.548.058 3.073.057 5.742.058-13.952.057 7.03.115 14.653.057-8.433.114 23.662.17-40.76.114 31.094.17-24.94.057 80.663.056-80.935.057 14.864.056-14.856.112 20.275.057-15.748.056 21.186.056-13.552.056-6.93.056 17.604.056-18.957.056 6.92.111 21.905.111-27.115.056 2.39.055 18.04.056-26.873.055 15.16.056-7.063.165 17.508.056-19.087.055 5.386.055 6.57.055-1.577.164-10.853.055 23.025.11-27.887.054 52.29.054-49.168.11 13.74.108-3.962.054 34 .055-28.817.054-7.972.054 7.936.054-1.877.054-8.659.054 25.035.054-20.003.054-18.553.054 1.93.053 3.139.108 41.245.107-41.485.053 23.836.054-13.035.107-18.266.212 28.441.054-5.617.053 7.462.053-25.997.052 5.901.053 33.82.053-28.105.053 22.461.053-10.526.105-21.108.053 10.844.052 19.953.053-18.521.052-5.924.053 7.92.104-14.351.105 38.616.156-31.46.156 13.163.052-7.12.052 49.774.051-33.163.052-15.365.052 20.321.051-28.47.052 16.496.051 8.648.052-18.446.051.223.052 3.876.051 31.686.051-26.608.052-8.85.05 2.632.052 11.03.051-17.967.051 20.49.051-24.566.102 90.1.102-83.35.05 2.539.051 50.082.152-63.607.152 23.594.05-22.445.05 39.757.05-39.103.101 29.601.2-26.112.05 12.714.1-2.465.1 13.445.05-3.274.1-17.47.1 18.951.049-2.081.05-28.093.098 5.507.148 34.122.05-14.852.196-20.73.098 1.527.049 18.235.049-3.186.049-13.494.146 26.323.049-1.854.049-28.904.048 15.582.049 3.316.048-4.983.097 16.776.097-38.168.048 16.592.049 11.993.048-2.422.096-9.247.048.068.096 19.37.144-28.145.048 8.336.048-15.122.048 13.467.095 4.092.048-10.867.048 5.865.047 2.288.048-11.262.047 35.344.048-11.692.095-15.855.094 50.214.047-30.443.048-34.19.094 66.774.141-54.063.188 39.035.047-39.049.093 9.425.047-3.395.047-13.688.046 17.34.094-6.07.185 36.458.047-40.623.092 15.094.047-1.12.046 54.243.046-45.46.046-12.226.092 4.695.046-6.328.046 3.148.046 6.229.046-4.825.046.854.046-11.25.046 7.403.045 16.147.092-21.23.046 1.691.045-2.484.046 14.802.045-12.194.046 4.911.045-3.049.046-1.332.136 8.041.045-15.341.045 33.058.09-11.538.046-13.89.045 18.873.045-20.445.045 1.19.045 44.3.045-63.155.09 11.927.179 29.507.045-.745.178-30.826.044 1.538.09 31.88.044-24.84.044 7.556.045-1.877.088-12.126.089 56.13.044-43.136.044-14.4.044 21.482.088-.596.044-18.101.044 4.323.088 26.047.088-32.156.043 16.066.088-9.013.044-5.882.043 64.894.044-54.664.043 14.9.044-18.076.043 33.288.087-17.833.087-18.601.044 21.227.043-4.301.043-26.542.087 9.606.043.808.043 5.267.043-6.21.043 14.382.086-18.659.086 47.28.043-30.333.086-20.401.085 1.558.043 16.536.043-13.557.043-1.501.085 23.99.043-11.51.042-22.681.043 40.204.042-22.566.043-15.215.127 35.815.042-31.81.085 53.489.042-45.559.042 49.701.042-30.38.085-11.65.042 44.53.042-52.955.084 9.503.042 42.986.042-61.544.083 31.097.042 7.809.125-39.418.084 25.533.083-9.669.042-8.238.041 13.541.042-14.473.041 11.177.042 47.06.124-57.9.041 7.159.042-10.319.082 20.306.041-9.974.041-17.502.083 40.542.04-28.209.083 39.347.04-46.062.083 32.087.122-32.396.082 37.666.082-.178.04-38.094.082 18.488.04 5.208.081-21.158.04 7.415.082-2.708.04 18.16.081-31.953.121 30.43.04-14.132.04 32.074.04-3.086.04-35.278.081 16.551.04-6.64.12 54.85.08-57.137.08 2.735.04-17.793.04 2.733.08 29.235.04-30.58.079 21.666.04 2.468.039 15.428.04-27.48.04 37.786.039-35.041.04-2.537.078 32.14.04-32.508.078 11.845.04-7.01.04 15.23.117-19.357.04 17.718.077-25.23.04 5.918.039-1.309.039 2.567.039 43.905.039-50.738.078 6.475.039 20.272.039-11.507.116-16.13.04 21.464.077-17.748.038-1.186.155 49.24.116-49.798.154 29.726.038-27.934.039 30.62.076-18.814.039-14.066.038 9.084.038 5.494.038-3.41.039-9.612.038 9.243.038 8.327.038-11.679.038 2.155.038 21.843.076-42.548.038 27.872.038.776.038-17.48.152 39.104.037-7.178.038-30.97.076 14.759.037 19.047.076-42.119.037 15.331.038 26.01.038-22.278.037-8.902.038 14.045.037-.104.15-20.43.037 47.22.075-34.624.037 7.47.038-16.409.074 9.283.038-.157.074 26.005.037-9.253.037-34.547.074 15.343.148 33.263.037-6.09.037-29.74.074 1.743.037-.816.037 9.13.036-17.865.037 48.723.074-47.785.146 32.886.037-26.302.073 2.303.037 4.324.109-7.94.036 25.424.037-39.01.073 13.373.036 47.672.073-49.64.036 7.572.036 15.068.145-39.702.18 58.816.144-40.589.036-7.894.144 29.698.035-25.412.072 33.966.036-20.644.071-21.063.036 19.425.035 24.11.036-42.38.071 16.509.107-14.958.035 30.548.071-24.557.036-9.607.07 40.372.071-6.697.141-23.537.036 38.85.07-9.875.035-26.552.07 5.94.07 14.46.036-14.822.035 16.995.07-31.277.035 49.341.07-30.885.034 5.263.035-.71.035-5.57.035 3.411.07 25.504.034-39.53.07 59.813.034-52.408.07 25.264.034-36.914.035 64.238.07-33.536.034-25.19.069 24.199.103-33.863.138 46.867.034-42.843.069 22.69.137-23.422.102 52.088.068-43.053.034 19.15.034-.18.069-20.676.034 12.125.034 8.286.034-19.567.067 14.288.034 3.665.034-15.704.068 4.61.034 3.361.033 64.164.068-61.533.067-17.072.068 27.564.033-27.708.068 3.83.1 24.501.034-30.125.067 18.112.067 19.756.033-34.758.067 1.473.1 26.05.067-3.928.1-11.653.066 3.963.033.893.033-15.603.067 35.232.066-18.335.066-11.114.033 19.158.033-10.236.033-12.305.033 24.332.033-2.322.066-28.667.033 11.51.164 20.243.032-15.011.033 17.619.033-13.703.033-25.768.065 15.031.065 2.206.066 13.479.097-21.094.13 35.953.065-46.25.065 18.254.032 3.007.033 21.676.032-30.19.065 13.979.032 5.351.064-15.912.033 12.618.032 6.239.128-22.149.033 5.58.064 1.59.032 10.121.032-4.055.064-28.764.032 63.23.064-39.012.032-12.391.032 22.908.031-24.125.064 8.206.032 10.856.159-26.763.032 39.876.095-8.226.158-23.247.063 27.346.063-1.163.063-27.977.063 16.305.031-7.079.032 6.94.094 22.757.063-32.49.03 24.872.032 16.569.094-48.774.031 37.898.063-33.137.03-2.3.094 40.138.031-22.54.062-30.276.031 44.893.093-25.497.031-12.252.093 32.204.031-7.304.062-31.203.092 9.475.123 29.4.093-27.914.03 19.49.031-.936.061-22.825.062 55.124.03-47.717.03 3.992.031 24.051.03-21.174.031-7.999.03 11.705.031-18.704.061 11.988.061 31.851.03-42.224.092 11.624.03-4.194.06 1.349.03 2.191.092 31.51.03-38.981.03 44.494.06-28.892.03-3.642.03 36.186.06-25.735.091-20.355.03 48.399.06-34.558.06-7.631.03-12.578.09 52.659.03-53.434.09 8.334.03 39.459.059-21.087.03-15.018.03 54.929.059-49.73.03 4.046.03-11.679.03.383.088 15.353.03-23.763.03 31.889.088-18.96.03-1.565.03 18.392.029-24.056.03 12.133.058 23.628.03-34.077.03 39.403.029-53.205.058 14.993.03 38.956.088-49.308.03 12.855.058 38.778.058-32.248.059-13.44.029 26.59.087-16.027.03-8.976.029 15.133.058-19.143.03 31.206.057-17.852.03-15.619.057 13.31.03 22.603.086-18.394.03-14.809.028 48.054.058-17.163.029-30.52.086 17.075.03 23.388.028-25.556.029 37.111.029-62.597.028 65.903.087-40.363.028-2.274.029-14.978.086 7.19.029 3.585.028-5.608.029 31.73.085-17.886.058-22.112.142 34.64.028-20.095.057 1.636.029 25.356.028-15.504.028-12.488.029 17.933.028-28.707.085 6.356.028-6.834.057 51.126.028-43.505.028-12.26.198 52.313.028-41.386.084 11.02.028 6.76.028-31.027.084 9.611.028 1.818" fill="none" stroke="#1f77b4" stroke-linecap="square" stroke-width="1.5" id="line2d_41"/><path d="M48.953 246.197V14.599" fill="none" stroke="#000" stroke-linecap="square" stroke-width=".8" id="patch_3"/><path d="M435.707 246.197V14.599" fill="none" stroke="#000" stroke-linecap="square" stroke-width=".8" id="patch_4"/><path d="M48.953 246.197h386.754" fill="none" stroke="#000" stroke-linecap="square" stroke-width=".8" id="patch_5"/><path d="M48.953 14.6h386.754" fill="none" stroke="#000" stroke-linecap="square" stroke-width=".8" id="patch_6"/></g><path d="M242.33 199.877c56.413 0 110.522-3.66 150.412-10.175 39.89-6.514 62.303-15.351 62.303-24.564s-22.413-18.05-62.303-24.565c-39.89-6.515-94-10.175-150.412-10.175-56.413 0-110.522 3.66-150.412 10.175-39.89 6.515-62.303 15.352-62.303 24.565 0 9.213 22.413 18.05 62.303 24.564 39.89 6.515 94 10.175 150.412 10.175z" fill="none" stroke="red" stroke-width="2" id="patch_7"/></g><defs><clipPath id="p3d66b8347a"><path d="M48.953 14.599h386.754v231.598H48.953z"/></clipPath></defs></svg>