<?xml-stylesheet type="text/css" href="https://fonts.googleapis.com/css?family=Open+Sans:300italic,400italic,600italic,700italic,400,600,700,300&amp;subset=latin,cyrillic-ext,latin-ext,cyrillic" ?><svg xmlns="http://www.w3.org/2000/svg" viewBox="0 0 600 280"><path fill="#fff" d="M0 0h600v280H0z"/><path fill="#fefefe" shape-rendering="crispEdges" d="M0 280h600V0H0z"/><clipPath id="a"><path d="M0 280h600V0H0z"/></clipPath><g clip-path="url(#a)"><path fill="#fff" shape-rendering="crispEdges" d="M60 252h500L60 4.667z"/><path fill="#fff" shape-rendering="crispEdges" d="M560 252V4.667H60z"/><path fill="none" stroke="#262626" stroke-width=".5" d="M60 252h5M560 252h-5M60 197.037h5M560 197.037h-5M60 142.074h5M560 142.074h-5M60 87.111h5M560 87.111h-5M60 32.148h5M560 32.148h-5"/><text fill="#262626" x="55" y="252" font-size="10" text-anchor="end" dy="5" font-family="Open Sans">-80</text><text fill="#262626" x="55" y="197.037" font-size="10" text-anchor="end" dy="5" font-family="Open Sans">-60</text><text fill="#262626" x="55" y="142.074" font-size="10" text-anchor="end" dy="5" font-family="Open Sans">-40</text><text fill="#262626" x="55" y="87.111" font-size="10" text-anchor="end" dy="5" font-family="Open Sans">-20</text><text fill="#262626" x="55" y="32.148" font-size="10" text-anchor="end" dy="5" font-family="Open Sans">0</text><path fill="none" stroke="#262626" stroke-width=".5" stroke-dasharray="16,0" d="M60 252h500M60 4.667h500M60 252V4.667M560 252V4.667"/><text fill="#262626" x="35" y="128.333" font-size="10" transform="rotate(-90 35 128.333)" text-anchor="middle" dy="0" font-family="Open Sans">Amplitude (dB)</text><path fill="none" stroke="#0071bc" stroke-width=".5" d="M59.5 179.524l.5.048 29.349-13.414 20.823 25.407 16.151-12.76 13.197 6.972 11.158 6.767 9.665-17.259 8.526.416 7.626-18.391 6.899 22.784 6.298-6.986 5.794-11.675 5.364 5.42 4.994-1.797 4.671-11.023 4.388 36.176 4.137-10.374 3.914 5.596 3.713-10.986 3.531-10.924 3.367-4.852 3.218 14.678 3.081.188 2.954-9.276 2.839 9.345 2.732 15.898 2.632-15.941 2.54 13.116 2.454-13.088 2.374-11.975 2.298 28.69 2.227-15.021 2.161-3.051 2.098-.077 2.039-13.8 1.983 13.369 1.931-3.993 1.88 3.741 1.832 23.315 1.788-9.493 1.744-16.677 1.703 33.622 1.664-16.777 1.627 3.984 1.591-15.549 1.556-4.164 1.524 7.807 1.493-6.04 1.462 23.501 1.433-19.052 1.406 15.603 1.379-23.736 1.353 6.463 1.328-19.526 1.304 32.067 1.281-8.551 1.259-6.469 1.237-6.527 1.217 10.961 1.196 26.983 1.177-30.422 1.158.075 1.14-10.792 1.123 3.338 1.105 24.02 1.088 4.461 1.072 3.423 1.057 4.401 1.042-16.509 1.026.231 1.013-15.856.998-5.935.985-12.142.972 16.567.958 78.997.946-83.651.934 9.637.923.469.91-2.417.899-.597.888 14.162.878-12.794.867.881.856 42.29.847-46.84.837 29.518.827-14.787.818-4.264.808-5.708.8-17.962.791 4.231.783 37.451.774-25.673.766-7.897.758 17.435.75-4.102.742 12.461.735-18.869.728-129.605.72 127.331.713 12.504.706-19.187.7 3.389.692 2.199.686 14.443.68-5.115.673-12.639.667 16.095.661-19.333.655 15.23.65-2.058.643 4.378.638-10.424.632 5.427.627 2.141.621 28.057.616 19.961.611-31.287.606-7.97.6-4.847.596 2.663.591-21.535.586 7.166.581 9.898.577-9.957.572-1.012.568 11.065.563 12.474.559 4.689.555-16.352.55 26.174.547-22.61.542-2.546.538-24.675.534 11.392.53 7.331.527 2.349.522 4.224.519-21.951.516 15.07.511-7.915.508 4.181.504-3.388.501 1.349.498 11.824.494-15.897.491 3.12.487-1.198.484 10.697.481 42.414.478-8.322.475-30.124.471 9.862.469-13.188.465-4.233.463 1.973.459 22.905.457-34.841.454-.775.451-3.43.448 6.593.445 7.943.443-10.975.44 4.241.437 8.173.435-.747.432 5.574.43 31.358.427-33.304.424 60.15.422-51.327.42-16.024.417-5.657.415 30.691.412-31.806.411 23.57.407-16.436.406.171.403 1.204.401 3.662.399-5.24.397-6.225.394 15.483.392-6.557.391-9.123.388 23.84.386 41.525.384-68.339.382 36.59.38 1.555.378-34.296.376 62.527.374-29.05.372-18.45.37 5.085.368-23.931.367 17.142.365-4.925.362 25.983.361-27.377.36 17.542.357-24.042.356 10.184.354-16.893.352 5.476.35 11.46.349 20.194.347 30.158.346-61.054.344 27.093.342-18.951.341-18.531.339 24.634.337-9.353.336 9.778.334 1.073.333-3.855.331-1.403.33-15.535.328 19.04.327-19.539.325 42.728.324-33.571.323 2.618.321 2.854.319-3.647.319-7.165.316 10.506.316.309.314 3.253.312 5.803.312 1.899.31-24.428.308 16.855.308 3.993.306-17.212.304-6.161.304 6.539.302 22.112.301.368.3-3.654.298-9.093.298-5.397.296 58.675.295-56.641.293 10.131.293 3.784.291-12.86.29 37.045.289-20.031.288 1.205.286-26.892.286 2.071.284 24.302.284-9.901.282-6.572.281 19.279.28-11.963.279-9.65.278 13.741.277-17.073.275-10.298.275 13.441.274 3.356.272-7.131.272 9.305.27 15.388.27-21.193.269-2.956.267 16.012.267-6.55.265-4.244.265 28.342.264-4.376.263-23.079.261 12.848.261-10.064.26 5.039.259 4.815.258-16.773.257 6.868.256 9.433.256-23.692.254 20.052.254-21.334.252 19.349.252-7.361.251 3.474.25-1.866.249 11.318.248-14.891.248 28.861.247-22.263.245-6.8.245-14.718.244 24.059.244 12.318.242-21.161.242 12.599.241 14.222.24-17.105.239 31.439.239-47.1.237 1.089.237 19.26.236-16.421.236 16.343.234-.35.234-5.486.233 4.535.233-26.978.231 21.304.231-17.998.23 11.781.23-13.461.229 19.521.228 15.084.227-26.369.226 30.085.226-26.25.225 4.554.225 6.365.224-2.972.223 9.951.222-11.815.222 4.108.221 1.689.22-24.583.22 14.963.219 51.52.218-53.62.218 3.037.217-8.633.216 13.383.216-8.605.215 4.471.214 5.257.214-16.741.213 2.201.213 19.773.212-4.524.211 2.769.211-8.796.21-9.17.21-.696.209 19.048.208 12.526.208-11.545.207-25.406.206 10.85.206-3.385.205 45.122.205-37.414.204-11.166.204 14.787.203 13.526.203-28.955.201 9.446.202 6.68.201-15.296.2 9.917.199 2.43.2 40.495.198-36.884.198 25.708.198-15.337.197-22.519.196 8.371.196-6.052.195-5.018.195 12.306.195 10.333.193-26.076.194 34.449.192-20.523.193 16.585.191-20.775.192 54.23.19-54.999.191-5.775.189 23.894.189-16.936.189 5.512.188-11.008.188 9.785.187 15.678.187-32.382.187 9.351.185-1.324.186 4.361.185-3.03.184 29.439.184-22.81.184 15.405.183-4.914.182 4.738.182 24.381.182-44.247.181 31.204.181-7.926.18-18.428.18 27.313.179-22.813.179 2.279.179-15.233.178 3.376.177-11.176.178 27.415.176 1.316.177-22.797.176 58.587.175-42.501.175-20.763.175 26.225.174-23.475.174 14.402.173 18.981.173-31.879.173-6.01.172 8.058.171-2.505.172 21.413.171-20.292.17-2.918.17 24.732.17 20.262.169-18.28.169 10.301.169-25.555.168 15.912.168-9.522.167-25.464.167 22.21.167-1.818.166-15.787.166 6.387.165 10.732.165-10.197.165.54.164 13.436.164-.062.164-20.742.163-1.131.163 22.246.162 40.331.162-16.104.162-30.981.161 5.448.161 6.349.161-16.83.16 5.827.16 16.826.16-21.755.159-15.876.159 24.976.159 1.822.158-4.702.158 16.686.157-31.198.158 9.634.156 14.42.157-4.809.156-13.888.156 31.256.155-8.792.155-4.961.155-10.35.155 15.12.154-5.738.154-2.997.153-5.74.154.518.152 15.527.153-20.764.152.015.152-3.631.152 16.191.151 14.151.151 6.537.151-37.146.15 12.087.15 8.187.15 9.76.149-27.56.149 10.247.149 28.628.148-51.203.148 60.357.148-2.968.148-6.394.147-39.037.147 41.266.147-10.887.146-14.244.146-8.416.146 8.882.146-11.444.145 11.12.145 5.88.144-11.686.145-5.845.144 20.403.143-29.555.144 15.286.143-6.152.143-.485.143-16.372.142 47.824.142-22.738.142-14.167.141 14.097.142-27.708.141 19.824.14-15.913.141 12.681.14-2.115.14 6.935.139 2.773.14 2.516.139-15.567.138 7.557.139 68.878.138-43.387.138-25.384.138 11.896.137.164.138-4.83.137-11.487.136 9.146.137-3.273.136 12.87.136-2.511.136-21.789.135 11.805.135 1.381.135 4.376.135 26.444.134-38.116.134 19.841.134-18.032.134 5.575.133 16.475.134-28.227.132 3.934.133 26.14.133-5.006.132-3.872.132 5.768.131-12.242.132-3.76.131-25.421.131 9.167.131 40.017.13-5.043.131-27.575.13 11.185.13-10.108.129 22.763.13-15.463.129-3.892.129 42.64.128-34.207.129 31.054.128-42.749.128 25.344.128-17.33.127-7.584.128 2.352.127 2.357.127-7.587.126 1.325.127 10.376.126 3.976.126 29.84.126-52.679.125 22.163.126-7.388.125 4.907.125 16.544.124-24.224.125-1.942.124 30.796.124.807.124-18.507.124-24.801.123 23.758.123-7.874.123 53.968.123-50.781.123-8.597.122 12.721.122 19.332.122-16.921.122-5.054.121-25.516.122 12.849.121 13.557.121-2.092.121-9.356.12-1.602.12 14.433.121 39.202.12-37.537.119 19.313.12-32.265.119 3.749.119 18.12.119 20.464.119-23.711.119-.84.118 18.334.118-25.454.118 10.661.118-16.883.117-6.68.118 11.592.117-9.077.117 3.975.117 3.001.117 7.696.116 24.958.116-25.287.117-18.515.115 6.658.116-6.494.116 14.395.115 12.968.115-7.597.115-21.142.115 12.452.115 23.321.114-13.965.114-15.629.114 6.274.114-4.726.114 12.01.113 1.479.114 6.025.113-5.3.113-32.282.113 26.474.112-2.894.113-5.86.112 7.885.112 11.038.112-5.699.112-11.139.112 32.384.111-39.524.111 5.523.112-4.703.111 19.359.11-13.855.111-11.682.11 19.369.111-6.322.11-6.042.11-8.614.109 15.195.11-13.008.109 11.298.11 7.655.109-17.176.081 92.078M480.332 252.247l.075-71.231.109-9.352.108-9.818.109 27.455.108 22.026.108-45.459.108-.045.107 14.897.108 20.04.107-18.333.107 22.182.107-24.175.107-.719.107-17.894.106 10.879.107.057.106-13.919.106 40.086.106-42.519.105 46.111.106-32.385.105 11.566.106 22.081.105-31.52.105 60.424.105-65.835.104-6.98.105 23.747.104-8.438.104-15.804.105 5.727.104 22.015.103-10.565.104 1.745.103.274.104-15.098.103-.043.103-2.816.103 18.287.103-9.087.102-7.358.103 28.956.102-14.22.102 49.138.102-50.483.102-14.417.102 22.777.101-15.252.102 12.849.101-6.252.101-11.527.101 16.294.101-14.429.101 38.517.1-28.951.101 29.396.1-37.947.1 13.154.1 6.092.1-4.165.1-5.175.1 1.333.099-14.529.1-2.517.099 47.086.099-37.64.099-12.535.099 14.281.098 2.296.099-2.233.098 40.969.099-25.934.098-12.99.098 21.969.098-2.303.097-14.813.098-5.077.097-5.526.098 35.029.097-20.431.097-2.131.097-10.352.097-1.962.097-.767.096 17.751.097-1.595.096-12.734.096-9.891.096-1.121.096 4.105.096 33.991.096-40.083.095 25.79.096-1.352.095-31.239.095 12.465.095-4.703.095 11.993.095 35.146.095-23.633.094-17.115.095 56.23.094-64.8.094 1.225.094 13.773.094 10.216.094 9.024.094-.816.093-2.815.094-.782.093-3.28.093-13.466.093 4.165.093-12.199.093 34.127.093-7.277.092-25.952.093-6.51.092 21.228.093-16.322.092 19.473.092-13.253.092-12.42.091 29.791.092-17.891.092 21.155.091 9.035.092-11.372.091 9.616.091-16.299.091 8.737.091-9.739.09 6.601.091-14.976.091 11.126.09 5.543.09-4.256.091-30.082.09 52.512.09-14.283.09-13.44.089-9.195.09.096.089-16.104.09 17.54.089-12.376.089 6.866.089 41.982.089-41.055.089 16.382.089-1.686.089-25.712.088 14.39.089-2.858.088 4.279.088 6.752.088 15.33.088-29.221.088-4.922.088 52.635.088-52.088.087 28.24.088-17.855.087 17.221.087-5.215.088 23.04.087-34.725.086-15.177.087 23.532.087 18.156.087-6.912.086-12.71.087 19.107.086 29.894.086-53.002.086 2.25.086-3.185.086 7.169.086 9.438.086-14.256.085 2.139.086 39.209.085-47.056.086 39.729.085-7.546.085-33.484.085 22.717.085-13.989.085 1.166.084-8.059.085 18.847.085-26.765.084 27.716.084 18.638.084-33.911.085 6.39.084 2.337.083-6.344.084 8.829.084 14.643.084-27.161.083-18.375.084 8.548.083 15.09.083-6.03.083 6.429.083.623.083-15.198.083-.064.083 61.585.083-65.855.082 10.239.083 4.87.082 2.244.082 5.35.083-6.494.082-3.888.082 25.117.082-19.799.082 42.19.081-42.987.082 14.203.081-27.325.082 5.825.081 60.378.082-30.044.081-18.776.081 6.658.081 28.382.081-29.215.081-17.344.08 29.972.081-22.906.081 8.87.08.769.08-6.64.081 7.145.08-27.545.08 11.376.08-6.904.08 24.043.08-19.535.08 15.254.079 1.875.08 1.729.079-1.66.08-13.83.079 25.904.079-38.749.079-.253.08 17.497.079-4.615.078-.907.079-2.378.079 23.689.079-30.499.078 34.049.079 17.784.078-46.59.078 18.84.079-9.221.078 20.625.078-19.008.078 16.726.078 22.026.077-49.183.078 12.556.078 8.475.077-13.554.078 3.855.077-9.105.077 39.975.077-22.515.078-24.941.077-.374.077 20.791.076 12.944.077-20.967.077 19.467.077-26.143.076 3.098.077 5.11.076-9.77.076-6.017.077 62.02.076-57.654.076 4.823.076 16.375.076 3.494.076-23.845.075-4.827.076 35.441.076-27.839.075-14.647.076 3.229.075 62.487.075-51.235.075 54.206.076-47.826.075.078.075 14.667.074-14.272.075 7.316.075-5.91.075-5.159.074 3.096.075 32.907.074-7.228.075-27.552.074 11.545.074 1.287.074-28.484.074 20.042.074-3.969.074-16.514.074 13.794.074 32.055.073-21.569.074 1.479.073-11.433.074 14.166.073 16.167.074-31.743.073-20.633.073 64.057.073-29.065.073 24.355.073-13.073.073-29.248.073 12.152.072 21.16.073-30.002.072 16.694.073-21.226.072 1.264.073 42.021.072-32.421.072-9.083.072 2.554.072 2.754.072 22.425.072-27.5.072 6.984.072 17.192.072-7.145.071-8.776.072 19.689.071-33.39.072-3.347.071 11.659.071 17.472.072 21.533.071-43.094.071 7.351.071-5.411.071 26.463.071-27.263.07 9.689.071 7.207.071-2.705.07-2.524.071 7.788.07-13.879.071-7.319.07 1.261.07 46.456.07-45.579.07 3.573.07-4.345.07 26.89.07-10.487.07 4.14.07-25.89.07 37.603.069-39.252.07 13.211.069 13.742.07-11.032.069-13.169.069 12.01.07 6.64.069.087.069 8.974.069-7.477.069 1.835.069-1.022.069-18.267.068-2.771.069 7.882.069-7.821.068 25.778.069-2.93.068 2.922.069-20.953.068 27.187.068-23.097.068-7.21.069 19.631.068 2.742.068 24.772.068 11.358.067-58.324.068 3.856.068 28.12.068-23.186.067 23.199.068-8.336.067 8.776.068-22.533.067-15.454.067 37.89.068-21.585.067-.933.067 24.09.067-18.137.067 15.612.067-25.656.067 25.653.067-17.169.066 2.136.067 18.118.067-19.86.066-5.03.067 1.752.066-11.009.066 15.481.067-11.945.066 49.114.066-30.403.066 6.043.067 1.897.065 34.377.066-60.251.066 4.253.066 4.553.066 38.421.066-47.103.065 11.217.066-.147.065 5.861.066-12.197.065 27.608.066-16.011.065-14.327.065 24.531.065-17.603.065-5.92.066 30.066.065 33.742.065-68.877.064 19.365.065-2.801.065-4.722.065 26.339.064-24.107.065 1.622.065-6.085.064 13.085.064-2.749.065-18.335.064-1.936.064 9.485.065 10.059.064-11.929.064 12.057.064-2.252.064 37.35.064-34.621.064-9.301.063-3.488.064 6.878.064-6.622.063-3.487.064 13.45.063-30.732.064 15.316.063 7.569.064 11.854.063-2.842.063-5.053.063-.276.064-9.458.063 14.864.063 7.237.063-33.455.063 20.62.062-.755.063-16.661.063 16.709.063-4.988.062 7.258.063-7.031.062-8.412.063.759.062 21.366.063-22.058.062 1.196.062 21.832.062-6.07.063 5.575.062-24.476.062 18.954.062-10.456.062-3.722.062 9.989.062-.252.061 14.922.062 3.926.062-5.889.061 5.059.062-35.112.061 27.233.062-22.491.061 6.521.062 27.546.061-23.594.061 8.105.061-26.07.062 69.561.061-63.845.061.5.061-8.37.061 16.831.061 18.662.06-20.838.061 18.807.061-21.83.061 14.229.06 26.438.061-35.571.061-5.652.06 7.766.061 2.564.06 39.34.06-4.815.061-49.733.06 10.796.06 21.939.06-16.309.06 4.722.06-16.432.06 4.951.06-8.843.06 6.256.06-4.714.06 11.905.059 28.529.06-28.067.06-2.275.059 20.446.06-2.214.059-37.257.06 14.49.059.847.06.778.059-2.895.059 22.871.059-7.494.06-2.001.059-4.886.059 6.531.059-19.928.059 14.837.059-18.278.058 14.486.059 8.253.059-1.753.059 26.953.059-51.222.058 3.11.059 34.822.058-40.298.059 25.019.058 35.033.059-43.75.058 8.578.058 7.389.058-12.432.059 1.446.058-6.122.058 43.022.058-32.679.058-19.102.058-1.472.058 6.479.058 2.47.058 10.239.058 11.066.057 3.72.058 27.353.058-20.373.057-13.348.058-13.85.057-15.1.058 16.109.057 6.058.058-5.53.057 6.526.057 10.771.057 1.613.058-17.51.057 32.355.057-12.098.057 11.337.057-43.104.057 37.357.057-25.702.057 31.038.057-6.24.056-36.768.057 13.475.057-6.316.056 1.928.057 4.974.057 34.411.056-35.756.057 2.047.056 3.755.056-14.813.057-5.135.056 26.336.056-2.311.057-8.093.056 12.079.056-15.253.056 31.578.056-3.976.056-43.21.056 18.084.056-5.404.056 5.169.056-21.63.055 38.697.056.15.056-12.886.056 3.669.055-13.829.056 21.988.055-10.649.056-12.565.055-5.072.056-10.608.055 38.612.055 13.829.056-38.766.055 6.688.055 15.526.055-6.029.055-4.257.055 6.459.055-24.851.055 14.528.055 24.896.055-26.873.055 35.258.055-10.767.055-17.265.054-.935.055-1.517.055 3.079.054-12.868.055-3.235.054 27.582.055.375.054 19.146.055-29.582.054 58.038.054-41.725.055-32.782.054 18.381.054-.226.054-26.735.054 16.819.054-3.86.055-2.429.054-.069.053-8.601.054 4.497.054 14.205.054-16.479.054-.294.054 15.643.053 18.811.054-14.658.054-2.898.053.938.054.775.053 16.841.054-31.05.053 4.465.054 2.728.053 7.151.053-7.026.054-.079.053 4.749.053-8.656.053-1.884.053 24.749.053-34.182.053 5.938.053 22.116.053.046.053-20.183.053 2.575.053-12.732.053 14.039.053 25.436.052 57.374M532.774 252.247l.052-48.259.053-32.023.052-7.544.053 5.486.053.824.052 13.391.053-22.382.052 14.88.052 2.941.053-3.297.052-11.338.052 26.642.053-14.019.052 26.397.052-32.607.052-1.851.052 33.638.052-27.232.052-6.346.052.351.052 37.052.052-26.64.052 14.579.052-30.945.052 37.887.051 7.444.052-35.142.052 47.948.051-52.883.052-3.915.052 4.306.051 3.779.052 8.127.051-.228.051-9.095.052-1.011.051-2.641.052-6.876.051.676.051 40.15.051-13.332.051 18.548.052 3.398.051-10.887.051-35.561.051 57.839.051-46.916.051-7.369.051-2.95.05 6.655.051-3.796.051-2.872.051 10.324.051-10.496.05 20.921.051-17.413.051 3.16.05 6.626.051-.927.05 3.241.051-21.44.05 14.621.051-16.33.05 27.749.05-19.069.051-2.776.05 52.2.05-16.235.051-12.552.05 18.38.05-29.31.05-11.373.05 3.841.05-1.938.05-4.58.05 13.021.05 22.562.05 3.614.05-26.142.05-7.283.049 3.359.05.082.05 21.3.05-21.671.049 10.765.05-19.195.05 8.486.049-6.508.05 20.189.049-12.95.05 27.512.049-18.753.049 8.825.05-1.746.049-12.249.049-9.946.05 2.022.049.888.049 8.705.049 6.615.049-2.989.049 12.898.049-38.906.049 20.989.049-13.116.049 9.009.049 8.083.049.399.049 8.141.049-12.024.049-3.781.048-8.304.049 4.68.049-7.352.049 15.508.048 43.484.049-43.809.048-2.04.049-.812.048 2.757.049-3.278.048-16.182.049 10.543.048-7.409.048.849.049 27.714.048-17.753.048 12.8.048 8.386.048-15.968.049-6.826.048-1.31.048 26.912.048-33.352.048 14.725.048 28.476.048-30.93.048-9.099.048 19.283.048-19.338.047 12.141.048 8.152.048-20.03.048 8.448.047-2.607.048-9.081.048 55.176.047-9.526.048-21.841.047-9.085.048-5.169.047-11.657.048 31.598.047-24.536.048 21.907.047-6.218.047-16.254.048 18.47.047 2.954.047-19.967.047 30.374.047-17.405.048 32.203.047-32.904.047-8.568.047 48.091.047-30.243.047-10.06.047-4.912.047 13.543.047-18.806.046-1.416.047-14.173.047 25.108.047 9.601.047-12 .046 16.27.047-23.434.047 65.748.046-74.686.047 39.441.046-31.267.047 35.292.046-11.288.047-35.813.046-.85.047 65.831.046-54.02.047-4.223.046 23.254.046-5.672.046 3.247.047-23.424.046 18.094.046-1.394.046 15.902.046-6.732.046-13.718.046-6.418.046 25.564.046-18.463.046-8.062.046-8.958.046 14.768.046-5.307.046 22.515.046-21.092.046-5.021.045 3.465.046 20.928.046-23.538.046 43.724.045-21.37.046-3.097.045-12.767.046 11.412.046-12.176.045 36.698.045-27.622.046-18.76.045 39.115.046-32.186.045 27.671.045 3.787.046.65.045-35.357.045 21.924.046-1.646.045-7.08.045 7.4.045-23.262.045 26.135.045-9.265.045-2.755.045 18.87.045-15.878.045-10.497.045 15.709.045-3.463.045-9.629.045 1.479.045-18.16.045 42.77.044-31.788.045 25.791.045-34.256.045 64.978.044-10.218.045-25.993.044-7.349.045 51.728.045-67.599.044 30.315.045 14.763.044-5.181.045-35.105.044 24.681.044-22.06.045 4.073.044 14.485.044-17.209.045 13.758.044-4.843.044 2.514.044-3.787.045-6.57.044 13.81.044-21.813.044 20.691.044 10.178.044-1.054.044-12.407.044-3.439.044-10.842.044 16.777.044-3.359.044-4.659.044-11.518.043 16.4.044-15 .044 19.448.044-3.73.043 65.663.044-49.97.044-11.677.043 19.238.044-26.962.044-6.28.043 20.38.044-31.205.043 7.978.044 11.312.043-4.727.044-6.822.043 15.879.043-21.792.044.169.043 16.288.043 6.612.044 3.557.043-16.73.043 19.765.043-29.967.044 12.666.043 10.875.043 4.692.043-1.827.043 2.686.043-8.628.043-13.803.043 16 .043-14.552.043-5.497.043 41.814.043-50.627.043 15.661.042-1.252.043 69.079.043-67.199.043-3.866.043 12.024.042 48.495.043-41.394.043 49.348.042-57.334.043 2.06.042 1.142.043-21.902.043-4.086.042 6.368.043 28.08.042-5.548.043 12.336.042-35.195.042-6.304.043 31.061.042-14.388.042 11.198.043-9.284.042-14.427.042 26.721.042-10.713.042 9.232.043-13.451.042-7.699.042 67.181.042-72.907.042 25.343.042-9.343.042 2.147.042-17.993.042 11.958.042 23.094.042-22.698.042 7.419.042-24.014.042 54.751.041-14.807.042-26.144.042 2.46.042 3.718.042 9.643.041 18.859.042-33.815.042-11.025.041 36.964.042-12.315.041-5.641.042-12.335.042 10.539.041.375.042 9.453.041 10.009.041-21.029.042 12.325.041 2.126.042-23.901.041.801.041 24.469.042-31.967.041 29.313.041-13.173.041 17.958.042-22.425.041 1.727.041-4.386.041 17.547.041-19.262.041.828.041 4.947.041 36.611.042-27.319.04 14.33.041-16.642.041-19.816.041 33.81.041-5.832.041-24.86.041 35.56.041 6.784.041-35.668.04 20.018.041 13.031.041-28.944.041-11.567.04 72.085.041-29.962.041-43.937.04 45.086.041 10.898.04-61.068.041 30.268.041 49.911.04-79.134.041 19.782.04-10.325.041 43.302.04-20.926.04-14.294.034 81.376M552.098 252.247l.034-89.365.04 19.026.041 13.961.04-22.7.04 5.546.041-11.363.04 18.135.04 4.504.04-23.195.04 16.877.04-4.83.041-2.589.04 12.873.04-17.233.04 18.961.04-.999.04-4.847.04-15.302.04 17.328.04-14.628.04 1.636.039-4.179.04 35.554.04-44.927.04 14.219.04 4.106.04-16.963.039 33.048.04-36.647.04 7.205.04 30.99.039-13.184.04-13.756.04 1.633.039-17.673.04 44.929.039-35.792.04-13.67.039 44.487.04-26.064.039 5.503.04 16.844.039-28.567.04 22.191.039 4.752.039-17.048.04 44.549.039-39.796.039 5.684.04 9.776.039-17.732.039-3.361.039.579.04-2.339.039 4.409.039 24.867.039 13.185.039-17.24.039 6.899.039-44.518.039 41.946.039-18.39.039-14.175.039 6.51.039 28.668.039-48.8.039 34.586.039-10.926.039 17.696.039-4.579.039-21.851.039 17.902.038-30.107.039 44.88.039-32.175.039 1.633.038-1.018.039-6.099.039 16.858.038-18.67.039-.516.039 3.078.038 26.431.039-17.703.038 64.569.039-70.596.038 19.581.039-15.903.038-1.55.039 10.653.038-25.545.039 25.305.038 1.331.038 26.637.039-18.618.038-13.949.038 4.668.039-6.862.038 38.92.038-33.313.038-3.891.039 11.038.038-7.065.038 7.138.038 5.597.038-14.058.038-10.815.038 17.412.038 5.952.038 18.751.038-33.119.038-5.937.038 13.777.038-21.445.038 20.755.038 12.305.038-17.22.038 1.205.038-9.93.038 22.882.038-27.339.037-7.523.038 56.174.038-38.031.038-3.546.037 38.798.038-21.394.038-.245.038 9.798.037-2.355.038-19.52.037 18.502.038-27.467.038 27.037.037-8.512.038-17.308.037.3.038 30.343.037-24.324.038-5.422.037.855.038.732.037 20.075.037 35.731.038-39.145.037-17.868.037-17.562.038 21.757.037-2.989.037 9.488.037-10.227.038 28.817.037-19.628.037 32.687.037-34.202.037-10.003.037 9.973.038 5.063.037-8.594.037-6.972.037 15.959.037-9.352.037-5.15.037-.603.037 36.546.037-19.138.037 4.707.037-19.551.037 23.13.036-19.074.037-11.103.037 25.57.037-23.139.037 3.752.037 9.482.036 12.043.037-35.314.037 19.068.036 6.905.037 46.817.037-30.551.036-23.404.037 22.188.037-22.155.036-9.869.037 24.285.037-22.587.036 4.725.037 11.671.036-10.386.037 25.321.036-37.334.037 18.406.036-18.555.036 21.964.037-7.273.036 30.479.037-18.163.036-27.379.036 4.744.037-2.132.036 6.256.036 6.951.036 20.612.037-19.38.036 8.185.036-21.028.036-4.834.036 16.066.037 20.679.036-12.503.036-22.95.036 16.118.036-12.399.036-3.85.036 21.011.036-.039.036-16.399.036 10.113.036 10.516.031-5.466"/></g><g clip-path="url(#a)"><path fill="none" stroke="red" stroke-width="2" d="M585 182l-.559 2.664-1.674 2.653-2.782 2.632-3.879 2.599-4.961 2.557-6.023 2.505-7.06 2.441-8.069 2.369-9.045 2.287-9.986 2.195-10.885 2.095-11.741 1.986-12.55 1.87-13.308 1.745-14.012 1.614-14.661 1.476-15.25 1.333-15.777 1.184-16.242 1.029-16.641.872-16.972.71-17.236.546-17.429.379-17.554.211-17.607.043-17.589-.127-17.5-.295-17.342-.463-17.112-.629-16.815-.791-16.45-.951-16.017-1.107-15.522-1.259-14.963-1.405-14.344-1.546-13.667-1.681-12.935-1.808-12.152-1.929-11.319-2.041-10.44-2.146-9.52-2.243-8.562-2.328-7.568-2.407-6.545-2.474-5.494-2.532-4.423-2.58-3.332-2.617-2.23-2.644-1.116-2.659v-2.666l1.116-2.659 2.23-2.644 3.332-2.617 4.423-2.58 5.494-2.532 6.545-2.474 7.568-2.407 8.562-2.328 9.52-2.243 10.44-2.146 11.319-2.041 12.152-1.929 12.935-1.808 13.667-1.681 14.344-1.546 14.963-1.405 15.522-1.259 16.017-1.107 16.45-.951 16.815-.791 17.112-.629 17.342-.463 17.5-.295 17.589-.127 17.607.043 17.554.211 17.429.379 17.236.546 16.972.71 16.641.872 16.242 1.029 15.777 1.184 15.25 1.333 14.661 1.476 14.012 1.614 13.308 1.745 12.55 1.87 11.741 1.986 10.885 2.095 9.986 2.195 9.045 2.287 8.069 2.369 7.06 2.441 6.023 2.505 4.961 2.557 3.879 2.599 2.782 2.632 1.674 2.653L585 182"/></g></svg>