<?xml-stylesheet type="text/css" href="https://fonts.googleapis.com/css?family=Open+Sans:300italic,400italic,600italic,700italic,400,600,700,300&amp;subset=latin,cyrillic-ext,latin-ext,cyrillic" ?><svg xmlns="http://www.w3.org/2000/svg" viewBox="0 0 600 160"><path fill="#fff" d="M0 0h600v160H0z"/><path fill="#fefefe" shape-rendering="crispEdges" d="M0 160h600V0H0z"/><clipPath id="a"><path d="M0 160h600V0H0z"/></clipPath><g clip-path="url(#a)"><path fill="#fff" shape-rendering="crispEdges" d="M60 133.333h500L60 4.444z"/><path fill="#fff" shape-rendering="crispEdges" d="M560 133.333V4.444H60z"/><path fill="none" stroke="#262626" stroke-width=".5" stroke-dasharray="16,0" d="M60 133.333h500M60 4.444h500M60 133.333V4.444M560 133.333V4.444"/><text fill="#262626" x="310" y="138.329" font-size="10" text-anchor="middle" dy="10" font-family="Open Sans">Time (milliseconds)</text><path fill="none" stroke="#0071bc" stroke-width=".5" d="M61.736 61.49l1.736-3.75 1.736 1.735 1.736-1.849 1.736-10.46 1.737-2.39 1.736-12.363 1.736 6.616 1.736-6.844 1.736-4.78 1.736-8.782 1.736 7.57 1.736 4.42 1.736-9.815 1.737 4.05 1.736 9.708 1.736-11.676 1.736 1.553 1.736 7.413 1.736 2.25 1.736 17.39 1.736-3.975 1.736 1.69 1.737 10.128 1.736 10.158 1.736 13.587 1.736-1.651 1.736 1.525 1.736-1.45 1.736 3.522 1.736 14.742 1.737-4.636 1.736 16.115 1.736-9.212 1.736 7.313 1.736 12.581 1.736-14.791 1.736 6.526 1.736-10.248 1.736 1.559 1.737 11.843 1.736-13.7 1.736-11.74 1.736 9.172 1.736-6.419 1.736-16.753 1.736 9.273 1.736-13.599 1.736 1.458 1.737-21.266 1.736-1.981 1.736 2.308 1.736 2.855 1.736-9.82 1.736-8.261 1.736-12.833 1.736 14.574 1.736-11.985 1.737-5.142 1.736 2.321 1.736-6.103 1.736 6.257 1.736-8.002 1.736 9.554 1.736 2.82 1.736 6.186 1.736.455 1.737 8.766 1.736.575 1.736 11.17 1.736 7.49L185 70.01l1.736-3.545 1.736 4.665 1.736 9.382 1.736 13.628 1.737-9.304 1.736 2.112 1.736 3.224 1.736 5.444 1.736 1.926 1.736 1.95 1.736 10.023 1.736 4.303 1.736-6.377 1.737 8.862 1.736-12.61 1.736-2.62 1.736-3.464 1.736 3.435 1.736-11.438 1.736 3.724 1.736-1.899 1.736-9.544 1.737-12.54 1.736-3.808 1.736-2.952 1.736 9.664 1.736-16.905 1.736-2.608 1.736-8.127 1.736-9.29 1.736 8.707 1.737-14.198 1.736 10.075 1.736-4.705 1.736-14.14 1.736 8.83 1.736-10.751 1.736 15.733 1.736.114 1.736-10.037 1.737 16.5 1.736-8.233 1.736-3.515L261.389 42l1.736 1.528 1.736 19.087 1.736-7.746 1.736 6.128 1.736 6.26 1.737 9.577 1.736 5.964 1.736-7.79 1.736 25.321 1.736 4.99 1.736-15.954 1.736 20.376 1.736 4.434 1.736.624 1.737-10.872 1.736-1.829 1.736 20.005 1.736-9.021 1.736 5.866 1.736-5.209 1.736-1.646 1.736-12.276 1.736 2.667 1.737-.574 1.736-11.618 1.736 4.933 1.736-6.644L310 64.01l1.736 11.338 1.736-9.027 1.736-13.526 1.736-7.614 1.737-6.762 1.736 11.418 1.736-15.035 1.736-10.02 1.736 16.395 1.736-15.765 1.736-5.441 1.736 9.71 1.736 1.602 1.737-7.068 1.736 4.415 1.736 7.553 1.736-3.89 1.736 4.447 1.736.286 1.736 5.525 1.736 8.908 1.736 4.058 1.737-5 1.736 18.115 1.736-1.044 1.736 17.383 1.736-10.15 1.736 14.035 1.736 11.274 1.736-.379 1.736 5.101 1.737-11.611 1.736 16.03 1.736 3.868 1.736.274 1.736-11.528 1.736 7.095 1.736-.096 1.736-3.127 1.736 5.231 1.737-3.053 1.736-8.2 1.736 10.242 1.736-8.323 1.736-7.725 1.736-3 1.736-13.871 1.736.046 1.736-16.279 1.737.993 1.736-2.21 1.736-5.06 1.736-11.475 1.736 1.42 1.736-9.467 1.736 9.515 1.736-11.684 1.736 1.512 1.737.375 1.736-9.042 1.736.498 1.736-1.225 1.736-3.072 1.736-.952 1.736 10.848 1.736 7.043 1.736.38 1.737-3.125 1.736 3.256 1.736 6.385 1.736 18.735L435 52.552l1.736 13.478 1.736 17.414 1.736-8.28 1.736-.291 1.737 17.606 1.736-1.27 1.736 12.008 1.736 5.911 1.736-7.701 1.736 17.845 1.736-15.817 1.736 7.42 1.736 9.617 1.737-.821 1.736-12.49 1.736-6.626 1.736 10.267 1.736-18.127 1.736 15.162 1.736-20.417 1.736 5.15 1.736 1.733 1.737-9.475 1.736-9.341 1.736-12.898 1.736-7.09 1.736 10.125 1.736-13.645 1.736-7.83 1.736 1.851 1.736-15.499 1.737 9.043 1.736 2.46 1.736-2.96 1.736-15.562 1.736 1.538 1.736-8.706 1.736.541 1.736 1.71 1.736 20.45 1.737-12.705 1.736 4.15 1.736 4.692 1.736 3 1.736.585 1.736 10.68 1.736 11.072 1.736 1.957 1.736 12.699 1.737-2.54 1.736 17.933 1.736 2.269 1.736 1.122 1.736-5.127 1.736 5.753 1.736 11.873 1.736-2.941 1.736 14.93 1.737-.828 1.736-16.477 1.736 15.241 1.736-2.629 1.736-4.398 1.736 3.673 1.736-6.452 1.736 1.998 1.736.407 1.737-7.046 1.736-12.05 1.736 4.673 1.736-12.46L560 78.18"/><path fill="none" stroke="#000" stroke-width=".5" d="M60 68.889h500"/></g></svg>