<?xml version="1.0" encoding="UTF-8" standalone="no"?>
<?xml-stylesheet type="text/css" href="https://fonts.googleapis.com/css?family=Open+Sans" ?>
<svg xmlns="http://www.w3.org/2000/svg"
     xmlns:xlink="http://www.w3.org/1999/xlink"
     width="600px" height="300px" viewBox="0 0 600 300">
<title>gl2ps_renderer figure</title>
<desc>
Creator: GL2PS 1.4.0, (C) 1999-2017 C. Geuzaine
For: Octave
</desc>
<defs>
</defs>
<polygon fill="#ffffff" points="0,0 600,0 600,300 0,300"/>
<g>
<polygon fill="#fefefe" points="0,300 600,300 600,0 0,0" shape-rendering="crispEdges"/>
<clipPath id="cp00600300">
  <polygon points="0,300 600,300 600,0 0,0"/>
</clipPath>
<g clip-path="url(#cp00600300)">
<polygon fill="#ffffff" shape-rendering="crispEdges" points="78,267 543,267 78,22.5"/>
<polygon fill="#ffffff" shape-rendering="crispEdges" points="543,267 543,22.5 78,22.5"/>
<polyline fill="none" stroke="#262626" stroke-width="0.5" stroke-linecap="butt" stroke-linejoin="miter" points="78,267 82.65,267"/>
<polyline fill="none" stroke="#262626" stroke-width="0.5" stroke-linecap="butt" stroke-linejoin="miter" points="543,267 538.35,267"/>
<polyline fill="none" stroke="#262626" stroke-width="0.5" stroke-linecap="butt" stroke-linejoin="miter" points="78,212.667 82.65,212.667"/>
<polyline fill="none" stroke="#262626" stroke-width="0.5" stroke-linecap="butt" stroke-linejoin="miter" points="543,212.667 538.35,212.667"/>
<polyline fill="none" stroke="#262626" stroke-width="0.5" stroke-linecap="butt" stroke-linejoin="miter" points="78,158.333 82.65,158.333"/>
<polyline fill="none" stroke="#262626" stroke-width="0.5" stroke-linecap="butt" stroke-linejoin="miter" points="543,158.333 538.35,158.333"/>
<polyline fill="none" stroke="#262626" stroke-width="0.5" stroke-linecap="butt" stroke-linejoin="miter" points="78,104 82.65,104"/>
<polyline fill="none" stroke="#262626" stroke-width="0.5" stroke-linecap="butt" stroke-linejoin="miter" points="543,104 538.35,104"/>
<polyline fill="none" stroke="#262626" stroke-width="0.5" stroke-linecap="butt" stroke-linejoin="miter" points="78,49.6667 82.65,49.6667"/>
<polyline fill="none" stroke="#262626" stroke-width="0.5" stroke-linecap="butt" stroke-linejoin="miter" points="543,49.6667 538.35,49.6667"/>
<text fill="#262626" x="73" y="267" font-size="10" text-anchor="end" dy="5" font-family="Open Sans">-80</text>
<text fill="#262626" x="73" y="212.667" font-size="10" text-anchor="end" dy="5" font-family="Open Sans">-60</text>
<text fill="#262626" x="73" y="158.333" font-size="10" text-anchor="end" dy="5" font-family="Open Sans">-40</text>
<text fill="#262626" x="73" y="104" font-size="10" text-anchor="end" dy="5" font-family="Open Sans">-20</text>
<text fill="#262626" x="73" y="49.6667" font-size="10" text-anchor="end" dy="5" font-family="Open Sans">0</text>
<polyline fill="none" stroke="#262626" stroke-width="0.5" stroke-linecap="butt" stroke-linejoin="miter" stroke-dasharray="16,0" points="78,267 543,267"/>
<polyline fill="none" stroke="#262626" stroke-width="0.5" stroke-linecap="butt" stroke-linejoin="miter" stroke-dasharray="16,0" points="78,22.5 543,22.5"/>
<polyline fill="none" stroke="#262626" stroke-width="0.5" stroke-linecap="butt" stroke-linejoin="miter" stroke-dasharray="16,0" points="78,267 78,22.5"/>
<polyline fill="none" stroke="#262626" stroke-width="0.5" stroke-linecap="butt" stroke-linejoin="miter" stroke-dasharray="16,0" points="543,267 543,22.5"/>
<text fill="#262626" x="53" y="144.75" font-size="10" transform="rotate(-90, 53, 144.75)" text-anchor="middle" dy="0" font-family="Open Sans">Amplitude (dB)</text>
<polyline fill="none" stroke="#0071bc" stroke-width="0.5" stroke-linecap="butt" stroke-linejoin="miter" points="77.535,195.354 78,195.402 105.294,182.141 124.66,207.257 139.681,194.643 151.954,201.536 162.331,208.225 171.319,191.164 179.248,191.575 186.34,173.395 192.756,195.918 198.613,189.012 204.002,177.471 208.99,182.828 213.634,181.052 217.979,170.155 222.06,205.917 225.908,195.661 229.547,201.194 233,190.333 236.284,179.534 239.416,174.738 242.408,189.248 245.273,189.434 248.021,180.265 250.661,189.502 253.202,205.218 255.65,189.46 258.012,202.425 260.294,189.488 262.501,177.649 264.639,206.01 266.71,191.162 268.72,188.146 270.671,188.069 272.567,174.428 274.412,187.643 276.207,183.696 277.955,187.395 279.66,210.442 281.322,201.058 282.944,184.572 284.528,217.809 286.076,201.224 287.588,205.163 289.068,189.792 290.516,185.675 291.933,193.393 293.321,187.422 294.681,210.654 296.014,191.82 297.321,207.245 298.603,183.78 299.861,190.169 301.097,170.867 302.31,202.566 303.501,194.113 304.672,187.718 305.822,181.267 306.954,192.102 308.066,218.776 309.161,188.703 310.238,188.776 311.298,178.108 312.342,181.408 313.37,205.153 314.382,209.563 315.379,212.946 316.362,217.297 317.331,200.977 318.285,201.205 319.227,185.532 320.155,179.664 321.071,167.661 321.975,184.039 322.866,262.13 323.746,179.438 324.615,188.964 325.473,189.428 326.319,187.039 327.156,186.448 327.982,200.448 328.797,187.801 329.604,188.672 330.4,230.477 331.188,184.174 331.966,213.354 332.735,198.736 333.496,194.52 334.248,188.878 334.992,171.122 335.727,175.305 336.455,212.326 337.175,186.948 337.888,179.141 338.592,196.377 339.29,192.322 339.98,204.64 340.664,185.987 341.34,57.8669 342.01,183.739 342.673,196.1 343.33,177.133 343.981,180.483 344.625,182.656 345.263,196.934 345.895,191.878 346.521,179.384 347.141,195.294 347.756,176.183 348.365,191.238 348.969,189.203 349.568,193.532 350.161,183.227 350.749,188.591 351.331,190.708 351.909,218.444 352.482,238.176 353.05,207.248 353.613,199.368 354.172,194.578 354.726,197.21 355.276,175.922 355.821,183.005 356.361,192.79 356.898,182.947 357.43,181.947 357.958,192.885 358.482,205.216 359.002,209.851 359.517,193.686 360.029,219.56 360.537,197.21 361.042,194.693 361.542,170.301 362.039,181.562 362.532,188.81 363.022,191.131 363.508,195.307 363.99,173.607 364.469,188.504 364.945,180.68 365.417,184.813 365.887,181.464 366.352,182.797 366.815,194.487 367.275,178.771 367.731,181.855 368.184,180.671 368.635,191.246 369.082,233.174 369.526,224.947 369.968,195.168 370.406,204.918 370.842,191.881 371.275,187.696 371.705,189.646 372.132,212.289 372.557,177.847 372.979,177.081 373.398,173.69 373.815,180.208 374.229,188.06 374.641,177.21 375.05,181.403 375.457,189.483 375.861,188.743 376.263,194.254 376.663,225.253 377.06,192.33 377.455,251.791 377.847,201.052 378.238,185.212 378.626,179.619 379.011,209.959 379.395,178.517 379.776,201.818 380.155,185.569 380.533,185.739 380.908,186.929 381.281,190.549 381.651,185.369 382.02,179.215 382.387,194.521 382.752,188.039 383.115,179.02 383.476,202.588 383.835,243.637 384.192,176.081 384.547,212.252 384.901,213.789 385.252,179.886 385.602,241.696 385.95,212.979 386.296,194.741 386.64,199.767 386.983,176.11 387.323,193.056 387.663,188.188 388,213.873 388.336,186.809 388.67,204.151 389.002,180.384 389.333,190.451 389.662,173.752 389.99,179.165 390.316,190.494 390.64,210.456 390.963,240.268 391.284,179.915 391.604,206.697 391.922,187.963 392.239,169.644 392.555,193.996 392.868,184.75 393.181,194.416 393.492,195.476 393.801,191.666 394.109,190.279 394.416,174.922 394.721,193.744 395.025,174.429 395.328,216.667 395.629,183.481 395.929,186.069 396.227,188.89 396.524,185.285 396.82,178.202 397.115,188.588 397.408,188.893 397.7,192.109 397.991,197.846 398.281,199.723 398.569,175.575 398.856,192.237 399.142,196.184 399.426,179.169 399.71,173.078 399.992,179.543 400.273,201.401 400.553,201.765 400.832,198.153 401.109,189.164 401.386,183.829 401.661,241.832 401.935,185.84 402.208,195.854 402.48,199.595 402.751,186.882 403.021,223.503 403.29,203.702 403.557,204.893 403.824,178.308 404.09,180.356 404.354,204.379 404.618,194.592 404.88,188.096 405.141,207.153 405.402,195.327 405.661,185.788 405.92,199.372 406.177,182.494 406.434,172.314 406.689,185.602 406.943,188.918 407.197,181.87 407.45,191.068 407.701,206.28 407.952,185.33 408.202,182.408 408.451,198.236 408.699,191.761 408.946,187.565 409.192,215.583 409.437,211.257 409.681,188.443 409.925,201.143 410.167,191.194 410.409,196.176 410.65,200.936 410.89,184.355 411.129,191.144 411.367,200.469 411.605,177.049 411.841,196.871 412.077,175.781 412.312,194.908 412.546,187.632 412.78,191.066 413.012,189.221 413.244,200.409 413.475,185.689 413.705,214.22 413.934,192.212 414.163,185.49 414.391,170.941 414.618,194.723 414.844,206.901 415.069,185.982 415.294,198.436 415.518,212.496 415.741,195.587 415.964,226.665 416.186,180.105 416.407,181.181 416.627,200.22 416.847,183.988 417.066,200.144 417.284,199.798 417.501,194.375 417.718,198.858 417.934,172.188 418.15,193.249 418.364,175.457 418.579,187.103 418.792,173.796 419.005,193.093 419.217,208.004 419.428,181.938 419.639,211.678 419.849,185.729 420.058,190.23 420.267,196.522 420.475,193.585 420.682,203.422 420.889,191.742 421.095,195.803 421.301,197.473 421.506,173.171 421.71,187.963 421.914,238.893 422.117,185.887 422.319,188.889 422.521,180.355 422.722,193.585 422.923,185.078 423.123,189.498 423.322,194.695 423.521,178.145 423.72,180.322 423.917,199.868 424.114,195.396 424.311,198.133 424.507,189.438 424.702,180.373 424.897,179.685 425.091,198.515 425.285,210.897 425.478,199.484 425.671,174.369 425.863,185.095 426.055,181.749 426.245,226.354 426.436,189.369 426.626,178.33 426.815,192.948 427.004,206.319 427.192,177.696 427.38,187.034 427.567,193.638 427.754,178.517 427.94,188.32 428.126,190.722 428.311,230.753 428.496,194.292 428.68,219.705 428.864,204.544 429.047,182.282 429.229,190.558 429.412,184.576 429.593,179.615 429.775,191.78 429.955,201.995 430.135,176.217 430.315,210.272 430.495,189.984 430.673,206.378 430.852,185.842 431.029,239.45 431.207,185.081 431.384,179.372 431.56,202.993 431.736,186.251 431.912,191.7 432.087,180.817 432.261,190.491 432.436,205.989 432.609,173.978 432.783,183.222 432.955,181.913 433.128,186.224 433.3,183.229 433.471,212.331 433.642,189.782 433.813,205.01 433.983,200.153 434.153,204.836 434.322,228.938 434.491,185.198 434.66,216.045 434.828,208.21 434.995,189.992 435.163,216.993 435.329,194.441 435.496,196.694 435.662,181.635 435.828,184.973 435.993,173.924 436.158,201.026 436.322,202.327 436.486,179.79 436.649,237.706 436.813,195.693 436.975,175.167 437.138,201.092 437.3,177.886 437.461,192.123 437.623,210.886 437.784,179.372 437.944,173.431 438.104,181.397 438.264,178.921 438.423,200.089 438.582,180.029 438.741,177.144 438.899,201.593 439.057,221.623 439.214,203.552 439.371,213.736 439.528,188.473 439.684,204.203 439.84,194.79 439.996,169.617 440.151,191.573 440.306,189.776 440.461,174.169 440.615,180.483 440.769,191.093 440.922,181.012 441.076,181.547 441.228,194.828 441.381,194.767 441.533,174.262 441.685,173.144 441.836,195.136 441.987,235.005 442.138,219.085 442.288,188.459 442.439,193.845 442.588,200.122 442.738,183.484 442.887,189.244 443.036,205.878 443.184,184.371 443.332,168.677 443.48,193.367 443.627,195.168 443.775,190.521 443.921,207.015 444.068,176.174 444.214,185.699 444.36,199.953 444.505,195.199 444.651,181.47 444.796,212.368 444.94,203.677 445.084,198.773 445.229,188.542 445.372,203.488 445.516,197.816 445.659,194.853 445.801,189.179 445.944,189.69 446.086,205.04 446.228,184.513 446.369,184.528 446.511,180.939 446.652,196.945 446.792,210.933 446.933,217.396 447.073,180.675 447.213,192.624 447.352,200.717 447.491,210.366 447.63,183.121 447.769,193.251 447.907,221.55 448.045,170.934 448.183,230.6 448.321,227.666 448.458,221.345 448.595,182.755 448.732,223.548 448.868,212.786 449.004,198.706 449.14,190.386 449.276,199.166 449.411,187.853 449.546,198.846 449.681,204.658 449.815,193.107 449.949,187.328 450.083,207.497 450.217,178.281 450.351,193.392 450.484,187.31 450.617,186.831 450.749,170.647 450.882,217.923 451.014,195.445 451.146,181.44 451.277,195.376 451.409,167.986 451.54,187.583 451.671,171.852 451.801,184.388 451.931,182.297 452.061,189.152 452.191,191.894 452.321,194.381 452.45,178.992 452.579,186.463 452.708,254.552 452.837,211.661 452.965,186.568 453.093,198.328 453.221,198.489 453.349,193.715 453.476,182.36 453.603,191.401 453.73,188.166 453.857,200.888 453.983,198.405 454.109,176.867 454.235,188.536 454.361,189.902 454.486,194.227 454.612,220.368 454.737,182.689 454.861,202.303 454.986,184.478 455.11,189.988 455.234,206.274 455.358,178.371 455.482,182.26 455.605,208.1 455.728,203.152 455.851,199.325 455.974,205.026 456.097,192.924 456.219,189.207 456.341,164.078 456.463,173.14 456.584,212.698 456.706,207.713 456.827,180.454 456.948,191.511 457.069,181.518 457.189,204.021 457.31,188.735 457.43,184.887 457.55,227.039 457.669,193.224 457.789,223.922 457.908,181.663 458.027,206.717 458.146,189.585 458.264,182.088 458.383,184.413 458.501,186.743 458.619,179.243 458.737,180.553 458.854,190.81 458.972,194.74 459.089,224.239 459.206,172.163 459.323,194.073 459.439,186.769 459.556,191.619 459.672,207.974 459.788,184.028 459.903,182.108 460.019,212.551 460.134,213.349 460.25,195.054 460.365,170.537 460.479,194.022 460.594,186.239 460.708,239.588 460.822,189.389 460.936,180.891 461.05,193.466 461.164,212.577 461.277,195.85 461.391,190.853 461.504,165.63 461.616,178.332 461.729,191.734 461.842,189.665 461.954,180.416 462.066,178.832 462.178,193.101 462.29,231.854 462.401,194.747 462.512,213.838 462.624,181.943 462.735,185.649 462.845,203.561 462.956,223.79 463.067,200.351 463.177,199.521 463.287,217.644 463.397,192.482 463.507,203.022 463.616,186.332 463.725,179.728 463.835,191.187 463.944,182.215 464.052,186.144 464.161,189.11 464.27,196.718 464.378,221.391 464.486,196.393 464.594,178.09 464.702,184.672 464.809,178.253 464.917,192.483 465.024,205.302 465.131,197.792 465.238,176.893 465.345,189.202 465.452,212.255 465.558,198.451 465.664,183.001 465.77,189.203 465.876,184.531 465.982,196.403 466.088,197.865 466.193,203.821 466.298,198.582 466.403,166.67 466.508,192.84 466.613,189.98 466.718,184.187 466.822,191.981 466.926,202.893 467.031,197.259 467.134,186.248 467.238,218.261 467.342,179.19 467.445,184.649 467.549,180 467.652,199.138 467.755,185.442 467.858,173.893 467.96,193.04 468.063,186.79 468.165,180.818 468.268,172.302 468.37,187.323 468.472,174.464 468.573,185.633 468.675,193.201 468.776,176.221 468.852,267.245"/>
<polyline fill="none" stroke="#0071bc" stroke-width="0.5" stroke-linecap="butt" stroke-linejoin="miter" points="468.909,267.245 468.979,196.829 469.08,187.584 469.181,177.879 469.281,205.02 469.382,226.793 469.482,181.855 469.583,181.81 469.683,196.537 469.783,216.347 469.882,198.224 469.982,220.151 470.082,196.254 470.181,195.543 470.28,177.854 470.379,188.608 470.478,188.665 470.577,174.905 470.676,214.532 470.774,172.5 470.872,218.083 470.971,186.069 471.069,197.502 471.167,219.33 471.264,188.172 471.362,247.903 471.459,182.822 471.557,175.922 471.654,199.397 471.751,191.056 471.848,175.433 471.945,181.095 472.041,202.858 472.138,192.413 472.234,194.138 472.331,194.409 472.427,179.484 472.523,179.442 472.618,176.658 472.714,194.736 472.81,185.753 472.905,178.479 473,207.103 473.096,193.046 473.191,241.621 473.285,191.717 473.38,177.464 473.475,199.981 473.569,184.903 473.664,197.606 473.758,191.425 473.852,180.029 473.946,196.137 474.04,181.873 474.133,219.949 474.227,191.33 474.32,220.389 474.414,182.877 474.507,195.88 474.6,201.902 474.693,197.785 474.786,192.67 474.878,193.987 474.971,179.625 475.063,177.137 475.155,223.683 475.248,186.474 475.34,174.083 475.431,188.201 475.523,190.47 475.615,188.262 475.706,228.762 475.798,203.125 475.889,190.284 475.98,212.001 476.071,209.725 476.162,195.081 476.253,190.063 476.344,184.6 476.434,219.227 476.525,199.03 476.615,196.924 476.705,186.691 476.795,184.751 476.885,183.993 476.975,201.54 477.065,199.964 477.154,187.376 477.244,177.598 477.333,176.49 477.422,180.548 477.511,214.149 477.6,174.525 477.689,200.02 477.778,198.684 477.866,167.803 477.955,180.125 478.043,175.476 478.132,187.331 478.22,222.075 478.308,198.712 478.396,181.793 478.484,237.379 478.571,173.322 478.659,174.532 478.746,188.148 478.834,198.247 478.921,207.168 479.008,206.36 479.095,203.578 479.182,202.805 479.269,199.563 479.356,186.25 479.442,190.368 479.529,178.309 479.615,212.044 479.701,204.851 479.787,179.196 479.873,172.761 479.959,193.745 480.045,177.611 480.131,196.861 480.216,183.759 480.302,171.482 480.387,200.932 480.473,183.245 480.558,204.158 480.643,213.09 480.728,201.848 480.813,211.354 480.897,195.241 480.982,203.878 481.066,194.251 481.151,200.776 481.235,185.972 481.319,196.971 481.403,202.45 481.487,198.242 481.571,168.505 481.655,220.416 481.739,206.297 481.822,193.01 481.906,183.921 481.989,184.016 482.072,168.096 482.156,185.436 482.239,173.201 482.322,179.989 482.404,221.489 482.487,180.904 482.57,197.099 482.652,195.433 482.735,170.015 482.817,184.24 482.899,181.414 482.982,185.644 483.064,192.32 483.146,207.474 483.227,178.588 483.309,173.722 483.391,225.754 483.472,174.262 483.554,202.179 483.635,184.529 483.716,201.553 483.798,196.397 483.879,219.173 483.96,184.846 484.04,169.843 484.121,193.106 484.202,211.053 484.282,204.221 484.363,191.656 484.443,210.544 484.523,240.095 484.604,187.701 484.684,189.926 484.764,186.777 484.844,193.864 484.923,203.193 485.003,189.101 485.083,191.215 485.162,229.975 485.242,183.458 485.321,222.732 485.4,215.273 485.479,182.173 485.559,204.629 485.637,190.8 485.716,191.953 485.795,183.986 485.874,202.617 485.952,176.159 486.031,203.558 486.109,221.982 486.188,188.459 486.266,194.776 486.344,197.086 486.422,190.815 486.5,199.543 486.578,214.018 486.656,187.169 486.733,169.003 486.811,177.454 486.888,192.37 486.966,186.41 487.043,192.766 487.12,193.381 487.198,178.358 487.275,178.294 487.352,239.174 487.429,174.072 487.505,184.194 487.582,189.009 487.659,191.227 487.735,196.516 487.812,190.096 487.888,186.253 487.964,211.082 488.04,191.51 488.117,233.216 488.193,190.722 488.269,204.763 488.344,177.751 488.42,183.509 488.496,243.195 488.571,213.495 488.647,194.934 488.722,201.516 488.798,229.573 488.873,200.693 488.948,183.547 489.023,213.176 489.098,190.533 489.173,199.301 489.248,200.061 489.323,193.497 489.397,200.56 489.472,173.331 489.546,184.576 489.621,177.751 489.695,201.519 489.77,182.208 489.844,197.287 489.918,199.141 489.992,200.85 490.066,199.209 490.14,185.537 490.213,211.144 490.287,172.839 490.361,172.589 490.434,189.886 490.508,185.324 490.581,184.427 490.654,182.076 490.727,205.494 490.801,175.344 490.874,209.003 490.947,226.584 491.02,180.527 491.092,199.151 491.165,190.036 491.238,210.425 491.31,191.635 491.383,208.169 491.455,229.943 491.528,181.322 491.6,193.735 491.672,202.113 491.744,188.714 491.816,192.525 491.888,183.524 491.96,223.042 492.032,200.785 492.104,176.129 492.175,175.76 492.247,196.313 492.318,209.108 492.39,188.381 492.461,207.625 492.532,181.782 492.604,184.844 492.675,189.896 492.746,180.238 492.817,174.289 492.888,235.599 492.958,178.605 493.029,183.373 493.1,199.561 493.17,203.015 493.241,179.443 493.311,174.671 493.382,209.706 493.452,182.186 493.522,167.706 493.592,170.899 493.663,232.67 493.732,182.021 493.802,235.607 493.872,188.328 493.942,188.406 494.012,202.905 494.081,188.796 494.151,196.028 494.221,190.186 494.29,185.086 494.359,188.147 494.429,220.676 494.498,213.532 494.567,186.295 494.636,197.708 494.705,198.98 494.774,170.823 494.843,190.635 494.912,186.712 494.98,170.386 495.049,184.023 495.118,215.71 495.186,194.389 495.255,195.85 495.323,184.548 495.391,198.552 495.46,214.534 495.528,183.154 495.596,162.758 495.664,226.081 495.732,197.349 495.8,221.425 495.868,208.502 495.935,179.589 496.003,191.602 496.071,212.519 496.138,182.861 496.206,199.364 496.273,178.381 496.34,179.63 496.408,221.17 496.475,189.121 496.542,180.142 496.609,182.666 496.676,185.388 496.743,207.557 496.81,180.372 496.877,187.275 496.943,204.271 497.01,197.208 497.077,188.532 497.143,207.996 497.21,174.988 497.276,171.68 497.343,183.205 497.409,200.477 497.475,221.763 497.541,179.163 497.607,186.429 497.673,181.081 497.739,207.24 497.805,180.289 497.871,189.868 497.937,196.992 498.003,194.318 498.068,191.823 498.134,199.522 498.199,185.802 498.265,178.567 498.33,179.813 498.395,225.737 498.461,180.68 498.526,184.212 498.591,179.917 498.656,206.499 498.721,196.133 498.786,200.225 498.851,174.631 498.916,211.804 498.981,173.001 499.045,186.061 499.11,199.646 499.174,188.74 499.239,175.722 499.303,187.594 499.368,194.158 499.432,194.244 499.496,203.116 499.561,195.724 499.625,197.538 499.689,196.528 499.753,178.47 499.817,175.731 499.881,183.523 499.944,175.791 500.008,201.274 500.072,198.377 500.136,201.266 500.199,180.552 500.263,207.428 500.326,184.596 500.39,177.469 500.453,196.875 500.516,199.585 500.58,224.074 500.643,235.301 500.706,177.645 500.769,181.458 500.832,209.255 500.895,186.335 500.958,209.268 501.021,201.027 501.083,209.703 501.146,187.428 501.209,172.152 501.271,209.607 501.334,188.27 501.396,187.347 501.459,211.161 501.521,193.232 501.583,208.665 501.646,183.303 501.708,208.662 501.77,191.689 501.832,193.801 501.894,211.712 501.956,192.079 502.018,187.107 502.08,188.839 502.141,177.956 502.203,193.26 502.265,181.452 502.327,230.003 502.388,199.948 502.45,205.922 502.511,207.797 502.572,241.78 502.634,182.219 502.695,186.423 502.756,190.924 502.817,228.906 502.879,182.342 502.94,193.431 503.001,193.286 503.061,199.079 503.122,187.022 503.183,214.314 503.244,198.486 503.305,184.323 503.365,208.573 503.426,191.171 503.487,185.319 503.547,215.041 503.608,248.397 503.668,180.309 503.728,199.451 503.789,196.683 503.849,192.015 503.909,218.053 503.969,194.222 504.029,195.825 504.089,189.809 504.149,202.745 504.209,200.027 504.269,181.903 504.329,179.989 504.389,189.365 504.448,199.308 504.508,187.517 504.568,199.435 504.627,197.209 504.687,234.131 504.746,199.907 504.805,190.712 504.865,187.264 504.924,194.064 504.983,187.518 505.042,184.07 505.102,197.366 505.161,166.986 505.22,182.127 505.279,189.609 505.338,201.327 505.396,198.517 505.455,193.523 505.514,193.249 505.573,183.9 505.631,198.594 505.69,205.748 505.749,172.676 505.807,193.06 505.866,192.314 505.924,175.844 505.982,192.361 506.041,187.43 506.099,194.605 506.157,187.654 506.215,179.339 506.273,180.089 506.331,201.211 506.389,179.406 506.447,180.587 506.505,202.169 506.563,196.168 506.621,201.68 506.679,177.484 506.736,196.221 506.794,185.885 506.852,182.205 506.909,192.08 506.967,191.831 507.024,206.582 507.082,210.463 507.139,204.642 507.196,209.643 507.254,174.933 507.311,201.854 507.368,179.621 507.425,186.067 507.482,213.297 507.539,189.973 507.596,197.985 507.653,172.214 507.71,240.979 507.767,177.865 507.824,178.359 507.88,170.085 507.937,186.723 507.994,205.171 508.05,184.572 508.107,203.164 508.163,181.584 508.22,195.649 508.276,221.785 508.332,186.622 508.389,181.034 508.445,188.712 508.501,191.246 508.557,230.135 508.613,225.375 508.67,176.212 508.726,186.884 508.782,208.572 508.837,192.45 508.893,197.118 508.949,180.874 509.005,185.769 509.061,177.027 509.116,183.211 509.172,178.551 509.228,190.32 509.283,218.522 509.339,190.777 509.394,188.528 509.45,208.739 509.505,206.551 509.56,169.72 509.616,184.045 509.671,184.881 509.726,185.651 509.781,182.789 509.836,205.398 509.892,197.99 509.946,196.011 510.001,191.182 510.056,197.638 510.111,177.938 510.166,192.605 510.221,174.537 510.276,188.857 510.33,197.016 510.385,195.282 510.44,221.926 510.494,171.291 510.549,174.365 510.603,208.789 510.658,168.953 510.712,193.685 510.766,228.317 510.821,185.067 510.875,193.547 510.929,200.851 510.983,188.562 511.038,189.992 511.092,183.94 511.146,226.468 511.2,194.164 511.254,175.281 511.308,173.825 511.361,180.23 511.415,182.672 511.469,192.794 511.523,203.733 511.577,207.411 511.63,234.451 511.684,214.31 511.737,201.116 511.791,187.424 511.844,172.497 511.898,188.422 511.951,194.41 512.005,188.944 512.058,195.395 512.111,206.042 512.164,207.637 512.218,190.327 512.271,222.312 512.324,210.353 512.377,221.56 512.43,178.949 512.483,215.878 512.536,190.471 512.589,221.154 512.642,214.985 512.694,178.638 512.747,191.959 512.8,185.715 512.853,187.62 512.905,192.538 512.958,226.554 513.01,191.208 513.063,193.232 513.116,196.944 513.168,182.301 513.22,177.224 513.273,203.259 513.325,200.974 513.377,192.973 513.43,204.915 513.482,189.836 513.534,221.053 513.586,217.122 513.638,174.407 513.69,192.283 513.742,186.941 513.794,192.051 513.846,170.67 513.898,208.923 513.95,209.071 514.002,196.333 514.053,199.959 514.105,186.29 514.157,208.025 514.208,197.499 514.26,185.078 514.312,180.064 514.363,169.577 514.415,207.747 514.466,221.418 514.517,183.095 514.569,189.706 514.62,205.055 514.671,199.095 514.723,194.886 514.774,201.272 514.825,176.706 514.876,191.067 514.927,215.677 514.978,189.113 515.029,223.966 515.08,213.323 515.131,196.255 515.182,195.332 515.233,193.832 515.284,196.876 515.335,184.155 515.385,180.957 515.436,208.223 515.487,208.594 515.537,227.52 515.588,198.277 515.638,255.65 515.689,214.404 515.74,181.997 515.79,200.167 515.84,199.944 515.891,173.515 515.941,190.142 515.991,186.326 516.042,183.925 516.092,183.857 516.142,175.354 516.192,179.799 516.242,193.842 516.292,177.551 516.342,177.26 516.392,192.725 516.442,211.32 516.492,196.83 516.542,193.965 516.592,194.893 516.642,195.658 516.691,212.307 516.741,181.612 516.791,186.027 516.841,188.724 516.89,195.792 516.94,188.847 516.989,188.768 517.039,193.463 517.088,184.906 517.138,183.044 517.187,207.509 517.237,173.719 517.286,179.589 517.335,201.451 517.385,201.497 517.434,181.545 517.483,184.09 517.532,171.504 517.581,185.383 517.63,210.528 517.679,267.245"/>
<polyline fill="none" stroke="#0071bc" stroke-width="0.5" stroke-linecap="butt" stroke-linejoin="miter" points="517.68,267.245 517.728,219.538 517.777,187.882 517.826,180.425 517.875,185.847 517.924,186.662 517.973,199.9 518.022,177.774 518.07,192.484 518.119,195.391 518.168,192.131 518.216,180.923 518.265,207.26 518.314,193.402 518.362,219.496 518.411,187.263 518.459,185.433 518.508,218.686 518.556,191.766 518.604,185.493 518.653,185.84 518.701,222.467 518.749,196.133 518.798,210.544 518.846,179.954 518.894,217.407 518.942,224.765 518.99,190.026 519.038,237.425 519.086,185.148 519.134,181.278 519.182,185.534 519.23,189.27 519.278,197.304 519.326,197.078 519.374,188.087 519.422,187.088 519.469,184.477 519.517,177.68 519.565,178.348 519.612,218.039 519.66,204.859 519.708,223.195 519.755,226.554 519.803,215.792 519.85,180.638 519.898,237.814 519.945,191.435 519.992,184.151 520.04,181.234 520.087,187.813 520.134,184.061 520.182,181.222 520.229,191.428 520.276,181.052 520.323,201.734 520.37,184.519 520.417,187.644 520.465,194.193 520.512,193.278 520.559,196.481 520.605,175.287 520.652,189.74 520.699,173.597 520.746,201.028 520.793,182.178 520.84,179.434 520.887,231.036 520.933,214.987 520.98,202.579 521.027,220.748 521.073,191.773 521.12,180.531 521.167,184.328 521.213,182.412 521.26,177.885 521.306,190.757 521.352,213.06 521.399,216.632 521.445,190.79 521.492,183.59 521.538,186.911 521.584,186.992 521.63,208.048 521.677,186.625 521.723,197.267 521.769,178.292 521.815,186.681 521.861,180.247 521.907,200.205 521.953,187.403 521.999,214.6 522.045,196.062 522.091,204.786 522.137,203.06 522.183,190.951 522.229,181.12 522.275,183.118 522.32,183.996 522.366,192.602 522.412,199.14 522.458,196.186 522.503,208.935 522.549,170.475 522.594,191.224 522.64,178.258 522.685,187.164 522.731,195.154 522.776,195.549 522.822,203.597 522.867,191.711 522.913,187.973 522.958,179.764 523.003,184.39 523.049,177.122 523.094,192.453 523.139,235.439 523.184,192.131 523.229,190.115 523.275,189.312 523.32,192.038 523.365,188.798 523.41,172.801 523.455,183.223 523.5,175.899 523.545,176.738 523.59,204.135 523.635,186.585 523.679,199.239 523.724,207.528 523.769,191.743 523.814,184.995 523.859,183.7 523.903,210.304 523.948,177.334 523.993,191.89 524.037,220.04 524.082,189.464 524.126,180.47 524.171,199.531 524.215,180.415 524.26,192.417 524.304,200.476 524.349,180.675 524.393,189.027 524.438,186.449 524.482,177.473 524.526,232.017 524.57,222.599 524.615,201.009 524.659,192.028 524.703,186.918 524.747,175.395 524.791,206.63 524.835,182.375 524.88,204.032 524.924,197.885 524.968,181.817 525.012,200.076 525.056,202.996 525.099,183.257 525.143,213.283 525.187,196.078 525.231,227.912 525.275,195.385 525.319,186.915 525.362,234.455 525.406,204.559 525.45,194.614 525.493,189.759 525.537,203.146 525.581,184.555 525.624,183.155 525.668,169.145 525.711,193.965 525.755,203.456 525.798,191.593 525.842,207.678 525.885,184.512 525.929,249.507 525.972,175.676 526.015,214.666 526.059,183.756 526.102,218.645 526.145,207.486 526.188,172.083 526.232,171.243 526.275,236.319 526.318,182.919 526.361,178.744 526.404,201.731 526.447,196.124 526.49,199.334 526.533,176.178 526.576,194.065 526.619,192.688 526.662,208.407 526.705,201.752 526.748,188.191 526.791,181.847 526.833,207.118 526.876,188.867 526.919,180.897 526.962,172.042 527.004,186.641 527.047,181.394 527.09,203.652 527.132,182.801 527.175,177.838 527.217,181.263 527.26,201.951 527.302,178.682 527.345,221.905 527.387,200.781 527.43,197.718 527.472,185.098 527.515,196.38 527.557,184.343 527.599,220.621 527.642,193.314 527.684,174.77 527.726,213.437 527.768,181.62 527.81,208.974 527.853,212.718 527.895,213.36 527.937,178.408 527.979,200.08 528.021,198.453 528.063,191.454 528.105,198.77 528.147,175.774 528.189,201.61 528.231,192.451 528.273,189.728 528.315,208.381 528.357,192.686 528.398,182.309 528.44,197.837 528.482,194.414 528.524,184.895 528.565,186.357 528.607,168.405 528.649,210.686 528.69,179.262 528.732,204.757 528.774,170.894 528.815,235.128 528.857,225.026 528.898,199.331 528.94,192.066 528.981,243.202 529.023,176.377 529.064,206.345 529.105,220.939 529.147,215.818 529.188,181.114 529.229,205.513 529.271,183.705 529.312,187.732 529.353,202.051 529.394,185.039 529.436,198.639 529.477,193.852 529.518,196.337 529.559,192.594 529.6,186.099 529.641,199.75 529.682,178.187 529.723,198.641 529.764,208.703 529.805,207.66 529.846,195.396 529.887,191.996 529.928,181.278 529.969,197.863 530.01,194.543 530.05,189.937 530.091,178.551 530.132,194.763 530.173,179.935 530.213,199.16 530.254,195.473 530.295,260.384 530.335,210.986 530.376,199.443 530.417,218.461 530.457,191.808 530.498,185.6 530.538,205.746 530.579,174.898 530.619,182.785 530.66,193.967 530.7,189.294 530.74,182.551 530.781,198.247 530.821,176.706 530.861,176.872 530.902,192.974 530.942,199.51 530.982,203.026 531.022,186.488 531.063,206.027 531.103,176.403 531.143,188.924 531.183,199.674 531.223,204.313 531.263,202.506 531.303,205.161 531.343,196.633 531.383,182.988 531.423,198.804 531.463,184.419 531.503,178.985 531.543,220.32 531.583,170.273 531.623,185.754 531.663,184.517 531.703,252.805 531.742,186.375 531.782,182.553 531.822,194.44 531.862,242.379 531.901,201.46 531.941,250.242 531.981,193.565 532.02,195.602 532.06,196.73 532.099,175.079 532.139,171.04 532.179,177.335 532.218,205.093 532.258,199.609 532.297,211.804 532.337,177.012 532.376,170.78 532.415,201.485 532.455,187.262 532.494,198.332 532.533,189.154 532.573,174.892 532.612,201.307 532.651,190.717 532.691,199.843 532.73,186.546 532.769,178.936 532.808,245.347 532.847,173.276 532.886,198.328 532.925,189.091 532.965,191.215 533.004,173.427 533.043,185.248 533.082,208.078 533.121,185.64 533.16,192.974 533.199,169.235 533.238,223.359 533.276,208.721 533.315,182.877 533.354,185.309 533.393,188.984 533.432,198.516 533.471,217.159 533.509,183.732 533.548,172.833 533.587,209.373 533.625,197.2 533.664,191.624 533.703,179.43 533.741,189.849 533.78,190.219 533.819,199.563 533.857,209.458 533.896,188.67 533.934,200.853 533.973,202.955 534.011,179.328 534.05,180.12 534.088,204.308 534.127,172.708 534.165,201.685 534.203,188.662 534.242,206.415 534.28,184.247 534.318,185.954 534.357,181.618 534.395,198.964 534.433,179.923 534.471,180.741 534.51,185.632 534.548,221.824 534.586,194.818 534.624,208.984 534.662,192.532 534.7,172.943 534.738,206.366 534.776,200.601 534.814,176.025 534.852,211.177 534.89,217.884 534.928,182.625 534.966,202.414 535.004,215.296 535.042,186.683 535.08,175.249 535.118,246.508 535.156,216.889 535.193,173.455 535.231,218.024 535.269,228.798 535.307,168.43 535.344,198.351 535.382,247.689 535.42,169.462 535.457,189.018 535.495,178.811 535.533,221.617 535.57,200.931 535.608,186.8 535.639,267.245"/>
<polyline fill="none" stroke="#0071bc" stroke-width="0.5" stroke-linecap="butt" stroke-linejoin="miter" points="535.651,267.245 535.683,178.903 535.72,197.711 535.758,211.512 535.795,189.072 535.833,194.555 535.87,183.322 535.908,201.249 535.945,205.702 535.982,182.772 536.02,199.456 536.057,194.682 536.094,192.122 536.132,204.847 536.169,187.811 536.206,206.555 536.243,205.568 536.281,200.776 536.318,185.65 536.355,202.779 536.392,188.319 536.429,189.936 536.466,185.805 536.503,220.951 536.54,176.539 536.577,190.595 536.615,194.654 536.651,177.885 536.688,210.555 536.725,174.328 536.762,181.45 536.799,212.085 536.836,199.053 536.873,185.454 536.91,187.068 536.947,169.598 536.984,214.012 537.02,178.63 537.057,165.117 537.094,209.094 537.131,183.328 537.167,188.769 537.204,205.419 537.241,177.179 537.277,199.116 537.314,203.814 537.351,186.962 537.387,231 537.424,191.66 537.46,197.279 537.497,206.943 537.533,189.414 537.57,186.092 537.606,186.664 537.643,184.352 537.679,188.71 537.716,213.292 537.752,226.327 537.788,209.284 537.825,216.104 537.861,172.096 537.897,213.561 537.934,195.382 537.97,181.369 538.006,187.805 538.042,216.144 538.079,167.904 538.115,202.093 538.151,191.292 538.187,208.786 538.223,204.259 538.26,182.659 538.296,200.355 538.332,170.593 538.368,214.959 538.404,183.153 538.44,184.767 538.476,183.761 538.512,177.732 538.548,194.396 538.584,175.94 538.62,175.43 538.656,178.473 538.691,204.602 538.727,187.101 538.763,250.931 538.799,181.143 538.835,200.5 538.871,184.779 538.906,183.246 538.942,193.778 538.978,168.526 539.014,193.541 539.049,194.856 539.085,221.188 539.121,202.783 539.156,188.994 539.192,193.608 539.228,186.825 539.263,225.299 539.299,192.368 539.334,188.521 539.37,199.433 539.405,192.449 539.441,199.506 539.476,205.038 539.512,191.141 539.547,180.45 539.583,197.662 539.618,203.547 539.653,222.082 539.689,189.343 539.724,183.474 539.759,197.093 539.795,175.893 539.83,196.411 539.865,208.575 539.901,191.553 539.936,192.743 539.971,182.927 540.006,205.548 540.041,178.521 540.077,171.084 540.112,226.615 540.147,189.019 540.182,185.515 540.217,223.868 540.252,202.719 540.287,202.476 540.322,212.163 540.357,209.835 540.392,190.538 540.427,208.828 540.462,181.676 540.497,208.403 540.532,199.989 540.567,182.879 540.602,183.175 540.637,213.171 540.671,189.125 540.706,183.766 540.741,184.611 540.776,185.334 540.811,205.18 540.845,240.501 540.88,201.805 540.915,184.141 540.95,166.78 540.984,188.289 541.019,185.334 541.054,194.712 541.088,184.603 541.123,213.09 541.158,193.686 541.192,225.999 541.227,192.189 541.261,182.3 541.296,192.16 541.33,197.164 541.365,188.669 541.399,181.777 541.434,197.553 541.468,188.307 541.503,183.217 541.537,182.621 541.571,218.748 541.606,199.829 541.64,204.482 541.674,185.155 541.709,208.021 541.743,189.165 541.777,178.189 541.812,203.466 541.846,180.593 541.88,184.302 541.914,193.674 541.948,205.58 541.983,170.67 542.017,189.52 542.051,196.346 542.085,242.627 542.119,212.425 542.153,189.289 542.187,211.223 542.221,189.322 542.255,179.567 542.289,203.573 542.323,181.245 542.357,185.915 542.391,197.453 542.425,187.186 542.459,212.217 542.493,175.31 542.527,193.506 542.561,175.163 542.595,196.876 542.629,189.686 542.663,219.816 542.696,201.861 542.73,174.796 542.764,179.485 542.798,177.378 542.832,183.562 542.865,190.433 542.899,210.809 542.933,191.651 542.966,199.743 543,178.956 543.034,174.177 543.067,190.059 543.101,210.501 543.135,198.141 543.168,175.454 543.202,191.387 543.235,179.13 543.269,175.324 543.302,196.094 543.336,196.056 543.369,179.845 543.403,189.842 543.436,200.237 543.465,194.834"/>
</g>
<clipPath id="cp00600300">
  <polygon points="0,300 600,300 600,0 0,0"/>
</clipPath>
<g clip-path="url(#cp00600300)">
<polyline fill="none" stroke="#ff0000" stroke-width="2" stroke-linecap="butt" stroke-linejoin="miter" points="585,195 584.441,197.854 582.767,200.697 579.985,203.516 576.106,206.302 571.145,209.042 565.122,211.725 558.062,214.341 549.993,216.879 540.948,219.329 530.962,221.681 520.077,223.925 508.336,226.054 495.786,228.057 482.478,229.927 468.466,231.656 453.805,233.238 438.555,234.665 422.778,235.933 406.536,237.037 389.895,237.971 372.923,238.732 355.687,239.316 338.258,239.723 320.704,239.949 303.097,239.994 285.508,239.858 268.008,239.542 250.666,239.046 233.554,238.373 216.739,237.525 200.289,236.506 184.272,235.32 168.75,233.971 153.787,232.466 139.443,230.809 125.776,229.009 112.841,227.071 100.689,225.005 89.3703,222.817 78.9298,220.518 69.4096,218.115 60.8482,215.62 53.2799,213.042 46.7353,210.391 41.2407,207.678 36.8182,204.914 33.4857,202.11 31.2565,199.278 30.1397,196.428 30.1397,193.572 31.2565,190.722 33.4857,187.89 36.8182,185.086 41.2407,182.322 46.7353,179.609 53.2799,176.958 60.8482,174.38 69.4096,171.885 78.9298,169.482 89.3703,167.183 100.689,164.995 112.841,162.929 125.776,160.991 139.443,159.191 153.787,157.534 168.75,156.029 184.272,154.68 200.289,153.494 216.739,152.475 233.554,151.627 250.666,150.954 268.008,150.458 285.508,150.142 303.097,150.006 320.704,150.051 338.258,150.277 355.687,150.684 372.923,151.268 389.895,152.029 406.536,152.963 422.778,154.067 438.555,155.335 453.805,156.762 468.466,158.344 482.478,160.073 495.786,161.943 508.336,163.946 520.077,166.075 530.962,168.319 540.948,170.671 549.993,173.121 558.062,175.659 565.122,178.275 571.145,180.958 576.106,183.698 579.985,186.484 582.767,189.303 584.441,192.146 585,195 585,195"/>
</g>
</g>
</svg>
