<?xml version="1.0" encoding="UTF-8" standalone="no"?>
<?xml-stylesheet type="text/css" href="https://fonts.googleapis.com/css?family=Open+Sans" ?>
<svg xmlns="http://www.w3.org/2000/svg"
     xmlns:xlink="http://www.w3.org/1999/xlink"
     width="600px" height="180px" viewBox="0 0 600 180">
<title>gl2ps_renderer figure</title>
<desc>
Creator: GL2PS 1.4.0, (C) 1999-2017 C. Geuzaine
For: Octave
</desc>
<defs>
</defs>
<polygon fill="#ffffff" points="0,0 600,0 600,180 0,180"/>
<g>
<polygon fill="#fefefe" points="0,180 600,180 600,0 0,0" shape-rendering="crispEdges"/>
<clipPath id="cp00600180">
  <polygon points="0,180 600,180 600,0 0,0"/>
</clipPath>
<g clip-path="url(#cp00600180)">
<polygon fill="#ffffff" shape-rendering="crispEdges" points="78,160.2 543,160.2 78,13.5"/>
<polygon fill="#ffffff" shape-rendering="crispEdges" points="543,160.2 543,13.5 78,13.5"/>
<polyline fill="none" stroke="#262626" stroke-width="0.5" stroke-linecap="butt" stroke-linejoin="miter" stroke-dasharray="16,0" points="78,160.2 543,160.2"/>
<polyline fill="none" stroke="#262626" stroke-width="0.5" stroke-linecap="butt" stroke-linejoin="miter" stroke-dasharray="16,0" points="78,13.5 543,13.5"/>
<polyline fill="none" stroke="#262626" stroke-width="0.5" stroke-linecap="butt" stroke-linejoin="miter" stroke-dasharray="16,0" points="78,160.2 78,13.5"/>
<polyline fill="none" stroke="#262626" stroke-width="0.5" stroke-linecap="butt" stroke-linejoin="miter" stroke-dasharray="16,0" points="543,160.2 543,13.5"/>
<polyline fill="none" stroke="#0071bc" stroke-width="0.5" stroke-linecap="butt" stroke-linejoin="miter" points="79.6146,78.4289 81.2291,74.1603 82.8437,76.1358 84.4583,74.0313 86.0729,62.1243 87.6875,59.4059 89.3021,45.3336 90.9166,52.864 92.5312,45.0736 94.1458,39.6336 95.7604,29.6379 97.375,38.2538 98.9896,43.2841 100.604,32.1139 102.219,36.7221 103.833,47.7724 105.448,34.4831 107.062,36.2509 108.677,44.6877 110.292,47.2486 111.906,67.0419 113.521,62.5174 115.135,64.4422 116.75,75.9689 118.365,87.5311 119.979,102.996 121.594,101.116 123.208,102.852 124.823,101.202 126.437,105.21 128.052,121.99 129.667,116.713 131.281,135.055 132.896,124.57 134.51,132.893 136.125,147.213 137.74,130.378 139.354,137.805 140.969,126.141 142.583,127.916 144.198,141.396 145.812,125.802 147.427,112.44 149.042,122.88 150.656,115.574 152.271,96.5052 153.885,107.06 155.5,91.5821 157.115,93.2408 158.729,69.0359 160.344,66.781 161.958,69.4089 163.573,72.6581 165.187,61.4812 166.802,52.0783 168.417,37.4722 170.031,54.0599 171.646,40.4188 173.26,34.5658 174.875,37.2084 176.49,30.2613 178.104,37.3834 179.719,28.2754 181.333,39.1494 182.948,42.3591 184.562,49.4 186.177,49.9183 187.792,59.8957 189.406,60.5503 191.021,73.2632 192.635,81.7881 194.25,88.1267 195.865,84.0927 197.479,89.4024 199.094,100.08 200.708,115.592 202.323,105.002 203.937,107.406 205.552,111.076 207.167,117.272 208.781,119.463 210.396,121.683 212.01,133.091 213.625,137.989 215.24,130.731 216.854,140.817 218.469,126.464 220.083,123.483 221.698,119.54 223.312,123.449 224.927,110.431 226.542,114.67 228.156,112.509 229.771,101.645 231.385,87.3727 233,83.0385 234.615,79.6782 236.229,90.6783 237.844,71.4362 239.458,68.4682 241.073,59.2179 242.687,48.6444 244.302,58.5553 245.917,42.3951 247.531,53.8624 249.146,48.507 250.76,32.4137 252.375,42.4628 253.99,30.2259 255.604,48.1335 257.219,48.2628 258.833,36.8392 260.448,55.6204 262.062,46.249 263.677,42.2476 265.292,56.2454 266.906,57.9846 268.521,79.709 270.135,70.893 271.75,77.8673 273.365,84.993 274.979,95.8927 276.594,102.681 278.208,93.8146 279.823,122.635 281.438,128.314 283.052,110.155 284.667,133.347 286.281,138.394 287.896,139.104 289.51,126.731 291.125,124.648 292.74,147.418 294.354,137.15 295.969,143.827 297.583,137.898 299.198,136.024 300.812,122.053 302.427,125.088 304.042,124.435 305.656,111.211 307.271,116.825 308.885,109.264 310.5,81.2954 312.115,94.2008 313.729,83.9256 315.344,68.5312 316.958,59.8647 318.573,52.1681 320.188,65.1641 321.802,48.0514 323.417,36.6479 325.031,55.307 326.646,37.3642 328.26,31.1706 329.875,42.2238 331.49,44.0457 333.104,36.0018 334.719,41.0266 336.333,49.623 337.948,45.1951 339.562,50.2578 341.177,50.5827 342.792,56.8713 344.406,67.0101 346.021,71.6294 347.635,65.9379 349.25,86.557 350.865,85.3683 352.479,105.154 354.094,93.5998 355.708,109.575 357.323,122.408 358.938,121.976 360.552,127.781 362.167,114.566 363.781,132.812 365.396,137.214 367.01,137.526 368.625,124.405 370.24,132.48 371.854,132.371 373.469,128.812 375.083,134.766 376.698,131.291 378.312,121.957 379.927,133.615 381.542,124.141 383.156,115.349 384.771,111.935 386.385,96.1468 388,96.1998 389.615,77.6709 391.229,78.801 392.844,76.2865 394.458,70.5264 396.073,57.4653 397.688,59.0809 399.302,48.3068 400.917,59.1363 402.531,45.8375 404.146,47.5592 405.76,47.9858 407.375,37.6942 408.99,38.2614 410.604,36.867 412.219,33.3696 413.833,32.2865 415.448,44.6338 417.062,52.6502 418.677,53.082 420.292,49.5254 421.906,53.2309 423.521,60.4982 425.135,81.8221 426.75,68.2564 428.365,83.596 429.979,103.417 431.594,93.9914 433.208,93.6604 434.823,113.701 436.438,112.254 438.052,125.922 439.667,132.649 441.281,123.885 442.896,144.195 444.51,126.193 446.125,134.639 447.74,145.584 449.354,144.649 450.969,130.434 452.583,122.892 454.198,134.578 455.812,113.945 457.427,131.203 459.042,107.965 460.656,113.826 462.271,115.799 463.885,105.015 465.5,94.3824 467.115,79.7023 468.729,71.632 470.344,83.1566 471.958,67.6266 473.573,58.7134 475.188,60.8211 476.802,43.1804 478.417,53.4729 480.031,56.2722 481.646,52.9031 483.26,35.1909 484.875,36.9416 486.49,27.033 488.104,27.6485 489.719,29.5954 491.333,52.8703 492.948,38.41 494.562,43.1326 496.177,48.4739 497.792,51.8894 499.406,52.5537 501.021,64.7103 502.635,77.3124 504.25,79.5399 505.865,93.9932 507.479,91.1025 509.094,111.514 510.708,114.096 512.323,115.373 513.938,109.537 515.552,116.085 517.167,129.6 518.781,126.251 520.396,143.245 522.01,142.302 523.625,123.549 525.24,140.896 526.854,137.904 528.469,132.898 530.083,137.079 531.698,129.735 533.312,132.009 534.927,132.473 536.542,124.453 538.156,110.736 539.771,116.056 541.385,101.874 543,97.4254"/>
</g>
</g>
</svg>
