<?xml-stylesheet type="text/css" href="https://fonts.googleapis.com/css?family=Open+Sans:300italic,400italic,600italic,700italic,400,600,700,300&amp;subset=latin,cyrillic-ext,latin-ext,cyrillic" ?><svg viewBox="0 0 460 180" xmlns="http://www.w3.org/2000/svg" xmlns:xlink="http://www.w3.org/1999/xlink"><defs><style>*{stroke-linecap:butt;stroke-linejoin:round}</style></defs><g id="figure_1"><path d="M0 180h460.8V0H0z" fill="#fefefe" id="patch_1"/><g id="axes_1"><path d="M43.236 138.197H446.5V14.3H43.236z" fill="#fff" id="patch_2"/><path clip-path="url(#p6737ef88e7)" d="M43.236 75.848H446.5" fill="none" stroke="gray" stroke-linecap="square" stroke-width="1.5" id="line2d_1"/><g id="matplotlib.axis_1"><g id="xtick_1"><g id="line2d_2"><defs><path d="M0 0v3.5" id="m8a150fd669" stroke="#000" stroke-width=".8"/></defs><use x="43.236" xlink:href="#m8a150fd669" y="138.197" stroke="#000" stroke-width=".8"/></g><text x="43.236" y="152.795" font-family="Open Sans" font-size="10" font-weight="400" text-anchor="middle" id="text_1">0.0</text></g><g id="xtick_2"><use x="110.671" xlink:href="#m8a150fd669" y="138.197" stroke="#000" stroke-width=".8" id="line2d_3"/><text x="110.671" y="152.795" font-family="Open Sans" font-size="10" font-weight="400" text-anchor="middle" id="text_2">0.5</text></g><g id="xtick_3"><use x="178.107" xlink:href="#m8a150fd669" y="138.197" stroke="#000" stroke-width=".8" id="line2d_4"/><text x="178.107" y="152.795" font-family="Open Sans" font-size="10" font-weight="400" text-anchor="middle" id="text_3">1.0</text></g><g id="xtick_4"><use x="245.542" xlink:href="#m8a150fd669" y="138.197" stroke="#000" stroke-width=".8" id="line2d_5"/><text x="245.542" y="152.795" font-family="Open Sans" font-size="10" font-weight="400" text-anchor="middle" id="text_4">1.5</text></g><g id="xtick_5"><use x="312.978" xlink:href="#m8a150fd669" y="138.197" stroke="#000" stroke-width=".8" id="line2d_6"/><text x="312.978" y="152.795" font-family="Open Sans" font-size="10" font-weight="400" text-anchor="middle" id="text_5">2.0</text></g><g id="xtick_6"><use x="380.413" xlink:href="#m8a150fd669" y="138.197" stroke="#000" stroke-width=".8" id="line2d_7"/><text x="380.413" y="152.795" font-family="Open Sans" font-size="10" font-weight="400" text-anchor="middle" id="text_6">2.5</text></g><text x="244.868" y="166.797" font-family="Open Sans" font-size="10" font-weight="400" text-anchor="middle" id="text_7">Time (milliseconds)</text></g><g id="matplotlib.axis_2"><g id="ytick_1"><g id="line2d_8"><defs><path d="M0 0h-3.5" id="m2b4174279e" stroke="#000" stroke-width=".8"/></defs><use x="43.236" xlink:href="#m2b4174279e" y="114.337" stroke="#000" stroke-width=".8"/></g><text x="36.236" y="118.136" font-family="Open Sans" font-size="10" font-weight="400" text-anchor="end" id="text_8">−1</text></g><g id="ytick_2"><use x="43.236" xlink:href="#m2b4174279e" y="75.848" stroke="#000" stroke-width=".8" id="line2d_9"/><text x="36.236" y="79.647" font-family="Open Sans" font-size="10" font-weight="400" text-anchor="end" id="text_9">0</text></g><g id="ytick_3"><use x="43.236" xlink:href="#m2b4174279e" y="37.359" stroke="#000" stroke-width=".8" id="line2d_10"/><text x="36.236" y="41.158" font-family="Open Sans" font-size="10" font-weight="400" text-anchor="end" id="text_10">1</text></g><text transform="rotate(-90 18.398 76.248)" x="18.398" y="76.248" font-family="Open Sans" font-size="10" font-weight="400" text-anchor="middle" id="text_11">Amplitude</text></g><path clip-path="url(#p6737ef88e7)" d="M43.236 73.97l1.349-8.821 1.348 1.92 1.35-.16 1.348 2.306 1.348-10.876 1.35 5.743 1.348-19.7 1.349-4.922 1.348 20.25 1.349-17.713 1.349 8.205 1.348-3.32 1.35-15.472 1.348 31.292 1.349-2.101 1.348 1.216 1.349-32.5 1.349 1 1.348-4.496 1.35-5 1.348 6.233 1.349 12.47 1.348-12.659 1.349 25.262 1.349-20.153 1.348 19.188 1.35-30.614L81 37.2l1.349 4.653 1.348 6.452 1.349-18.798 1.349 13.203 1.348-3.224 1.35 22.386 1.348-21.69 1.348 1.695 1.35 1.413 1.348-10.869 1.349 11.895 1.348 14.316 1.349-.984 1.349-7.949 1.348 26.688 1.35-21.126 1.348 2.126 1.349 20.036 1.348 5.495 1.349-4.79 1.349.549 1.348-5.53 1.35 7.481 1.348-18.753 1.349 36.502 1.348-1.752 1.349 4.153 1.349-16.654 1.348 17.607 1.35-6.044 1.348 10.621 1.348 5.29 1.35 3.78 1.348-19.2 1.349 21.653 1.348-.648 1.349-5.144 1.349-16.048 1.348 29.092 1.35-27.416 1.348 29.513 1.349-33.065 1.348 20.22 1.349-19.03 1.349 14.693 1.348-4.946 1.35 27.021 1.348-9.452 1.349 6.03 1.348-7.15 1.349 6.302 1.349-8.344 1.348-4.525 1.35 12.516 1.348-25.282 1.349 3.614 1.348 10.234 1.349-11.406 1.349 14.924 1.348-20.261 1.35-15.414 1.348 21.595 1.348-15.426 1.35 18.534 1.348-24.652 1.349 14.212 1.348 1.814 1.349-17.846 1.349 19.44 1.348-33.518 1.35 29.317 1.348-28.325 1.349 13.28 1.348-20.312 1.349-11.125 1.349 25.1 1.348-14.924 1.35-2.886 1.348-1.458 1.349 11.285 1.348-30.165 1.349 17.461 1.349-17.279 1.348 3.842 1.35 13.764 1.348-21.473 1.349 14.58 1.348-20.011 1.349 10.309 1.349-12.662 1.348 6.322 1.349-2.079 1.349 7.944 1.348-18.03 1.35 11.634 1.348 8.245 1.349-7.102 1.348 22.677 1.349-10.641 1.349-13.424 1.348 14.772 1.35-11.947 1.348 8.103 1.349 12.248 1.348-5.168 1.349-9.226 1.349.554 1.348 2.12 1.35-1.438 1.348 1.752 1.349 10.308 1.348-15.992 1.349 22.36 1.349-.548 1.348-15.398 1.35 5.518 1.348 6.213 1.348 25.556 1.35-29.172 1.348 10.287 1.349-8.547 1.348 35.11 1.349-25.245 1.349 29.566 1.348-15.05 1.35 21.287 1.348-25.552 1.349 3.841 1.348 11.388 1.349 8.387 1.349 15.09 1.348-22.18 1.35 11.297 1.348-8.521 1.349-3.845 1.348-2.602 1.349 6.09 1.349 33.847 2.697-25.317 1.349 22.45 1.349-12.628 1.348 18.637 1.349-5.079 1.349 7.363 1.348-29.608 1.35 22.006 1.348-4.75 1.348-22.656 1.35 8.23 1.348 25.36 1.349-5.788 1.348-18.4 1.349.743 1.349 11.963 1.348-28.032 1.35 10.967 1.348 1.533 1.349-3.688 1.348-7.107 1.349 14.282 1.349-5.231 1.348 5.25 1.35-1.17 1.348-31.337 1.349 5.665 2.697 15.114 1.349-3.396 1.348 5.168 1.35-16.894 1.348 2.303 1.348-17.218 1.35 9.855 1.348 5.239 1.349 3.603 1.348-3.96 1.349-25.836 1.349 6.467 1.348-5.344 1.35-15.94 1.348-5.606 1.349 27.859 1.348-18.987 1.349 13.676 1.349 7.742 1.348-29.877 1.35 15.513 1.348-3.673 1.349-8.982 1.348-10.303 1.349 6.959 1.349-10.054 1.348 22.532L344 26.191l1.348 23.344 1.349-29.603 1.348 10.287 1.349 18.393 1.349-27.79 1.348 8.861 1.35 19.03 1.348 2.383 1.348-10.774 1.35 20.055 1.348-5.767 1.349-7.001 1.348 3.426 1.349-1.842 1.349 8.866 1.348-10.085 1.35-8.754 1.348 30.726 1.349-13.309 1.348 16.985 1.349-20.29 1.349 14.623 1.348-4.197 1.35 17.068 1.348 3.868 1.349-10.803 1.348 7.514 1.349-20.092 1.349 9.147 1.348 3.03 1.35-3.609 1.348 33.895 1.349-15.768 1.348.977 1.349-12.374 1.349 27.86 1.348 3.976 1.349 7.32 1.349 5.04 1.348-33.434 1.35 11.591 1.348-2.953 1.349 20.735 1.348-10.496 1.349 21.207 1.349-15.27 1.348-18.112 1.35 4.562 1.348 21.247 1.349-23.616 1.348 28.32 1.349-27.545 1.349.23 1.348 5.245 1.35 6.117 1.348-9.913 1.349 21.698 1.348-22.216 1.349 7.933 1.349 22.174 1.348-14.086 1.35 6.304 1.348-33.57 1.348 17.779 1.35-2.442 1.348-7.282 1.349 8.515 1.348 6.918 1.349-28.455 1.349 22.181 1.348-14.592 1.35 8.772 1.348 2.545 1.349-31.778 1.348-6.65 1.349-1.942" fill="none" stroke="#1f77b4" stroke-linecap="square" stroke-width="1.5" id="line2d_11"/><path d="M43.236 138.197V14.3" fill="none" stroke="#000" stroke-linecap="square" stroke-width=".8" id="patch_3"/><path d="M446.5 138.197V14.3" fill="none" stroke="#000" stroke-linecap="square" stroke-width=".8" id="patch_4"/><path d="M43.236 138.197H446.5" fill="none" stroke="#000" stroke-linecap="square" stroke-width=".8" id="patch_5"/><path d="M43.236 14.3H446.5" fill="none" stroke="#000" stroke-linecap="square" stroke-width=".8" id="patch_6"/></g></g><defs><clipPath id="p6737ef88e7"><path d="M43.236 14.3H446.5v123.897H43.236z"/></clipPath></defs></svg>