<?xml-stylesheet type="text/css" href="https://fonts.googleapis.com/css?family=Open+Sans:300italic,400italic,600italic,700italic,400,600,700,300&amp;subset=latin,cyrillic-ext,latin-ext,cyrillic" ?><svg xmlns="http://www.w3.org/2000/svg" viewBox="0 0 600 300"><path fill="#fff" d="M0 0h600v300H0z"/><path fill="#fefefe" shape-rendering="crispEdges" d="M0 300h600V0H0z"/><clipPath id="a"><path d="M0 300h600V0H0z"/></clipPath><g clip-path="url(#a)"><path fill="#fff" shape-rendering="crispEdges" d="M60 250h500L60 5z"/><path fill="#fff" shape-rendering="crispEdges" d="M560 250V5H60z"/><path fill="none" stroke="#262626" stroke-width=".5" d="M60 250v-5M60 5v5M176.495 250v-5M176.495 5v5M343.162 250v-5M343.162 5v5M509.828 250v-5M509.828 5v5M560 250v-5M560 5v5"/><text fill="#262626" x="60" y="255" font-size="10" text-anchor="middle" dy="10" font-family="Open Sans">20</text><text fill="#262626" x="176.495" y="255" font-size="10" text-anchor="middle" dy="10" font-family="Open Sans">100</text><text fill="#262626" x="343.162" y="255" font-size="10" text-anchor="middle" dy="10" font-family="Open Sans">1000</text><text fill="#262626" x="509.828" y="255" font-size="10" text-anchor="middle" dy="10" font-family="Open Sans">10000</text><text fill="#262626" x="560" y="255" font-size="10" text-anchor="middle" dy="10" font-family="Open Sans">20000</text><path fill="none" stroke="#262626" stroke-width=".5" d="M60 250h5M560 250h-5M60 188.75h5M560 188.75h-5M60 127.5h5M560 127.5h-5M60 66.25h5M560 66.25h-5M60 5h5M560 5h-5"/><text fill="#262626" x="55" y="250" font-size="10" text-anchor="end" dy="5" font-family="Open Sans">-10</text><text fill="#262626" x="55" y="188.75" font-size="10" text-anchor="end" dy="5" font-family="Open Sans">-5</text><text fill="#262626" x="55" y="127.5" font-size="10" text-anchor="end" dy="5" font-family="Open Sans">0</text><text fill="#262626" x="55" y="66.25" font-size="10" text-anchor="end" dy="5" font-family="Open Sans">5</text><text fill="#262626" x="55" y="5" font-size="10" text-anchor="end" dy="5" font-family="Open Sans">10</text><path fill="none" stroke="#262626" stroke-width=".5" stroke-dasharray="16,0" d="M60 250h500M60 5h500M60 250V5M560 250V5"/><text fill="#262626" x="310" y="268" font-size="10" text-anchor="middle" dy="10" font-family="Open Sans">Frequency (Hz)</text><text fill="#262626" x="35" y="127.5" font-size="10" transform="rotate(-90 35 127.5)" text-anchor="middle" dy="0" font-family="Open Sans">Gain (dB)</text><path fill="none" stroke="#0071bc" stroke-width=".5" d="M59.5 127.491l8.449-.001 29.348-.012 20.823-.018 16.152-.022 13.197-.028 11.158-.033 9.665-.038 8.525-.044 7.627-.049 6.898-.054 6.299-.061 5.793-.066 5.364-.073 4.994-.078 4.672-.086 4.388-.092 4.137-.099 3.914-.106 3.712-.113 3.532-.122 3.367-.13 3.218-.138 3.08-.147 2.955-.157 2.839-.166 2.732-.177 2.632-.188 2.54-.199 2.454-.211 2.373-.224 2.298-.237 2.228-.251 2.16-.266 2.099-.282 2.039-.299 1.983-.316 1.93-.335 1.88-.355 1.833-.376 1.787-.398 1.745-.422 1.703-.448 1.664-.474 1.626-.502 1.591-.533 1.557-.565 1.524-.599 1.492-.636 1.463-.674 1.433-.716 1.406-.759 1.378-.805 1.353-.854 1.328-.907 1.305-.962 1.281-1.02 1.259-1.083 1.237-1.147 1.217-1.216 1.196-1.288 1.177-1.363 1.158-1.442 1.14-1.523 1.122-1.608 1.105-1.695 1.089-1.783 1.072-1.872 1.057-1.962 1.041-2.051 1.027-2.136 1.012-2.218.999-2.293.985-2.358.971-2.412.959-2.45.946-2.472.934-2.469.922-2.44.911-2.38.899-2.29.888-2.161.877-1.996.867-1.793.857-1.555.846-1.286.837-.99.827-.676.818-.355.809-.032.8.28.791.575.783.844.774 1.084.766 1.29.758 1.464.75 1.603.742 1.71.735 1.788.727 1.84.721 1.868.713 1.878.706 1.87.699 1.85.693 1.818.686 1.779.68 1.732.673 1.682.667 1.628.661 1.572.655 1.514.649 1.457.644 1.4.637 1.344.633 1.288.626 1.235.622 1.182.616 1.132.611 1.084.605 1.036.601.992.596.95.591.908.586.869.581.832.577.797.572.762.568.731.563.7.559.671.555.643.55.617.546.592.542.568.539.546.534.524.53.503.527.484.522.466.519.447.515.431.512.415.508.4.504.385.501.371.498.358.494.345.49.333.488.322.484.31.481.3.478.29.474.281.472.271.468.262.466.254.462.246.46.238.457.23.453.224.451.217.448.21.446.204.443.197.44.192.437.187.435.181.432.175.429.171.427.166.425.162.422.157.42.153.417.148.415.145.412.141.41.137.408.134.406.13.403.127.401.123.399.121.396.118.395.114.392.112.39.109.388.107.386.104.384.101.382.1.38.097.378.094.376.093.374.09.372.089.371.086.368.085.367.082.364.081.363.079.361.078.359.076.358.074.355.072.354.072.353.069.35.069.349.067.347.065.346.064.343.063.343.062.34.061.339.059.338.058.336.057.334.056.333.055.331.054.33.053.328.052.327.051.325.05.324.049.322.049.321.047.32.047.318.045.317.045.315.044.314.044.313.042.311.042.31.042.309.04.307.04.306.039.305.039.304.038.302.037.301.037.3.036.298.035.297.035.296.035.295.033.294.034.292.033.292.032.29.032.289.031.287.031.287.03.286.03.284.03.283.029.283.028.281.028.28.028.279.027.277.027.277.027.276.026.275.026.273.026.273.025.272.024.27.025.27.024.268.024.268.023.267.023.265.023.265.022.263.022.263.022.262.022.261.021.26.021.259.021.258.02.257.02.256.02.255.02.255.019.253.02.253.019.252.018.251.019.25.018.249.018.248.018.248.017.246.018.246.017.245.017.244.016.243.017.243.016.242.016.24.016.241.016.239.015.238.016.238.015.237.015.236.015.235.014.235.015.234.014.233.014.232.014.232.014.231.014.23.013.23.014.228.013.228.013.227.013.227.013.226.013.225.012.224.012.224.013.223.012.223.012.221.012.221.011.221.012.219.012.219.011.219.011.217.011.217.011.217.011.216.011.215.011.214.01.214.011.213.01.213.01.212.01.211.01.211.01.21.01.209.01.209.01.209.009.207.01.207.009.207.009.206.009.205.009.205.009.204.009.204.009.203.009.202.009.202.008.201.009.201.008.2.008.2.009.199.008.199.008.198.008.197.008.197.008.197.008.196.007.195.008.195.008.194.007.194.008.193.007.193.007.192.008.192.007.191.007.191.007.19.007.19.007.189.007.189.007.188.007.188.006.187.007.187.006.186.007.186.006.185.007.185.006.185.007.184.006.183.006.183.006.183.006.182.006.182.006.181.006.18.006.181.006.18.006.179.006.179.005.178.006.178.006.178.005.177.006.177.005.176.006.176.005.176.005.175.006.174.005.175.005.173.005.174.006.173.005.172.005.172.005.172.005.171.005.171.005.171.004.17.005.17.005.169.005.169.004.168.005.169.005.167.004.168.005.167.005.166.004.166.005.166.004.166.004.165.005.164.004.165.004.164.005.163.004.164.004.162.004.163.004.162.005.162.004.161.004.161.004.161.004.16.004.16.004.16.004.159.003.159.004.158.004.159.004.157.004.158.004.157.003.157.004.157.004.156.003.155.004.156.004.155.003.155.004.155.003.154.004.154.003.153.004.153.003.153.003.153.004.152.003.152.003.151.004.152.003.151.003.15.004.151.003.15.003.149.003.15.003.149.004.148.003.149.003.148.003.148.003.148.003.147.003.147.003.146.003.147.003.146.003.146.003.145.003.145.002.145.003.145.003.144.003.144.003.144.003.144.002.143.003.143.003.142.003.143.002.142.003.142.003.141.002.141.003.141.003.141.002.14.003.14.002.14.003.14.002.139.003.139.003.139.002.139.002.138.003.138.002.138.003.137.002.137.003.137.002.137.002.136.003.137.002.136.002.135.003.136.002.135.002.135.003.134.002.135.002.134.002.134.003.134.002.133.002.133.002.133.002.133.003.132.002.132.002.132.002.132.002.132.002.131.002.131.002.131.002.13.002.13.003.131.002.129.002.13.002.129.002.13.002.128.002.129.001.129.002.128.002.128.002.128.002.127.002.127.002.128.002.126.002.127.002.126.002.127.001.126.002.125.002.126.002.125.002.125.001.125.002.125.002.125.002.124.001.124.002.124.002.123.002.124.001.123.002.123.002.123.002.122.001.123.002.122.002.122.001.122.002.121.001.121.002.122.002.12.001.121.002.121.002.12.001.12.002.12.001.12.002.119.001.12.002.119.001.119.002.119.002.118.001.119.002.118.001.118.002.118.001.117.001.118.002.117.001.117.002.117.001.116.002.117.001.116.002.116.001.116.001.116.002.115.001.116.002.115.001.115.001.115.002.114.001.115.001.114.002.114.001.114.001.114.002.113.001.113.001.114.002.113.001.112.001.113.002.113.001.112.001.112.001.112.002.112.001.111.001.112.002.111.001.111.001.111.001.111.001.111.002.11.001.11.001.11.001.11.001.11.002.11.001.109.001.109.001.109.001.109.001.109.002.109.001.108.001.108.001.109.001.107.001.108.001.108.002.107.001.108.001.107.001.107.001.107.001.106.001.107.001.106.001.106.001.106.001.106.002.106.001.106.001.105.001.105.001.106.001.105.001.104.001.105.001.105.001.104.001.104.001.104.001.104.001.104.001.104.001.103.001.103.001.104.001.103.001.102.001.103.001.103.001.102.001.103.001.102.001.102.001.102.001h.101l.102.001.101.001.102.001.101.001.101.001.101.001.1.001.101.001.101.001.1.001.1.001h.1l.1.001.1.001.099.001.1.001.099.001.099.001.1.001h.098l.099.001.099.001.099.001.098.001.098.001.098.001h.098l.098.001.098.001.098.001.097.001h.098l.097.001.097.001.097.001.097.001.096.001h.097l.096.001.097.001.096.001h.096l.096.001.096.001.095.001.096.001h.095l.096.001.095.001.095.001h.095l.095.001.094.001.095.001h.094l.095.001.094.001.094.001h.094l.094.001.093.001.094.001h.093l.094.001.093.001h.093l.093.001.093.001.092.001h.093l.093.001.092.001h.092l.092.001.092.001h.092l.092.001.092.001h.091l.092.001.091.001h.091l.092.001.091.001h.09l.091.001.091.001h.09l.091.001.09.001h.09l.09.001.09.001h.09l.09.001.09.001h.089l.09.001h.089l.089.001.089.001h.089l.089.001.089.001h.088l.089.001h.088l.089.001.088.001h.088l.088.001h.088l.088.001.087.001h.088l.087.001h.088l.087.001h.087l.087.001.087.001h.087l.087.001h.086l.087.001h.086l.087.001.086.001h.086l.086.001h.086l.086.001h.085l.086.001h.086l.085.001.085.001h.085l.086.001h.085l.085.001h.084l.085.001h.085l.084.001h.085l.084.001h.084l.084.001h.084l.084.001.084.001h.084l.083.001h.084l.083.001h.084l.083.001h.083l.083.001h.083l.083.001h.083l.082.001h.083l.082.001h.083l.082.001h.164l.082.001h.082l.082.001h.082l.082.001h.081l.082.001h.081l.081.001h.081l.082.001h.081l.081.001h.08l.081.001h.161l.081.001h.08l.08.001h.081l.08.001h.08l.08.001h.08l.079.001h.16l.079.001h.079l.08.001h.079l.079.001h.158l.079.001h.079l.079.001h.078l.079.001h.157l.078.001h.078l.078.001h.156l.078.001h.078l.078.001h.077l.078.001h.155l.077.001h.077l.077.001h.154l.077.001h.077l.077.001h.153l.076.001h.153l.076.001h.077l.076.001h.151l.076.001h.076l.076.001h.151l.075.001h.151l.075.001h.15l.075.001h.075l.075.001h.149l.075.001h.149l.074.001h.149l.074.001h.074l.074.001h.148l.073.001h.148l.073.001h.147l.073.001h.147l.073.001h.145l.073.001h.146l.073.001h.145l.072.001h.145l.072.001h.144l.072.001h.144l.072.001h.143l.071.001H518.855l.071.001h.142l.071.001h.142l.071.001h.142l.07.001H519.776l.07.001H519.987l.07.001h.14l.07.001H520.477l.069.001h.139l.07.001h.139l.069.001H521.171l.069.001h.138l.068.001H521.652l.069.001H521.926l.069.001h.136l.068.001H522.403l.068.001h.203l.068.001h.202l.068.001h.134l.068.001h.201l.067.001h.2l.067.001h.199l.067.001h.199l.066.001h.198l.066.001h.198l.065.001h.197l.066.001h.196l.065.001h.195l.065.001h.26l.064.001h.194l.065.001h.193l.064.001h.257l.063.001h.192l.064.001h.254l.064.001h.19l.063.001h.252l.063.001h.189l.063.001h.25l.063.001h.249l.062.001h.248l.062.001h.248l.061.001h.247l.061.001h.245l.061.001h.244l.061.001h.243l.061.001h.242l.061.001h.301l.06.001h.24l.06.001h.238l.06.001h.297l.06.001h.295l.059.001h.236l.059.001h.293l.059.001h.291l.058.001h.291l.058.001H534.218l.057.001H534.563l.057.001H534.906l.058.001h.341l.057.001H535.645l.057.001H535.984l.056.001h.337l.056.001h.335l.055.001h.278l.055.001h.332l.055.001h.33l.054.001h.383l.055.001h.326l.054.001h.324l.054.001h.376l.054.001h.321l.053.001h.372l.053.001h.37l.053.001h.368l.052.001h.366l.052.001h.415l.052.001h.361l.052.001h.41l.051.001h.408l.051.001H543.818l.051.001H544.271l.05.001H544.722l.049.001H545.219l.049.001H545.663l.05.001H546.154l.049.001H546.641l.049.001H547.174l.048.001H547.654l.048.001H548.18l.047.001H548.701l.047.001H549.218l.047.001H549.779l.046.001H550.335l.046.001H550.841l.045.001H551.434l.046.001H551.978l.045.001H552.562l.045.001h.579l.044.001H553.761l.044.001h.569l.044.001h.565l.043.001h.604l.042.001h.598l.043.001h.635l.042.001h.629l.041.001h.623l.042.001h.658l.041.001h.652l.041.001H560"/></g></svg>