<?xml-stylesheet type="text/css" href="https://fonts.googleapis.com/css?family=Open+Sans:300italic,400italic,600italic,700italic,400,600,700,300&amp;subset=latin,cyrillic-ext,latin-ext,cyrillic" ?><svg viewBox="0 0 460.8 288" xmlns="http://www.w3.org/2000/svg" xmlns:xlink="http://www.w3.org/1999/xlink"><defs><style>*{stroke-linecap:butt;stroke-linejoin:round}</style></defs><g id="figure_1"><path d="M0 288h460.8V0H0z" fill="#fefefe" id="patch_1"/><g id="axes_1"><path d="M57.331 246.197h378.376V14.599H57.331z" fill="#fff" id="patch_2"/><g id="matplotlib.axis_1"><g id="xtick_1"><g id="line2d_1"><defs><path d="M0 0v3.5" id="m6902aca788" stroke="#000" stroke-width=".8"/></defs><use x="57.331" xlink:href="#m6902aca788" y="246.197" stroke="#000" stroke-width=".8"/></g><text x="57.331" y="260.795" font-family="Open Sans" font-size="10" font-weight="400" text-anchor="middle" id="text_1">20</text></g><g id="xtick_2"><use x="145.489" xlink:href="#m6902aca788" y="246.197" stroke="#000" stroke-width=".8" id="line2d_2"/><text x="145.489" y="260.795" font-family="Open Sans" font-size="10" font-weight="400" text-anchor="middle" id="text_2">100</text></g><g id="xtick_3"><use x="271.614" xlink:href="#m6902aca788" y="246.197" stroke="#000" stroke-width=".8" id="line2d_3"/><text x="271.614" y="260.795" font-family="Open Sans" font-size="10" font-weight="400" text-anchor="middle" id="text_3">1000</text></g><g id="xtick_4"><use x="397.74" xlink:href="#m6902aca788" y="246.197" stroke="#000" stroke-width=".8" id="line2d_4"/><text x="397.74" y="260.795" font-family="Open Sans" font-size="10" font-weight="400" text-anchor="middle" id="text_4">10000</text></g><g id="xtick_5"><use x="435.707" xlink:href="#m6902aca788" y="246.197" stroke="#000" stroke-width=".8" id="line2d_5"/><text x="435.707" y="260.795" font-family="Open Sans" font-size="10" font-weight="400" text-anchor="middle" id="text_5">20000</text></g><g id="xtick_6"><g id="line2d_6"><defs><path d="M0 0v2" id="m36aedc1c62" stroke="#000" stroke-width=".6"/></defs><use x="57.331" xlink:href="#m36aedc1c62" y="246.197" stroke="#000" stroke-width=".6"/></g></g><g id="xtick_7"><use x="79.541" xlink:href="#m36aedc1c62" y="246.197" stroke="#000" stroke-width=".6" id="line2d_7"/></g><g id="xtick_8"><use x="95.299" xlink:href="#m36aedc1c62" y="246.197" stroke="#000" stroke-width=".6" id="line2d_8"/></g><g id="xtick_9"><use x="107.522" xlink:href="#m36aedc1c62" y="246.197" stroke="#000" stroke-width=".6" id="line2d_9"/></g><g id="xtick_10"><use x="117.508" xlink:href="#m36aedc1c62" y="246.197" stroke="#000" stroke-width=".6" id="line2d_10"/></g><g id="xtick_11"><use x="125.952" xlink:href="#m36aedc1c62" y="246.197" stroke="#000" stroke-width=".6" id="line2d_11"/></g><g id="xtick_12"><use x="133.266" xlink:href="#m36aedc1c62" y="246.197" stroke="#000" stroke-width=".6" id="line2d_12"/></g><g id="xtick_13"><use x="139.718" xlink:href="#m36aedc1c62" y="246.197" stroke="#000" stroke-width=".6" id="line2d_13"/></g><g id="xtick_14"><use x="183.457" xlink:href="#m36aedc1c62" y="246.197" stroke="#000" stroke-width=".6" id="line2d_14"/></g><g id="xtick_15"><use x="205.666" xlink:href="#m36aedc1c62" y="246.197" stroke="#000" stroke-width=".6" id="line2d_15"/></g><g id="xtick_16"><use x="221.424" xlink:href="#m36aedc1c62" y="246.197" stroke="#000" stroke-width=".6" id="line2d_16"/></g><g id="xtick_17"><use x="233.647" xlink:href="#m36aedc1c62" y="246.197" stroke="#000" stroke-width=".6" id="line2d_17"/></g><g id="xtick_18"><use x="243.634" xlink:href="#m36aedc1c62" y="246.197" stroke="#000" stroke-width=".6" id="line2d_18"/></g><g id="xtick_19"><use x="252.077" xlink:href="#m36aedc1c62" y="246.197" stroke="#000" stroke-width=".6" id="line2d_19"/></g><g id="xtick_20"><use x="259.391" xlink:href="#m36aedc1c62" y="246.197" stroke="#000" stroke-width=".6" id="line2d_20"/></g><g id="xtick_21"><use x="265.843" xlink:href="#m36aedc1c62" y="246.197" stroke="#000" stroke-width=".6" id="line2d_21"/></g><g id="xtick_22"><use x="309.582" xlink:href="#m36aedc1c62" y="246.197" stroke="#000" stroke-width=".6" id="line2d_22"/></g><g id="xtick_23"><use x="331.791" xlink:href="#m36aedc1c62" y="246.197" stroke="#000" stroke-width=".6" id="line2d_23"/></g><g id="xtick_24"><use x="347.549" xlink:href="#m36aedc1c62" y="246.197" stroke="#000" stroke-width=".6" id="line2d_24"/></g><g id="xtick_25"><use x="359.772" xlink:href="#m36aedc1c62" y="246.197" stroke="#000" stroke-width=".6" id="line2d_25"/></g><g id="xtick_26"><use x="369.759" xlink:href="#m36aedc1c62" y="246.197" stroke="#000" stroke-width=".6" id="line2d_26"/></g><g id="xtick_27"><use x="378.202" xlink:href="#m36aedc1c62" y="246.197" stroke="#000" stroke-width=".6" id="line2d_27"/></g><g id="xtick_28"><use x="385.517" xlink:href="#m36aedc1c62" y="246.197" stroke="#000" stroke-width=".6" id="line2d_28"/></g><g id="xtick_29"><use x="391.968" xlink:href="#m36aedc1c62" y="246.197" stroke="#000" stroke-width=".6" id="line2d_29"/></g><g id="xtick_30"><use x="435.707" xlink:href="#m36aedc1c62" y="246.197" stroke="#000" stroke-width=".6" id="line2d_30"/></g><text x="246.519" y="274.797" font-family="Open Sans" font-size="10" font-weight="400" text-anchor="middle" id="text_6">Frequency (Hz)</text></g><g id="matplotlib.axis_2"><g id="ytick_1"><g id="line2d_31"><defs><path d="M0 0h-3.5" id="m0ba5f997ba" stroke="#000" stroke-width=".8"/></defs><use x="57.331" xlink:href="#m0ba5f997ba" y="246.197" stroke="#000" stroke-width=".8"/></g><text x="50.331" y="249.996" font-family="Open Sans" font-size="10" font-weight="400" text-anchor="end" id="text_7">−10.0</text></g><g id="ytick_2"><use x="57.331" xlink:href="#m0ba5f997ba" y="217.247" stroke="#000" stroke-width=".8" id="line2d_32"/><text x="50.331" y="221.046" font-family="Open Sans" font-size="10" font-weight="400" text-anchor="end" id="text_8">−7.5</text></g><g id="ytick_3"><use x="57.331" xlink:href="#m0ba5f997ba" y="188.297" stroke="#000" stroke-width=".8" id="line2d_33"/><text x="50.331" y="192.097" font-family="Open Sans" font-size="10" font-weight="400" text-anchor="end" id="text_9">−5.0</text></g><g id="ytick_4"><use x="57.331" xlink:href="#m0ba5f997ba" y="159.348" stroke="#000" stroke-width=".8" id="line2d_34"/><text x="50.331" y="163.147" font-family="Open Sans" font-size="10" font-weight="400" text-anchor="end" id="text_10">−2.5</text></g><g id="ytick_5"><use x="57.331" xlink:href="#m0ba5f997ba" y="130.398" stroke="#000" stroke-width=".8" id="line2d_35"/><text x="50.331" y="134.197" font-family="Open Sans" font-size="10" font-weight="400" text-anchor="end" id="text_11">0.0</text></g><g id="ytick_6"><use x="57.331" xlink:href="#m0ba5f997ba" y="101.448" stroke="#000" stroke-width=".8" id="line2d_36"/><text x="50.331" y="105.248" font-family="Open Sans" font-size="10" font-weight="400" text-anchor="end" id="text_12">2.5</text></g><g id="ytick_7"><use x="57.331" xlink:href="#m0ba5f997ba" y="72.499" stroke="#000" stroke-width=".8" id="line2d_37"/><text x="50.331" y="76.298" font-family="Open Sans" font-size="10" font-weight="400" text-anchor="end" id="text_13">5.0</text></g><g id="ytick_8"><use x="57.331" xlink:href="#m0ba5f997ba" y="43.549" stroke="#000" stroke-width=".8" id="line2d_38"/><text x="50.331" y="47.348" font-family="Open Sans" font-size="10" font-weight="400" text-anchor="end" id="text_14">7.5</text></g><g id="ytick_9"><use x="57.331" xlink:href="#m0ba5f997ba" y="14.599" stroke="#000" stroke-width=".8" id="line2d_39"/><text x="50.331" y="18.398" font-family="Open Sans" font-size="10" font-weight="400" text-anchor="end" id="text_15">10.0</text></g><text transform="rotate(-90 18.398 130.398)" x="18.398" y="130.398" font-family="Open Sans" font-size="10" font-weight="400" text-anchor="middle" id="text_16">Gain (dB)</text></g><path clip-path="url(#p1136294a82)" d="M-1 130.39l118.563-.06 37.968-.21 22.21-.369 10.991-.347 9.15-.44 7.839-.553 6.856-.684 6.092-.843 5.482-1.037 4.983-1.274 4.568-1.57 2.148-.916 2.067-1.019 1.992-1.132 1.922-1.259 1.857-1.4 1.796-1.557 1.74-1.732 1.685-1.923 1.635-2.134 1.588-2.362 1.543-2.61 1.5-2.87 1.462-3.14 1.422-3.41 1.387-3.672 2.673-7.987 4.983-15.96 1.178-3.068 1.153-2.316 1.13-1.414 1.106-.44 1.085.516 1.063 1.375 1.044 2.075 1.024 2.594 1.992 6.054 4.684 15.06 1.767 4.997 1.712 4.316 1.66 3.695 1.611 3.156 1.565 2.696 1.522 2.312 2.206 2.88 2.12 2.326 2.042 1.898 1.969 1.568 2.518 1.696 2.408 1.355 2.869 1.344 3.255 1.241 3.568 1.095 3.812.935 4.42.856 5.259.782 6.194.686 7.4.591 9.382.512 11.815.41 16.013.318 23.167.218 32.892.112" fill="none" stroke="#1f77b4" stroke-linecap="square" stroke-width="1.5" id="line2d_40"/><path d="M57.331 246.197V14.599" fill="none" stroke="#000" stroke-linecap="square" stroke-width=".8" id="patch_3"/><path d="M435.707 246.197V14.599" fill="none" stroke="#000" stroke-linecap="square" stroke-width=".8" id="patch_4"/><path d="M57.331 246.197h378.376" fill="none" stroke="#000" stroke-linecap="square" stroke-width=".8" id="patch_5"/><path d="M57.331 14.6h378.376" fill="none" stroke="#000" stroke-linecap="square" stroke-width=".8" id="patch_6"/></g></g><defs><clipPath id="p1136294a82"><path d="M57.331 14.599h378.376v231.598H57.331z"/></clipPath></defs></svg>