<?xml version="1.0" encoding="UTF-8" standalone="no"?>
<?xml-stylesheet type="text/css" href="https://fonts.googleapis.com/css?family=Open+Sans" ?>
<svg xmlns="http://www.w3.org/2000/svg"
     xmlns:xlink="http://www.w3.org/1999/xlink"
     width="600px" height="300px" viewBox="0 0 600 300">
<title>gl2ps_renderer figure</title>
<desc>
Creator: GL2PS 1.4.0, (C) 1999-2017 C. Geuzaine
For: Octave
</desc>
<defs>
</defs>
<polygon fill="#ffffff" points="0,0 600,0 600,300 0,300"/>
<g>
<polygon fill="#fefefe" points="0,300 600,300 600,0 0,0" shape-rendering="crispEdges"/>
<clipPath id="cp00600300">
  <polygon points="0,300 600,300 600,0 0,0"/>
</clipPath>
<g clip-path="url(#cp00600300)">
<polygon fill="#ffffff" shape-rendering="crispEdges" points="78,267 543,267 78,22.5"/>
<polygon fill="#ffffff" shape-rendering="crispEdges" points="543,267 543,22.5 78,22.5"/>
<polyline fill="none" stroke="#262626" stroke-width="0.5" stroke-linecap="butt" stroke-linejoin="miter" points="78,267 78,262.359"/>
<polyline fill="none" stroke="#262626" stroke-width="0.5" stroke-linecap="butt" stroke-linejoin="miter" points="78,22.5 78,27.1405"/>
<polyline fill="none" stroke="#262626" stroke-width="0.5" stroke-linecap="butt" stroke-linejoin="miter" points="186.34,267 186.34,262.359"/>
<polyline fill="none" stroke="#262626" stroke-width="0.5" stroke-linecap="butt" stroke-linejoin="miter" points="186.34,22.5 186.34,27.1405"/>
<polyline fill="none" stroke="#262626" stroke-width="0.5" stroke-linecap="butt" stroke-linejoin="miter" points="341.34,267 341.34,262.359"/>
<polyline fill="none" stroke="#262626" stroke-width="0.5" stroke-linecap="butt" stroke-linejoin="miter" points="341.34,22.5 341.34,27.1405"/>
<polyline fill="none" stroke="#262626" stroke-width="0.5" stroke-linecap="butt" stroke-linejoin="miter" points="496.34,267 496.34,262.359"/>
<polyline fill="none" stroke="#262626" stroke-width="0.5" stroke-linecap="butt" stroke-linejoin="miter" points="496.34,22.5 496.34,27.1405"/>
<polyline fill="none" stroke="#262626" stroke-width="0.5" stroke-linecap="butt" stroke-linejoin="miter" points="543,267 543,262.359"/>
<polyline fill="none" stroke="#262626" stroke-width="0.5" stroke-linecap="butt" stroke-linejoin="miter" points="543,22.5 543,27.1405"/>
<text fill="#262626" x="78" y="271.99" font-size="10" text-anchor="middle" dy="10" font-family="Open Sans">20</text>
<text fill="#262626" x="186.34" y="271.99" font-size="10" text-anchor="middle" dy="10" font-family="Open Sans">100</text>
<text fill="#262626" x="341.34" y="271.99" font-size="10" text-anchor="middle" dy="10" font-family="Open Sans">1000</text>
<text fill="#262626" x="496.34" y="271.99" font-size="10" text-anchor="middle" dy="10" font-family="Open Sans">10000</text>
<text fill="#262626" x="543" y="271.99" font-size="10" text-anchor="middle" dy="10" font-family="Open Sans">20000</text>
<polyline fill="none" stroke="#262626" stroke-width="0.5" stroke-linecap="butt" stroke-linejoin="miter" points="78,267 82.65,267"/>
<polyline fill="none" stroke="#262626" stroke-width="0.5" stroke-linecap="butt" stroke-linejoin="miter" points="543,267 538.35,267"/>
<polyline fill="none" stroke="#262626" stroke-width="0.5" stroke-linecap="butt" stroke-linejoin="miter" points="78,205.875 82.65,205.875"/>
<polyline fill="none" stroke="#262626" stroke-width="0.5" stroke-linecap="butt" stroke-linejoin="miter" points="543,205.875 538.35,205.875"/>
<polyline fill="none" stroke="#262626" stroke-width="0.5" stroke-linecap="butt" stroke-linejoin="miter" points="78,144.75 82.65,144.75"/>
<polyline fill="none" stroke="#262626" stroke-width="0.5" stroke-linecap="butt" stroke-linejoin="miter" points="543,144.75 538.35,144.75"/>
<polyline fill="none" stroke="#262626" stroke-width="0.5" stroke-linecap="butt" stroke-linejoin="miter" points="78,83.625 82.65,83.625"/>
<polyline fill="none" stroke="#262626" stroke-width="0.5" stroke-linecap="butt" stroke-linejoin="miter" points="543,83.625 538.35,83.625"/>
<polyline fill="none" stroke="#262626" stroke-width="0.5" stroke-linecap="butt" stroke-linejoin="miter" points="78,22.5 82.65,22.5"/>
<polyline fill="none" stroke="#262626" stroke-width="0.5" stroke-linecap="butt" stroke-linejoin="miter" points="543,22.5 538.35,22.5"/>
<text fill="#262626" x="73" y="267" font-size="10" text-anchor="end" dy="5" font-family="Open Sans">-10</text>
<text fill="#262626" x="73" y="205.875" font-size="10" text-anchor="end" dy="5" font-family="Open Sans">-5</text>
<text fill="#262626" x="73" y="144.75" font-size="10" text-anchor="end" dy="5" font-family="Open Sans">0</text>
<text fill="#262626" x="73" y="83.625" font-size="10" text-anchor="end" dy="5" font-family="Open Sans">5</text>
<text fill="#262626" x="73" y="22.5" font-size="10" text-anchor="end" dy="5" font-family="Open Sans">10</text>
<polyline fill="none" stroke="#262626" stroke-width="0.5" stroke-linecap="butt" stroke-linejoin="miter" stroke-dasharray="16,0" points="78,267 543,267"/>
<polyline fill="none" stroke="#262626" stroke-width="0.5" stroke-linecap="butt" stroke-linejoin="miter" stroke-dasharray="16,0" points="78,22.5 543,22.5"/>
<polyline fill="none" stroke="#262626" stroke-width="0.5" stroke-linecap="butt" stroke-linejoin="miter" stroke-dasharray="16,0" points="78,267 78,22.5"/>
<polyline fill="none" stroke="#262626" stroke-width="0.5" stroke-linecap="butt" stroke-linejoin="miter" stroke-dasharray="16,0" points="543,267 543,22.5"/>
<text fill="#262626" x="310.5" y="284.99" font-size="10" text-anchor="middle" dy="10" font-family="Open Sans">Frequency (Hz)</text>
<text fill="#262626" x="53" y="144.75" font-size="10" transform="rotate(-90, 53, 144.75)" text-anchor="middle" dy="0" font-family="Open Sans">Gain (dB)</text>
<polyline fill="none" stroke="#0071bc" stroke-width="0.5" stroke-linecap="butt" stroke-linejoin="miter" points="77.535,144.741 85.3923,144.74 112.686,144.728 132.052,144.71 147.073,144.688 159.346,144.66 169.723,144.627 178.712,144.589 186.64,144.546 193.733,144.497 200.148,144.442 206.006,144.382 211.394,144.316 216.382,144.243 221.027,144.165 225.371,144.08 229.452,143.988 233.3,143.889 236.939,143.783 240.392,143.67 243.677,143.549 246.808,143.419 249.8,143.281 252.665,143.134 255.413,142.978 258.053,142.812 260.594,142.635 263.042,142.448 265.404,142.249 267.686,142.039 269.894,141.815 272.031,141.579 274.102,141.328 276.112,141.062 278.063,140.781 279.96,140.483 281.804,140.167 283.599,139.833 285.348,139.479 287.052,139.104 288.714,138.706 290.336,138.285 291.92,137.838 293.468,137.365 294.981,136.864 296.46,136.332 297.908,135.768 299.325,135.17 300.713,134.536 302.073,133.863 303.406,133.149 304.713,132.392 305.995,131.588 307.254,130.735 308.489,129.83 309.702,128.87 310.893,127.852 312.064,126.772 313.215,125.627 314.346,124.414 315.459,123.129 316.553,121.768 317.63,120.329 318.691,118.809 319.734,117.204 320.762,115.513 321.774,113.734 322.771,111.865 323.754,109.907 324.723,107.86 325.678,105.729 326.619,103.515 327.548,101.228 328.464,98.8741 329.367,96.4668 330.259,94.0208 331.139,91.5548 332.007,89.0912 332.865,86.6562 333.712,84.2798 334.548,81.9953 335.374,79.8385 336.19,77.8467 336.996,76.0572 337.793,74.5054 338.58,73.2226 339.358,72.2346 340.127,71.5592 340.888,71.2056 341.64,71.1734 342.384,71.453 343.12,72.0264 343.848,72.8689 344.567,73.9506 345.28,75.2387 345.985,76.6993 346.682,78.2989 347.373,80.0054 348.056,81.7898 348.733,83.6257 349.402,85.4902 350.066,87.3639 350.722,89.2304 351.373,91.0763 352.017,92.891 352.655,94.666 353.287,96.395 353.913,98.0734 354.534,99.6978 355.148,101.266 355.758,102.778 356.361,104.232 356.96,105.629 357.553,106.97 358.141,108.256 358.724,109.488 359.301,110.668 359.874,111.797 360.442,112.879 361.006,113.913 361.564,114.903 362.118,115.851 362.668,116.757 363.213,117.625 363.754,118.455 364.29,119.25 364.822,120.011 365.35,120.74 365.874,121.439 366.394,122.108 366.91,122.75 367.422,123.366 367.93,123.957 368.434,124.524 368.934,125.068 369.431,125.591 369.924,126.094 370.414,126.576 370.9,127.041 371.382,127.488 371.862,127.918 372.337,128.332 372.81,128.73 373.279,129.115 373.745,129.485 374.207,129.842 374.667,130.187 375.123,130.519 375.577,130.84 376.027,131.15 376.474,131.449 376.918,131.739 377.36,132.019 377.798,132.289 378.234,132.551 378.667,132.804 379.097,133.05 379.524,133.287 379.949,133.517 380.371,133.74 380.791,133.957 381.207,134.166 381.622,134.37 382.033,134.567 382.443,134.759 382.849,134.945 383.254,135.125 383.656,135.301 384.055,135.471 384.452,135.637 384.847,135.798 385.24,135.955 385.63,136.107 386.018,136.256 386.404,136.4 386.787,136.541 387.169,136.678 387.548,136.811 387.925,136.941 388.3,137.067 388.673,137.191 389.044,137.311 389.413,137.429 389.779,137.543 390.144,137.655 390.507,137.764 390.868,137.87 391.227,137.974 391.584,138.075 391.939,138.174 392.293,138.271 392.644,138.365 392.994,138.458 393.342,138.548 393.688,138.636 394.032,138.722 394.375,138.807 394.716,138.889 395.055,138.97 395.392,139.049 395.728,139.126 396.062,139.202 396.395,139.276 396.725,139.349 397.054,139.42 397.382,139.489 397.708,139.557 398.032,139.624 398.355,139.689 398.677,139.754 398.996,139.816 399.315,139.878 399.631,139.938 399.947,139.998 400.261,140.056 400.573,140.113 400.884,140.169 401.193,140.223 401.501,140.277 401.808,140.33 402.113,140.382 402.417,140.433 402.72,140.483 403.021,140.532 403.321,140.58 403.619,140.627 403.917,140.674 404.213,140.72 404.507,140.764 404.8,140.808 405.092,140.852 405.383,140.894 405.673,140.936 405.961,140.977 406.248,141.018 406.534,141.058 406.819,141.097 407.102,141.135 407.384,141.173 407.665,141.21 407.945,141.247 408.224,141.283 408.502,141.318 408.778,141.353 409.053,141.387 409.328,141.421 409.601,141.455 409.873,141.487 410.144,141.52 410.413,141.551 410.682,141.582 410.95,141.613 411.216,141.644 411.482,141.673 411.746,141.703 412.01,141.732 412.272,141.76 412.534,141.788 412.794,141.816 413.053,141.843 413.312,141.87 413.569,141.897 413.826,141.923 414.081,141.949 414.336,141.974 414.589,141.999 414.842,142.024 415.094,142.048 415.344,142.072 415.594,142.096 415.843,142.119 416.091,142.142 416.338,142.165 416.584,142.187 416.829,142.21 417.074,142.231 417.317,142.253 417.56,142.274 417.801,142.295 418.042,142.316 418.282,142.336 418.521,142.356 418.76,142.376 418.997,142.396 419.234,142.415 419.469,142.434 419.704,142.453 419.938,142.472 420.172,142.49 420.404,142.508 420.636,142.526 420.867,142.544 421.097,142.562 421.326,142.579 421.555,142.596 421.783,142.613 422.01,142.63 422.236,142.646 422.462,142.662 422.686,142.678 422.91,142.694 423.134,142.71 423.356,142.726 423.578,142.741 423.799,142.756 424.019,142.771 424.239,142.786 424.458,142.8 424.676,142.815 424.894,142.829 425.111,142.843 425.327,142.857 425.542,142.871 425.757,142.885 425.971,142.898 426.184,142.912 426.397,142.925 426.609,142.938 426.82,142.951 427.031,142.964 427.241,142.976 427.45,142.989 427.659,143.001 427.867,143.013 428.075,143.025 428.281,143.037 428.488,143.049 428.693,143.061 428.898,143.072 429.102,143.084 429.306,143.095 429.509,143.106 429.712,143.118 429.913,143.129 430.115,143.139 430.315,143.15 430.515,143.161 430.715,143.171 430.914,143.182 431.112,143.192 431.31,143.202 431.507,143.213 431.703,143.223 431.899,143.232 432.095,143.242 432.289,143.252 432.484,143.262 432.677,143.271 432.871,143.281 433.063,143.29 433.255,143.299 433.447,143.308 433.638,143.317 433.828,143.326 434.018,143.335 434.207,143.344 434.396,143.353 434.585,143.361 434.772,143.37 434.96,143.379 435.146,143.387 435.332,143.395 435.518,143.403 435.703,143.412 435.888,143.42 436.072,143.428 436.256,143.436 436.439,143.444 436.622,143.451 436.804,143.459 436.986,143.467 437.167,143.474 437.347,143.482 437.528,143.489 437.707,143.497 437.887,143.504 438.066,143.511 438.244,143.518 438.422,143.526 438.599,143.533 438.776,143.54 438.952,143.547 439.128,143.553 439.304,143.56 439.479,143.567 439.654,143.574 439.828,143.58 440.002,143.587 440.175,143.593 440.348,143.6 440.52,143.606 440.692,143.613 440.863,143.619 441.035,143.625 441.205,143.631 441.375,143.637 441.545,143.644 441.715,143.65 441.883,143.656 442.052,143.662 442.22,143.667 442.388,143.673 442.555,143.679 442.722,143.685 442.888,143.691 443.054,143.696 443.22,143.702 443.385,143.707 443.55,143.713 443.714,143.718 443.878,143.724 444.042,143.729 444.205,143.734 444.368,143.74 444.53,143.745 444.692,143.75 444.854,143.755 445.015,143.761 445.176,143.766 445.336,143.771 445.496,143.776 445.656,143.781 445.815,143.786 445.974,143.79 446.133,143.795 446.291,143.8 446.449,143.805 446.606,143.81 446.764,143.814 446.92,143.819 447.077,143.824 447.233,143.828 447.388,143.833 447.544,143.837 447.698,143.842 447.853,143.846 448.007,143.851 448.161,143.855 448.315,143.86 448.468,143.864 448.621,143.868 448.773,143.872 448.925,143.877 449.077,143.881 449.228,143.885 449.38,143.889 449.53,143.893 449.681,143.897 449.831,143.901 449.981,143.905 450.13,143.909 450.279,143.913 450.428,143.917 450.576,143.921 450.724,143.925 450.872,143.929 451.02,143.933 451.167,143.937 451.314,143.94 451.46,143.944 451.606,143.948 451.752,143.952 451.898,143.955 452.043,143.959 452.188,143.963 452.332,143.966 452.477,143.97 452.621,143.973 452.764,143.977 452.908,143.98 453.051,143.984 453.194,143.987 453.336,143.991 453.478,143.994 453.62,143.997 453.762,144.001 453.903,144.004 454.044,144.007 454.185,144.011 454.325,144.014 454.465,144.017 454.605,144.02 454.744,144.024 454.884,144.027 455.023,144.03 455.161,144.033 455.3,144.036 455.438,144.039 455.576,144.042 455.713,144.045 455.85,144.048 455.987,144.051 456.124,144.054 456.26,144.057 456.396,144.06 456.532,144.063 456.668,144.066 456.803,144.069 456.938,144.072 457.073,144.075 457.207,144.078 457.342,144.08 457.476,144.083 457.609,144.086 457.743,144.089 457.876,144.092 458.009,144.094 458.142,144.097 458.274,144.1 458.406,144.102 458.538,144.105 458.669,144.108 458.801,144.11 458.932,144.113 459.063,144.116 459.193,144.118 459.324,144.121 459.454,144.123 459.584,144.126 459.713,144.128 459.842,144.131 459.972,144.133 460.1,144.136 460.229,144.138 460.357,144.141 460.485,144.143 460.613,144.145 460.741,144.148 460.868,144.15 460.995,144.153 461.122,144.155 461.249,144.157 461.375,144.16 461.502,144.162 461.628,144.164 461.753,144.167 461.879,144.169 462.004,144.171 462.129,144.173 462.254,144.176 462.378,144.178 462.503,144.18 462.627,144.182 462.75,144.184 462.874,144.187 462.997,144.189 463.121,144.191 463.244,144.193 463.366,144.195 463.489,144.197 463.611,144.199 463.733,144.201 463.855,144.203 463.977,144.206 464.098,144.208 464.219,144.21 464.34,144.212 464.461,144.214 464.581,144.216 464.702,144.218 464.822,144.22 464.942,144.222 465.061,144.224 465.181,144.226 465.3,144.227 465.419,144.229 465.538,144.231 465.657,144.233 465.775,144.235 465.893,144.237 466.011,144.239 466.129,144.241 466.247,144.243 466.364,144.244 466.481,144.246 466.598,144.248 466.715,144.25 466.831,144.252 466.948,144.253 467.064,144.255 467.18,144.257 467.296,144.259 467.411,144.26 467.527,144.262 467.642,144.264 467.757,144.266 467.872,144.267 467.986,144.269 468.101,144.271 468.215,144.272 468.329,144.274 468.443,144.276 468.556,144.278 468.67,144.279 468.783,144.281 468.896,144.282 469.009,144.284 469.121,144.286 469.234,144.287 469.346,144.289 469.458,144.29 469.57,144.292 469.682,144.294 469.793,144.295 469.905,144.297 470.016,144.298 470.127,144.3 470.238,144.301 470.348,144.303 470.459,144.304 470.569,144.306 470.679,144.307 470.789,144.309 470.899,144.31 471.008,144.312 471.118,144.313 471.227,144.315 471.336,144.316 471.445,144.318 471.553,144.319 471.662,144.321 471.77,144.322 471.878,144.323 471.986,144.325 472.094,144.326 472.202,144.328 472.309,144.329 472.416,144.33 472.523,144.332 472.63,144.333 472.737,144.335 472.844,144.336 472.95,144.337 473.056,144.339 473.163,144.34 473.268,144.341 473.374,144.343 473.48,144.344 473.585,144.345 473.691,144.347 473.796,144.348 473.901,144.349 474.005,144.35 474.11,144.352 474.214,144.353 474.319,144.354 474.423,144.356 474.527,144.357 474.631,144.358 474.734,144.359 474.838,144.361 474.941,144.362 475.044,144.363 475.147,144.364 475.25,144.365 475.353,144.367 475.455,144.368 475.558,144.369 475.66,144.37 475.762,144.371 475.864,144.373 475.966,144.374 476.067,144.375 476.169,144.376 476.27,144.377 476.371,144.378 476.472,144.38 476.573,144.381 476.674,144.382 476.774,144.383 476.875,144.384 476.975,144.385 477.075,144.386 477.175,144.387 477.275,144.389 477.374,144.39 477.474,144.391 477.573,144.392 477.672,144.393 477.771,144.394 477.87,144.395 477.969,144.396 478.068,144.397 478.166,144.398 478.265,144.399 478.363,144.4 478.461,144.401 478.559,144.402 478.657,144.404 478.754,144.405 478.852,144.406 478.949,144.407 479.046,144.408 479.143,144.409 479.24,144.41 479.337,144.411 479.434,144.412 479.53,144.413 479.627,144.414 479.723,144.415 479.819,144.416 479.915,144.417 480.011,144.418 480.106,144.419 480.202,144.419 480.297,144.42 480.393,144.421 480.488,144.422 480.583,144.423 480.678,144.424 480.772,144.425 480.867,144.426 480.962,144.427 481.056,144.428 481.15,144.429 481.244,144.43 481.338,144.431 481.432,144.432 481.526,144.433 481.619,144.433 481.713,144.434 481.806,144.435 481.899,144.436 481.992,144.437 482.085,144.438 482.178,144.439 482.27,144.44 482.363,144.441 482.455,144.441 482.548,144.442 482.64,144.443 482.732,144.444 482.824,144.445 482.916,144.446 483.007,144.447 483.099,144.447 483.19,144.448 483.281,144.449 483.372,144.45 483.464,144.451 483.554,144.452 483.645,144.452 483.736,144.453 483.826,144.454 483.917,144.455 484.007,144.456 484.097,144.456 484.187,144.457 484.277,144.458 484.367,144.459 484.457,144.46 484.546,144.46 484.636,144.461 484.725,144.462 484.814,144.463 484.904,144.464 484.992,144.464 485.081,144.465 485.17,144.466 485.259,144.467 485.347,144.467 485.436,144.468 485.524,144.469 485.612,144.47 485.7,144.47 485.788,144.471 485.876,144.472 485.964,144.473 486.051,144.473 486.139,144.474 486.226,144.475 486.313,144.476 486.4,144.476 486.487,144.477 486.574,144.478 486.661,144.479 486.748,144.479 486.834,144.48 486.921,144.481 487.007,144.481 487.094,144.482 487.18,144.483 487.266,144.483 487.352,144.484 487.437,144.485 487.523,144.486 487.609,144.486 487.694,144.487 487.78,144.488 487.865,144.488 487.95,144.489 488.035,144.49 488.12,144.49 488.205,144.491 488.29,144.492 488.374,144.492 488.459,144.493 488.543,144.494 488.627,144.494 488.712,144.495 488.796,144.496 488.88,144.496 488.964,144.497 489.047,144.497 489.131,144.498 489.215,144.499 489.298,144.499 489.381,144.5 489.465,144.501 489.548,144.501 489.631,144.502 489.714,144.503 489.797,144.503 489.879,144.504 489.962,144.504 490.045,144.505 490.127,144.506 490.209,144.506 490.292,144.507 490.374,144.507 490.456,144.508 490.538,144.509 490.62,144.509 490.701,144.51 490.783,144.51 490.865,144.511 490.946,144.512 491.027,144.512 491.109,144.513 491.19,144.513 491.271,144.514 491.352,144.515 491.433,144.515 491.513,144.516 491.594,144.516 491.675,144.517 491.755,144.517 491.835,144.518 491.916,144.519 491.996,144.519 492.076,144.52 492.156,144.52 492.236,144.521 492.316,144.521 492.395,144.522 492.475,144.522 492.555,144.523 492.634,144.523 492.713,144.524 492.793,144.525 492.872,144.525 492.951,144.526 493.03,144.526 493.109,144.527 493.187,144.527 493.266,144.528 493.345,144.528 493.423,144.529 493.502,144.529 493.58,144.53 493.658,144.53 493.736,144.531 493.814,144.531 493.892,144.532 493.97,144.532 494.048,144.533 494.126,144.533 494.203,144.534 494.281,144.535 494.358,144.535 494.435,144.536 494.513,144.536 494.59,144.537 494.667,144.537 494.744,144.538 494.821,144.538 494.898,144.538 494.974,144.539 495.051,144.539 495.127,144.54 495.204,144.54 495.28,144.541 495.357,144.541 495.433,144.542 495.509,144.542 495.585,144.543 495.661,144.543 495.737,144.544 495.812,144.544 495.888,144.545 495.964,144.545 496.039,144.546 496.115,144.546 496.19,144.547 496.265,144.547 496.34,144.548 496.415,144.548 496.491,144.548 496.565,144.549 496.64,144.549 496.715,144.55 496.79,144.55 496.864,144.551 496.939,144.551 497.013,144.552 497.088,144.552 497.162,144.552 497.236,144.553 497.31,144.553 497.384,144.554 497.458,144.554 497.532,144.555 497.606,144.555 497.679,144.556 497.753,144.556 497.826,144.556 497.9,144.557 497.973,144.557 498.046,144.558 498.12,144.558 498.193,144.559 498.266,144.559 498.339,144.559 498.412,144.56 498.485,144.56 498.557,144.561 498.63,144.561 498.703,144.561 498.775,144.562 498.848,144.562 498.92,144.563 498.992,144.563 499.064,144.564 499.136,144.564 499.208,144.564 499.28,144.565 499.352,144.565 499.424,144.566 499.496,144.566 499.567,144.566 499.639,144.567 499.711,144.567 499.782,144.567 499.853,144.568 499.925,144.568 499.996,144.569 500.067,144.569 500.138,144.569 500.209,144.57 500.28,144.57 500.351,144.571 500.421,144.571 500.492,144.571 500.563,144.572 500.633,144.572 500.704,144.572 500.774,144.573 500.844,144.573 500.915,144.574 500.985,144.574 501.055,144.574 501.125,144.575 501.195,144.575 501.265,144.575 501.334,144.576 501.404,144.576 501.474,144.577 501.543,144.577 501.613,144.577 501.682,144.578 501.752,144.578 501.821,144.578 501.89,144.579 501.959,144.579 502.028,144.579 502.097,144.58 502.166,144.58 502.235,144.581 502.304,144.581 502.373,144.581 502.441,144.582 502.51,144.582 502.578,144.582 502.647,144.583 502.715,144.583 502.784,144.583 502.852,144.584 502.92,144.584 502.988,144.584 503.056,144.585 503.124,144.585 503.192,144.585 503.26,144.586 503.328,144.586 503.395,144.586 503.463,144.587 503.53,144.587 503.598,144.587 503.665,144.588 503.733,144.588 503.8,144.588 503.867,144.589 503.934,144.589 504.001,144.589 504.068,144.59 504.135,144.59 504.202,144.59 504.269,144.591 504.336,144.591 504.402,144.591 504.469,144.592 504.536,144.592 504.602,144.592 504.669,144.592 504.735,144.593 504.801,144.593 504.867,144.593 504.934,144.594 505,144.594 505.066,144.594 505.132,144.595 505.198,144.595 505.263,144.595 505.329,144.596 505.395,144.596 505.46,144.596 505.526,144.596 505.592,144.597 505.657,144.597 505.722,144.597 505.788,144.598 505.853,144.598 505.918,144.598 505.983,144.599 506.048,144.599 506.113,144.599 506.178,144.599 506.243,144.6 506.308,144.6 506.373,144.6 506.438,144.601 506.502,144.601 506.567,144.601 506.631,144.602 506.696,144.602 506.76,144.602 506.824,144.602 506.889,144.603 506.953,144.603 507.017,144.603 507.081,144.604 507.145,144.604 507.209,144.604 507.273,144.604 507.337,144.605 507.401,144.605 507.464,144.605 507.528,144.605 507.591,144.606 507.655,144.606 507.719,144.606 507.782,144.607 507.845,144.607 507.909,144.607 507.972,144.607 508.035,144.608 508.098,144.608 508.161,144.608 508.224,144.608 508.287,144.609 508.35,144.609 508.413,144.609 508.476,144.61 508.538,144.61 508.601,144.61 508.664,144.61 508.726,144.611 508.789,144.611 508.851,144.611 508.913,144.611 508.976,144.612 509.038,144.612 509.1,144.612 509.162,144.612 509.224,144.613 509.286,144.613 509.348,144.613 509.41,144.613 509.472,144.614 509.534,144.614 509.596,144.614 509.657,144.614 509.719,144.615 509.78,144.615 509.842,144.615 509.903,144.615 509.965,144.616 510.026,144.616 510.087,144.616 510.148,144.616 510.21,144.617 510.271,144.617 510.332,144.617 510.393,144.617 510.454,144.618 510.515,144.618 510.576,144.618 510.636,144.618 510.697,144.619 510.758,144.619 510.818,144.619 510.879,144.619 510.939,144.62 511,144.62 511.06,144.62 511.121,144.62 511.181,144.62 511.241,144.621 511.301,144.621 511.361,144.621 511.422,144.621 511.482,144.622 511.542,144.622 511.601,144.622 511.661,144.622 511.721,144.623 511.781,144.623 511.841,144.623 511.9,144.623 511.96,144.623 512.019,144.624 512.079,144.624 512.138,144.624 512.198,144.624 512.257,144.625 512.316,144.625 512.376,144.625 512.435,144.625 512.494,144.626 512.553,144.626 512.612,144.626 512.671,144.626 512.73,144.626 512.789,144.627 512.847,144.627 512.906,144.627 512.965,144.627 513.024,144.627 513.082,144.628 513.141,144.628 513.199,144.628 513.258,144.628 513.316,144.629 513.375,144.629 513.433,144.629 513.491,144.629 513.549,144.629 513.607,144.63 513.666,144.63 513.724,144.63 513.782,144.63 513.84,144.63 513.897,144.631 513.955,144.631 514.013,144.631 514.071,144.631 514.129,144.631 514.186,144.632 514.244,144.632 514.301,144.632 514.359,144.632 514.416,144.632 514.474,144.633 514.531,144.633 514.589,144.633 514.646,144.633 514.703,144.633 514.76,144.634 514.817,144.634 514.874,144.634 514.931,144.634 514.988,144.634 515.045,144.635 515.102,144.635 515.159,144.635 515.216,144.635 515.272,144.635 515.329,144.636 515.386,144.636 515.442,144.636 515.499,144.636 515.555,144.636 515.612,144.637 515.668,144.637 515.725,144.637 515.781,144.637 515.837,144.637 515.893,144.638 515.95,144.638 516.006,144.638 516.062,144.638 516.118,144.638 516.174,144.639 516.23,144.639 516.286,144.639 516.341,144.639 516.397,144.639 516.453,144.639 516.509,144.64 516.564,144.64 516.62,144.64 516.676,144.64 516.731,144.64 516.787,144.641 516.842,144.641 516.897,144.641 516.953,144.641 517.008,144.641 517.063,144.641 517.118,144.642 517.174,144.642 517.229,144.642 517.284,144.642 517.339,144.642 517.394,144.643 517.449,144.643 517.504,144.643 517.558,144.643 517.613,144.643 517.668,144.643 517.723,144.644 517.777,144.644 517.832,144.644 517.886,144.644 517.941,144.644 517.995,144.644 518.05,144.645 518.104,144.645 518.159,144.645 518.213,144.645 518.267,144.645 518.322,144.645 518.376,144.646 518.43,144.646 518.484,144.646 518.538,144.646 518.592,144.646 518.646,144.646 518.7,144.647 518.754,144.647 518.808,144.647 518.861,144.647 518.915,144.647 518.969,144.647 519.022,144.648 519.076,144.648 519.13,144.648 519.183,144.648 519.237,144.648 519.29,144.648 519.343,144.649 519.397,144.649 519.45,144.649 519.503,144.649 519.557,144.649 519.61,144.649 519.663,144.65 519.716,144.65 519.769,144.65 519.822,144.65 519.875,144.65 519.928,144.65 519.981,144.651 520.034,144.651 520.087,144.651 520.139,144.651 520.192,144.651 520.245,144.651 520.298,144.651 520.35,144.652 520.403,144.652 520.455,144.652 520.508,144.652 520.56,144.652 520.613,144.652 520.665,144.653 520.717,144.653 520.77,144.653 520.822,144.653 520.874,144.653 520.926,144.653 520.978,144.653 521.03,144.654 521.083,144.654 521.134,144.654 521.186,144.654 521.238,144.654 521.29,144.654 521.342,144.655 521.394,144.655 521.446,144.655 521.497,144.655 521.549,144.655 521.601,144.655 521.652,144.655 521.704,144.656 521.755,144.656 521.807,144.656 521.858,144.656 521.91,144.656 521.961,144.656 522.012,144.656 522.064,144.657 522.115,144.657 522.166,144.657 522.217,144.657 522.268,144.657 522.32,144.657 522.371,144.657 522.422,144.658 522.473,144.658 522.524,144.658 522.574,144.658 522.625,144.658 522.676,144.658 522.727,144.658 522.778,144.659 522.828,144.659 522.879,144.659 522.93,144.659 522.98,144.659 523.031,144.659 523.081,144.659 523.132,144.66 523.182,144.66 523.233,144.66 523.283,144.66 523.333,144.66 523.384,144.66 523.434,144.66 523.484,144.66 523.534,144.661 523.584,144.661 523.635,144.661 523.685,144.661 523.735,144.661 523.785,144.661 523.835,144.661 523.884,144.662 523.934,144.662 523.984,144.662 524.034,144.662 524.084,144.662 524.134,144.662 524.183,144.662 524.233,144.662 524.282,144.663 524.332,144.663 524.382,144.663 524.431,144.663 524.481,144.663 524.53,144.663 524.58,144.663 524.629,144.663 524.678,144.664 524.728,144.664 524.777,144.664 524.826,144.664 524.875,144.664 524.924,144.664 524.974,144.664 525.023,144.664 525.072,144.665 525.121,144.665 525.17,144.665 525.219,144.665 525.267,144.665 525.316,144.665 525.365,144.665 525.414,144.665 525.463,144.666 525.511,144.666 525.56,144.666 525.609,144.666 525.657,144.666 525.706,144.666 525.755,144.666 525.803,144.666 525.852,144.667 525.9,144.667 525.948,144.667 525.997,144.667 526.045,144.667 526.093,144.667 526.142,144.667 526.19,144.667 526.238,144.668 526.286,144.668 526.334,144.668 526.382,144.668 526.431,144.668 526.479,144.668 526.527,144.668 526.575,144.668 526.622,144.668 526.67,144.669 526.718,144.669 526.766,144.669 526.814,144.669 526.862,144.669 526.909,144.669 526.957,144.669 527.005,144.669 527.052,144.67 527.1,144.67 527.147,144.67 527.195,144.67 527.242,144.67 527.29,144.67 527.337,144.67 527.385,144.67 527.432,144.67 527.479,144.671 527.527,144.671 527.574,144.671 527.621,144.671 527.668,144.671 527.716,144.671 527.763,144.671 527.81,144.671 527.857,144.671 527.904,144.672 527.951,144.672 527.998,144.672 528.045,144.672 528.092,144.672 528.138,144.672 528.185,144.672 528.232,144.672 528.279,144.672 528.326,144.673 528.372,144.673 528.419,144.673 528.466,144.673 528.512,144.673 528.559,144.673 528.605,144.673 528.652,144.673 528.698,144.673 528.745,144.673 528.791,144.674 528.837,144.674 528.884,144.674 528.93,144.674 528.976,144.674 529.023,144.674 529.069,144.674 529.115,144.674 529.161,144.674 529.207,144.675 529.253,144.675 529.299,144.675 529.346,144.675 529.391,144.675 529.438,144.675 529.483,144.675 529.529,144.675 529.575,144.675 529.621,144.675 529.667,144.676 529.713,144.676 529.758,144.676 529.804,144.676 529.85,144.676 529.895,144.676 529.941,144.676 529.987,144.676 530.032,144.676 530.078,144.676 530.123,144.677 530.169,144.677 530.214,144.677 530.26,144.677 530.305,144.677 530.35,144.677 530.396,144.677 530.441,144.677 530.486,144.677 530.531,144.677 530.577,144.678 530.622,144.678 530.667,144.678 530.712,144.678 530.757,144.678 530.802,144.678 530.847,144.678 530.892,144.678 530.937,144.678 530.982,144.678 531.027,144.679 531.072,144.679 531.116,144.679 531.161,144.679 531.206,144.679 531.251,144.679 531.296,144.679 531.34,144.679 531.385,144.679 531.429,144.679 531.474,144.679 531.519,144.68 531.563,144.68 531.608,144.68 531.652,144.68 531.697,144.68 531.741,144.68 531.785,144.68 531.83,144.68 531.874,144.68 531.918,144.68 531.963,144.681 532.007,144.681 532.051,144.681 532.095,144.681 532.139,144.681 532.184,144.681 532.228,144.681 532.272,144.681 532.316,144.681 532.36,144.681 532.404,144.681 532.448,144.682 532.492,144.682 532.536,144.682 532.579,144.682 532.623,144.682 532.667,144.682 532.711,144.682 532.755,144.682 532.798,144.682 532.842,144.682 532.886,144.682 532.929,144.682 532.973,144.683 533.017,144.683 533.06,144.683 533.104,144.683 533.147,144.683 533.191,144.683 533.234,144.683 533.277,144.683 533.321,144.683 533.364,144.683 533.408,144.683 533.451,144.684 533.494,144.684 533.537,144.684 533.581,144.684 533.624,144.684 533.667,144.684 533.71,144.684 533.753,144.684 533.796,144.684 533.839,144.684 533.882,144.684 533.925,144.684 533.968,144.685 534.011,144.685 534.054,144.685 534.097,144.685 534.14,144.685 534.183,144.685 534.226,144.685 534.268,144.685 534.311,144.685 534.354,144.685 534.396,144.685 534.439,144.685 534.482,144.686 534.524,144.686 534.567,144.686 534.61,144.686 534.652,144.686 534.695,144.686 534.737,144.686 534.78,144.686 534.822,144.686 534.864,144.686 534.907,144.686 534.949,144.686 534.992,144.687 535.034,144.687 535.076,144.687 535.118,144.687 535.161,144.687 535.203,144.687 535.245,144.687 535.287,144.687 535.329,144.687 535.371,144.687 535.413,144.687 535.455,144.687 535.497,144.687 535.539,144.688 535.581,144.688 535.623,144.688 535.665,144.688 535.707,144.688 535.749,144.688 535.791,144.688 535.832,144.688 535.874,144.688 535.916,144.688 535.958,144.688 535.999,144.688 536.041,144.688 536.083,144.689 536.124,144.689 536.166,144.689 536.207,144.689 536.249,144.689 536.291,144.689 536.332,144.689 536.373,144.689 536.415,144.689 536.456,144.689 536.498,144.689 536.539,144.689 536.58,144.689 536.622,144.69 536.663,144.69 536.704,144.69 536.746,144.69 536.787,144.69 536.828,144.69 536.869,144.69 536.91,144.69 536.951,144.69 536.992,144.69 537.034,144.69 537.074,144.69 537.116,144.69 537.156,144.69 537.197,144.691 537.238,144.691 537.279,144.691 537.32,144.691 537.361,144.691 537.402,144.691 537.443,144.691 537.483,144.691 537.524,144.691 537.565,144.691 537.606,144.691 537.646,144.691 537.687,144.691 537.728,144.691 537.768,144.692 537.809,144.692 537.849,144.692 537.89,144.692 537.93,144.692 537.971,144.692 538.011,144.692 538.052,144.692 538.092,144.692 538.133,144.692 538.173,144.692 538.213,144.692 538.254,144.692 538.294,144.692 538.334,144.693 538.374,144.693 538.415,144.693 538.455,144.693 538.495,144.693 538.535,144.693 538.575,144.693 538.615,144.693 538.656,144.693 538.696,144.693 538.736,144.693 538.776,144.693 538.816,144.693 538.856,144.693 538.896,144.694 538.935,144.694 538.975,144.694 539.015,144.694 539.055,144.694 539.095,144.694 539.135,144.694 539.174,144.694 539.214,144.694 539.254,144.694 539.294,144.694 539.333,144.694 539.373,144.694 539.413,144.694 539.452,144.694 539.492,144.695 539.531,144.695 539.571,144.695 539.61,144.695 539.65,144.695 539.689,144.695 539.729,144.695 539.768,144.695 539.808,144.695 539.847,144.695 539.886,144.695 539.926,144.695 539.965,144.695 540.004,144.695 540.044,144.695 540.083,144.695 540.122,144.696 540.161,144.696 540.2,144.696 540.24,144.696 540.279,144.696 540.318,144.696 540.357,144.696 540.396,144.696 540.435,144.696 540.474,144.696 540.513,144.696 540.552,144.696 540.591,144.696 540.63,144.696 540.669,144.696 540.708,144.696 540.746,144.697 540.785,144.697 540.824,144.697 540.863,144.697 540.902,144.697 540.94,144.697 540.979,144.697 541.018,144.697 541.056,144.697 541.095,144.697 541.134,144.697 541.172,144.697 541.211,144.697 541.25,144.697 541.288,144.697 541.327,144.697 541.365,144.698 541.404,144.698 541.442,144.698 541.48,144.698 541.519,144.698 541.557,144.698 541.596,144.698 541.634,144.698 541.672,144.698 541.711,144.698 541.749,144.698 541.787,144.698 541.825,144.698 541.864,144.698 541.902,144.698 541.94,144.698 541.978,144.698 542.016,144.699 542.054,144.699 542.092,144.699 542.13,144.699 542.169,144.699 542.207,144.699 542.245,144.699 542.282,144.699 542.32,144.699 542.358,144.699 542.396,144.699 542.434,144.699 542.472,144.699 542.51,144.699 542.548,144.699 542.586,144.699 542.623,144.699 542.661,144.7 542.699,144.7 542.737,144.7 542.774,144.7 542.812,144.7 542.85,144.7 542.887,144.7 542.925,144.7 542.962,144.7 543,144.7"/>
</g>
<clipPath id="cp00600300">
  <polygon points="0,300 600,300 600,0 0,0"/>
</clipPath>
<g clip-path="url(#cp00600300)">
</g>
</g>
</svg>
