<?xml-stylesheet type="text/css" href="https://fonts.googleapis.com/css?family=Open+Sans:300italic,400italic,600italic,700italic,400,600,700,300&amp;subset=latin,cyrillic-ext,latin-ext,cyrillic" ?><svg viewBox="0 0 460 288" xmlns="http://www.w3.org/2000/svg" xmlns:xlink="http://www.w3.org/1999/xlink"><defs><style>*{stroke-linecap:butt;stroke-linejoin:round}</style></defs><g id="figure_1"><path d="M0 288h460.8V0H0z" fill="#fefefe" id="patch_1"/><g id="axes_1"><path d="M54.723 246.197h380.984V14.3H54.723z" fill="#fff" id="patch_2"/><g id="matplotlib.axis_1"><g id="xtick_1"><g id="line2d_1"><defs><path d="M0 0v3.5" id="ma84d155ce6" stroke="#000" stroke-width=".8"/></defs><use x="54.723" xlink:href="#ma84d155ce6" y="246.197" stroke="#000" stroke-width=".8"/></g><text x="54.723" y="260.795" font-family="Open Sans" font-size="10" font-weight="400" text-anchor="middle" id="text_1">20</text></g><g id="xtick_2"><use x="143.489" xlink:href="#ma84d155ce6" y="246.197" stroke="#000" stroke-width=".8" id="line2d_2"/><text x="143.489" y="260.795" font-family="Open Sans" font-size="10" font-weight="400" text-anchor="middle" id="text_2">100</text></g><g id="xtick_3"><use x="270.483" xlink:href="#ma84d155ce6" y="246.197" stroke="#000" stroke-width=".8" id="line2d_3"/><text x="270.483" y="260.795" font-family="Open Sans" font-size="10" font-weight="400" text-anchor="middle" id="text_3">1000</text></g><g id="xtick_4"><use x="397.478" xlink:href="#ma84d155ce6" y="246.197" stroke="#000" stroke-width=".8" id="line2d_4"/><text x="397.478" y="260.795" font-family="Open Sans" font-size="10" font-weight="400" text-anchor="middle" id="text_4">10000</text></g><g id="xtick_5"><use x="435.707" xlink:href="#ma84d155ce6" y="246.197" stroke="#000" stroke-width=".8" id="line2d_5"/><text x="435.707" y="260.795" font-family="Open Sans" font-size="10" font-weight="400" text-anchor="middle" id="text_5">20000</text></g><g id="xtick_6"><g id="line2d_6"><defs><path d="M0 0v2" id="mbcb2eaec00" stroke="#000" stroke-width=".6"/></defs><use x="54.723" xlink:href="#mbcb2eaec00" y="246.197" stroke="#000" stroke-width=".6"/></g></g><g id="xtick_7"><use x="77.086" xlink:href="#mbcb2eaec00" y="246.197" stroke="#000" stroke-width=".6" id="line2d_7"/></g><g id="xtick_8"><use x="92.953" xlink:href="#mbcb2eaec00" y="246.197" stroke="#000" stroke-width=".6" id="line2d_8"/></g><g id="xtick_9"><use x="105.26" xlink:href="#mbcb2eaec00" y="246.197" stroke="#000" stroke-width=".6" id="line2d_9"/></g><g id="xtick_10"><use x="115.315" xlink:href="#mbcb2eaec00" y="246.197" stroke="#000" stroke-width=".6" id="line2d_10"/></g><g id="xtick_11"><use x="123.817" xlink:href="#mbcb2eaec00" y="246.197" stroke="#000" stroke-width=".6" id="line2d_11"/></g><g id="xtick_12"><use x="131.182" xlink:href="#mbcb2eaec00" y="246.197" stroke="#000" stroke-width=".6" id="line2d_12"/></g><g id="xtick_13"><use x="137.678" xlink:href="#mbcb2eaec00" y="246.197" stroke="#000" stroke-width=".6" id="line2d_13"/></g><g id="xtick_14"><use x="181.718" xlink:href="#mbcb2eaec00" y="246.197" stroke="#000" stroke-width=".6" id="line2d_14"/></g><g id="xtick_15"><use x="204.081" xlink:href="#mbcb2eaec00" y="246.197" stroke="#000" stroke-width=".6" id="line2d_15"/></g><g id="xtick_16"><use x="219.947" xlink:href="#mbcb2eaec00" y="246.197" stroke="#000" stroke-width=".6" id="line2d_16"/></g><g id="xtick_17"><use x="232.254" xlink:href="#mbcb2eaec00" y="246.197" stroke="#000" stroke-width=".6" id="line2d_17"/></g><g id="xtick_18"><use x="242.31" xlink:href="#mbcb2eaec00" y="246.197" stroke="#000" stroke-width=".6" id="line2d_18"/></g><g id="xtick_19"><use x="250.812" xlink:href="#mbcb2eaec00" y="246.197" stroke="#000" stroke-width=".6" id="line2d_19"/></g><g id="xtick_20"><use x="258.176" xlink:href="#mbcb2eaec00" y="246.197" stroke="#000" stroke-width=".6" id="line2d_20"/></g><g id="xtick_21"><use x="264.672" xlink:href="#mbcb2eaec00" y="246.197" stroke="#000" stroke-width=".6" id="line2d_21"/></g><g id="xtick_22"><use x="308.712" xlink:href="#mbcb2eaec00" y="246.197" stroke="#000" stroke-width=".6" id="line2d_22"/></g><g id="xtick_23"><use x="331.075" xlink:href="#mbcb2eaec00" y="246.197" stroke="#000" stroke-width=".6" id="line2d_23"/></g><g id="xtick_24"><use x="346.942" xlink:href="#mbcb2eaec00" y="246.197" stroke="#000" stroke-width=".6" id="line2d_24"/></g><g id="xtick_25"><use x="359.249" xlink:href="#mbcb2eaec00" y="246.197" stroke="#000" stroke-width=".6" id="line2d_25"/></g><g id="xtick_26"><use x="369.304" xlink:href="#mbcb2eaec00" y="246.197" stroke="#000" stroke-width=".6" id="line2d_26"/></g><g id="xtick_27"><use x="377.806" xlink:href="#mbcb2eaec00" y="246.197" stroke="#000" stroke-width=".6" id="line2d_27"/></g><g id="xtick_28"><use x="385.171" xlink:href="#mbcb2eaec00" y="246.197" stroke="#000" stroke-width=".6" id="line2d_28"/></g><g id="xtick_29"><use x="391.667" xlink:href="#mbcb2eaec00" y="246.197" stroke="#000" stroke-width=".6" id="line2d_29"/></g><g id="xtick_30"><use x="435.707" xlink:href="#mbcb2eaec00" y="246.197" stroke="#000" stroke-width=".6" id="line2d_30"/></g><text x="245.215" y="274.797" font-family="Open Sans" font-size="10" font-weight="400" text-anchor="middle" id="text_6">Frequency (Hz)</text></g><g id="matplotlib.axis_2"><g id="ytick_1"><g id="line2d_31"><defs><path d="M0 0h-3.5" id="m43cf41764d" stroke="#000" stroke-width=".8"/></defs><use x="54.723" xlink:href="#m43cf41764d" y="226.872" stroke="#000" stroke-width=".8"/></g><text x="47.723" y="230.671" font-family="Open Sans" font-size="10" font-weight="400" text-anchor="end" id="text_7">−150</text></g><g id="ytick_2"><use x="54.723" xlink:href="#m43cf41764d" y="194.664" stroke="#000" stroke-width=".8" id="line2d_32"/><text x="47.723" y="198.463" font-family="Open Sans" font-size="10" font-weight="400" text-anchor="end" id="text_8">−100</text></g><g id="ytick_3"><use x="54.723" xlink:href="#m43cf41764d" y="162.456" stroke="#000" stroke-width=".8" id="line2d_33"/><text x="47.723" y="166.256" font-family="Open Sans" font-size="10" font-weight="400" text-anchor="end" id="text_9">−50</text></g><g id="ytick_4"><use x="54.723" xlink:href="#m43cf41764d" y="130.248" stroke="#000" stroke-width=".8" id="line2d_34"/><text x="47.723" y="134.048" font-family="Open Sans" font-size="10" font-weight="400" text-anchor="end" id="text_10">0</text></g><g id="ytick_5"><use x="54.723" xlink:href="#m43cf41764d" y="98.041" stroke="#000" stroke-width=".8" id="line2d_35"/><text x="47.723" y="101.84" font-family="Open Sans" font-size="10" font-weight="400" text-anchor="end" id="text_11">50</text></g><g id="ytick_6"><use x="54.723" xlink:href="#m43cf41764d" y="65.833" stroke="#000" stroke-width=".8" id="line2d_36"/><text x="47.723" y="69.632" font-family="Open Sans" font-size="10" font-weight="400" text-anchor="end" id="text_12">100</text></g><g id="ytick_7"><use x="54.723" xlink:href="#m43cf41764d" y="33.625" stroke="#000" stroke-width=".8" id="line2d_37"/><text x="47.723" y="37.424" font-family="Open Sans" font-size="10" font-weight="400" text-anchor="end" id="text_13">150</text></g><text transform="rotate(-90 18.452 130.248)" x="18.452" y="130.248" font-family="Open Sans" font-size="10" font-weight="400" text-anchor="middle" id="text_14">Phase shift (degrees)</text></g><path clip-path="url(#pd9f1d78cc1)" d="M-1 127.906h55.779l38.229-2.325 22.362-2.288 15.867-2.235 12.307-2.167 10.056-2.089 8.501-2.001 7.365-1.907 12.307-3.517 14.47-4.53 17.948-5.714 8.502-2.468 5.018-1.288 4.598-1.015 4.245-.74 3.941-.457 3.678-.145 3.449.209 1.646.258 1.599.377 1.554.508 1.51.659 1.471.83 1.433 1.029 1.396 1.258 1.362 1.526 1.33 1.835 1.297 2.192 1.268 2.595 1.24 3.041 1.212 3.508 1.186 3.962 2.298 8.969 3.278 13.648 2.081 7.456 1.012 3.058.994 2.636.976 2.256.96 1.925 1.87 3.038 1.808 2.212 1.75 1.62 1.698 1.19 1.646.872 1.599.636 2.314.628 2.222.35 2.829.173 2.69-.054 3.19-.272 4.175-.612 4.415-.88 5.545-1.344 6.762-1.887 8.984-2.758 32.138-10.07 9.414-2.6 8.913-2.227 8.79-1.965 8.852-1.748 9.157-1.58 9.595-1.426 10.192-1.286 6.434-.705" fill="none" stroke="#1f77b4" stroke-linecap="square" stroke-width="1.5" id="line2d_38"/><path d="M54.723 246.197V14.3" fill="none" stroke="#000" stroke-linecap="square" stroke-width=".8" id="patch_3"/><path d="M435.707 246.197V14.3" fill="none" stroke="#000" stroke-linecap="square" stroke-width=".8" id="patch_4"/><path d="M54.723 246.197h380.984" fill="none" stroke="#000" stroke-linecap="square" stroke-width=".8" id="patch_5"/><path d="M54.723 14.3h380.984" fill="none" stroke="#000" stroke-linecap="square" stroke-width=".8" id="patch_6"/></g></g><defs><clipPath id="pd9f1d78cc1"><path d="M54.723 14.3h380.984v231.897H54.723z"/></clipPath></defs></svg>