<?xml-stylesheet type="text/css" href="https://fonts.googleapis.com/css?family=Open+Sans:300italic,400italic,600italic,700italic,400,600,700,300&amp;subset=latin,cyrillic-ext,latin-ext,cyrillic" ?><svg viewBox="0 0 460 180" xmlns="http://www.w3.org/2000/svg" xmlns:xlink="http://www.w3.org/1999/xlink"><defs><style>*{stroke-linecap:butt;stroke-linejoin:round}</style></defs><g id="figure_1"><path d="M0 180h460.8V0H0z" fill="#fefefe" id="patch_1"/><g id="axes_1"><path d="M24.802 138.197H446.5V14.3H24.802z" fill="#fff" id="patch_2"/><path clip-path="url(#p455494f374)" d="M24.802 79.375H446.5" fill="none" stroke="gray" stroke-linecap="square" stroke-width="1.5" id="line2d_1"/><g id="matplotlib.axis_1"><g id="xtick_1"><g id="line2d_2"><defs><path d="M0 0v3.5" id="mdcae2fc793" stroke="#000" stroke-width=".8"/></defs><use x="24.802" xlink:href="#mdcae2fc793" y="138.197" stroke="#000" stroke-width=".8"/></g><text x="24.802" y="152.795" font-family="Open Sans" font-size="10" font-weight="400" text-anchor="middle" id="text_1">0</text></g><g id="xtick_2"><use x="110.62" xlink:href="#mdcae2fc793" y="138.197" stroke="#000" stroke-width=".8" id="line2d_3"/><text x="110.62" y="152.795" font-family="Open Sans" font-size="10" font-weight="400" text-anchor="middle" id="text_2">20</text></g><g id="xtick_3"><use x="196.439" xlink:href="#mdcae2fc793" y="138.197" stroke="#000" stroke-width=".8" id="line2d_4"/><text x="196.439" y="152.795" font-family="Open Sans" font-size="10" font-weight="400" text-anchor="middle" id="text_3">40</text></g><g id="xtick_4"><use x="282.258" xlink:href="#mdcae2fc793" y="138.197" stroke="#000" stroke-width=".8" id="line2d_5"/><text x="282.258" y="152.795" font-family="Open Sans" font-size="10" font-weight="400" text-anchor="middle" id="text_4">60</text></g><g id="xtick_5"><use x="368.076" xlink:href="#mdcae2fc793" y="138.197" stroke="#000" stroke-width=".8" id="line2d_6"/><text x="368.076" y="152.795" font-family="Open Sans" font-size="10" font-weight="400" text-anchor="middle" id="text_5">80</text></g><text x="235.651" y="166.797" font-family="Open Sans" font-size="10" font-weight="400" text-anchor="middle" id="text_6">Time (milliseconds)</text></g><g id="matplotlib.axis_2"><text transform="rotate(-90 18.398 76.248)" x="18.398" y="76.248" font-family="Open Sans" font-size="10" font-weight="400" text-anchor="middle" id="text_7">Amplitude</text></g><path clip-path="url(#p455494f374)" d="M24.802 104.342l.097-.232.194-2.29.195-4.586.39-18.19.486-22.444.292-4.067.292-2.56.486-5.117.097.279.292 3.059.292 2.607.292.696.097.057.195.87.39 2.74.486 1.996.097.157.195-.413.291-.664.098.1.194 1.734.292 5.34.39 12.44.583 20.403.195 1.083.194-2.09.779-13.972.194-.666.098.165.292 2.439.292 2.597.291 1.042.195 1.877.292 6.102.486 10.686.292 3.208.292.973.098-.18.194-1.986.39-7.539.972-20.751.195-1.228.097.249.292 2.133.292 3.265.778 12.923.195-1.555.778-9.817.292-1.246.098.148.194 1.499.292 7.431.681 20.717.098.159.097-.9.194-4.891 1.557-58.93 1.265-16.817.195-.507.097.213.195 1.845.389 7.258.39 7.102.291 2.06.39-.51.096.15.195 1.277.292 5.413.681 17.574.195 1.085.097-.434.195-2.6.486-8.914.097-.589.098.171.194 1.718.487 6.603.389 2.834 1.46 18.408.389 2.388.194.053.195-.886.292-2.534.292-2.1.097.205.292 1.952.681 5.976.292 6.961.584 14.053.389 3.613.292 1.337.194.051.195-1.227.876-7.507.194.566.487 2.61.097-.46.195-2.911.292-10.3 1.264-56.557.487-11.095.486-5.648.39-3.483.097-.376.097.14.195 2.601.292 8.566 1.167 43.467.195 1.105.195-.07.291-.683.195.175.292 1.628.486 4.08.098-.22.194-1.426.584-7.677.292-1.274.195-.743.486-2.467.195.124.292 1.068.292.841.097-.04.194-.888.39-4.085.292-2.148.291-.7.39.63.194 1.135.39 5.33.486 6.59.195.718.194-.073.195.629.194 2.294.292 6.888.681 17.793.779 11.873.097.475.097-.119.195-1.37.39-3.222.096.41.195 2.597.681 11.39.097-.165.195-2.741.292-9.602 1.654-71.472.584-16.408.39-10.137.194-2.04.097-.068.195 1.944.291 7.156.39 15.478.583 20.93.195 1.478.097-.303.39-2.158.194 1.592.39 8.49.583 10.647.487 5.61.097.118.097-.191.292-2.079.876-7.095.194-.051.098.091.194.43.195-.507.973-5.642.584-7.64.097.158.195 1.821.486 6.214.195.526.097-.304.681-4.15h.097l.195.377.292 1.337.292 2.905.292 5.29.584 11.455.291 1.968.39.829.194 1.3.195 2.726.39 10.774.388 10.065.195 1.441.097-.3.195-2.69.292-8.787 1.362-53.54 1.362-23.225.195-.507.194 1.836.292 8.018.681 23.64.195.824.195-.922.291-.825.195.322.487 3.615.973 10.967.486 2.03.487 1.632.194.057.292-.33.195-.01.194-.192.098-.018.291.564.487 2.042.097-.068.098-.203.194-1.48.487-4.922.097-.366.097.118.195 1.299.486 4.16.098-.067.194-1.132 1.362-13.092.098.202.194 1.52.39 6.713.583 10.281.195.814.097-.008.292-.61.195 1.591.292 6.817.583 16.69.292 3.38.098.048.097-.211.195-2.056.291-8.105.973-35.484 1.168-19.353.681-13.53.097.027.195 2.707.973 22.288.195.56.292.49.097.32.389 3.543.681 8.596.681 5.309.195.022.097-.112.292-.745.39-.153.388-1.268.292-1.026.098.184.194 1.573.681 8.972.098-.128.292-2.658.194-1.749.097-.242.098.208.292 3.531.389 5.506.486 3.029.292.958.098.068.097-.155.194-1.376.876-9.565.195 1.065.389 5.555.292 3.385.097.313.097-.081.195-1.104.292-1.954.097-.065.195.973.292 3.644.584 10.822.291 4.354.098.651.097-.132.195-2.646.292-9.312.875-29.99.584-14.442.39-6.741.388-12.932.39-11.602.194-1.27.195 1.907.486 10.644.487 8.773.292 2.438.292 1.232.194 1.302.292 3.312 1.168 13.403.389.819.195 1.148.778 5.365.195.197.097.306.194 1.856.292 6.627.39 9.43.194 1.79.097-.088.195-.99.487-2.62.486-.648.097.018.292.577.39.647.097.022.194-.647.195-1.333.292-3.73.68-9.934.098-.11.098.323.291 4.02.487 7.945.195.924.194-.303.195-.469.097-.158.195.616.292 3.4.291 5.605.876 20.41.097-.25.195-2.85.292-8.283 1.168-39.412.389-6.717.389-12.37.681-24.478.195-2.393.097-.346.195 1.968.291 6.98.584 15.174.39 5.251.972 10.035.487 6.768.292 2.239.973 3.016.097-.095.487-2.652.097.295.195 2.418.875 15.335.098.122.097-.155.876-4.907.097.045.292 1.581.68 6.46.39 3.522.097.088.195-1.153.584-6.849.097.033.195 1.585.583 8.165.195.667.097.03.292-.66.195-.976.584-4.514.097.272.195 2.58.973 18.896.097.479.097-.082.195-1.828.292-7.289.778-23.853.487-5.492.194-2.794.292-7.452.973-29.738.195-.92.097.307.195 1.985.486 9.76.39 6.92.291 2.355.39 2.121.291 2.848.292 2.69.195.251.194-.739.195-.684.097.043.195 1.264.486 5.435.195.29.39-1.446.096.097.098.408.292 3.759 1.07 19.664.292 1.857.194.505.195-.312.487-1.13.097.074.194 1.005.292 3.092.487 5.801.097.196.195-1.413.875-12.477.098-.078.194.737.292 2.272.487 4.189.097-.133.195-1.25.486-5.298.097-.142.098.232.194 1.693.39 7.308.973 21.905.194-2.758.292-9.516.681-23.31.876-18.471 1.265-36.305.097.088.195 1.498.389 6.188.389 5 .681 4.8.584 6.272h.097l.195-.86.292-1.406.097-.13.195.633.389 1.873.194.234.584-.26.098.282.194 1.628.292 4.835.778 15.133.292 2.445.876 3.818.195.47.194 1.159.292 4.362.487 7.618.097.397.097-.087.195-1.191.778-6.644.195-.232.097.198.195 1.449.68 5.73.195-.599.973-6.208.195 1.138.292 4.547.876 17.489.097-.411.195-3.007 1.07-24.822.584-9.292.486-15.142.584-17.126.292-3.637.097-.238.097.307.195 1.769.487 4.883.194.415.097.086.098-.228.097.148.195 1.095.778 6.642.195-.163.194-.283.195.562.292 2.473.486 3.918.195.214.292-.51.194.164.195 1.323.292 4.321 1.07 20.904.39 3.688.194.023.195-.934.291-1.845.098-.016.097.358.195 2.256.778 12.306.097.564.098-.06.097-.319.195-1.895.389-6.99.292-4.663.194-.885.098.208.291 2.776.487 4.769.097.383.098-.114.194-.916.292-2.494.39-3.352.194-.489.194 1.421.292 6.353.681 20.59.195 1.205.097-.639.292-5.805.681-16.5.876-15.438.39-12.508.778-29.26.292-2.615.194.269.681 2.542.195 1.734.486 7.328.39 4.653.778 5.1.584 5.842.194.886.098-.102.194-.922.487-2.542.194.563.292 2.575.39 5.445.486 10.387.486 8.39.195.847.097-.014.39-.54.097.102.292 2.329.292 4.817.583 10.914.098.44.097-.163.195-2.257.486-11.344.39-6.497.194-.905.097.038.292 1.454.584 4.353.195.214.194-1.152.681-7.277.098.24.194 2.474.292 7.628.584 16.494.194 2.005.098.05.194-1.371.39-6.382.68-10.393.39-4.555.292-6.237.486-17.92.487-15.396.389-5.117.39-2.1.194-.379.097.114.195 1.007.486 5.714.39 3.342.194.306.097-.068.39-.653.097.201.292 2.001.389 3.444.194.222.195-.65.487-2.026.194-.165.195.344.194.89.195 1.786.292 5.632.973 22.3.194.833.098-.038.486-1.15.098.083.194 1.122.39 4.893.389 4.134.097.224.097-.224.195-1.592.973-13.373.194-.417.098.15.292 1.688.778 6.173.195-.814.583-5.025.098.1.194 1.968.292 6.35.584 13.013.292 2.296.097.087.097-.27.292-2.494.681-7.014.39-2.774.194-3.285.292-9.152.779-28.877.486-8.591.487-5.154.194-.605.097.019.195 1.138.292 3.38.486 6.172.292 1.353.098.163.292 1.696.778 7.849.292.708.194.285.195.234.097.035.195-.273.39-1.04.096.195.195 1.231.292 4.664 1.07 22.253.195.72.194-.286.39-.877.097.317.195 1.734.875 11.696.098.014.194-1.12.292-3.126.778-8.907.195-.51.097.12.195.989.486 3.057.098-.257.194-1.707.681-9.954.098.247.194 2.055.39 9.266.68 17.883.293 2.49.097.012.292-1.413.194-.898.098-.034.097.236.486 2.394.098-.188.194-2.566.292-8.696 1.168-42.48.486-8.994.195-1.692.097-.12.098.102.291 2.099.39 3.07.194.4.195.09.194.126.195.757.487 4.356.486 4.734.292 1.185.097.077.292-.67.39-1.935.389-1.71.097.037.194 1.134.292 4.406.973 19.921.195.578.195-.617.291-1.15.195.377.292 2.909.778 9.267.098.366.194-.655.195-1.714.292-4.514.68-10.674.195-.576.195 1.062.487 3.281.194-.75.39-5.354.291-3.525.098-.422.097.045.097.548.195 2.835.389 10.735.584 18.091.194 2.455.098.17.097-.174.681-4.395.195.112.194.222.195-.489.195-2.06.291-6.403 1.752-53.09.097-.676.097.024.195 1.28.681 6.809.292.796.39.376.291.735.584 3.129.778 5.848.098.124.097-.106.39-1.946.291-1.596.097-.085.098.197.194 1.661.195 3.501.973 21.8.194.195.39-1.03.097.055.097.236.195 1.496.389 5.626.487 6.514.194 1.41.097.2.098-.175.194-1.66.39-8.157.389-8.014.194-1.465.098.004.292 2.465.291 2.566.098.308.097-.129.097-.427.292-3.599.584-8.426.097-.463.098.14.194 2.152.292 8.006.584 18.134.292 3.486.194.523.292-.034.098.069.194.888.584 4.752.097-.108.098-.435.194-2.53.39-8.712.583-16.66.973-31.059.292-3.385.195-.814.194-.018.681 1.455.973 3.303.487 4.643.584 5.915.194.501.098-.022.292-1.185.291-1.335.098-.065.194.869.292 4.231.876 15.763.292.737.194.629.195 1.064.487 4.965.486 6.635.487 6.225.097.346.097-.057.195-1.79.292-5.764.486-8.701.195-.817.194.707.681 3.637.098-.222.194-1.74.39-6.56.291-4.244.098-.527.097.116.097.637.292 5.784.779 18.76.292 2.004.291 1.095.195 1.333.584 4.635.097.096.195-.776.292-3.045.389-7.248.486-13.994.973-30.275.292-3.38.292-1.436.195-.23.194.444.487 2.347.68 3.969.487 4.203.487 2.82.195.416.097.015.194-.74.292-2.991.487-5.107.097-.061.195 1.245.292 4.788.486 8.7.39 3.76.486 3.943.486 6.22.487 9.608.584 11.763.097.427.097-.393.195-2.495.973-18.058.097-.165.195.83.584 5.392.097-.08.194-1.53.487-9.068.292-3.592.097-.157.097.37.195 2.707.973 19.53.681 4.696.487 4.267.194.498.098-.047.194-.985.292-2.809.292-4.858.486-13.446.876-26.813.39-6.278.291-2.406.195-.702.194-.216.195.074.681 1.73.39 1.223.291 2.19.487 4.71.389 3.226.097.145.098-.236.194-1.865.584-7.39.097-.2.098.202.194 1.876.487 8.86.486 6.834.39 2.367.194.348.195-.163.097-.081.097.095.195.861.194 2.473.487 11.132.389 6.314.097.48.098-.223.194-1.82.487-9.174.292-3.908.097-.364.097.096.195 1.424.389 6.154.39 4.624.097.075.194-1.514.681-9.754.098-.039.194 1.39.39 6.48.486 7.879 1.07 13.057.292 1.635.195.397.292.258.194-.56.195-1.516.292-4.822.389-10.682 1.167-34.501.292-3.843.39-2.172.291-.804.39-.739.194.057.39.064.194.671.292 2.98.681 10.784.097.295.098-.185.292-3.047.486-6.48.195-.498.194 1.046.292 3.723.584 10.377.486 6.861.195.705.292-.074.097.11.098.306.194 1.646.39 6.998.68 13.786.195.992.097-.322.195-1.9.876-12.324.097.112.195 1.283.486 4.372.097-.106.098-.454.292-4.095.583-8.812.098-.38.097.105.195 1.228.875 10.77.584 9.84.584 9.089.389 3.6.195.611.097-.002.195-.859.291-3.354.292-6.113.584-17.588.681-20.692.584-9.992.292-2.26.195-.494.389-.25.389-2.024.292-1.136.097-.002.195 1.118.292 3.704.486 7.348.097.438.098-.045.194-1.319.779-8.72.194-.433.098-.012.097.285.195 1.736.389 7.45.486 8.477.292 1.881.292.413.292.55.195 1.492.291 4.638.779 15.097.194.872.195-1.01.39-6.047.388-5.089.098-.376.097.122.195 1.156.486 4.063.097.048.195-1.044.778-8.26.098-.065.097.177.292 1.83.876 8.087 1.751 20.448.097.336.195-.535.292-3.062.39-7.629L371.675 66l.39-3.737.291-.881.292-.656.195-1.083.778-7.356.098.175.194 1.826.876 12.105.097.116.097-.194.292-1.79.681-4.497.098-.149.097.129.195.99.292 3.284.778 10.959.195.684.097.05.292.945.194 1.187.292 3.163.973 15.569.098.16.194-1.115.292-3.72.487-5.738.097-.094.194 1.1.487 4.41.097.098.195-1.458.973-11.726.097-.112.097.063.292 1.07.681 4.12.779 6.484 1.46 18.382.097-.108.194-1.278.292-4.77.584-14.993.876-24.107.389-4.4.194-.524.195-.28.195-.738.194-1.816.584-6.928.097-.202.195 1.01.292 3.96 1.07 17.512.097.24.098-.053.194-.896.779-5.707.194.574.195 1.551.778 8.176.292.994.098-.08.194.308.292 1.76.292 3.752.876 12.585.097-.193.195-1.7.583-7.136.098-.247.097.047.195 1.004.583 4.032.098.098.194-1.207.292-3.695.584-6.764.39-2.147.194-.193.097.09.39 2.2.583 4.822.584 5.784 1.265 8.822.194.02.292-1.453.292-3.65.39-8.968.778-21.987.292-2.833.097-.147.195.707.291 1.225.292.236.195-.287.292-.62.194-.054.195.723.292 2.457 1.168 12.324.097-.07.097-.255.292-2.577.876-9.276.194-.254.195.592.39 2.89.972 9.189.39 5.104.68 10.858.195.378.195-.755.583-3.705.195.344.292 2.176.39 2.773.194.27.097.004.195-.309.292-1.565 1.07-9.897.39-1.402.096.05.195.614 1.07 6.476.195.511.097-.024.195.179.097.01.292-.543.097-.2.098.067.389-.5.194-.54.195-.906.195-1.66.291-4.918.876-18.918.195-.582.194.833 1.85 15.194 1.07 10.902.097.159.097-.136.292-1.79 1.46-15.589.194-.287.195-.022.194.16.292-.254.097-.104.098.088.194 1.01.292 3.865.876 13.786.097.264.097-.083.39-.727.194.631.292 2.508 1.07 12.145.098.11.194-.865.292-2.495.584-6.679.778-8.941.292-1.452.292-.604.681.682.292.33.195.057.097-.053.39-1.454.291-.775.098-.039.194.49.292.7.097-.068.195-1.03.292-3.731.681-10.436.195-.887.097-.023.097.094.195.761.486 3.668.779 6.08 1.362 8.756.194.202.195-.597.292-1.636.292-2.447.292-3.606.68-8.722.877-5.01.291-1.109.098-.134.194.708.195 2.09.292 6.131.584 12.738.292 2.764.291 1.079.292.36.195.397.292 1.608.681 5.791" fill="none" stroke="#1f77b4" stroke-linecap="square" stroke-width="1.5" id="line2d_7"/><path d="M24.802 138.197V14.3" fill="none" stroke="#000" stroke-linecap="square" stroke-width=".8" id="patch_3"/><path d="M446.5 138.197V14.3" fill="none" stroke="#000" stroke-linecap="square" stroke-width=".8" id="patch_4"/><path d="M24.802 138.197H446.5" fill="none" stroke="#000" stroke-linecap="square" stroke-width=".8" id="patch_5"/><path d="M24.802 14.3H446.5" fill="none" stroke="#000" stroke-linecap="square" stroke-width=".8" id="patch_6"/></g></g><defs><clipPath id="p455494f374"><path d="M24.802 14.3H446.5v123.897H24.802z"/></clipPath></defs></svg>