<?xml-stylesheet type="text/css" href="https://fonts.googleapis.com/css?family=Open+Sans" ?><svg xmlns="http://www.w3.org/2000/svg" viewBox="0 0 600 300"><path fill="#fff" d="M0 0h600v300H0z"/><path fill="#fefefe" shape-rendering="crispEdges" d="M0 300h600V0H0z"/><clipPath id="a"><path d="M0 300h600V0H0z"/></clipPath><g clip-path="url(#a)"><path fill="#fff" shape-rendering="crispEdges" d="M60 250h500L60 5z"/><path fill="#fff" shape-rendering="crispEdges" d="M560 250V5H60z"/><path fill="none" stroke="#262626" stroke-width=".5" d="M60 250v-5M60 5v5M176.495 250v-5M176.495 5v5M343.162 250v-5M343.162 5v5M509.828 250v-5M509.828 5v5M560 250v-5M560 5v5"/><text fill="#262626" x="60" y="255" font-size="10" text-anchor="middle" dy="10" font-family="Open Sans">20</text><text fill="#262626" x="176.495" y="255" font-size="10" text-anchor="middle" dy="10" font-family="Open Sans">100</text><text fill="#262626" x="343.162" y="255" font-size="10" text-anchor="middle" dy="10" font-family="Open Sans">1000</text><text fill="#262626" x="509.828" y="255" font-size="10" text-anchor="middle" dy="10" font-family="Open Sans">10000</text><text fill="#262626" x="560" y="255" font-size="10" text-anchor="middle" dy="10" font-family="Open Sans">20000</text><path fill="none" stroke="#262626" stroke-width=".5" stroke-dasharray="16,0" d="M60 250h500M60 5h500M60 250V5M560 250V5"/><text fill="#262626" x="310" y="268" font-size="10" text-anchor="middle" dy="10" font-family="Open Sans">Frequency (Hz)</text><text fill="#262626" x="51" y="127.5" font-size="10" transform="rotate(-90 51 127.5)" text-anchor="middle" dy="0" font-family="Open Sans">Amplitude</text><path fill="none" stroke="#0071bc" stroke-width=".5" d="M243.347 250.245l.35-59.145.363-44.768.361-33.196.359-24.247.358-16.736.355-10.028.354-3.72.352 2.49.351 8.892.349 15.828.347 23.783.345 33.613.344 47.071.3 60.163M294.789 250.245l.163-38.47.179-30.467.178-21.536.178-14.306.178-8.061.177-2.354.177 3.151.176 8.76.176 14.833.176 21.888.175 30.813.143 35.749M325.034 250.245l.098-29.93.118-25.309.117-16.626.118-8.999.117-1.834.118 5.309.117 12.868.117 21.41.116 31.883.028 11.228"/></g></svg>