<?xml version="1.0" encoding="UTF-8" standalone="no"?>
<?xml-stylesheet type="text/css" href="https://fonts.googleapis.com/css?family=Open+Sans" ?>
<svg xmlns="http://www.w3.org/2000/svg"
     xmlns:xlink="http://www.w3.org/1999/xlink"
     width="600px" height="180px" viewBox="0 0 600 180">
<title>gl2ps_renderer figure</title>
<desc>
Creator: GL2PS 1.4.0, (C) 1999-2017 C. Geuzaine
For: Octave
</desc>
<defs>
</defs>
<polygon fill="#ffffff" points="0,0 600,0 600,180 0,180"/>
<g>
<polygon fill="#fefefe" points="0,180 600,180 600,0 0,0" shape-rendering="crispEdges"/>
<clipPath id="cp00600180">
  <polygon points="0,180 600,180 600,0 0,0"/>
</clipPath>
<g clip-path="url(#cp00600180)">
<polygon fill="#ffffff" shape-rendering="crispEdges" points="78,149.01 543,149.01 78,13.5"/>
<polygon fill="#ffffff" shape-rendering="crispEdges" points="543,149.01 543,13.5 78,13.5"/>
<polyline fill="none" stroke="#262626" stroke-width="0.5" stroke-linecap="butt" stroke-linejoin="miter" points="78,149.01 78,144.377"/>
<polyline fill="none" stroke="#262626" stroke-width="0.5" stroke-linecap="butt" stroke-linejoin="miter" points="78,13.5 78,18.1333"/>
<polyline fill="none" stroke="#262626" stroke-width="0.5" stroke-linecap="butt" stroke-linejoin="miter" points="172.631,149.01 172.631,144.377"/>
<polyline fill="none" stroke="#262626" stroke-width="0.5" stroke-linecap="butt" stroke-linejoin="miter" points="172.631,13.5 172.631,18.1333"/>
<polyline fill="none" stroke="#262626" stroke-width="0.5" stroke-linecap="butt" stroke-linejoin="miter" points="267.262,149.01 267.262,144.377"/>
<polyline fill="none" stroke="#262626" stroke-width="0.5" stroke-linecap="butt" stroke-linejoin="miter" points="267.262,13.5 267.262,18.1333"/>
<polyline fill="none" stroke="#262626" stroke-width="0.5" stroke-linecap="butt" stroke-linejoin="miter" points="361.892,149.01 361.892,144.377"/>
<polyline fill="none" stroke="#262626" stroke-width="0.5" stroke-linecap="butt" stroke-linejoin="miter" points="361.892,13.5 361.892,18.1333"/>
<polyline fill="none" stroke="#262626" stroke-width="0.5" stroke-linecap="butt" stroke-linejoin="miter" points="456.523,149.01 456.523,144.377"/>
<polyline fill="none" stroke="#262626" stroke-width="0.5" stroke-linecap="butt" stroke-linejoin="miter" points="456.523,13.5 456.523,18.1333"/>
<text fill="#262626" x="78" y="153.992" font-size="10" text-anchor="middle" dy="10" font-family="Open Sans">0</text>
<text fill="#262626" x="172.631" y="153.992" font-size="10" text-anchor="middle" dy="10" font-family="Open Sans">20</text>
<text fill="#262626" x="267.262" y="153.992" font-size="10" text-anchor="middle" dy="10" font-family="Open Sans">40</text>
<text fill="#262626" x="361.892" y="153.992" font-size="10" text-anchor="middle" dy="10" font-family="Open Sans">60</text>
<text fill="#262626" x="456.523" y="153.992" font-size="10" text-anchor="middle" dy="10" font-family="Open Sans">80</text>
<polyline fill="none" stroke="#262626" stroke-width="0.5" stroke-linecap="butt" stroke-linejoin="miter" stroke-dasharray="16,0" points="78,149.01 543,149.01"/>
<polyline fill="none" stroke="#262626" stroke-width="0.5" stroke-linecap="butt" stroke-linejoin="miter" stroke-dasharray="16,0" points="78,13.5 543,13.5"/>
<polyline fill="none" stroke="#262626" stroke-width="0.5" stroke-linecap="butt" stroke-linejoin="miter" stroke-dasharray="16,0" points="78,149.01 78,13.5"/>
<polyline fill="none" stroke="#262626" stroke-width="0.5" stroke-linecap="butt" stroke-linejoin="miter" stroke-dasharray="16,0" points="543,149.01 543,13.5"/>
<text fill="#262626" x="310.5" y="166.992" font-size="10" text-anchor="middle" dy="10" font-family="Open Sans">Time (milliseconds)</text>
<text fill="#262626" x="69" y="81.2551" font-size="10" transform="rotate(-90, 69, 81.2551)" text-anchor="middle" dy="0" font-family="Open Sans">Amplitude</text>
<polyline fill="none" stroke="#0071bc" stroke-width="0.5" stroke-linecap="butt" stroke-linejoin="miter" points="78,106.618 78.1073,106.382 78.2146,105.371 78.3218,104.056 78.4292,102.052 78.5364,99.3973 78.6437,95.6775 78.751,91.1822 78.8583,86.0915 78.9656,80.9181 79.0729,75.6785 79.1802,70.6332 79.2875,65.7823 79.3948,61.467 79.502,58.1194 79.6093,55.9689 79.7166,54.7283 79.8239,53.9881 79.9312,53.3347 80.0385,52.4145 80.1458,51.3869 80.2531,50.2393 80.3604,48.9635 80.4677,47.6546 80.575,46.6725 80.6823,46.1886 80.7896,46.4719 80.8968,47.2307 81.0041,48.3597 81.1114,49.5797 81.2187,50.7066 81.326,51.7032 81.4333,52.2284 81.5406,52.6027 81.6479,52.8322 81.7552,52.9356 81.8625,52.9935 81.9698,53.3946 82.077,53.8764 82.1843,54.7841 82.2916,55.6195 82.3989,56.2708 82.5062,56.6596 82.6135,57.1165 82.7208,57.6314 82.8281,58.0511 82.9354,58.4771 83.0427,58.688 83.15,58.8472 83.2572,58.7211 83.3645,58.4275 83.4718,58.1897 83.5791,57.8588 83.6864,57.7534 83.7937,57.8547 83.901,58.413 84.0083,59.6164 84.1156,61.0493 84.2229,62.8669 84.3302,65.0421 84.4374,67.5048 84.5448,70.4678 84.652,73.9912 84.7593,77.6779 84.8666,81.6687 84.9739,85.833 85.0812,89.8465 85.1885,93.5849 85.2958,96.3929 85.4031,98.4048 85.5104,99.3435 85.6176,99.5048 85.7249,98.7749 85.8322,97.3813 85.9395,95.4355 86.0468,93.3327 86.1541,91.1616 86.2614,89.0628 86.3687,87.297 86.476,85.5746 86.5833,84.2037 86.6906,83.1884 86.7979,82.6281 86.9052,82.5123 87.0124,82.6798 87.1197,83.358 87.227,84.1065 87.3343,85.1569 87.4416,86.4182 87.5489,87.2246 87.6562,87.7953 87.7635,88.1199 87.8708,88.4756 87.9781,88.854 88.0854,89.6294 88.1926,90.7604 88.2999,92.4518 88.4072,94.5382 88.5145,96.9595 88.6218,99.4883 88.7291,101.926 88.8364,104.256 88.9437,106.122 89.051,107.815 89.1582,109.2 89.2656,110.342 89.3728,111.074 89.4801,111.603 89.5874,111.957 89.6947,112.062 89.802,111.88 89.9093,111.111 90.0166,109.862 90.1239,108.342 90.2312,106.547 90.3385,104.509 90.4458,102.203 90.5531,99.8563 90.6603,97.5798 90.7676,95.3487 90.8749,93.2686 90.9822,90.9713 91.0895,88.5955 91.1968,86.2755 91.3041,84.2905 91.4114,82.4957 91.5187,81.1228 91.626,80.2585 91.7332,79.8759 91.8405,80.1282 91.9478,80.703 92.0551,81.4867 92.1624,82.2952 92.2697,83.1367 92.377,84.3836 92.4843,85.6118 92.5916,87.3383 92.6989,89.311 92.8062,91.5193 92.9135,93.802 93.0207,95.878 93.128,97.5653 93.2353,98.5516 93.3426,98.7398 93.4499,98.1856 93.5572,97.16 93.6645,95.7312 93.7718,94.0998 93.8791,92.6152 93.9864,91.1471 94.0937,90.0305 94.201,88.8747 94.3082,87.8863 94.4155,87.1874 94.5228,86.6395 94.6301,86.1804 94.7374,85.922 94.8447,86.0729 94.952,86.563 95.0593,87.5947 95.1666,89.5694 95.2738,92.1561 95.3812,95.144 95.4884,98.593 95.5957,102.362 95.703,106.091 95.8103,109.678 95.9176,112.744 96.0249,115.05 96.1322,116.189 96.2395,116.351 96.3468,115.437 96.4541,113.421 96.5614,110.468 96.6686,106.547 96.7759,102.402 96.8832,97.8961 96.9905,93.161 97.0978,88.4921 97.2051,84.09 97.3124,79.6919 97.4197,75.238 97.527,70.9289 97.6343,67.0416 97.7416,63.361 97.8488,59.9845 97.9561,56.9614 98.0634,54.3416 98.1707,52.247 98.278,50.6032 98.3853,49.1703 98.4926,47.8511 98.5999,46.4946 98.7072,45.3036 98.8145,43.9431 98.9218,42.5949 99.0291,40.9387 99.1363,39.179 99.2436,37.7358 99.3509,36.3711 99.4582,35.1718 99.5655,34.171 99.6728,33.5197 99.7801,33.0751 99.8874,33.0048 99.9947,33.2219 100.102,33.9188 100.209,35.0953 100.317,36.5923 100.424,38.3065 100.531,40.2915 100.638,42.4688 100.746,44.6399 100.853,46.7159 100.96,48.3452 101.068,49.6831 101.175,50.6942 101.282,51.4241 101.389,51.7756 101.497,51.6267 101.604,51.4799 101.711,51.2607 101.819,51.2587 101.926,51.4096 102.033,51.9017 102.14,52.7081 102.248,54.1742 102.355,55.8635 102.462,58.2062 102.57,60.9749 102.677,64.0413 102.784,66.8886 102.892,69.9137 102.999,72.459 103.106,74.5288 103.213,76.0589 103.321,76.8881 103.428,77.161 103.535,76.7206 103.643,75.6805 103.75,74.0801 103.857,71.9938 103.964,69.9571 104.072,67.9018 104.179,66.2414 104.286,65.0235 104.394,64.4259 104.501,64.5996 104.608,65.2695 104.715,66.3448 104.823,67.9969 104.93,69.5559 105.037,70.9992 105.145,72.1799 105.252,73.0525 105.359,73.6459 105.467,74.3903 105.574,75.0023 105.681,75.9307 105.788,77.2541 105.896,78.6498 106.003,80.2171 106.11,81.6583 106.218,83.0975 106.325,84.3298 106.432,85.5208 106.539,86.4554 106.647,87.4645 106.754,88.5252 106.861,89.6997 106.969,91.0768 107.076,92.3009 107.183,93.4774 107.29,94.6312 107.398,95.4521 107.505,96.3061 107.612,96.8416 107.72,97.0566 107.827,97.1187 107.934,97.1104 108.042,96.7899 108.149,96.2109 108.256,95.5617 108.363,94.6353 108.471,93.6366 108.578,92.6751 108.685,91.8377 108.793,91.5027 108.9,91.7116 109.007,92.1954 109.114,92.9812 109.222,93.6945 109.329,94.4472 109.436,95.2019 109.544,95.8553 109.651,96.3929 109.758,97.251 109.865,98.2601 109.973,99.7654 110.08,101.612 110.187,104.037 110.295,106.837 110.402,109.771 110.509,112.763 110.617,115.362 110.724,117.688 110.831,119.638 110.938,121.113 111.046,122.279 111.153,123.279 111.26,124.071 111.368,124.783 111.475,125.374 111.582,125.846 111.689,126.141 111.797,126.218 111.904,126.193 112.011,125.724 112.119,124.946 112.226,123.999 112.333,122.876 112.44,121.691 112.548,120.656 112.655,119.62 112.762,118.697 112.87,117.854 112.977,117.438 113.084,117.32 113.191,117.546 113.299,117.895 113.406,118.53 113.513,119.216 113.621,119.959 113.728,120.482 113.835,120.546 113.943,120.079 114.05,118.935 114.157,117.122 114.264,114.467 114.372,110.997 114.479,106.659 114.586,101.887 114.694,96.5769 114.801,91.2009 114.908,85.7607 115.015,80.2771 115.123,75.0892 115.23,70.2176 115.337,65.9395 115.445,61.9715 115.552,58.384 115.659,55.0591 115.766,51.9762 115.874,49.2054 115.981,46.4429 116.088,44.0154 116.196,41.7492 116.303,39.7311 116.41,37.9343 116.518,36.522 116.625,35.4241 116.732,34.5039 116.839,33.4266 116.947,32.1964 117.054,31.1149 117.161,30.1989 117.269,29.1899 117.376,28.6585 117.483,28.2759 117.59,28.4186 117.698,29.3553 117.805,31.0612 117.912,33.2943 118.02,36.1974 118.127,39.7621 118.234,43.7301 118.341,47.8118 118.449,52.4001 118.556,56.9945 118.663,61.711 118.771,66.3096 118.878,70.5815 118.985,74.4482 119.093,77.8227 119.2,80.4942 119.307,82.5764 119.414,83.9183 119.522,84.7558 119.629,85.0411 119.736,85.0266 119.844,84.9708 119.951,84.6234 120.058,84.4001 120.165,84.276 120.273,84.3112 120.38,84.4539 120.487,84.8653 120.595,85.4257 120.702,86.108 120.809,87.1729 120.916,88.2089 121.024,89.0463 121.131,89.7886 121.238,90.2518 121.346,90.0285 121.453,89.4433 121.56,88.581 121.667,87.0633 121.775,85.3699 121.882,83.9328 121.989,82.504 122.097,81.6273 122.204,80.7816 122.311,80.1365 122.419,79.6919 122.526,79.4872 122.633,79.237 122.74,78.7325 122.848,78.1577 122.955,77.5063 123.062,76.9811 123.17,76.5552 123.277,76.2264 123.384,76.2843 123.491,76.3525 123.599,76.6151 123.706,76.9212 123.813,77.4381 123.921,77.8206 124.028,78.0812 124.135,78.2921 124.242,78.2507 124.35,77.9075 124.457,77.3492 124.564,76.5386 124.672,75.4345 124.779,74.2517 124.886,73.1993 124.994,72.2688 125.101,71.572 125.208,71.0178 125.315,70.749 125.423,70.4513 125.53,70.3065 125.637,70.4347 125.745,70.5257 125.852,70.6911 125.959,70.9454 126.066,71.3921 126.174,72.0992 126.281,73.1869 126.388,74.5391 126.496,75.9679 126.603,77.5146 126.71,79.2122 126.817,80.8085 126.925,82.3158 127.032,83.4262 127.139,84.2078 127.247,84.6524 127.354,84.9377 127.461,84.9129 127.569,84.8633 127.676,85.0618 127.783,85.5022 127.89,86.3996 127.998,87.8325 128.105,89.7328 128.212,92.1603 128.32,94.8297 128.427,97.7493 128.534,100.768 128.641,103.673 128.749,106.448 128.856,108.952 128.963,111.016 129.071,112.906 129.178,114.558 129.285,116.262 129.392,117.928 129.5,119.489 129.607,120.893 129.714,122.535 129.822,123.904 129.929,124.967 130.036,125.449 130.143,125.329 130.251,124.791 130.358,123.937 130.465,122.808 130.573,121.65 130.68,120.914 130.787,120.664 130.895,121.079 131.002,122.095 131.109,123.718 131.216,125.519 131.324,127.717 131.431,129.754 131.538,131.697 131.646,133.306 131.753,134.666 131.86,135.289 131.967,135.121 132.075,134.063 132.182,132.336 132.289,129.751 132.397,126.565 132.504,122.583 132.611,118.023 132.718,113.216 132.826,107.887 132.933,102.493 133.04,97.2159 133.148,91.8088 133.255,86.6188 133.362,81.6914 133.47,76.9604 133.577,72.3763 133.684,68.2719 133.791,64.368 133.899,60.826 134.006,57.7182 134.113,55.0137 134.221,52.4001 134.328,49.9767 134.435,47.5947 134.542,45.0079 134.65,42.3571 134.757,39.6505 134.864,36.4931 134.972,33.3088 135.079,30.2217 135.186,27.4282 135.293,24.9386 135.401,23.0115 135.508,21.6406 135.615,20.9397 135.723,20.8694 135.83,21.5662 135.937,22.844 136.044,24.7422 136.152,27.1842 136.259,30.1142 136.366,33.3646 136.474,37.2064 136.581,41.3936 136.688,45.8371 136.796,50.0863 136.903,54.4306 137.01,58.5226 137.117,62.1473 137.225,64.9532 137.332,67.0995 137.439,68.2512 137.547,68.6006 137.654,68.2926 137.761,67.6102 137.868,66.7666 137.976,66.2414 138.083,66.1008 138.19,66.628 138.298,67.7177 138.405,69.4464 138.512,71.6257 138.619,74.0615 138.727,76.3422 138.834,78.4761 138.941,80.5397 139.049,82.2331 139.156,83.9328 139.263,85.496 139.371,87.1585 139.478,88.6307 139.585,90.2911 139.692,91.4035 139.8,92.4105 139.907,92.8571 140.014,92.977 140.122,92.7827 140.229,92.2657 140.336,91.4593 140.443,90.6715 140.551,89.7741 140.658,88.8188 140.765,87.9607 140.873,86.9848 140.98,86.0522 141.087,85.1383 141.194,84.4353 141.302,83.8749 141.409,83.4634 141.516,83.36 141.624,83.4117 141.731,83.5048 141.838,83.7798 141.946,83.9411 142.053,83.7653 142.16,83.4262 142.267,82.8493 142.375,82.289 142.482,81.7658 142.589,81.1765 142.697,80.6968 142.804,80.2254 142.911,79.7643 143.018,79.4169 143.126,78.6994 143.233,77.6945 143.34,76.2802 143.448,74.6901 143.555,73.0359 143.662,71.6609 143.769,70.5298 143.877,69.9343 143.984,70.0935 144.091,70.7552 144.199,71.9442 144.306,73.4557 144.413,75.0933 144.521,76.3525 144.628,77.5498 144.735,78.2569 144.842,78.78 144.95,78.7904 145.057,78.4823 145.164,77.7648 145.272,76.9811 145.379,76.2988 145.486,75.6247 145.593,74.9775 145.701,74.6136 145.808,74.2662 145.915,74.2662 146.023,74.413 146.13,74.6487 146.237,75.054 146.344,75.4572 146.452,76.0072 146.559,76.7764 146.666,77.6201 146.774,78.9579 146.881,80.3329 146.988,82.2207 147.096,84.3319 147.203,86.4885 147.31,88.8395 147.417,91.0189 147.525,93.037 147.632,94.6498 147.739,95.969 147.847,96.8664 147.954,97.6356 148.061,97.9685 148.168,98.1505 148.276,98.2414 148.383,98.4813 148.49,98.8101 148.598,99.3043 148.705,100.131 148.812,101.283 148.919,102.9 149.027,105.059 149.134,107.741 149.241,110.575 149.349,113.844 149.456,116.954 149.563,119.746 149.67,122.219 149.778,124.069 149.885,125.171 149.992,125.533 150.1,125.229 150.207,124.158 150.314,122.496 150.422,120.11 150.529,117.213 150.636,113.569 150.743,109.477 150.851,104.97 150.958,100.293 151.065,95.4231 151.173,90.4647 151.28,85.5642 151.387,80.856 151.494,76.5097 151.602,72.7919 151.709,69.3409 151.816,66.2889 151.924,63.5968 152.031,61.2871 152.138,59.1801 152.245,57.437 152.353,55.6815 152.46,54.0253 152.567,52.398 152.675,50.7852 152.782,49.0028 152.889,47.2142 152.997,45.2623 153.104,43.3641 153.211,41.5404 153.318,39.7725 153.426,38.0769 153.533,36.6895 153.64,35.5874 153.748,35.0746 153.855,35.0725 153.962,35.6846 154.069,36.9376 154.177,38.9123 154.284,41.6148 154.391,45.0824 154.499,49.0648 154.606,53.3636 154.713,57.6459 154.82,61.4649 154.928,64.8477 155.035,67.389 155.142,69.0969 155.25,69.924 155.357,69.9343 155.464,69.6345 155.572,68.9977 155.679,68.6441 155.786,68.305 155.893,68.1602 156.001,68.276 156.108,68.4869 156.215,69.1362 156.323,69.8103 156.43,70.3975 156.537,71.1667 156.644,72.1592 156.752,73.3295 156.859,74.6136 156.966,76.1003 157.074,77.4712 157.181,78.9227 157.288,80.2399 157.395,81.3254 157.503,82.1814 157.61,82.8286 157.717,83.3001 157.825,83.6351 157.932,84.0507 158.039,84.4994 158.146,84.9274 158.254,85.3616 158.361,85.7896 158.468,86.1846 158.576,86.5816 158.683,86.9703 158.79,87.0199 158.898,87.1006 159.005,87.0778 159.112,86.9124 159.219,86.8442 159.327,86.7428 159.434,86.7346 159.541,86.7325 159.649,86.5216 159.756,86.5381 159.863,86.5195 159.97,86.6994 160.078,86.8772 160.185,87.0923 160.292,87.5244 160.4,87.9545 160.507,88.4735 160.614,88.9119 160.721,89.1662 160.829,89.098 160.936,88.8912 161.043,88.273 161.151,87.388 161.258,86.2176 161.365,85.0618 161.473,83.8728 161.58,83.0251 161.687,82.3882 161.794,82.016 161.902,82.136 162.009,82.5619 162.116,83.4552 162.224,84.489 162.331,85.6325 162.438,86.6767 162.545,87.4086 162.653,87.6816 162.76,87.6133 162.867,87.146 162.975,86.4637 163.082,85.4774 163.189,84.5883 163.296,83.5234 163.404,82.6591 163.511,81.9313 163.618,80.9904 163.726,79.9462 163.833,78.8338 163.94,77.6904 164.048,76.4497 164.155,75.3621 164.262,74.322 164.369,73.6252 164.477,73.1641 164.584,73.3688 164.691,73.9871 164.799,74.9134 164.906,76.274 165.013,77.9219 165.12,79.7746 165.228,81.7327 165.335,83.8315 165.442,85.9426 165.55,87.8842 165.657,89.6459 165.764,91.0561 165.871,92.1768 165.979,92.8116 166.086,93.0039 166.193,92.9956 166.301,92.6731 166.408,92.3567 166.515,92.3753 166.622,92.9439 166.73,93.9923 166.837,95.7271 166.944,98.0802 167.052,100.917 167.159,104.108 167.266,107.279 167.374,110.377 167.481,113.146 167.588,115.693 167.695,117.872 167.803,119.545 167.91,120.62 168.017,121.305 168.125,121.354 168.232,121.139 168.339,120.476 168.446,119.051 168.554,116.898 168.661,114.155 168.768,110.817 168.876,106.856 168.983,102.406 169.09,97.8196 169.197,93.2169 169.305,88.8995 169.412,85.0184 169.519,81.7327 169.627,78.8772 169.734,76.5469 169.841,74.7707 169.949,73.2282 170.056,71.8242 170.163,70.3603 170.27,68.824 170.378,67.2049 170.485,65.7079 170.592,63.9255 170.7,62.2776 170.807,60.6647 170.914,58.9403 171.021,57.0173 171.129,55.1108 171.236,52.9066 171.343,50.5494 171.451,47.9772 171.558,45.7068 171.665,43.5647 171.772,42.109 171.88,41.3667 171.987,41.3936 172.094,42.413 172.202,44.1436 172.309,46.6601 172.416,49.5776 172.524,52.7226 172.631,55.9565 172.738,58.7562 172.845,61.2685 172.953,63.3238 173.06,64.7878 173.167,66.1628 173.275,66.7852 173.382,67.1739 173.489,67.3538 173.596,67.4841 173.704,67.5544 173.811,67.8521 173.918,68.1768 174.026,68.9149 174.133,69.5373 174.24,70.6146 174.347,71.7767 174.455,73.2158 174.562,74.5433 174.669,75.8976 174.777,77.2499 174.884,78.4141 174.991,79.481 175.099,80.5087 175.206,81.4226 175.313,82.3014 175.42,83.3518 175.528,84.2781 175.635,84.9687 175.742,85.5229 175.85,85.9013 175.957,85.9447 176.064,85.924 176.171,85.8103 176.279,85.5105 176.386,85.1796 176.493,85.0535 176.601,84.9998 176.708,84.977 176.815,84.9667 176.922,84.8984 177.03,84.642 177.137,84.5097 177.244,84.0755 177.352,83.6102 177.459,83.0664 177.566,82.808 177.673,82.5681 177.781,82.7542 177.888,83.3538 177.995,84.3526 178.103,85.7896 178.21,87.3404 178.317,89.0711 178.425,90.7149 178.532,92.2037 178.639,93.1548 178.746,93.4671 178.854,93.3368 178.961,92.6648 179.068,91.6268 179.176,90.6364 179.283,89.5136 179.39,88.8602 179.497,88.6141 179.605,88.825 179.712,89.7514 179.819,91.0582 179.927,92.4125 180.034,94.1349 180.141,95.6237 180.248,96.9181 180.356,98.0057 180.463,98.7915 180.57,99.3808 180.678,99.9432 180.785,100.59 180.892,101.082 181,101.525 181.107,101.852 181.214,102.056 181.321,102.125 181.429,101.967 181.536,101.486 181.643,100.57 181.751,99.3415 181.858,98.0409 181.965,96.5563 182.072,95.0509 182.18,93.7359 182.287,92.427 182.394,91.5172 182.502,90.9093 182.609,90.8535 182.716,91.205 182.823,91.9349 182.931,93.0556 183.038,94.4637 183.145,95.9359 183.253,97.5777 183.36,99.145 183.467,100.216 183.575,101.016 183.682,101.335 183.789,101.252 183.896,100.824 184.004,100.131 184.111,99.2112 184.218,98.5578 184.326,98.1463 184.433,98.0802 184.54,98.4048 184.647,99.0685 184.755,100.055 184.862,101.269 184.969,102.77 185.077,104.325 185.184,106.074 185.291,107.954 185.398,109.848 185.506,111.826 185.613,113.764 185.72,115.569 185.828,117.138 185.935,118.187 186.042,118.848 186.15,118.714 186.257,117.765 186.364,116.026 186.471,113.507 186.579,110.398 186.686,106.566 186.793,102.689 186.901,98.8183 187.008,94.9744 187.115,91.4056 187.222,88.0352 187.33,84.9088 187.437,81.9333 187.544,79.0096 187.652,76.1003 187.759,73.1662 187.866,70.1949 187.973,67.5399 188.081,65.1517 188.188,63.1439 188.295,61.4298 188.403,59.9514 188.51,58.3716 188.617,56.6678 188.724,54.5815 188.832,51.879 188.939,48.7547 189.046,45.1858 189.154,41.4453 189.261,37.6655 189.368,34.4626 189.476,31.636 189.583,29.6593 189.69,28.5778 189.797,28.369 189.905,29.0617 190.012,30.3064 190.119,32.1281 190.227,34.0986 190.334,36.4145 190.441,38.8709 190.548,41.1186 190.656,43.3662 190.763,45.3533 190.87,47.1191 190.978,48.6782 191.085,50.0304 191.192,51.1698 191.299,51.9555 191.407,52.5076 191.514,52.8384 191.621,53.2561 191.729,53.7585 191.836,54.2775 191.943,55.0819 192.051,55.9648 192.158,57.0379 192.265,58.4461 192.372,59.6722 192.48,61.0535 192.587,62.4388 192.694,63.7643 192.802,65.2634 192.909,66.6963 193.016,68.1788 193.123,69.3016 193.231,70.3541 193.338,71.1212 193.445,71.725 193.553,72.062 193.66,72.2357 193.767,72.4239 193.874,72.4983 193.982,72.8932 194.089,73.3337 194.196,74.0594 194.304,74.8183 194.411,75.7322 194.518,76.7185 194.625,77.7896 194.733,78.5505 194.84,79.2556 194.947,79.3404 195.055,79.5099 195.162,79.5616 195.269,79.7105 195.377,80.0207 195.484,80.7382 195.591,81.9064 195.698,83.6371 195.806,85.8827 195.913,88.6389 196.02,91.4779 196.128,94.0605 196.235,96.395 196.342,98.2187 196.449,99.3828 196.557,100.036 196.664,99.9473 196.771,99.5793 196.879,98.9403 196.986,98.258 197.093,97.586 197.2,96.9925 197.308,96.6121 197.415,96.2792 197.522,96.1179 197.63,95.9132 197.737,95.7664 197.844,95.7126 197.952,95.6216 198.059,95.6403 198.166,95.785 198.273,95.9483 198.381,96.2254 198.488,96.4508 198.595,96.6431 198.703,96.7961 198.81,96.8829 198.917,96.9057 199.024,96.6824 199.132,96.2482 199.239,95.6878 199.346,94.8938 199.454,93.8558 199.561,92.6007 199.668,91.1057 199.775,89.4681 199.883,87.6775 199.99,85.9302 200.097,84.1582 200.205,82.7749 200.312,81.6687 200.419,81.0132 200.527,80.9015 200.634,81.2303 200.741,82.2373 200.848,83.6185 200.956,85.314 201.063,87.1564 201.17,88.9822 201.278,90.7087 201.385,92.2843 201.492,93.3844 201.599,94.1163 201.707,94.3231 201.814,94.2218 201.921,94.015 202.029,93.6325 202.136,93.5394 202.243,93.3782 202.35,93.6821 202.458,94.0047 202.565,94.8545 202.672,95.9277 202.78,97.4578 202.887,99.0086 202.994,100.886 203.102,103.152 203.209,105.648 203.316,108.47 203.423,111.605 203.531,114.556 203.638,117.455 203.745,120.035 203.853,122.037 203.96,123.41 204.067,123.885 204.174,123.631 204.282,122.51 204.389,120.736 204.496,118.422 204.604,115.546 204.711,112.323 204.818,108.758 204.925,105.048 205.033,101.155 205.14,97.1021 205.247,93.0246 205.355,89.0132 205.462,85.161 205.569,81.7224 205.676,78.7387 205.784,76.2099 205.891,74.0801 205.998,72.2853 206.106,70.8235 206.213,69.1817 206.32,67.4531 206.428,65.4619 206.535,62.9951 206.642,60.1127 206.749,56.7588 206.857,52.8963 206.964,48.8911 207.071,44.7391 207.179,40.7154 207.286,36.8756 207.393,33.4018 207.5,30.4429 207.608,28.0299 207.715,26.3881 207.822,25.5982 207.93,25.2467 208.037,25.9125 208.144,27.2462 208.251,29.1506 208.359,31.6525 208.466,34.3364 208.573,37.2953 208.681,40.0971 208.788,42.7707 208.895,45.4339 209.003,47.7249 209.11,49.7513 209.217,51.4696 209.324,52.8653 209.432,54.0728 209.539,55.086 209.646,56.0124 209.754,56.8105 209.861,57.5321 209.968,58.2269 210.075,58.9568 210.183,59.9348 210.29,61.1734 210.397,62.4244 210.505,63.7829 210.612,65.2799 210.719,66.901 210.826,68.3422 210.934,69.9012 211.041,71.1522 211.148,72.1551 211.256,73.1496 211.363,73.9354 211.47,74.4296 211.578,74.7232 211.685,74.9093 211.792,75.1615 211.899,75.3497 212.007,75.7115 212.114,76.1189 212.221,76.518 212.329,76.9791 212.436,77.3264 212.543,77.4939 212.65,77.3967 212.758,76.8715 212.865,76.2967 212.972,75.5151 213.08,74.8886 213.187,74.7025 213.294,75.0023 213.401,76.0031 213.509,77.4588 213.616,79.3983 213.723,81.7245 213.831,84.1251 213.938,86.4782 214.045,88.5955 214.152,90.4213 214.26,91.5999 214.367,92.58 214.474,93.037 214.582,93.161 214.689,93.0039 214.796,92.4291 214.904,91.8439 215.011,91.0582 215.118,90.3221 215.225,89.5901 215.333,88.9119 215.44,88.3453 215.547,88.0827 215.655,88.0186 215.762,88.0641 215.869,88.5128 215.976,88.9967 216.084,89.6707 216.191,90.4813 216.298,91.2463 216.406,92.1148 216.513,93.0763 216.62,94.0192 216.727,95.1543 216.835,96.2337 216.942,97.464 217.049,98.471 217.157,99.2402 217.264,99.8108 217.371,99.8998 217.479,99.4966 217.586,98.7294 217.693,97.5942 217.8,96.0993 217.908,94.6126 218.015,93.3265 218.122,92.2513 218.23,91.7715 218.337,91.8046 218.444,92.3815 218.551,93.4154 218.659,95.0013 218.766,96.8126 218.873,98.4772 218.981,99.9328 219.088,101.043 219.195,101.709 219.302,102.127 219.41,102.387 219.517,102.418 219.624,102.224 219.732,101.941 219.839,101.746 219.946,101.374 220.054,100.756 220.161,99.9804 220.268,98.9238 220.375,97.9085 220.483,97.0339 220.59,96.3908 220.697,96.1696 220.805,96.4467 220.912,97.5446 221.019,99.0665 221.126,101.157 221.234,103.669 221.341,106.196 221.448,108.71 221.556,111.072 221.663,113.127 221.77,114.942 221.877,116.353 221.985,117.451 222.092,118.263 222.199,118.749 222.307,118.666 222.414,118.038 222.521,116.81 222.628,114.87 222.736,112.465 222.843,109.405 222.95,105.906 223.058,102.106 223.165,98.3738 223.272,94.9227 223.38,91.8439 223.487,89.2613 223.594,87.0592 223.701,85.1734 223.809,83.7591 223.916,82.5909 224.023,81.7038 224.131,80.7402 224.238,79.5947 224.345,78.4678 224.452,76.7557 224.56,74.7439 224.667,72.1757 224.774,69.1858 224.882,65.8713 224.989,62.1494 225.096,58.353 225.203,54.5443 225.311,50.9651 225.418,47.6153 225.525,44.6027 225.633,42.171 225.74,40.2439 225.847,38.9764 225.955,38.1948 226.062,38.0418 226.169,38.354 226.276,39.148 226.384,40.37 226.491,42.0201 226.598,43.9162 226.706,45.9901 226.813,48.1902 226.92,50.2848 227.027,52.4352 227.135,54.3954 227.242,55.9855 227.349,57.315 227.457,58.3696 227.564,59.147 227.671,59.7074 227.778,60.1705 227.886,60.5717 227.993,61.2127 228.1,61.8619 228.208,62.5794 228.315,63.7932 228.422,64.7547 228.53,65.8299 228.637,66.7583 228.744,67.4882 228.851,67.755 228.959,67.7425 229.066,67.4986 229.173,66.992 229.281,66.5991 229.388,66.2972 229.495,66.3406 229.602,66.8472 229.71,67.6247 229.817,68.8777 229.924,70.108 230.032,71.421 230.139,72.4342 230.246,73.1455 230.353,73.4412 230.461,73.4412 230.568,73.0752 230.675,72.6493 230.783,72.2336 230.89,71.971 230.997,72.0703 231.104,72.4838 231.212,73.4991 231.319,74.8658 231.426,76.3029 231.534,78.2797 231.641,80.3515 231.748,82.5164 231.856,84.764 231.963,86.9021 232.07,88.976 232.177,90.7542 232.285,92.4808 232.392,93.9344 232.499,95.2743 232.607,96.2792 232.714,97.1063 232.821,97.6935 232.928,98.1649 233.036,98.502 233.143,98.6777 233.25,98.5806 233.358,98.3614 233.465,98.1194 233.572,97.7803 233.679,97.4909 233.787,97.2551 233.894,97.2138 234.001,97.2882 234.109,97.677 234.216,98.3097 234.323,99.1099 234.431,100.237 234.538,101.451 234.645,102.917 234.752,104.31 234.86,105.681 234.967,106.773 235.074,107.344 235.182,107.542 235.289,107.056 235.396,106.107 235.503,104.639 235.611,102.805 235.718,100.812 235.825,98.8266 235.933,97.0877 236.04,95.6775 236.147,94.5878 236.254,93.8703 236.362,93.4319 236.469,93.3533 236.576,93.618 236.684,94.1019 236.791,94.7036 236.898,95.419 237.006,96.4094 237.113,97.5095 237.22,98.6426 237.327,99.6392 237.435,100.328 237.542,100.665 237.649,100.53 237.757,100.098 237.864,99.2608 237.971,98.0864 238.078,96.8416 238.186,95.5327 238.293,94.5754 238.4,93.8785 238.508,93.7338 238.615,93.9695 238.722,94.6333 238.829,95.6899 238.937,97.1848 239.044,98.8783 239.151,100.832 239.259,103.113 239.366,105.578 239.473,108.303 239.581,111.334 239.688,114.407 239.795,117.417 239.902,120.217 240.01,122.591 240.117,124.264 240.224,125.306 240.332,125.366 240.439,124.348 240.546,122.564 240.653,119.948 240.761,116.584 240.868,112.897 240.975,108.942 241.083,104.935 241.19,101.118 241.297,97.5301 241.404,94.2239 241.512,91.5751 241.619,89.2179 241.726,87.3218 241.834,85.4422 241.941,83.8584 242.048,82.2145 242.156,80.4508 242.263,78.4016 242.37,76.0837 242.477,73.4577 242.585,70.4533 242.692,67.3724 242.799,63.8738 242.907,60.2595 243.014,56.5748 243.121,52.6585 243.228,48.9987 243.336,45.4773 243.443,42.3054 243.55,39.4086 243.658,37.0844 243.765,35.3744 243.872,34.171 243.979,33.5735 244.087,33.6624 244.194,34.1586 244.301,35.1842 244.409,36.4517 244.516,37.9301 244.623,39.7332 244.73,41.4701 244.838,43.1222 244.945,44.5158 245.052,45.6138 245.16,46.5505 245.267,47.208 245.374,47.6319 245.482,48.1075 245.589,48.6554 245.696,49.2675 245.803,50.2848 245.911,51.4261 246.018,52.7102 246.125,54.1369 246.233,55.4044 246.34,56.5789 246.447,57.3378 246.554,57.7968 246.662,57.7968 246.769,57.4784 246.876,56.9242 246.984,56.337 247.091,55.8263 247.198,55.4954 247.305,55.3631 247.413,55.6092 247.52,56.0062 247.627,56.5768 247.735,57.071 247.842,57.5694 247.949,57.9085 248.057,58.1793 248.164,58.1462 248.271,58.1008 248.378,58.1173 248.486,57.9105 248.593,57.865 248.7,57.8733 248.808,57.8816 248.915,58.169 249.022,58.8493 249.129,59.8232 249.237,61.192 249.344,62.9392 249.451,64.734 249.559,66.9155 249.666,69.1858 249.773,71.4086 249.88,73.5446 249.988,75.5751 250.095,77.283 250.202,78.8173 250.31,80.1075 250.417,81.1807 250.524,81.9788 250.632,82.5909 250.739,83.0602 250.846,83.5834 250.953,84.0858 251.061,84.6999 251.168,85.1135 251.275,85.5953 251.383,85.9054 251.49,86.3293 251.597,86.4699 251.704,86.6787 251.812,86.9475 251.919,87.3735 252.026,88.1241 252.134,89.2034 252.241,90.7108 252.348,92.5552 252.455,94.4885 252.563,96.3888 252.67,98.0595 252.777,99.3787 252.885,100.295 252.992,100.698 253.099,100.609 253.206,100.127 253.314,99.3994 253.421,98.4234 253.528,97.3647 253.636,96.3329 253.743,95.237 253.85,94.4306 253.958,93.6387 254.065,93.0928 254.172,92.6503 254.279,92.3939 254.387,92.4146 254.494,92.6152 254.601,93.1776 254.709,94.0874 254.816,95.0654 254.923,96.304 255.03,97.3771 255.138,98.4069 255.245,99.2153 255.352,99.7633 255.46,99.908 255.567,99.6578 255.674,99.3001 255.781,98.595 255.889,97.7803 255.996,96.9057 256.103,96.0062 256.211,94.9765 256.318,94.3231 256.425,93.6925 256.533,93.2396 256.64,92.9832 256.747,92.9936 256.854,93.4092 256.962,94.1494 257.069,95.2743 257.176,96.7961 257.284,98.7687 257.391,101.016 257.498,103.479 257.605,106.072 257.713,108.745 257.82,111.291 257.927,113.588 258.035,115.124 258.142,116.206 258.249,116.535 258.356,116.117 258.464,114.918 258.571,113.063 258.678,110.588 258.786,107.891 258.893,104.945 259,101.949 259.108,99.0086 259.215,96.4673 259.322,94.0957 259.429,92.0693 259.537,90.5578 259.644,89.0235 259.751,87.847 259.859,86.5113 259.966,85.3347 260.073,84.061 260.18,82.5268 260.288,80.6658 260.395,78.4079 260.502,75.8005 260.61,72.9718 260.717,69.8061 260.824,66.4606 260.931,63.0261 261.039,59.5275 261.146,56.3018 261.253,53.2044 261.361,50.3799 261.468,47.8717 261.575,45.6283 261.682,43.879 261.79,42.6218 261.897,41.9332 262.004,41.6913 262.112,42.0035 262.219,42.719 262.326,43.8004 262.434,45.0782 262.541,46.2631 262.648,47.3693 262.755,48.2233 262.863,48.7609 262.97,49.1951 263.077,49.1827 263.185,49.2695 263.292,49.0379 263.399,49.1889 263.506,49.5962 263.614,50.3013 263.721,51.176 263.828,52.2636 263.936,53.405 264.043,54.6932 264.15,55.6174 264.257,56.4342 264.365,56.8333 264.472,57.0483 264.579,56.9863 264.687,56.8829 264.794,56.7257 264.901,56.5955 265.009,56.8477 265.116,57.1662 265.223,57.8216 265.33,58.628 265.438,59.6784 265.545,60.6958 265.652,61.8227 265.76,62.5153 265.867,63.1708 265.974,63.6588 266.081,63.8118 266.189,63.8759 266.296,63.6485 266.403,63.5265 266.511,63.3569 266.618,63.4334 266.725,63.5244 266.832,64.124 266.94,64.8684 267.047,66.0284 267.154,67.5627 267.262,69.2582 267.369,71.3693 267.476,73.6604 267.583,76.0631 267.691,78.5547 267.798,80.8271 267.905,82.901 268.013,84.7103 268.12,86.5133 268.227,88.0145 268.335,89.2551 268.442,90.4937 268.549,91.695 268.656,92.8509 268.764,93.5725 268.871,94.2404 268.978,94.3045 269.086,94.2631 269.193,93.9509 269.3,93.3141 269.407,92.6131 269.515,91.8811 269.622,91.4407 269.729,91.4242 269.837,91.7881 269.944,92.7268 270.051,94.0791 270.159,95.8222 270.266,97.6935 270.373,99.6723 270.48,101.593 270.588,103.324 270.695,104.709 270.802,105.906 270.91,106.581 271.017,107.153 271.124,107.093 271.231,106.769 271.339,106.047 271.446,104.844 271.553,103.448 271.661,101.595 271.768,99.6372 271.875,97.7431 271.982,95.7002 272.09,94.2569 272.197,93.006 272.304,92.334 272.412,92.1065 272.519,92.3174 272.626,92.9998 272.733,93.9923 272.841,95.1378 272.948,96.3805 273.055,97.5198 273.163,98.5785 273.27,99.4304 273.377,99.9825 273.485,100.371 273.592,100.255 273.699,99.8936 273.806,99.3249 273.914,98.626 274.021,97.7473 274.128,96.792 274.236,95.694 274.343,94.6705 274.45,94.0605 274.557,93.3864 274.665,93.0142 274.772,92.8902 274.879,93.3513 274.987,94.3335 275.094,95.9732 275.201,98.167 275.308,100.787 275.416,104.097 275.523,107.435 275.63,110.991 275.738,114.384 275.845,117.457 275.952,119.89 276.06,121.704 276.167,122.68 276.274,122.928 276.381,122.279 276.489,120.802 276.596,118.852 276.703,116.382 276.811,113.667 276.918,110.79 277.025,108.073 277.132,105.478 277.24,103.303 277.347,101.32 277.454,99.6206 277.562,97.9975 277.669,96.5252 277.776,95.1399 277.883,93.6077 277.991,91.9142 278.098,90.3283 278.205,88.428 278.313,86.3541 278.42,83.9369 278.527,81.2717 278.635,78.3355 278.742,74.9382 278.849,71.2308 278.956,67.0912 279.064,62.8689 279.171,58.4998 279.278,54.2258 279.386,50.2227 279.493,46.6166 279.6,43.7859 279.707,41.5073 279.815,40.0785 279.922,39.1997 280.029,38.8503 280.137,38.9247 280.244,39.1232 280.351,39.4768 280.458,39.7311 280.566,40.0764 280.673,40.339 280.78,40.7505 280.888,41.1124 280.995,41.7058 281.102,42.3923 281.209,43.4675 281.317,44.6792 281.424,46.1121 281.531,47.6836 281.639,49.3378 281.746,50.9113 281.853,52.3256 281.961,53.62 282.068,54.7304 282.175,55.6381 282.282,56.2502 282.39,56.7195 282.497,57.2571 282.604,57.6893 282.712,58.3447 282.819,59.0788 282.926,59.8852 283.033,60.8198 283.141,61.955 283.248,63.0426 283.355,64.093 283.463,65.1207 283.57,66.0139 283.677,66.7542 283.784,67.3311 283.892,67.6536 283.999,67.5502 284.106,67.1987 284.214,66.6136 284.321,65.9478 284.428,65.2468 284.536,64.6761 284.643,64.1695 284.75,64.031 284.857,64.2067 284.965,64.6037 285.072,65.2634 285.179,66.1504 285.287,67.2194 285.394,68.4042 285.501,69.7358 285.608,71.1667 285.716,72.7506 285.823,74.5329 285.93,76.5076 286.038,78.6601 286.145,80.9036 286.252,83.3022 286.359,85.4857 286.467,87.663 286.574,89.4454 286.681,90.8721 286.789,91.8253 286.896,92.4332 287.003,92.6855 287.111,92.671 287.218,92.5035 287.325,92.1954 287.432,92.0796 287.54,92.1231 287.647,92.2264 287.754,92.7992 287.862,93.5498 287.969,94.5919 288.076,95.8429 288.183,97.5281 288.291,99.4862 288.398,101.525 288.505,103.684 288.613,105.834 288.72,107.807 288.827,109.374 288.934,110.573 289.042,111.02 289.149,110.855 289.256,110.011 289.364,108.561 289.471,106.676 289.578,104.36 289.685,101.86 289.793,99.3539 289.9,97.038 290.007,94.8462 290.115,93.0391 290.222,91.5482 290.329,90.4379 290.437,89.8424 290.544,89.5177 290.651,89.557 290.758,89.9127 290.866,90.4958 290.973,91.0334 291.08,91.9184 291.188,92.7661 291.295,93.5787 291.402,94.3438 291.509,94.9207 291.617,95.4562 291.724,95.6775 291.831,95.6733 291.939,95.2743 292.046,94.503 292.153,93.4009 292.26,91.9762 292.368,90.6467 292.475,89.3234 292.582,88.0972 292.69,87.3425 292.797,87.1109 292.904,87.3549 293.012,88.3246 293.119,89.8672 293.226,91.97 293.333,94.6333 293.441,97.617 293.548,100.828 293.655,104.089 293.763,107.261 293.87,110.083 293.977,112.486 294.084,114.372 294.192,115.693 294.299,116.408 294.406,116.46 294.514,115.991 294.621,115.066 294.728,113.768 294.835,112.192 294.943,110.412 295.05,108.584 295.157,106.872 295.265,105.172 295.372,103.411 295.479,101.908 295.586,100.408 295.694,99.1347 295.801,98.0264 295.908,96.9925 296.016,95.8408 296.123,94.6519 296.23,93.3988 296.338,91.6103 296.445,89.5674 296.552,87.0633 296.659,84.0341 296.767,80.5728 296.874,76.7764 296.981,72.854 297.089,68.8591 297.196,65.0607 297.303,61.4567 297.41,58.2393 297.518,55.5554 297.625,53.2189 297.732,51.4261 297.84,49.9974 297.947,48.9283 298.054,48.0206 298.161,47.3714 298.269,46.8813 298.376,46.385 298.483,45.8867 298.591,45.5993 298.698,45.5021 298.805,45.6179 298.913,45.9798 299.02,46.6414 299.127,47.6112 299.234,48.7526 299.342,50.1007 299.449,51.2856 299.556,52.4455 299.664,53.6303 299.771,54.5567 299.878,55.2949 299.985,55.8407 300.093,56.0124 300.2,56.1509 300.307,56.0827 300.415,55.8635 300.522,55.5823 300.629,55.4086 300.736,55.4189 300.844,55.6236 300.951,56.1178 301.058,56.8705 301.166,57.6562 301.273,58.7066 301.38,59.6329 301.488,60.4497 301.595,61.1548 301.702,61.3988 301.809,61.3802 301.917,61.1569 302.024,60.7206 302.131,60.2615 302.239,59.7467 302.346,59.2339 302.453,58.8513 302.56,58.6611 302.668,58.5081 302.775,58.4936 302.882,58.6363 302.99,58.8431 303.097,59.1656 303.204,59.7467 303.311,60.5345 303.419,61.5621 303.526,63.0674 303.633,64.9883 303.741,67.2835 303.848,69.7751 303.955,72.6658 304.062,75.5358 304.17,78.4409 304.277,81.1972 304.384,83.7033 304.492,85.8537 304.599,87.6444 304.706,88.9305 304.814,89.9375 304.921,90.5061 305.028,90.7832 305.135,90.7439 305.243,90.4896 305.35,90.1174 305.457,89.8155 305.565,89.6397 305.672,89.5756 305.779,89.6604 305.886,90.1236 305.994,90.7997 306.101,91.8067 306.208,92.9832 306.316,94.2983 306.423,95.7705 306.53,97.1207 306.638,98.2993 306.745,99.3022 306.852,99.9701 306.959,100.198 307.067,99.9701 307.174,99.3932 307.281,98.3531 307.389,96.8685 307.496,95.2164 307.603,93.4216 307.71,91.6433 307.818,89.8816 307.925,88.4384 308.032,87.0944 308.14,86.0171 308.247,85.2458 308.354,84.7682 308.461,84.4952 308.569,84.3443 308.676,84.4973 308.783,84.9129 308.891,85.3781 308.998,86.2114 309.105,87.0819 309.212,88.0683 309.32,89.1104 309.427,90.1277 309.534,91.1057 309.642,91.8832 309.749,92.396 309.856,92.4828 309.964,92.2161 310.071,91.6557 310.178,90.8411 310.285,89.7886 310.393,88.6555 310.5,87.7767 310.607,86.8752 310.715,86.5505 310.822,86.6519 310.929,87.3404 311.036,88.6514 311.144,90.3986 311.251,92.7082 311.358,95.1026 311.466,97.8072 311.573,100.346 311.68,102.753 311.787,105.005 311.895,106.767 312.002,108.322 312.109,109.5 312.217,110.191 312.324,110.654 312.431,110.743 312.539,110.468 312.646,109.827 312.753,109.06 312.86,107.935 312.968,106.789 313.075,105.423 313.182,104.259 313.29,103.061 313.397,102.164 313.504,101.469 313.611,100.81 313.719,100.218 313.826,99.7137 313.933,98.9879 314.041,97.9912 314.148,96.6596 314.255,94.6539 314.362,92.1169 314.47,89.0401 314.577,85.3575 314.684,81.3399 314.792,77.07 314.899,72.6885 315.006,68.5655 315.114,64.8436 315.221,61.4339 315.328,58.5577 315.435,56.0227 315.543,53.8661 315.65,51.9389 315.757,50.2868 315.865,48.7174 315.972,47.2948 316.079,45.9508 316.186,44.6916 316.294,43.6412 316.401,42.7872 316.508,42.0594 316.616,41.6417 316.723,41.4453 316.83,41.4639 316.937,41.8815 317.045,42.6197 317.152,43.4634 317.259,44.7743 317.367,46.0542 317.474,47.5182 317.581,49.0297 317.688,50.322 317.796,51.4634 317.903,52.3235 318.01,52.9108 318.118,53.2582 318.225,53.6986 318.332,53.864 318.44,54.2837 318.547,54.8193 318.654,55.5864 318.761,56.6823 318.869,57.8837 318.976,59.0995 319.083,60.3794 319.191,61.407 319.298,62.412 319.405,63.0075 319.512,63.5595 319.62,63.9317 319.727,64.0124 319.834,64.2791 319.942,64.366 320.049,64.5686 320.156,64.7526 320.263,64.8064 320.371,64.8415 320.478,64.7195 320.585,64.5645 320.693,64.2419 320.8,63.9069 320.907,63.6877 321.015,63.5079 321.122,63.7064 321.229,64.2191 321.336,64.9573 321.444,66.2662 321.551,67.8211 321.658,69.6945 321.766,71.9628 321.873,74.2207 321.98,76.7123 322.087,79.4066 322.195,81.8651 322.302,84.2822 322.409,86.6084 322.517,88.5252 322.624,90.1753 322.731,91.48 322.838,92.3009 322.946,92.855 323.053,93.0329 323.16,92.9481 323.268,92.7413 323.375,92.4849 323.482,92.0507 323.59,91.8377 323.697,91.8501 323.804,92.1727 323.911,92.8902 324.019,93.9344 324.126,95.3073 324.233,96.9801 324.341,98.6426 324.448,100.444 324.555,102.11 324.662,103.427 324.77,104.662 324.877,105.46 324.984,105.816 325.092,105.83 325.199,105.429 325.306,104.693 325.413,103.833 325.521,102.737 325.628,101.517 325.735,100.231 325.843,98.8556 325.95,97.5157 326.057,96.2771 326.164,94.9993 326.272,93.953 326.379,93.1445 326.486,92.4684 326.594,92.0486 326.701,91.9494 326.808,92.0714 326.916,92.4808 327.023,93.0763 327.13,93.8434 327.237,94.6622 327.345,95.4459 327.452,95.9773 327.559,96.182 327.667,95.9215 327.774,95.3363 327.881,94.1866 327.988,92.5966 328.096,90.7666 328.203,88.7589 328.31,87.0303 328.418,85.5167 328.525,84.4932 328.632,84.0755 328.74,84.3257 328.847,85.1404 328.954,86.4141 329.061,88.3453 329.169,90.5061 329.276,93.0163 329.383,95.8263 329.491,98.7315 329.598,101.676 329.705,104.709 329.812,107.461 329.92,110.034 330.027,112.112 330.134,113.993 330.242,115.234 330.349,116.148 330.456,116.522 330.563,116.535 330.671,116.167 330.778,115.643 330.885,115.1 330.993,114.562 331.1,114.188 331.207,114.153 331.314,114.392 331.422,115.013 331.529,115.53 331.636,116.222 331.744,116.741 331.851,116.824 331.958,116.634 332.065,115.596 332.173,114.026 332.28,111.68 332.387,108.725 332.495,105.193 332.602,101.283 332.709,97.0132 332.817,92.5966 332.924,88.1592 333.031,83.9659 333.138,79.7974 333.246,76.1954 333.353,72.7733 333.46,69.7276 333.568,66.8369 333.675,64.3143 333.782,62.0398 333.889,59.7777 333.997,57.834 334.104,55.9048 334.211,54.2217 334.319,52.9025 334.426,51.8335 334.533,51.1842 334.641,51.0622 334.748,51.1656 334.855,51.7218 334.962,52.5407 335.07,53.2974 335.177,54.3396 335.284,55.1667 335.392,55.9317 335.499,56.4156 335.606,56.6988 335.713,56.8229 335.821,56.825 335.928,56.9139 336.035,56.9718 336.143,57.0421 336.25,57.3957 336.357,57.8113 336.464,58.566 336.572,59.2628 336.679,60.2326 336.786,61.1672 336.894,62.2362 337.001,63.361 337.108,64.4755 337.215,65.4308 337.323,66.3262 337.43,67.0457 337.537,67.5916 337.645,68.0176 337.752,68.2491 337.859,68.3277 337.967,68.1602 338.074,67.9617 338.181,67.6474 338.288,67.2649 338.396,66.7624 338.503,66.2621 338.61,65.681 338.718,65.0876 338.825,64.6368 338.932,64.2233 339.039,63.9441 339.147,63.9814 339.254,64.5355 339.361,65.1331 339.469,66.3861 339.576,67.848 339.683,69.6097 339.79,71.7539 339.898,74.0863 340.005,76.5883 340.112,79.0902 340.22,81.6521 340.327,83.8687 340.434,86.0191 340.542,87.6071 340.649,89.0235 340.756,89.8465 340.863,90.2497 340.971,90.4337 341.078,90.1773 341.185,89.8072 341.293,89.3192 341.4,88.9077 341.507,88.6389 341.614,88.7837 341.722,89.0215 341.829,89.7369 341.936,90.7067 342.044,91.9762 342.151,93.3058 342.258,94.9868 342.365,96.3288 342.473,97.8589 342.58,99.1616 342.687,100.107 342.795,100.998 342.902,101.391 343.009,101.763 343.116,101.544 343.224,101.097 343.331,100.41 343.438,99.3559 343.546,98.1339 343.653,96.5955 343.76,94.7697 343.868,93.0266 343.975,91.1595 344.082,89.3006 344.189,87.6464 344.297,85.9778 344.404,84.733 344.511,83.9266 344.619,83.3911 344.726,83.3414 344.833,83.7612 344.94,84.4208 345.048,85.281 345.155,86.2197 345.262,87.0013 345.37,87.5782 345.477,87.754 345.584,87.481 345.691,86.991 345.799,85.9033 345.906,84.6028 346.013,83.0871 346.121,81.5529 346.228,80.0124 346.335,78.8235 346.443,77.9716 346.55,77.5435 346.657,77.589 346.764,78.1453 346.872,79.3487 346.979,81.0256 347.086,83.2132 347.194,85.8682 347.301,88.7671 347.408,91.9308 347.515,95.3714 347.623,98.9321 347.73,102.261 347.837,105.427 347.945,108.156 348.052,110.309 348.159,111.874 348.266,112.802 348.374,112.976 348.481,112.798 348.588,112.046 348.696,111.237 348.803,110.323 348.91,109.535 349.018,108.851 349.125,108.532 349.232,108.334 349.339,108.369 349.447,108.448 349.554,108.617 349.661,108.673 349.769,108.508 349.876,108.177 349.983,107.354 350.09,106.084 350.198,104.403 350.305,102.238 350.412,99.5793 350.52,96.428 350.627,93.0184 350.734,89.3316 350.841,85.6345 350.949,81.739 351.056,78.1018 351.163,74.5164 351.271,71.0633 351.378,67.848 351.485,64.7692 351.592,61.711 351.7,58.7169 351.807,55.8842 351.914,53.0907 352.022,50.7149 352.129,48.5065 352.236,46.7366 352.344,45.6469 352.451,44.9604 352.558,44.9852 352.665,45.5125 352.773,46.2858 352.88,47.4541 352.987,48.6885 353.095,49.9994 353.202,51.0581 353.309,52.0299 353.416,52.6544 353.524,53.2023 353.631,53.5724 353.738,53.8619 353.846,54.0108 353.953,54.0832 354.06,54.0997 354.167,54.1783 354.275,54.3933 354.382,54.596 354.489,54.8027 354.597,55.1398 354.704,55.5926 354.811,56.0413 354.919,56.5065 355.026,57.0318 355.133,57.5859 355.24,58.3179 355.348,59.1057 355.455,60.0237 355.562,61.0121 355.67,61.9467 355.777,62.6994 355.884,63.3776 355.991,63.9255 356.099,64.2584 356.206,64.3846 356.313,64.277 356.421,63.8697 356.528,63.4892 356.635,62.9516 356.742,62.3003 356.85,61.6883 356.957,61.1796 357.064,60.6792 357.172,60.5924 357.279,60.7929 357.386,61.4339 357.493,62.4802 357.601,63.9069 357.708,66.0367 357.815,68.398 357.923,71.1315 358.03,74.0656 358.137,77.0121 358.245,79.8408 358.352,82.3675 358.459,84.6193 358.566,86.2776 358.674,87.4769 358.781,88.182 358.888,88.3598 358.996,88.3805 359.103,88.0889 359.21,87.7726 359.317,87.4665 359.425,87.3342 359.532,87.39 359.639,87.6299 359.747,88.2316 359.854,89.1497 359.961,90.289 360.069,91.7509 360.176,93.2582 360.283,94.8649 360.39,96.4322 360.498,97.9085 360.605,99.3063 360.712,100.481 360.82,101.482 360.927,102.371 361.034,102.914 361.141,103.117 361.249,102.939 361.356,102.232 361.463,101.254 361.571,99.5565 361.678,97.677 361.785,95.3983 361.892,92.9667 362,90.5206 362.107,88.2192 362.214,86.3231 362.322,84.8261 362.429,83.7984 362.536,83.3373 362.643,83.3414 362.751,83.9576 362.858,84.7744 362.965,85.8455 363.073,86.9372 363.18,87.8098 363.287,88.4529 363.395,88.7651 363.502,88.6348 363.609,88.2006 363.716,87.1853 363.824,86.0564 363.931,84.5449 364.038,82.9382 364.146,81.2861 364.253,79.6898 364.36,78.1142 364.467,76.8178 364.575,75.9845 364.682,75.5151 364.789,75.6578 364.897,76.4993 365.004,77.8434 365.111,80.0744 365.218,82.7542 365.326,85.9757 365.433,89.4681 365.54,92.9171 365.648,96.4012 365.755,99.4614 365.862,102.261 365.97,104.397 366.077,106.055 366.184,107.296 366.291,107.939 366.399,108.377 366.506,108.47 366.613,108.435 366.721,108.377 366.828,108.435 366.935,108.506 367.042,108.801 367.15,109.407 367.257,110.133 367.364,111.082 367.472,112.126 367.579,113.084 367.686,113.739 367.793,114.235 367.901,114.126 368.008,113.683 368.115,112.629 368.223,111.113 368.33,109.293 368.437,107.079 368.544,104.763 368.652,102.263 368.759,99.7591 368.866,97.1269 368.974,94.4451 369.081,91.571 369.188,88.5624 369.296,85.3389 369.403,81.8713 369.51,78.1515 369.617,74.4316 369.725,70.6725 369.832,67.0809 369.939,63.7436 370.047,60.6978 370.154,57.863 370.261,55.6422 370.368,53.7875 370.476,52.2532 370.583,51.0912 370.69,50.3489 370.798,49.8464 370.905,49.5218 371.012,49.5342 371.12,49.5032 371.227,49.6831 371.334,49.8692 371.441,50.0304 371.549,50.3282 371.656,50.5784 371.763,50.7707 371.871,50.9816 371.978,51.2835 372.085,51.5295 372.192,51.7425 372.3,52.0609 372.407,52.3504 372.514,52.5717 372.622,52.8632 372.729,53.3264 372.836,53.7751 372.943,54.3375 373.051,55.1129 373.158,55.8945 373.265,56.856 373.373,57.9291 373.48,59.054 373.587,60.2036 373.694,61.3616 373.802,62.5153 373.909,63.5058 374.016,64.4032 374.124,65.0628 374.231,65.4515 374.338,65.5714 374.446,65.5487 374.553,65.2199 374.66,64.9222 374.767,64.3453 374.875,63.7643 374.982,63.3776 375.089,62.9889 375.197,62.9227 375.304,63.2432 375.411,63.8056 375.518,64.8932 375.626,66.2579 375.733,68.1044 375.84,70.1225 375.948,72.4342 376.055,74.7769 376.162,77.0349 376.269,79.1398 376.377,80.9243 376.484,82.3034 376.591,83.4241 376.699,84.1168 376.806,84.4849 376.913,84.7247 377.021,84.8653 377.128,85.0783 377.235,85.5043 377.342,85.9406 377.45,86.5857 377.557,87.4066 377.664,88.3246 377.772,89.373 377.879,90.5392 377.986,91.6289 378.093,92.7765 378.201,94.0088 378.308,95.4376 378.415,96.885 378.523,98.3696 378.63,99.8936 378.737,101.43 378.844,102.697 378.952,103.888 379.059,104.693 379.166,105.044 379.274,104.986 379.381,104.294 379.488,103.169 379.595,101.62 379.703,99.5379 379.81,97.313 379.917,95.0489 380.025,92.9625 380.132,91.0582 380.239,89.5694 380.347,88.4735 380.454,87.8305 380.561,87.6444 380.668,87.8884 380.776,88.3619 380.883,88.9801 380.99,89.7617 381.098,90.4089 381.205,91.1554 381.312,91.7261 381.419,92.0176 381.527,92.0569 381.634,91.8315 381.741,91.1492 381.849,90.0636 381.956,88.7465 382.063,87.1729 382.171,85.2603 382.278,83.3993 382.385,81.6314 382.492,80.1303 382.6,79.0881 382.707,78.5526 382.814,78.6705 382.922,79.3176 383.029,80.7981 383.136,82.7087 383.243,85.1941 383.351,87.9235 383.458,90.87 383.565,93.9013 383.673,96.6245 383.78,99.145 383.887,101.281 383.994,102.993 384.102,104.25 384.209,105.23 384.316,105.849 384.424,106.287 384.531,106.568 384.638,106.849 384.745,107.399 384.853,107.894 384.96,108.754 385.067,109.69 385.175,110.677 385.282,111.618 385.389,112.436 385.497,113.139 385.604,113.462 385.711,113.559 385.818,113.282 385.926,112.771 386.033,111.994 386.14,110.999 386.248,109.678 386.355,108.127 386.462,106.415 386.569,104.455 386.677,102.315 386.784,99.9039 386.891,97.28 386.999,94.5485 387.106,91.4118 387.213,88.0993 387.32,84.6276 387.428,80.9884 387.535,77.312 387.642,73.5859 387.75,70.1039 387.857,66.7707 387.964,63.8676 388.072,61.254 388.179,59.1615 388.286,57.344 388.393,55.9028 388.501,54.7531 388.608,53.9095 388.715,53.2333 388.823,52.7309 388.93,52.4517 389.037,52.247 389.144,52.2181 389.252,52.3959 389.359,52.6689 389.466,53.0638 389.574,53.5621 389.681,54.0894 389.788,54.6497 389.895,55.0529 390.003,55.574 390.11,55.9834 390.217,56.4528 390.325,57.0131 390.432,57.6045 390.539,58.3551 390.646,59.085 390.754,60.1168 390.861,60.8467 390.968,61.7627 391.076,62.5919 391.183,63.3548 391.29,64.0206 391.398,64.6596 391.505,65.1207 391.612,65.6666 391.719,66.2186 391.827,66.5102 391.934,66.6425 392.041,66.657 392.149,66.4027 392.256,65.9064 392.363,65.1186 392.47,64.0723 392.578,62.8669 392.685,61.6324 392.792,60.3008 392.9,59.178 393.007,58.2434 393.114,57.6789 393.221,57.6169 393.329,58.0842 393.436,58.8824 393.543,60.2098 393.651,61.9074 393.758,63.7456 393.865,65.8485 393.973,67.7425 394.08,69.5539 394.187,71.1853 394.294,72.5831 394.402,73.7844 394.509,74.7418 394.616,75.7178 394.724,76.4042 394.831,77.0783 394.938,77.7607 395.045,78.6477 395.153,79.4707 395.26,80.4094 395.367,81.466 395.475,82.6115 395.582,83.9556 395.689,85.3409 395.796,86.7284 395.904,88.3288 396.011,90.1174 396.118,92.0321 396.226,94.2776 396.333,96.488 396.44,98.9155 396.548,101.362 396.655,103.665 396.762,105.743 396.869,107.348 396.977,108.437 397.084,108.872 397.191,108.473 397.299,107.554 397.406,105.938 397.513,103.872 397.62,101.542 397.728,99.0851 397.835,96.6307 397.942,94.3727 398.05,92.3753 398.157,90.5454 398.264,89.1497 398.371,88.1778 398.479,87.5927 398.586,87.4252 398.693,87.7043 398.801,88.2688 398.908,89.2076 399.015,90.3738 399.123,91.4262 399.23,92.5573 399.337,93.3699 399.444,93.7462 399.552,93.6656 399.659,93.0825 399.766,92.1106 399.874,90.5909 399.981,88.8064 400.088,86.7449 400.195,84.6793 400.303,82.8989 400.41,81.2489 400.517,79.9669 400.625,79.2494 400.732,79.0902 400.839,79.4665 400.946,80.5769 401.054,82.2166 401.161,84.3298 401.268,86.8049 401.376,89.5529 401.483,92.2471 401.59,94.7242 401.697,96.9574 401.805,98.7915 401.912,100.243 402.019,101.318 402.127,102.056 402.234,102.66 402.341,103.192 402.449,103.667 402.556,104.199 402.663,105.046 402.77,105.826 402.878,106.827 402.985,107.844 403.092,108.816 403.2,109.763 403.307,110.511 403.414,111.161 403.521,111.502 403.629,111.667 403.736,111.62 403.843,111.221 403.951,110.619 404.058,109.86 404.165,108.952 404.272,107.765 404.38,106.425 404.487,104.763 404.594,102.83 404.702,100.601 404.809,98.1918 404.916,95.3239 405.024,92.4146 405.131,89.1703 405.238,85.8268 405.345,82.4668 405.453,79.1895 405.56,75.7901 405.667,72.5955 405.775,69.5932 405.882,66.6777 405.989,64.2543 406.096,61.9323 406.204,59.9803 406.311,58.1959 406.418,56.7175 406.526,55.5554 406.633,54.4636 406.74,53.7379 406.848,53.1113 406.955,52.5613 407.062,52.398 407.169,52.2119 407.277,52.1788 407.384,52.1747 407.491,52.2532 407.599,52.4683 407.706,52.7474 407.813,52.9811 407.92,53.2602 408.028,53.5125 408.135,53.7751 408.242,54.0108 408.35,54.2631 408.457,54.4905 408.564,54.8152 408.671,55.2535 408.779,55.8325 408.886,56.5686 408.993,57.4784 409.101,58.2827 409.208,59.2649 409.315,60.1954 409.422,61.2623 409.53,62.2631 409.637,63.3383 409.744,64.2398 409.852,65.0256 409.959,65.5404 410.066,65.6872 410.173,65.4474 410.281,64.7381 410.388,63.5533 410.495,62.1742 410.603,60.6771 410.71,59.1656 410.817,57.7658 410.925,56.6864 411.032,56.0454 411.139,55.8428 411.246,56.0475 411.354,56.8105 411.461,57.9539 411.568,59.4344 411.676,61.0865 411.783,63.0302 411.89,64.9883 411.997,66.9547 412.105,68.6151 412.212,70.2734 412.319,71.603 412.427,72.9511 412.534,73.8961 412.641,74.6901 412.748,75.4531 412.856,75.9163 412.963,76.3008 413.07,76.5366 413.178,76.6544 413.285,76.458 413.392,76.489 413.5,76.4063 413.607,76.5035 413.714,76.7785 413.821,77.3781 413.929,78.4306 414.036,79.8904 414.143,81.7824 414.251,83.908 414.358,86.2859 414.465,88.7341 414.572,91.1988 414.68,93.4092 414.787,95.3011 414.894,96.8002 415.002,97.6129 415.109,98.1008 415.216,97.8734 415.323,97.1786 415.431,96.0248 415.538,94.5009 415.645,92.5821 415.753,90.6115 415.86,88.6782 415.967,86.7056 416.075,85.068 416.182,83.7033 416.289,82.7356 416.396,82.3655 416.504,82.4627 416.611,82.932 416.718,83.9101 416.826,85.19 416.933,86.7118 417.04,88.4901 417.147,90.1608 417.255,91.784 417.362,93.2458 417.469,94.3107 417.577,94.8587 417.684,94.9352 417.791,94.381 417.898,93.3968 418.006,91.9225 418.113,90.32 418.22,88.4012 418.328,86.5981 418.435,85.1217 418.542,84.0321 418.65,83.4883 418.757,83.449 418.864,83.9431 418.971,84.8612 419.079,86.2176 419.186,87.8656 419.293,89.6087 419.401,91.4428 419.508,93.4009 419.615,95.0716 419.722,96.701 419.83,98.1898 419.937,99.4469 420.044,100.76 420.152,101.976 420.259,103.14 420.366,104.418 420.473,105.685 420.581,107.038 420.688,108.293 420.795,109.62 420.903,110.786 421.01,111.855 421.117,112.711 421.224,113.431 421.332,113.993 421.439,114.372 421.546,114.721 421.654,114.775 421.761,114.926 421.868,114.992 421.976,115.038 422.083,114.789 422.19,114.469 422.297,113.82 422.405,112.928 422.512,111.566 422.619,110.03 422.727,108.03 422.834,105.758 422.941,103.119 423.048,100.257 423.156,97.1786 423.263,93.9716 423.37,90.6529 423.478,87.206 423.585,83.7446 423.692,80.366 423.799,77.0928 423.907,73.9312 424.014,71.0261 424.121,68.3215 424.229,65.9292 424.336,63.8511 424.443,62.1308 424.551,60.5014 424.658,59.2876 424.765,58.2269 424.872,57.5115 424.98,56.9408 425.087,56.5272 425.194,56.0206 425.302,55.8283 425.409,55.4189 425.516,55.2039 425.623,54.9454 425.731,54.7242 425.838,54.596 425.945,54.4533 426.053,54.4264 426.16,54.5112 426.267,54.4988 426.374,54.5277 426.482,54.5608 426.589,54.5753 426.696,54.8544 426.804,55.2576 426.911,56.0248 427.018,56.9614 427.125,58.2848 427.233,59.9266 427.34,61.7482 427.447,63.6526 427.555,65.4825 427.662,67.1553 427.769,68.4559 427.877,69.2396 427.984,69.5394 428.091,69.3512 428.198,68.5655 428.306,67.666 428.413,66.2559 428.52,64.7485 428.628,63.1625 428.735,61.7772 428.842,60.4662 428.949,59.6743 429.057,59.1739 429.164,59.1677 429.271,59.5213 429.379,60.2305 429.486,61.2272 429.593,62.6497 429.701,64.0124 429.808,65.5259 429.915,67.1512 430.022,68.9873 430.13,70.8007 430.237,72.6555 430.344,74.5536 430.452,76.3422 430.559,78.0191 430.666,79.4562 430.773,80.5893 430.881,81.5239 430.988,81.9457 431.095,82.2393 431.203,82.1856 431.31,82.2207 431.417,82.1649 431.524,82.2766 431.632,82.5867 431.739,83.3022 431.846,84.2595 431.954,85.6428 432.061,87.359 432.168,89.2572 432.275,91.3683 432.383,93.7152 432.49,96.0786 432.597,98.3883 432.705,100.553 432.812,102.53 432.919,104.11 433.026,105.373 433.134,106.086 433.241,106.38 433.348,106.053 433.456,105.299 433.563,104.124 433.67,102.608 433.778,100.896 433.885,99.1264 433.992,97.2303 434.099,95.5472 434.207,94.0646 434.314,92.7413 434.421,91.9742 434.529,91.6041 434.636,91.7178 434.743,92.2285 434.85,93.0204 434.958,94.077 435.065,95.2743 435.172,96.3743 435.28,97.0442 435.387,97.4619 435.494,97.3544 435.602,96.8933 435.709,95.7602 435.816,94.4554 435.923,92.733 436.031,90.9548 436.138,89.1104 436.245,87.2412 436.353,85.7462 436.46,84.5614 436.567,83.7819 436.674,83.3952 436.782,83.5027 436.889,83.9452 436.996,84.7496 437.104,85.8517 437.211,86.9848 437.318,88.3288 437.425,89.5115 437.533,90.8783 437.64,92.0424 437.747,93.2024 437.855,94.5402 437.962,95.6899 438.069,97.0918 438.177,98.6612 438.284,100.351 438.391,102.185 438.498,103.94 438.606,105.687 438.713,107.476 438.82,109.248 438.928,110.846 439.035,112.362 439.142,113.694 439.249,114.92 439.357,116.082 439.464,117.14 439.571,117.908 439.679,118.577 439.786,119.022 439.893,119.198 440,119.196 440.108,118.894 440.215,118.323 440.322,117.48 440.43,116.417 440.537,114.916 440.644,113.278 440.751,111.109 440.859,108.706 440.966,106.128 441.073,103.297 441.181,100.317 441.288,97.1414 441.395,94.0419 441.503,90.839 441.61,87.4438 441.717,84.2368 441.824,80.9594 441.932,77.8558 442.039,74.9051 442.146,72.4218 442.254,69.8185 442.361,67.7694 442.468,65.7141 442.575,63.969 442.683,62.3665 442.79,60.9976 442.897,59.6681 443.005,58.748 443.112,57.9415 443.219,57.3729 443.326,57.0669 443.434,56.8705 443.541,56.8333 443.648,56.705 443.756,56.7216 443.863,56.6161 443.97,56.2047 444.077,55.8118 444.185,55.1977 444.292,54.5608 444.399,54.048 444.507,53.5683 444.614,53.407 444.721,53.405 444.829,53.8268 444.936,54.5401 445.043,55.4975 445.15,56.8849 445.258,58.3034 445.365,60.0196 445.472,61.7462 445.58,63.361 445.687,64.7278 445.794,65.7679 445.901,66.2124 446.009,66.1669 446.116,65.6293 446.223,64.8271 446.331,63.5389 446.438,62.2838 446.545,60.8053 446.653,59.5109 446.76,58.3365 446.867,57.3626 446.974,56.6161 447.082,55.9689 447.189,55.6257 447.296,55.5285 447.404,55.5161 447.511,55.8056 447.618,56.5376 447.725,57.5694 447.833,59.085 447.94,60.9232 448.047,63.0281 448.155,65.1372 448.262,67.2422 448.369,69.3368 448.476,71.1295 448.584,72.6555 448.691,73.7493 448.798,74.6508 448.906,75.2732 449.013,75.6599 449.12,75.8811 449.228,76.0217 449.335,76.0796 449.442,76.2678 449.549,76.4042 449.657,76.6379 449.764,77.2665 449.871,78.1535 449.979,79.4148 450.086,80.9015 450.193,82.8659 450.3,84.9832 450.408,87.2701 450.515,89.5632 450.622,91.7385 450.73,93.771 450.837,95.6361 450.944,97.1456 451.051,98.2022 451.159,98.9031 451.266,99.0871 451.373,98.7522 451.481,98.0615 451.588,96.8085 451.695,95.2577 451.802,93.6945 451.91,91.9184 452.017,90.2497 452.124,88.7113 452.232,87.5348 452.339,86.749 452.446,86.3665 452.554,86.4906 452.661,86.8772 452.768,87.665 452.875,88.581 452.983,89.5363 453.09,90.6178 453.197,91.42 453.305,91.7922 453.412,91.8418 453.519,91.4986 453.626,90.7811 453.734,89.6997 453.841,88.4529 453.948,86.9538 454.056,85.5891 454.163,84.4249 454.27,83.3559 454.377,82.7335 454.485,82.3903 454.592,82.3241 454.699,82.504 454.807,83.0023 454.914,83.5089 455.021,84.3629 455.129,85.192 455.236,86.1267 455.343,86.9848 455.45,87.8491 455.558,88.7837 455.665,89.6252 455.772,90.6198 455.88,91.5668 455.987,92.5779 456.094,93.771 456.201,94.8835 456.309,96.213 456.416,97.6873 456.523,99.0727 456.631,100.543 456.738,102.046 456.845,103.421 456.952,104.593 457.06,105.803 457.167,106.847 457.274,107.767 457.382,109.008 457.489,110.189 457.596,111.223 457.703,112.228 457.811,112.924 457.918,113.35 458.025,113.691 458.133,113.512 458.24,113.148 458.347,112.277 458.455,111.303 458.562,110.038 458.669,108.514 458.776,106.616 458.884,104.587 458.991,102.288 459.098,99.6785 459.206,96.9512 459.313,93.8868 459.42,90.7604 459.527,87.7002 459.635,84.6255 459.742,81.8134 459.849,79.328 459.957,77.0328 460.064,74.7976 460.171,72.7795 460.278,70.9847 460.386,69.2603 460.493,67.6681 460.6,66.3654 460.708,65.3192 460.815,64.4218 460.922,63.8718 461.03,63.4334 461.137,63.1191 461.244,62.9764 461.351,62.7883 461.459,62.536 461.566,62.3106 461.673,61.8227 461.781,61.2106 461.888,60.2098 461.995,59.1201 462.102,57.8816 462.21,56.6658 462.317,55.5864 462.424,54.689 462.532,53.8992 462.639,53.7379 462.746,53.9157 462.853,54.5608 462.961,55.7704 463.068,57.3088 463.175,59.0168 463.283,60.7516 463.39,62.7014 463.497,64.4776 463.604,65.9043 463.712,66.8989 463.819,67.6474 463.926,68.0672 464.034,68.185 464.141,67.9886 464.248,67.5089 464.356,66.9093 464.463,66.169 464.57,65.4246 464.677,64.6823 464.785,63.8159 464.892,63.1191 464.999,62.3706 465.107,62.0191 465.214,61.6014 465.321,61.4505 465.428,61.5807 465.536,61.9302 465.643,62.5877 465.75,63.5244 465.858,64.6058 465.965,65.923 466.072,67.4861 466.18,69.2416 466.287,71.0364 466.394,72.7692 466.501,74.2931 466.609,75.5771 466.716,76.458 466.823,77.0556 466.931,77.4712 467.038,77.7503 467.145,77.802 467.252,78.0625 467.36,78.3851 467.467,78.7614 467.574,79.2122 467.682,79.9669 467.789,80.7754 467.896,81.8299 468.003,83.1802 468.111,84.8364 468.218,86.5526 468.325,88.3391 468.433,90.4565 468.54,92.4415 468.647,94.3293 468.754,96.0869 468.862,97.4081 468.969,98.382 469.076,98.9962 469.184,99.1595 469.291,98.6612 469.398,98.0264 469.506,97.0277 469.613,95.7147 469.72,94.2466 469.827,92.8323 469.935,91.3353 470.042,90.0264 470.149,89.0421 470.257,88.4177 470.364,88.3226 470.471,88.6948 470.578,89.4391 470.686,90.4172 470.793,91.5524 470.9,92.6503 471.008,93.5477 471.115,93.9199 471.222,94.0192 471.329,93.5002 471.437,92.5387 471.544,91.2587 471.651,89.6831 471.759,88.122 471.866,86.5836 471.973,85.0825 472.081,83.8129 472.188,82.6839 472.295,81.7038 472.402,81.0318 472.51,80.6265 472.617,80.5128 472.724,80.5769 472.832,80.8602 472.939,81.2179 473.046,81.6645 473.153,82.1897 473.261,82.7129 473.368,83.2318 473.475,83.9059 473.583,84.5304 473.69,85.1734 473.797,85.8496 473.904,86.6208 474.012,87.3342 474.119,87.9421 474.226,88.6886 474.334,89.4826 474.441,90.2683 474.548,91.3104 474.655,92.4353 474.763,93.709 474.87,95.0944 474.977,96.5149 475.085,98.1153 475.192,99.6723 475.299,101.248 475.407,102.567 475.514,103.907 475.621,105.336 475.728,106.545 475.836,107.757 475.943,108.909 476.05,109.939 476.158,110.708 476.265,111.109 476.372,110.999 476.479,110.561 476.587,109.701 476.694,108.396 476.801,106.767 476.909,104.856 477.016,102.699 477.123,100.386 477.23,97.9871 477.338,95.3983 477.445,92.6524 477.552,89.6252 477.66,86.5671 477.767,83.5048 477.874,80.459 477.982,77.4381 478.089,74.5226 478.196,71.7705 478.303,69.374 478.411,67.0788 478.518,65.1351 478.625,63.6195 478.733,62.2548 478.84,61.2334 478.947,60.6668 479.054,60.2946 479.162,60.1333 479.269,60.0258 479.376,59.8501 479.484,59.573 479.591,59.0995 479.698,58.4502 479.805,57.2551 479.913,55.9689 480.02,54.5794 480.127,53.1486 480.235,51.9203 480.342,50.8575 480.449,50.2165 480.557,50.0118 480.664,50.3654 480.771,51.0374 480.878,52.1623 480.986,53.5104 481.093,55.0612 481.2,56.8457 481.308,58.8906 481.415,60.9563 481.522,63.0281 481.629,64.9904 481.737,66.9899 481.844,68.6523 481.951,70.1101 482.059,71.4003 482.166,72.2543 482.273,72.8498 482.38,73.0938 482.488,73.04 482.595,72.7009 482.702,72.1302 482.81,71.359 482.917,70.4802 483.024,69.4009 483.131,68.5345 483.239,67.6412 483.346,66.9775 483.453,66.5412 483.561,66.3324 483.668,66.5102 483.775,66.9155 483.883,67.5564 483.99,68.4911 484.097,69.6821 484.204,70.7656 484.312,71.9566 484.419,73.1269 484.526,74.2869 484.634,75.3435 484.741,76.0817 484.848,76.7971 484.955,77.2892 485.063,77.527 485.17,77.8062 485.277,77.7255 485.385,77.8268 485.492,78.0377 485.599,78.4678 485.706,79.0613 485.814,79.8263 485.921,80.8622 486.028,82.1463 486.136,83.6371 486.243,85.221 486.35,87.0447 486.458,88.8767 486.565,90.7976 486.672,92.3588 486.779,93.8992 486.887,95.266 486.994,96.1241 487.101,96.4218 487.209,96.2254 487.316,95.6423 487.423,94.4989 487.53,93.1486 487.638,91.6433 487.745,90.1918 487.852,88.8602 487.96,87.9545 488.067,87.2494 488.174,86.9992 488.281,87.0468 488.389,87.4252 488.496,88.0662 488.603,88.823 488.711,89.6997 488.818,90.6322 488.925,91.3187 489.033,91.8191 489.14,92.1623 489.247,92.2616 489.354,91.848 489.462,91.0354 489.569,90.107 489.676,88.67 489.784,87.2825 489.891,85.8847 489.998,84.4208 490.105,83.1057 490.213,81.9933 490.32,81.0959 490.427,80.4115 490.535,79.756 490.642,79.1543 490.749,78.6105 490.856,78.23 490.964,77.9964 491.071,78.0336 491.178,78.1246 491.286,78.5939 491.393,79.053 491.5,79.6485 491.607,80.3598 491.715,81.0938 491.822,81.7514 491.929,82.566 492.037,83.358 492.144,84.3133 492.251,85.2582 492.359,86.443 492.466,87.4603 492.573,88.4715 492.68,89.5756 492.788,90.3179 492.895,91.1347 493.002,91.8418 493.11,92.4332 493.217,93.1631 493.324,93.953 493.431,94.685 493.539,95.6423 493.646,96.4074 493.753,97.3606 493.861,98.1153 493.968,98.7894 494.075,99.4014 494.182,99.7778 494.29,100.096 494.397,100.162 494.504,100.117 494.612,99.7591 494.719,99.2546 494.826,98.6405 494.934,97.6253 495.041,96.3826 495.148,94.9331 495.255,93.099 495.363,91.0127 495.47,88.4983 495.577,85.8227 495.685,82.7832 495.792,79.7126 495.899,76.5572 496.006,73.5301 496.114,70.5836 496.221,67.848 496.328,65.4494 496.436,63.4872 496.543,62.0191 496.65,61.0328 496.758,60.6089 496.865,60.46 496.972,60.7392 497.079,61.1775 497.187,61.7089 497.294,62.0584 497.401,62.4223 497.509,62.5526 497.616,62.5712 497.723,62.6622 497.83,62.534 497.938,62.3706 498.045,62.0894 498.152,61.9715 498.26,61.74 498.367,61.6407 498.474,61.6862 498.581,61.9881 498.689,62.4202 498.796,63.0695 498.903,63.9607 499.011,64.916 499.118,66.0201 499.225,67.1326 499.332,68.3835 499.44,69.7358 499.547,70.931 499.654,72.2647 499.762,73.4453 499.869,74.6281 499.976,75.6971 500.083,76.5924 500.191,77.2003 500.298,77.436 500.405,77.3637 500.513,77.1052 500.62,76.4125 500.727,75.4738 500.835,74.4875 500.942,73.3109 501.049,71.9917 501.156,70.7656 501.264,69.5167 501.371,68.3649 501.478,67.2442 501.586,66.4192 501.693,65.7224 501.8,65.0648 501.907,64.916 502.015,64.8064 502.122,65.0111 502.229,65.4081 502.337,65.9829 502.444,66.7314 502.551,67.5916 502.658,68.3443 502.766,69.19 502.873,70.0667 502.98,71.0426 503.088,71.9338 503.195,72.854 503.302,73.7906 503.41,74.7418 503.517,75.6971 503.624,76.5717 503.731,77.6779 503.839,78.7552 503.946,79.9483 504.053,81.2861 504.161,82.8638 504.268,84.7289 504.375,86.5712 504.482,88.3371 504.59,90.0533 504.697,91.6764 504.804,92.9109 504.912,93.893 505.019,94.288 505.126,94.2776 505.233,93.9757 505.341,93.5105 505.448,92.7599 505.555,92.03 505.663,91.2029 505.77,90.5599 505.877,90.0533 505.984,89.7472 506.092,89.8734 506.199,90.0967 506.306,90.6405 506.414,91.4366 506.521,92.3071 506.628,93.2148 506.736,93.9013 506.843,94.6312 506.95,95.1233 507.057,95.3115 507.165,95.3983 507.272,95.4025 507.379,95.2722 507.487,95.0882 507.594,94.7056 507.701,94.1515 507.808,93.4981 507.916,92.4828 508.023,91.4986 508.13,90.2849 508.238,89.1703 508.345,87.9917 508.452,87.0282 508.56,86.0667 508.667,85.2872 508.774,84.6172 508.881,84.0031 508.989,83.4448 509.096,83.0499 509.203,82.5309 509.311,82.1484 509.418,82.0202 509.525,82.0719 509.632,82.2786 509.74,82.6942 509.847,83.36 509.954,84.0569 510.062,84.8178 510.169,85.5808 510.276,86.2859 510.383,87.0282 510.491,87.6258 510.598,88.182 510.705,88.6121 510.813,88.9367 510.92,89.2737 511.027,89.5736 511.134,89.7927 511.242,89.7679 511.349,89.9271 511.456,89.9499 511.564,89.9602 511.671,89.8279 511.778,89.6066 511.886,89.4081 511.993,89.2055 512.1,89.2737 512.207,89.1766 512.315,89.0339 512.422,88.8953 512.529,88.7651 512.637,88.581 512.744,88.2171 512.851,87.8842 512.958,87.297 513.066,86.6229 513.173,85.6097 513.28,84.2409 513.388,82.5826 513.495,80.6141 513.602,78.3272 513.709,75.7591 513.817,73.1931 513.924,70.6084 514.031,68.1375 514.139,65.8154 514.246,63.9462 514.353,62.534 514.461,61.3967 514.568,61.0163 514.675,60.8053 514.782,61.1631 514.89,61.651 514.997,62.4264 515.104,63.3404 515.212,64.2915 515.319,65.344 515.426,66.1194 515.533,66.8658 515.641,67.6081 515.748,68.1974 515.855,68.8984 515.963,69.496 516.07,70.3251 516.177,71.0033 516.284,71.8449 516.392,72.7278 516.499,73.4929 516.606,74.3593 516.714,75.2711 516.821,76.0837 516.928,77.0866 517.036,78.1515 517.143,79.2163 517.25,80.2957 517.357,81.5053 517.465,82.8824 517.572,84.0527 517.679,85.3203 517.787,86.4203 517.894,87.1853 518.001,87.9049 518.108,88.1613 518.216,88.3226 518.323,88.184 518.43,87.7147 518.538,87.1709 518.645,86.3665 518.752,85.2789 518.859,84.2223 518.967,82.9362 519.074,81.6666 519.181,80.3019 519.289,79.0447 519.396,77.8434 519.503,76.6317 519.611,75.5792 519.718,74.4378 519.825,73.3419 519.932,72.457 520.04,71.6609 520.147,70.9454 520.254,70.5298 520.362,70.2652 520.469,70.2383 520.576,70.2114 520.683,70.2155 520.791,70.3603 520.898,70.3789 521.005,70.3251 521.113,70.2155 521.22,70.1204 521.327,70.015 521.434,70.1039 521.542,70.5815 521.649,71.1295 521.756,72.213 521.864,73.4226 521.971,75.0561 522.078,76.8302 522.185,78.7387 522.293,80.8085 522.4,82.7542 522.507,84.4187 522.615,86.1639 522.722,87.5555 522.829,88.5438 522.937,89.0608 523.044,89.3296 523.151,89.2448 523.258,89.0008 523.366,88.8044 523.473,88.581 523.58,88.5066 523.688,88.7858 523.795,89.1476 523.902,89.8486 524.009,90.6901 524.117,91.695 524.224,92.9109 524.331,94.0957 524.439,95.3135 524.546,96.5521 524.653,97.9685 524.76,99.3621 524.868,100.712 524.975,101.895 525.082,102.892 525.19,103.673 525.297,104.033 525.404,104.145 525.511,103.795 525.619,103.266 525.726,102.602 525.833,101.711 525.941,100.731 526.048,99.7654 526.155,98.626 526.263,97.5095 526.37,96.4632 526.477,95.0923 526.584,93.9468 526.692,92.6937 526.799,91.3994 526.906,90.1628 527.014,88.8188 527.121,87.6092 527.228,86.5299 527.335,85.5746 527.443,84.8633 527.55,84.1789 527.657,83.7095 527.765,83.389 527.872,83.052 527.979,82.8948 528.087,82.7749 528.194,82.8948 528.301,82.9403 528.408,83.1698 528.516,83.1781 528.623,83.2256 528.73,83.36 528.838,83.4676 528.945,83.5399 529.052,83.6495 529.159,83.8025 529.267,83.9183 529.374,83.8604 529.481,83.8067 529.589,83.5131 529.696,83.1677 529.803,82.7377 529.91,82.3303 530.018,81.9271 530.125,81.6356 530.232,81.5425 530.34,81.5032 530.447,81.6562 530.554,82.0016 530.661,82.3283 530.769,82.6467 530.876,82.7129 530.983,82.6425 531.091,82.2042 531.198,81.5963 531.305,80.6658 531.413,79.4128 531.52,77.8062 531.627,76.1148 531.734,74.3406 531.842,72.6348 531.949,70.9454 532.056,69.4257 532.164,68.3112 532.271,67.2049 532.378,66.626 532.485,66.3034 532.593,66.2807 532.7,66.3758 532.807,66.6653 532.915,67.1491 533.022,67.7591 533.129,68.4911 533.236,69.2603 533.344,70.0873 533.451,70.8751 533.558,71.7539 533.666,72.7423 533.773,73.6087 533.88,74.3696 533.987,75.1905 534.095,75.908 534.202,76.5614 534.309,77.0514 534.417,77.7276 534.524,78.3748 534.631,78.9558 534.739,79.8036 534.846,80.5149 534.953,81.3068 535.06,82.1256 535.168,82.7377 535.275,83.4117 535.382,84.09 535.49,84.6606 535.597,85.2086 535.704,85.5911 535.811,85.9468 535.919,86.046 536.026,86.1515 536.133,85.9344 536.241,85.5456 536.348,85.1114 536.455,84.5738 536.562,83.8832 536.67,83.2505 536.777,82.4027 536.884,81.3978 536.992,80.4073 537.099,79.0468 537.206,77.7338 537.314,76.2946 537.421,74.8038 537.528,73.3419 537.635,71.7808 537.743,70.6477 537.85,69.6862 537.957,68.8736 538.065,68.2347 538.172,67.635 538.279,67.0912 538.386,66.628 538.494,66.0863 538.601,65.5032 538.708,64.9015 538.816,64.3081 538.923,63.7849 539.03,63.2639 539.138,62.8669 539.245,62.658 539.352,62.5215 539.459,62.7449 539.567,63.2411 539.674,64.1178 539.781,65.3647 539.889,67.0416 539.996,69.2582 540.103,71.5926 540.21,74.0801 540.318,76.6482 540.425,79.1254 540.532,81.2303 540.64,83.0995 540.747,84.5324 540.854,85.74 540.961,86.6539 541.069,87.3404 541.176,87.8077 541.283,88.1799 541.391,88.4363 541.498,88.6348 541.605,88.6555 541.712,88.8023 541.82,88.947 541.927,89.2055 542.034,89.6294 542.142,90.0988 542.249,90.839 542.356,91.6413 542.464,92.5428 542.571,93.4753 542.678,94.4658 542.785,95.4562 542.893,96.06 543,96.7217"/>
</g>
</g>
</svg>
