<?xml-stylesheet type="text/css" href="https://fonts.googleapis.com/css?family=Open+Sans" ?><svg xmlns="http://www.w3.org/2000/svg" viewBox="0 0 600 180"><path fill="#fff" d="M0 0h600v180H0z"/><path fill="#fefefe" shape-rendering="crispEdges" d="M0 180h600V0H0z"/><clipPath id="a"><path d="M0 180h600V0H0z"/></clipPath><g clip-path="url(#a)"><path fill="#fff" shape-rendering="crispEdges" d="M60 130h500L60 5z"/><path fill="#fff" shape-rendering="crispEdges" d="M560 130V5H60z"/><path fill="none" stroke="#262626" stroke-width=".5" d="M60 130v-5M60 5v5M161.754 130v-5M161.754 5v5M263.507 130v-5M263.507 5v5M365.261 130v-5M365.261 5v5M467.014 130v-5M467.014 5v5"/><text fill="#262626" x="60" y="135" font-size="10" text-anchor="middle" dy="10" font-family="Open Sans">0</text><text fill="#262626" x="161.754" y="135" font-size="10" text-anchor="middle" dy="10" font-family="Open Sans">20</text><text fill="#262626" x="263.507" y="135" font-size="10" text-anchor="middle" dy="10" font-family="Open Sans">40</text><text fill="#262626" x="365.261" y="135" font-size="10" text-anchor="middle" dy="10" font-family="Open Sans">60</text><text fill="#262626" x="467.014" y="135" font-size="10" text-anchor="middle" dy="10" font-family="Open Sans">80</text><path fill="none" stroke="#262626" stroke-width=".5" stroke-dasharray="16,0" d="M60 130h500M60 5h500M60 130V5M560 130V5"/><text fill="#262626" x="310" y="148" font-size="10" text-anchor="middle" dy="10" font-family="Open Sans">Time (milliseconds)</text><text fill="#262626" x="51" y="67.5" font-size="10" transform="rotate(-90 51 67.5)" text-anchor="middle" dy="0" font-family="Open Sans">Amplitude</text><path fill="none" stroke="#0071bc" stroke-width=".5" d="M60 90.895l.115-.217.116-.933.115-1.213.115-1.848.116-2.449.115-3.431.115-4.147.116-4.696.115-4.772.116-4.833.115-4.654.115-4.475.116-3.98.115-3.088.115-1.984.116-1.144.115-.683.116-.603.115-.849.115-.948.116-1.058.115-1.177.115-1.207.116-.906.115-.447.115.262.116.7.115 1.041.116 1.125.115 1.04.115.92.116.484.115.345.115.212.116.095.115.053.116.37.115.445.115.837.116.77.115.602.115.358.116.422.115.474.116.388.115.393.115.194.116.147.115-.116.115-.271.116-.22.115-.305.115-.097.116.093.115.515.115 1.11.116 1.322.115 1.677.116 2.007.115 2.271.115 2.733.116 3.25.115 3.401.115 3.681.116 3.842.115 3.702.116 3.449.115 2.59.115 1.856.116.866.115.148.115-.673.116-1.286.115-1.794.115-1.94.116-2.003.115-1.936.116-1.629.115-1.588.115-1.265.116-.937.115-.517.115-.106.116.154.115.626.115.69.116.97.115 1.163.116.743.115.527.115.3.116.328.115.349.115.715.116 1.043.115 1.56.116 1.925.115 2.233.115 2.333.116 2.249.115 2.15.115 1.72.116 1.562.115 1.278.115 1.053.116.675.115.488.116.326.115.098.115-.168.116-.71.115-1.152.115-1.402.116-1.655.115-1.881.115-2.127.116-2.164.115-2.1.116-2.058.115-1.92.115-2.118.116-2.192.115-2.14.115-1.831.116-1.656.115-1.266.116-.797.115-.353.115.233.116.53.115.723.115.745.116.777.115 1.15.115 1.133.116 1.592.115 1.82.116 2.037.115 2.106.115 1.915.116 1.556.115.91.115.174.116-.512.115-.946.116-1.318.115-1.505.115-1.369.116-1.354.115-1.03.115-1.066.116-.912.115-.645.115-.505.116-.424.115-.238.116.14.115.451.115.952.116 1.821.115 2.386.115 2.757.116 3.181.115 3.477.115 3.44.116 3.308.115 2.829.116 2.127.115 1.05.115.15.116-.844.115-1.86.115-2.723.116-3.616.115-3.825.116-4.156.115-4.367.115-4.307.116-4.061.115-4.057.115-4.108.116-3.975.115-3.586.116-3.395.115-3.115.115-2.788.116-2.417.115-1.932.115-1.517.116-1.321.115-1.217.115-1.251.116-1.1.115-1.254.115-1.244.116-1.527.115-1.624.116-1.331.115-1.259.115-1.106.116-.923.115-.601.115-.41.116-.065.115.2.115.643.116 1.085.115 1.381.116 1.582.115 1.83.115 2.009.116 2.003.115 1.915.116 1.503.115 1.234.115.932.116.674.115.324.115-.137.116-.136.115-.202.115-.002.116.14.115.453.115.744.116 1.352.115 1.559.116 2.16.115 2.555.115 2.828.116 2.627.115 2.79.115 2.348.116 1.91.115 1.41.116.766.115.251.115-.406.116-.96.115-1.475.115-1.925.116-1.879.115-1.896.115-1.531.116-1.124.115-.55.116.16.115.617.115.992.116 1.524.115 1.438.115 1.332.116 1.089.115.805.115.547.116.687.115.564.116.857.115 1.22.115 1.288.116 1.446.115 1.329.115 1.327.116 1.137.115 1.099.116.862.115.93.115.98.116 1.083.115 1.27.115 1.13.116 1.084.115 1.065.115.757.116.788.115.494.116.198.115.057.115-.007.116-.296.115-.534.115-.6.116-.853.115-.922.115-.887.116-.772.115-.31.116.194.115.446.115.725.116.658.115.694.115.696.116.603.115.496.116.791.115.931.115 1.389.116 1.703.115 2.237.115 2.583.116 2.706.115 2.76.115 2.398.116 2.145.115 1.799.116 1.36.115 1.076.115.923.116.73.115.657.115.545.116.435.115.273.116.07.115-.023.115-.433.116-.717.115-.873.115-1.036.116-1.093.115-.955.115-.956.116-.851.115-.778.116-.383.115-.109.115.208.116.322.115.586.115.633.116.685.115.482.115.059.116-.431.115-1.054.116-1.673.115-2.45.115-3.2.116-4.001.115-4.403.115-4.898.116-4.959.115-5.018.115-5.058.116-4.786.115-4.493.116-3.947.115-3.66.115-3.31.116-3.066.115-2.844.115-2.556.116-2.548.115-2.24.116-2.09.115-1.861.115-1.658.116-1.303.115-1.012.115-.85.116-.993.115-1.135.116-.997.115-.845.115-.931.116-.49.115-.353.115.132.116.863.115 1.574.115 2.06.116 2.678.115 3.288.116 3.66.115 3.766.115 4.232.116 4.238.115 4.35.115 4.243.116 3.94.115 3.567.115 3.113.116 2.464.115 1.92.116 1.239.115.772.115.263.116-.013.115-.052.115-.32.116-.206.115-.114.116.032.115.132.115.38.116.516.115.63.115.982.116.955.115.773.115.685.116.427.115-.206.116-.54.115-.795.115-1.4.116-1.562.115-1.326.115-1.318.116-.809.115-.78.115-.595.116-.41.115-.189.116-.23.115-.466.115-.53.116-.601.115-.485.115-.392.116-.304.115.054.116.063.115.242.115.282.116.477.115.353.115.24.116.195.115-.038.115-.317.116-.515.115-.748.116-1.018.115-1.091.115-.971.116-.858.115-.643.115-.511.116-.248.115-.275.115-.133.116.118.115.084.116.152.115.235.115.412.116.652.115 1.003.115 1.248.116 1.318.115 1.427.116 1.566.115 1.472.115 1.39.116 1.025.115.72.115.41.116.264.115-.023.115-.046.116.183.115.407.116.828.115 1.321.115 1.753.116 2.24.115 2.462.115 2.693.116 2.785.115 2.68.115 2.56.116 2.309.115 1.903.116 1.744.115 1.524.115 1.571.116 1.538.115 1.44.115 1.295.116 1.514.115 1.263.116.98.115.445.115-.111.116-.496.115-.788.115-1.041.116-1.068.115-.679.115-.231.116.384.115.936.116 1.497.115 1.662.115 2.027.116 1.879.115 1.793.115 1.484.116 1.255.115.574.116-.155.115-.976.115-1.593.116-2.384.115-2.939.115-3.674.116-4.206.115-4.434.115-4.915.116-4.977.115-4.867.116-4.988.115-4.787.115-4.545.116-4.365.115-4.228.115-3.786.116-3.601.115-3.268.115-2.866.116-2.495.115-2.411.116-2.236.115-2.197.115-2.386.116-2.445.115-2.497.115-2.912.116-2.938.115-2.847.116-2.577.115-2.296.115-1.778.116-1.265.115-.646.115-.065.116.643.115 1.178.115 1.751.116 2.253.115 2.703.116 2.998.115 3.544.115 3.862.116 4.099.115 3.92.115 4.007.116 3.775.115 3.343.115 2.588.116 1.98.115 1.063.116.322.115-.284.115-.63.116-.778.115-.484.115-.13.116.486.115 1.006.116 1.594.115 2.01.115 2.247.116 2.104.115 1.968.115 1.904.116 1.562.115 1.568.115 1.442.116 1.533.115 1.359.116 1.531.115 1.026.115.93.116.411.115.11.115-.178.116-.477.115-.744.116-.727.115-.828.115-.88.116-.792.115-.9.115-.861.116-.843.115-.648.115-.517.116-.38.115-.095.116.047.115.086.115.254.116.149.115-.162.115-.313.116-.532.115-.517.115-.483.116-.544.115-.442.116-.435.115-.425.115-.32.116-.663.115-.926.115-1.305.116-1.467.115-1.526.115-1.268.116-1.043.115-.55.116.147.115.61.115 1.097.116 1.395.115 1.51.115 1.162.116 1.104.115.652.116.483.115.01.115-.285.116-.662.115-.723.115-.629.116-.622.115-.597.115-.335.116-.32h.115l.116.135.115.217.115.374.116.372.115.507.115.71.116.778.115 1.234.115 1.268.116 1.742.115 1.947.116 1.99.115 2.168.115 2.01.116 1.862.115 1.488.115 1.217.116.828.115.709.116.307.115.168.115.084.116.221.115.303.115.456.116.763.115 1.063.115 1.491.116 1.991.115 2.474.116 2.615.115 3.016.115 2.868.116 2.575.115 2.281.115 1.708.116 1.016.115.334.116-.28.115-.988.115-1.534.116-2.201.115-2.672.115-3.361.116-3.775.115-4.158.115-4.314.116-4.492.115-4.574.116-4.52.115-4.343.115-4.01.116-3.429.115-3.183.115-2.815.116-2.484.115-2.13.115-1.944.116-1.608.115-1.62.116-1.527.115-1.501.115-1.488.116-1.644.115-1.65.115-1.8.116-1.751.115-1.682.116-1.631.115-1.564.115-1.28.116-1.017.115-.473.115-.002.116.565.115 1.156.115 1.821.116 2.493.115 3.199.116 3.673.115 3.966.115 3.95.116 3.523.115 3.12.115 2.344.116 1.576.115.763.116.01.115-.277.115-.588.116-.326.115-.313.115-.133.116.107.115.194.115.599.116.622.115.541.116.71.115.916.115 1.08.116 1.184.115 1.371.115 1.265.116 1.338.115 1.216.115 1 .116.79.115.597.116.435.115.31.115.383.116.414.115.395.115.4.116.395.115.364.116.366.115.359.115.046.116.074.115-.02.115-.153.116-.063.115-.094.115-.007.116-.002.115-.195.116.015.115-.017.115.166.116.164.115.198.115.4.116.396.115.479.115.404.116.234.115-.062.116-.191.115-.57.115-.817.116-1.08.115-1.066.115-1.096.116-.782.115-.588.116-.343.115.11.115.393.116.824.115.954.115 1.055.116.963.115.675.115.252.116-.063.115-.431.116-.63.115-.91.115-.82.116-.982.115-.797.115-.671.116-.868.115-.963.115-1.027.116-1.054.115-1.145.116-1.003.115-.96.115-.642.116-.426.115.19.115.57.116.854.115 1.255.116 1.52.115 1.71.115 1.806.116 1.936.115 1.947.115 1.791.116 1.625.115 1.3.115 1.035.116.585.115.178.116-.008.115-.298.115-.291.116.017.115.524.115.967.116 1.6.115 2.171.115 2.617.116 2.943.115 2.926.116 2.857.115 2.554.115 2.35.116 2.01.115 1.543.115.992.116.631.115.046.116-.198.115-.612.115-1.315.116-1.985.115-2.531.115-3.079.116-3.654.115-4.105.115-4.23.116-4.246.115-3.983.116-3.58.115-3.03.115-2.635.116-2.149.115-1.638.115-1.423.116-1.295.115-1.35.115-1.418.116-1.493.115-1.381.116-1.645.115-1.52.115-1.487.116-1.591.115-1.774.115-1.759.116-2.033.115-2.174.116-2.373.115-2.094.115-1.976.116-1.343.115-.685.115.025.116.94.115 1.597.115 2.321.116 2.691.115 2.901.116 2.984.115 2.582.115 2.318.116 1.895.115 1.35.115 1.27.116.573.115.359.115.166.116.12.115.065.116.275.115.299.115.68.116.575.115.994.115 1.072.116 1.327.115 1.225.116 1.25.115 1.247.115 1.073.116.984.115.948.115.843.116.811.115.97.115.853.116.638.115.51.116.35.115.04.115-.02.116-.104.115-.277.115-.305.116-.116.115-.05.115-.02.116-.01.115-.063.116-.237.115-.122.115-.4.116-.43.115-.501.115-.239.116-.22.115.17.116.554.115.921.115 1.326.116 1.43.115 1.597.115 1.516.116 1.373.115.878.115.288.116-.12.115-.62.116-.958.115-.913.115-1.036.116-.603.115-.227.115.195.116.854.115 1.206.116 1.25.115 1.588.115 1.373.116 1.194.115 1.003.115.725.116.544.115.519.115.597.116.454.115.408.116.301.115.189.115.063.116-.145.115-.444.115-.846.116-1.132.115-1.2.115-1.37.116-1.388.115-1.213.116-1.208.115-.839.115-.56.116-.052.115.324.115.674.116 1.033.115 1.3.116 1.357.115 1.515.115 1.445.116.988.115.739.115.293.116-.076.115-.395.115-.639.116-.849.115-.602.116-.38.115-.06.115.299.116.612.115.91.115 1.12.116 1.384.115 1.434.115 1.614.116 1.734.115 1.747.116 1.825.115 1.787.115 1.666.116 1.447.115.967.115.611.116-.124.115-.876.116-1.604.115-2.323.115-2.869.116-3.534.115-3.576.115-3.571.116-3.546.115-3.292.115-3.109.116-2.884.115-2.744.116-2.697.115-2.684.115-2.706.116-2.741.115-2.45.115-2.202.116-1.852.115-1.582.115-1.363.116-1.458.115-1.571.116-1.925.115-2.493.115-2.882.116-3.292.115-3.45.115-3.487.116-2.954.115-2.608.116-1.823.115-.998.115-.192.116.639.115 1.148.115 1.68.116 1.818.115 2.136.115 2.266.116 2.074.115 2.073.116 1.833.115 1.629.115 1.438.116 1.247.115 1.051.115.725.116.51.115.304.115.386.116.463.115.479.116.742.115.814.115.99.116 1.299.115 1.131.115 1.274.116 1.278.115 1.223.116 1.383.115 1.321.115 1.368.116 1.036.115.97.115.708.116.557.115.31.115.161.116.174.115.068.116.365.115.406.115.67.116.7.115.843.115.91.116.987.115.702.115.65.116.079.115.156.116.048.115.137.115.286.116.662.115 1.078.115 1.596.116 2.072.115 2.542.116 2.619.115 2.382.115 2.154.116 1.682.115 1.074.115.602.116-.082.115-.34.115-.588.116-.63.115-.62.116-.547.115-.351.115-.307.116-.149.115-.189.115-.135.116-.05.115-.084.116.017.115.134.115.15.116.256.115.208.115.178.116.14.115.08.115.022.116-.206.115-.4.116-.518.115-.732.115-.958.116-1.157.115-1.38.115-1.51.116-1.652.115-1.612.115-1.634.116-1.276.115-1.02.116-.605.115-.103.115.303.116.929.115 1.274.115 1.564.116 1.7.115 1.684.116 1.592.115 1.454.115 1.014.116.676.115.19.115-.093.116-.19.115-.354.115-.085.116-.15.115.281.116.298.115.784.115.99.116 1.411.115 1.43.115 1.732.116 2.09.115 2.303.115 2.603.116 2.892.115 2.722.116 2.674.115 2.38.115 1.847.116 1.266.115.439.115-.235.116-1.034.115-1.636.116-2.134.115-2.653.115-2.974.116-3.288.115-3.422.115-3.592.116-3.738.115-3.761.115-3.7.116-3.554.115-3.172.116-2.752.115-2.333.115-1.964.116-1.656.115-1.349.115-1.514.116-1.595.115-1.836.115-2.276.116-2.659.115-3.093.116-3.563.115-3.695.115-3.83.116-3.712.115-3.541.115-3.205.116-2.73.115-2.225.116-1.514.115-.73.115-.323.116.614.115 1.23.115 1.757.116 2.308.115 2.475.115 2.73.116 2.584.115 2.466.116 2.457.115 2.113.115 1.87.116 1.585.115 1.287.115 1.114.116.935.115.854.115.736.116.666.115.64.116.674.115.902.115 1.143.116 1.154.115 1.253.115 1.38.116 1.496.115 1.33.116 1.438.115 1.154.115.925.116.917.115.725.115.456.116.27.115.172.115.233.116.174.115.333.116.376.115.368.115.426.116.32.115.155.115-.09.116-.485.115-.53.116-.72.115-.579.115-.171.116.276.115.923.115 1.343.116 1.79.115 2.145.115 2.214.116 2.171.115 1.953.116 1.684.115 1.088.115.903.116.422.115.115.115-.145.116-.53.115-.54.115-.725.116-.68.115-.674.116-.626.115-.523.115-.242.116-.06.115.043.115.414.116.446.115.622.115.748.116.705.115.801.116.887.115.87.115 1.047.116.996.115 1.135.115.929.116.71.115.526.116.082.115-.372.115-.708.116-1.047.115-1.38.115-1.37.116-1.187.115-.992.115-.442.116.03.115.532.116.954.115 1.463.115 1.67.116 1.536.115 1.343.115 1.024.116.615.115.385.116.24.115.029.115-.18.116-.26.115-.18.115-.344.116-.57.115-.715.115-.975.116-.936.115-.807.116-.593.115-.204.115.255.116 1.013.115 1.404.115 1.928.116 2.318.115 2.33.115 2.32.116 2.178.115 1.896.116 1.674.115 1.301.115 1.013.116.75.115.448.115-.076.116-.58.115-1.133.116-1.79.115-2.218.115-2.822.116-3.228.115-3.505.115-3.443.116-3.183.115-2.84.115-2.383.116-2.031.115-1.74.116-1.304.115-1.078.115-.818.116-.889.115-1.057.115-1.04.116-1.578.115-1.856.115-2.37.116-2.757.115-3.058.116-3.433.115-3.502.115-3.513.116-3.302.115-3.09.115-2.779.116-2.243.115-1.777.116-1.17.115-.72.115-.142.116.288.115.733.115 1.127.116 1.522.115 1.75.115 1.912.116 2.03.115 1.932.116 1.983.115 1.809.115 1.466.116 1.227.115.972.115.718.116.517.115.427.115.37.116.591.115.599.116.662.115 1.12.115.886.116.992.115.857.115.673.116.246.115-.011.116-.226.115-.467.115-.362.116-.279.115.04.115.468.116.717.115 1.156.115 1.135.116 1.21.115.935.116.656.115.273h.115l.116-.337.115-.393.115-.384.116-.242.115.092.115.381.116.937.115 1.26.116 1.326.115 1.823.115 1.912.116 1.996.115 2.074.115 1.972.116 1.913.115 1.64.116 1.593.115 1.34.115 1.237.116.927.115.763.115.541.116.435.115.311.115.162.116-.09.115-.201.116-.224.115-.313.115-.266.116-.218.115-.038.115.069.116.358.115.584.115.738.116 1.04.115 1.12.116 1.351.115 1.286.115 1.264.116 1.008.115.526.115.183.116-.448.115-.876.116-1.354.115-1.692.115-1.838.116-1.831.115-1.604.115-1.301.116-1.005.115-.662.115-.405.116-.072.115.244.116.446.115.555.115.66.116.914.115 1.015.115 1.045.116.92.115.634.116.311.115-.124.115-.398.116-.773.115-1.083.115-1.148.116-1.208.115-.883.115-.643.116-.133.115.217.116.613.115.974.115 1.38.116 1.561.115 1.803.115 2.104.116 2.273.115 2.514.115 2.796.116 2.835.115 2.777.116 2.582.115 2.19.115 1.543.116.961.115.055.115-.938.116-1.646.115-2.413.116-3.103.115-3.4.115-3.65.116-3.696.115-3.521.115-3.31.116-3.05.115-2.442.115-2.175.116-1.749.115-1.734.116-1.46.115-1.517.115-1.627.116-1.89.115-2.138.115-2.423.116-2.771.115-2.842.115-3.227.116-3.334.115-3.4.116-3.612.115-3.376.115-3.248.116-2.926.115-2.672.115-2.144.116-1.577.115-1.11.116-.552.115.083.115.457.116.946.115 1.17.115 1.363.116 1.663.115 1.603.115 1.524.116 1.285.115 1.013.116.864.115.607.115.39.116.44.115.505.115.564.116.939.115 1.053.115 1.184.116 1.316.115 1.17.116 1.083.115.7.115.423h.116l.115-.294.115-.51.116-.543.115-.47.116-.306.115-.122.115.227.116.366.115.527.115.456.116.46.115.312.115.25.116-.03.115-.042.116.015.115-.191.115-.042.116.008.115.007.115.266.116.627.115.898.115 1.263.116 1.612.115 1.655.116 2.013.115 2.094.115 2.05.116 1.97.115 1.873.115 1.576.116 1.415.115 1.19.116.99.115.737.115.564.116.433.115.483.115.463.116.567.115.381.115.445.116.286.115.39.116.13.115.193.115.248.116.393.115.692.115.996.116 1.39.115 1.702.115 1.783.116 1.753.115 1.541.116 1.217.115.845.115.372.116-.082.115-.445.115-.671.116-.9.115-.977.116-.952.115-1.01.115-.744.116-.73.115-.504.115-.409.116-.236.115.019.115.185.116.519.115.839.116.902.115 1.143.115.99.116.95.115.745.115.506.116.133.115-.23.116-.33.115-.651.115-.752.116-.806.115-.83.115-.95.116-.603.115-.581.115-.418.116-.237.115.01.116.383.115.683.115 1.038.116 1.404.115 1.82.115 2.072.116 2.272.115 2.392.116 2.466.115 2.348.115 2.12.116 1.416.115.998.115.303.116-.385.115-1.106.115-1.711.116-2.283.115-2.488.116-2.717.115-2.764.115-2.713.116-2.344.115-2.187.115-1.87.116-1.394.115-1.415.115-1.085.116-1.233.115-1.085.116-1.175.115-1.415.115-1.717.116-2.082.115-2.406.115-2.609.116-2.92.115-3.086.116-3.168.115-3.227.115-2.976.116-2.857.115-2.605.115-2.314.116-2.07.115-1.613.115-1.16.116-.635.115-.223.116.288.115.66.115.997.116 1.179.115 1.093.115 1.02.116.788.115.496.115.4.116-.01.115.08.116-.214.115.139.115.376.116.65.115.807.115 1.003.116 1.053.115 1.188.115.853.116.753.115.368.116.199.115-.058.115-.095.116-.145.115-.12.115.233.116.293.115.605.116.744.115.969.115.938.116 1.04.115.639.115.604.116.45.115.142.115.059.116-.21.115-.113.116-.156.115.07.115.084.116.554.115.686.115 1.07.116 1.416.115 1.564.115 1.947.116 2.113.115 2.217.116 2.298.115 2.096.115 1.913.116 1.67.115 1.662.115 1.385.116 1.144.115 1.143.116 1.108.115 1.066.115.666.116.616.115.06.115-.039.116-.288.115-.587.115-.647.116-.675.115-.406.116-.016.115.336.115.866.116 1.247.115 1.608.115 1.726.116 1.826.115 1.772.116 1.596.115 1.278.115 1.104.116.622.115.528.115-.055.116-.3.115-.665.115-1.11.116-1.287.115-1.71.116-1.806.115-1.747.115-1.884.116-1.332.115-1.153.115-.62.116-.21.115.194.115.63.116.915.115 1.057.116 1.146.115 1.051.115.977.116.786.115.509.115.358.116-.106.115-.334.116-.525.115-.644.115-.811.116-.881.115-1.013.115-.944.116-.563.115-.622.115-.343.116-.114.115.425.116.906.115 1.513.115 2.023.116 2.417.115 3.053.115 3.079.116 3.28.115 3.13.115 2.835.116 2.245.115 1.673.116.9.115.229.115-.599.116-1.362.115-1.799.115-2.279.116-2.504.115-2.653.116-2.507.115-2.393.115-2.007.116-1.83.115-1.567.115-1.497.116-1.358.115-1.278.115-1.414.116-1.562.115-1.463.116-1.752.115-1.913.115-2.23.116-2.459.115-2.708.115-3.134.116-3.42.115-3.818.115-3.895.116-4.03.115-3.943.116-3.693.115-3.326.115-2.611.116-2.102.115-1.318.115-.81.116-.323.115.069.116.183.115.326.115.235.116.318.115.242.115.38.116.334.115.547.115.633.116.992.115 1.118.116 1.322.115 1.45.115 1.525.116 1.452.115 1.304.115 1.194.116 1.024.115.838.115.564.116.433.115.496.116.399.115.605.115.677.116.744.115.862.115 1.047.116 1.003.115.969.116.948.115.824.115.683.116.532.115.297.115-.095.116-.324.115-.54.115-.614.116-.647.115-.526.116-.467.115-.128.115.162.116.366.115.609.115.818.116.986.115 1.093.116 1.228.115 1.32.115 1.461.116 1.644.115 1.822.115 1.985.116 2.07.115 2.212.115 2.014.116 2.009.115 1.644.116 1.316.115.88.115.56.116.233.115-.013.115-.155.116-.284.115-.107.115.04.116.095.115.529.116.692.115.961.115 1.154.116 1.555.115 1.806.115 1.88.116 1.992.115 1.984.116 1.82.115 1.445.115 1.106.116.412.115-.152.115-.779.116-1.337.115-1.74.115-2.135.116-2.306.115-2.312.116-2.136.115-2.022.115-1.667.116-1.375.115-1.025.115-.549.116-.3.115.037.115.328.116.538.115.496.116.816.115.782.115.75.116.706.115.532.115.494.116.204.115-.004.116-.368.115-.712.115-1.016.116-1.314.115-1.227.115-1.22.116-1.132.115-.696.115-.213.116.225.115.894.116 1.423.115 1.94.115 2.457.116 2.752.115 2.962.115 3.008.116 2.926.115 2.603.115 2.217.116 1.74.115 1.218.116.66.115.047.115-.433.116-.852.115-1.198.115-1.453.116-1.642.115-1.687.116-1.579.115-1.568.115-1.625.116-1.386.115-1.383.115-1.175.116-1.022.115-.954.115-1.063.116-1.096.115-1.156.116-1.65.115-1.885.115-2.31.116-2.793.115-3.193.115-3.502.116-3.619.115-3.685.115-3.503.116-3.325.115-2.968.116-2.475.115-2.156.115-1.653.116-1.318.115-.986.115-.838.116-.599.115-.452.116-.458.115-.46.115-.264.116-.09.115.107.115.334.116.61.115.895.115 1.052.116 1.244.115 1.093.116 1.07.115 1.093.115.854.116.681.115.504.115.158.116.128.115-.063.115-.202.116-.26.115-.16.116.01.115.188.115.456.116.695.115.724.115.97.116.854.115.753.116.65.115.226.115-.017.116-.206.115-.403.115-.423.116-.475.115-.473.115-.353.116-.176.115-.14.116-.014.115.132.115.19.116.298.115.536.115.727.116.947.115 1.389.116 1.772.115 2.117.115 2.298.116 2.667.115 2.647.115 2.68.116 2.543.115 2.311.115 1.984.116 1.652.115 1.186.116.929.115.525.115.255.116-.036.115-.235.115-.343.116-.279.115-.162.115-.059.116.078.115.428.116.623.115.93.115 1.085.116 1.213.115 1.358.115 1.245.116 1.087.115.925.116.616.115.21.115-.21.116-.532.115-.96.115-1.369.116-1.524.115-1.655.115-1.64.116-1.626.115-1.33.116-1.24.115-.994.115-.712.116-.44.115-.252.115-.14.116.142.115.383.115.43.116.768.115.803.116.91.115.961.115.938.116.903.115.717.115.473.116.08.115-.246.116-.517.115-.751.115-.971.116-1.046.115-.81.115-.832.116-.3.115.094.115.635.116 1.21.115 1.611.116 2.13.115 2.21.115 2.494.116 2.343.115 2.22.115 2.077.116 1.625.115 1.434.115 1.087.116.637.115.428.116.082.115-.254.115-.591.116-.708.115-1.037.115-1.057.116-1.26.115-1.075.116-1.104.115-.828.115-.64.116-.61.115-.545.115-.465.116-.67.115-.919.115-1.228.116-1.85.115-2.34.116-2.839.115-3.397.115-3.706.116-3.939.115-4.041.115-3.803.116-3.434.115-3.145.115-2.653.116-2.338.115-1.99.116-1.777.115-1.524.115-1.448.116-1.312.115-1.24.115-1.162.116-.969.115-.787.116-.672.115-.385.115-.181.116.017.115.385.115.681.116.778.115 1.21.115 1.18.116 1.35.115 1.395.116 1.192.115 1.053.115.793.116.542.115.32.115.407.116.152.115.388.115.493.116.708.115 1.011.116 1.108.115 1.122.115 1.18.116.948.115.927.115.55.116.509.115.343.116.075.115.246.115.08.116.187.115.17.115.049.116.032.115-.112.115-.143.116-.298.115-.309.116-.202.115-.166.115.183.116.473.115.681.115 1.208.116 1.434.115 1.728.115 2.092.116 2.083.115 2.299.116 2.485.115 2.268.115 2.23.116 2.145.115 1.768.115 1.522.116 1.204.115.757.116.511.115.164.115-.078.116-.19.115-.237.115-.4.116-.197.115.011.115.298.116.662.115.963.116 1.266.115 1.543.115 1.534.116 1.661.115 1.537.115 1.216.116 1.138.115.736.115.329.116.013.115-.37.116-.68.115-.793.115-1.01.116-1.126.115-1.186.115-1.269.116-1.236.115-1.142.116-1.179.115-.965.115-.746.116-.623.115-.388.115-.091.116.112.115.378.115.55.116.707.115.755.116.723.115.49.115.19.116-.241.115-.54.115-1.06.116-1.467.115-1.688.115-1.852.116-1.595.115-1.396.116-.944.115-.385.115.23.116.752.115 1.175.115 1.781.116 1.993.115 2.316.116 2.592.115 2.68.115 2.716.116 2.798.115 2.539.115 2.372.116 1.917.115 1.736.115 1.145.116.843.115.345.116.011.115-.34.115-.482.116-.502.115-.495.115-.346.116-.032.115.221.116.572.115.477.115.64.116.478.115.076.115-.175.116-.958.115-1.447.115-2.165.116-2.726.115-3.258.116-3.606.115-3.94.115-4.073.116-4.093.115-3.868.115-3.846.116-3.322.115-3.157.115-2.81.116-2.666.115-2.327.116-2.098.115-2.087.115-1.793.116-1.78.115-1.552.115-1.217.116-.986.115-.599.116-.112.115.095.115.513.116.756.115.698.115.961.116.763.115.706.115.446.116.261.115.115.116.002.115.082.115.053.116.065.115.326.115.383.116.697.115.642.116.895.115.862.115.986.116 1.038.115 1.028.115.881.116.826.115.664.115.503.116.393.115.214.116.072.115-.154.115-.183.116-.29.115-.353.115-.464.116-.461.115-.536.115-.548.116-.415.115-.382.116-.257.115.034.115.511.116.551.115 1.156.115 1.349.116 1.625.115 1.978.116 2.151.115 2.308.115 2.308.116 2.363.115 2.045.115 1.983.116 1.465.115 1.307.115.759.116.372.115.17.116-.237.115-.341.115-.45.116-.38.115-.248.115.134.116.219.115.66.115.895.116 1.17.115 1.227.116 1.55.115 1.239.115 1.411.116 1.202.115.871.115.822.116.363.115.343.116-.202.115-.412.115-.633.116-.973.115-1.127.115-1.42.116-1.684.115-1.607.115-1.723.116-1.715.115-1.525.116-1.54.115-1.148.115-.744.116-.494.115-.046.115.388.116.608.115.794.115.865.116.722.115.532.116.162.115-.252.115-.452.116-1.003.115-1.2.115-1.398.116-1.415.115-1.421.116-1.097.115-.786.115-.395.116.042.115.513.115 1.11.116 1.547.115 2.018.115 2.45.116 2.673.115 2.919.116 3.174.115 3.284.115 3.07.116 2.92.115 2.519.115 1.985.116 1.444.115.856.115.16.116-.163.115-.695.116-.745.115-.843.115-.727.116-.632.115-.293.115-.183.116.032.115.073.116.156.115.051.115-.152.116-.305.115-.76.115-1.17.116-1.551.115-1.997.115-2.453.116-2.907.115-3.145.116-3.4.115-3.411.115-3.594.116-3.355.115-3.307.115-3.185.116-2.966.115-2.84.115-2.821.116-2.762.115-2.613.116-2.577.115-2.192.115-2.037.116-1.632.115-1.005.115-.634.116.023.115.487.116.713.115 1.078.115 1.138.116 1.21.115.976.115.896.116.577.115.505.115.341.116.267.115.138.116.066.115.016.115.072.116.199.115.187.115.19.116.311.115.418.115.414.116.429.115.484.116.512.115.675.115.727.116.846.115.912.115.862.116.694.115.626.116.505.115.308.115.116.116-.1.115-.375.115-.35.116-.497.115-.6.115-.565.116-.47.115-.461.116-.08.115.185.115.591.116.965.115 1.316.115 1.965.116 2.178.115 2.522.116 2.706.115 2.718.115 2.61.116 2.33.115 2.077.115 1.53.116 1.106.115.65.115.165.116.019.115-.27.116-.291.115-.282.115-.122.116.051.115.221.115.555.116.847.115 1.051.115 1.349.116 1.39.115 1.482.116 1.446.115 1.362.115 1.29.116 1.082.115.924.115.82.116.502.115.186.115-.164.116-.652.115-.902.116-1.566.115-1.734.115-2.102.116-2.243.115-2.256.115-2.123.116-1.75.115-1.38.116-.948.115-.425.115.003.116.569.115.753.115.988.116 1.007.115.805.115.593.116.288.115-.12.116-.4.115-.937.115-1.041.116-1.394.115-1.482.115-1.524.116-1.473.115-1.453.116-1.196.115-.769.115-.433.116.132.115.776.115 1.24.116 2.058.115 2.472.115 2.972.116 3.221.115 3.181.116 3.214.115 2.823.115 2.583.116 1.97.115 1.53.115 1.144.116.593.115.405.115.085.116-.032.115-.053.116.053.115.065.115.273.116.559.115.669.115.875.116.964.115.883.116.604.115.458.115-.1.116-.41.115-.972.115-1.398.116-1.678.115-2.043.115-2.136.116-2.306.115-2.31.116-2.428.115-2.474.115-2.651.116-2.775.115-2.974.115-3.199.116-3.43.115-3.432.115-3.468.116-3.313.115-3.078.116-2.81.115-2.615.115-2.048.116-1.711.115-1.415.115-1.072.116-.685.115-.464.116-.3.115.012.115-.028.116.166.115.171.115.15.116.274.115.23.115.178.116.194.115.279.116.227.115.196.115.294.116.267.115.204.115.27.116.426.115.414.116.52.115.714.115.721.116.887.115.99.115 1.038.116 1.06.115 1.068.115 1.065.116.913.115.828.116.609.115.358.115.11.116-.02.115-.303.115-.275.116-.532.115-.536.115-.357.116-.358.115-.062.116.296.115.519.115 1.003.116 1.259.115 1.703.115 1.862.116 2.132.115 2.161.115 2.083.116 1.942.115 1.646.116 1.272.115 1.034.115.639.116.34.115.22.115.13.116.197.115.393.116.402.115.595.115.757.116.847.115.967.115 1.076.116 1.005.115 1.059.115 1.136.116 1.319.115 1.335.116 1.37.115 1.405.115 1.417.116 1.17.115 1.098.115.742.116.324.115-.053.115-.64.116-1.037.115-1.428.116-1.921.115-2.052.115-2.09.116-1.924.115-1.756.115-1.374.116-1.01.115-.594.116-.171.115.225.115.437.116.57.115.72.115.598.116.688.115.527.115.269.116.036.115-.208.116-.63.115-1 .115-1.216.116-1.451.115-1.764.115-1.717.116-1.63.115-1.386.116-.96.115-.495.115.109.116.597.115 1.366.115 1.762.116 2.293.115 2.517.115 2.718.116 2.796.115 2.512.116 2.325.115 1.97.115 1.58.116 1.16.115.904.115.57.116.404.115.26.116.26.115.507.115.455.116.794.115.864.115.91.116.867.115.756.115.648.116.298.115.09.115-.256.116-.471.115-.717.116-.918.115-1.219.115-1.43.116-1.58.115-1.808.115-1.974.116-2.224.115-2.42.116-2.52.115-2.893.115-3.056.116-3.202.115-3.357.115-3.391.116-3.437.115-3.212.115-3.075.116-2.678.115-2.41.116-1.931.115-1.677.115-1.329.116-1.06.115-.779.115-.623.116-.464.115-.257.116-.19.115-.026.115.164.116.252.115.364.115.46.116.486.115.517.115.372.116.48.115.378.116.433.115.517.115.546.116.692.115.673.115.952.116.674.115.844.116.765.115.704.115.614.116.59.115.425.115.504.116.509.115.269.115.122.116.013.115-.234.116-.458.115-.727.115-.965.116-1.112.115-1.139.115-1.228.116-1.036.115-.862.115-.52.116-.058.115.431.116.736.115 1.225.115 1.566.116 1.696.115 1.94.115 1.746.116 1.671.115 1.505.116 1.29.115 1.108.115.883.116.9.115.633.115.622.116.63.115.818.115.759.116.866.115.975.116 1.056.115 1.24.115 1.278.116 1.28.115 1.476.115 1.65.116 1.766.115 2.072.115 2.038.116 2.24.115 2.256.116 2.125.115 1.917.115 1.48.116 1.005.115.4.115-.368.116-.846.115-1.492.115-1.905.116-2.15.115-2.266.116-2.264.115-2.083.115-1.842.116-1.688.115-1.288.115-.896.116-.54.115-.154.116.257.115.52.115.867.116 1.075.115.971.115 1.044.116.75.115.346.115-.074.116-.538.115-.896.116-1.402.115-1.646.115-1.902.116-1.905.115-1.643.115-1.522.116-1.182.115-.662.116-.147.115.347.115 1.024.116 1.513.115 1.95.115 2.282.116 2.535.115 2.486.115 2.284.116 2.06.115 1.692.116 1.34.115.991.115.68.116.558.115.49.115.439.116.49.115.782.116.719.115.923.115.939.116.896.115.874.115.69.116.599.115.315.115.152.116-.044.115-.368.116-.555.115-.7.115-.837.116-1.095.115-1.236.115-1.533.116-1.784.115-2.056.115-2.222.116-2.645.115-2.684.116-2.993.115-3.084.115-3.1.116-3.022.115-3.136.115-2.947.116-2.77.115-2.689.115-2.235.116-2.142.115-1.8.116-1.647.115-1.364.115-1.071.116-1.008.115-.669.115-.578.116-.507.115-.151.116-.172.115-.03.115-.004.116.073.115.198.115.257.116.216.115.257.115.233.116.242.115.218.116.233.115.21.115.299.116.404.115.534.115.68.116.838.115.742.116.906.115.859.115.984.116.923.115.992.115.831.116.725.115.475.115.136.116-.222.115-.654.116-1.093.115-1.272.115-1.38.116-1.395.115-1.291.115-.996.116-.591.115-.187.115.189.116.703.115 1.055.116 1.366.115 1.524.115 1.793.116 1.806.115 1.814.115 1.531.116 1.53.115 1.227.116 1.243.115.872.115.732.116.704.115.427.115.355.116.217.115.11.115-.182.116.029.115-.077.116.09.115.254.115.553.116.97.115 1.347.115 1.745.116 1.961.115 2.194.115 2.258.116 2.273.115 2.04.116 1.745.115 1.382.115.75.116.45.115-.21.115-.64.116-1.065.115-1.405.116-1.77.115-1.818.115-1.784.116-1.82.115-1.51.115-1.259.116-.892.115-.342.115.09.116.433.115.902.116 1.18.115 1.404.115 1.64.116 1.542.115 1.497.115 1.349.116.982.115.505.115.071.116-.511.115-.908.116-1.36.115-1.478.115-1.77.116-1.663.115-1.362.115-1.005.116-.502.115-.036.116.456.115.846.115 1.252.116 1.52.115 1.608.115 1.691.116 1.807.115 1.54.115 1.504.116 1.373.115 1.16.116 1.211.115 1.121.115 1.074.116 1.18.115 1.168.115 1.248.116 1.157.115 1.225.115 1.076.116.986.115.79.116.663.115.52.115.348.116.322.115.05.115.14.116.06.115.042.116-.229.115-.295.115-.6.116-.821.115-1.257.115-1.417.116-1.845.115-2.096.115-2.434.116-2.64.115-2.84.116-2.958.115-3.061.115-3.18.116-3.193.115-3.116.115-3.02.116-2.916.115-2.68.115-2.495.116-2.206.115-1.917.116-1.587.115-1.503.115-1.12.116-.978.115-.66.115-.526.116-.382.115-.467.116-.178.115-.377.115-.199.116-.238.115-.204.115-.118.116-.132.115-.025.115.078.116-.011.115.027.116.03.115.014.115.257.116.372.115.708.115.864.116 1.22.115 1.515.115 1.68.116 1.757.115 1.688.116 1.543.115 1.2.115.722.116.277.115-.174.115-.724.116-.83.115-1.3.116-1.391.115-1.463.115-1.278.116-1.21.115-.73.115-.462.116-.005.115.326.115.654.116.92.115 1.312.116 1.257.115 1.396.115 1.499.116 1.694.115 1.672.115 1.711.116 1.751.115 1.65.116 1.547.115 1.326.115 1.045.116.862.115.39.115.27.116-.05.115.033.115-.052.116.103.115.286.116.66.115.883.115 1.276.116 1.584.115 1.75.115 1.948.116 2.165.115 2.18.116 2.13.115 1.997.115 1.824.116 1.457.115 1.165.115.658.116.271.115-.301.115-.696.116-1.084.115-1.398.116-1.58.115-1.632.115-1.749.116-1.552.115-1.368.115-1.22.116-.708.115-.342.115.105.116.471.115.73.116.975.115 1.105.115 1.014.116.618.115.386.115-.1.116-.425.115-1.045.115-1.203.116-1.59.115-1.64.116-1.701.115-1.724.115-1.38.116-1.092.115-.72.115-.356.116.1.115.407.116.742.115 1.017.115 1.045.116 1.24.115 1.091.115 1.26.116 1.075.115 1.07.115 1.234.116 1.06.115 1.293.116 1.448.115 1.558.115 1.692.116 1.62.115 1.611.115 1.65.116 1.635.115 1.474.116 1.398.115 1.228.115 1.132.116 1.072.115.976.115.708.116.618.115.41.115.162.116-.002.115-.279.116-.526.115-.778.115-.98.116-1.385.115-1.51.115-2.002.116-2.216.115-2.379.115-2.61.116-2.75.115-2.929.116-2.859.115-2.954.115-3.132.116-2.959.115-3.023.115-2.863.116-2.722.115-2.29.115-2.401.116-1.89.115-1.897.116-1.61.115-1.478.115-1.262.116-1.227.115-.849.115-.743.116-.525.115-.282.116-.181.115-.035.115-.118.116.015.115-.097.115-.38.116-.362.115-.566.115-.588.116-.473.115-.442.116-.15.115-.001.115.389.116.658.115.883.115 1.28.116 1.308.115 1.583.116 1.593.115 1.49.115 1.26.116.96.115.41.115-.042.116-.496.115-.74.115-1.188.116-1.158.115-1.364.116-1.194.115-1.083.115-.898.116-.689.115-.597.115-.317.116-.09.115-.01.115.266.116.676.115.951.116 1.398.115 1.696.115 1.942.116 1.945.115 1.942.115 1.932.116 1.654.115 1.407.116 1.01.115.83.115.575.116.357.115.204.115.13.116.053.115.174.115.125.116.216.115.58.116.818.115 1.163.115 1.372.116 1.812.115 1.953.115 2.11.116 2.115.115 2.006.115 1.875.116 1.72.115 1.393.116.975.115.646.115.17.116-.309.115-.637.115-1.156.116-1.43.115-1.442.115-1.639.116-1.539.115-1.42.116-1.084.115-.725.115-.353.116.114.115.357.115.727.116.845.115.88.116.998.115.74.115.344.116.046.115-.317.115-.662.116-.997.115-1.15.115-1.383.116-1.26.115-1.073.116-.986.115-.574.115-.317.116-.06.115.165.115.46.116.467.115.788.116.765.115.862.115.791.116.797.115.863.115.776.116.917.115.874.115.933.116 1.1.115 1.026.116 1.227.115 1.36.115 1.278.116 1.356.115 1.386.115 1.269.116 1.081.115 1.116.115.963.116.849.115 1.144.116 1.09.115.953.115.927.116.643.115.393.115.315.116-.166.115-.336.116-.803.115-.898.115-1.168.116-1.405.115-1.751.115-1.872.116-2.12.115-2.407.115-2.516.116-2.827.115-2.884.116-2.823.115-2.836.115-2.594.116-2.293.115-2.117.115-2.062.116-1.861.115-1.656.116-1.59.115-1.47.115-1.2.116-.966.115-.828.115-.507.116-.404.115-.29.115-.132.116-.174.115-.232.116-.208.115-.45.115-.565.116-.923.115-1.005.115-1.143.116-1.121.115-.996.115-.828.116-.728.115-.149.116.164.115.595.115 1.116.116 1.419.115 1.575.115 1.6.116 1.8.115 1.638.116 1.316.115.917.115.69.116.388.115.109.115-.181.116-.443.115-.553.115-.683.116-.687.115-.684.116-.8.115-.642.115-.69.116-.325.115-.385.115-.14.116.12.115.323.115.607.116.864.115.997.116 1.215.115 1.442.115 1.62.116 1.655.115 1.598.115 1.406.116 1.184.115.813.116.551.115.384.115.257.116.048.115.24.115.298.116.347.115.415.115.697.116.746.115.972.116 1.246.115 1.528.115 1.583.116 1.648.115 1.953.115 1.83.116 1.742.115 1.621.115 1.22.116.898.115.566.116.15.115-.459.115-.585.116-.922.115-1.21.115-1.355.116-1.305.115-1.38.116-1.208.115-.908.115-.576.116-.088.115.344.115.686.116.902.115 1.048.115 1.012.116.828.115.344.116.091.115-.479.115-.887.116-1.18.115-1.454.115-1.44.116-1.419.115-1.385.115-1.17.116-1.042.115-.904.116-.62.115-.374.115-.105.116.06.115.26.115.33.116.413.115.484.116.483.115.478.115.622.116.576.115.593.115.624.116.712.115.658.115.56.116.689.115.732.116.725.115.961.115 1.038.116 1.175.115 1.278.115 1.31.116 1.477.115 1.436.115 1.453.116 1.217.115 1.236.116 1.318.115 1.116.115 1.118.116 1.062.115.95.115.71.116.37.115-.102.116-.404.115-.794.115-1.203.116-1.503.115-1.763.115-1.989.116-2.134.115-2.213.115-2.388.116-2.533.115-2.792.116-2.821.115-2.825.115-2.81.116-2.786.115-2.69.115-2.538.116-2.21.115-2.118.115-1.793.116-1.398.115-1.259.116-.942.115-.523.115-.343.116-.149.115-.099.115-.162.116-.256.115-.436.116-.6.115-1.102.115-1.186.116-1.282.115-1.32.115-1.133.116-.98.115-.591.115-.189.116.326.115.62.116 1.038.115 1.243.115 1.43.116 1.647.115 1.886.115 1.906.116 1.91.115 1.81.115 1.845.116 1.534.115 1.344.116 1.19.115.788.115.55.116.225.115-.05.115-.313.116-.526.115-.712.116-.81.115-.996.115-.799.116-.824.115-.612.115-.403.116-.192.115.164.115.373.116.592.115.862.116 1.099.115.999.115 1.099.116 1.08.115 1.07.115.974.116.68.115.66.115.455.116.22.115.257.116-.075.115.094.115.194.116.397.115.547.115.706.116.956.115 1.184.116 1.375.115 1.461.115 1.683.116 1.69.115 1.771.115 1.44.116 1.421.115 1.261.115.792.116.274.115-.18.116-.539.115-1.054.115-1.246.116-1.389.115-1.338.115-1.229.116-.835.115-.65.115-.231.116.043.115.35.116.59.115.699.115.809.116.86.115.633.115.462.116.316.115.092.116-.382.115-.75.115-.856.116-1.325.115-1.28.115-1.29.116-1.35.115-1.213.115-1.026.116-.828.115-.631.116-.605.115-.555.115-.501.116-.352.115-.215.115.034.116.084.115.433.116.424.115.549.115.656.116.677.115.607.115.751.116.73.115.882.115.872.116 1.093.115.938.116.933.115 1.018.115.685.116.753.115.653.115.545.116.673.115.729.116.675.115.883.115.706.116.88.115.695.115.622.116.565.115.347.115.294.116.06.115-.041.116-.33.115-.466.115-.566.116-.937.115-1.146.115-1.337.116-1.692.115-1.924.115-2.32.116-2.468.115-2.803.116-2.833.115-2.91.115-2.793.116-2.718.115-2.523.115-2.213.116-1.81.115-1.354.115-.91.116-.39.115-.138.116.257.115.405.115.49.116.322.115.336.115.12.116.017.115.084.116-.118.115-.15.115-.26.116-.109.115-.214.115-.091.116.042.115.278.116.399.115.599.115.822.116.881.115 1.019.115 1.026.116 1.154.115 1.247.115 1.103.116 1.23.115 1.089.115 1.09.116.987.115.826.116.56.115.218.115-.067.116-.238.115-.639.115-.866.116-.91.115-1.085.116-1.217.115-1.131.115-1.152.116-1.062.115-1.034.115-.761.116-.643.115-.606.115-.138.116-.101.115.189.116.366.115.53.115.69.116.794.115.694.115.78.116.81.115.9.115.822.116.848.115.864.116.878.115.881.115.807.116 1.02.115.994.115 1.1.116 1.235.115 1.455.116 1.72.115 1.7.115 1.629.116 1.583.115 1.497.115 1.139.116.906.115.364.116-.01.115-.278.115-.43.116-.692.115-.673.115-.763.116-.593.115-.467.115-.282.116.116.115.206.116.501.115.735.115.803.116.837.115.633.115.674.116.454.115.173.115.08.116.004.115-.12.116-.17.115-.353.115-.51.116-.604.115-.936.115-.908.116-1.12.115-1.028.115-1.087.116-.889.115-.887.116-.719.115-.618.115-.566.116-.515.115-.364.115-.48.116-.352.115-.118.115.047.116.191.115.383.116.615.115.643.115.701.116.704.115.65.115.685.116.551.115.514.116.396.115.3.115.31.116.277.115.202.115-.022.116.146.115.021.116.01.115-.122.115-.204.116-.183.115-.187.115.063.116-.09.115-.132.115-.127.116-.12.115-.17.116-.336.115-.307.115-.542.116-.621.115-.935.115-1.263.116-1.53.115-1.815.115-2.11.116-2.369.115-2.367.116-2.384.115-2.28.115-2.141.116-1.724.115-1.303.115-1.05.116-.35.115-.195.116.33.115.45.115.716.116.843.115.877.115.971.116.715.115.689.115.684.116.544.115.647.115.55.116.766.115.625.116.777.115.814.115.706.116.799.115.841.115.75.116.925.115.982.116.982.115.996.115 1.116.116 1.27.115 1.08.115 1.169.116 1.015.115.705.116.664.115.237.115.148.116-.128.115-.432.115-.502.116-.742.115-1.003.115-.975.116-1.186.115-1.171.116-1.26.115-1.159.115-1.108.116-1.118.115-.97.115-1.053.116-1.011.115-.817.115-.734.116-.66.115-.383.116-.245.115-.024.115-.025.116.004.115.133.115.017.116-.05.115-.1.116-.088.115-.097.115.082.116.44.115.506.115 1 .116 1.115.115 1.507.115 1.636.116 1.76.115 1.91.116 1.795.115 1.535.115 1.61.116 1.284.115.911.115.477.116.248.115-.078.116-.225.115-.181.115-.206.116-.069.115.258.115.333.116.647.115.776.115.927.116 1.122.115 1.093.116 1.123.115 1.143.115 1.306.116 1.286.115 1.245.115 1.091.116.92.115.72.115.332.116.103.115-.322.116-.488.115-.612.115-.823.116-.904.115-.89.115-1.051.116-1.03.115-.966.116-1.264.115-1.057.115-1.155.116-1.195.115-1.14.115-1.24.116-1.116.115-.995.115-.882.116-.656.115-.631.116-.433.115-.296.115-.31.116-.145.115-.111.115.11.116.043.115.211.115.008.116.044.115.124.116.099.115.067.115.1.116.142.115.107.115-.054.116-.05.115-.27.115-.319.116-.396.115-.376.116-.372.115-.269.115-.086.116-.036.115.141.115.319.116.3.115.295.116.06.115-.064.115-.404.116-.561.115-.859.115-1.155.116-1.483.115-1.56.115-1.636.116-1.574.115-1.558.116-1.402.115-1.028.115-1.02.116-.535.115-.297.115-.021.116.088.115.267.116.446.115.563.115.675.116.71.115.762.115.727.116.81.115.912.115.8.116.701.115.758.115.662.116.602.115.452.116.624.115.597.115.536.116.782.115.656.115.73.116.756.115.565.116.621.115.626.115.526.116.506.115.353.115.328.116.091.115.098.115-.2.116-.36.115-.4.116-.496.115-.637.115-.583.116-.782.115-.927.115-.914.116-1.255.115-1.211.115-1.328.116-1.375.115-1.348.116-1.44.115-1.046.115-.887.116-.75.115-.589.115-.553.116-.501.115-.428.116-.5.115-.537.115-.555.116-.548.115-.482.115-.48.116-.367.115-.193.116-.126.115.206.115.458.116.809.115 1.15.115 1.547.116 2.045.115 2.153.115 2.294.116 2.37.115 2.284.116 1.942.115 1.724.115 1.322.116 1.114.115.843.115.633.116.431.115.344.115.236.116.183.115.02.116.135.115.133.115.239.116.39.115.434.115.683.116.74.115.831.116.86.115.914.115.914.116.557.115.61"/></g></svg>