<?xml-stylesheet type="text/css" href="https://fonts.googleapis.com/css?family=Open+Sans:300italic,400italic,600italic,700italic,400,600,700,300&amp;subset=latin,cyrillic-ext,latin-ext,cyrillic" ?><svg viewBox="0 0 460.8 288" xmlns="http://www.w3.org/2000/svg" xmlns:xlink="http://www.w3.org/1999/xlink"><defs><style>*{stroke-linecap:butt;stroke-linejoin:round}</style></defs><g id="figure_1"><path d="M0 288h460.8V0H0z" fill="#fefefe" id="patch_1"/><g id="axes_1"><path clip-path="url(#pfd55a329f2)" d="M183.293 505.798a122.805 122.805 0 0 0 86.833-35.968 122.805 122.805 0 0 0 35.967-86.832 122.805 122.805 0 0 0-35.967-86.832 122.805 122.805 0 0 0-86.833-35.968 122.805 122.805 0 0 0-86.832 35.968 122.805 122.805 0 0 0-35.967 86.832A122.805 122.805 0 0 0 96.46 469.83a122.805 122.805 0 0 0 86.832 35.968z" fill="none" stroke="#00f" stroke-dasharray="1,1.65" id="patch_2"/><path clip-path="url(#pfd55a329f2)" d="M183.293 389.138a6.14 6.14 0 1 0 0-12.28 6.14 6.14 0 0 0 0 12.28z" fill="none" stroke="#00f" id="patch_3"/><path clip-path="url(#pfd55a329f2)" d="M183.293 473.051a122.805 122.805 0 0 0 86.833-35.967 122.805 122.805 0 0 0 35.967-86.833 122.805 122.805 0 0 0-35.967-86.832 122.805 122.805 0 0 0-86.833-35.967 122.805 122.805 0 0 0-86.832 35.967 122.805 122.805 0 0 0-35.967 86.832 122.805 122.805 0 0 0 35.967 86.833 122.805 122.805 0 0 0 86.832 35.967z" fill="none" stroke="#00f" stroke-dasharray="1,1.65" id="patch_4"/><path clip-path="url(#pfd55a329f2)" d="M183.293 356.391a6.14 6.14 0 1 0 0-12.28 6.14 6.14 0 0 0 0 12.28z" fill="none" stroke="#00f" id="patch_5"/><path clip-path="url(#pfd55a329f2)" d="M183.293 440.305a122.805 122.805 0 0 0 86.833-35.968 122.805 122.805 0 0 0 35.967-86.832 122.805 122.805 0 0 0-35.967-86.833 122.805 122.805 0 0 0-86.833-35.967 122.805 122.805 0 0 0-86.832 35.967 122.805 122.805 0 0 0-35.967 86.833 122.805 122.805 0 0 0 35.967 86.832 122.805 122.805 0 0 0 86.832 35.968z" fill="none" stroke="#00f" stroke-dasharray="1,1.65" id="patch_6"/><path clip-path="url(#pfd55a329f2)" d="M183.293 323.645a6.14 6.14 0 1 0 0-12.28 6.14 6.14 0 0 0 0 12.28z" fill="none" stroke="#00f" id="patch_7"/><path clip-path="url(#pfd55a329f2)" d="M183.293 407.558a122.805 122.805 0 0 0 86.833-35.967 122.805 122.805 0 0 0 35.967-86.833 122.805 122.805 0 0 0-35.967-86.832 122.805 122.805 0 0 0-86.833-35.967 122.805 122.805 0 0 0-86.832 35.967 122.805 122.805 0 0 0-35.967 86.832 122.805 122.805 0 0 0 35.967 86.833 122.805 122.805 0 0 0 86.832 35.967z" fill="none" stroke="#00f" stroke-dasharray="1,1.65" id="patch_8"/><path clip-path="url(#pfd55a329f2)" d="M183.293 290.898a6.14 6.14 0 1 0 0-12.28 6.14 6.14 0 0 0 0 12.28z" fill="none" stroke="#00f" id="patch_9"/><path clip-path="url(#pfd55a329f2)" d="M183.293 374.811a122.805 122.805 0 0 0 86.833-35.967 122.805 122.805 0 0 0 35.967-86.832 122.805 122.805 0 0 0-35.967-86.833 122.805 122.805 0 0 0-86.833-35.967 122.805 122.805 0 0 0-86.832 35.967 122.805 122.805 0 0 0-35.967 86.833 122.805 122.805 0 0 0 35.967 86.832 122.805 122.805 0 0 0 86.832 35.967z" fill="none" stroke="#00f" stroke-dasharray="1,1.65" id="patch_10"/><path clip-path="url(#pfd55a329f2)" d="M183.293 258.152a6.14 6.14 0 1 0 0-12.28 6.14 6.14 0 0 0 0 12.28z" fill="none" stroke="#00f" id="patch_11"/><path clip-path="url(#pfd55a329f2)" d="M183.293 342.065a122.805 122.805 0 0 0 86.833-35.967 122.805 122.805 0 0 0 35.967-86.833 122.805 122.805 0 0 0-35.967-86.832 122.805 122.805 0 0 0-86.833-35.967 122.805 122.805 0 0 0-86.832 35.967 122.805 122.805 0 0 0-35.967 86.832 122.805 122.805 0 0 0 35.967 86.833 122.805 122.805 0 0 0 86.832 35.967z" fill="none" stroke="#00f" stroke-dasharray="1,1.65" id="patch_12"/><path clip-path="url(#pfd55a329f2)" d="M183.293 225.405a6.14 6.14 0 1 0 0-12.28 6.14 6.14 0 0 0 0 12.28z" fill="none" stroke="#00f" id="patch_13"/><path clip-path="url(#pfd55a329f2)" d="M183.293 309.318a122.805 122.805 0 0 0 86.833-35.967 122.805 122.805 0 0 0 35.967-86.832 122.805 122.805 0 0 0-35.967-86.833 122.805 122.805 0 0 0-86.833-35.967 122.805 122.805 0 0 0-86.832 35.967 122.805 122.805 0 0 0-35.967 86.833A122.805 122.805 0 0 0 96.46 273.35a122.805 122.805 0 0 0 86.832 35.967z" fill="none" stroke="#00f" stroke-dasharray="1,1.65" id="patch_14"/><path clip-path="url(#pfd55a329f2)" d="M183.293 192.659a6.14 6.14 0 1 0 0-12.28 6.14 6.14 0 0 0 0 12.28z" fill="none" stroke="#00f" id="patch_15"/><path clip-path="url(#pfd55a329f2)" d="M183.293 276.572a122.805 122.805 0 0 0 86.833-35.967 122.805 122.805 0 0 0 35.967-86.833 122.805 122.805 0 0 0-35.967-86.832 122.805 122.805 0 0 0-86.833-35.968A122.805 122.805 0 0 0 96.461 66.94a122.805 122.805 0 0 0-35.967 86.832 122.805 122.805 0 0 0 35.967 86.833 122.805 122.805 0 0 0 86.832 35.967z" fill="none" stroke="#00f" stroke-dasharray="1,1.65" id="patch_16"/><path clip-path="url(#pfd55a329f2)" d="M183.293 159.912a6.14 6.14 0 1 0 0-12.28 6.14 6.14 0 0 0 0 12.28z" fill="none" stroke="#00f" id="patch_17"/><path clip-path="url(#pfd55a329f2)" d="M183.293 243.825a122.805 122.805 0 0 0 86.833-35.967 122.805 122.805 0 0 0 35.967-86.832 122.805 122.805 0 0 0-35.967-86.833 122.805 122.805 0 0 0-86.833-35.967 122.805 122.805 0 0 0-86.832 35.967 122.805 122.805 0 0 0-35.967 86.833 122.805 122.805 0 0 0 35.967 86.832 122.805 122.805 0 0 0 86.832 35.967z" fill="none" stroke="#00f" stroke-dasharray="1,1.65" id="patch_18"/><path clip-path="url(#pfd55a329f2)" d="M183.293 127.166a6.14 6.14 0 1 0 0-12.281 6.14 6.14 0 0 0 0 12.28z" fill="none" stroke="#00f" id="patch_19"/><path clip-path="url(#pfd55a329f2)" d="M183.293 211.079a122.805 122.805 0 0 0 86.833-35.968 122.805 122.805 0 0 0 35.967-86.832 122.805 122.805 0 0 0-35.967-86.832 122.805 122.805 0 0 0-86.833-35.968A122.805 122.805 0 0 0 96.461 1.447a122.805 122.805 0 0 0-35.967 86.832 122.805 122.805 0 0 0 35.967 86.832 122.805 122.805 0 0 0 86.832 35.968z" fill="none" stroke="#00f" stroke-dasharray="1,1.65" id="patch_20"/><path clip-path="url(#pfd55a329f2)" d="M183.293 94.419a6.14 6.14 0 1 0 0-12.28 6.14 6.14 0 0 0 0 12.28z" fill="none" stroke="#00f" id="patch_21"/><path clip-path="url(#pfd55a329f2)" d="M183.293 178.332a122.805 122.805 0 0 0 86.833-35.967 122.805 122.805 0 0 0 35.967-86.833A122.805 122.805 0 0 0 270.126-31.3a122.805 122.805 0 0 0-86.833-35.967A122.805 122.805 0 0 0 96.461-31.3a122.805 122.805 0 0 0-35.967 86.832 122.805 122.805 0 0 0 35.967 86.833 122.805 122.805 0 0 0 86.832 35.967z" fill="none" stroke="#00f" stroke-dasharray="1,1.65" id="patch_22"/><path clip-path="url(#pfd55a329f2)" d="M183.293 61.672a6.14 6.14 0 1 0 0-12.28 6.14 6.14 0 0 0 0 12.28z" fill="none" stroke="#00f" id="patch_23"/><path clip-path="url(#pfd55a329f2)" d="M183.293 145.585a122.805 122.805 0 0 0 86.833-35.967 122.805 122.805 0 0 0 35.967-86.832 122.805 122.805 0 0 0-35.967-86.833 122.805 122.805 0 0 0-86.833-35.967 122.805 122.805 0 0 0-86.832 35.967 122.805 122.805 0 0 0-35.967 86.833 122.805 122.805 0 0 0 35.967 86.832 122.805 122.805 0 0 0 86.832 35.967z" fill="none" stroke="#00f" stroke-dasharray="1,1.65" id="patch_24"/><path clip-path="url(#pfd55a329f2)" d="M183.293 28.926a6.14 6.14 0 1 0 0-12.28 6.14 6.14 0 0 0 0 12.28z" fill="none" stroke="#00f" id="patch_25"/><path clip-path="url(#pfd55a329f2)" d="M183.293 112.839a122.805 122.805 0 0 0 86.833-35.967 122.805 122.805 0 0 0 35.967-86.833 122.805 122.805 0 0 0-35.967-86.832 122.805 122.805 0 0 0-86.833-35.967 122.805 122.805 0 0 0-86.832 35.967A122.805 122.805 0 0 0 60.494-9.961 122.805 122.805 0 0 0 96.46 76.872a122.805 122.805 0 0 0 86.832 35.967z" fill="none" stroke="#00f" stroke-dasharray="1,1.65" id="patch_26"/><path clip-path="url(#pfd55a329f2)" d="M183.293-3.82a6.14 6.14 0 1 0 0-12.281 6.14 6.14 0 0 0 0 12.28z" fill="none" stroke="#00f" id="patch_27"/><path clip-path="url(#pfd55a329f2)" d="M183.293 80.092a122.805 122.805 0 0 0 86.833-35.967 122.805 122.805 0 0 0 35.967-86.832 122.805 122.805 0 0 0-35.967-86.833 122.805 122.805 0 0 0-86.833-35.967 122.805 122.805 0 0 0-86.832 35.967 122.805 122.805 0 0 0-35.967 86.833A122.805 122.805 0 0 0 96.46 44.125a122.805 122.805 0 0 0 86.832 35.967z" fill="none" stroke="#00f" stroke-dasharray="1,1.65" id="patch_28"/><path clip-path="url(#pfd55a329f2)" d="M183.293-36.567a6.14 6.14 0 1 0 0-12.28 6.14 6.14 0 0 0 0 12.28z" fill="none" stroke="#00f" id="patch_29"/><path clip-path="url(#pfd55a329f2)" d="M183.293 47.346a122.805 122.805 0 0 0 86.833-35.967 122.805 122.805 0 0 0 35.967-86.833 122.805 122.805 0 0 0-35.967-86.832 122.805 122.805 0 0 0-86.833-35.967 122.805 122.805 0 0 0-86.832 35.967 122.805 122.805 0 0 0-35.967 86.832A122.805 122.805 0 0 0 96.46 11.38a122.805 122.805 0 0 0 86.832 35.967z" fill="none" stroke="#00f" stroke-dasharray="1,1.65" id="patch_30"/><path clip-path="url(#pfd55a329f2)" d="M183.293-69.314a6.14 6.14 0 1 0 0-12.28 6.14 6.14 0 0 0 0 12.28z" fill="none" stroke="#00f" id="patch_31"/><path clip-path="url(#pfd55a329f2)" d="M183.293 14.6a122.805 122.805 0 0 0 86.833-35.968 122.805 122.805 0 0 0 35.967-86.832 122.805 122.805 0 0 0-35.967-86.833A122.805 122.805 0 0 0 183.293-231a122.805 122.805 0 0 0-86.832 35.967A122.805 122.805 0 0 0 60.494-108.2 122.805 122.805 0 0 0 96.46-21.368a122.805 122.805 0 0 0 86.832 35.967z" fill="none" stroke="#00f" stroke-dasharray="1,1.65" id="patch_32"/><path clip-path="url(#pfd55a329f2)" d="M183.293-102.06a6.14 6.14 0 1 0 0-12.28 6.14 6.14 0 0 0 0 12.28z" fill="none" stroke="#00f" id="patch_33"/><path clip-path="url(#pfd55a329f2)" d="M183.293 260.198V14.6" fill="none" stroke="green" stroke-width="1.5" id="LineCollection_1"/><path clip-path="url(#pfd55a329f2)" d="M306.093 260.198V14.6" fill="none" stroke="red" stroke-width="1.5" id="LineCollection_2"/><g id="line2d_1"><defs><path d="M0 3a3 3 0 1 0 0-6 3 3 0 0 0 0 6z" id="m49c2e81056" stroke="#00f"/></defs><g clip-path="url(#pfd55a329f2)" fill="#00f" stroke="#00f"><use x="183.293" xlink:href="#m49c2e81056" y="382.998"/><use x="183.293" xlink:href="#m49c2e81056" y="350.251"/><use x="183.293" xlink:href="#m49c2e81056" y="317.505"/><use x="183.293" xlink:href="#m49c2e81056" y="284.758"/><use x="183.293" xlink:href="#m49c2e81056" y="252.012"/><use x="183.293" xlink:href="#m49c2e81056" y="219.265"/><use x="183.293" xlink:href="#m49c2e81056" y="186.519"/><use x="183.293" xlink:href="#m49c2e81056" y="153.772"/><use x="183.293" xlink:href="#m49c2e81056" y="121.026"/><use x="183.293" xlink:href="#m49c2e81056" y="88.279"/><use x="183.293" xlink:href="#m49c2e81056" y="55.532"/><use x="183.293" xlink:href="#m49c2e81056" y="22.786"/><use x="183.293" xlink:href="#m49c2e81056" y="-1"/></g></g><path d="M312.235 135.399h37.116v-4l12 6-12 6v-4h-37.116v-4z" id="patch_34"/><text x="183.293" y="277.797" font-family="Open Sans" font-size="10" font-weight="400" text-anchor="middle" id="text_1">Source</text><text x="306.093" y="277.797" font-family="Open Sans" font-size="10" font-weight="400" text-anchor="middle" id="text_2">Wavefront</text></g></g><defs><clipPath id="pfd55a329f2"><path d="M48.214 14.599h380.679v245.599H48.214z"/></clipPath></defs></svg>