<?xml-stylesheet type="text/css" href="https://fonts.googleapis.com/css?family=Open+Sans:300italic,400italic,600italic,700italic,400,600,700,300&amp;subset=latin,cyrillic-ext,latin-ext,cyrillic" ?><svg viewBox="0 0 460 180" xmlns="http://www.w3.org/2000/svg" xmlns:xlink="http://www.w3.org/1999/xlink"><defs><style>*{stroke-linecap:butt;stroke-linejoin:round}</style></defs><g id="figure_1"><path d="M0 180h460.8V0H0z" fill="#fefefe" id="patch_1"/><g id="axes_1"><path d="M51.614 138.197H446.5V14.3H51.614z" fill="#fff" id="patch_2"/><path clip-path="url(#p464e22fad6)" d="M51.614 76.248H446.5" fill="none" stroke="gray" stroke-linecap="square" stroke-width="1.5" id="line2d_1"/><g id="matplotlib.axis_1"><g id="xtick_1"><g id="line2d_2"><defs><path d="M0 0v3.5" id="mce63d80ca5" stroke="#000" stroke-width=".8"/></defs><use x="51.614" xlink:href="#mce63d80ca5" y="138.197" stroke="#000" stroke-width=".8"/></g><text x="51.614" y="152.795" font-family="Open Sans" font-size="10" font-weight="400" text-anchor="middle" id="text_1">0</text></g><g id="xtick_2"><use x="117.516" xlink:href="#mce63d80ca5" y="138.197" stroke="#000" stroke-width=".8" id="line2d_3"/><text x="117.516" y="152.795" font-family="Open Sans" font-size="10" font-weight="400" text-anchor="middle" id="text_2">5</text></g><g id="xtick_3"><use x="183.418" xlink:href="#mce63d80ca5" y="138.197" stroke="#000" stroke-width=".8" id="line2d_4"/><text x="183.418" y="152.795" font-family="Open Sans" font-size="10" font-weight="400" text-anchor="middle" id="text_3">10</text></g><g id="xtick_4"><use x="249.321" xlink:href="#mce63d80ca5" y="138.197" stroke="#000" stroke-width=".8" id="line2d_5"/><text x="249.321" y="152.795" font-family="Open Sans" font-size="10" font-weight="400" text-anchor="middle" id="text_4">15</text></g><g id="xtick_5"><use x="315.223" xlink:href="#mce63d80ca5" y="138.197" stroke="#000" stroke-width=".8" id="line2d_6"/><text x="315.223" y="152.795" font-family="Open Sans" font-size="10" font-weight="400" text-anchor="middle" id="text_5">20</text></g><g id="xtick_6"><use x="381.125" xlink:href="#mce63d80ca5" y="138.197" stroke="#000" stroke-width=".8" id="line2d_7"/><text x="381.125" y="152.795" font-family="Open Sans" font-size="10" font-weight="400" text-anchor="middle" id="text_6">25</text></g><text x="249.057" y="166.797" font-family="Open Sans" font-size="10" font-weight="400" text-anchor="middle" id="text_7">Time (milliseconds)</text></g><g id="matplotlib.axis_2"><g id="ytick_1"><g id="line2d_8"><defs><path d="M0 0h-3.5" id="m71462cc3f7" stroke="#000" stroke-width=".8"/></defs><use x="51.614" xlink:href="#m71462cc3f7" y="108.106" stroke="#000" stroke-width=".8"/></g><text x="44.614" y="111.905" font-family="Open Sans" font-size="10" font-weight="400" text-anchor="end" id="text_8">−0.2</text></g><g id="ytick_2"><use x="51.614" xlink:href="#m71462cc3f7" y="76.248" stroke="#000" stroke-width=".8" id="line2d_9"/><text x="44.614" y="80.048" font-family="Open Sans" font-size="10" font-weight="400" text-anchor="end" id="text_9">0.0</text></g><g id="ytick_3"><use x="51.614" xlink:href="#m71462cc3f7" y="44.391" stroke="#000" stroke-width=".8" id="line2d_10"/><text x="44.614" y="48.19" font-family="Open Sans" font-size="10" font-weight="400" text-anchor="end" id="text_10">0.2</text></g><text transform="rotate(-90 18.398 76.248)" x="18.398" y="76.248" font-family="Open Sans" font-size="10" font-weight="400" text-anchor="middle" id="text_11">Relative sound pressure</text></g><path clip-path="url(#p464e22fad6)" d="M160.302 138.197V14.3" fill="none" stroke="#ff7f0e" stroke-dasharray="5.55,2.4" stroke-width="1.5" id="line2d_11"/><path clip-path="url(#p464e22fad6)" d="M294.647 138.197V14.3" fill="none" stroke="#ff7f0e" stroke-dasharray="5.55,2.4" stroke-width="1.5" id="line2d_12"/><path clip-path="url(#p464e22fad6)" d="M51.614 76.248h108.607l3.163-20.731 2.11-12.37 1.58-7.952 1.055-4.508 1.055-3.79 1.054-3.01 1.054-2.186.528-.772.527-.553.527-.333.527-.111.528.11.527.334.527.553.527.772 1.055 2.185 1.054 3.012 1.054 3.79 1.055 4.507 1.582 7.951 1.581 9.124 2.636 16.92 4.745 31.037 1.582 9.124 1.582 7.95 1.054 4.509 1.054 3.79 1.055 3.01 1.054 2.186.528.772.527.553.527.333.527.111.527-.11.528-.334.527-.553.527-.772 1.054-2.186 1.055-3.01 1.054-3.79 1.055-4.508 1.581-7.951 1.582-9.124 2.636-16.92 4.745-31.037 1.582-9.124 1.581-7.95 1.055-4.509 1.054-3.79 1.055-3.01 1.054-2.186.527-.772.528-.553.527-.333.527-.111.527.11.528.334.527.553.527.772 1.054 2.185 1.055 3.012 1.054 3.79 1.055 4.507 1.581 7.951 1.582 9.124 2.636 16.92 4.745 31.037 1.582 9.124 1.581 7.95 1.055 4.509 1.054 3.79 1.055 3.01 1.054 2.186.527.772.528.553.527.333.527.111.527-.11.527-.334.528-.553.527-.772 1.054-2.186 1.055-3.01 1.054-3.79 1.055-4.508 1.581-7.951 1.582-9.124 2.636-16.92 4.745-31.037 1.582-9.124 1.581-7.95 1.055-4.509 1.054-3.79 1.055-3.01 1.054-2.186.527-.772.527-.553.528-.333.527-.111.527.11.527.334.527.553.528.772 1.054 2.185 1.055 3.012 1.054 3.79 1.054 4.507 1.582 7.951 1.582 9.124 2.636 16.92 3.163 21.064 1.582 5.254 1.581 4.571 1.582 3.727 1.055 1.95 1.054 1.484 1.054.995 1.055.49.527.054.527-.075.527-.203 1.055-.786 1.054-1.283 1.055-1.76 1.054-2.206 1.055-2.62 1.581-4.615 1.582-5.286 2.636-9.789 4.745-17.913 1.582-5.254 1.581-4.571 1.582-3.728 1.054-1.949 1.055-1.484 1.054-.995 1.055-.49.527-.054.527.075.527.203 1.055.786 1.054 1.283 1.055 1.759 1.054 2.207 1.055 2.62 1.581 4.615 1.582 5.286 2.636 9.789 4.745 17.913 1.582 5.254 1.581 4.571 1.582 3.727 1.054 1.95 1.055 1.484 1.054.995 1.055.49.527.054.527-.075.527-.203 1.055-.786 1.054-1.283 1.055-1.76 1.054-2.206 1.054-2.62 1.582-4.615 1.582-5.286 2.636-9.789 4.745-17.913 1.581-5.254 1.582-4.571 1.582-3.728 1.054-1.949 1.055-1.484 1.054-.995 1.054-.49.528-.054.527.075.527.203 1.055.786 1.054 1.283 1.054 1.759 1.055 2.207 1.054 2.62 1.582 4.615 1.582 5.286 2.636 9.789 4.745 17.913 1.581 5.254 1.582 4.571 1.582 3.727 1.054 1.95 1.054 1.484 1.055.995 1.054.49.528.054.527-.075.527-.203 1.054-.786 1.055-1.283 1.054-1.76 1.055-2.206 1.054-2.62 1.582-4.615 1.581-5.286 2.637-9.789 4.745-17.913 1.581-5.254 1.582-4.571 1.581-3.728 1.055-1.949 1.054-1.484 1.055-.995 1.054-.49.527-.054.528.075.527.203 1.054.786 1.055 1.283 1.054 1.759 1.055 2.207 1.054 2.62 1.582 4.615 1.581 5.286 1.582 5.772" fill="none" stroke="#1f77b4" stroke-linecap="square" stroke-width="1.5" id="line2d_13"/><path d="M51.614 138.197V14.3" fill="none" stroke="#000" stroke-linecap="square" stroke-width=".8" id="patch_3"/><path d="M446.5 138.197V14.3" fill="none" stroke="#000" stroke-linecap="square" stroke-width=".8" id="patch_4"/><path d="M51.614 138.197H446.5" fill="none" stroke="#000" stroke-linecap="square" stroke-width=".8" id="patch_5"/><path d="M51.614 14.3H446.5" fill="none" stroke="#000" stroke-linecap="square" stroke-width=".8" id="patch_6"/></g></g><defs><clipPath id="p464e22fad6"><path d="M51.614 14.3H446.5v123.897H51.614z"/></clipPath></defs></svg>