<?xml-stylesheet type="text/css" href="https://fonts.googleapis.com/css?family=Open+Sans:300italic,400italic,600italic,700italic,400,600,700,300&amp;subset=latin,cyrillic-ext,latin-ext,cyrillic" ?><svg viewBox="0 0 460.8 345.6" xmlns="http://www.w3.org/2000/svg" xmlns:xlink="http://www.w3.org/1999/xlink"><defs><style>*{stroke-linecap:butt;stroke-linejoin:round}</style></defs><g id="figure_1"><path d="M0 345.6h460.8V0H0z" fill="#fefefe" id="patch_1"/><g id="axes_1"><path d="M71.9 331.3h317v-317h-317z" fill="#fff" id="patch_2"/><path clip-path="url(#p7aac8c901b)" d="M167 141.1a31.701 31.701 0 0 0 22.415-54.115A31.701 31.701 0 0 0 135.3 109.4a31.701 31.701 0 0 0 31.7 31.7z" fill="none" stroke="#000" stroke-dasharray="1,1.65" id="patch_3"/><path clip-path="url(#p7aac8c901b)" d="M167 156.95a47.552 47.552 0 0 0 47.55-47.55A47.552 47.552 0 0 0 167 61.85a47.552 47.552 0 0 0-47.55 47.55A47.552 47.552 0 0 0 167 156.95z" fill="none" stroke="#000" stroke-dasharray="1,1.65" id="patch_4"/><path clip-path="url(#p7aac8c901b)" d="M293.8 141.1a31.701 31.701 0 0 0 22.415-54.115A31.701 31.701 0 0 0 262.1 109.4a31.701 31.701 0 0 0 31.7 31.7z" fill="none" stroke="#000" stroke-dasharray="1,1.65" id="patch_5"/><path clip-path="url(#p7aac8c901b)" d="M293.8 156.95a47.552 47.552 0 0 0 47.55-47.55 47.552 47.552 0 0 0-47.55-47.55 47.552 47.552 0 0 0-47.55 47.55 47.552 47.552 0 0 0 47.55 47.55z" fill="none" stroke="#000" stroke-dasharray="1,1.65" id="patch_6"/><g id="line2d_1"><defs><path d="M0 3a3 3 0 1 0 0-6 3 3 0 0 0 0 6z" id="m9a9092fce3" stroke="#000"/></defs><g clip-path="url(#p7aac8c901b)"><use x="167" xlink:href="#m9a9092fce3" y="109.4" fill="#d62728" stroke="#000"/></g></g><g clip-path="url(#p7aac8c901b)" id="line2d_2"><use x="293.8" xlink:href="#m9a9092fce3" y="109.4" fill="#d62728" stroke="#000"/></g><g id="line2d_3"><defs><path d="M-3 3h6v-6h-6z" id="m7175e5d729" stroke="#000"/></defs><g clip-path="url(#p7aac8c901b)"><use x="230.4" xlink:href="#m7175e5d729" y="267.9" fill="#9467bd" stroke="#000"/></g></g><path d="M71.9 331.3v-317" fill="none" stroke="#000" stroke-linecap="square" stroke-width=".8" id="patch_7"/><path d="M388.9 331.3v-317" fill="none" stroke="#000" stroke-linecap="square" stroke-width=".8" id="patch_8"/><path d="M71.9 331.3h317" fill="none" stroke="#000" stroke-linecap="square" stroke-width=".8" id="patch_9"/><path d="M71.9 14.3h317" fill="none" stroke="#000" stroke-linecap="square" stroke-width=".8" id="patch_10"/><text x="167" y="101.997" font-family="Open Sans" font-size="10" font-weight="400" text-anchor="middle" id="text_1">Source A</text><text x="293.8" y="101.997" font-family="Open Sans" font-size="10" font-weight="400" text-anchor="middle" id="text_2">Source B</text><text x="230.4" y="280.498" font-family="Open Sans" font-size="10" font-weight="400" text-anchor="middle" id="text_3">Listener</text><g id="patch_11" fill="none" stroke="#000" stroke-linecap="round"><path d="M167.742 111.255l61.5 153.75M229.613 260.548l-.371 4.457-3.343-2.971"/></g><g id="patch_12" fill="none" stroke="#000" stroke-linecap="round"><path d="M293.058 111.255l-61.5 153.75M234.9 262.034l-3.342 2.97-.371-4.456"/></g><text x="193.7" y="201.248" font-family="Open Sans" font-size="10" font-weight="400" text-anchor="end" id="text_4">5.4 m</text><text x="267.1" y="201.248" font-family="Open Sans" font-size="10" font-weight="400" id="text_5">5.4 m</text></g></g><defs><clipPath id="p7aac8c901b"><path d="M71.9 14.3h317v317h-317z"/></clipPath></defs></svg>