<?xml-stylesheet type="text/css" href="https://fonts.googleapis.com/css?family=Open+Sans:300italic,400italic,600italic,700italic,400,600,700,300&amp;subset=latin,cyrillic-ext,latin-ext,cyrillic" ?><svg viewBox="0 0 460 180" xmlns="http://www.w3.org/2000/svg" xmlns:xlink="http://www.w3.org/1999/xlink"><defs><style>*{stroke-linecap:butt;stroke-linejoin:round}</style></defs><g id="figure_1"><path d="M0 180h460.8V0H0z" fill="#fefefe" id="patch_1"/><g id="axes_1"><path d="M48.953 155.198H446.5V14.6H48.953z" fill="#fff" id="patch_2"/><path clip-path="url(#p678cc6e071)" d="M48.953 84.899H446.5" fill="none" stroke="gray" stroke-linecap="square" stroke-width="1.5" id="line2d_1"/><g id="matplotlib.axis_1"><text x="247.727" y="166.797" font-family="Open Sans" font-size="10" font-weight="400" text-anchor="middle" id="text_1">Time</text></g><g id="matplotlib.axis_2"><g id="ytick_1"><g id="line2d_2"><defs><path d="M0 0h-3.5" id="m2263ee9046" stroke="#000" stroke-width=".8"/></defs><use x="48.953" xlink:href="#m2263ee9046" y="155.198" stroke="#000" stroke-width=".8"/></g><text x="41.953" y="158.998" font-family="Open Sans" font-size="10" font-weight="400" text-anchor="end" id="text_2">−10</text></g><g id="ytick_2"><use x="48.953" xlink:href="#m2263ee9046" y="120.049" stroke="#000" stroke-width=".8" id="line2d_3"/><text x="41.953" y="123.848" font-family="Open Sans" font-size="10" font-weight="400" text-anchor="end" id="text_3">−5</text></g><g id="ytick_3"><use x="48.953" xlink:href="#m2263ee9046" y="84.899" stroke="#000" stroke-width=".8" id="line2d_4"/><text x="41.953" y="88.698" font-family="Open Sans" font-size="10" font-weight="400" text-anchor="end" id="text_4">0</text></g><g id="ytick_4"><use x="48.953" xlink:href="#m2263ee9046" y="49.749" stroke="#000" stroke-width=".8" id="line2d_5"/><text x="41.953" y="53.548" font-family="Open Sans" font-size="10" font-weight="400" text-anchor="end" id="text_5">5</text></g><g id="ytick_5"><use x="48.953" xlink:href="#m2263ee9046" y="14.599" stroke="#000" stroke-width=".8" id="line2d_6"/><text x="41.953" y="18.398" font-family="Open Sans" font-size="10" font-weight="400" text-anchor="end" id="text_6">10</text></g><text transform="rotate(-90 18.398 84.899)" x="18.398" y="84.899" font-family="Open Sans" font-size="10" font-weight="400" text-anchor="middle" id="text_7">Amplitude</text></g><path clip-path="url(#p678cc6e071)" d="M48.953 84.899l6.648 6.144 3.989 3.435 3.989 3.095 2.659 1.82 2.659 1.592 2.66 1.338 2.658 1.063 2.66.772 2.659.468 2.659.157 2.659-.157 2.66-.468 2.658-.772 2.66-1.063 2.659-1.338 2.659-1.592 2.66-1.82 3.988-3.095 3.989-3.435 6.648-6.144 6.647-6.145 3.99-3.434 3.988-3.096 2.66-1.82 2.658-1.591 2.66-1.338 2.659-1.064 2.659-.771 2.66-.468 2.658-.157 2.66.157 2.659.468 2.659.771 2.659 1.064 2.66 1.338 2.658 1.591 2.66 1.82 3.988 3.096 3.989 3.434 6.648 6.145 6.648 6.144 3.989 3.435 3.988 3.095 2.66 1.82 2.659 1.592 2.659 1.338 2.66 1.063 2.658.772 2.66.468 2.659.157 2.659-.157 2.659-.468 2.66-.772 2.658-1.063 2.66-1.338 2.659-1.592 2.659-1.82 3.989-3.095 3.988-3.435 6.648-6.144 6.648-6.145 3.99-3.434 3.988-3.096 2.659-1.82 2.66-1.591 2.658-1.338 2.66-1.064 2.659-.771 2.659-.468 2.66-.157 2.658.157 2.66.468 2.659.771 2.659 1.064 2.659 1.338 2.66 1.591 2.658 1.82 3.99 3.096 3.988 3.434 6.648 6.145 6.648 6.144 3.988 3.435 3.99 3.095 2.658 1.82 2.66 1.592 2.659 1.338 2.659 1.063 2.66.772 2.658.468 2.66.157 2.659-.157 2.659-.468 2.659-.772 2.66-1.063 2.658-1.338 2.66-1.592 2.659-1.82 3.988-3.095 3.99-3.435 6.647-6.144 6.648-6.145 3.989-3.434 3.989-3.096 2.659-1.82 2.659-1.591 2.66-1.338 2.658-1.064 2.66-.771 2.659-.468 2.659-.157 2.66.157 2.658.468 2.66.771 2.659 1.064 2.659 1.338 2.659 1.591 2.66 1.82 3.988 3.096 3.989 3.434 5.318 4.896" fill="none" stroke="#1f77b4" stroke-linecap="square" stroke-width="1.5" id="line2d_7"/><path clip-path="url(#p678cc6e071)" d="M48.953 84.899l6.648-15.361 3.989-8.587 2.659-5.27 2.66-4.81 2.658-4.274 2.66-3.67 2.659-3.007 1.33-1.24 1.329-1.058 1.33-.87 1.33-.682 1.329-.489 1.33-.293 1.329-.099 1.33.099 1.329.293 1.33.489 1.33.681 1.329.871 1.33 1.058 1.329 1.24 1.33 1.418 2.659 3.345 2.659 3.98 2.66 4.55 2.658 5.05 2.66 5.47 3.988 8.804 6.648 15.483 5.318 12.24 3.99 8.586 2.658 5.271 2.66 4.81 2.659 4.274 2.659 3.669 2.66 3.007 1.329 1.24 1.33 1.058 1.329.871 1.33.682 1.33.488 1.329.294 1.33.098 1.329-.098 1.33-.294 1.329-.488 1.33-.682 1.33-.87 1.329-1.059 1.33-1.24 1.329-1.418 2.66-3.344 2.658-3.98 2.66-4.55 2.659-5.05 2.659-5.471 3.989-8.803 6.648-15.483 5.318-12.24 3.989-8.587 2.659-5.27 2.659-4.81 2.66-4.274 2.658-3.67 2.66-3.007 1.33-1.24 1.329-1.058 1.33-.87 1.329-.682 1.33-.489 1.33-.293 1.329-.099 1.33.099 1.329.293 1.33.489 1.329.681 1.33.871 1.33 1.058 1.329 1.24 1.33 1.418 2.659 3.345 2.659 3.98 2.659 4.55 2.66 5.05 2.658 5.47 3.989 8.804 6.648 15.483 5.318 12.24 3.99 8.586 2.658 5.271 2.66 4.81 2.659 4.274 2.659 3.669 2.659 3.007 1.33 1.24 1.33 1.058 1.329.871 1.33.682 1.329.488 1.33.294 1.33.098 1.329-.098 1.33-.294 1.329-.488 1.33-.682 1.329-.87 1.33-1.059 1.33-1.24 1.329-1.418 2.659-3.344 2.66-3.98 2.658-4.55 2.66-5.05 2.659-5.471 3.988-8.803 6.648-15.483 5.319-12.24 3.988-8.587 2.66-5.27 2.659-4.81 2.659-4.274 2.66-3.67 2.658-3.007 1.33-1.24 1.33-1.058 1.33-.87 1.329-.682 1.33-.489 1.329-.293 1.33-.099 1.33.099 1.329.293 1.33.489 1.329.681 1.33.871 1.329 1.058 1.33 1.24 1.33 1.418 2.658 3.345 2.66 3.98 2.659 4.55 2.659 5.05 2.66 5.47 3.988 8.804 6.648 15.483 5.318 12.24 3.989 8.586 2.66 5.271 2.658 4.81 2.66 4.274 2.659 3.669 2.659 3.007 1.33 1.24 1.329 1.058 1.33.871 1.33.682 1.329.488 1.33.294 1.329.098 1.33-.098 1.33-.294 1.329-.488 1.33-.682 1.329-.87 1.33-1.059 1.329-1.24 1.33-1.418 2.659-3.344 2.659-3.98 2.66-4.55 2.658-5.05 2.66-5.471 3.988-8.803 3.989-9.24" fill="none" stroke="#ff7f0e" stroke-linecap="square" stroke-width="1.5" id="line2d_8"/><path clip-path="url(#p678cc6e071)" d="M48.953 84.899l6.648-9.217 3.989-5.152 2.659-3.162 2.66-2.886 2.658-2.564 2.66-2.202 2.659-1.804 2.659-1.379 2.66-.931 1.329-.294 1.33-.176 1.329-.059 1.33.06 1.329.175 1.33.294 2.659.931 2.659 1.379 2.66 1.804 2.658 2.202 2.66 2.564 2.659 2.886 2.659 3.162 3.989 5.152 5.318 7.344 7.977 11.09 3.99 5.151 2.658 3.163 2.66 2.886 2.659 2.564 2.659 2.201 2.66 1.805 2.658 1.379 2.66.931 1.33.293 1.329.177 1.33.058 1.329-.058 1.33-.177 1.329-.293 2.66-.931 2.658-1.38 2.66-1.804 2.659-2.201 2.659-2.564 2.66-2.886 2.658-3.163 3.989-5.152 5.318-7.343 7.978-11.09 3.989-5.152 2.659-3.162 2.659-2.886 2.66-2.564 2.658-2.202 2.66-1.804 2.659-1.379 2.659-.931 1.33-.294 1.33-.176 1.329-.059 1.33.06 1.329.175 1.33.294 2.659.931 2.659 1.379 2.659 1.804 2.66 2.202 2.658 2.564 2.66 2.886 2.659 3.162 3.988 5.152 5.319 7.344 7.977 11.09 3.99 5.151 2.658 3.163 2.66 2.886 2.659 2.564 2.659 2.201 2.659 1.805 2.66 1.379 2.658.931 1.33.293 1.33.177 1.33.058 1.329-.058 1.33-.177 1.329-.293 2.659-.931 2.66-1.38 2.658-1.804 2.66-2.201 2.659-2.564 2.659-2.886 2.66-3.163 3.988-5.152 5.318-7.343 7.978-11.09 3.988-5.152 2.66-3.162 2.659-2.886 2.659-2.564 2.66-2.202 2.658-1.804 2.66-1.379 2.659-.931 1.33-.294 1.329-.176 1.33-.059 1.33.06 1.329.175 1.33.294 2.658.931 2.66 1.379 2.659 1.804 2.659 2.202 2.66 2.564 2.658 2.886 2.66 3.162 3.988 5.152 5.319 7.344 7.977 11.09 3.989 5.151 2.66 3.163 2.658 2.886 2.66 2.564 2.659 2.201 2.659 1.805 2.659 1.379 2.66.931 1.329.293 1.33.177 1.329.058 1.33-.058 1.33-.177 1.329-.293 2.659-.931 2.659-1.38 2.66-1.804 2.658-2.201 2.66-2.564 2.659-2.886 2.659-3.163 3.989-5.152 5.318-7.343" fill="none" stroke="#2ca02c" stroke-linecap="square" stroke-width="1.5" id="line2d_9"/><path d="M48.953 155.198V14.6" fill="none" stroke="#000" stroke-linecap="square" stroke-width=".8" id="patch_3"/><path d="M446.5 155.198V14.6" fill="none" stroke="#000" stroke-linecap="square" stroke-width=".8" id="patch_4"/><path d="M48.953 155.198H446.5" fill="none" stroke="#000" stroke-linecap="square" stroke-width=".8" id="patch_5"/><path d="M48.953 14.6H446.5" fill="none" stroke="#000" stroke-linecap="square" stroke-width=".8" id="patch_6"/><g id="legend_1"><path d="M373.748 67.604H439.5q2 0 2-2V21.599q0-2-2-2h-65.752q-2 0-2 2v44.005q0 2 2 2z" fill="#fff" opacity=".8" stroke="#ccc" id="patch_7"/><path d="M375.748 27.698h20" fill="none" stroke="#1f77b4" stroke-linecap="square" stroke-width="1.5" id="line2d_10"/><text x="403.748" y="31.198" font-family="Open Sans" font-size="10" font-weight="400" id="text_8">Wave 1</text><path d="M375.748 42.7h20" fill="none" stroke="#ff7f0e" stroke-linecap="square" stroke-width="1.5" id="line2d_12"/><text x="403.748" y="46.199" font-family="Open Sans" font-size="10" font-weight="400" id="text_9">Wave 2</text><path d="M375.748 57.7h20" fill="none" stroke="#2ca02c" stroke-linecap="square" stroke-width="1.5" id="line2d_14"/><text x="403.748" y="61.201" font-family="Open Sans" font-size="10" font-weight="400" id="text_10">Sum</text></g></g></g><defs><clipPath id="p678cc6e071"><path d="M48.953 14.599H446.5v140.599H48.953z"/></clipPath></defs></svg>