<?xml-stylesheet type="text/css" href="https://fonts.googleapis.com/css?family=Open+Sans:300italic,400italic,600italic,700italic,400,600,700,300&amp;subset=latin,cyrillic-ext,latin-ext,cyrillic" ?><svg viewBox="0 0 460.8 180" xmlns="http://www.w3.org/2000/svg" xmlns:xlink="http://www.w3.org/1999/xlink"><defs><style>*{stroke-linecap:butt;stroke-linejoin:round}</style></defs><g id="figure_1"><path d="M0 180h460.8V0H0z" fill="#fefefe" id="patch_1"/><g id="axes_1"><path d="M37.612 165.7H446.5V14.3H37.613z" fill="#fff" id="patch_2"/><path clip-path="url(#p41ed53c7d4)" d="M37.612 90H446.5" fill="none" stroke="gray" stroke-linecap="square" stroke-width="1.5" id="line2d_1"/><g id="matplotlib.axis_2"><g id="ytick_1"><g id="line2d_2"><defs><path d="M0 0h-3.5" id="meddcb1aa39" stroke="#000" stroke-width=".8"/></defs><use x="37.612" xlink:href="#meddcb1aa39" y="158.818" stroke="#000" stroke-width=".8"/></g><text x="30.613" y="162.617" font-family="Open Sans" font-size="10" font-weight="400" text-anchor="end" id="text_1">−1.0</text></g><g id="ytick_2"><use x="37.612" xlink:href="#meddcb1aa39" y="124.409" stroke="#000" stroke-width=".8" id="line2d_3"/><text x="30.613" y="128.208" font-family="Open Sans" font-size="10" font-weight="400" text-anchor="end" id="text_2">−0.5</text></g><g id="ytick_3"><use x="37.612" xlink:href="#meddcb1aa39" y="90" stroke="#000" stroke-width=".8" id="line2d_4"/><text x="30.613" y="93.799" font-family="Open Sans" font-size="10" font-weight="400" text-anchor="end" id="text_3">0.0</text></g><g id="ytick_4"><use x="37.612" xlink:href="#meddcb1aa39" y="55.591" stroke="#000" stroke-width=".8" id="line2d_5"/><text x="30.613" y="59.39" font-family="Open Sans" font-size="10" font-weight="400" text-anchor="end" id="text_4">0.5</text></g><g id="ytick_5"><use x="37.612" xlink:href="#meddcb1aa39" y="21.182" stroke="#000" stroke-width=".8" id="line2d_6"/><text x="30.613" y="24.981" font-family="Open Sans" font-size="10" font-weight="400" text-anchor="end" id="text_5">1.0</text></g></g><path clip-path="url(#p41ed53c7d4)" d="M37.612 90l6.838-21.266 4.103-11.887 2.735-7.297 2.735-6.66 2.735-5.915 2.735-5.08 1.367-2.2 1.368-1.964 1.367-1.717 1.368-1.464 1.367-1.206 1.368-.943 1.367-.677 1.368-.406 1.367-.136 1.368.136 1.367.406 1.368.677 1.367.943 1.368 1.206 1.368 1.464 1.367 1.717 1.368 1.963 1.367 2.2 2.735 5.08 2.735 5.917 2.735 6.659 2.735 7.297 4.103 11.887 5.47 16.945 8.205 25.587 4.102 11.887 2.736 7.297 2.735 6.66 2.735 5.915 2.735 5.08 1.367 2.2 1.368 1.964 1.367 1.717 1.368 1.464 1.367 1.206 1.368.943 1.367.677 1.368.406 1.367.136 1.368-.136 1.367-.406 1.368-.677 1.367-.943 1.368-1.206 1.367-1.464 1.368-1.717 1.367-1.963 1.368-2.2 2.735-5.08 2.735-5.917 2.735-6.659 2.735-7.297 4.103-11.887 5.47-16.945 8.205-25.587 4.102-11.887 2.735-7.297 2.735-6.66 2.735-5.915 2.735-5.08 1.368-2.2 1.367-1.964 1.368-1.717 1.368-1.464 1.367-1.206 1.368-.943 1.367-.677 1.368-.406 1.367-.136 1.368.136 1.367.406 1.368.677 1.367.943 1.368 1.206 1.367 1.464 1.368 1.717 1.367 1.963 1.368 2.2 2.735 5.08 2.735 5.917 2.735 6.659 2.735 7.297 4.102 11.887 5.47 16.945 8.206 25.587 4.102 11.887 2.735 7.297 2.735 6.66 2.735 5.915 2.735 5.08 1.368 2.2 1.367 1.964 1.368 1.717 1.367 1.464 1.368 1.206 1.367.943 1.368.677 1.367.406 1.368.136 1.367-.136 1.368-.406 1.367-.677 1.368-.943 1.368-1.206 1.367-1.464 1.368-1.717 1.367-1.963 1.368-2.2 2.735-5.08 2.735-5.917 2.735-6.659 2.735-7.297 4.102-11.887 5.47-16.945 8.205-25.587 4.103-11.887 2.735-7.297 2.735-6.66 2.735-5.915 2.735-5.08 1.368-2.2 1.367-1.964 1.368-1.717 1.367-1.464 1.368-1.206 1.367-.943 1.368-.677 1.367-.406 1.368-.136 1.367.136 1.368.406 1.367.677 1.368.943 1.367 1.206 1.368 1.464 1.367 1.717 1.368 1.963 1.367 2.2 2.735 5.08 2.735 5.917 2.736 6.659 2.735 7.297 4.102 11.887 5.47 16.945 8.205 25.587 4.103 11.887 2.735 7.297 2.735 6.66 2.735 5.915 2.735 5.08 1.367 2.2 1.368 1.964 1.367 1.717 1.368 1.464 1.368 1.206 1.367.943 1.368.677 1.367.406 1.368.136 1.367-.136 1.368-.406 1.367-.677 1.368-.943 1.367-1.206 1.368-1.464 1.367-1.717 1.368-1.963 1.367-2.2 2.735-5.08 2.735-5.917 2.735-6.659 2.735-7.297 4.103-11.887 5.47-16.945" fill="none" stroke="#1f77b4" stroke-linecap="square" stroke-width="1.5" id="line2d_7"/><path d="M37.612 165.7V14.3" fill="none" stroke="#000" stroke-linecap="square" stroke-width=".8" id="patch_3"/><path d="M446.5 165.7V14.3" fill="none" stroke="#000" stroke-linecap="square" stroke-width=".8" id="patch_4"/><path d="M37.612 165.7H446.5" fill="none" stroke="#000" stroke-linecap="square" stroke-width=".8" id="patch_5"/><path d="M37.612 14.3H446.5" fill="none" stroke="#000" stroke-linecap="square" stroke-width=".8" id="patch_6"/></g></g><defs><clipPath id="p41ed53c7d4"><path d="M37.612 14.3h408.887v151.4H37.612z"/></clipPath></defs></svg>