<?xml-stylesheet type="text/css" href="https://fonts.googleapis.com/css?family=Open+Sans:300italic,400italic,600italic,700italic,400,600,700,300&amp;subset=latin,cyrillic-ext,latin-ext,cyrillic" ?><svg viewBox="0 0 460.8 180" xmlns="http://www.w3.org/2000/svg" xmlns:xlink="http://www.w3.org/1999/xlink"><defs><style>*{stroke-linecap:butt;stroke-linejoin:round}</style></defs><g id="figure_1"><path d="M0 180h460.8V0H0z" fill="#fefefe" id="patch_1"/><g id="axes_1"><path d="M43.236 138.197H446.5V14.3H43.236z" fill="#fff" id="patch_2"/><path clip-path="url(#p5197969fff)" d="M43.236 76.248H446.5" fill="none" stroke="gray" stroke-linecap="square" stroke-width="1.5" id="line2d_1"/><g id="matplotlib.axis_1"><g id="xtick_1"><g id="line2d_2"><defs><path d="M0 0v3.5" id="m793e7efc69" stroke="#000" stroke-width=".8"/></defs><use x="43.236" xlink:href="#m793e7efc69" y="138.197" stroke="#000" stroke-width=".8"/></g><text x="43.236" y="152.795" font-family="Open Sans" font-size="10" font-weight="400" text-anchor="middle" id="text_1">0.00</text></g><g id="xtick_2"><use x="93.897" xlink:href="#m793e7efc69" y="138.197" stroke="#000" stroke-width=".8" id="line2d_3"/><text x="93.897" y="152.795" font-family="Open Sans" font-size="10" font-weight="400" text-anchor="middle" id="text_2">0.25</text></g><g id="xtick_3"><use x="144.559" xlink:href="#m793e7efc69" y="138.197" stroke="#000" stroke-width=".8" id="line2d_4"/><text x="144.559" y="152.795" font-family="Open Sans" font-size="10" font-weight="400" text-anchor="middle" id="text_3">0.50</text></g><g id="xtick_4"><use x="195.22" xlink:href="#m793e7efc69" y="138.197" stroke="#000" stroke-width=".8" id="line2d_5"/><text x="195.22" y="152.795" font-family="Open Sans" font-size="10" font-weight="400" text-anchor="middle" id="text_4">0.75</text></g><g id="xtick_5"><use x="245.881" xlink:href="#m793e7efc69" y="138.197" stroke="#000" stroke-width=".8" id="line2d_6"/><text x="245.881" y="152.795" font-family="Open Sans" font-size="10" font-weight="400" text-anchor="middle" id="text_5">1.00</text></g><g id="xtick_6"><use x="296.543" xlink:href="#m793e7efc69" y="138.197" stroke="#000" stroke-width=".8" id="line2d_7"/><text x="296.543" y="152.795" font-family="Open Sans" font-size="10" font-weight="400" text-anchor="middle" id="text_6">1.25</text></g><g id="xtick_7"><use x="347.204" xlink:href="#m793e7efc69" y="138.197" stroke="#000" stroke-width=".8" id="line2d_8"/><text x="347.204" y="152.795" font-family="Open Sans" font-size="10" font-weight="400" text-anchor="middle" id="text_7">1.50</text></g><g id="xtick_8"><use x="397.865" xlink:href="#m793e7efc69" y="138.197" stroke="#000" stroke-width=".8" id="line2d_9"/><text x="397.865" y="152.795" font-family="Open Sans" font-size="10" font-weight="400" text-anchor="middle" id="text_8">1.75</text></g><text x="244.868" y="166.797" font-family="Open Sans" font-size="10" font-weight="400" text-anchor="middle" id="text_9">Time (milliseconds)</text></g><g id="matplotlib.axis_2"><g id="ytick_1"><g id="line2d_10"><defs><path d="M0 0h-3.5" id="m15b6ba6048" stroke="#000" stroke-width=".8"/></defs><use x="43.236" xlink:href="#m15b6ba6048" y="116.189" stroke="#000" stroke-width=".8"/></g><text x="36.236" y="119.989" font-family="Open Sans" font-size="10" font-weight="400" text-anchor="end" id="text_10">−1</text></g><g id="ytick_2"><use x="43.236" xlink:href="#m15b6ba6048" y="76.248" stroke="#000" stroke-width=".8" id="line2d_11"/><text x="36.236" y="80.048" font-family="Open Sans" font-size="10" font-weight="400" text-anchor="end" id="text_11">0</text></g><g id="ytick_3"><use x="43.236" xlink:href="#m15b6ba6048" y="36.307" stroke="#000" stroke-width=".8" id="line2d_12"/><text x="36.236" y="40.107" font-family="Open Sans" font-size="10" font-weight="400" text-anchor="end" id="text_12">1</text></g><text transform="rotate(-90 18.398 76.248)" x="18.398" y="76.248" font-family="Open Sans" font-size="10" font-weight="400" text-anchor="middle" id="text_13">Voltage (volts)</text></g><path clip-path="url(#p5197969fff)" d="M43.236 76.248l8.106-14.005 4.053-6.726 4.053-6.4 4.052-5.97 4.053-5.45 4.053-4.841 2.027-2.169 2.026-1.988 2.027-1.801 2.026-1.606 2.027-1.406 2.026-1.198 2.026-.987 2.027-.772 2.026-.553 2.027-.333 2.026-.111 2.027.11 2.026.334 2.027.553 2.026.772 2.027.987 2.026 1.198 2.026 1.406 2.027 1.606 2.026 1.8 2.027 1.99 2.026 2.168 4.053 4.841 4.053 5.45 4.053 5.97 4.053 6.4 6.08 10.179 18.237 31.284 4.053 6.4 4.053 5.97 4.053 5.45 4.053 4.841 2.026 2.169 2.027 1.988 2.026 1.801 2.027 1.606 2.026 1.405 2.027 1.199 2.026.987 2.027.772 2.026.553 2.026.333 2.027.111 2.026-.11 2.027-.334 2.026-.553 2.027-.772 2.026-.987 2.027-1.199 2.026-1.405 2.027-1.606 2.026-1.8 2.026-1.99 2.027-2.168 4.053-4.841 4.053-5.45 4.053-5.97 4.052-6.4 6.08-10.179 18.238-31.284 4.053-6.4 4.053-5.97 4.053-5.45 4.053-4.841 2.026-2.169 2.026-1.988 2.027-1.801 2.026-1.606 2.027-1.406 2.026-1.198 2.027-.987 2.026-.772 2.027-.553 2.026-.333 2.027-.111 2.026.11 2.026.334 2.027.553 2.026.772 2.027.987 2.026 1.198 2.027 1.406 2.026 1.606 2.027 1.8 2.026 1.99 2.026 2.168 4.053 4.841 4.053 5.45 4.053 5.97 4.053 6.4 6.08 10.179 18.238 31.284 4.052 6.4 4.053 5.97 4.053 5.45 4.053 4.841 2.027 2.169 2.026 1.988 2.027 1.801 2.026 1.606 2.026 1.405 2.027 1.199 2.026.987 2.027.772 2.026.553 2.027.333 2.026.111 2.027-.11 2.026-.334 2.026-.553 2.027-.772 2.026-.987 2.027-1.199 2.026-1.405 2.027-1.606 2.026-1.8 2.027-1.99 2.026-2.168 4.053-4.841 4.053-5.45 4.053-5.97 4.053-6.4 6.08-10.179 4.052-7.016" fill="none" stroke="#1f77b4" stroke-linecap="square" stroke-width="1.5" id="line2d_13"/><path d="M43.236 138.197V14.3" fill="none" stroke="#000" stroke-linecap="square" stroke-width=".8" id="patch_3"/><path d="M446.5 138.197V14.3" fill="none" stroke="#000" stroke-linecap="square" stroke-width=".8" id="patch_4"/><path d="M43.236 138.197H446.5" fill="none" stroke="#000" stroke-linecap="square" stroke-width=".8" id="patch_5"/><path d="M43.236 14.3H446.5" fill="none" stroke="#000" stroke-linecap="square" stroke-width=".8" id="patch_6"/></g></g><defs><clipPath id="p5197969fff"><path d="M43.236 14.3H446.5v123.897H43.236z"/></clipPath></defs></svg>