<?xml-stylesheet type="text/css" href="https://fonts.googleapis.com/css?family=Open+Sans" ?><svg xmlns="http://www.w3.org/2000/svg" viewBox="0 0 600 160"><path fill="#fff" d="M0 0h600v160H0z"/><path fill="#fefefe" shape-rendering="crispEdges" d="M0 160h600V0H0z"/><clipPath id="a"><path d="M0 160h600V0H0z"/></clipPath><g clip-path="url(#a)"><path fill="#fff" shape-rendering="crispEdges" d="M60 133.333h500L60 4.444z"/><path fill="#fff" shape-rendering="crispEdges" d="M560 133.333V4.444H60z"/><path fill="none" stroke="#262626" stroke-width=".5" d="M60 133.333h5M560 133.333h-5M60 111.852h5M560 111.852h-5M60 90.37h5M560 90.37h-5M60 68.889h5M560 68.889h-5M60 47.407h5M560 47.407h-5M60 25.926h5M560 25.926h-5M60 4.444h5M560 4.444h-5"/><text fill="#262626" x="55" y="133.333" font-size="10" text-anchor="end" dy="5" font-family="Open Sans">-1.5</text><text fill="#262626" x="55" y="111.852" font-size="10" text-anchor="end" dy="5" font-family="Open Sans">-1</text><text fill="#262626" x="55" y="90.37" font-size="10" text-anchor="end" dy="5" font-family="Open Sans">-0.5</text><text fill="#262626" x="55" y="68.889" font-size="10" text-anchor="end" dy="5" font-family="Open Sans">0</text><text fill="#262626" x="55" y="47.407" font-size="10" text-anchor="end" dy="5" font-family="Open Sans">0.5</text><text fill="#262626" x="55" y="25.926" font-size="10" text-anchor="end" dy="5" font-family="Open Sans">1</text><text fill="#262626" x="55" y="4.444" font-size="10" text-anchor="end" dy="5" font-family="Open Sans">1.5</text><path fill="none" stroke="#262626" stroke-width=".5" stroke-dasharray="16,0" d="M60 133.333h500M60 4.444h500M60 133.333V4.444M560 133.333V4.444"/><path fill="none" stroke="#0071bc" stroke-width=".5" d="M60 68.889l1.667-2.698 1.666-2.687L65 60.838l1.667-2.634 1.666-2.591L70 53.073l1.667-2.477 1.666-2.405L75 45.868l1.667-2.232 1.666-2.133L80 39.48l1.667-1.909 1.666-1.785L85 34.131l1.667-1.517 1.666-1.374L90 30.015l1.667-1.072 1.666-.914L95 27.276l1.667-.59 1.666-.421L100 26.01l1.667-.085 1.666.085 1.667.254 1.667.422 1.666.589 1.667.753 1.667.914 1.666 1.072L115 31.24l1.667 1.374 1.666 1.517L120 35.785l1.667 1.785 1.666 1.909L125 41.503l1.667 2.133 1.666 2.232L130 48.191l1.667 2.405 1.666 2.477 1.667 2.54 1.667 2.591 1.666 2.634L140 63.504l1.667 2.687 1.666 2.698L145 71.587l1.667 2.687 1.666 2.665L150 79.573l1.667 2.592 1.666 2.54L155 87.182l1.667 2.404 1.666 2.324L160 94.142l1.667 2.133 1.666 2.024 1.667 1.909 1.667 1.784 1.666 1.655 1.667 1.517 1.667 1.374 1.666 1.225 1.667 1.072 1.667.914 1.666.753 1.667.589 1.667.422 1.666.254 1.667.085 1.667-.085 1.666-.254 1.667-.422 1.667-.589 1.666-.753 1.667-.914 1.667-1.072 1.666-1.225 1.667-1.374 1.667-1.517 1.666-1.655 1.667-1.784 1.667-1.909 1.666-2.025L210 94.142l1.667-2.232 1.666-2.323L215 87.181l1.667-2.477 1.666-2.54L220 79.573l1.667-2.634 1.666-2.665L225 71.587l1.667-2.698 1.666-2.698L230 63.504l1.667-2.666 1.666-2.634L235 55.613l1.667-2.54 1.666-2.477L240 48.191l1.667-2.323 1.666-2.232L245 41.503l1.667-2.024 1.666-1.909L250 35.785l1.667-1.654 1.666-1.517L255 31.24l1.667-1.225 1.666-1.072 1.667-.914 1.667-.753 1.666-.59 1.667-.421 1.667-.254 1.666-.085 1.667.085 1.667.254 1.666.422 1.667.589 1.667.753 1.666.914L280 30.015l1.667 1.225 1.666 1.374L285 34.131l1.667 1.654 1.666 1.785L290 39.48l1.667 2.024 1.666 2.133L295 45.868l1.667 2.323 1.666 2.405L300 53.073l1.667 2.54 1.666 2.591L305 60.838l1.667 2.666 1.666 2.687L310 68.89l1.667 2.698 1.666 2.687L315 76.939l1.667 2.634 1.666 2.592 1.667 2.54 1.667 2.477 1.666 2.404L325 91.91l1.667 2.232 1.666 2.133L330 98.299l1.667 1.909 1.666 1.784 1.667 1.655 1.667 1.517 1.666 1.374 1.667 1.225 1.667 1.072 1.666.914 1.667.753 1.667.589 1.666.422 1.667.254 1.667.085 1.666-.085 1.667-.254 1.667-.422 1.666-.589 1.667-.753 1.667-.914 1.666-1.072 1.667-1.225 1.667-1.374 1.666-1.517 1.667-1.655 1.667-1.784 1.666-1.909L375 96.274l1.667-2.132 1.666-2.232L380 89.587l1.667-2.405 1.666-2.477 1.667-2.54 1.667-2.592 1.666-2.634L390 74.274l1.667-2.687 1.666-2.698L395 66.19l1.667-2.687 1.666-2.666L400 58.204l1.667-2.591 1.666-2.54L405 50.596l1.667-2.405 1.666-2.323L410 43.636l1.667-2.133 1.666-2.024L415 37.57l1.667-1.785 1.666-1.654L420 32.614l1.667-1.374 1.666-1.225L425 28.943l1.667-.914 1.666-.753 1.667-.59 1.667-.421 1.666-.254 1.667-.085 1.667.085 1.666.254 1.667.422 1.667.589 1.666.753 1.667.914 1.667 1.072 1.666 1.225L450 32.614l1.667 1.517 1.666 1.654L455 37.57l1.667 1.909 1.666 2.024L460 43.636l1.667 2.232 1.666 2.323L465 50.596l1.667 2.477 1.666 2.54L470 58.204l1.667 2.634 1.666 2.666L475 66.191l1.667 2.698 1.666 2.698L480 74.274l1.667 2.665 1.666 2.634L485 82.165l1.667 2.54 1.666 2.477L490 89.586l1.667 2.324 1.666 2.232L495 96.275l1.667 2.024 1.666 1.909 1.667 1.784 1.667 1.655 1.666 1.517 1.667 1.374 1.667 1.225 1.666 1.072 1.667.914 1.667.753 1.666.589 1.667.422 1.667.254 1.666.085 1.667-.085 1.667-.254 1.666-.422 1.667-.589 1.667-.753 1.666-.914 1.667-1.072 1.667-1.225 1.666-1.374 1.667-1.517 1.667-1.655 1.666-1.784L540 98.299l1.667-2.025 1.666-2.132L545 91.91l1.667-2.323 1.666-2.405L550 84.705l1.667-2.54 1.666-2.592L555 76.94l1.667-2.665 1.666-2.687L560 68.889"/><path fill="none" stroke="#000" stroke-width=".5" stroke-dasharray="4,4,4,4" d="M60 111.852h500M60 68.889h500M60 25.926h500M60 38.56h500"/></g><g clip-path="url(#a)"><path shape-rendering="crispEdges" d="M310 107.266v4.586l-3.528-7.056zM310 111.852v-4.586l3.528-2.47zM310 25.926v4.586l-3.528 2.47zM310 30.512v-4.586l3.528 7.055zM393.333 64.303v4.586l-3.527-7.056zM393.333 68.889v-4.586l3.528-2.47zM393.333 25.926v4.586l-3.527 2.47zM393.333 30.512v-4.586l3.528 7.055zM476.667 64.303v4.586l-3.528-7.056zM476.667 68.889v-4.586l3.527-2.47zM476.667 38.56v4.586l-3.528 2.47zM476.667 43.146V38.56l3.527 7.055z"/><path fill="none" stroke="#000" stroke-width=".5" d="M310 111.852V25.926M313.528 104.796L310 111.852l-3.528-7.056 3.528 2.47 3.528-2.47M313.528 32.981L310 30.512l-3.528 2.47L310 25.925l3.528 7.055"/><text x="302.25" y="58.148" font-size="10" text-anchor="end" dy="5" font-family="Open Sans">Peak-to-peak</text><path fill="none" stroke="#000" stroke-width=".5" d="M393.333 68.889V25.926M396.861 61.833l-3.528 7.056-3.527-7.056 3.527 2.47 3.528-2.47M396.861 32.981l-3.528-2.469-3.527 2.47 3.527-7.056 3.528 7.055"/><text x="383.5" y="58.148" font-size="10" text-anchor="end" dy="5" font-family="Open Sans">Peak</text><path fill="none" stroke="#000" stroke-width=".5" d="M476.667 68.889V38.56M480.194 61.833l-3.527 7.056-3.528-7.056 3.528 2.47 3.527-2.47M480.194 45.615l-3.527-2.469-3.528 2.47 3.528-7.056 3.527 7.055"/><text x="464.75" y="58.148" font-size="10" text-anchor="end" dy="5" font-family="Open Sans">RMS</text></g></svg>