<?xml-stylesheet type="text/css" href="https://fonts.googleapis.com/css?family=Open+Sans:300italic,400italic,600italic,700italic,400,600,700,300&amp;subset=latin,cyrillic-ext,latin-ext,cyrillic" ?><svg xmlns="http://www.w3.org/2000/svg" viewBox="0 0 600 160"><path fill="#fff" d="M0 0h600v160H0z"/><path fill="#fefefe" shape-rendering="crispEdges" d="M0 160h600V0H0z"/><clipPath id="a"><path d="M0 160h600V0H0z"/></clipPath><g clip-path="url(#a)"><path fill="#fff" shape-rendering="crispEdges" d="M60 133.333h500L60 4.444z"/><path fill="#fff" shape-rendering="crispEdges" d="M560 133.333V4.444H60z"/><path fill="none" stroke="#262626" stroke-width=".5" d="M60 133.333h5M560 133.333h-5M60 111.852h5M560 111.852h-5M60 90.37h5M560 90.37h-5M60 68.889h5M560 68.889h-5M60 47.407h5M560 47.407h-5M60 25.926h5M560 25.926h-5M60 4.444h5M560 4.444h-5"/><text fill="#262626" x="55" y="133.333" font-size="10" text-anchor="end" dy="5" font-family="Open Sans">-1.5</text><text fill="#262626" x="55" y="111.852" font-size="10" text-anchor="end" dy="5" font-family="Open Sans">-1</text><text fill="#262626" x="55" y="90.37" font-size="10" text-anchor="end" dy="5" font-family="Open Sans">-0.5</text><text fill="#262626" x="55" y="68.889" font-size="10" text-anchor="end" dy="5" font-family="Open Sans">0</text><text fill="#262626" x="55" y="47.407" font-size="10" text-anchor="end" dy="5" font-family="Open Sans">0.5</text><text fill="#262626" x="55" y="25.926" font-size="10" text-anchor="end" dy="5" font-family="Open Sans">1</text><text fill="#262626" x="55" y="4.444" font-size="10" text-anchor="end" dy="5" font-family="Open Sans">1.5</text><path fill="none" stroke="#262626" stroke-width=".5" stroke-dasharray="16,0" d="M60 133.333h500M60 4.444h500M60 133.333V4.444M560 133.333V4.444"/><path fill="none" stroke="#0071bc" stroke-width=".5" d="M60 68.889l2.232-3.611 2.232-3.586 2.232-3.534 2.233-3.459 2.232-3.358 2.232-3.234 2.232-3.087 2.232-2.918 2.232-2.728 2.232-2.52 2.233-2.293 2.232-2.05 2.232-1.792 2.232-1.523 2.232-1.241 2.232-.952 2.232-.655 2.233-.354 2.232-.051 2.232.253 2.232.555 2.232.854 2.232 1.146 2.232 1.43 2.233 1.703 2.232 1.966 2.232 2.214 2.232 2.446 2.232 2.66 2.232 2.858 2.232 3.032 2.233 3.188 2.232 3.32 2.232 3.427 2.232 3.512 2.232 3.572 2.232 3.605 2.232 3.614 2.233 3.597 2.232 3.554 2.232 3.487 2.232 3.394 2.232 3.278 2.232 3.139 2.232 2.976 2.233 2.794 2.232 2.591 2.232 2.371 2.232 2.132 2.232 1.88 2.232 1.614 2.232 1.336 2.233 1.049 2.232.755 2.232.455 2.232.152 2.232-.152 2.232-.455 2.232-.755 2.233-1.049 2.232-1.336 2.232-1.614 2.232-1.88 2.232-2.132 2.232-2.371 2.232-2.59 2.233-2.795 2.232-2.976 2.232-3.139 2.232-3.278 2.232-3.394 2.232-3.487 2.232-3.554 2.233-3.597 2.232-3.614 2.232-3.605 2.232-3.572 2.232-3.512 2.232-3.428 2.232-3.319 2.233-3.188 2.232-3.032 2.232-2.858 2.232-2.66 2.232-2.446 2.232-2.214 2.232-1.966 2.233-1.703 2.232-1.43 2.232-1.146 2.232-.854 2.232-.555 2.232-.253 2.232.05 2.233.355 2.232.655 2.232.952 2.232 1.241 2.232 1.523 2.232 1.792 2.232 2.05 2.233 2.293 2.232 2.52 2.232 2.728 2.232 2.918 2.232 3.087 2.232 3.234 2.232 3.358 2.233 3.459 2.232 3.534 2.232 3.586 2.232 3.61 2.232 3.612 2.232 3.585 2.232 3.535 2.233 3.459 2.232 3.358 2.232 3.234 2.232 3.087 2.232 2.918 2.232 2.728 2.232 2.52 2.233 2.293 2.232 2.05 2.232 1.792 2.232 1.522 2.232 1.242 2.232.952 2.232.655 2.233.354 2.232.051 2.232-.253 2.232-.556 2.232-.853 2.232-1.146 2.232-1.43 2.233-1.704 2.232-1.965 2.232-2.214 2.232-2.446 2.232-2.66 2.232-2.858 2.232-3.033 2.233-3.187 2.232-3.32 2.232-3.427 2.232-3.513 2.232-3.57 2.232-3.606 2.232-3.614 2.233-3.597 2.232-3.554 2.232-3.487 2.232-3.394 2.232-3.278 2.232-3.139 2.232-2.977 2.233-2.793 2.232-2.592 2.232-2.37 2.232-2.133 2.232-1.88 2.232-1.613 2.232-1.336 2.233-1.05 2.232-.754 2.232-.455 2.232-.152 2.232.152 2.232.455 2.232.755 2.233 1.049 2.232 1.336 2.232 1.614 2.232 1.88 2.232 2.132 2.232 2.37 2.232 2.592 2.233 2.793 2.232 2.977 2.232 3.139 2.232 3.278 2.232 3.394 2.232 3.487 2.232 3.554 2.233 3.597 2.232 3.614 2.232 3.605 2.232 3.572 2.232 3.512 2.232 3.427 2.232 3.32 2.233 3.187 2.232 3.033 2.232 2.857 2.232 2.661 2.232 2.446 2.232 2.214 2.232 1.965 2.233 1.704 2.232 1.43 2.232 1.146 2.232.853 2.232.556 2.232.253 2.232-.051 2.233-.354 2.232-.655 2.232-.952 2.232-1.242 2.232-1.522 2.232-1.792 2.232-2.05 2.233-2.293 2.232-2.52 2.232-2.728 2.232-2.918 2.232-3.087 2.232-3.234 2.232-3.358 2.233-3.459 2.232-3.535 2.232-3.585L560 68.889"/><path fill="none" stroke="#000" stroke-width=".5" d="M60 68.889h500"/></g></svg>