<?xml-stylesheet type="text/css" href="https://fonts.googleapis.com/css?family=Open+Sans:300italic,400italic,600italic,700italic,400,600,700,300&amp;subset=latin,cyrillic-ext,latin-ext,cyrillic" ?><svg viewBox="0 0 460 180" xmlns="http://www.w3.org/2000/svg" xmlns:xlink="http://www.w3.org/1999/xlink"><defs><style>*{stroke-linecap:butt;stroke-linejoin:round}</style></defs><g id="figure_1"><path d="M0 180h460.8V0H0z" fill="#fefefe" id="patch_1"/><g id="axes_1"><path d="M48.953 155.198H446.5V14.6H48.953z" fill="#fff" id="patch_2"/><path clip-path="url(#pf5b6372b58)" d="M48.953 84.899H446.5" fill="none" stroke="gray" stroke-linecap="square" stroke-width="1.5" id="line2d_1"/><g id="matplotlib.axis_1"><text x="247.727" y="166.797" font-family="Open Sans" font-size="10" font-weight="400" text-anchor="middle" id="text_1">Time</text></g><g id="matplotlib.axis_2"><g id="ytick_1"><g id="line2d_2"><defs><path d="M0 0h-3.5" id="mfaf50d8684" stroke="#000" stroke-width=".8"/></defs><use x="48.953" xlink:href="#mfaf50d8684" y="155.198" stroke="#000" stroke-width=".8"/></g><text x="41.953" y="158.998" font-family="Open Sans" font-size="10" font-weight="400" text-anchor="end" id="text_2">−10</text></g><g id="ytick_2"><use x="48.953" xlink:href="#mfaf50d8684" y="120.049" stroke="#000" stroke-width=".8" id="line2d_3"/><text x="41.953" y="123.848" font-family="Open Sans" font-size="10" font-weight="400" text-anchor="end" id="text_3">−5</text></g><g id="ytick_3"><use x="48.953" xlink:href="#mfaf50d8684" y="84.899" stroke="#000" stroke-width=".8" id="line2d_4"/><text x="41.953" y="88.698" font-family="Open Sans" font-size="10" font-weight="400" text-anchor="end" id="text_4">0</text></g><g id="ytick_4"><use x="48.953" xlink:href="#mfaf50d8684" y="49.749" stroke="#000" stroke-width=".8" id="line2d_5"/><text x="41.953" y="53.548" font-family="Open Sans" font-size="10" font-weight="400" text-anchor="end" id="text_5">5</text></g><g id="ytick_5"><use x="48.953" xlink:href="#mfaf50d8684" y="14.599" stroke="#000" stroke-width=".8" id="line2d_6"/><text x="41.953" y="18.398" font-family="Open Sans" font-size="10" font-weight="400" text-anchor="end" id="text_6">10</text></g><text transform="rotate(-90 18.398 84.899)" x="18.398" y="84.899" font-family="Open Sans" font-size="10" font-weight="400" text-anchor="middle" id="text_7">Amplitude</text></g><path clip-path="url(#pf5b6372b58)" d="M48.953 84.899l9.56-10.441 4.78-4.924 3.984-3.84 3.983-3.54 3.187-2.574 3.187-2.32 3.187-2.04 3.186-1.74 3.187-1.423 2.39-.85 2.39-.659 2.39-.464 2.39-.266 2.39-.066 2.39.133 2.39.332 2.39.53 2.39.722 2.39.914 3.187 1.503 3.187 1.818 3.187 2.111 3.187 2.386 3.186 2.635 3.984 3.603 3.983 3.895 4.78 4.97 7.17 7.829L158.1 95.34l4.78 4.923 3.984 3.841 3.983 3.539 3.187 2.575 3.187 2.319 3.187 2.04 3.186 1.74 3.187 1.423 2.39.85 2.39.66 2.39.463 2.39.266 2.39.067 2.39-.133 2.39-.332 2.39-.53 2.39-.723 2.39-.913 3.187-1.504 3.187-1.817 3.187-2.112 3.187-2.385 3.186-2.635 3.984-3.603 3.983-3.895 4.78-4.971 7.17-7.828 11.154-12.207 4.78-4.924 3.984-3.84 3.983-3.54 3.187-2.574 3.187-2.32 3.186-2.04 3.187-1.74 3.187-1.423 2.39-.85 2.39-.659 2.39-.464 2.39-.266 2.39-.066 2.39.133 2.39.332 2.39.53 2.39.722 2.39.914 3.187 1.503 3.187 1.818 3.187 2.111 3.186 2.386 3.187 2.635 3.984 3.603 3.983 3.895 4.78 4.97 7.17 7.829 11.154 12.207 4.78 4.923 3.984 3.841 3.983 3.539 3.187 2.575 3.187 2.319 3.186 2.04 3.187 1.74 3.187 1.423 2.39.85 2.39.66 2.39.463 2.39.266 2.39.067 2.39-.133 2.39-.332 2.39-.53 2.39-.723 2.39-.913 3.187-1.504 3.187-1.817 3.187-2.112 3.186-2.385 3.187-2.635 3.984-3.603 3.983-3.895 4.78-4.971 7.17-7.828.797-.883" fill="none" stroke="#1f77b4" stroke-linecap="square" stroke-width="1.5" id="line2d_7"/><path clip-path="url(#pf5b6372b58)" d="M48.953 66.634l.797-.626.796-.551 1.594-.871 1.593-.55 1.594-.222 1.593.11 1.593.442 1.594.766 1.593 1.077 1.593 1.372 1.594 1.645 1.593 1.892 2.39 3.236 2.39 3.61 3.984 6.493 4.78 7.793 2.39 3.574 2.39 3.187 1.593 1.853 1.594 1.601 1.593 1.324 1.594 1.027 1.593.712 1.593.387 1.594.055 1.593-.277 1.593-.604 1.594-.924 1.593-1.227 1.594-1.511 1.593-1.772 2.39-3.085 2.39-3.499 3.187-5.091 7.17-11.66 2.39-3.457 2.39-3.032 1.593-1.73 1.594-1.467 1.593-1.177 1.594-.871 1.593-.55 1.593-.222 1.594.11 1.593.442 1.593.766 1.594 1.077 1.593 1.372 1.594 1.645 1.593 1.892 2.39 3.236 2.39 3.61 3.984 6.493 4.78 7.793 2.39 3.574 2.39 3.187 1.593 1.853 1.594 1.601 1.593 1.324 1.593 1.027 1.594.712 1.593.387 1.593.055 1.594-.277 1.593-.604 1.594-.924 1.593-1.227 1.593-1.511 1.594-1.772 2.39-3.085 2.39-3.499 3.186-5.091 7.17-11.66 2.39-3.457 2.39-3.032 1.594-1.73 1.594-1.467 1.593-1.177 1.593-.871 1.594-.55 1.593-.222 1.593.11 1.594.442 1.593.766 1.594 1.077 1.593 1.372 1.593 1.645 1.594 1.892 2.39 3.236 2.39 3.61 3.983 6.493 4.78 7.793 2.39 3.574 2.39 3.187 1.594 1.853 1.593 1.601 1.594 1.324 1.593 1.027 1.593.712 1.594.387 1.593.055 1.593-.277 1.594-.604 1.593-.924 1.594-1.227 1.593-1.511 1.593-1.772 2.39-3.085 2.39-3.499 3.187-5.091 7.17-11.66 2.39-3.457 2.39-3.032 1.594-1.73 1.593-1.467 1.594-1.177 1.593-.871 1.593-.55 1.594-.222 1.593.11 1.594.442 1.593.766 1.593 1.077 1.594 1.372 1.593 1.645 1.593 1.892 2.39 3.236 2.39 3.61 3.984 6.493 4.78 7.793 2.39 3.574 2.39 3.187 1.594 1.853 1.593 1.601 1.593 1.324 1.594 1.027 1.593.712 1.593.387 1.594.055 1.593-.277 1.594-.604 1.593-.924 1.593-1.227 1.594-1.511 1.593-1.772 2.39-3.085 2.39-3.499 3.187-5.091 7.17-11.66 2.39-3.457 2.39-3.032 1.594-1.73 1.593-1.467 1.593-1.177 1.594-.871 1.593-.55 1.593-.222 1.594.11 1.593.442 1.594.766 1.593 1.077 1.593 1.372 1.594 1.645 1.593 1.892 2.39 3.236 2.39 3.61 3.984 6.493 4.78 7.793 2.39 3.574 2.39 3.187 1.593 1.853 1.594 1.601 1.593 1.324 1.593 1.027 1.594.712 1.593.387 1.594.055 1.593-.277 1.593-.604 1.594-.924 1.593-1.227 1.593-1.511 1.594-1.772 2.39-3.085 2.39-3.499 3.187-5.091 7.17-11.66 2.39-3.457 2.39-3.032 1.593-1.73.797-.768" fill="none" stroke="#ff7f0e" stroke-linecap="square" stroke-width="1.5" id="line2d_8"/><path clip-path="url(#pf5b6372b58)" d="M48.953 66.634l2.39-4.3 1.594-2.47 1.593-2.133 1.593-1.787 1.594-1.434 1.593-1.082 1.593-.735 1.594-.399 1.593-.077 1.594.224 1.593.501 1.593.751 1.594.97 2.39 1.79 2.39 2.08 8.763 8.047 2.39 1.767 1.594.972 1.593.778 1.594.566L92.77 71l1.593.1 1.594-.145 1.593-.387 1.593-.627 1.594-.857 1.593-1.072 2.39-1.969 2.39-2.327 3.187-3.487 7.17-8.044 2.39-2.276 1.594-1.294 1.593-1.072 1.593-.819 1.594-.535 1.593-.226 1.594.105 1.593.453 1.593.814 1.594 1.182 1.593 1.553 1.593 1.92 1.594 2.277 1.593 2.623 1.594 2.949 2.39 4.98 2.39 5.562 3.186 8.11 4.78 12.985 4.78 12.887 3.187 7.936 2.39 5.37 2.39 4.734 1.594 2.754 1.593 2.402 1.594 2.03 1.593 1.643 1.593 1.249 1.594.85 1.593.45 1.594.061 1.593-.318 1.593-.68 1.594-1.02 1.593-1.334 1.593-1.618 1.594-1.869 2.39-3.193 3.187-4.781 8.763-13.716 2.39-3.28 2.39-2.88 1.594-1.656 1.593-1.424 1.593-1.179 1.594-.926 1.593-.67 1.593-.415 1.594-.168 1.593.067 1.594.286 1.593.484 2.39 1.043 2.39 1.336 3.984 2.567 3.983 2.497 2.39 1.222 1.593.626 1.594.435 1.593.216 1.594-.031 1.593-.3 1.593-.59 1.594-.89 1.593-1.202 1.593-1.518 1.594-1.832 1.593-2.141 1.594-2.44 2.39-4.178 2.39-4.735 2.39-5.194 3.186-7.436L278.4 50.11l2.39-5.123 2.39-4.605 1.594-2.72 1.593-2.402 1.593-2.054 1.594-1.681 1.593-1.289 1.593-.882 1.594-.465 1.593-.044 1.594.375 1.593.788 1.593 1.188 1.594 1.571 1.593 1.933 1.593 2.267 1.594 2.57 2.39 4.349 2.39 4.825 3.187 6.93 7.966 17.66 2.39 4.82 2.39 4.383 2.39 3.853 1.594 2.238 1.593 1.956 1.594 1.664 1.593 1.365 1.594 1.069 1.593.776 1.593.495 1.594.227 1.593-.019 1.593-.243 1.594-.44 2.39-.962 2.39-1.222 7.967-4.375 2.39-.932 1.593-.42 1.594-.227 1.593-.011 1.593.225 1.594.476 1.593.737 1.593 1.004 1.594 1.27 1.593 1.534 1.594 1.786 2.39 3.12 2.39 3.583 2.39 3.96 3.983 7.126 5.577 10.068 2.39 3.958 2.39 3.542 1.594 2.066 1.593 1.788 1.593 1.478 1.594 1.14 1.593.78 1.593.396h1.594l1.593-.405 1.594-.815 1.593-1.223 1.593-1.625 1.594-2.015 1.593-2.387 1.593-2.737 2.39-4.702 2.39-5.319 3.187-7.831 4.78-12.64 4.78-12.622 3.187-7.819 2.39-5.326.797-1.65" fill="none" stroke="#2ca02c" stroke-linecap="square" stroke-width="1.5" id="line2d_9"/><path d="M48.953 155.198V14.6" fill="none" stroke="#000" stroke-linecap="square" stroke-width=".8" id="patch_3"/><path d="M446.5 155.198V14.6" fill="none" stroke="#000" stroke-linecap="square" stroke-width=".8" id="patch_4"/><path d="M48.953 155.198H446.5" fill="none" stroke="#000" stroke-linecap="square" stroke-width=".8" id="patch_5"/><path d="M48.953 14.6H446.5" fill="none" stroke="#000" stroke-linecap="square" stroke-width=".8" id="patch_6"/><g id="legend_1"><path d="M373.748 67.604H439.5q2 0 2-2V21.599q0-2-2-2h-65.752q-2 0-2 2v44.005q0 2 2 2z" fill="#fff" opacity=".8" stroke="#ccc" id="patch_7"/><path d="M375.748 27.698h20" fill="none" stroke="#1f77b4" stroke-linecap="square" stroke-width="1.5" id="line2d_10"/><text x="403.748" y="31.198" font-family="Open Sans" font-size="10" font-weight="400" id="text_8">Wave 1</text><path d="M375.748 42.7h20" fill="none" stroke="#ff7f0e" stroke-linecap="square" stroke-width="1.5" id="line2d_12"/><text x="403.748" y="46.199" font-family="Open Sans" font-size="10" font-weight="400" id="text_9">Wave 2</text><path d="M375.748 57.7h20" fill="none" stroke="#2ca02c" stroke-linecap="square" stroke-width="1.5" id="line2d_14"/><text x="403.748" y="61.201" font-family="Open Sans" font-size="10" font-weight="400" id="text_10">Sum</text></g></g></g><defs><clipPath id="pf5b6372b58"><path d="M48.953 14.599H446.5v140.599H48.953z"/></clipPath></defs></svg>