<?xml-stylesheet type="text/css" href="https://fonts.googleapis.com/css?family=Open+Sans:300italic,400italic,600italic,700italic,400,600,700,300&amp;subset=latin,cyrillic-ext,latin-ext,cyrillic" ?><svg viewBox="0 0 460 180" xmlns="http://www.w3.org/2000/svg" xmlns:xlink="http://www.w3.org/1999/xlink"><defs><style>*{stroke-linecap:butt;stroke-linejoin:round}</style></defs><g id="figure_1"><path d="M0 180h460.8V0H0z" fill="#fefefe" id="patch_1"/><g id="axes_1"><path d="M24.802 138.197H446.5V14.3H24.802z" fill="#fff" id="patch_2"/><path clip-path="url(#p7394f5e223)" d="M24.802 76.248H446.5" fill="none" stroke="gray" stroke-linecap="square" stroke-width="1.5" id="line2d_1"/><g id="matplotlib.axis_1"><g id="xtick_1"><g id="line2d_2"><defs><path d="M0 0v3.5" id="mc1b6aceab8" stroke="#000" stroke-width=".8"/></defs><use x="24.802" xlink:href="#mc1b6aceab8" y="138.197" stroke="#000" stroke-width=".8"/></g><text x="24.802" y="152.795" font-family="Open Sans" font-size="10" font-weight="400" text-anchor="middle" id="text_1">0.00</text></g><g id="xtick_2"><use x="77.779" xlink:href="#mc1b6aceab8" y="138.197" stroke="#000" stroke-width=".8" id="line2d_3"/><text x="77.779" y="152.795" font-family="Open Sans" font-size="10" font-weight="400" text-anchor="middle" id="text_2">0.25</text></g><g id="xtick_3"><use x="130.756" xlink:href="#mc1b6aceab8" y="138.197" stroke="#000" stroke-width=".8" id="line2d_4"/><text x="130.756" y="152.795" font-family="Open Sans" font-size="10" font-weight="400" text-anchor="middle" id="text_3">0.50</text></g><g id="xtick_4"><use x="183.733" xlink:href="#mc1b6aceab8" y="138.197" stroke="#000" stroke-width=".8" id="line2d_5"/><text x="183.733" y="152.795" font-family="Open Sans" font-size="10" font-weight="400" text-anchor="middle" id="text_4">0.75</text></g><g id="xtick_5"><use x="236.71" xlink:href="#mc1b6aceab8" y="138.197" stroke="#000" stroke-width=".8" id="line2d_6"/><text x="236.71" y="152.795" font-family="Open Sans" font-size="10" font-weight="400" text-anchor="middle" id="text_5">1.00</text></g><g id="xtick_6"><use x="289.688" xlink:href="#mc1b6aceab8" y="138.197" stroke="#000" stroke-width=".8" id="line2d_7"/><text x="289.688" y="152.795" font-family="Open Sans" font-size="10" font-weight="400" text-anchor="middle" id="text_6">1.25</text></g><g id="xtick_7"><use x="342.665" xlink:href="#mc1b6aceab8" y="138.197" stroke="#000" stroke-width=".8" id="line2d_8"/><text x="342.665" y="152.795" font-family="Open Sans" font-size="10" font-weight="400" text-anchor="middle" id="text_7">1.50</text></g><g id="xtick_8"><use x="395.642" xlink:href="#mc1b6aceab8" y="138.197" stroke="#000" stroke-width=".8" id="line2d_9"/><text x="395.642" y="152.795" font-family="Open Sans" font-size="10" font-weight="400" text-anchor="middle" id="text_8">1.75</text></g><text x="235.651" y="166.797" font-family="Open Sans" font-size="10" font-weight="400" text-anchor="middle" id="text_9">Time (milliseconds)</text></g><g id="matplotlib.axis_2"><text transform="rotate(-90 18.398 76.248)" x="18.398" y="76.248" font-family="Open Sans" font-size="10" font-weight="400" text-anchor="middle" id="text_10">Amplitude</text></g><path clip-path="url(#p7394f5e223)" d="M24.802 76.248l8.476-14.005 4.238-6.726 4.238-6.4 4.238-5.97 4.239-5.45 4.238-4.841 2.119-2.169 2.119-1.988 2.12-1.801 2.118-1.606 2.12-1.406 2.118-1.198 2.12-.987 2.118-.772 2.12-.553 2.119-.333 2.119-.111 2.119.11 2.119.334 2.119.553 2.12.772 2.118.987 2.12 1.198 2.118 1.406 2.12 1.606 2.119 1.8 2.119 1.99 2.119 2.168 4.238 4.841 4.238 5.45 4.238 5.97 4.238 6.4 6.358 10.179L143.47 96.98l4.239 6.4 4.238 5.97 4.238 5.45 4.238 4.841 2.12 2.169 2.118 1.988 2.12 1.801 2.119 1.606 2.119 1.405 2.119 1.199 2.119.987 2.119.772 2.119.553 2.119.333 2.12.111 2.118-.11 2.12-.334 2.118-.553 2.12-.772 2.119-.987 2.119-1.199 2.119-1.405 2.119-1.606 2.119-1.8 2.119-1.99 2.12-2.168 4.237-4.841 4.238-5.45 4.239-5.97 4.238-6.4 6.357-10.179 19.072-31.284 4.238-6.4 4.238-5.97 4.238-5.45 4.239-4.841 2.119-2.169 2.119-1.988 2.119-1.801 2.119-1.606 2.119-1.406 2.12-1.198 2.118-.987 2.12-.772 2.118-.553 2.12-.333 2.119-.111 2.119.11 2.119.334 2.119.553 2.119.772 2.119.987 2.119 1.198 2.12 1.406 2.118 1.606 2.12 1.8 2.118 1.99 2.12 2.168 4.238 4.841 4.238 5.45 4.238 5.97 4.238 6.4 6.357 10.179L355.38 96.98l4.238 6.4 4.239 5.97 4.238 5.45 4.238 4.841 2.119 2.169 2.12 1.988 2.118 1.801 2.12 1.606 2.118 1.405 2.12 1.199 2.119.987 2.119.772 2.119.553 2.119.333 2.119.111 2.119-.11 2.12-.334 2.118-.553 2.12-.772 2.118-.987 2.12-1.199 2.119-1.405 2.119-1.606 2.119-1.8 2.119-1.99 2.119-2.168 4.238-4.841 4.238-5.45 4.238-5.97 4.239-6.4 6.357-10.179 4.238-7.016" fill="none" stroke="#1f77b4" stroke-linecap="square" stroke-width="1.5" id="line2d_10"/><path clip-path="url(#p7394f5e223)" d="M24.802 19.932l2.119.11 2.119.334 2.119.553 2.119.772 2.119.987 2.12 1.198 2.118 1.406 2.12 1.606 2.118 1.8 2.12 1.99 2.119 2.168 4.238 4.841 4.238 5.45 4.238 5.97 4.238 6.4 6.357 10.179L90.493 96.98l4.238 6.4 4.239 5.97 4.238 5.45 4.238 4.841 2.12 2.169 2.118 1.988 2.12 1.801 2.118 1.606 2.12 1.405 2.119 1.199 2.119.987 2.119.772 2.119.553 2.119.333 2.119.111 2.119-.11 2.12-.334 2.118-.553 2.12-.772 2.118-.987 2.12-1.199 2.119-1.405 2.119-1.606 2.119-1.8 2.119-1.99 2.119-2.168 4.238-4.841 4.238-5.45 4.238-5.97 4.239-6.4 6.357-10.179 19.072-31.284 4.238-6.4 4.238-5.97 4.238-5.45 4.238-4.841 2.12-2.169 2.119-1.988 2.119-1.801 2.119-1.606 2.119-1.406 2.119-1.198 2.119-.987 2.12-.772 2.118-.553 2.12-.333 2.118-.111 2.12.11 2.118.334 2.12.553 2.119.772 2.119.987 2.119 1.198 2.119 1.406 2.119 1.606 2.12 1.8 2.118 1.99 2.12 2.168 4.237 4.841 4.239 5.45 4.238 5.97 4.238 6.4 6.357 10.179 19.072 31.284 4.238 6.4 4.238 5.97 4.239 5.45 4.238 4.841 2.119 2.169 2.119 1.988 2.119 1.801 2.12 1.606 2.118 1.405 2.12 1.199 2.118.987 2.12.772 2.119.553 2.119.333 2.119.111 2.119-.11 2.119-.334 2.119-.553 2.12-.772 2.118-.987 2.12-1.199 2.118-1.405 2.12-1.606 2.118-1.8 2.12-1.99 2.119-2.168 4.238-4.841 4.238-5.45 4.238-5.97 4.238-6.4 6.358-10.179 19.071-31.284 4.239-6.4 4.238-5.97 4.238-5.45 4.238-4.841 2.12-2.169 2.118-1.988 2.12-1.801 2.118-1.606 2.12-1.406 2.119-1.198 2.119-.987 2.119-.772 2.119-.553 2.119-.333" fill="none" stroke="#ff7f0e" stroke-dasharray="9.6,2.4,1.5,2.4" stroke-width="1.5" id="line2d_11"/><path clip-path="url(#p7394f5e223)" d="M24.802 76.248l8.476 14.006 4.238 6.726 4.238 6.4 4.238 5.97 4.239 5.45 4.238 4.841 2.119 2.169 2.119 1.988 2.12 1.801 2.118 1.606 2.12 1.405 2.118 1.199 2.12.987 2.118.772 2.12.553 2.119.333 2.119.111 2.119-.11 2.119-.334 2.119-.553 2.12-.772 2.118-.987 2.12-1.199 2.118-1.405 2.12-1.606 2.119-1.8 2.119-1.99 2.119-2.168 4.238-4.841 4.238-5.45 4.238-5.97 4.238-6.4 6.358-10.179 19.071-31.284 4.239-6.4 4.238-5.97 4.238-5.45 4.238-4.841 2.12-2.169 2.118-1.988 2.12-1.801 2.119-1.606 2.119-1.406 2.119-1.198 2.119-.987 2.119-.772 2.119-.553 2.119-.333 2.12-.111 2.118.11 2.12.334 2.118.553 2.12.772 2.119.987 2.119 1.198 2.119 1.406 2.119 1.606 2.119 1.8 2.119 1.99 2.12 2.168 4.237 4.841 4.238 5.45 4.239 5.97 4.238 6.4 6.357 10.179 19.072 31.284 4.238 6.4 4.238 5.97 4.238 5.45 4.239 4.841 2.119 2.169 2.119 1.988 2.119 1.801 2.119 1.606 2.119 1.405 2.12 1.199 2.118.987 2.12.772 2.118.553 2.12.333 2.119.111 2.119-.11 2.119-.334 2.119-.553 2.119-.772 2.119-.987 2.119-1.199 2.12-1.405 2.118-1.606 2.12-1.8 2.118-1.99 2.12-2.168 4.238-4.841 4.238-5.45 4.238-5.97 4.238-6.4 6.357-10.179 19.072-31.284 4.238-6.4 4.239-5.97 4.238-5.45 4.238-4.841 2.119-2.169 2.12-1.988 2.118-1.801 2.12-1.606 2.118-1.406 2.12-1.198 2.119-.987 2.119-.772 2.119-.553 2.119-.333 2.119-.111 2.119.11 2.12.334 2.118.553 2.12.772 2.118.987 2.12 1.198 2.119 1.406 2.119 1.606 2.119 1.8 2.119 1.99 2.119 2.168 4.238 4.841 4.238 5.45 4.238 5.97 4.239 6.4 6.357 10.179 4.238 7.016" fill="none" stroke="#2ca02c" stroke-dasharray="5.55,2.4" stroke-width="1.5" id="line2d_12"/><path clip-path="url(#p7394f5e223)" d="M24.802 132.565l2.119-.11 2.119-.334 2.119-.553 2.119-.772 2.119-.987 2.12-1.199 2.118-1.405 2.12-1.606 2.118-1.8 2.12-1.99 2.119-2.168 4.238-4.841 4.238-5.45 4.238-5.97 4.238-6.4 6.357-10.179 19.072-31.284 4.238-6.4 4.239-5.97 4.238-5.45 4.238-4.841 2.12-2.169 2.118-1.988 2.12-1.801 2.118-1.606 2.12-1.406 2.119-1.198 2.119-.987 2.119-.772 2.119-.553 2.119-.333 2.119-.111 2.119.11 2.12.334 2.118.553 2.12.772 2.118.987 2.12 1.198 2.119 1.406 2.119 1.606 2.119 1.8 2.119 1.99 2.119 2.168 4.238 4.841 4.238 5.45 4.238 5.97 4.239 6.4 6.357 10.179 19.072 31.284 4.238 6.4 4.238 5.97 4.238 5.45 4.238 4.841 2.12 2.169 2.119 1.988 2.119 1.801 2.119 1.606 2.119 1.405 2.119 1.199 2.119.987 2.12.772 2.118.553 2.12.333 2.118.111 2.12-.11 2.118-.334 2.12-.553 2.119-.772 2.119-.987 2.119-1.199 2.119-1.405 2.119-1.606 2.12-1.8 2.118-1.99 2.12-2.168 4.237-4.841 4.239-5.45 4.238-5.97 4.238-6.4 6.357-10.179 19.072-31.284 4.238-6.4 4.238-5.97 4.239-5.45 4.238-4.841 2.119-2.169 2.119-1.988 2.119-1.801 2.12-1.606 2.118-1.406 2.12-1.198 2.118-.987 2.12-.772 2.119-.553 2.119-.333 2.119-.111 2.119.11 2.119.334 2.119.553 2.12.772 2.118.987 2.12 1.198 2.118 1.406 2.12 1.606 2.118 1.8 2.12 1.99 2.119 2.168 4.238 4.841 4.238 5.45 4.238 5.97 4.238 6.4 6.358 10.179 19.071 31.284 4.239 6.4 4.238 5.97 4.238 5.45 4.238 4.841 2.12 2.169 2.118 1.988 2.12 1.801 2.118 1.606 2.12 1.405 2.119 1.199 2.119.987 2.119.772 2.119.553 2.119.333" fill="none" stroke="#d62728" stroke-dasharray="1.5,2.475" stroke-width="1.5" id="line2d_13"/><path d="M24.802 138.197V14.3" fill="none" stroke="#000" stroke-linecap="square" stroke-width=".8" id="patch_3"/><path d="M446.5 138.197V14.3" fill="none" stroke="#000" stroke-linecap="square" stroke-width=".8" id="patch_4"/><path d="M24.802 138.197H446.5" fill="none" stroke="#000" stroke-linecap="square" stroke-width=".8" id="patch_5"/><path d="M24.802 14.3H446.5" fill="none" stroke="#000" stroke-linecap="square" stroke-width=".8" id="patch_6"/><g id="legend_1"><path d="M386.066 82.306H439.5q2 0 2-2V21.3q0-2-2-2h-53.434q-2 0-2 2v59.006q0 2 2 2z" fill="#fff" opacity=".8" stroke="#ccc" id="patch_7"/><path d="M388.066 27.398h20" fill="none" stroke="#1f77b4" stroke-linecap="square" stroke-width="1.5" id="line2d_14"/><text x="416.066" y="30.898" font-family="Open Sans" font-size="10" font-weight="400" id="text_11">0째</text><path d="M388.066 42.4h20" fill="none" stroke="#ff7f0e" stroke-dasharray="9.6,2.4,1.5,2.4" stroke-width="1.5" id="line2d_16"/><text x="416.066" y="45.9" font-family="Open Sans" font-size="10" font-weight="400" id="text_12">90째</text><path d="M388.066 57.402h20" fill="none" stroke="#2ca02c" stroke-dasharray="5.55,2.4" stroke-width="1.5" id="line2d_18"/><text x="416.066" y="60.902" font-family="Open Sans" font-size="10" font-weight="400" id="text_13">180째</text><path d="M388.066 72.403h20" fill="none" stroke="#d62728" stroke-dasharray="1.5,2.475" stroke-width="1.5" id="line2d_20"/><text x="416.066" y="75.903" font-family="Open Sans" font-size="10" font-weight="400" id="text_14">270째</text></g></g></g><defs><clipPath id="p7394f5e223"><path d="M24.802 14.3H446.5v123.897H24.802z"/></clipPath></defs></svg>