<?xml-stylesheet type="text/css" href="https://fonts.googleapis.com/css?family=Open+Sans:300italic,400italic,600italic,700italic,400,600,700,300&amp;subset=latin,cyrillic-ext,latin-ext,cyrillic" ?><svg viewBox="0 0 460 180" xmlns="http://www.w3.org/2000/svg" xmlns:xlink="http://www.w3.org/1999/xlink"><defs><style>*{stroke-linecap:butt;stroke-linejoin:round}</style></defs><g id="figure_1"><path d="M0 180h460.8V0H0z" fill="#fefefe" id="patch_1"/><g id="axes_1"><path d="M24.802 138.197H446.5V14.3H24.802z" fill="#fff" id="patch_2"/><path clip-path="url(#p5f38c91b3c)" d="M24.802 76.248H446.5" fill="none" stroke="gray" stroke-linecap="square" stroke-width="1.5" id="line2d_1"/><g id="matplotlib.axis_1"><g id="xtick_1"><g id="line2d_2"><defs><path d="M0 0v3.5" id="m9083e12e87" stroke="#000" stroke-width=".8"/></defs><use x="24.802" xlink:href="#m9083e12e87" y="138.197" stroke="#000" stroke-width=".8"/></g><text x="24.802" y="152.795" font-family="Open Sans" font-size="10" font-weight="400" text-anchor="middle" id="text_1">0.0</text></g><g id="xtick_2"><use x="95.32" xlink:href="#m9083e12e87" y="138.197" stroke="#000" stroke-width=".8" id="line2d_3"/><text x="95.32" y="152.795" font-family="Open Sans" font-size="10" font-weight="400" text-anchor="middle" id="text_2">0.5</text></g><g id="xtick_3"><use x="165.838" xlink:href="#m9083e12e87" y="138.197" stroke="#000" stroke-width=".8" id="line2d_4"/><text x="165.838" y="152.795" font-family="Open Sans" font-size="10" font-weight="400" text-anchor="middle" id="text_3">1.0</text></g><g id="xtick_4"><use x="236.356" xlink:href="#m9083e12e87" y="138.197" stroke="#000" stroke-width=".8" id="line2d_5"/><text x="236.356" y="152.795" font-family="Open Sans" font-size="10" font-weight="400" text-anchor="middle" id="text_4">1.5</text></g><g id="xtick_5"><use x="306.874" xlink:href="#m9083e12e87" y="138.197" stroke="#000" stroke-width=".8" id="line2d_6"/><text x="306.874" y="152.795" font-family="Open Sans" font-size="10" font-weight="400" text-anchor="middle" id="text_5">2.0</text></g><g id="xtick_6"><use x="377.392" xlink:href="#m9083e12e87" y="138.197" stroke="#000" stroke-width=".8" id="line2d_7"/><text x="377.392" y="152.795" font-family="Open Sans" font-size="10" font-weight="400" text-anchor="middle" id="text_6">2.5</text></g><text x="235.651" y="166.797" font-family="Open Sans" font-size="10" font-weight="400" text-anchor="middle" id="text_7">Time (milliseconds)</text></g><g id="matplotlib.axis_2"><text transform="rotate(-90 18.398 76.248)" x="18.398" y="76.248" font-family="Open Sans" font-size="10" font-weight="400" text-anchor="middle" id="text_8">Amplitude</text></g><path clip-path="url(#p5f38c91b3c)" d="M24.802 76.248l7.051-17.402 4.231-9.728 2.821-5.972 2.82-5.449 2.822-4.841 2.82-4.157 1.41-1.801 1.411-1.606 1.41-1.406 1.41-1.198 1.411-.987 1.41-.772 1.41-.553 1.411-.333 1.41-.111 1.411.11 1.41.334 1.41.553 1.411.772 1.41.987 1.41 1.198 1.411 1.406 1.41 1.606 1.41 1.8 2.822 4.158 2.82 4.841 2.821 5.45 2.82 5.97 4.232 9.729 5.641 13.866 8.463 20.94 4.23 9.727 2.821 5.972 2.821 5.449 2.82 4.841 2.821 4.157 1.41 1.801 1.411 1.606 1.41 1.405 1.41 1.199 1.411.987 1.41.772 1.411.553 1.41.333 1.41.111 1.411-.11 1.41-.334 1.41-.553 1.411-.772 1.41-.987 1.41-1.199 1.411-1.405 1.41-1.606 1.411-1.8 2.82-4.158 2.821-4.841 2.821-5.45 2.82-5.97 4.232-9.729 5.641-13.866 8.463-20.94 4.23-9.727 2.821-5.972 2.821-5.449 2.82-4.841 2.822-4.157 1.41-1.801 1.41-1.606 1.41-1.406 1.411-1.198 1.41-.987 1.41-.772 1.411-.553 1.41-.333 1.41-.111 1.411.11 1.41.334 1.411.553 1.41.772 1.41.987 1.411 1.198 1.41 1.406 1.41 1.606 1.411 1.8 2.82 4.158 2.822 4.841 2.82 5.45 2.821 5.97 4.231 9.729 5.642 13.866 8.462 20.94 4.23 9.727 2.822 5.972 2.82 5.449 2.821 4.841 2.82 4.157 1.411 1.801 1.41 1.606 1.41 1.405 1.411 1.199 1.41.987 1.41.772 1.411.553 1.41.333 1.411.111 1.41-.11 1.41-.334 1.411-.553 1.41-.772 1.41-.987 1.411-1.199 1.41-1.405 1.41-1.606 1.411-1.8 2.821-4.158 2.82-4.841 2.821-5.45 2.821-5.97 4.231-9.729 5.642-13.866 8.462-20.94 4.231-9.727 2.82-5.972 2.821-5.449 2.821-4.841 2.82-4.157 1.411-1.801 1.41-1.606 1.411-1.406 1.41-1.198 1.41-.987 1.411-.772 1.41-.553 1.41-.333 1.411-.111 1.41.11 1.41.334 1.411.553 1.41.772 1.411.987 1.41 1.198 1.41 1.406 1.411 1.606 1.41 1.8 2.821 4.158 2.82 4.841 2.822 5.45 2.82 5.97 4.231 9.729 5.642 13.866 8.462 20.94 4.231 9.727 2.82 5.972 2.822 5.449 2.82 4.841 2.821 4.157 1.41 1.801 1.41 1.606 1.411 1.405 1.41 1.199 1.41.987 1.411.772 1.41.553 1.41.333 1.411.111 1.41-.11 1.411-.334 1.41-.553 1.41-.772 1.411-.987 1.41-1.199 1.41-1.405 1.411-1.606 1.41-1.8 2.821-4.158 2.821-4.841 2.82-5.45 2.821-5.97 4.232-9.729 5.641-13.866" fill="none" stroke="#1f77b4" stroke-linecap="square" stroke-width="1.5" id="line2d_8"/><path d="M24.802 138.197V14.3" fill="none" stroke="#000" stroke-linecap="square" stroke-width=".8" id="patch_3"/><path d="M446.5 138.197V14.3" fill="none" stroke="#000" stroke-linecap="square" stroke-width=".8" id="patch_4"/><path d="M24.802 138.197H446.5" fill="none" stroke="#000" stroke-linecap="square" stroke-width=".8" id="patch_5"/><path d="M24.802 14.3H446.5" fill="none" stroke="#000" stroke-linecap="square" stroke-width=".8" id="patch_6"/></g></g><defs><clipPath id="p5f38c91b3c"><path d="M24.802 14.3H446.5v123.897H24.802z"/></clipPath></defs></svg>