<?xml-stylesheet type="text/css" href="https://fonts.googleapis.com/css?family=Open+Sans:300italic,400italic,600italic,700italic,400,600,700,300&amp;subset=latin,cyrillic-ext,latin-ext,cyrillic" ?><svg viewBox="0 0 460.8 180" xmlns="http://www.w3.org/2000/svg" xmlns:xlink="http://www.w3.org/1999/xlink"><defs><style>*{stroke-linecap:butt;stroke-linejoin:round}</style></defs><g id="figure_1"><path d="M0 180h460.8V0H0z" fill="#fefefe" id="patch_1"/><g id="axes_1"><path d="M51.614 138.197H446.5V14.3H51.614z" fill="#fff" id="patch_2"/><path clip-path="url(#p6e2f9ee043)" d="M51.614 76.248H446.5" fill="none" stroke="gray" stroke-linecap="square" stroke-width="1.5" id="line2d_1"/><g id="matplotlib.axis_1"><g id="xtick_1"><g id="line2d_2"><defs><path d="M0 0v3.5" id="mc681602784" stroke="#000" stroke-width=".8"/></defs><use x="51.614" xlink:href="#mc681602784" y="138.197" stroke="#000" stroke-width=".8"/></g><text x="51.614" y="152.795" font-family="Open Sans" font-size="10" font-weight="400" text-anchor="middle" id="text_1">0.00</text></g><g id="xtick_2"><use x="101.223" xlink:href="#mc681602784" y="138.197" stroke="#000" stroke-width=".8" id="line2d_3"/><text x="101.223" y="152.795" font-family="Open Sans" font-size="10" font-weight="400" text-anchor="middle" id="text_2">0.25</text></g><g id="xtick_3"><use x="150.832" xlink:href="#mc681602784" y="138.197" stroke="#000" stroke-width=".8" id="line2d_4"/><text x="150.832" y="152.795" font-family="Open Sans" font-size="10" font-weight="400" text-anchor="middle" id="text_3">0.50</text></g><g id="xtick_4"><use x="200.44" xlink:href="#mc681602784" y="138.197" stroke="#000" stroke-width=".8" id="line2d_5"/><text x="200.44" y="152.795" font-family="Open Sans" font-size="10" font-weight="400" text-anchor="middle" id="text_4">0.75</text></g><g id="xtick_5"><use x="250.049" xlink:href="#mc681602784" y="138.197" stroke="#000" stroke-width=".8" id="line2d_6"/><text x="250.049" y="152.795" font-family="Open Sans" font-size="10" font-weight="400" text-anchor="middle" id="text_5">1.00</text></g><g id="xtick_6"><use x="299.658" xlink:href="#mc681602784" y="138.197" stroke="#000" stroke-width=".8" id="line2d_7"/><text x="299.658" y="152.795" font-family="Open Sans" font-size="10" font-weight="400" text-anchor="middle" id="text_6">1.25</text></g><g id="xtick_7"><use x="349.267" xlink:href="#mc681602784" y="138.197" stroke="#000" stroke-width=".8" id="line2d_8"/><text x="349.267" y="152.795" font-family="Open Sans" font-size="10" font-weight="400" text-anchor="middle" id="text_7">1.50</text></g><g id="xtick_8"><use x="398.876" xlink:href="#mc681602784" y="138.197" stroke="#000" stroke-width=".8" id="line2d_9"/><text x="398.876" y="152.795" font-family="Open Sans" font-size="10" font-weight="400" text-anchor="middle" id="text_8">1.75</text></g><text x="249.057" y="166.797" font-family="Open Sans" font-size="10" font-weight="400" text-anchor="middle" id="text_9">Time (milliseconds)</text></g><g id="matplotlib.axis_2"><g id="ytick_1"><g id="line2d_10"><defs><path d="M0 0h-3.5" id="m1f75b251e0" stroke="#000" stroke-width=".8"/></defs><use x="51.614" xlink:href="#m1f75b251e0" y="107.887" stroke="#000" stroke-width=".8"/></g><text x="44.614" y="111.686" font-family="Open Sans" font-size="10" font-weight="400" text-anchor="end" id="text_10">−0.2</text></g><g id="ytick_2"><use x="51.614" xlink:href="#m1f75b251e0" y="76.248" stroke="#000" stroke-width=".8" id="line2d_11"/><text x="44.614" y="80.048" font-family="Open Sans" font-size="10" font-weight="400" text-anchor="end" id="text_11">0.0</text></g><g id="ytick_3"><use x="51.614" xlink:href="#m1f75b251e0" y="44.61" stroke="#000" stroke-width=".8" id="line2d_12"/><text x="44.614" y="48.409" font-family="Open Sans" font-size="10" font-weight="400" text-anchor="end" id="text_12">0.2</text></g><text transform="rotate(-90 18.398 76.248)" x="18.398" y="76.248" font-family="Open Sans" font-size="10" font-weight="400" text-anchor="middle" id="text_13">Sound pressure (Pa)</text></g><path clip-path="url(#p6e2f9ee043)" d="M51.614 76.248l7.937-14.005 5.954-9.973 3.968-6.198 3.969-5.721 3.969-5.156 3.968-4.508 1.985-1.988 1.984-1.801 1.984-1.606 1.985-1.406 1.984-1.198 1.984-.987 1.985-.772 1.984-.553 1.984-.333 1.985-.111 1.984.11 1.985.334 1.984.553 1.984.772 1.985.987 1.984 1.198 1.984 1.406 1.985 1.606 1.984 1.8 1.984 1.99 1.985 2.168 3.968 4.841 3.97 5.45 3.968 5.97 3.969 6.4 5.953 10.179 17.859 31.284 3.968 6.4 3.97 5.97 3.968 5.45 3.969 4.841 1.984 2.169 1.984 1.988 1.985 1.801 1.984 1.606 1.984 1.405 1.985 1.199 1.984.987 1.984.772 1.985.553 1.984.333 1.984.111 1.985-.11 1.984-.334 1.984-.553 1.985-.772 1.984-.987 1.985-1.199 1.984-1.405 1.984-1.606 1.985-1.8 1.984-1.99 1.984-2.168 3.969-4.841 3.969-5.45 3.968-5.97 3.97-6.4 5.952-10.179 17.86-31.284 3.968-6.4 3.969-5.97 3.968-5.45 3.97-4.841 1.983-2.169L281.8 28.7l1.984-1.801 1.985-1.606 1.984-1.406 1.984-1.198 1.985-.987 1.984-.772 1.984-.553 1.985-.333 1.984-.111 1.984.11 1.985.334 1.984.553 1.984.772 1.985.987 1.984 1.198 1.984 1.406 1.985 1.606 1.984 1.8 1.985 1.99 1.984 2.168 3.969 4.841 3.968 5.45 3.969 5.97 3.969 6.4 5.953 10.179 17.859 31.284 3.969 6.4 3.968 5.97 3.969 5.45 3.969 4.841 1.984 2.169 1.984 1.988 1.985 1.801 1.984 1.606 1.984 1.405 1.985 1.199 1.984.987 1.985.772 1.984.553 1.984.333 1.985.111 1.984-.11 1.984-.334 1.985-.553 1.984-.772 1.984-.987 1.985-1.199 1.984-1.405 1.984-1.606 1.985-1.8 1.984-1.99 1.984-2.168 3.97-4.841 3.968-5.45 3.969-5.97 3.968-6.4 5.953-10.179 3.969-7.016" fill="none" stroke="#1f77b4" stroke-linecap="square" stroke-width="1.5" id="line2d_13"/><path d="M51.614 138.197V14.3" fill="none" stroke="#000" stroke-linecap="square" stroke-width=".8" id="patch_3"/><path d="M446.5 138.197V14.3" fill="none" stroke="#000" stroke-linecap="square" stroke-width=".8" id="patch_4"/><path d="M51.614 138.197H446.5" fill="none" stroke="#000" stroke-linecap="square" stroke-width=".8" id="patch_5"/><path d="M51.614 14.3H446.5" fill="none" stroke="#000" stroke-linecap="square" stroke-width=".8" id="patch_6"/></g></g><defs><clipPath id="p6e2f9ee043"><path d="M51.614 14.3H446.5v123.897H51.614z"/></clipPath></defs></svg>