<?xml-stylesheet type="text/css" href="https://fonts.googleapis.com/css?family=Open+Sans" ?><svg xmlns="http://www.w3.org/2000/svg" viewBox="0 0 600 160"><path fill="#fff" d="M0 0h600v160H0z"/><path fill="#fefefe" shape-rendering="crispEdges" d="M0 160h600V0H0z"/><clipPath id="a"><path d="M0 160h600V0H0z"/></clipPath><g clip-path="url(#a)"><path fill="#fff" shape-rendering="crispEdges" d="M60 133.333h500L60 4.444z"/><path fill="#fff" shape-rendering="crispEdges" d="M560 133.333V4.444H60z"/><path fill="none" stroke="#262626" stroke-width=".5" d="M60 133.333h5M560 133.333h-5M60 111.852h5M560 111.852h-5M60 90.37h5M560 90.37h-5M60 68.889h5M560 68.889h-5M60 47.407h5M560 47.407h-5M60 25.926h5M560 25.926h-5M60 4.444h5M560 4.444h-5"/><text fill="#262626" x="55" y="133.333" font-size="10" text-anchor="end" dy="5" font-family="Open Sans">-1.5</text><text fill="#262626" x="55" y="111.852" font-size="10" text-anchor="end" dy="5" font-family="Open Sans">-1</text><text fill="#262626" x="55" y="90.37" font-size="10" text-anchor="end" dy="5" font-family="Open Sans">-0.5</text><text fill="#262626" x="55" y="68.889" font-size="10" text-anchor="end" dy="5" font-family="Open Sans">0</text><text fill="#262626" x="55" y="47.407" font-size="10" text-anchor="end" dy="5" font-family="Open Sans">0.5</text><text fill="#262626" x="55" y="25.926" font-size="10" text-anchor="end" dy="5" font-family="Open Sans">1</text><text fill="#262626" x="55" y="4.444" font-size="10" text-anchor="end" dy="5" font-family="Open Sans">1.5</text><path fill="none" stroke="#262626" stroke-width=".5" stroke-dasharray="16,0" d="M60 133.333h500M60 4.444h500M60 133.333V4.444M560 133.333V4.444"/><path fill="none" stroke="#0071bc" stroke-width=".5" d="M60 68.889h.5l.167-.001h.5l.166-.001h.334l.166-.001h.334l.166-.001h.334l.166-.001h.334l.166-.001h.167l.167-.001h.166L64 68.88l.167-.001h.166l.167-.001.167-.001h.166l.167-.002h.167l.166-.001.167-.001.167-.001.166-.001.167-.001.167-.001.166-.002.167-.001.167-.001.166-.002.167-.002.167-.001.166-.002.167-.002.167-.002.166-.002.167-.002.167-.002.166-.003.167-.002.167-.003.166-.003.167-.003.167-.004.166-.003.167-.004.167-.004.166-.004.167-.005.167-.004.166-.005.167-.005.167-.006.166-.006.167-.006.167-.006.166-.007.167-.007.167-.008.166-.008.167-.008.167-.01.166-.009.167-.01.167-.01.166-.011.167-.012.167-.012.166-.013.167-.014.167-.014.166-.015.167-.016.167-.017.166-.017.167-.019.167-.02.166-.02.167-.021.167-.023.166-.023.167-.025.167-.026.166-.028.167-.028.167-.03.166-.032.167-.033.167-.035.166-.036.167-.038.167-.04.166-.04.167-.044.167-.046.166-.047.167-.05.167-.052.166-.054.167-.057.167-.059.166-.062.167-.064.167-.067.166-.07.167-.073.167-.076.166-.079.167-.082.167-.085.166-.09.167-.092.167-.097.166-.1.167-.104.167-.108.166-.112.167-.116.167-.12.166-.126.167-.13.167-.134.166-.14.167-.144.167-.149.166-.154.167-.16.167-.165.166-.17.167-.177.167-.182.166-.188.167-.194.167-.2.166-.205.167-.213.167-.218.166-.225.167-.232.167-.239.166-.245.167-.251.167-.26.166-.265.167-.273.167-.28.166-.286.167-.294.167-.302.166-.308.167-.316.167-.323.166-.33.167-.339.167-.345.166-.352.167-.36.167-.366.166-.374.167-.381.167-.388.166-.395.167-.402.167-.409.166-.415.167-.422.167-.429.166-.434.167-.44.167-.448.166-.452.167-.458.167-.464.166-.468.167-.473.167-.478.166-.483.167-.487.167-.49.166-.494.167-.498.167-.5.166-.503.167-.505.167-.508.166-.508.167-.51.167-.511.166-.511.167-.512.167-.51.166-.51.167-.51.167-.507.166-.505.167-.503.167-.5.166-.496.167-.492.167-.488.166-.483.167-.478.167-.473.166-.466.167-.46.167-.452.166-.444.167-.437.167-.428.166-.42.167-.409.167-.4.166-.39.167-.378.167-.368.166-.356.167-.344.167-.332.166-.32.167-.305.167-.293.166-.279.167-.265.167-.25.166-.236.167-.22.167-.206.166-.19.167-.174.167-.158.166-.142.167-.126.167-.109.166-.093.167-.076.167-.059.166-.042.167-.026.167-.008.166.008.167.026.167.042.166.06.167.075.167.093.166.11.167.125.167.142.166.158.167.174.167.19.166.206.167.22.167.236.166.25.167.265.167.279.166.293.167.306.167.319.166.332.167.344.167.356.166.368.167.379.167.39.166.4.167.409.167.419.166.428.167.437.167.444.166.453.167.46.167.465.166.472.167.479.167.483.166.488.167.492.167.497.166.5.167.502.167.505.166.508.167.509.167.51.166.51.167.512.167.511.166.51.167.51.167.51.166.507.167.505.167.503.166.5.167.498.167.494.166.49.167.487.167.483.166.478.167.473.167.468.166.464.167.458.167.452.166.447.167.44.167.435.166.429.167.422.167.415.166.409.167.402.167.395.166.388.167.38.167.375.166.367.167.36.167.351.166.345.167.338.167.33.166.324.167.316.167.308.166.301.167.295.167.287.166.28.167.272.167.266.166.259.167.251.167.245.166.239.167.231.167.226.166.218.167.213.167.206.166.2.167.193.167.188.166.182.167.176.167.17.166.166.167.16.167.154.166.15.167.144.167.139.166.134.167.13.167.125.166.12.167.117.167.112.166.108.167.104.167.1.166.097.167.092.167.09.166.085.167.082.167.08.166.075.167.073.167.07.166.067.167.064.167.062.166.06.167.056.167.054.166.052.167.05.167.047.166.046.167.043.167.042.166.04.167.037.167.036.166.035.167.033.167.032.166.03.167.028.167.028.166.026.167.025.167.023.166.023.167.021.167.02.166.02.167.019.167.017.166.017.167.016.167.015.166.014.167.014.167.013.166.012.167.012.167.01.166.011.167.01.167.01.166.009.167.008.167.008.166.008.167.007.167.007.166.006.167.006.167.006.166.006.167.005.167.005.166.004.167.005.167.004.166.004.167.004.167.003.166.004.167.003.167.003.166.003.167.002.167.003.166.002.167.002.167.002.166.002.167.002.167.002.166.001.167.002.167.002.166.001.167.001.167.002h.166l.167.002h.167l.166.002H138l.167.002h.166l.167.001.167.001h.166l.167.001.167.001h.166l.167.001h.167l.166.001H140l.167.001h.333l.167.001h.166l.167.001h.333l.167.001h.5l.167.001h.5l.166.001h.5l.167.001h.5l.167.001h.5l.166.001h.334l.166.001h.334l.166.001h.334l.166.001h.167l.167.001h.166l.167.001h.167l.166.001h.167l.167.001.166.001H148l.167.001.166.001.167.001.167.001h.166l.167.002h.167l.166.002.167.001.167.001.166.002.167.001.167.002.166.001.167.002.167.002.166.002.167.001.167.003.166.002.167.002.167.003.166.002.167.003.167.003.166.003.167.004.167.003.166.004.167.004.167.004.166.004.167.005.167.005.166.005.167.006.167.005.166.007.167.006.167.007.166.007.167.008.167.008.166.008.167.01.167.009.166.01.167.01.167.011.166.012.167.012.167.013.166.014.167.014.167.015.166.016.167.017.167.017.166.019.167.02.167.02.166.021.167.023.167.023.166.025.167.026.167.027.166.03.167.03.167.03.166.034.167.034.167.037.166.037.167.04.167.042.166.043.167.046.167.047.166.05.167.052.167.054.166.056.167.06.167.061.166.065.167.067.167.07.166.072.167.076.167.08.166.082.167.085.167.09.166.092.167.096.167.1.166.104.167.108.167.113.166.116.167.12.167.126.166.13.167.134.167.14.166.143.167.15.167.154.166.16.167.165.167.17.166.177.167.182.167.188.166.193.167.2.167.206.166.212.167.22.167.224.166.232.167.238.167.245.166.252.167.259.167.266.166.272.167.28.167.287.166.294.167.302.167.308.166.316.167.323.167.33.166.338.167.345.167.353.166.36.167.366.167.374.166.38.167.389.167.395.166.402.167.409.167.415.166.422.167.428.167.435.166.44.167.447.167.453.166.458.167.463.167.469.166.473.167.478.167.483.166.487.167.49.167.494.166.498.167.5.167.503.166.505.167.507.167.509.166.51.167.51.167.512.166.511.167.511.167.51.166.51.167.506.167.506.166.502.167.5.167.496.166.493.167.488.167.483.166.478.167.473.167.466.166.459.167.452.167.445.166.437.167.428.167.419.166.41.167.4.167.389.166.379.167.368.167.356.166.344.167.332.167.319.166.306.167.293.167.279.166.265.167.25.167.235.166.221.167.205.167.19.166.174.167.159.167.142.166.125.167.11.167.092.166.076.167.06.167.042.166.025.167.009.167-.009.166-.025.167-.042.167-.06.166-.076.167-.092.167-.11.166-.125.167-.142.167-.159.166-.174.167-.19.167-.205.166-.221.167-.235.167-.25.166-.265.167-.279.167-.293.166-.306.167-.319.167-.332.166-.344.167-.356.167-.368.166-.379.167-.389.167-.4.166-.41.167-.419.167-.428.166-.437.167-.445.167-.452.166-.459.167-.466.167-.473.166-.478.167-.483.167-.488.166-.493.167-.496.167-.5.166-.502.167-.506.167-.507.166-.509.167-.51.167-.51.166-.512.167-.511.167-.511.166-.51.167-.509.167-.507.166-.505.167-.503.167-.5.166-.498.167-.494.167-.49.166-.487.167-.483.167-.478.166-.473.167-.469.167-.463.166-.458.167-.453.167-.446.166-.441.167-.435.167-.428.166-.422.167-.415.167-.409.166-.402.167-.395.167-.388.166-.381.167-.374.167-.367.166-.36.167-.352.167-.345.166-.337.167-.33.167-.324.166-.316.167-.308.167-.302.166-.294.167-.287.167-.28.166-.272.167-.266.167-.259.166-.252.167-.245.167-.238.166-.232.167-.225.167-.219.166-.212.167-.206.167-.2.166-.194.167-.187.167-.182.166-.176.167-.171.167-.165.166-.16.167-.154.167-.15.166-.144.167-.139.167-.135.166-.13.167-.124.167-.121.166-.116.167-.113.167-.108.166-.104.167-.1.167-.096.166-.093.167-.089.167-.085.166-.083.167-.079.167-.076.166-.072.167-.07.167-.067.166-.065.167-.061.167-.06.166-.056.167-.054.167-.052.166-.05.167-.047.167-.046.166-.043.167-.042.167-.04.166-.038.167-.036.167-.034.166-.033.167-.032.167-.03.166-.029.167-.027.167-.026.166-.025.167-.023.167-.023.166-.021.167-.02.167-.02.166-.019.167-.017.167-.017.166-.016.167-.015.167-.014.166-.014.167-.013.167-.012.166-.012.167-.01.167-.011.166-.01.167-.01.167-.009.166-.008.167-.008.167-.008.166-.007.167-.007.167-.006.166-.007.167-.005.167-.006.166-.005.167-.005.167-.005.166-.004.167-.004.167-.004.166-.004.167-.004.167-.003.166-.003.167-.003.167-.003.166-.002.167-.003.167-.002.166-.002.167-.002.167-.002.166-.002.167-.002.167-.002.166-.001.167-.002.167-.001.166-.002h.167l.167-.002.166-.001.167-.001.167-.001.166-.001h.167l.167-.002h.166L222 68.9h.167l.166-.002h.334l.166-.001H223l.167-.001h.166l.167-.001h.167l.166-.001h.334l.166-.001h.334l.166-.001h.334l.166-.001h.5l.167-.001h.5l.167-.001h.5l.166-.001h.5l.167-.001h.333l.167-.001h.333l.167-.001h.333l.167-.001h.333l.167-.001h.167l.166-.001h.167l.167-.001.166-.001H231l.167-.001.166-.001h.167l.167-.002h.166l.167-.001.167-.001.166-.001.167-.001.167-.001.166-.001.167-.002.167-.001.166-.001.167-.002.167-.002.166-.001.167-.002.167-.002.166-.002.167-.002.167-.002.166-.002.167-.003.167-.002.166-.003.167-.003.167-.003.166-.004.167-.003.167-.004.166-.004.167-.004.167-.005.166-.004.167-.005.167-.005.166-.006.167-.006.167-.006.166-.006.167-.007.167-.007.166-.008.167-.008.167-.008.166-.01.167-.009.167-.01.166-.01.167-.011.167-.012.166-.012.167-.013.167-.014.166-.014.167-.015.167-.016.166-.017.167-.017.167-.019.166-.02.167-.02.167-.021.166-.023.167-.023.167-.025.166-.026.167-.028.167-.028.166-.03.167-.032.167-.033.166-.035.167-.036.167-.038.166-.04.167-.04.167-.044.166-.046.167-.047.167-.05.166-.052.167-.054.167-.057.166-.059.167-.062.167-.064.166-.067.167-.07.167-.073.166-.076.167-.079.167-.082.166-.085.167-.09.167-.092.166-.097.167-.1.167-.104.166-.108.167-.112.167-.116.166-.12.167-.126.167-.13.166-.134.167-.14.167-.144.166-.149.167-.154.167-.16.166-.165.167-.17.167-.177.166-.182.167-.188.167-.194.166-.2.167-.205.167-.213.166-.218.167-.225.167-.232.166-.239.167-.245.167-.251.166-.26.167-.265.167-.273.166-.28.167-.286.167-.294.166-.302.167-.308.167-.316.166-.323.167-.33.167-.339.166-.345.167-.352.167-.36.166-.366.167-.374.167-.381.166-.388.167-.395.167-.402.166-.409.167-.415.167-.422.166-.429.167-.434.167-.44.166-.448.167-.452.167-.458.166-.464.167-.468.167-.473.166-.478.167-.483.167-.487.166-.49.167-.494.167-.498.166-.5.167-.503.167-.505.166-.508.167-.508.167-.51.166-.511.167-.511.167-.512.166-.51.167-.51.167-.51.166-.507.167-.505.167-.503.166-.5.167-.496.167-.492.166-.488.167-.483.167-.478.166-.473.167-.466.167-.46.166-.452.167-.444.167-.437.166-.428.167-.42.167-.409.166-.4.167-.39.167-.378.166-.368.167-.356.167-.344.166-.332.167-.32.167-.305.166-.293.167-.279.167-.265.166-.25.167-.236.167-.22.166-.206.167-.19.167-.174.166-.158.167-.142.167-.126.166-.109.167-.093.167-.076.166-.059.167-.042.167-.026.166-.008.167.008.167.026.166.042.167.06.167.075.166.093.167.11.167.125.166.142.167.158.167.174.166.19.167.206.167.22.166.236.167.25.167.265.166.279.167.293.167.306.166.319.167.332.167.344.166.356.167.368.167.379.166.39.167.4.167.409.166.419.167.428.167.437.166.444.167.453.167.46.166.465.167.472.167.479.166.483.167.488.167.492.166.497.167.5.167.502.166.505.167.508.167.509.166.51.167.51.167.512.166.511.167.51.167.51.166.51.167.507.167.505.166.503.167.5.167.498.166.494.167.49.167.487.166.483.167.478.167.473.166.468.167.464.167.458.166.452.167.447.167.44.166.435.167.429.167.422.166.415.167.409.167.402.166.395.167.388.167.38.166.375.167.367.167.36.166.351.167.345.167.338.166.33.167.324.167.316.166.308.167.301.167.295.166.287.167.28.167.272.166.266.167.259.167.251.166.245.167.239.167.231.166.226.167.218.167.213.166.206.167.2.167.193.166.188.167.182.167.176.166.17.167.166.167.16.166.154.167.15.167.144.166.139.167.134.167.13.166.125.167.12.167.117.166.112.167.108.167.104.166.1.167.097.167.092.166.09.167.085.167.082.166.08.167.075.167.073.166.07.167.067.167.064.166.062.167.06.167.056.166.054.167.052.167.05.166.047.167.046.167.043.166.042.167.04.167.037.166.036.167.035.167.033.166.032.167.03.167.028.166.028.167.026.167.025.166.023.167.023.167.021.166.02.167.02.167.019.166.017.167.017.167.016.166.015.167.014.167.014.166.013.167.012.167.012.166.01.167.011.167.01.166.01.167.009.167.008.166.008.167.008.167.007.166.007.167.006.167.006.166.006.167.006.167.005.166.005.167.004.167.005.166.004.167.004.167.004.166.003.167.004.167.003.166.003.167.003.167.002.166.003.167.002.167.002.166.002.167.002.167.002.166.002.167.001.167.002.166.002.167.001.167.001.166.002H304l.167.002h.166l.167.002h.167l.166.002H305l.167.001.166.001h.167l.167.001.166.001H306l.167.001h.166l.167.001h.167l.166.001h.334l.166.001h.167l.167.001H308l.167.001h.5l.166.001h.5l.167.001h.5l.167.001h.5l.166.001h.5l.167.001h.333l.167.001h.333l.167.001h.333l.167.001h.167l.166.001h.167l.167.001h.166l.167.001h.167l.166.001.167.001h.167l.166.001.167.001.167.001.166.001h.167l.167.002h.166l.167.002.167.001.166.001.167.002.167.001.166.002.167.001.167.002.166.002.167.002.167.001.166.003.167.002.167.002.166.003.167.002.167.003.166.003.167.003.167.004.166.003.167.004.167.004.166.004.167.004.167.005.166.005.167.005.167.006.166.005L321 69l.167.006.166.007.167.007.167.008.166.008.167.008.167.01.166.009.167.01.167.01.166.011.167.012.167.012.166.013.167.014.167.014.166.015.167.016.167.017.166.017.167.019.167.02.166.02.167.021.167.023.166.023.167.025.167.026.166.027.167.03.167.03.166.03.167.034.167.034.166.037.167.037.167.04.166.042.167.043.167.046.166.047.167.05.167.052.166.054.167.056.167.06.166.061.167.065.167.067.166.07.167.072.167.076.166.08.167.082.167.085.166.09.167.092.167.096.166.1.167.104.167.108.166.113.167.116.167.12.166.126.167.13.167.134.166.14.167.143.167.15.166.154.167.16.167.165.166.17.167.177.167.182.166.188.167.193.167.2.166.206.167.212.167.22.166.224.167.232.167.238.166.245.167.252.167.259.166.266.167.272.167.28.166.287.167.294.167.302.166.308.167.316.167.323.166.33.167.338.167.345.166.353.167.36.167.366.166.374.167.38.167.389.166.395.167.402.167.409.166.415.167.422.167.428.166.435.167.44.167.447.166.453.167.458.167.463.166.469.167.473.167.478.166.483.167.487.167.49.166.494.167.498.167.5.166.503.167.505.167.507.166.509.167.51.167.51.166.512.167.511.167.511.166.51.167.51.167.506.166.506.167.502.167.5.166.496.167.493.167.488.166.483.167.478.167.473.166.466.167.459.167.452.166.445.167.437.167.428.166.419.167.41.167.4.166.389.167.379.167.368.166.356.167.344.167.332.166.319.167.306.167.293.166.279.167.265.167.25.166.235.167.221.167.205.166.19.167.174.167.159.166.142.167.125.167.11.166.092.167.076.167.06.166.042.167.025.167.009.166-.009.167-.025.167-.042.166-.06.167-.076.167-.092.166-.11.167-.125.167-.142.166-.159.167-.174.167-.19.166-.205.167-.221.167-.235.166-.25.167-.265.167-.279.166-.293.167-.306.167-.319.166-.332.167-.344.167-.356.166-.368.167-.379.167-.389.166-.4.167-.41.167-.419.166-.428.167-.437.167-.445.166-.452.167-.459.167-.466.166-.473.167-.478.167-.483.166-.488.167-.493.167-.496.166-.5.167-.502.167-.506.166-.507.167-.509.167-.51.166-.51.167-.512.167-.511.166-.511.167-.51.167-.509.166-.507.167-.505.167-.503.166-.5.167-.498.167-.494.166-.49.167-.487.167-.483.166-.478.167-.473.167-.469.166-.463.167-.458.167-.453.166-.446.167-.441.167-.435.166-.428.167-.422.167-.415.166-.409.167-.402.167-.395.166-.388.167-.381.167-.374.166-.367.167-.36.167-.352.166-.345.167-.337.167-.33.166-.324.167-.316.167-.308.166-.302.167-.294.167-.287.166-.28.167-.272.167-.266.166-.259.167-.252.167-.245.166-.238.167-.232.167-.225.166-.219.167-.212.167-.206.166-.2.167-.194.167-.187.166-.182.167-.176.167-.171.166-.165.167-.16.167-.154.166-.15.167-.144.167-.139.166-.135.167-.13.167-.124.166-.121.167-.116.167-.113.166-.108.167-.104.167-.1.166-.096.167-.093.167-.089.166-.085.167-.083.167-.079.166-.076.167-.072.167-.07.166-.067.167-.065.167-.061.166-.06.167-.056.167-.054.166-.052.167-.05.167-.047.166-.046.167-.043.167-.042.166-.04.167-.038.167-.036.166-.034.167-.033.167-.032.166-.03.167-.029.167-.027.166-.026.167-.025.167-.023.166-.023.167-.021.167-.02.166-.02.167-.019.167-.017.166-.017.167-.016.167-.015.166-.014.167-.014.167-.013.166-.012.167-.012.167-.01.166-.011.167-.01.167-.01.166-.009.167-.008.167-.008.166-.008.167-.007.167-.007.166-.006.167-.007.167-.005.166-.006.167-.005.167-.005.166-.005.167-.004.167-.004.166-.004.167-.004.167-.004.166-.003.167-.003.167-.003.166-.003.167-.002.167-.003.166-.002.167-.002.167-.002.166-.002.167-.002.167-.002.166-.002.167-.001.167-.002.166-.001.167-.002h.167l.166-.002.167-.001.167-.001.166-.001.167-.001h.167l.166-.002h.167l.167-.001h.166l.167-.002h.333l.167-.001h.167l.166-.001H390l.167-.001h.166l.167-.001h.333l.167-.001h.333l.167-.001h.333l.167-.001h.5l.167-.001h.5l.166-.001h.5l.167-.001h.5l.167-.001H395l.167-.001h.333l.167-.001H396l.167-.001h.333l.167-.001h.166l.167-.001h.167l.166-.001.167-.001h.167l.166-.001.167-.001h.167l.166-.002h.167l.167-.001.166-.001.167-.001.167-.001.166-.001.167-.001.167-.002.166-.001.167-.001.167-.002.166-.002.167-.001.167-.002.166-.002.167-.002.167-.002.166-.002.167-.002.167-.003.166-.002.167-.003.167-.003.166-.003.167-.004.167-.003.166-.004.167-.004.167-.004.166-.005.167-.004.167-.005.166-.005.167-.006.167-.006.166-.006.167-.006.167-.007.166-.007.167-.008.167-.008.166-.008.167-.01.167-.009.166-.01.167-.01.167-.011.166-.012.167-.012.167-.013.166-.014.167-.014.167-.015.166-.016.167-.017.167-.017.166-.019.167-.02.167-.02.166-.021.167-.023.167-.023.166-.025.167-.026.167-.028.166-.028.167-.03.167-.032.166-.033.167-.035.167-.036.166-.038.167-.04.167-.04.166-.044.167-.046.167-.047.166-.05.167-.052.167-.054.166-.057.167-.059.167-.062.166-.064.167-.067.167-.07.166-.073.167-.076.167-.079.166-.082.167-.085.167-.09.166-.092.167-.097.167-.1.166-.104.167-.108.167-.112.166-.116.167-.12.167-.126.166-.13.167-.134.167-.14.166-.144.167-.149.167-.154.166-.16.167-.165.167-.17.166-.177.167-.182.167-.188.166-.194.167-.2.167-.205.166-.213.167-.218.167-.225.166-.232.167-.239.167-.245.166-.251.167-.26.167-.265.166-.273.167-.28.167-.286.166-.294.167-.302.167-.308.166-.316.167-.323.167-.33.166-.339.167-.345.167-.352.166-.36.167-.366.167-.374.166-.381.167-.388.167-.395.166-.402.167-.409.167-.415.166-.422.167-.429.167-.434.166-.44.167-.448.167-.452.166-.458.167-.464.167-.468.166-.473.167-.478.167-.483.166-.487.167-.49.167-.494.166-.498.167-.5.167-.503.166-.505.167-.508.167-.508.166-.51.167-.511.167-.511.166-.512.167-.51.167-.51.166-.51.167-.507.167-.505.166-.503.167-.5.167-.496.166-.492.167-.488.167-.483.166-.478.167-.473.167-.466.166-.46.167-.452.167-.444.166-.437.167-.428.167-.42.166-.409.167-.4.167-.39.166-.378.167-.368.167-.356.166-.344.167-.332.167-.32.166-.305.167-.293.167-.279.166-.265.167-.25.167-.236.166-.22.167-.206.167-.19.166-.174.167-.158.167-.142.166-.126.167-.109.167-.093.166-.076.167-.059.167-.042.166-.026.167-.008.167.008.166.026.167.042.167.06.166.075.167.093.167.11.166.125.167.142.167.158.166.174.167.19.167.206.166.22.167.236.167.25.166.265.167.279.167.293.166.306.167.319.167.332.166.344.167.356.167.368.166.379.167.39.167.4.166.409.167.419.167.428.166.437.167.444.167.453.166.46.167.465.167.472.166.479.167.483.167.488.166.492.167.497.167.5.166.502.167.505.167.508.166.509.167.51.167.51.166.512.167.511.167.51.166.51.167.51.167.507.166.505.167.503.167.5.166.498.167.494.167.49.166.487.167.483.167.478.166.473.167.468.167.464.166.458.167.452.167.447.166.44.167.435.167.429.166.422.167.415.167.409.166.402.167.395.167.388.166.38.167.375.167.367.166.36.167.351.167.345.166.338.167.33.167.324.166.316.167.308.167.301.166.295.167.287.167.28.166.272.167.266.167.259.166.251.167.245.167.239.166.231.167.226.167.218.166.213.167.206.167.2.166.193.167.188.167.182.166.176.167.17.167.166.166.16.167.154.167.15.166.144.167.139.167.134.166.13.167.125.167.12.166.117.167.112.167.108.166.104.167.1.167.097.166.092.167.09.167.085.166.082.167.08.167.075.166.073.167.07.167.067.166.064.167.062.167.06.166.056.167.054.167.052.166.05.167.047.167.046.166.043.167.042.167.04.166.037.167.036.167.035.166.033.167.032.167.03.166.028.167.028.167.026.166.025.167.023.167.023.166.021.167.02.167.02.166.019.167.017.167.017.166.016.167.015.167.014.166.014.167.013.167.012.166.012.167.01.167.011.166.01.167.01.167.009.166.008.167.008.167.008.166.007.167.007.167.006.166.006.167.006.167.006.166.005.167.005.167.004.166.005.167.004.167.004.166.004.167.003.167.004.166.003.167.003.167.003.166.002.167.003.167.002.166.002.167.002.167.002.166.002.167.002.167.001.166.002.167.002.167.001.166.001.167.002h.167l.166.002H471l.167.002h.166l.167.002h.167l.166.001.167.001h.167l.166.001.167.001h.167l.166.001H473l.167.001h.166l.167.001h.333l.167.001h.167l.166.001h.334l.166.001h.5l.167.001h.5l.167.001h.5l.166.001h.5l.167.001h.5l.167.001h.333l.167.001H479l.167.001h.333l.167.001h.166l.167.001h.167l.166.001h.167l.167.001h.166l.167.001.167.001h.166l.167.001.167.001.166.001.167.001h.167l.166.002h.167l.167.002.166.001.167.001.167.002.166.001.167.002.167.001.166.002.167.002.167.002.166.001.167.003.167.002.166.002.167.003.167.002.166.003.167.003.167.003.166.004.167.003.167.004.166.004.167.004.167.004.166.005.167.005.167.005.166.006.167.005.167.007.166.006.167.007.167.007.166.008.167.008.167.008.166.01.167.009.167.01.166.01.167.011.167.012.166.012.167.013.167.014.166.014.167.015.167.016.166.017.167.017.167.019.166.02.167.02.167.021.166.023.167.023.167.025.166.026.167.027.167.03.166.03.167.03.167.034.166.034.167.037.167.037.166.04.167.042.167.043.166.046.167.047.167.05.166.052.167.054.167.056.166.06.167.061.167.065.166.067.167.07.167.072.166.076.167.08.167.082.166.085.167.09.167.092.166.096.167.1.167.104.166.108.167.113.167.116.166.12.167.126.167.13.166.134.167.14.167.143.166.15.167.154.167.16.166.165.167.17.167.177.166.182.167.188.167.193.166.2.167.206.167.212.166.22.167.224.167.232.166.238.167.245.167.252.166.259.167.266.167.272.166.28.167.287.167.294.166.302.167.308.167.316.166.323.167.33.167.338.166.345.167.353.167.36.166.366.167.374.167.38.166.389.167.395.167.402.166.409.167.415.167.422.166.428.167.435.167.44.166.447.167.453.167.458.166.463.167.469.167.473.166.478.167.483.167.487.166.49.167.494.167.498.166.5.167.503.167.505.166.507.167.509.167.51.166.51.167.512.167.511.166.511.167.51.167.51.166.506.167.506.167.502.166.5.167.496.167.493.166.488.167.483.167.478.166.473.167.466.167.459.166.452.167.445.167.437.166.428.167.419.167.41.166.4.167.389.167.379.166.368.167.356.167.344.166.332.167.319.167.306.166.293.167.279.167.265.166.25.167.235.167.221.166.205.167.19.167.174.166.159.167.142.167.125.166.11.167.092.167.076.166.06.167.042.167.025.166.009.167-.009.167-.025.166-.042.167-.06.167-.076.166-.092.167-.11.167-.125.166-.142.167-.159.167-.174.166-.19.167-.205.167-.221.166-.235.167-.25.167-.265.166-.279.167-.293.167-.306.166-.319.167-.332.167-.344.166-.356.167-.368.167-.379.166-.389.167-.4.167-.41.166-.419.167-.428.167-.437.166-.445.167-.452.167-.459.166-.466.167-.473.167-.478.166-.483.167-.488.167-.493.166-.496.167-.5.167-.502.166-.506.167-.507.167-.509.166-.51.167-.51.167-.512.166-.511.167-.511.167-.51.166-.509.167-.507.167-.505.166-.503.167-.5.167-.498.166-.494.167-.49.167-.487.166-.483.167-.478.167-.473.166-.469.167-.463.167-.458.166-.453.167-.446.167-.441.166-.435.167-.428.167-.422.166-.415.167-.409.167-.402.166-.395.167-.388.167-.381.166-.374.167-.367.167-.36.166-.352.167-.345.167-.337.166-.33.167-.324.167-.316.166-.308.167-.302.167-.294.166-.287.167-.28.167-.272.166-.266.167-.259.167-.252.166-.245.167-.238.167-.232.166-.225.167-.219.167-.212.166-.206.167-.2.167-.194.166-.187.167-.182.167-.176.166-.171.167-.165.167-.16.166-.154.167-.15.167-.144.166-.139.167-.135.167-.13.166-.124.167-.121.167-.116.166-.113.167-.108.167-.104.166-.1.167-.096.167-.093.166-.089.167-.085.167-.083.166-.079.167-.076.167-.072.166-.07.167-.067.167-.065.166-.061.167-.06.167-.056.166-.054.167-.052.167-.05.166-.047.167-.046.167-.043.166-.042.167-.04.167-.038.166-.036.167-.034.167-.033.166-.032.167-.03.167-.029.166-.027.167-.026.167-.025.166-.023.167-.023.167-.021.166-.02.167-.02.167-.019.166-.017.167-.017.167-.016.166-.015.167-.014.167-.014.166-.013.167-.012.167-.012.166-.01.167-.011.167-.01.166-.01.167-.009.167-.008.166-.008.167-.008.167-.007.166-.007.167-.006.167-.007.166-.005.167-.006.167-.005.166-.005.167-.005.167-.004.166-.004.167-.004.167-.004.166-.004.167-.003.167-.003.166-.003.167-.003.167-.002.166-.003.167-.002.167-.002.166-.002.167-.002.167-.002.166-.002.167-.002.167-.001.166-.002.167-.001.167-.002h.166l.167-.002.167-.001.166-.001.167-.001.167-.001h.166L555 68.9h.167l.166-.001h.167l.167-.002H556l.167-.001h.166l.167-.001h.167l.166-.001H557l.167-.001h.333l.167-.001H558l.167-.001h.333l.167-.001h.5l.166-.001h.5l.167-.001"/><path fill="none" stroke="#000" stroke-width=".5" stroke-dasharray="4,4,4,4" d="M60 111.852h500M60 68.889h500M60 25.926h500M60 50.687h500"/></g><g clip-path="url(#a)"><path shape-rendering="crispEdges" d="M310 107.266v4.586l-3.528-7.056zM310 111.852v-4.586l3.528-2.47zM310 25.926v4.586l-3.528 2.47zM310 30.512v-4.586l3.528 7.055zM393.333 64.303v4.586l-3.527-7.056zM393.333 68.889v-4.586l3.528-2.47zM393.333 25.926v4.586l-3.527 2.47zM393.333 30.512v-4.586l3.528 7.055zM476.667 64.303v4.586l-3.528-7.056zM476.667 68.889v-4.586l3.527-2.47zM476.667 50.687v4.586l-3.528 2.47zM476.667 55.273v-4.587l3.527 7.056z"/><path fill="none" stroke="#000" stroke-width=".5" d="M310 111.852V25.926M313.528 104.796L310 111.852l-3.528-7.056 3.528 2.47 3.528-2.47M313.528 32.981L310 30.512l-3.528 2.47L310 25.925l3.528 7.055"/><text x="302.25" y="58.148" font-size="10" text-anchor="end" dy="5" font-family="Open Sans">Peak-to-peak</text><path fill="none" stroke="#000" stroke-width=".5" d="M393.333 68.889V25.926M396.861 61.833l-3.528 7.056-3.527-7.056 3.527 2.47 3.528-2.47M396.861 32.981l-3.528-2.469-3.527 2.47 3.527-7.056 3.528 7.055"/><text x="383.5" y="58.148" font-size="10" text-anchor="end" dy="5" font-family="Open Sans">Peak</text><path fill="none" stroke="#000" stroke-width=".5" d="M476.667 68.889V50.687M480.194 61.833l-3.527 7.056-3.528-7.056 3.528 2.47 3.527-2.47M480.194 57.742l-3.527-2.47-3.528 2.47 3.528-7.055 3.527 7.055"/><text x="464.75" y="58.148" font-size="10" text-anchor="end" dy="5" font-family="Open Sans">RMS</text></g></svg>