<?xml version="1.0" encoding="UTF-8" standalone="no"?>
<?xml-stylesheet type="text/css" href="https://fonts.googleapis.com/css?family=Open+Sans" ?>
<svg xmlns="http://www.w3.org/2000/svg"
     xmlns:xlink="http://www.w3.org/1999/xlink"
     width="600px" height="180px" viewBox="0 0 600 180">
<title>gl2ps_renderer figure</title>
<desc>
Creator: GL2PS 1.4.0, (C) 1999-2017 C. Geuzaine
For: Octave
</desc>
<defs>
</defs>
<polygon fill="#ffffff" points="0,0 600,0 600,180 0,180"/>
<g>
<polygon fill="#fefefe" points="0,180 600,180 600,0 0,0" shape-rendering="crispEdges"/>
<clipPath id="cp00600180">
  <polygon points="0,180 600,180 600,0 0,0"/>
</clipPath>
<g clip-path="url(#cp00600180)">
<polygon fill="#ffffff" shape-rendering="crispEdges" points="78,160.2 543,160.2 78,13.5"/>
<polygon fill="#ffffff" shape-rendering="crispEdges" points="543,160.2 543,13.5 78,13.5"/>
<polyline fill="none" stroke="#262626" stroke-width="0.5" stroke-linecap="butt" stroke-linejoin="miter" points="78,160.2 82.65,160.2"/>
<polyline fill="none" stroke="#262626" stroke-width="0.5" stroke-linecap="butt" stroke-linejoin="miter" points="543,160.2 538.35,160.2"/>
<polyline fill="none" stroke="#262626" stroke-width="0.5" stroke-linecap="butt" stroke-linejoin="miter" points="78,135.75 82.65,135.75"/>
<polyline fill="none" stroke="#262626" stroke-width="0.5" stroke-linecap="butt" stroke-linejoin="miter" points="543,135.75 538.35,135.75"/>
<polyline fill="none" stroke="#262626" stroke-width="0.5" stroke-linecap="butt" stroke-linejoin="miter" points="78,111.3 82.65,111.3"/>
<polyline fill="none" stroke="#262626" stroke-width="0.5" stroke-linecap="butt" stroke-linejoin="miter" points="543,111.3 538.35,111.3"/>
<polyline fill="none" stroke="#262626" stroke-width="0.5" stroke-linecap="butt" stroke-linejoin="miter" points="78,86.85 82.65,86.85"/>
<polyline fill="none" stroke="#262626" stroke-width="0.5" stroke-linecap="butt" stroke-linejoin="miter" points="543,86.85 538.35,86.85"/>
<polyline fill="none" stroke="#262626" stroke-width="0.5" stroke-linecap="butt" stroke-linejoin="miter" points="78,62.4 82.65,62.4"/>
<polyline fill="none" stroke="#262626" stroke-width="0.5" stroke-linecap="butt" stroke-linejoin="miter" points="543,62.4 538.35,62.4"/>
<polyline fill="none" stroke="#262626" stroke-width="0.5" stroke-linecap="butt" stroke-linejoin="miter" points="78,37.95 82.65,37.95"/>
<polyline fill="none" stroke="#262626" stroke-width="0.5" stroke-linecap="butt" stroke-linejoin="miter" points="543,37.95 538.35,37.95"/>
<polyline fill="none" stroke="#262626" stroke-width="0.5" stroke-linecap="butt" stroke-linejoin="miter" points="78,13.5 82.65,13.5"/>
<polyline fill="none" stroke="#262626" stroke-width="0.5" stroke-linecap="butt" stroke-linejoin="miter" points="543,13.5 538.35,13.5"/>
<text fill="#262626" x="73" y="160.2" font-size="10" text-anchor="end" dy="5" font-family="Open Sans">-1.5</text>
<text fill="#262626" x="73" y="135.75" font-size="10" text-anchor="end" dy="5" font-family="Open Sans">-1</text>
<text fill="#262626" x="73" y="111.3" font-size="10" text-anchor="end" dy="5" font-family="Open Sans">-0.5</text>
<text fill="#262626" x="73" y="86.85" font-size="10" text-anchor="end" dy="5" font-family="Open Sans">0</text>
<text fill="#262626" x="73" y="62.4" font-size="10" text-anchor="end" dy="5" font-family="Open Sans">0.5</text>
<text fill="#262626" x="73" y="37.95" font-size="10" text-anchor="end" dy="5" font-family="Open Sans">1</text>
<text fill="#262626" x="73" y="13.5" font-size="10" text-anchor="end" dy="5" font-family="Open Sans">1.5</text>
<polyline fill="none" stroke="#262626" stroke-width="0.5" stroke-linecap="butt" stroke-linejoin="miter" stroke-dasharray="16,0" points="78,160.2 543,160.2"/>
<polyline fill="none" stroke="#262626" stroke-width="0.5" stroke-linecap="butt" stroke-linejoin="miter" stroke-dasharray="16,0" points="78,13.5 543,13.5"/>
<polyline fill="none" stroke="#262626" stroke-width="0.5" stroke-linecap="butt" stroke-linejoin="miter" stroke-dasharray="16,0" points="78,160.2 78,13.5"/>
<polyline fill="none" stroke="#262626" stroke-width="0.5" stroke-linecap="butt" stroke-linejoin="miter" stroke-dasharray="16,0" points="543,160.2 543,13.5"/>
<polyline fill="none" stroke="#0071bc" stroke-width="0.5" stroke-linecap="butt" stroke-linejoin="miter" points="78,86.85 78.2327,86.8496 78.4655,86.8492 78.6982,86.8487 78.9309,86.8483 79.1637,86.8478 79.3964,86.8474 79.6291,86.8469 79.8618,86.8463 80.0946,86.8458 80.3273,86.8452 80.56,86.8445 80.7928,86.8438 81.0255,86.8431 81.2582,86.8423 81.491,86.8414 81.7237,86.8405 81.9564,86.8395 82.1892,86.8384 82.4219,86.8372 82.6546,86.8359 82.8874,86.8344 83.1201,86.8329 83.3528,86.8311 83.5856,86.8293 83.8183,86.8272 84.051,86.825 84.2838,86.8226 84.5165,86.8199 84.7492,86.8171 84.982,86.8139 85.2147,86.8105 85.4474,86.8067 85.6802,86.8026 85.9129,86.7981 86.1456,86.7933 86.3784,86.788 86.6111,86.7822 86.8438,86.7759 87.0766,86.7691 87.3093,86.7616 87.542,86.7535 87.7747,86.7447 88.0075,86.7352 88.2402,86.7248 88.4729,86.7135 88.7057,86.7013 88.9384,86.688 89.1711,86.6736 89.4039,86.6581 89.6366,86.6412 89.8693,86.6229 90.1021,86.6031 90.3348,86.5818 90.5675,86.5587 90.8003,86.5337 91.033,86.5068 91.2657,86.4778 91.4985,86.4464 91.7312,86.4127 91.9639,86.3763 92.1967,86.3372 92.4294,86.2951 92.6622,86.2498 92.8949,86.2012 93.1276,86.1489 93.3604,86.0929 93.5931,86.0328 93.8258,85.9684 94.0585,85.8995 94.2913,85.8257 94.524,85.7467 94.7567,85.6624 94.9895,85.5723 95.2222,85.4761 95.4549,85.3736 95.6877,85.2643 95.9204,85.1479 96.1531,85.0241 96.3859,84.8924 96.6186,84.7525 96.8513,84.604 97.0841,84.4464 97.3168,84.2794 97.5495,84.1025 97.7823,83.9153 98.015,83.7173 98.2477,83.5081 98.4805,83.2873 98.7132,83.0544 98.9459,82.809 99.1787,82.5505 99.4114,82.2786 99.6441,81.9928 99.8769,81.6927 100.11,81.3778 100.342,81.0477 100.575,80.702 100.808,80.3403 101.041,79.9622 101.273,79.5674 101.506,79.1555 101.739,78.7262 101.971,78.2792 102.204,77.8142 102.437,77.331 102.67,76.8295 102.902,76.3095 103.135,75.7708 103.368,75.2134 103.601,74.6373 103.833,74.0425 104.066,73.4291 104.299,72.7971 104.532,72.1469 104.764,71.4787 104.997,70.7927 105.23,70.0893 105.462,69.3691 105.695,68.6324 105.928,67.8799 106.161,67.1123 106.393,66.3302 106.626,65.5344 106.859,64.7259 107.092,63.9055 107.324,63.0742 107.557,62.2332 107.79,61.3835 108.022,60.5264 108.255,59.6632 108.488,58.7952 108.721,57.9237 108.953,57.0504 109.186,56.1767 109.419,55.3041 109.652,54.4342 109.884,53.5689 110.117,52.7096 110.35,51.8582 110.583,51.0164 110.815,50.186 111.048,49.3688 111.281,48.5665 111.514,47.781 111.746,47.014 111.979,46.2674 112.212,45.5429 112.444,44.8422 112.677,44.1671 112.91,43.5192 113.143,42.9001 113.375,42.3113 113.608,41.7545 113.841,41.231 114.074,40.7422 114.306,40.2894 114.539,39.8738 114.772,39.4965 115.004,39.1584 115.237,38.8606 115.47,38.6037 115.703,38.3886 115.935,38.2158 116.168,38.0858 116.401,37.9989 116.634,37.9554 116.866,37.9554 117.099,37.9989 117.332,38.0858 117.565,38.2158 117.797,38.3886 118.03,38.6037 118.263,38.8606 118.495,39.1584 118.728,39.4965 118.961,39.8738 119.194,40.2894 119.426,40.7422 119.659,41.231 119.892,41.7545 120.125,42.3113 120.357,42.9001 120.59,43.5192 120.823,44.1671 121.056,44.8422 121.288,45.5429 121.521,46.2674 121.754,47.014 121.986,47.781 122.219,48.5665 122.452,49.3688 122.685,50.186 122.917,51.0164 123.15,51.8582 123.383,52.7096 123.616,53.5689 123.848,54.4342 124.081,55.3041 124.314,56.1767 124.547,57.0504 124.779,57.9237 125.012,58.7952 125.245,59.6632 125.477,60.5264 125.71,61.3835 125.943,62.2332 126.176,63.0742 126.408,63.9055 126.641,64.7259 126.874,65.5344 127.107,66.3302 127.339,67.1123 127.572,67.8799 127.805,68.6324 128.038,69.3691 128.27,70.0893 128.503,70.7927 128.736,71.4787 128.968,72.1469 129.201,72.7971 129.434,73.4291 129.667,74.0425 129.899,74.6373 130.132,75.2134 130.365,75.7708 130.598,76.3095 130.83,76.8295 131.063,77.331 131.296,77.8142 131.529,78.2792 131.761,78.7262 131.994,79.1555 132.227,79.5674 132.459,79.9622 132.692,80.3403 132.925,80.702 133.158,81.0477 133.39,81.3778 133.623,81.6927 133.856,81.9928 134.089,82.2786 134.321,82.5505 134.554,82.809 134.787,83.0544 135.02,83.2873 135.252,83.5081 135.485,83.7173 135.718,83.9153 135.95,84.1025 136.183,84.2794 136.416,84.4464 136.649,84.604 136.881,84.7525 137.114,84.8924 137.347,85.0241 137.58,85.1479 137.812,85.2643 138.045,85.3736 138.278,85.4761 138.51,85.5723 138.743,85.6624 138.976,85.7467 139.209,85.8257 139.441,85.8995 139.674,85.9684 139.907,86.0328 140.14,86.0929 140.372,86.1489 140.605,86.2012 140.838,86.2498 141.071,86.2951 141.303,86.3372 141.536,86.3763 141.769,86.4127 142.001,86.4464 142.234,86.4778 142.467,86.5068 142.7,86.5337 142.932,86.5587 143.165,86.5818 143.398,86.6031 143.631,86.6229 143.863,86.6412 144.096,86.6581 144.329,86.6736 144.562,86.688 144.794,86.7013 145.027,86.7135 145.26,86.7248 145.492,86.7352 145.725,86.7447 145.958,86.7535 146.191,86.7616 146.423,86.7691 146.656,86.7759 146.889,86.7822 147.122,86.788 147.354,86.7933 147.587,86.7981 147.82,86.8026 148.053,86.8067 148.285,86.8105 148.518,86.8139 148.751,86.8171 148.983,86.8199 149.216,86.8226 149.449,86.825 149.682,86.8272 149.914,86.8293 150.147,86.8311 150.38,86.8329 150.613,86.8344 150.845,86.8359 151.078,86.8372 151.311,86.8384 151.544,86.8395 151.776,86.8405 152.009,86.8414 152.242,86.8423 152.474,86.8431 152.707,86.8438 152.94,86.8445 153.173,86.8452 153.405,86.8458 153.638,86.8463 153.871,86.8469 154.104,86.8474 154.336,86.8478 154.569,86.8483 154.802,86.8487 155.035,86.8492 155.267,86.8496 155.5,86.85 155.733,86.8504 155.965,86.8508 156.198,86.8513 156.431,86.8517 156.664,86.8522 156.896,86.8527 157.129,86.8531 157.362,86.8537 157.595,86.8542 157.827,86.8548 158.06,86.8555 158.293,86.8562 158.526,86.8569 158.758,86.8577 158.991,86.8586 159.224,86.8595 159.456,86.8605 159.689,86.8616 159.922,86.8628 160.155,86.8642 160.387,86.8656 160.62,86.8671 160.853,86.8689 161.086,86.8707 161.318,86.8728 161.551,86.875 161.784,86.8774 162.016,86.8801 162.249,86.8829 162.482,86.8861 162.715,86.8895 162.947,86.8933 163.18,86.8974 163.413,86.9019 163.646,86.9067 163.878,86.912 164.111,86.9178 164.344,86.9241 164.577,86.9309 164.809,86.9384 165.042,86.9465 165.275,86.9553 165.507,86.9648 165.74,86.9752 165.973,86.9865 166.206,86.9987 166.438,87.012 166.671,87.0264 166.904,87.042 167.137,87.0588 167.369,87.0771 167.602,87.0969 167.835,87.1182 168.068,87.1413 168.3,87.1663 168.533,87.1932 168.766,87.2222 168.998,87.2536 169.231,87.2873 169.464,87.3237 169.697,87.3628 169.929,87.4049 170.162,87.4502 170.395,87.4988 170.628,87.5511 170.86,87.6071 171.093,87.6672 171.326,87.7316 171.559,87.8005 171.791,87.8744 172.024,87.9533 172.257,88.0377 172.489,88.1277 172.722,88.2239 172.955,88.3264 173.188,88.4357 173.42,88.5521 173.653,88.6759 173.886,88.8076 174.119,88.9475 174.351,89.096 174.584,89.2536 174.817,89.4206 175.05,89.5975 175.282,89.7847 175.515,89.9827 175.748,90.1919 175.98,90.4127 176.213,90.6456 176.446,90.891 176.679,91.1495 176.911,91.4214 177.144,91.7072 177.377,92.0073 177.61,92.3222 177.842,92.6523 178.075,92.998 178.308,93.3597 178.541,93.7378 178.773,94.1326 179.006,94.5445 179.239,94.9738 179.471,95.4209 179.704,95.8858 179.937,96.369 180.17,96.8705 180.402,97.3905 180.635,97.9292 180.868,98.4866 181.101,99.0627 181.333,99.6575 181.566,100.271 181.799,100.903 182.032,101.553 182.264,102.221 182.497,102.907 182.73,103.611 182.962,104.331 183.195,105.068 183.428,105.82 183.661,106.588 183.893,107.37 184.126,108.166 184.359,108.974 184.592,109.795 184.824,110.626 185.057,111.467 185.29,112.317 185.523,113.174 185.755,114.037 185.988,114.905 186.221,115.776 186.453,116.65 186.686,117.523 186.919,118.396 187.152,119.266 187.384,120.131 187.617,120.99 187.85,121.842 188.083,122.684 188.315,123.514 188.548,124.331 188.781,125.134 189.013,125.919 189.246,126.686 189.479,127.433 189.712,128.157 189.944,128.858 190.177,129.533 190.41,130.181 190.643,130.8 190.875,131.389 191.108,131.945 191.341,132.469 191.574,132.958 191.806,133.411 192.039,133.826 192.272,134.204 192.504,134.542 192.737,134.839 192.97,135.096 193.203,135.311 193.435,135.484 193.668,135.614 193.901,135.701 194.134,135.745 194.366,135.745 194.599,135.701 194.832,135.614 195.065,135.484 195.297,135.311 195.53,135.096 195.763,134.839 195.995,134.542 196.228,134.204 196.461,133.826 196.694,133.411 196.926,132.958 197.159,132.469 197.392,131.945 197.625,131.389 197.857,130.8 198.09,130.181 198.323,129.533 198.556,128.858 198.788,128.157 199.021,127.433 199.254,126.686 199.486,125.919 199.719,125.134 199.952,124.331 200.185,123.514 200.417,122.684 200.65,121.842 200.883,120.99 201.116,120.131 201.348,119.266 201.581,118.396 201.814,117.523 202.047,116.65 202.279,115.776 202.512,114.905 202.745,114.037 202.977,113.174 203.21,112.317 203.443,111.467 203.676,110.626 203.908,109.795 204.141,108.974 204.374,108.166 204.607,107.37 204.839,106.588 205.072,105.82 205.305,105.068 205.538,104.331 205.77,103.611 206.003,102.907 206.236,102.221 206.468,101.553 206.701,100.903 206.934,100.271 207.167,99.6575 207.399,99.0627 207.632,98.4866 207.865,97.9292 208.098,97.3905 208.33,96.8705 208.563,96.369 208.796,95.8858 209.029,95.4209 209.261,94.9738 209.494,94.5445 209.727,94.1326 209.959,93.7378 210.192,93.3597 210.425,92.998 210.658,92.6523 210.89,92.3222 211.123,92.0073 211.356,91.7072 211.589,91.4214 211.821,91.1495 212.054,90.891 212.287,90.6456 212.52,90.4127 212.752,90.1919 212.985,89.9827 213.218,89.7847 213.45,89.5975 213.683,89.4206 213.916,89.2536 214.149,89.096 214.381,88.9475 214.614,88.8076 214.847,88.6759 215.08,88.5521 215.312,88.4357 215.545,88.3264 215.778,88.2239 216.01,88.1277 216.243,88.0377 216.476,87.9533 216.709,87.8744 216.941,87.8005 217.174,87.7316 217.407,87.6672 217.64,87.6071 217.872,87.5511 218.105,87.4988 218.338,87.4502 218.571,87.4049 218.803,87.3628 219.036,87.3237 219.269,87.2873 219.501,87.2536 219.734,87.2222 219.967,87.1932 220.2,87.1663 220.432,87.1413 220.665,87.1182 220.898,87.0969 221.131,87.0771 221.363,87.0588 221.596,87.042 221.829,87.0264 222.062,87.012 222.294,86.9987 222.527,86.9865 222.76,86.9752 222.992,86.9648 223.225,86.9553 223.458,86.9465 223.691,86.9384 223.923,86.9309 224.156,86.9241 224.389,86.9178 224.622,86.912 224.854,86.9067 225.087,86.9019 225.32,86.8974 225.553,86.8933 225.785,86.8895 226.018,86.8861 226.251,86.8829 226.483,86.8801 226.716,86.8774 226.949,86.875 227.182,86.8728 227.414,86.8707 227.647,86.8689 227.88,86.8671 228.113,86.8656 228.345,86.8642 228.578,86.8628 228.811,86.8616 229.044,86.8605 229.276,86.8595 229.509,86.8586 229.742,86.8577 229.974,86.8569 230.207,86.8562 230.44,86.8555 230.673,86.8548 230.905,86.8542 231.138,86.8537 231.371,86.8531 231.604,86.8527 231.836,86.8522 232.069,86.8517 232.302,86.8513 232.535,86.8508 232.767,86.8504 233,86.85 233.233,86.8496 233.465,86.8492 233.698,86.8487 233.931,86.8483 234.164,86.8478 234.396,86.8474 234.629,86.8469 234.862,86.8463 235.095,86.8458 235.327,86.8452 235.56,86.8445 235.793,86.8438 236.026,86.8431 236.258,86.8423 236.491,86.8414 236.724,86.8405 236.956,86.8395 237.189,86.8384 237.422,86.8372 237.655,86.8359 237.887,86.8344 238.12,86.8329 238.353,86.8311 238.586,86.8293 238.818,86.8272 239.051,86.825 239.284,86.8226 239.517,86.8199 239.749,86.8171 239.982,86.8139 240.215,86.8105 240.447,86.8067 240.68,86.8026 240.913,86.7981 241.146,86.7933 241.378,86.788 241.611,86.7822 241.844,86.7759 242.077,86.7691 242.309,86.7616 242.542,86.7535 242.775,86.7447 243.008,86.7352 243.24,86.7248 243.473,86.7135 243.706,86.7013 243.938,86.688 244.171,86.6736 244.404,86.6581 244.637,86.6412 244.869,86.6229 245.102,86.6031 245.335,86.5818 245.568,86.5587 245.8,86.5337 246.033,86.5068 246.266,86.4778 246.498,86.4464 246.731,86.4127 246.964,86.3763 247.197,86.3372 247.429,86.2951 247.662,86.2498 247.895,86.2012 248.128,86.1489 248.36,86.0929 248.593,86.0328 248.826,85.9684 249.059,85.8995 249.291,85.8257 249.524,85.7467 249.757,85.6624 249.989,85.5723 250.222,85.4761 250.455,85.3736 250.688,85.2643 250.92,85.1479 251.153,85.0241 251.386,84.8924 251.619,84.7525 251.851,84.604 252.084,84.4464 252.317,84.2794 252.55,84.1025 252.782,83.9153 253.015,83.7173 253.248,83.5081 253.48,83.2873 253.713,83.0544 253.946,82.809 254.179,82.5505 254.411,82.2786 254.644,81.9928 254.877,81.6927 255.11,81.3778 255.342,81.0477 255.575,80.702 255.808,80.3403 256.041,79.9622 256.273,79.5674 256.506,79.1555 256.739,78.7262 256.971,78.2792 257.204,77.8142 257.437,77.331 257.67,76.8295 257.902,76.3095 258.135,75.7708 258.368,75.2134 258.601,74.6373 258.833,74.0425 259.066,73.4291 259.299,72.7971 259.532,72.1469 259.764,71.4787 259.997,70.7927 260.23,70.0893 260.462,69.3691 260.695,68.6324 260.928,67.8799 261.161,67.1123 261.393,66.3302 261.626,65.5344 261.859,64.7259 262.092,63.9055 262.324,63.0742 262.557,62.2332 262.79,61.3835 263.023,60.5264 263.255,59.6632 263.488,58.7952 263.721,57.9237 263.953,57.0504 264.186,56.1767 264.419,55.3041 264.652,54.4342 264.884,53.5689 265.117,52.7096 265.35,51.8582 265.583,51.0164 265.815,50.186 266.048,49.3688 266.281,48.5665 266.514,47.781 266.746,47.014 266.979,46.2674 267.212,45.5429 267.444,44.8422 267.677,44.1671 267.91,43.5192 268.143,42.9001 268.375,42.3113 268.608,41.7545 268.841,41.231 269.074,40.7422 269.306,40.2894 269.539,39.8738 269.772,39.4965 270.004,39.1584 270.237,38.8606 270.47,38.6037 270.703,38.3886 270.935,38.2158 271.168,38.0858 271.401,37.9989 271.634,37.9554 271.866,37.9554 272.099,37.9989 272.332,38.0858 272.565,38.2158 272.797,38.3886 273.03,38.6037 273.263,38.8606 273.495,39.1584 273.728,39.4965 273.961,39.8738 274.194,40.2894 274.426,40.7422 274.659,41.231 274.892,41.7545 275.125,42.3113 275.357,42.9001 275.59,43.5192 275.823,44.1671 276.056,44.8422 276.288,45.5429 276.521,46.2674 276.754,47.014 276.986,47.781 277.219,48.5665 277.452,49.3688 277.685,50.186 277.917,51.0164 278.15,51.8582 278.383,52.7096 278.616,53.5689 278.848,54.4342 279.081,55.3041 279.314,56.1767 279.547,57.0504 279.779,57.9237 280.012,58.7952 280.245,59.6632 280.477,60.5264 280.71,61.3835 280.943,62.2332 281.176,63.0742 281.408,63.9055 281.641,64.7259 281.874,65.5344 282.107,66.3302 282.339,67.1123 282.572,67.8799 282.805,68.6324 283.038,69.3691 283.27,70.0893 283.503,70.7927 283.736,71.4787 283.968,72.1469 284.201,72.7971 284.434,73.4291 284.667,74.0425 284.899,74.6373 285.132,75.2134 285.365,75.7708 285.598,76.3095 285.83,76.8295 286.063,77.331 286.296,77.8142 286.529,78.2792 286.761,78.7262 286.994,79.1555 287.227,79.5674 287.459,79.9622 287.692,80.3403 287.925,80.702 288.158,81.0477 288.39,81.3778 288.623,81.6927 288.856,81.9928 289.089,82.2786 289.321,82.5505 289.554,82.809 289.787,83.0544 290.02,83.2873 290.252,83.5081 290.485,83.7173 290.718,83.9153 290.95,84.1025 291.183,84.2794 291.416,84.4464 291.649,84.604 291.881,84.7525 292.114,84.8924 292.347,85.0241 292.58,85.1479 292.812,85.2643 293.045,85.3736 293.278,85.4761 293.51,85.5723 293.743,85.6624 293.976,85.7467 294.209,85.8257 294.441,85.8995 294.674,85.9684 294.907,86.0328 295.14,86.0929 295.372,86.1489 295.605,86.2012 295.838,86.2498 296.071,86.2951 296.303,86.3372 296.536,86.3763 296.769,86.4127 297.001,86.4464 297.234,86.4778 297.467,86.5068 297.7,86.5337 297.932,86.5587 298.165,86.5818 298.398,86.6031 298.631,86.6229 298.863,86.6412 299.096,86.6581 299.329,86.6736 299.562,86.688 299.794,86.7013 300.027,86.7135 300.26,86.7248 300.492,86.7352 300.725,86.7447 300.958,86.7535 301.191,86.7616 301.423,86.7691 301.656,86.7759 301.889,86.7822 302.122,86.788 302.354,86.7933 302.587,86.7981 302.82,86.8026 303.053,86.8067 303.285,86.8105 303.518,86.8139 303.751,86.8171 303.983,86.8199 304.216,86.8226 304.449,86.825 304.682,86.8272 304.914,86.8293 305.147,86.8311 305.38,86.8329 305.613,86.8344 305.845,86.8359 306.078,86.8372 306.311,86.8384 306.544,86.8395 306.776,86.8405 307.009,86.8414 307.242,86.8423 307.474,86.8431 307.707,86.8438 307.94,86.8445 308.173,86.8452 308.405,86.8458 308.638,86.8463 308.871,86.8469 309.104,86.8474 309.336,86.8478 309.569,86.8483 309.802,86.8487 310.035,86.8492 310.267,86.8496 310.5,86.85 310.733,86.8504 310.965,86.8508 311.198,86.8513 311.431,86.8517 311.664,86.8522 311.896,86.8527 312.129,86.8531 312.362,86.8537 312.595,86.8542 312.827,86.8548 313.06,86.8555 313.293,86.8562 313.526,86.8569 313.758,86.8577 313.991,86.8586 314.224,86.8595 314.456,86.8605 314.689,86.8616 314.922,86.8628 315.155,86.8642 315.387,86.8656 315.62,86.8671 315.853,86.8689 316.086,86.8707 316.318,86.8728 316.551,86.875 316.784,86.8774 317.017,86.8801 317.249,86.8829 317.482,86.8861 317.715,86.8895 317.947,86.8933 318.18,86.8974 318.413,86.9019 318.646,86.9067 318.878,86.912 319.111,86.9178 319.344,86.9241 319.577,86.9309 319.809,86.9384 320.042,86.9465 320.275,86.9553 320.508,86.9648 320.74,86.9752 320.973,86.9865 321.206,86.9987 321.438,87.012 321.671,87.0264 321.904,87.042 322.137,87.0588 322.369,87.0771 322.602,87.0969 322.835,87.1182 323.068,87.1413 323.3,87.1663 323.533,87.1932 323.766,87.2222 323.999,87.2536 324.231,87.2873 324.464,87.3237 324.697,87.3628 324.929,87.4049 325.162,87.4502 325.395,87.4988 325.628,87.5511 325.86,87.6071 326.093,87.6672 326.326,87.7316 326.559,87.8005 326.791,87.8744 327.024,87.9533 327.257,88.0377 327.49,88.1277 327.722,88.2239 327.955,88.3264 328.188,88.4357 328.42,88.5521 328.653,88.6759 328.886,88.8076 329.119,88.9475 329.351,89.096 329.584,89.2536 329.817,89.4206 330.05,89.5975 330.282,89.7847 330.515,89.9827 330.748,90.1919 330.98,90.4127 331.213,90.6456 331.446,90.891 331.679,91.1495 331.911,91.4214 332.144,91.7072 332.377,92.0073 332.61,92.3222 332.842,92.6523 333.075,92.998 333.308,93.3597 333.541,93.7378 333.773,94.1326 334.006,94.5445 334.239,94.9738 334.471,95.4209 334.704,95.8858 334.937,96.369 335.17,96.8705 335.402,97.3905 335.635,97.9292 335.868,98.4866 336.101,99.0627 336.333,99.6575 336.566,100.271 336.799,100.903 337.032,101.553 337.264,102.221 337.497,102.907 337.73,103.611 337.962,104.331 338.195,105.068 338.428,105.82 338.661,106.588 338.893,107.37 339.126,108.166 339.359,108.974 339.592,109.795 339.824,110.626 340.057,111.467 340.29,112.317 340.523,113.174 340.755,114.037 340.988,114.905 341.221,115.776 341.453,116.65 341.686,117.523 341.919,118.396 342.152,119.266 342.384,120.131 342.617,120.99 342.85,121.842 343.083,122.684 343.315,123.514 343.548,124.331 343.781,125.134 344.014,125.919 344.246,126.686 344.479,127.433 344.712,128.157 344.944,128.858 345.177,129.533 345.41,130.181 345.643,130.8 345.875,131.389 346.108,131.945 346.341,132.469 346.574,132.958 346.806,133.411 347.039,133.826 347.272,134.204 347.505,134.542 347.737,134.839 347.97,135.096 348.203,135.311 348.435,135.484 348.668,135.614 348.901,135.701 349.134,135.745 349.366,135.745 349.599,135.701 349.832,135.614 350.065,135.484 350.297,135.311 350.53,135.096 350.763,134.839 350.995,134.542 351.228,134.204 351.461,133.826 351.694,133.411 351.926,132.958 352.159,132.469 352.392,131.945 352.625,131.389 352.857,130.8 353.09,130.181 353.323,129.533 353.556,128.858 353.788,128.157 354.021,127.433 354.254,126.686 354.486,125.919 354.719,125.134 354.952,124.331 355.185,123.514 355.417,122.684 355.65,121.842 355.883,120.99 356.116,120.131 356.348,119.266 356.581,118.396 356.814,117.523 357.047,116.65 357.279,115.776 357.512,114.905 357.745,114.037 357.977,113.174 358.21,112.317 358.443,111.467 358.676,110.626 358.908,109.795 359.141,108.974 359.374,108.166 359.607,107.37 359.839,106.588 360.072,105.82 360.305,105.068 360.538,104.331 360.77,103.611 361.003,102.907 361.236,102.221 361.468,101.553 361.701,100.903 361.934,100.271 362.167,99.6575 362.399,99.0627 362.632,98.4866 362.865,97.9292 363.098,97.3905 363.33,96.8705 363.563,96.369 363.796,95.8858 364.029,95.4209 364.261,94.9738 364.494,94.5445 364.727,94.1326 364.959,93.7378 365.192,93.3597 365.425,92.998 365.658,92.6523 365.89,92.3222 366.123,92.0073 366.356,91.7072 366.589,91.4214 366.821,91.1495 367.054,90.891 367.287,90.6456 367.52,90.4127 367.752,90.1919 367.985,89.9827 368.218,89.7847 368.45,89.5975 368.683,89.4206 368.916,89.2536 369.149,89.096 369.381,88.9475 369.614,88.8076 369.847,88.6759 370.08,88.5521 370.312,88.4357 370.545,88.3264 370.778,88.2239 371.011,88.1277 371.243,88.0377 371.476,87.9533 371.709,87.8744 371.941,87.8005 372.174,87.7316 372.407,87.6672 372.64,87.6071 372.872,87.5511 373.105,87.4988 373.338,87.4502 373.571,87.4049 373.803,87.3628 374.036,87.3237 374.269,87.2873 374.502,87.2536 374.734,87.2222 374.967,87.1932 375.2,87.1663 375.432,87.1413 375.665,87.1182 375.898,87.0969 376.131,87.0771 376.363,87.0588 376.596,87.042 376.829,87.0264 377.062,87.012 377.294,86.9987 377.527,86.9865 377.76,86.9752 377.992,86.9648 378.225,86.9553 378.458,86.9465 378.691,86.9384 378.923,86.9309 379.156,86.9241 379.389,86.9178 379.622,86.912 379.854,86.9067 380.087,86.9019 380.32,86.8974 380.553,86.8933 380.785,86.8895 381.018,86.8861 381.251,86.8829 381.483,86.8801 381.716,86.8774 381.949,86.875 382.182,86.8728 382.414,86.8707 382.647,86.8689 382.88,86.8671 383.113,86.8656 383.345,86.8642 383.578,86.8628 383.811,86.8616 384.044,86.8605 384.276,86.8595 384.509,86.8586 384.742,86.8577 384.974,86.8569 385.207,86.8562 385.44,86.8555 385.673,86.8548 385.905,86.8542 386.138,86.8537 386.371,86.8531 386.604,86.8527 386.836,86.8522 387.069,86.8517 387.302,86.8513 387.535,86.8508 387.767,86.8504 388,86.85 388.233,86.8496 388.465,86.8492 388.698,86.8487 388.931,86.8483 389.164,86.8478 389.396,86.8474 389.629,86.8469 389.862,86.8463 390.095,86.8458 390.327,86.8452 390.56,86.8445 390.793,86.8438 391.026,86.8431 391.258,86.8423 391.491,86.8414 391.724,86.8405 391.956,86.8395 392.189,86.8384 392.422,86.8372 392.655,86.8359 392.887,86.8344 393.12,86.8329 393.353,86.8311 393.586,86.8293 393.818,86.8272 394.051,86.825 394.284,86.8226 394.517,86.8199 394.749,86.8171 394.982,86.8139 395.215,86.8105 395.447,86.8067 395.68,86.8026 395.913,86.7981 396.146,86.7933 396.378,86.788 396.611,86.7822 396.844,86.7759 397.077,86.7691 397.309,86.7616 397.542,86.7535 397.775,86.7447 398.008,86.7352 398.24,86.7248 398.473,86.7135 398.706,86.7013 398.938,86.688 399.171,86.6736 399.404,86.6581 399.637,86.6412 399.869,86.6229 400.102,86.6031 400.335,86.5818 400.568,86.5587 400.8,86.5337 401.033,86.5068 401.266,86.4778 401.499,86.4464 401.731,86.4127 401.964,86.3763 402.197,86.3372 402.429,86.2951 402.662,86.2498 402.895,86.2012 403.128,86.1489 403.36,86.0929 403.593,86.0328 403.826,85.9684 404.059,85.8995 404.291,85.8257 404.524,85.7467 404.757,85.6624 404.99,85.5723 405.222,85.4761 405.455,85.3736 405.688,85.2643 405.92,85.1479 406.153,85.0241 406.386,84.8924 406.619,84.7525 406.851,84.604 407.084,84.4464 407.317,84.2794 407.55,84.1025 407.782,83.9153 408.015,83.7173 408.248,83.5081 408.48,83.2873 408.713,83.0544 408.946,82.809 409.179,82.5505 409.411,82.2786 409.644,81.9928 409.877,81.6927 410.11,81.3778 410.342,81.0477 410.575,80.702 410.808,80.3403 411.041,79.9622 411.273,79.5674 411.506,79.1555 411.739,78.7262 411.971,78.2792 412.204,77.8142 412.437,77.331 412.67,76.8295 412.902,76.3095 413.135,75.7708 413.368,75.2134 413.601,74.6373 413.833,74.0425 414.066,73.4291 414.299,72.7971 414.532,72.1469 414.764,71.4787 414.997,70.7927 415.23,70.0893 415.462,69.3691 415.695,68.6324 415.928,67.8799 416.161,67.1123 416.393,66.3302 416.626,65.5344 416.859,64.7259 417.092,63.9055 417.324,63.0742 417.557,62.2332 417.79,61.3835 418.023,60.5264 418.255,59.6632 418.488,58.7952 418.721,57.9237 418.953,57.0504 419.186,56.1767 419.419,55.3041 419.652,54.4342 419.884,53.5689 420.117,52.7096 420.35,51.8582 420.583,51.0164 420.815,50.186 421.048,49.3688 421.281,48.5665 421.514,47.781 421.746,47.014 421.979,46.2674 422.212,45.5429 422.444,44.8422 422.677,44.1671 422.91,43.5192 423.143,42.9001 423.375,42.3113 423.608,41.7545 423.841,41.231 424.074,40.7422 424.306,40.2894 424.539,39.8738 424.772,39.4965 425.005,39.1584 425.237,38.8606 425.47,38.6037 425.703,38.3886 425.935,38.2158 426.168,38.0858 426.401,37.9989 426.634,37.9554 426.866,37.9554 427.099,37.9989 427.332,38.0858 427.565,38.2158 427.797,38.3886 428.03,38.6037 428.263,38.8606 428.495,39.1584 428.728,39.4965 428.961,39.8738 429.194,40.2894 429.426,40.7422 429.659,41.231 429.892,41.7545 430.125,42.3113 430.357,42.9001 430.59,43.5192 430.823,44.1671 431.056,44.8422 431.288,45.5429 431.521,46.2674 431.754,47.014 431.986,47.781 432.219,48.5665 432.452,49.3688 432.685,50.186 432.917,51.0164 433.15,51.8582 433.383,52.7096 433.616,53.5689 433.848,54.4342 434.081,55.3041 434.314,56.1767 434.547,57.0504 434.779,57.9237 435.012,58.7952 435.245,59.6632 435.478,60.5264 435.71,61.3835 435.943,62.2332 436.176,63.0742 436.408,63.9055 436.641,64.7259 436.874,65.5344 437.107,66.3302 437.339,67.1123 437.572,67.8799 437.805,68.6324 438.038,69.3691 438.27,70.0893 438.503,70.7927 438.736,71.4787 438.969,72.1469 439.201,72.7971 439.434,73.4291 439.667,74.0425 439.899,74.6373 440.132,75.2134 440.365,75.7708 440.598,76.3095 440.83,76.8295 441.063,77.331 441.296,77.8142 441.529,78.2792 441.761,78.7262 441.994,79.1555 442.227,79.5674 442.459,79.9622 442.692,80.3403 442.925,80.702 443.158,81.0477 443.39,81.3778 443.623,81.6927 443.856,81.9928 444.089,82.2786 444.321,82.5505 444.554,82.809 444.787,83.0544 445.02,83.2873 445.252,83.5081 445.485,83.7173 445.718,83.9153 445.951,84.1025 446.183,84.2794 446.416,84.4464 446.649,84.604 446.881,84.7525 447.114,84.8924 447.347,85.0241 447.58,85.1479 447.812,85.2643 448.045,85.3736 448.278,85.4761 448.511,85.5723 448.743,85.6624 448.976,85.7467 449.209,85.8257 449.441,85.8995 449.674,85.9684 449.907,86.0328 450.14,86.0929 450.372,86.1489 450.605,86.2012 450.838,86.2498 451.071,86.2951 451.303,86.3372 451.536,86.3763 451.769,86.4127 452.002,86.4464 452.234,86.4778 452.467,86.5068 452.7,86.5337 452.932,86.5587 453.165,86.5818 453.398,86.6031 453.631,86.6229 453.863,86.6412 454.096,86.6581 454.329,86.6736 454.562,86.688 454.794,86.7013 455.027,86.7135 455.26,86.7248 455.492,86.7352 455.725,86.7447 455.958,86.7535 456.191,86.7616 456.423,86.7691 456.656,86.7759 456.889,86.7822 457.122,86.788 457.354,86.7933 457.587,86.7981 457.82,86.8026 458.053,86.8067 458.285,86.8105 458.518,86.8139 458.751,86.8171 458.983,86.8199 459.216,86.8226 459.449,86.825 459.682,86.8272 459.914,86.8293 460.147,86.8311 460.38,86.8329 460.613,86.8344 460.845,86.8359 461.078,86.8372 461.311,86.8384 461.544,86.8395 461.776,86.8405 462.009,86.8414 462.242,86.8423 462.474,86.8431 462.707,86.8438 462.94,86.8445 463.173,86.8452 463.405,86.8458 463.638,86.8463 463.871,86.8469 464.104,86.8474 464.336,86.8478 464.569,86.8483 464.802,86.8487 465.035,86.8492 465.267,86.8496 465.5,86.85 465.733,86.8504 465.965,86.8508 466.198,86.8513 466.431,86.8517 466.664,86.8522 466.896,86.8527 467.129,86.8531 467.362,86.8537 467.595,86.8542 467.827,86.8548 468.06,86.8555 468.293,86.8562 468.526,86.8569 468.758,86.8577 468.991,86.8586 469.224,86.8595 469.456,86.8605 469.689,86.8616 469.922,86.8628 470.155,86.8642 470.387,86.8656 470.62,86.8671 470.853,86.8689 471.086,86.8707 471.318,86.8728 471.551,86.875 471.784,86.8774 472.017,86.8801 472.249,86.8829 472.482,86.8861 472.715,86.8895 472.947,86.8933 473.18,86.8974 473.413,86.9019 473.646,86.9067 473.878,86.912 474.111,86.9178 474.344,86.9241 474.577,86.9309 474.809,86.9384 475.042,86.9465 475.275,86.9553 475.508,86.9648 475.74,86.9752 475.973,86.9865 476.206,86.9987 476.438,87.012 476.671,87.0264 476.904,87.042 477.137,87.0588 477.369,87.0771 477.602,87.0969 477.835,87.1182 478.068,87.1413 478.3,87.1663 478.533,87.1932 478.766,87.2222 478.999,87.2536 479.231,87.2873 479.464,87.3237 479.697,87.3628 479.929,87.4049 480.162,87.4502 480.395,87.4988 480.628,87.5511 480.86,87.6071 481.093,87.6672 481.326,87.7316 481.559,87.8005 481.791,87.8744 482.024,87.9533 482.257,88.0377 482.49,88.1277 482.722,88.2239 482.955,88.3264 483.188,88.4357 483.42,88.5521 483.653,88.6759 483.886,88.8076 484.119,88.9475 484.351,89.096 484.584,89.2536 484.817,89.4206 485.05,89.5975 485.282,89.7847 485.515,89.9827 485.748,90.1919 485.98,90.4127 486.213,90.6456 486.446,90.891 486.679,91.1495 486.911,91.4214 487.144,91.7072 487.377,92.0073 487.61,92.3222 487.842,92.6523 488.075,92.998 488.308,93.3597 488.541,93.7378 488.773,94.1326 489.006,94.5445 489.239,94.9738 489.471,95.4209 489.704,95.8858 489.937,96.369 490.17,96.8705 490.402,97.3905 490.635,97.9292 490.868,98.4866 491.101,99.0627 491.333,99.6575 491.566,100.271 491.799,100.903 492.032,101.553 492.264,102.221 492.497,102.907 492.73,103.611 492.962,104.331 493.195,105.068 493.428,105.82 493.661,106.588 493.893,107.37 494.126,108.166 494.359,108.974 494.592,109.795 494.824,110.626 495.057,111.467 495.29,112.317 495.523,113.174 495.755,114.037 495.988,114.905 496.221,115.776 496.453,116.65 496.686,117.523 496.919,118.396 497.152,119.266 497.384,120.131 497.617,120.99 497.85,121.842 498.083,122.684 498.315,123.514 498.548,124.331 498.781,125.134 499.014,125.919 499.246,126.686 499.479,127.433 499.712,128.157 499.944,128.858 500.177,129.533 500.41,130.181 500.643,130.8 500.875,131.389 501.108,131.945 501.341,132.469 501.574,132.958 501.806,133.411 502.039,133.826 502.272,134.204 502.505,134.542 502.737,134.839 502.97,135.096 503.203,135.311 503.435,135.484 503.668,135.614 503.901,135.701 504.134,135.745 504.366,135.745 504.599,135.701 504.832,135.614 505.065,135.484 505.297,135.311 505.53,135.096 505.763,134.839 505.995,134.542 506.228,134.204 506.461,133.826 506.694,133.411 506.926,132.958 507.159,132.469 507.392,131.945 507.625,131.389 507.857,130.8 508.09,130.181 508.323,129.533 508.556,128.858 508.788,128.157 509.021,127.433 509.254,126.686 509.486,125.919 509.719,125.134 509.952,124.331 510.185,123.514 510.417,122.684 510.65,121.842 510.883,120.99 511.116,120.131 511.348,119.266 511.581,118.396 511.814,117.523 512.047,116.65 512.279,115.776 512.512,114.905 512.745,114.037 512.977,113.174 513.21,112.317 513.443,111.467 513.676,110.626 513.908,109.795 514.141,108.974 514.374,108.166 514.607,107.37 514.839,106.588 515.072,105.82 515.305,105.068 515.538,104.331 515.77,103.611 516.003,102.907 516.236,102.221 516.469,101.553 516.701,100.903 516.934,100.271 517.167,99.6575 517.399,99.0627 517.632,98.4866 517.865,97.9292 518.098,97.3905 518.33,96.8705 518.563,96.369 518.796,95.8858 519.029,95.4209 519.261,94.9738 519.494,94.5445 519.727,94.1326 519.959,93.7378 520.192,93.3597 520.425,92.998 520.658,92.6523 520.89,92.3222 521.123,92.0073 521.356,91.7072 521.589,91.4214 521.821,91.1495 522.054,90.891 522.287,90.6456 522.52,90.4127 522.752,90.1919 522.985,89.9827 523.218,89.7847 523.451,89.5975 523.683,89.4206 523.916,89.2536 524.149,89.096 524.381,88.9475 524.614,88.8076 524.847,88.6759 525.08,88.5521 525.312,88.4357 525.545,88.3264 525.778,88.2239 526.01,88.1277 526.243,88.0377 526.476,87.9533 526.709,87.8744 526.941,87.8005 527.174,87.7316 527.407,87.6672 527.64,87.6071 527.872,87.5511 528.105,87.4988 528.338,87.4502 528.571,87.4049 528.803,87.3628 529.036,87.3237 529.269,87.2873 529.502,87.2536 529.734,87.2222 529.967,87.1932 530.2,87.1663 530.432,87.1413 530.665,87.1182 530.898,87.0969 531.131,87.0771 531.363,87.0588 531.596,87.042 531.829,87.0264 532.062,87.012 532.294,86.9987 532.527,86.9865 532.76,86.9752 532.993,86.9648 533.225,86.9553 533.458,86.9465 533.691,86.9384 533.923,86.9309 534.156,86.9241 534.389,86.9178 534.622,86.912 534.854,86.9067 535.087,86.9019 535.32,86.8974 535.553,86.8933 535.785,86.8895 536.018,86.8861 536.251,86.8829 536.484,86.8801 536.716,86.8774 536.949,86.875 537.182,86.8728 537.414,86.8707 537.647,86.8689 537.88,86.8671 538.113,86.8656 538.345,86.8642 538.578,86.8628 538.811,86.8616 539.044,86.8605 539.276,86.8595 539.509,86.8586 539.742,86.8577 539.974,86.8569 540.207,86.8562 540.44,86.8555 540.673,86.8548 540.905,86.8542 541.138,86.8537 541.371,86.8531 541.604,86.8527 541.836,86.8522 542.069,86.8517 542.302,86.8513 542.535,86.8508 542.767,86.8504 543,86.85"/>
</g>
<clipPath id="cp00600180">
  <polygon points="0,180 600,180 600,0 0,0"/>
</clipPath>
<g clip-path="url(#cp00600180)">
</g>
</g>
</svg>
