<?xml-stylesheet type="text/css" href="https://fonts.googleapis.com/css?family=Open+Sans:300italic,400italic,600italic,700italic,400,600,700,300&amp;subset=latin,cyrillic-ext,latin-ext,cyrillic" ?><svg xmlns="http://www.w3.org/2000/svg" viewBox="0 0 600 160"><path fill="#fff" d="M0 0h600v160H0z"/><path fill="#fefefe" shape-rendering="crispEdges" d="M0 160h600V0H0z"/><clipPath id="a"><path d="M0 160h600V0H0z"/></clipPath><g clip-path="url(#a)"><path fill="#fff" shape-rendering="crispEdges" d="M60 133.333h500L60 4.444z"/><path fill="#fff" shape-rendering="crispEdges" d="M560 133.333V4.444H60z"/><path fill="none" stroke="#262626" stroke-width=".5" d="M60 133.333h5M560 133.333h-5M60 111.852h5M560 111.852h-5M60 90.37h5M560 90.37h-5M60 68.889h5M560 68.889h-5M60 47.407h5M560 47.407h-5M60 25.926h5M560 25.926h-5M60 4.444h5M560 4.444h-5"/><text fill="#262626" x="55" y="133.333" font-size="10" text-anchor="end" dy="5" font-family="Open Sans">-1.5</text><text fill="#262626" x="55" y="111.852" font-size="10" text-anchor="end" dy="5" font-family="Open Sans">-1</text><text fill="#262626" x="55" y="90.37" font-size="10" text-anchor="end" dy="5" font-family="Open Sans">-0.5</text><text fill="#262626" x="55" y="68.889" font-size="10" text-anchor="end" dy="5" font-family="Open Sans">0</text><text fill="#262626" x="55" y="47.407" font-size="10" text-anchor="end" dy="5" font-family="Open Sans">0.5</text><text fill="#262626" x="55" y="25.926" font-size="10" text-anchor="end" dy="5" font-family="Open Sans">1</text><text fill="#262626" x="55" y="4.444" font-size="10" text-anchor="end" dy="5" font-family="Open Sans">1.5</text><path fill="none" stroke="#262626" stroke-width=".5" stroke-dasharray="16,0" d="M60 133.333h500M60 4.444h500M60 133.333V4.444M560 133.333V4.444"/><path fill="none" stroke="#0071bc" stroke-width=".5" d="M60 68.889h.5l.25-.001h.251l.25-.001h.5l.251-.001h.25l.25-.001h.25l.251-.002h.5l.25-.002h.251l.25-.001.25-.001.25-.001.251-.002h.25l.25-.002.25-.002.251-.001.25-.002.25-.002.25-.002.251-.002.25-.003.25-.003.25-.003.251-.003.25-.004.25-.004.25-.004.251-.005.25-.005.25-.005.25-.006.251-.007.25-.007.25-.008.25-.008.251-.01.25-.009.25-.01.25-.012.251-.013.25-.014.25-.015.25-.016.251-.017.25-.019.25-.02.25-.022.251-.024.25-.025.25-.028.25-.03.251-.031.25-.035.25-.037.25-.04.251-.042.25-.046.25-.05.25-.052.251-.057.25-.06.25-.065.25-.07.251-.074.25-.079.25-.084.25-.09.251-.096.25-.103.25-.108.25-.116.251-.123.25-.13.25-.139.25-.147.251-.155.25-.164.25-.175.25-.183.251-.194.25-.205.25-.216.25-.227.251-.239.25-.25.25-.264.25-.277.251-.29.25-.304.25-.318.25-.332.251-.347.25-.361.25-.378.25-.392.251-.409.25-.424.25-.441.25-.457.251-.473.25-.49.25-.506.25-.523.251-.539.25-.555.25-.571.25-.587.251-.603.25-.618.25-.633.25-.647.251-.661.25-.674.25-.688.25-.699.251-.71.25-.72.25-.731.25-.74.251-.746.25-.753.25-.758.25-.763.251-.765.25-.768.25-.767.25-.767.251-.764.25-.76.25-.755.25-.748.251-.74.25-.73.25-.718.25-.705.251-.69.25-.674.25-.656.25-.636.251-.616.25-.593.25-.57.25-.543.251-.517.25-.49.25-.46.25-.429.251-.398.25-.365.25-.331.25-.297.251-.262.25-.226.251-.189.25-.151.25-.115.25-.076.251-.038h.25l.25.038.25.076.251.114.25.152.25.19.25.225.251.262.25.297.25.331.25.365.251.398.25.43.25.46.25.489.251.517.25.544.25.57.25.592.251.616.25.636.25.657.25.673.251.69.25.705.25.718.25.73.251.74.25.748.25.755.25.76.251.764.25.767.25.767.25.768.251.765.25.763.25.758.25.753.251.747.25.739.25.73.25.72.251.711.25.7.25.687.25.674.251.661.25.647.25.633.25.618.251.603.25.587.25.571.25.555.251.54.25.522.25.506.25.49.251.473.25.457.25.44.25.425.251.409.25.392.25.378.25.361.251.347.25.332.25.318.25.304.251.29.25.277.25.263.25.252.251.238.25.227.25.216.25.205.251.194.25.183.25.175.25.164.251.155.25.147.25.139.25.13.251.123.25.116.25.108.25.103.251.096.25.09.25.084.25.08.251.074.25.069.25.065.25.06.251.057.25.053.25.049.25.046.251.043.25.04.25.036.25.035.251.032.25.03.25.027.25.025.251.024.25.022.25.02.25.019.251.017.25.016.25.015.25.014.251.013.25.011.25.011.25.01.251.009.25.008.25.008.25.007.251.007.25.006.25.005.25.005.251.005.25.004.25.004.25.004.251.003.25.003.25.003.25.002.251.003.25.002.25.002.25.002.251.001.25.002.25.001.25.001.251.002h.25l.25.002h.25l.251.001.25.001h.25l.25.001.251.001h.25l.25.001h.25l.251.001h.25l.25.001h.501l.25.001h.5l.251.001h.25l.25.001h.501l.25.001h.25l.25.001h.251l.25.001h.25l.25.001h.251l.25.002h.25l.25.001.251.001.25.001.25.001.25.001.251.002.25.001.25.002.25.001.251.002.25.002.25.002.25.002.251.003.25.003.25.003.25.003.251.003.25.004.25.005.25.004.251.005.25.006.25.006.25.007.251.007.25.007.25.009.25.009.251.01.25.01.25.012.25.013.251.014.25.014.25.016.25.018.251.019.25.02.25.022.25.023.251.026.25.028.25.03.25.031.251.034.25.037.25.04.25.043.251.046.25.05.25.052.25.056.251.061.25.065.25.07.25.073.251.08.25.084.25.09.25.096.251.102.25.11.25.115.25.123.251.13.25.139.25.146.25.156.251.164.25.174.25.184.25.194.251.205.25.215.25.227.25.24.251.25.25.264.25.277.25.29.251.303.25.318.25.332.25.347.251.362.25.377.25.393.25.409.251.424.25.44.25.458.25.473.251.49.25.506.25.522.25.54.251.555.25.57.25.588.25.603.251.618.25.632.25.648.25.66.251.675.25.687.25.7.25.71.251.72.25.731.25.739.25.746.251.753.25.759.25.762.25.766.251.767.25.768.25.767.25.764.251.76.25.755.25.748.25.74.251.729.25.718.25.705.25.69.251.674.25.656.25.637.25.615.251.594.25.569.25.544.25.517.251.489.25.46.25.43.25.397.251.366.25.331.25.297.25.262.251.225.25.189.25.152.25.115.251.076.25.038h.25l.25-.038.251-.076.25-.115.25-.152.25-.189.251-.225.25-.262.25-.297.25-.331.251-.366.25-.397.25-.43.25-.46.251-.489.25-.517.25-.544.25-.569.251-.594.25-.615.25-.637.25-.656.251-.674.25-.69.25-.705.25-.718.251-.729.25-.74.25-.748.25-.755.251-.76.25-.764.25-.767.25-.767.251-.768.25-.766.25-.762.25-.759.251-.753.25-.746.25-.739.25-.73.251-.721.25-.71.25-.7.25-.687.251-.674.25-.661.25-.648.25-.632.251-.618.25-.603.25-.587.25-.571.251-.556.25-.539.25-.522.25-.506.251-.49.25-.473.25-.457.25-.44.251-.425.25-.409.25-.393.25-.377.251-.362.25-.347.25-.332.25-.318.251-.303.25-.29.25-.277.25-.264.251-.25.25-.24.25-.227.25-.215.251-.205.25-.194.25-.184.25-.174.251-.164.25-.156.25-.146.25-.139.251-.13.25-.123.25-.116.25-.109.251-.102.25-.096.25-.09.25-.085.251-.079.25-.074.25-.07.25-.064.251-.06.25-.057.25-.053.25-.05.251-.045.25-.043.25-.04.25-.037.251-.034.25-.032.25-.03.25-.027.251-.026.25-.023.25-.022.25-.02.251-.02.25-.017.25-.016.25-.014.251-.014.25-.013.25-.011.25-.011.251-.01.25-.01.25-.008.25-.007.251-.008.25-.006.25-.006.25-.005.251-.006.25-.004.25-.004.25-.005.251-.003.25-.003.25-.003.25-.003.251-.003.25-.002.25-.002.25-.002.251-.002.25-.001.25-.002.25-.001.251-.002h.25l.25-.002h.25l.251-.002h.25l.25-.001.25-.001h.251l.25-.001h.25l.25-.001h.251l.25-.001h.25l.25-.001h.251l.25-.001h.5l.251-.001h.5l.25-.001h.251l.25-.001h.5l.251-.001h.25l.25-.001h.25l.251-.002h.5l.25-.002h.251l.25-.001.25-.001.25-.001.251-.002h.25l.25-.002.25-.002.251-.001.25-.002.25-.002.25-.002.251-.002.25-.003.25-.003.25-.003.251-.003.25-.004.25-.004.25-.004.251-.005.25-.005.25-.005.25-.006.251-.007.25-.007.25-.008.25-.008.251-.01.25-.009.25-.01.25-.012.251-.013.25-.014.25-.015.25-.016.251-.017.25-.019.25-.02.25-.022.251-.024.25-.025.25-.028.25-.03.251-.031.25-.035.25-.037.25-.04.251-.042.25-.046.25-.05.25-.052.251-.057.25-.06.25-.065.25-.07.251-.074.25-.079.25-.084.25-.09.251-.096.25-.103.25-.108.25-.116.251-.123.25-.13.25-.139.25-.147.251-.155.25-.164.25-.175.25-.183.251-.194.25-.205.25-.216.25-.227.251-.239.25-.25.25-.264.25-.277.251-.29.25-.304.25-.318.25-.332.251-.347.25-.361.25-.378.25-.392.251-.409.25-.424.25-.441.25-.457.251-.473.25-.49.25-.506.25-.523.251-.539.25-.555.25-.571.25-.587.251-.603.25-.618.25-.633.25-.647.251-.661.25-.674.25-.688.25-.699.251-.71.25-.72.25-.731.25-.74.251-.746.25-.753.25-.758.25-.763.251-.765.25-.768.25-.767.25-.767.251-.764.25-.76.25-.755.25-.748.251-.74.25-.73.25-.718.25-.705.251-.69.25-.674.25-.656.25-.636.251-.616.25-.593.25-.57.25-.543.251-.517.25-.49.25-.46.25-.429.251-.398.25-.365.25-.331.25-.297.251-.262.25-.226.25-.189.25-.151.251-.115.25-.076.25-.038h.25l.251.038.25.076.25.114.25.152.251.19.25.225.25.262.25.297.251.331.25.365.25.398.25.43.251.46.25.489.25.517.25.544.251.57.25.592.25.616.25.636.251.657.25.673.25.69.25.705.251.718.25.73.25.74.25.748.251.755.25.76.25.764.25.767.251.767.25.768.25.765.25.763.251.758.25.753.25.747.25.739.251.73.25.72.25.711.25.7.251.687.25.674.25.661.25.647.251.633.25.618.25.603.25.587.251.571.25.555.25.54.25.522.251.506.25.49.25.473.25.457.251.44.25.425.25.409.25.392.251.378.25.361.25.347.25.332.251.318.25.304.25.29.25.277.251.263.25.252.25.238.25.227.251.216.25.205.25.194.25.183.251.175.25.164.25.155.25.147.251.139.25.13.25.123.25.116.251.108.25.103.25.096.25.09.251.084.25.08.25.074.25.069.251.065.25.06.25.057.25.053.251.049.25.046.25.043.25.04.251.036.25.035.25.032.25.03.251.027.25.025.25.024.25.022.251.02.25.019.25.017.25.016.251.015.25.014.25.013.25.011.251.011.25.01.25.009.25.008.251.008.25.007.25.007.25.006.251.005.25.005.25.005.25.004.251.004.25.004.25.003.25.003.251.003.25.002.25.003.25.002.251.002.25.002.25.001.25.002.251.001.25.001.25.002h.25l.251.002h.25l.25.001.25.001h.251l.25.001.25.001h.25l.251.001h.25l.25.001h.25l.251.001h.5l.25.001H310l.25.001h.25l.251.001h.5l.25.001h.251l.25.001h.25l.251.001h.25l.25.001h.25l.25.002h.251l.25.001.25.001.25.001.251.001.25.001.25.002.25.001.251.002.25.001.25.002.251.002.25.002.25.002.25.003.251.003.25.003.25.003.25.003.25.004.251.005.25.004.25.005.25.006.251.006.25.007.25.007.25.007.251.009.25.009.25.01.251.01.25.012.25.013.25.014.25.014.251.016.25.018.25.019.25.02.251.022.25.023.25.026.25.028.251.03.25.031.25.034.251.037.25.04.25.043.25.046.251.05.25.052.25.056.25.061.251.065.25.07.25.073.25.08.251.084.25.09.25.096.25.102.251.11.25.115.25.123.25.13.251.139.25.146.25.156.25.164.251.174.25.184.25.194.25.205.251.215.25.227.25.24.25.25.251.264.25.277.25.29.25.303.251.318.25.332.25.347.25.362.251.377.25.393.25.409.25.424.251.44.25.458.25.473.25.49.251.506.25.522.25.54.25.555.251.57.25.588.25.603.25.618.251.632.25.648.25.66.25.675.251.687.25.7.25.71.25.72.251.731.25.739.25.746.25.753.251.759.25.762.25.766.25.767.251.768.25.767.25.764.25.76.251.755.25.748.25.74.25.729.251.718.25.705.25.69.25.674.251.656.25.637.25.615.25.594.251.569.25.544.25.517.25.489.251.46.25.43.25.397.25.366.251.331.25.297.25.262.25.225.251.189.25.152.25.115.25.076.251.038h.25l.25-.038.25-.076.251-.115.25-.152.25-.189.25-.225.251-.262.25-.297.25-.331.25-.366.251-.397.25-.43.25-.46.25-.489.251-.517.25-.544.25-.569.25-.594.251-.615.25-.637.25-.656.25-.674.251-.69.25-.705.25-.718.25-.729.251-.74.25-.748.25-.755.25-.76.251-.764.25-.767.25-.767.25-.768.251-.766.25-.762.25-.759.25-.753.251-.746.25-.739.25-.73.25-.721.251-.71.25-.7.25-.687.25-.674.251-.661.25-.648.25-.632.25-.618.251-.603.25-.587.25-.571.25-.556.251-.539.25-.522.25-.506.25-.49.251-.473.25-.457.25-.44.25-.425.251-.409.25-.393.25-.377.25-.362.251-.347.25-.332.25-.318.25-.303.251-.29.25-.277.25-.264.25-.25.251-.24.25-.227.25-.215.25-.205.251-.194.25-.184.25-.174.25-.164.251-.156.25-.146.25-.139.25-.13.251-.123.25-.116.25-.109.25-.102.251-.096.25-.09.25-.085.25-.079.251-.074.25-.07.25-.064.25-.06.251-.057.25-.053.25-.05.25-.045.251-.043.25-.04.25-.037.25-.034.251-.032.25-.03.25-.027.25-.026.251-.023.25-.022.25-.02.25-.02.251-.017.25-.016.25-.014.25-.014.251-.013.25-.011.25-.011.25-.01.251-.01.25-.008.25-.007.25-.008.251-.006.25-.006.25-.005.25-.006.251-.004.25-.004.25-.005.25-.003.251-.003.25-.003.25-.003.25-.003.251-.002.25-.002.25-.002.25-.002.251-.001.25-.002.25-.001.25-.002h.251l.25-.002h.25l.25-.002h.251l.25-.001.25-.001h.25l.251-.001h.25l.25-.001h.25l.251-.001h.25l.25-.001h.25l.251-.001h.5l.25-.001h.501l.25-.001h.25l.251-.001h.5l.25-.001h.251l.25-.001h.25l.25-.002h.501l.25-.002h.25l.251-.001.25-.001.25-.001.25-.002h.251l.25-.002.25-.002.25-.001.251-.002.25-.002.25-.002.25-.002.251-.003.25-.003.25-.003.25-.003.251-.004.25-.004.25-.004.25-.005.251-.005.25-.005.25-.006.25-.007.251-.007.25-.008.25-.008.25-.01.251-.009.25-.01.25-.012.25-.013.251-.014.25-.015.25-.016.25-.017.251-.019.25-.02.25-.022.25-.024.251-.025.25-.028.25-.03.25-.031.251-.035.25-.037.25-.04.25-.042.251-.046.25-.05.25-.052.25-.057.251-.06.25-.065.25-.07.25-.074.251-.079.25-.084.25-.09.25-.096.251-.103.25-.108.25-.116.25-.123.251-.13.25-.139.25-.147.25-.155.251-.164.25-.175.25-.183.25-.194.251-.205.25-.216.25-.227.25-.239.251-.25.25-.264.25-.277.25-.29.251-.304.25-.318.25-.332.25-.347.251-.361.25-.378.25-.392.25-.409.251-.424.25-.441.25-.457.25-.473.251-.49.25-.506.25-.523.25-.539.251-.555.25-.571.25-.587.25-.603.251-.618.25-.633.25-.647.25-.661.251-.674.25-.688.25-.699.25-.71.251-.72.25-.731.25-.74.25-.746.251-.753.25-.758.25-.763.25-.765.251-.768.25-.767.25-.767.25-.764.251-.76.25-.755.25-.748.25-.74.251-.73.25-.718.25-.705.25-.69.251-.674.25-.656.25-.636.25-.616.251-.593.25-.57.25-.543.25-.517.251-.49.25-.46.25-.429.25-.398.251-.365.25-.331.25-.297.25-.262.251-.226.25-.189.25-.151.25-.115.251-.076.25-.038h.25l.25.038.251.076.25.114.25.152.25.19.251.225.25.262.25.297.25.331.251.365.25.398.25.43.25.46.251.489.25.517.25.544.25.57.251.592.25.616.25.636.25.657.251.673.25.69.25.705.25.718.251.73.25.74.25.748.25.755.251.76.25.764.25.767.25.767.251.768.25.765.25.763.25.758.251.753.25.747.25.739.25.73.251.72.25.711.25.7.25.687.251.674.25.661.25.647.25.633.251.618.25.603.25.587.25.571.251.555.25.54.25.522.25.506.251.49.25.473.25.457.25.44.251.425.25.409.25.392.25.378.251.361.25.347.25.332.25.318.251.304.25.29.25.277.25.263.251.252.25.238.25.227.25.216.251.205.25.194.25.183.25.175.251.164.25.155.25.147.25.139.251.13.25.123.25.116.25.108.251.103.25.096.25.09.25.084.251.08.25.074.25.069.25.065.251.06.25.057.25.053.25.049.251.046.25.043.25.04.25.036.251.035.25.032.25.03.25.027.251.025.25.024.25.022.25.02.251.019.25.017.25.016.25.015.251.014.25.013.25.011.25.011.251.01.25.009.25.008.25.008.251.007.25.007.25.006.25.005.251.005.25.005.25.004.25.004.251.004.25.003.25.003.25.003.251.002.25.003.25.002.25.002.251.002.25.001.25.002.25.001.251.001.25.002h.25l.25.002h.251l.25.001.25.001h.25l.251.001.25.001h.25l.25.001h.251l.25.001h.25l.25.001h.501l.25.001h.501l.25.001h.25l.25.001h.501l.25.001h.25l.251.001h.25l.25.001h.25l.251.001h.25l.25.002h.25l.251.001.25.001.25.001.25.001.251.001.25.002.25.001.25.002.251.001.25.002.25.002.25.002.251.002.25.003.25.003.25.003.251.003.25.003.25.004.25.005.251.004.25.005.25.006.25.006.251.007.25.007.25.007.25.009.251.009.25.01.25.01.25.012.251.013.25.014.25.014.25.016.251.018.25.019.25.02.25.022.251.023.25.026.25.028.25.03.251.031.25.034.25.037.25.04.251.043.25.046.25.05.25.052.251.056.25.061.25.065.25.07.251.073.25.08.25.084.25.09.251.096.25.102.25.11.25.115.251.123.25.13.25.139.25.146.251.156.25.164.25.174.25.184.251.194.25.205.25.215.25.227.251.24.25.25.25.264.25.277.251.29.25.303.25.318.25.332.251.347.25.362.25.377.25.393.251.409.25.424.25.44.25.458.251.473.25.49.25.506.25.522.251.54.25.555.25.57.25.588.251.603.25.618.25.632.25.648.251.66.25.675.25.687.25.7.251.71.25.72.25.731.25.739.251.746.25.753.25.759.25.762.251.766.25.767.25.768.25.767.251.764.25.76.25.755.25.748.251.74.25.729.25.718.25.705.251.69.25.674.25.656.25.637.251.615.25.594.25.569.25.544.251.517.25.489.25.46.25.43.251.397.25.366.25.331.25.297.251.262.25.225.25.189.25.152.251.115.25.076.25.038h.25l.251-.038.25-.076.25-.115.25-.152.251-.189.25-.225.25-.262.25-.297.251-.331.25-.366.25-.397.25-.43.251-.46.25-.489.25-.517.25-.544.251-.569.25-.594.25-.615.25-.637.251-.656.25-.674.25-.69.25-.705.251-.718.25-.729.25-.74.25-.748.251-.755.25-.76.25-.764.25-.767.251-.767.25-.768.25-.766.25-.762.251-.759.25-.753.25-.746.25-.739.251-.73.25-.721.25-.71.25-.7.251-.687.25-.674.25-.661.25-.648.251-.632.25-.618.25-.603.25-.587.251-.571.25-.556.25-.539.25-.522.251-.506.25-.49.25-.473.25-.457.251-.44.25-.425.25-.409.25-.393.251-.377.25-.362.25-.347.25-.332.251-.318.25-.303.25-.29.25-.277.251-.264.25-.25.25-.24.25-.227.251-.215.25-.205.25-.194.25-.184.251-.174.25-.164.25-.156.25-.146.251-.139.25-.13.25-.123.25-.116.251-.109.25-.102.25-.096.25-.09.251-.085.25-.079.25-.074.25-.07.251-.064.25-.06.25-.057.25-.053.251-.05.25-.045.25-.043.25-.04.251-.037.25-.034.25-.032.25-.03.251-.027.25-.026.25-.023.25-.022.251-.02.25-.02.25-.017.25-.016.251-.014.25-.014.25-.013.25-.011.251-.011.25-.01.25-.01.25-.008.251-.007.25-.008.25-.006.25-.006.251-.005.25-.006.25-.004.25-.004.251-.005.25-.003.25-.003.25-.003.251-.003.25-.003.25-.002.25-.002.251-.002.25-.002.25-.001.25-.002.251-.001.25-.002h.25l.25-.002h.251l.25-.002h.25l.25-.001.251-.001h.25l.25-.001h.25l.251-.001h.25l.25-.001h.25l.251-.001h.25l.25-.001h.501l.25-.001"/><path fill="none" stroke="#000" stroke-width=".5" d="M60 68.889h500"/></g></svg>