<?xml-stylesheet type="text/css" href="https://fonts.googleapis.com/css?family=Open+Sans:300italic,400italic,600italic,700italic,400,600,700,300&amp;subset=latin,cyrillic-ext,latin-ext,cyrillic" ?><svg viewBox="0 0 460 180" xmlns="http://www.w3.org/2000/svg" xmlns:xlink="http://www.w3.org/1999/xlink"><defs><style>*{stroke-linecap:butt;stroke-linejoin:round}</style></defs><g id="figure_1"><path d="M0 180h460.8V0H0z" fill="#fefefe" id="patch_1"/><g id="axes_1"><path d="M37.612 165.7H446.5V14.3H37.613z" fill="#fff" id="patch_2"/><path clip-path="url(#p332b31a9c9)" d="M37.612 90H446.5" fill="none" stroke="gray" stroke-linecap="square" stroke-width="1.5" id="line2d_1"/><g id="matplotlib.axis_2"><g id="ytick_1"><g id="line2d_2"><defs><path d="M0 0h-3.5" id="ma22c56d548" stroke="#000" stroke-width=".8"/></defs><use x="37.612" xlink:href="#ma22c56d548" y="158.818" stroke="#000" stroke-width=".8"/></g><text x="30.613" y="162.617" font-family="Open Sans" font-size="10" font-weight="400" text-anchor="end" id="text_1">−1.0</text></g><g id="ytick_2"><use x="37.612" xlink:href="#ma22c56d548" y="124.409" stroke="#000" stroke-width=".8" id="line2d_3"/><text x="30.613" y="128.208" font-family="Open Sans" font-size="10" font-weight="400" text-anchor="end" id="text_2">−0.5</text></g><g id="ytick_3"><use x="37.612" xlink:href="#ma22c56d548" y="90" stroke="#000" stroke-width=".8" id="line2d_4"/><text x="30.613" y="93.799" font-family="Open Sans" font-size="10" font-weight="400" text-anchor="end" id="text_3">0.0</text></g><g id="ytick_4"><use x="37.612" xlink:href="#ma22c56d548" y="55.591" stroke="#000" stroke-width=".8" id="line2d_5"/><text x="30.613" y="59.39" font-family="Open Sans" font-size="10" font-weight="400" text-anchor="end" id="text_4">0.5</text></g><g id="ytick_5"><use x="37.612" xlink:href="#ma22c56d548" y="21.182" stroke="#000" stroke-width=".8" id="line2d_6"/><text x="30.613" y="24.981" font-family="Open Sans" font-size="10" font-weight="400" text-anchor="end" id="text_5">1.0</text></g></g><path clip-path="url(#p332b31a9c9)" d="M37.612 90l8.206-.124 2.735-.262 1.367-.277 1.368-.453 1.367-.717 1.368-1.103 1.367-1.642 1.368-2.357 1.367-3.257 1.368-4.317 1.367-5.467 1.368-6.593 2.735-15.615 1.367-8.08 1.368-7.383 1.367-5.953 1.368-3.874 1.367-1.344 1.368 1.344 1.367 3.874 1.368 5.953 1.367 7.382 4.103 23.696 1.368 6.593 1.367 5.467 1.368 4.317 1.367 3.257 1.368 2.357 1.367 1.642 1.368 1.103 1.367.717 1.368.453 2.735.442 4.102.184 15.043.258 2.735.442 1.368.453 1.367.717 1.368 1.103 1.367 1.642 1.368 2.357 1.367 3.257 1.368 4.317 1.367 5.467 1.368 6.593 2.735 15.615 1.367 8.08 1.368 7.383 1.367 5.953 1.368 3.874 1.367 1.344 1.368-1.344 1.367-3.874 1.368-5.953 1.367-7.382 4.103-23.696 1.367-6.593 1.368-5.467 1.367-4.317 1.368-3.257 1.367-2.357 1.368-1.642 1.367-1.103 1.368-.717 1.368-.453 2.735-.442 4.102-.184 15.043-.258 2.735-.442 1.367-.453 1.368-.717 1.367-1.103 1.368-1.642 1.367-2.357 1.368-3.257 1.367-4.317 1.368-5.467 1.367-6.593 2.736-15.615 1.367-8.08 1.368-7.383 1.367-5.953 1.368-3.874 1.367-1.344 1.368 1.344 1.367 3.874 1.368 5.953 1.367 7.382 4.103 23.696 1.367 6.593 1.368 5.467 1.367 4.317 1.368 3.257 1.367 2.357 1.368 1.642 1.367 1.103 1.368.717 1.367.453 2.735.442 4.103.184 15.043.258 2.735.442 1.367.453 1.368.717 1.367 1.103 1.368 1.642 1.367 2.357 1.368 3.257 1.367 4.317 1.368 5.467 1.367 6.593 2.735 15.615 1.368 8.08 1.367 7.383 1.368 5.953 1.367 3.874 1.368 1.344 1.367-1.344 1.368-3.874 1.367-5.953 1.368-7.382 4.103-23.696 1.367-6.593 1.368-5.467 1.367-4.317 1.368-3.257 1.367-2.357 1.368-1.642 1.367-1.103 1.368-.717 1.367-.453 2.735-.442 4.103-.184 15.042-.258 2.735-.442 1.368-.453 1.368-.717 1.367-1.103 1.368-1.642 1.367-2.357 1.368-3.257 1.367-4.317 1.368-5.467 1.367-6.593 2.735-15.615 1.368-8.08 1.367-7.383 1.368-5.953 1.367-3.874 1.368-1.344 1.367 1.344 1.368 3.874 1.367 5.953 1.368 7.382 4.102 23.696 1.368 6.593 1.367 5.467 1.368 4.317 1.367 3.257 1.368 2.357 1.367 1.642 1.368 1.103 1.368.717 1.367.453 2.735.442 4.103.184 15.042.258 2.735.442 1.368.453 1.367.717 1.368 1.103 1.367 1.642 1.368 2.357 1.367 3.257 1.368 4.317 1.367 5.467 1.368 6.593 2.735 15.615 1.368 8.08 1.367 7.383 1.368 5.953 1.367 3.874 1.368 1.344 1.367-1.344 1.368-3.874 1.367-5.953 1.368-7.382 4.102-23.696 1.368-6.593 1.367-5.467 1.368-4.317 1.367-3.257 1.368-2.357 1.367-1.642 1.368-1.103 1.367-.717 1.368-.453 2.735-.442 4.102-.184 4.103-.033" fill="none" stroke="#1f77b4" stroke-linecap="square" stroke-width="1.5" id="line2d_7"/><path clip-path="url(#p332b31a9c9)" d="M37.612 158.818H446.5" fill="none" stroke="#1f77b4" stroke-dasharray="2.2,2.2" stroke-width="1.5" id="line2d_8"/><path clip-path="url(#p332b31a9c9)" d="M37.612 21.182H446.5" fill="none" stroke="#1f77b4" stroke-dasharray="2.2,2.2" stroke-width="1.5" id="line2d_9"/><path clip-path="url(#p332b31a9c9)" d="M37.612 60.839H446.5" fill="none" stroke="#1f77b4" stroke-dasharray="2.2,2.2" stroke-width="1.5" id="line2d_10"/><path d="M37.612 165.7V14.3" fill="none" stroke="#000" stroke-linecap="square" stroke-width=".8" id="patch_3"/><path d="M446.5 165.7V14.3" fill="none" stroke="#000" stroke-linecap="square" stroke-width=".8" id="patch_4"/><path d="M37.612 165.7H446.5" fill="none" stroke="#000" stroke-linecap="square" stroke-width=".8" id="patch_5"/><path d="M37.612 14.3H446.5" fill="none" stroke="#000" stroke-linecap="square" stroke-width=".8" id="patch_6"/><text x="210.39" y="85" font-family="Open Sans" font-size="10" font-weight="400" text-anchor="end" id="text_6">Peak-to-peak</text><g id="patch_7" fill="none" stroke="#000" stroke-linecap="round"><path d="M215.39 24.303v131.398M213.39 28.303l2-4 2 4M217.39 151.7l-2 4-2-4"/></g><text x="278.766" y="85" font-family="Open Sans" font-size="10" font-weight="400" text-anchor="end" id="text_7">Peak</text><g id="patch_8" fill="none" stroke="#000" stroke-linecap="round"><path d="M283.766 24.303V86.88M281.766 28.303l2-4 2 4M285.766 82.88l-2 4-2-4"/></g><text x="347.141" y="85" font-family="Open Sans" font-size="10" font-weight="400" text-anchor="end" id="text_8">RMS</text><g id="patch_9" fill="none" stroke="#000" stroke-linecap="round"><path d="M352.141 63.954v22.928M350.141 67.954l2-4 2 4M354.141 82.882l-2 4-2-4"/></g></g></g><defs><clipPath id="p332b31a9c9"><path d="M37.612 14.3h408.887v151.4H37.612z"/></clipPath></defs></svg>