<?xml-stylesheet type="text/css" href="https://fonts.googleapis.com/css?family=Open+Sans:300italic,400italic,600italic,700italic,400,600,700,300&amp;subset=latin,cyrillic-ext,latin-ext,cyrillic" ?><svg viewBox="0 0 460.8 216" xmlns="http://www.w3.org/2000/svg" xmlns:xlink="http://www.w3.org/1999/xlink"><defs><style>*{stroke-linecap:butt;stroke-linejoin:round}</style></defs><g id="figure_1"><path d="M0 216h460.8V0H0z" fill="#fefefe" id="patch_1"/><g id="axes_1"><path clip-path="url(#p760c132079)" d="M133.687 107.909a6.51 6.51 0 1 0 0-13.02 6.51 6.51 0 0 0 0 13.02z" fill="none" stroke="green" id="patch_2"/><path clip-path="url(#p760c132079)" d="M133.687 144.799a43.402 43.402 0 0 0 43.4-43.4 43.402 43.402 0 0 0-43.4-43.4 43.402 43.402 0 0 0-43.4 43.4 43.402 43.402 0 0 0 43.4 43.4z" fill="none" stroke="red" id="patch_3"/><path clip-path="url(#p760c132079)" d="M172.747 105.739h8.68v-8.68h-8.68v8.68z" fill="none" stroke="#000" stroke-dasharray="3.7,1.6" id="patch_4"/><g id="line2d_1"><defs><path d="M0 3a3 3 0 1 0 0-6 3 3 0 0 0 0 6z" id="m5e909bea16" stroke="#1f77b4"/></defs><g clip-path="url(#p760c132079)"><use x="133.687" xlink:href="#m5e909bea16" y="101.399" fill="green" stroke="#1f77b4"/></g></g></g><g id="axes_2"><path d="M256.837 188.198h173.599V14.6h-173.6z" fill="#fff" id="patch_5"/><path clip-path="url(#pb4b994559d)" d="M-524.36 231.598c34.53 0 67.65-13.718 92.065-38.134a130.205 130.205 0 0 0 38.134-92.065c0-34.53-13.718-67.65-38.134-92.065a130.205 130.205 0 0 0-92.065-38.135 130.205 130.205 0 0 0-92.065 38.135 130.205 130.205 0 0 0-38.134 92.065c0 34.53 13.718 67.649 38.134 92.065a130.205 130.205 0 0 0 92.065 38.134z" fill="none" stroke="green" id="patch_6"/><path clip-path="url(#pb4b994559d)" d="M-524.36 969.395c230.195 0 450.993-91.458 613.766-254.23 162.773-162.773 254.23-383.57 254.23-613.766 0-230.195-91.457-450.993-254.23-613.766-162.773-162.773-383.57-254.23-613.766-254.23-230.195 0-450.993 91.457-613.766 254.23-162.772 162.773-254.23 383.57-254.23 613.766 0 230.195 91.458 450.993 254.23 613.766 162.773 162.772 383.57 254.23 613.766 254.23z" fill="none" stroke="red" id="patch_7"/><path d="M256.837 14.6l-84.09 82.459" fill="none" stroke="#000" stroke-dasharray="3.7,1.6" id="patch_8"/><path d="M256.837 188.198l-84.09-82.46" fill="none" stroke="#000" stroke-dasharray="3.7,1.6" id="patch_9"/><path clip-path="url(#pb4b994559d)" d="M343.636 217V-1" fill="none" stroke="#00f" stroke-dasharray="1.5,2.475" stroke-width="1.5" id="LineCollection_1"/><path d="M256.837 188.198V14.6" fill="none" stroke="#000" stroke-linecap="square" stroke-width=".8" id="patch_10"/><path d="M430.436 188.198V14.6" fill="none" stroke="#000" stroke-linecap="square" stroke-width=".8" id="patch_11"/><path d="M256.837 188.198h173.599" fill="none" stroke="#000" stroke-linecap="square" stroke-width=".8" id="patch_12"/><path d="M256.837 14.6h173.599" fill="none" stroke="#000" stroke-linecap="square" stroke-width=".8" id="patch_13"/><path d="M350.149 99.399h40.077v-4l11.998 6-11.998 6v-4h-40.077v-4z" id="patch_14"/></g></g><defs><clipPath id="p760c132079"><path d="M46.887 14.599h173.599v173.599H46.887z"/></clipPath><clipPath id="pb4b994559d"><path d="M256.837 14.599h173.599v173.599H256.837z"/></clipPath></defs></svg>