<?xml version="1.0" encoding="UTF-8" standalone="no"?>
<?xml-stylesheet type="text/css" href="https://fonts.googleapis.com/css?family=Open+Sans:300italic,400italic,600italic,700italic,400,600,700,300&amp;subset=latin,cyrillic-ext,latin-ext,cyrillic" ?>
<svg xmlns="http://www.w3.org/2000/svg"
     xmlns:xlink="http://www.w3.org/1999/xlink"
     width="600px" height="180px" viewBox="0 0 600 180">
<title>gl2ps_renderer figure</title>
<desc>
Creator: GL2PS 1.4.0, (C) 1999-2017 C. Geuzaine
For: Octave
</desc>
<defs>
</defs>
<polygon fill="#ffffff" points="0,0 600,0 600,180 0,180"/>
<g>
<polygon fill="#fefefe" points="0,180 600,180 600,0 0,0" shape-rendering="crispEdges"/>
<clipPath id="cp00600180">
  <polygon points="0,180 600,180 600,0 0,0"/>
</clipPath>
<g clip-path="url(#cp00600180)">
<polygon fill="#ffffff" shape-rendering="crispEdges" points="60,130 560,130 60,5"/>
<polygon fill="#ffffff" shape-rendering="crispEdges" points="560,130 560,5 60,5"/>
<polyline fill="none" stroke="#262626" stroke-width="0.5" stroke-linecap="butt" stroke-linejoin="miter" points="60,130 60,125"/>
<polyline fill="none" stroke="#262626" stroke-width="0.5" stroke-linecap="butt" stroke-linejoin="miter" points="60,5 60,10"/>
<polyline fill="none" stroke="#262626" stroke-width="0.5" stroke-linecap="butt" stroke-linejoin="miter" points="185,130 185,125"/>
<polyline fill="none" stroke="#262626" stroke-width="0.5" stroke-linecap="butt" stroke-linejoin="miter" points="185,5 185,10"/>
<polyline fill="none" stroke="#262626" stroke-width="0.5" stroke-linecap="butt" stroke-linejoin="miter" points="310,130 310,125"/>
<polyline fill="none" stroke="#262626" stroke-width="0.5" stroke-linecap="butt" stroke-linejoin="miter" points="310,5 310,10"/>
<polyline fill="none" stroke="#262626" stroke-width="0.5" stroke-linecap="butt" stroke-linejoin="miter" points="435,130 435,125"/>
<polyline fill="none" stroke="#262626" stroke-width="0.5" stroke-linecap="butt" stroke-linejoin="miter" points="435,5 435,10"/>
<polyline fill="none" stroke="#262626" stroke-width="0.5" stroke-linecap="butt" stroke-linejoin="miter" points="560,130 560,125"/>
<polyline fill="none" stroke="#262626" stroke-width="0.5" stroke-linecap="butt" stroke-linejoin="miter" points="560,5 560,10"/>
<text fill="#262626" x="60" y="135" font-size="10" text-anchor="middle" dy="10" font-family="Open Sans">0</text>
<text fill="#262626" x="185" y="135" font-size="10" text-anchor="middle" dy="10" font-family="Open Sans">0.5</text>
<text fill="#262626" x="310" y="135" font-size="10" text-anchor="middle" dy="10" font-family="Open Sans">1</text>
<text fill="#262626" x="435" y="135" font-size="10" text-anchor="middle" dy="10" font-family="Open Sans">1.5</text>
<text fill="#262626" x="560" y="135" font-size="10" text-anchor="middle" dy="10" font-family="Open Sans">2</text>
<polyline fill="none" stroke="#262626" stroke-width="0.5" stroke-linecap="butt" stroke-linejoin="miter" points="60,130 65,130"/>
<polyline fill="none" stroke="#262626" stroke-width="0.5" stroke-linecap="butt" stroke-linejoin="miter" points="560,130 555,130"/>
<polyline fill="none" stroke="#262626" stroke-width="0.5" stroke-linecap="butt" stroke-linejoin="miter" points="60,109.167 65,109.167"/>
<polyline fill="none" stroke="#262626" stroke-width="0.5" stroke-linecap="butt" stroke-linejoin="miter" points="560,109.167 555,109.167"/>
<polyline fill="none" stroke="#262626" stroke-width="0.5" stroke-linecap="butt" stroke-linejoin="miter" points="60,88.3333 65,88.3333"/>
<polyline fill="none" stroke="#262626" stroke-width="0.5" stroke-linecap="butt" stroke-linejoin="miter" points="560,88.3333 555,88.3333"/>
<polyline fill="none" stroke="#262626" stroke-width="0.5" stroke-linecap="butt" stroke-linejoin="miter" points="60,67.5 65,67.5"/>
<polyline fill="none" stroke="#262626" stroke-width="0.5" stroke-linecap="butt" stroke-linejoin="miter" points="560,67.5 555,67.5"/>
<polyline fill="none" stroke="#262626" stroke-width="0.5" stroke-linecap="butt" stroke-linejoin="miter" points="60,46.6667 65,46.6667"/>
<polyline fill="none" stroke="#262626" stroke-width="0.5" stroke-linecap="butt" stroke-linejoin="miter" points="560,46.6667 555,46.6667"/>
<polyline fill="none" stroke="#262626" stroke-width="0.5" stroke-linecap="butt" stroke-linejoin="miter" points="60,25.8333 65,25.8333"/>
<polyline fill="none" stroke="#262626" stroke-width="0.5" stroke-linecap="butt" stroke-linejoin="miter" points="560,25.8333 555,25.8333"/>
<polyline fill="none" stroke="#262626" stroke-width="0.5" stroke-linecap="butt" stroke-linejoin="miter" points="60,5 65,5"/>
<polyline fill="none" stroke="#262626" stroke-width="0.5" stroke-linecap="butt" stroke-linejoin="miter" points="560,5 555,5"/>
<text fill="#262626" x="55" y="130" font-size="10" text-anchor="end" dy="5" font-family="Open Sans">-1.5</text>
<text fill="#262626" x="55" y="109.167" font-size="10" text-anchor="end" dy="5" font-family="Open Sans">-1</text>
<text fill="#262626" x="55" y="88.3333" font-size="10" text-anchor="end" dy="5" font-family="Open Sans">-0.5</text>
<text fill="#262626" x="55" y="67.5" font-size="10" text-anchor="end" dy="5" font-family="Open Sans">0</text>
<text fill="#262626" x="55" y="46.6667" font-size="10" text-anchor="end" dy="5" font-family="Open Sans">0.5</text>
<text fill="#262626" x="55" y="25.8333" font-size="10" text-anchor="end" dy="5" font-family="Open Sans">1</text>
<text fill="#262626" x="55" y="5" font-size="10" text-anchor="end" dy="5" font-family="Open Sans">1.5</text>
<polyline fill="none" stroke="#262626" stroke-width="0.5" stroke-linecap="butt" stroke-linejoin="miter" stroke-dasharray="16,0" points="60,130 560,130"/>
<polyline fill="none" stroke="#262626" stroke-width="0.5" stroke-linecap="butt" stroke-linejoin="miter" stroke-dasharray="16,0" points="60,5 560,5"/>
<polyline fill="none" stroke="#262626" stroke-width="0.5" stroke-linecap="butt" stroke-linejoin="miter" stroke-dasharray="16,0" points="60,130 60,5"/>
<polyline fill="none" stroke="#262626" stroke-width="0.5" stroke-linecap="butt" stroke-linejoin="miter" stroke-dasharray="16,0" points="560,130 560,5"/>
<text fill="#262626" x="310" y="148" font-size="10" text-anchor="middle" dy="10" font-family="Open Sans">Time (milliseconds)</text>
<text fill="#262626" x="32" y="67.5" font-size="10" transform="rotate(-90, 32, 67.5)" text-anchor="middle" dy="0" font-family="Open Sans">Voltage (volts)</text>
<polyline fill="none" stroke="#0071bc" stroke-width="0.5" stroke-linecap="butt" stroke-linejoin="miter" points="60,67.5 65.2083,59.8316 70.4166,52.2944 75.625,45.0173 80.8333,38.125 86.0417,31.7353 91.25,25.9575 96.4583,20.8905 101.667,16.621 106.875,13.2221 112.083,10.7519 117.292,9.25261 122.5,8.75 127.708,9.25261 132.917,10.7519 138.125,13.2221 143.333,16.621 148.542,20.8905 153.75,25.9575 158.958,31.7353 164.167,38.125 169.375,45.0173 174.583,52.2944 179.792,59.8316 185,67.5 190.208,75.1684 195.417,82.7056 200.625,89.9827 205.833,96.875 211.042,103.265 216.25,109.043 221.458,114.11 226.667,118.379 231.875,121.778 237.083,124.248 242.292,125.747 247.5,126.25 252.708,125.747 257.917,124.248 263.125,121.778 268.333,118.379 273.542,114.11 278.75,109.043 283.958,103.265 289.167,96.875 294.375,89.9827 299.583,82.7056 304.792,75.1684 310,67.5 315.208,59.8316 320.417,52.2944 325.625,45.0173 330.833,38.125 336.042,31.7353 341.25,25.9575 346.458,20.8905 351.667,16.621 356.875,13.2221 362.083,10.7519 367.292,9.25261 372.5,8.75 377.708,9.25261 382.917,10.7519 388.125,13.2221 393.333,16.621 398.542,20.8905 403.75,25.9575 408.958,31.7353 414.167,38.125 419.375,45.0173 424.583,52.2944 429.792,59.8316 435,67.5 440.208,75.1684 445.417,82.7056 450.625,89.9827 455.833,96.875 461.042,103.265 466.25,109.043 471.458,114.11 476.667,118.379 481.875,121.778 487.083,124.248 492.292,125.747 497.5,126.25 502.708,125.747 507.917,124.248 513.125,121.778 518.333,118.379 523.542,114.11 528.75,109.043 533.958,103.265 539.167,96.875 544.375,89.9827 549.583,82.7056 554.792,75.1684 560,67.5"/>
<polyline fill="none" stroke="#000000" stroke-width="0.5" stroke-linecap="butt" stroke-linejoin="miter" points="60,67.5 560,67.5"/>
</g>
<clipPath id="cp00600180">
  <polygon points="0,180 600,180 600,0 0,0"/>
</clipPath>
<g clip-path="url(#cp00600180)">
</g>
</g>
</svg>
