<?xml version="1.0" encoding="UTF-8" standalone="no"?>
<?xml-stylesheet type="text/css" href="https://fonts.googleapis.com/css?family=Open+Sans:300italic,400italic,600italic,700italic,400,600,700,300&amp;subset=latin,cyrillic-ext,latin-ext,cyrillic" ?>
<svg xmlns="http://www.w3.org/2000/svg"
     xmlns:xlink="http://www.w3.org/1999/xlink"
     width="600px" height="180px" viewBox="0 0 600 180">
<title>gl2ps_renderer figure</title>
<desc>
Creator: GL2PS 1.4.0, (C) 1999-2017 C. Geuzaine
For: Octave
</desc>
<defs>
</defs>
<polygon fill="#ffffff" points="0,0 600,0 600,180 0,180"/>
<g>
<polygon fill="#fefefe" points="0,180 600,180 600,0 0,0" shape-rendering="crispEdges"/>
<clipPath id="cp00600180">
  <polygon points="0,180 600,180 600,0 0,0"/>
</clipPath>
<g clip-path="url(#cp00600180)">
<polygon fill="#ffffff" shape-rendering="crispEdges" points="60,130 560,130 60,5"/>
<polygon fill="#ffffff" shape-rendering="crispEdges" points="560,130 560,5 60,5"/>
<polyline fill="none" stroke="#262626" stroke-width="0.5" stroke-linecap="butt" stroke-linejoin="miter" points="60,130 60,125"/>
<polyline fill="none" stroke="#262626" stroke-width="0.5" stroke-linecap="butt" stroke-linejoin="miter" points="60,5 60,10"/>
<polyline fill="none" stroke="#262626" stroke-width="0.5" stroke-linecap="butt" stroke-linejoin="miter" points="143.333,130 143.333,125"/>
<polyline fill="none" stroke="#262626" stroke-width="0.5" stroke-linecap="butt" stroke-linejoin="miter" points="143.333,5 143.333,10"/>
<polyline fill="none" stroke="#262626" stroke-width="0.5" stroke-linecap="butt" stroke-linejoin="miter" points="226.667,130 226.667,125"/>
<polyline fill="none" stroke="#262626" stroke-width="0.5" stroke-linecap="butt" stroke-linejoin="miter" points="226.667,5 226.667,10"/>
<polyline fill="none" stroke="#262626" stroke-width="0.5" stroke-linecap="butt" stroke-linejoin="miter" points="310,130 310,125"/>
<polyline fill="none" stroke="#262626" stroke-width="0.5" stroke-linecap="butt" stroke-linejoin="miter" points="310,5 310,10"/>
<polyline fill="none" stroke="#262626" stroke-width="0.5" stroke-linecap="butt" stroke-linejoin="miter" points="393.333,130 393.333,125"/>
<polyline fill="none" stroke="#262626" stroke-width="0.5" stroke-linecap="butt" stroke-linejoin="miter" points="393.333,5 393.333,10"/>
<polyline fill="none" stroke="#262626" stroke-width="0.5" stroke-linecap="butt" stroke-linejoin="miter" points="476.667,130 476.667,125"/>
<polyline fill="none" stroke="#262626" stroke-width="0.5" stroke-linecap="butt" stroke-linejoin="miter" points="476.667,5 476.667,10"/>
<polyline fill="none" stroke="#262626" stroke-width="0.5" stroke-linecap="butt" stroke-linejoin="miter" points="560,130 560,125"/>
<polyline fill="none" stroke="#262626" stroke-width="0.5" stroke-linecap="butt" stroke-linejoin="miter" points="560,5 560,10"/>
<text fill="#262626" x="60" y="135" font-size="10" text-anchor="middle" dy="10" font-family="Open Sans">0</text>
<text fill="#262626" x="143.333" y="135" font-size="10" text-anchor="middle" dy="10" font-family="Open Sans">0.5</text>
<text fill="#262626" x="226.667" y="135" font-size="10" text-anchor="middle" dy="10" font-family="Open Sans">1</text>
<text fill="#262626" x="310" y="135" font-size="10" text-anchor="middle" dy="10" font-family="Open Sans">1.5</text>
<text fill="#262626" x="393.333" y="135" font-size="10" text-anchor="middle" dy="10" font-family="Open Sans">2</text>
<text fill="#262626" x="476.667" y="135" font-size="10" text-anchor="middle" dy="10" font-family="Open Sans">2.5</text>
<text fill="#262626" x="560" y="135" font-size="10" text-anchor="middle" dy="10" font-family="Open Sans">3</text>
<polyline fill="none" stroke="#262626" stroke-width="0.5" stroke-linecap="butt" stroke-linejoin="miter" stroke-dasharray="16,0" points="60,130 560,130"/>
<polyline fill="none" stroke="#262626" stroke-width="0.5" stroke-linecap="butt" stroke-linejoin="miter" stroke-dasharray="16,0" points="60,5 560,5"/>
<polyline fill="none" stroke="#262626" stroke-width="0.5" stroke-linecap="butt" stroke-linejoin="miter" stroke-dasharray="16,0" points="60,130 60,5"/>
<polyline fill="none" stroke="#262626" stroke-width="0.5" stroke-linecap="butt" stroke-linejoin="miter" stroke-dasharray="16,0" points="560,130 560,5"/>
<text fill="#262626" x="310" y="148" font-size="10" text-anchor="middle" dy="10" font-family="Open Sans">Time (milliseconds)</text>
<text fill="#262626" x="51" y="67.5" font-size="10" transform="rotate(-90, 51, 67.5)" text-anchor="middle" dy="0" font-family="Open Sans">Amplitude</text>
<polyline fill="none" stroke="#0071bc" stroke-width="0.5" stroke-linecap="butt" stroke-linejoin="miter" points="60,67.5 62.2321,62.2468 64.4643,57.0309 66.6964,51.889 68.9286,46.8576 71.1607,41.9722 73.3928,37.2676 75.625,32.7769 77.8571,28.5319 80.0893,24.5627 82.3214,20.8974 84.5535,17.5618 86.7857,14.5797 89.0178,11.9721 91.25,9.75754 93.4821,7.95155 95.7143,6.567 97.9464,5.61368 100.179,5.09833 102.411,5.02458 104.643,5.39297 106.875,6.20093 109.107,7.44266 111.339,9.10944 113.571,11.1895 115.804,13.668 118.036,16.5274 120.268,19.7477 122.5,23.3058 124.732,27.1767 126.964,31.333 129.196,35.7453 131.429,40.3823 133.661,45.2112 135.893,50.1978 138.125,55.3069 140.357,60.5022 142.589,65.7471 144.821,71.0044 147.054,76.2369 149.286,81.4076 151.518,86.4798 153.75,91.4177 155.982,96.1864 158.214,100.752 160.446,105.082 162.679,109.147 164.911,112.916 167.143,116.364 169.375,119.467 171.607,122.201 173.839,124.549 176.071,126.493 178.304,128.019 180.536,129.117 182.768,129.779 185,130 187.232,129.779 189.464,129.117 191.696,128.019 193.929,126.493 196.161,124.549 198.393,122.201 200.625,119.467 202.857,116.364 205.089,112.916 207.321,109.147 209.554,105.082 211.786,100.752 214.018,96.1864 216.25,91.4177 218.482,86.4798 220.714,81.4076 222.946,76.2369 225.179,71.0044 227.411,65.7471 229.643,60.5022 231.875,55.3069 234.107,50.1978 236.339,45.2112 238.571,40.3823 240.804,35.7453 243.036,31.333 245.268,27.1767 247.5,23.3058 249.732,19.7477 251.964,16.5274 254.196,13.668 256.429,11.1895 258.661,9.10944 260.893,7.44266 263.125,6.20093 265.357,5.39297 267.589,5.02458 269.821,5.09833 272.054,5.61368 274.286,6.567 276.518,7.95155 278.75,9.75754 280.982,11.9721 283.214,14.5797 285.446,17.5618 287.679,20.8974 289.911,24.5627 292.143,28.5319 294.375,32.7769 296.607,37.2676 298.839,41.9722 301.071,46.8576 303.304,51.889 305.536,57.0309 307.768,62.2468 310,67.5 312.232,72.7532 314.464,77.9691 316.696,83.111 318.929,88.1424 321.161,93.0278 323.393,97.7324 325.625,102.223 327.857,106.468 330.089,110.437 332.321,114.103 334.554,117.438 336.786,120.42 339.018,123.028 341.25,125.242 343.482,127.048 345.714,128.433 347.946,129.386 350.179,129.902 352.411,129.975 354.643,129.607 356.875,128.799 359.107,127.557 361.339,125.891 363.571,123.811 365.804,121.332 368.036,118.473 370.268,115.252 372.5,111.694 374.732,107.823 376.964,103.667 379.196,99.2547 381.429,94.6177 383.661,89.7888 385.893,84.8022 388.125,79.6931 390.357,74.4978 392.589,69.2529 394.821,63.9956 397.054,58.7631 399.286,53.5924 401.518,48.5202 403.75,43.5823 405.982,38.8136 408.214,34.248 410.446,29.9177 412.679,25.8533 414.911,22.0837 417.143,18.6355 419.375,15.5331 421.607,12.7985 423.839,10.451 426.071,8.50729 428.304,6.98102 430.536,5.88306 432.768,5.22116 435,5 437.232,5.22116 439.464,5.88306 441.696,6.98102 443.929,8.50729 446.161,10.451 448.393,12.7985 450.625,15.5331 452.857,18.6355 455.089,22.0837 457.321,25.8533 459.554,29.9177 461.786,34.248 464.018,38.8136 466.25,43.5823 468.482,48.5202 470.714,53.5924 472.946,58.7631 475.179,63.9956 477.411,69.2529 479.643,74.4978 481.875,79.6931 484.107,84.8022 486.339,89.7888 488.571,94.6177 490.804,99.2547 493.036,103.667 495.268,107.823 497.5,111.694 499.732,115.252 501.964,118.473 504.196,121.332 506.429,123.811 508.661,125.891 510.893,127.557 513.125,128.799 515.357,129.607 517.589,129.975 519.821,129.902 522.054,129.386 524.286,128.433 526.518,127.048 528.75,125.242 530.982,123.028 533.214,120.42 535.446,117.438 537.679,114.103 539.911,110.437 542.143,106.468 544.375,102.223 546.607,97.7324 548.839,93.0278 551.071,88.1424 553.304,83.111 555.536,77.9691 557.768,72.7532 560,67.5"/>
<polyline fill="none" stroke="#000000" stroke-width="0.5" stroke-linecap="butt" stroke-linejoin="miter" points="60,67.5 560,67.5"/>
</g>
<clipPath id="cp00600180">
  <polygon points="0,180 600,180 600,0 0,0"/>
</clipPath>
<g clip-path="url(#cp00600180)">
</g>
</g>
</svg>
