<?xml version="1.0" encoding="UTF-8" standalone="no"?>
<?xml-stylesheet type="text/css" href="https://fonts.googleapis.com/css?family=Open+Sans:300italic,400italic,600italic,700italic,400,600,700,300&amp;subset=latin,cyrillic-ext,latin-ext,cyrillic" ?>
<svg xmlns="http://www.w3.org/2000/svg"
     xmlns:xlink="http://www.w3.org/1999/xlink"
     width="600px" height="180px" viewBox="0 0 600 180">
<title>gl2ps_renderer figure</title>
<desc>
Creator: GL2PS 1.4.0, (C) 1999-2017 C. Geuzaine
For: Octave
</desc>
<defs>
</defs>
<polygon fill="#ffffff" points="0,0 600,0 600,180 0,180"/>
<g>
<polygon fill="#fefefe" points="0,180 600,180 600,0 0,0" shape-rendering="crispEdges"/>
<clipPath id="cp00600180">
  <polygon points="0,180 600,180 600,0 0,0"/>
</clipPath>
<g clip-path="url(#cp00600180)">
<polygon fill="#ffffff" shape-rendering="crispEdges" points="60,130 560,130 60,5"/>
<polygon fill="#ffffff" shape-rendering="crispEdges" points="560,130 560,5 60,5"/>
<polyline fill="none" stroke="#262626" stroke-width="0.5" stroke-linecap="butt" stroke-linejoin="miter" points="60,130 60,125"/>
<polyline fill="none" stroke="#262626" stroke-width="0.5" stroke-linecap="butt" stroke-linejoin="miter" points="60,5 60,10"/>
<polyline fill="none" stroke="#262626" stroke-width="0.5" stroke-linecap="butt" stroke-linejoin="miter" points="185,130 185,125"/>
<polyline fill="none" stroke="#262626" stroke-width="0.5" stroke-linecap="butt" stroke-linejoin="miter" points="185,5 185,10"/>
<polyline fill="none" stroke="#262626" stroke-width="0.5" stroke-linecap="butt" stroke-linejoin="miter" points="310,130 310,125"/>
<polyline fill="none" stroke="#262626" stroke-width="0.5" stroke-linecap="butt" stroke-linejoin="miter" points="310,5 310,10"/>
<polyline fill="none" stroke="#262626" stroke-width="0.5" stroke-linecap="butt" stroke-linejoin="miter" points="435,130 435,125"/>
<polyline fill="none" stroke="#262626" stroke-width="0.5" stroke-linecap="butt" stroke-linejoin="miter" points="435,5 435,10"/>
<polyline fill="none" stroke="#262626" stroke-width="0.5" stroke-linecap="butt" stroke-linejoin="miter" points="560,130 560,125"/>
<polyline fill="none" stroke="#262626" stroke-width="0.5" stroke-linecap="butt" stroke-linejoin="miter" points="560,5 560,10"/>
<text fill="#262626" x="60" y="135" font-size="10" text-anchor="middle" dy="10" font-family="Open Sans">0</text>
<text fill="#262626" x="185" y="135" font-size="10" text-anchor="middle" dy="10" font-family="Open Sans">0.5</text>
<text fill="#262626" x="310" y="135" font-size="10" text-anchor="middle" dy="10" font-family="Open Sans">1</text>
<text fill="#262626" x="435" y="135" font-size="10" text-anchor="middle" dy="10" font-family="Open Sans">1.5</text>
<text fill="#262626" x="560" y="135" font-size="10" text-anchor="middle" dy="10" font-family="Open Sans">2</text>
<polyline fill="none" stroke="#262626" stroke-width="0.5" stroke-linecap="butt" stroke-linejoin="miter" points="60,130 65,130"/>
<polyline fill="none" stroke="#262626" stroke-width="0.5" stroke-linecap="butt" stroke-linejoin="miter" points="560,130 555,130"/>
<polyline fill="none" stroke="#262626" stroke-width="0.5" stroke-linecap="butt" stroke-linejoin="miter" points="60,98.75 65,98.75"/>
<polyline fill="none" stroke="#262626" stroke-width="0.5" stroke-linecap="butt" stroke-linejoin="miter" points="560,98.75 555,98.75"/>
<polyline fill="none" stroke="#262626" stroke-width="0.5" stroke-linecap="butt" stroke-linejoin="miter" points="60,67.5 65,67.5"/>
<polyline fill="none" stroke="#262626" stroke-width="0.5" stroke-linecap="butt" stroke-linejoin="miter" points="560,67.5 555,67.5"/>
<polyline fill="none" stroke="#262626" stroke-width="0.5" stroke-linecap="butt" stroke-linejoin="miter" points="60,36.25 65,36.25"/>
<polyline fill="none" stroke="#262626" stroke-width="0.5" stroke-linecap="butt" stroke-linejoin="miter" points="560,36.25 555,36.25"/>
<polyline fill="none" stroke="#262626" stroke-width="0.5" stroke-linecap="butt" stroke-linejoin="miter" points="60,5 65,5"/>
<polyline fill="none" stroke="#262626" stroke-width="0.5" stroke-linecap="butt" stroke-linejoin="miter" points="560,5 555,5"/>
<text fill="#262626" x="55" y="130" font-size="10" text-anchor="end" dy="5" font-family="Open Sans">-0.4</text>
<text fill="#262626" x="55" y="98.75" font-size="10" text-anchor="end" dy="5" font-family="Open Sans">-0.2</text>
<text fill="#262626" x="55" y="67.5" font-size="10" text-anchor="end" dy="5" font-family="Open Sans">0</text>
<text fill="#262626" x="55" y="36.25" font-size="10" text-anchor="end" dy="5" font-family="Open Sans">0.2</text>
<text fill="#262626" x="55" y="5" font-size="10" text-anchor="end" dy="5" font-family="Open Sans">0.4</text>
<polyline fill="none" stroke="#262626" stroke-width="0.5" stroke-linecap="butt" stroke-linejoin="miter" stroke-dasharray="16,0" points="60,130 560,130"/>
<polyline fill="none" stroke="#262626" stroke-width="0.5" stroke-linecap="butt" stroke-linejoin="miter" stroke-dasharray="16,0" points="60,5 560,5"/>
<polyline fill="none" stroke="#262626" stroke-width="0.5" stroke-linecap="butt" stroke-linejoin="miter" stroke-dasharray="16,0" points="60,130 60,5"/>
<polyline fill="none" stroke="#262626" stroke-width="0.5" stroke-linecap="butt" stroke-linejoin="miter" stroke-dasharray="16,0" points="560,130 560,5"/>
<text fill="#262626" x="310" y="148" font-size="10" text-anchor="middle" dy="10" font-family="Open Sans">Time (milliseconds)</text>
<text fill="#262626" x="32" y="67.5" font-size="10" transform="rotate(-90, 32, 67.5)" text-anchor="middle" dy="0" font-family="Open Sans">Sound pressure (Pa)</text>
<polyline fill="none" stroke="#0071bc" stroke-width="0.5" stroke-linecap="butt" stroke-linejoin="miter" points="60,67.5 62.6042,63.862 65.2083,60.2395 67.8125,56.6481 70.4166,53.1032 73.0208,49.6199 75.625,46.2132 78.2291,42.8977 80.8333,39.6875 83.4375,36.5964 86.0417,33.6376 88.6458,30.8239 91.25,28.1672 93.8541,25.6789 96.4583,23.3697 99.0625,21.2495 101.667,19.3273 104.271,17.6115 106.875,16.1092 109.479,14.827 112.083,13.7704 114.687,12.9438 117.292,12.3509 119.896,11.9941 122.5,11.875 125.104,11.9941 127.708,12.3509 130.312,12.9438 132.917,13.7704 135.521,14.827 138.125,16.1092 140.729,17.6115 143.333,19.3273 145.937,21.2495 148.542,23.3697 151.146,25.6789 153.75,28.1672 156.354,30.8239 158.958,33.6376 161.562,36.5964 164.167,39.6875 166.771,42.8977 169.375,46.2132 171.979,49.6199 174.583,53.1032 177.187,56.6481 179.792,60.2395 182.396,63.862 185,67.5 187.604,71.138 190.208,74.7605 192.812,78.3519 195.417,81.8968 198.021,85.3801 200.625,88.7868 203.229,92.1023 205.833,95.3125 208.437,98.4036 211.042,101.362 213.646,104.176 216.25,106.833 218.854,109.321 221.458,111.63 224.062,113.751 226.667,115.673 229.271,117.389 231.875,118.891 234.479,120.173 237.083,121.23 239.688,122.056 242.292,122.649 244.896,123.006 247.5,123.125 250.104,123.006 252.708,122.649 255.312,122.056 257.917,121.23 260.521,120.173 263.125,118.891 265.729,117.389 268.333,115.673 270.938,113.751 273.542,111.63 276.146,109.321 278.75,106.833 281.354,104.176 283.958,101.362 286.562,98.4036 289.167,95.3125 291.771,92.1023 294.375,88.7868 296.979,85.3801 299.583,81.8968 302.187,78.3519 304.792,74.7605 307.396,71.138 310,67.5 312.604,63.862 315.208,60.2395 317.812,56.6481 320.417,53.1032 323.021,49.6199 325.625,46.2132 328.229,42.8977 330.833,39.6875 333.438,36.5964 336.042,33.6376 338.646,30.8239 341.25,28.1672 343.854,25.6789 346.458,23.3697 349.062,21.2495 351.667,19.3273 354.271,17.6115 356.875,16.1092 359.479,14.827 362.083,13.7704 364.687,12.9438 367.292,12.3509 369.896,11.9941 372.5,11.875 375.104,11.9941 377.708,12.3509 380.312,12.9438 382.917,13.7704 385.521,14.827 388.125,16.1092 390.729,17.6115 393.333,19.3273 395.938,21.2495 398.542,23.3697 401.146,25.6789 403.75,28.1672 406.354,30.8239 408.958,33.6376 411.562,36.5964 414.167,39.6875 416.771,42.8977 419.375,46.2132 421.979,49.6199 424.583,53.1032 427.188,56.6481 429.792,60.2395 432.396,63.862 435,67.5 437.604,71.138 440.208,74.7605 442.812,78.3519 445.417,81.8968 448.021,85.3801 450.625,88.7868 453.229,92.1023 455.833,95.3125 458.438,98.4036 461.042,101.362 463.646,104.176 466.25,106.833 468.854,109.321 471.458,111.63 474.062,113.751 476.667,115.673 479.271,117.389 481.875,118.891 484.479,120.173 487.083,121.23 489.688,122.056 492.292,122.649 494.896,123.006 497.5,123.125 500.104,123.006 502.708,122.649 505.312,122.056 507.917,121.23 510.521,120.173 513.125,118.891 515.729,117.389 518.333,115.673 520.938,113.751 523.542,111.63 526.146,109.321 528.75,106.833 531.354,104.176 533.958,101.362 536.562,98.4036 539.167,95.3125 541.771,92.1023 544.375,88.7868 546.979,85.3801 549.583,81.8968 552.188,78.3519 554.792,74.7605 557.396,71.138 560,67.5"/>
<polyline fill="none" stroke="#000000" stroke-width="0.5" stroke-linecap="butt" stroke-linejoin="miter" points="60,67.5 560,67.5"/>
</g>
<clipPath id="cp00600180">
  <polygon points="0,180 600,180 600,0 0,0"/>
</clipPath>
<g clip-path="url(#cp00600180)">
</g>
</g>
</svg>
