<?xml version="1.0" encoding="utf-8" standalone="no"?>
<?xml-stylesheet type="text/css" href="https://fonts.googleapis.com/css?family=Open+Sans:300italic,400italic,600italic,700italic,400,600,700,300&amp;subset=latin,cyrillic-ext,latin-ext,cyrillic" ?>
<!DOCTYPE svg PUBLIC "-//W3C//DTD SVG 1.1//EN"
  "http://www.w3.org/Graphics/SVG/1.1/DTD/svg11.dtd">
<!-- Created with matplotlib (http://matplotlib.org/) -->
<svg height="288pt" version="1.1" viewBox="0 0 460.8 288" width="460.8pt" xmlns="http://www.w3.org/2000/svg" xmlns:xlink="http://www.w3.org/1999/xlink">
 <defs>
  <style type="text/css">
*{stroke-linecap:butt;stroke-linejoin:round;}
  </style>
 </defs>
 <g id="figure_1">
  <g id="patch_1">
   <path d="M 0 288 
L 460.8 288 
L 460.8 0 
L 0 0 
z
" style="fill:#fefefe;"/>
  </g>
  <g id="axes_1">
   <g id="patch_2">
    <path d="M 43.235938 246.196875 
L 435.707031 246.196875 
L 435.707031 14.599219 
L 43.235938 14.599219 
z
" style="fill:#ffffff;"/>
   </g>
   <g id="matplotlib.axis_1">
    <g id="xtick_1">
     <g id="line2d_1">
      <defs>
       <path d="M 0 0 
L 0 3.5 
" id="mdebdc6bda8" style="stroke:#000000;stroke-width:0.8;"/>
      </defs>
      <g>
       <use style="stroke:#000000;stroke-width:0.8;" x="43.235938" xlink:href="#mdebdc6bda8" y="246.196875"/>
      </g>
     </g>
     <g id="text_1">
      <text style="font-family:Open Sans;font-size:10px;font-style:normal;font-weight:normal;text-anchor:middle;" transform="rotate(-0, 43.235938, 260.795313)" x="43.235938" y="260.795313">20</text>
     </g>
    </g>
    <g id="xtick_2">
     <g id="line2d_2">
      <g>
       <use style="stroke:#000000;stroke-width:0.8;" x="134.677778" xlink:href="#mdebdc6bda8" y="246.196875"/>
      </g>
     </g>
     <g id="text_2">
      <text style="font-family:Open Sans;font-size:10px;font-style:normal;font-weight:normal;text-anchor:middle;" transform="rotate(-0, 134.677778, 260.795313)" x="134.677778" y="260.795313">100</text>
     </g>
    </g>
    <g id="xtick_3">
     <g id="line2d_3">
      <g>
       <use style="stroke:#000000;stroke-width:0.8;" x="265.501476" xlink:href="#mdebdc6bda8" y="246.196875"/>
      </g>
     </g>
     <g id="text_3">
      <text style="font-family:Open Sans;font-size:10px;font-style:normal;font-weight:normal;text-anchor:middle;" transform="rotate(-0, 265.501476, 260.795313)" x="265.501476" y="260.795313">1000</text>
     </g>
    </g>
    <g id="xtick_4">
     <g id="line2d_4">
      <g>
       <use style="stroke:#000000;stroke-width:0.8;" x="396.325174" xlink:href="#mdebdc6bda8" y="246.196875"/>
      </g>
     </g>
     <g id="text_4">
      <text style="font-family:Open Sans;font-size:10px;font-style:normal;font-weight:normal;text-anchor:middle;" transform="rotate(-0, 396.325174, 260.795313)" x="396.325174" y="260.795313">10000</text>
     </g>
    </g>
    <g id="xtick_5">
     <g id="line2d_5">
      <g>
       <use style="stroke:#000000;stroke-width:0.8;" x="435.707031" xlink:href="#mdebdc6bda8" y="246.196875"/>
      </g>
     </g>
     <g id="text_5">
      <text style="font-family:Open Sans;font-size:10px;font-style:normal;font-weight:normal;text-anchor:middle;" transform="rotate(-0, 435.707031, 260.795313)" x="435.707031" y="260.795313">20000</text>
     </g>
    </g>
    <g id="xtick_6">
     <g id="line2d_6">
      <defs>
       <path d="M 0 0 
L 0 2 
" id="m517eb2c7e8" style="stroke:#000000;stroke-width:0.6;"/>
      </defs>
      <g>
       <use style="stroke:#000000;stroke-width:0.6;" x="43.235938" xlink:href="#m517eb2c7e8" y="246.196875"/>
      </g>
     </g>
    </g>
    <g id="xtick_7">
     <g id="line2d_7">
      <g>
       <use style="stroke:#000000;stroke-width:0.6;" x="66.272847" xlink:href="#m517eb2c7e8" y="246.196875"/>
      </g>
     </g>
    </g>
    <g id="xtick_8">
     <g id="line2d_8">
      <g>
       <use style="stroke:#000000;stroke-width:0.6;" x="82.617795" xlink:href="#m517eb2c7e8" y="246.196875"/>
      </g>
     </g>
    </g>
    <g id="xtick_9">
     <g id="line2d_9">
      <g>
       <use style="stroke:#000000;stroke-width:0.6;" x="95.295921" xlink:href="#m517eb2c7e8" y="246.196875"/>
      </g>
     </g>
    </g>
    <g id="xtick_10">
     <g id="line2d_10">
      <g>
       <use style="stroke:#000000;stroke-width:0.6;" x="105.654704" xlink:href="#m517eb2c7e8" y="246.196875"/>
      </g>
     </g>
    </g>
    <g id="xtick_11">
     <g id="line2d_11">
      <g>
       <use style="stroke:#000000;stroke-width:0.6;" x="114.412931" xlink:href="#m517eb2c7e8" y="246.196875"/>
      </g>
     </g>
    </g>
    <g id="xtick_12">
     <g id="line2d_12">
      <g>
       <use style="stroke:#000000;stroke-width:0.6;" x="121.999652" xlink:href="#m517eb2c7e8" y="246.196875"/>
      </g>
     </g>
    </g>
    <g id="xtick_13">
     <g id="line2d_13">
      <g>
       <use style="stroke:#000000;stroke-width:0.6;" x="128.691614" xlink:href="#m517eb2c7e8" y="246.196875"/>
      </g>
     </g>
    </g>
    <g id="xtick_14">
     <g id="line2d_14">
      <g>
       <use style="stroke:#000000;stroke-width:0.6;" x="174.059635" xlink:href="#m517eb2c7e8" y="246.196875"/>
      </g>
     </g>
    </g>
    <g id="xtick_15">
     <g id="line2d_15">
      <g>
       <use style="stroke:#000000;stroke-width:0.6;" x="197.096545" xlink:href="#m517eb2c7e8" y="246.196875"/>
      </g>
     </g>
    </g>
    <g id="xtick_16">
     <g id="line2d_16">
      <g>
       <use style="stroke:#000000;stroke-width:0.6;" x="213.441493" xlink:href="#m517eb2c7e8" y="246.196875"/>
      </g>
     </g>
    </g>
    <g id="xtick_17">
     <g id="line2d_17">
      <g>
       <use style="stroke:#000000;stroke-width:0.6;" x="226.119619" xlink:href="#m517eb2c7e8" y="246.196875"/>
      </g>
     </g>
    </g>
    <g id="xtick_18">
     <g id="line2d_18">
      <g>
       <use style="stroke:#000000;stroke-width:0.6;" x="236.478402" xlink:href="#m517eb2c7e8" y="246.196875"/>
      </g>
     </g>
    </g>
    <g id="xtick_19">
     <g id="line2d_19">
      <g>
       <use style="stroke:#000000;stroke-width:0.6;" x="245.236629" xlink:href="#m517eb2c7e8" y="246.196875"/>
      </g>
     </g>
    </g>
    <g id="xtick_20">
     <g id="line2d_20">
      <g>
       <use style="stroke:#000000;stroke-width:0.6;" x="252.82335" xlink:href="#m517eb2c7e8" y="246.196875"/>
      </g>
     </g>
    </g>
    <g id="xtick_21">
     <g id="line2d_21">
      <g>
       <use style="stroke:#000000;stroke-width:0.6;" x="259.515312" xlink:href="#m517eb2c7e8" y="246.196875"/>
      </g>
     </g>
    </g>
    <g id="xtick_22">
     <g id="line2d_22">
      <g>
       <use style="stroke:#000000;stroke-width:0.6;" x="304.883333" xlink:href="#m517eb2c7e8" y="246.196875"/>
      </g>
     </g>
    </g>
    <g id="xtick_23">
     <g id="line2d_23">
      <g>
       <use style="stroke:#000000;stroke-width:0.6;" x="327.920243" xlink:href="#m517eb2c7e8" y="246.196875"/>
      </g>
     </g>
    </g>
    <g id="xtick_24">
     <g id="line2d_24">
      <g>
       <use style="stroke:#000000;stroke-width:0.6;" x="344.265191" xlink:href="#m517eb2c7e8" y="246.196875"/>
      </g>
     </g>
    </g>
    <g id="xtick_25">
     <g id="line2d_25">
      <g>
       <use style="stroke:#000000;stroke-width:0.6;" x="356.943317" xlink:href="#m517eb2c7e8" y="246.196875"/>
      </g>
     </g>
    </g>
    <g id="xtick_26">
     <g id="line2d_26">
      <g>
       <use style="stroke:#000000;stroke-width:0.6;" x="367.3021" xlink:href="#m517eb2c7e8" y="246.196875"/>
      </g>
     </g>
    </g>
    <g id="xtick_27">
     <g id="line2d_27">
      <g>
       <use style="stroke:#000000;stroke-width:0.6;" x="376.060327" xlink:href="#m517eb2c7e8" y="246.196875"/>
      </g>
     </g>
    </g>
    <g id="xtick_28">
     <g id="line2d_28">
      <g>
       <use style="stroke:#000000;stroke-width:0.6;" x="383.647048" xlink:href="#m517eb2c7e8" y="246.196875"/>
      </g>
     </g>
    </g>
    <g id="xtick_29">
     <g id="line2d_29">
      <g>
       <use style="stroke:#000000;stroke-width:0.6;" x="390.33901" xlink:href="#m517eb2c7e8" y="246.196875"/>
      </g>
     </g>
    </g>
    <g id="xtick_30">
     <g id="line2d_30">
      <g>
       <use style="stroke:#000000;stroke-width:0.6;" x="435.707031" xlink:href="#m517eb2c7e8" y="246.196875"/>
      </g>
     </g>
    </g>
    <g id="text_6">
     <text style="font-family:Open Sans;font-size:10px;font-style:normal;font-weight:normal;text-anchor:middle;" transform="rotate(-0, 239.471484, 274.796875)" x="239.471484" y="274.796875">Frequency (Hz)</text>
    </g>
   </g>
   <g id="matplotlib.axis_2">
    <g id="ytick_1">
     <g id="line2d_31">
      <defs>
       <path d="M 0 0 
L -3.5 0 
" id="m775f205528" style="stroke:#000000;stroke-width:0.8;"/>
      </defs>
      <g>
       <use style="stroke:#000000;stroke-width:0.8;" x="43.235938" xlink:href="#m775f205528" y="246.196875"/>
      </g>
     </g>
     <g id="text_7">
      <text style="font-family:Open Sans;font-size:10px;font-style:normal;font-weight:normal;text-anchor:end;" transform="rotate(-0, 36.235938, 249.996094)" x="36.235938" y="249.996094">−6</text>
     </g>
    </g>
    <g id="ytick_2">
     <g id="line2d_32">
      <g>
       <use style="stroke:#000000;stroke-width:0.8;" x="43.235938" xlink:href="#m775f205528" y="213.111496"/>
      </g>
     </g>
     <g id="text_8">
      <text style="font-family:Open Sans;font-size:10px;font-style:normal;font-weight:normal;text-anchor:end;" transform="rotate(-0, 36.235938, 216.910714)" x="36.235938" y="216.910714">−5</text>
     </g>
    </g>
    <g id="ytick_3">
     <g id="line2d_33">
      <g>
       <use style="stroke:#000000;stroke-width:0.8;" x="43.235938" xlink:href="#m775f205528" y="180.026116"/>
      </g>
     </g>
     <g id="text_9">
      <text style="font-family:Open Sans;font-size:10px;font-style:normal;font-weight:normal;text-anchor:end;" transform="rotate(-0, 36.235938, 183.825335)" x="36.235938" y="183.825335">−4</text>
     </g>
    </g>
    <g id="ytick_4">
     <g id="line2d_34">
      <g>
       <use style="stroke:#000000;stroke-width:0.8;" x="43.235938" xlink:href="#m775f205528" y="146.940737"/>
      </g>
     </g>
     <g id="text_10">
      <text style="font-family:Open Sans;font-size:10px;font-style:normal;font-weight:normal;text-anchor:end;" transform="rotate(-0, 36.235938, 150.739955)" x="36.235938" y="150.739955">−3</text>
     </g>
    </g>
    <g id="ytick_5">
     <g id="line2d_35">
      <g>
       <use style="stroke:#000000;stroke-width:0.8;" x="43.235938" xlink:href="#m775f205528" y="113.855357"/>
      </g>
     </g>
     <g id="text_11">
      <text style="font-family:Open Sans;font-size:10px;font-style:normal;font-weight:normal;text-anchor:end;" transform="rotate(-0, 36.235938, 117.654576)" x="36.235938" y="117.654576">−2</text>
     </g>
    </g>
    <g id="ytick_6">
     <g id="line2d_36">
      <g>
       <use style="stroke:#000000;stroke-width:0.8;" x="43.235938" xlink:href="#m775f205528" y="80.769978"/>
      </g>
     </g>
     <g id="text_12">
      <text style="font-family:Open Sans;font-size:10px;font-style:normal;font-weight:normal;text-anchor:end;" transform="rotate(-0, 36.235938, 84.569196)" x="36.235938" y="84.569196">−1</text>
     </g>
    </g>
    <g id="ytick_7">
     <g id="line2d_37">
      <g>
       <use style="stroke:#000000;stroke-width:0.8;" x="43.235938" xlink:href="#m775f205528" y="47.684598"/>
      </g>
     </g>
     <g id="text_13">
      <text style="font-family:Open Sans;font-size:10px;font-style:normal;font-weight:normal;text-anchor:end;" transform="rotate(-0, 36.235938, 51.483817)" x="36.235938" y="51.483817">0</text>
     </g>
    </g>
    <g id="ytick_8">
     <g id="line2d_38">
      <g>
       <use style="stroke:#000000;stroke-width:0.8;" x="43.235938" xlink:href="#m775f205528" y="14.599219"/>
      </g>
     </g>
     <g id="text_14">
      <text style="font-family:Open Sans;font-size:10px;font-style:normal;font-weight:normal;text-anchor:end;" transform="rotate(-0, 36.235938, 18.398438)" x="36.235938" y="18.398438">1</text>
     </g>
    </g>
    <g id="text_15">
     <text style="font-family:Open Sans;font-size:10px;font-style:normal;font-weight:normal;text-anchor:middle;" transform="rotate(-90, 18.398438, 130.398047)" x="18.398438" y="130.398047">Gain over 10 meters (dB)</text>
    </g>
   </g>
   <g id="line2d_39">
    <path clip-path="url(#p3aacf7efac)" d="M 43.235938 47.694081 
L 145.036562 47.857863 
L 204.207815 48.154009 
L 228.347983 48.477138 
L 245.236629 48.918867 
L 258.238494 49.482148 
L 268.812083 50.164833 
L 277.723246 50.963078 
L 285.4244 51.87209 
L 292.205207 52.886398 
L 298.262347 54.000007 
L 304.312313 55.346002 
L 309.779606 56.797421 
L 314.766666 58.344696 
L 319.789824 60.145784 
L 324.404729 62.038058 
L 329.045349 64.191242 
L 333.335387 66.421372 
L 337.644204 68.90612 
L 341.945848 71.641167 
L 346.219742 74.615862 
L 350.704074 78.013279 
L 355.329772 81.807674 
L 360.039118 85.957419 
L 365.179693 90.787273 
L 370.968921 96.545794 
L 377.818487 103.68825 
L 388.412859 115.105253 
L 402.966611 130.729611 
L 413.878719 142.080384 
L 429.022171 157.821023 
L 434.732855 164.111589 
L 435.707031 165.223935 
L 435.707031 165.223935 
" style="fill:none;stroke:#1f77b4;stroke-dasharray:5.55,2.4;stroke-dashoffset:0;stroke-width:1.5;"/>
   </g>
   <g id="line2d_40">
    <path clip-path="url(#p3aacf7efac)" d="M 43.235938 47.688806 
L 145.036562 47.819938 
L 188.966126 48.140914 
L 245.236629 48.85419 
L 270.91662 49.360922 
L 286.219043 49.87227 
L 298.262347 50.492142 
L 308.19394 51.22984 
L 316.181246 52.034657 
L 323.182833 52.947472 
L 329.415487 53.968276 
L 335.364746 55.170705 
L 340.749677 56.493685 
L 345.668126 57.936128 
L 350.19451 59.49677 
L 354.386746 61.174202 
L 358.290795 62.96689 
L 362.151481 64.988827 
L 365.766439 67.136056 
L 369.165087 69.406383 
L 372.544813 71.933838 
L 375.734733 74.59305 
L 378.909637 77.531323 
L 382.062722 80.766222 
L 385.049983 84.150291 
L 388.019667 87.850723 
L 390.966818 91.88364 
L 393.887341 96.264503 
L 396.777894 101.007902 
L 399.635781 106.127356 
L 402.458868 111.635113 
L 405.342539 117.756444 
L 408.179202 124.299603 
L 411.056577 131.499429 
L 413.962088 139.379905 
L 416.884699 147.960964 
L 419.814803 157.257754 
L 422.815444 167.533384 
L 425.868565 178.807418 
L 428.958225 191.089593 
L 432.070504 204.378704 
L 435.250675 218.932997 
L 435.707031 221.103586 
L 435.707031 221.103586 
" style="fill:none;stroke:#ff7f0e;stroke-linecap:square;stroke-width:1.5;"/>
   </g>
   <g id="line2d_41">
    <path clip-path="url(#p3aacf7efac)" d="M 43.235938 47.686783 
L 153.794788 47.789039 
L 188.966126 48.024142 
L 213.441493 48.408943 
L 234.552251 48.969495 
L 258.238494 49.837786 
L 296.971018 51.511933 
L 314.287203 52.45073 
L 325.994092 53.303476 
L 335.031513 54.174885 
L 342.826734 55.145732 
L 349.680335 56.226187 
L 355.563103 57.371689 
L 360.89351 58.626079 
L 365.766439 59.990994 
L 370.433759 61.531335 
L 374.746603 63.193237 
L 378.755036 64.976981 
L 382.499211 66.882634 
L 386.147912 68.993742 
L 389.576367 71.236397 
L 392.80966 73.610283 
L 395.983251 76.213953 
L 399.097236 79.062544 
L 402.049382 82.061698 
L 404.953387 85.325946 
L 407.809064 88.871041 
L 410.616482 92.713063 
L 413.37592 96.868387 
L 416.087827 101.353652 
L 418.752791 106.185722 
L 421.444579 111.53339 
L 424.084341 117.275337 
L 426.740096 123.594636 
L 429.340826 130.357523 
L 431.949232 137.761785 
L 434.559194 145.847503 
L 435.707031 149.63282 
L 435.707031 149.63282 
" style="fill:none;stroke:#2ca02c;stroke-dasharray:5.55,2.4;stroke-dashoffset:0;stroke-width:1.5;"/>
   </g>
   <g id="patch_3">
    <path d="M 43.235938 246.196875 
L 43.235938 14.599219 
" style="fill:none;stroke:#000000;stroke-linecap:square;stroke-linejoin:miter;stroke-width:0.8;"/>
   </g>
   <g id="patch_4">
    <path d="M 435.707031 246.196875 
L 435.707031 14.599219 
" style="fill:none;stroke:#000000;stroke-linecap:square;stroke-linejoin:miter;stroke-width:0.8;"/>
   </g>
   <g id="patch_5">
    <path d="M 43.235938 246.196875 
L 435.707031 246.196875 
" style="fill:none;stroke:#000000;stroke-linecap:square;stroke-linejoin:miter;stroke-width:0.8;"/>
   </g>
   <g id="patch_6">
    <path d="M 43.235938 14.599219 
L 435.707031 14.599219 
" style="fill:none;stroke:#000000;stroke-linecap:square;stroke-linejoin:miter;stroke-width:0.8;"/>
   </g>
   <g id="legend_1">
    <g id="patch_7">
     <path d="M 50.235938 241.196875 
L 147.945312 241.196875 
Q 149.945312 241.196875 149.945312 239.196875 
L 149.945312 195.192187 
Q 149.945312 193.192187 147.945312 193.192187 
L 50.235938 193.192187 
Q 48.235938 193.192187 48.235938 195.192187 
L 48.235938 239.196875 
Q 48.235938 241.196875 50.235938 241.196875 
z
" style="fill:#ffffff;opacity:0.8;stroke:#cccccc;stroke-linejoin:miter;"/>
    </g>
    <g id="line2d_42">
     <path d="M 52.235938 201.290625 
L 72.235938 201.290625 
" style="fill:none;stroke:#1f77b4;stroke-dasharray:5.55,2.4;stroke-dashoffset:0;stroke-width:1.5;"/>
    </g>
    <g id="line2d_43"/>
    <g id="text_16">
     <text style="font-family:Open Sans;font-size:10px;font-style:normal;font-weight:normal;text-anchor:start;" transform="rotate(-0, 80.235938, 204.790625)" x="80.235938" y="204.790625">10 °C; 30 %RH</text>
    </g>
    <g id="line2d_44">
     <path d="M 52.235938 216.292188 
L 72.235938 216.292188 
" style="fill:none;stroke:#ff7f0e;stroke-linecap:square;stroke-width:1.5;"/>
    </g>
    <g id="line2d_45"/>
    <g id="text_17">
     <text style="font-family:Open Sans;font-size:10px;font-style:normal;font-weight:normal;text-anchor:start;" transform="rotate(-0, 80.235938, 219.792188)" x="80.235938" y="219.792188">20 °C; 50 %RH</text>
    </g>
    <g id="line2d_46">
     <path d="M 52.235938 231.29375 
L 72.235938 231.29375 
" style="fill:none;stroke:#2ca02c;stroke-dasharray:5.55,2.4;stroke-dashoffset:0;stroke-width:1.5;"/>
    </g>
    <g id="line2d_47"/>
    <g id="text_18">
     <text style="font-family:Open Sans;font-size:10px;font-style:normal;font-weight:normal;text-anchor:start;" transform="rotate(-0, 80.235938, 234.79375)" x="80.235938" y="234.79375">30 °C; 70 %RH</text>
    </g>
   </g>
  </g>
 </g>
 <defs>
  <clipPath id="p3aacf7efac">
   <rect height="231.597656" width="392.471094" x="43.235938" y="14.599219"/>
  </clipPath>
 </defs>
</svg>
