<?xml version="1.0" encoding="utf-8" standalone="no"?>
<?xml-stylesheet type="text/css" href="https://fonts.googleapis.com/css?family=Open+Sans:300italic,400italic,600italic,700italic,400,600,700,300&amp;subset=latin,cyrillic-ext,latin-ext,cyrillic" ?>
<!DOCTYPE svg PUBLIC "-//W3C//DTD SVG 1.1//EN"
  "http://www.w3.org/Graphics/SVG/1.1/DTD/svg11.dtd">
<!-- Created with matplotlib (http://matplotlib.org/) -->
<svg height="180pt" version="1.1" viewBox="0 0 460.8 180" width="460.8pt" xmlns="http://www.w3.org/2000/svg" xmlns:xlink="http://www.w3.org/1999/xlink">
 <defs>
  <style type="text/css">
*{stroke-linecap:butt;stroke-linejoin:round;}
  </style>
 </defs>
 <g id="figure_1">
  <g id="patch_1">
   <path d="M 0 180 
L 460.8 180 
L 460.8 0 
L 0 0 
z
" style="fill:#fefefe;"/>
  </g>
  <g id="axes_1">
   <g id="patch_2">
    <path d="M 51.614063 138.196875 
L 446.5 138.196875 
L 446.5 14.3 
L 51.614063 14.3 
z
" style="fill:#ffffff;"/>
   </g>
   <g id="line2d_1">
    <path clip-path="url(#pb1523cfd7d)" d="M 51.614063 76.248437 
L 446.5 76.248437 
" style="fill:none;stroke:#808080;stroke-linecap:square;stroke-width:1.5;"/>
   </g>
   <g id="matplotlib.axis_1">
    <g id="xtick_1">
     <g id="line2d_2">
      <defs>
       <path d="M 0 0 
L 0 3.5 
" id="m46383f697b" style="stroke:#000000;stroke-width:0.8;"/>
      </defs>
      <g>
       <use style="stroke:#000000;stroke-width:0.8;" x="51.614063" xlink:href="#m46383f697b" y="138.196875"/>
      </g>
     </g>
     <g id="text_1">
      <text style="font-family:Open Sans;font-size:10px;font-style:normal;font-weight:normal;text-anchor:middle;" transform="rotate(-0, 51.614063, 152.795312)" x="51.614063" y="152.795312">0.0</text>
     </g>
    </g>
    <g id="xtick_2">
     <g id="line2d_3">
      <g>
       <use style="stroke:#000000;stroke-width:0.8;" x="117.6485" xlink:href="#m46383f697b" y="138.196875"/>
      </g>
     </g>
     <g id="text_2">
      <text style="font-family:Open Sans;font-size:10px;font-style:normal;font-weight:normal;text-anchor:middle;" transform="rotate(-0, 117.6485, 152.795312)" x="117.6485" y="152.795312">0.5</text>
     </g>
    </g>
    <g id="xtick_3">
     <g id="line2d_4">
      <g>
       <use style="stroke:#000000;stroke-width:0.8;" x="183.682938" xlink:href="#m46383f697b" y="138.196875"/>
      </g>
     </g>
     <g id="text_3">
      <text style="font-family:Open Sans;font-size:10px;font-style:normal;font-weight:normal;text-anchor:middle;" transform="rotate(-0, 183.682938, 152.795312)" x="183.682938" y="152.795312">1.0</text>
     </g>
    </g>
    <g id="xtick_4">
     <g id="line2d_5">
      <g>
       <use style="stroke:#000000;stroke-width:0.8;" x="249.717376" xlink:href="#m46383f697b" y="138.196875"/>
      </g>
     </g>
     <g id="text_4">
      <text style="font-family:Open Sans;font-size:10px;font-style:normal;font-weight:normal;text-anchor:middle;" transform="rotate(-0, 249.717376, 152.795312)" x="249.717376" y="152.795312">1.5</text>
     </g>
    </g>
    <g id="xtick_5">
     <g id="line2d_6">
      <g>
       <use style="stroke:#000000;stroke-width:0.8;" x="315.751813" xlink:href="#m46383f697b" y="138.196875"/>
      </g>
     </g>
     <g id="text_5">
      <text style="font-family:Open Sans;font-size:10px;font-style:normal;font-weight:normal;text-anchor:middle;" transform="rotate(-0, 315.751813, 152.795312)" x="315.751813" y="152.795312">2.0</text>
     </g>
    </g>
    <g id="xtick_6">
     <g id="line2d_7">
      <g>
       <use style="stroke:#000000;stroke-width:0.8;" x="381.786251" xlink:href="#m46383f697b" y="138.196875"/>
      </g>
     </g>
     <g id="text_6">
      <text style="font-family:Open Sans;font-size:10px;font-style:normal;font-weight:normal;text-anchor:middle;" transform="rotate(-0, 381.786251, 152.795312)" x="381.786251" y="152.795312">2.5</text>
     </g>
    </g>
    <g id="text_7">
     <text style="font-family:Open Sans;font-size:10px;font-style:normal;font-weight:normal;text-anchor:middle;" transform="rotate(-0, 249.057031, 166.796875)" x="249.057031" y="166.796875">Time (milliseconds)</text>
    </g>
   </g>
   <g id="matplotlib.axis_2">
    <g id="ytick_1">
     <g id="line2d_8">
      <defs>
       <path d="M 0 0 
L -3.5 0 
" id="m568ee009f4" style="stroke:#000000;stroke-width:0.8;"/>
      </defs>
      <g>
       <use style="stroke:#000000;stroke-width:0.8;" x="51.614063" xlink:href="#m568ee009f4" y="132.565199"/>
      </g>
     </g>
     <g id="text_8">
      <text style="font-family:Open Sans;font-size:10px;font-style:normal;font-weight:normal;text-anchor:end;" transform="rotate(-0, 44.614063, 136.364418)" x="44.614063" y="136.364418">−1.0</text>
     </g>
    </g>
    <g id="ytick_2">
     <g id="line2d_9">
      <g>
       <use style="stroke:#000000;stroke-width:0.8;" x="51.614063" xlink:href="#m568ee009f4" y="104.406818"/>
      </g>
     </g>
     <g id="text_9">
      <text style="font-family:Open Sans;font-size:10px;font-style:normal;font-weight:normal;text-anchor:end;" transform="rotate(-0, 44.614063, 108.206037)" x="44.614063" y="108.206037">−0.5</text>
     </g>
    </g>
    <g id="ytick_3">
     <g id="line2d_10">
      <g>
       <use style="stroke:#000000;stroke-width:0.8;" x="51.614063" xlink:href="#m568ee009f4" y="76.248437"/>
      </g>
     </g>
     <g id="text_10">
      <text style="font-family:Open Sans;font-size:10px;font-style:normal;font-weight:normal;text-anchor:end;" transform="rotate(-0, 44.614063, 80.047656)" x="44.614063" y="80.047656">0.0</text>
     </g>
    </g>
    <g id="ytick_4">
     <g id="line2d_11">
      <g>
       <use style="stroke:#000000;stroke-width:0.8;" x="51.614063" xlink:href="#m568ee009f4" y="48.090057"/>
      </g>
     </g>
     <g id="text_11">
      <text style="font-family:Open Sans;font-size:10px;font-style:normal;font-weight:normal;text-anchor:end;" transform="rotate(-0, 44.614063, 51.889276)" x="44.614063" y="51.889276">0.5</text>
     </g>
    </g>
    <g id="ytick_5">
     <g id="line2d_12">
      <g>
       <use style="stroke:#000000;stroke-width:0.8;" x="51.614063" xlink:href="#m568ee009f4" y="19.931676"/>
      </g>
     </g>
     <g id="text_12">
      <text style="font-family:Open Sans;font-size:10px;font-style:normal;font-weight:normal;text-anchor:end;" transform="rotate(-0, 44.614063, 23.730895)" x="44.614063" y="23.730895">1.0</text>
     </g>
    </g>
    <g id="text_13">
     <text style="font-family:Open Sans;font-size:10px;font-style:normal;font-weight:normal;text-anchor:middle;" transform="rotate(-90, 18.398438, 76.248437)" x="18.398438" y="76.248437">Amplitude</text>
    </g>
   </g>
   <g id="line2d_13">
    <path clip-path="url(#pb1523cfd7d)" d="M 51.614063 76.248437 
L 58.217506 55.365034 
L 62.179573 43.691469 
L 64.82095 36.525843 
L 67.462328 29.986666 
L 70.103705 24.177065 
L 71.424394 21.574977 
L 72.745083 19.931676 
L 96.51748 19.931676 
L 97.838169 21.574977 
L 100.479546 26.984655 
L 103.120924 33.171252 
L 105.762301 40.037202 
L 108.403679 47.474225 
L 112.365745 59.441947 
L 118.969189 80.491828 
L 124.251944 97.131841 
L 128.21401 108.805406 
L 130.855388 115.971032 
L 133.496765 122.510209 
L 136.138143 128.31981 
L 137.458832 130.921898 
L 138.77952 132.565199 
L 162.551918 132.565199 
L 163.872607 130.921898 
L 166.513984 125.51222 
L 169.155362 119.325623 
L 171.796739 112.459673 
L 174.438117 105.02265 
L 178.400183 93.054928 
L 185.003627 72.005047 
L 190.286382 55.365034 
L 194.248448 43.691469 
L 196.889825 36.525843 
L 199.531203 29.986666 
L 202.17258 24.177065 
L 203.493269 21.574977 
L 204.813958 19.931676 
L 228.586356 19.931676 
L 229.907044 21.574977 
L 232.548422 26.984655 
L 235.189799 33.171252 
L 237.831177 40.037202 
L 240.472554 47.474225 
L 244.434621 59.441947 
L 251.038064 80.491828 
L 256.320819 97.131841 
L 260.282886 108.805406 
L 262.924263 115.971032 
L 265.565641 122.510209 
L 268.207018 128.31981 
L 269.527707 130.921898 
L 270.848396 132.565199 
L 294.620793 132.565199 
L 295.941482 130.921898 
L 298.58286 125.51222 
L 301.224237 119.325623 
L 303.865615 112.459673 
L 306.506992 105.02265 
L 310.469058 93.054928 
L 317.072502 72.005047 
L 322.355257 55.365034 
L 326.317323 43.691469 
L 328.958701 36.525843 
L 331.600078 29.986666 
L 334.241456 24.177065 
L 335.562145 21.574977 
L 336.882833 19.931676 
L 360.655231 19.931676 
L 361.97592 21.574977 
L 364.617297 26.984655 
L 367.258675 33.171252 
L 369.900052 40.037202 
L 372.54143 47.474225 
L 376.503496 59.441947 
L 383.10694 80.491828 
L 388.389695 97.131841 
L 392.351761 108.805406 
L 394.993139 115.971032 
L 397.634516 122.510209 
L 400.275894 128.31981 
L 401.596582 130.921898 
L 402.917271 132.565199 
L 426.689669 132.565199 
L 428.010357 130.921898 
L 430.651735 125.51222 
L 433.293112 119.325623 
L 435.93449 112.459673 
L 438.575867 105.02265 
L 442.537934 93.054928 
L 446.5 80.491828 
L 446.5 80.491828 
" style="fill:none;stroke:#1f77b4;stroke-linecap:square;stroke-width:1.5;"/>
   </g>
   <g id="patch_3">
    <path d="M 51.614063 138.196875 
L 51.614063 14.3 
" style="fill:none;stroke:#000000;stroke-linecap:square;stroke-linejoin:miter;stroke-width:0.8;"/>
   </g>
   <g id="patch_4">
    <path d="M 446.5 138.196875 
L 446.5 14.3 
" style="fill:none;stroke:#000000;stroke-linecap:square;stroke-linejoin:miter;stroke-width:0.8;"/>
   </g>
   <g id="patch_5">
    <path d="M 51.614063 138.196875 
L 446.5 138.196875 
" style="fill:none;stroke:#000000;stroke-linecap:square;stroke-linejoin:miter;stroke-width:0.8;"/>
   </g>
   <g id="patch_6">
    <path d="M 51.614063 14.3 
L 446.5 14.3 
" style="fill:none;stroke:#000000;stroke-linecap:square;stroke-linejoin:miter;stroke-width:0.8;"/>
   </g>
  </g>
 </g>
 <defs>
  <clipPath id="pb1523cfd7d">
   <rect height="123.896875" width="394.885938" x="51.614063" y="14.3"/>
  </clipPath>
 </defs>
</svg>
