<?xml version="1.0" encoding="utf-8" standalone="no"?>
<?xml-stylesheet type="text/css" href="https://fonts.googleapis.com/css?family=Open+Sans:300italic,400italic,600italic,700italic,400,600,700,300&amp;subset=latin,cyrillic-ext,latin-ext,cyrillic" ?>
<!DOCTYPE svg PUBLIC "-//W3C//DTD SVG 1.1//EN"
  "http://www.w3.org/Graphics/SVG/1.1/DTD/svg11.dtd">
<!-- Created with matplotlib (http://matplotlib.org/) -->
<svg height="288pt" version="1.1" viewBox="0 0 460 288" width="460pt" xmlns="http://www.w3.org/2000/svg" xmlns:xlink="http://www.w3.org/1999/xlink">
 <defs>
  <style type="text/css">
*{stroke-linecap:butt;stroke-linejoin:round;}
  </style>
 </defs>
 <g id="figure_1">
  <g id="patch_1">
   <path d="M 0 288 
L 460.8 288 
L 460.8 0 
L 0 0 
z
" style="fill:#fefefe;"/>
  </g>
  <g id="axes_1">
   <g id="patch_2">
    <path d="M 48.953125 246.196875 
L 446.5 246.196875 
L 446.5 14.599219 
L 48.953125 14.599219 
z
" style="fill:#ffffff;"/>
   </g>
   <g id="matplotlib.axis_1">
    <g id="xtick_1">
     <g id="line2d_1">
      <defs>
       <path d="M 0 0 
L 0 3.5 
" id="mc229bd63a7" style="stroke:#000000;stroke-width:0.8;"/>
      </defs>
      <g>
       <use style="stroke:#000000;stroke-width:0.8;" x="274.093197" xlink:href="#mc229bd63a7" y="246.196875"/>
      </g>
     </g>
     <g id="text_1">
      <text style="font-family:Open Sans;font-size:10px;font-style:normal;font-weight:400;text-anchor:middle;" transform="rotate(-0, 274.093197, 260.795313)" x="274.093197" y="260.795313">1k</text>
     </g>
    </g>
    <g id="xtick_2">
     <g id="line2d_2">
      <g>
       <use style="stroke:#000000;stroke-width:0.8;" x="337.319218" xlink:href="#mc229bd63a7" y="246.196875"/>
      </g>
     </g>
     <g id="text_2">
      <text style="font-family:Open Sans;font-size:10px;font-style:normal;font-weight:400;text-anchor:middle;" transform="rotate(-0, 337.319218, 260.795313)" x="337.319218" y="260.795313">3k</text>
     </g>
    </g>
    <g id="xtick_3">
     <g id="line2d_3">
      <g>
       <use style="stroke:#000000;stroke-width:0.8;" x="366.717644" xlink:href="#mc229bd63a7" y="246.196875"/>
      </g>
     </g>
     <g id="text_3">
      <text style="font-family:Open Sans;font-size:10px;font-style:normal;font-weight:400;text-anchor:middle;" transform="rotate(-0, 366.717644, 260.795313)" x="366.717644" y="260.795313">5k</text>
     </g>
    </g>
    <g id="xtick_4">
     <g id="line2d_4">
      <g>
       <use style="stroke:#000000;stroke-width:0.8;" x="386.081892" xlink:href="#mc229bd63a7" y="246.196875"/>
      </g>
     </g>
     <g id="text_4">
      <text style="font-family:Open Sans;font-size:10px;font-style:normal;font-weight:400;text-anchor:middle;" transform="rotate(-0, 386.081892, 260.795313)" x="386.081892" y="260.795313">7k</text>
     </g>
    </g>
    <g id="xtick_5">
     <g id="line2d_5">
      <g>
       <use style="stroke:#000000;stroke-width:0.8;" x="400.54524" xlink:href="#mc229bd63a7" y="246.196875"/>
      </g>
     </g>
     <g id="text_5">
      <text style="font-family:Open Sans;font-size:10px;font-style:normal;font-weight:400;text-anchor:middle;" transform="rotate(-0, 400.54524, 260.795313)" x="400.54524" y="260.795313">9k</text>
     </g>
    </g>
    <g id="text_6">
     <text style="font-family:Open Sans;font-size:10px;font-style:normal;font-weight:400;text-anchor:middle;" transform="rotate(-0, 247.726562, 274.796875)" x="247.726562" y="274.796875">Frequency (Hz)</text>
    </g>
   </g>
   <g id="matplotlib.axis_2">
    <g id="ytick_1">
     <g id="line2d_6">
      <defs>
       <path d="M 0 0 
L -3.5 0 
" id="m1780ff2f10" style="stroke:#000000;stroke-width:0.8;"/>
      </defs>
      <g>
       <use style="stroke:#000000;stroke-width:0.8;" x="48.953125" xlink:href="#m1780ff2f10" y="246.196875"/>
      </g>
     </g>
     <g id="text_7">
      <text style="font-family:Open Sans;font-size:10px;font-style:normal;font-weight:400;text-anchor:end;" transform="rotate(-0, 41.953125, 249.996094)" x="41.953125" y="249.996094">−60</text>
     </g>
    </g>
    <g id="ytick_2">
     <g id="line2d_7">
      <g>
       <use style="stroke:#000000;stroke-width:0.8;" x="48.953125" xlink:href="#m1780ff2f10" y="207.597266"/>
      </g>
     </g>
     <g id="text_8">
      <text style="font-family:Open Sans;font-size:10px;font-style:normal;font-weight:400;text-anchor:end;" transform="rotate(-0, 41.953125, 211.396484)" x="41.953125" y="211.396484">−50</text>
     </g>
    </g>
    <g id="ytick_3">
     <g id="line2d_8">
      <g>
       <use style="stroke:#000000;stroke-width:0.8;" x="48.953125" xlink:href="#m1780ff2f10" y="168.997656"/>
      </g>
     </g>
     <g id="text_9">
      <text style="font-family:Open Sans;font-size:10px;font-style:normal;font-weight:400;text-anchor:end;" transform="rotate(-0, 41.953125, 172.796875)" x="41.953125" y="172.796875">−40</text>
     </g>
    </g>
    <g id="ytick_4">
     <g id="line2d_9">
      <g>
       <use style="stroke:#000000;stroke-width:0.8;" x="48.953125" xlink:href="#m1780ff2f10" y="130.398047"/>
      </g>
     </g>
     <g id="text_10">
      <text style="font-family:Open Sans;font-size:10px;font-style:normal;font-weight:400;text-anchor:end;" transform="rotate(-0, 41.953125, 134.197266)" x="41.953125" y="134.197266">−30</text>
     </g>
    </g>
    <g id="ytick_5">
     <g id="line2d_10">
      <g>
       <use style="stroke:#000000;stroke-width:0.8;" x="48.953125" xlink:href="#m1780ff2f10" y="91.798438"/>
      </g>
     </g>
     <g id="text_11">
      <text style="font-family:Open Sans;font-size:10px;font-style:normal;font-weight:400;text-anchor:end;" transform="rotate(-0, 41.953125, 95.597656)" x="41.953125" y="95.597656">−20</text>
     </g>
    </g>
    <g id="ytick_6">
     <g id="line2d_11">
      <g>
       <use style="stroke:#000000;stroke-width:0.8;" x="48.953125" xlink:href="#m1780ff2f10" y="53.198828"/>
      </g>
     </g>
     <g id="text_12">
      <text style="font-family:Open Sans;font-size:10px;font-style:normal;font-weight:400;text-anchor:end;" transform="rotate(-0, 41.953125, 56.998047)" x="41.953125" y="56.998047">−10</text>
     </g>
    </g>
    <g id="ytick_7">
     <g id="line2d_12">
      <g>
       <use style="stroke:#000000;stroke-width:0.8;" x="48.953125" xlink:href="#m1780ff2f10" y="14.599219"/>
      </g>
     </g>
     <g id="text_13">
      <text style="font-family:Open Sans;font-size:10px;font-style:normal;font-weight:400;text-anchor:end;" transform="rotate(-0, 41.953125, 18.398438)" x="41.953125" y="18.398438">0</text>
     </g>
    </g>
    <g id="text_14">
     <text style="font-family:Open Sans;font-size:10px;font-style:normal;font-weight:400;text-anchor:middle;" transform="rotate(-90, 18.398438, 130.398047)" x="18.398438" y="130.398047">Amplitude (dB)</text>
    </g>
   </g>
   <g id="line2d_13">
    <path clip-path="url(#pe07b63c27c)" d="M 268.685767 289 
L 274.093197 22.889466 
L 277.607776 289 
M 336.21376 289 
L 337.319218 114.59056 
L 338.300044 289 
M 366.163487 289 
L 366.717644 137.163451 
L 367.246304 289 
M 385.811932 289 
L 386.081892 192.666538 
L 386.328101 289 
M 400.336107 289 
L 400.54524 192.442636 
L 400.745346 289 
M 411.929952 289 
L 412.094 193.989624 
L 412.255086 289 
M 421.681504 289 
L 421.708097 272.658271 
L 421.708097 272.658271 
L 421.708097 272.658271 
L 421.734022 289 
M 429.850758 289 
L 429.943665 219.335285 
L 430.036145 289 
M 437.077221 289 
L 437.146905 229.341924 
L 437.21646 289 
M 443.545135 289 
L 443.54803 286.367206 
L 443.54803 286.367206 
L 443.54803 286.367206 
L 443.550837 289 
M 449.259462 289 
L 449.307913 238.572192 
L 449.307913 238.572192 
L 449.307913 238.572192 
L 449.355573 289 
M 454.520071 289 
L 454.543412 261.432026 
L 454.543412 261.432026 
L 454.543412 261.432026 
L 454.567612 289 
M 459.330166 289 
L 459.342091 274.506116 
L 459.342091 274.506116 
L 459.342091 274.506116 
L 459.353255 289 
L 459.353255 289 
" style="fill:none;stroke:#1f77b4;stroke-linecap:square;stroke-width:1.5;"/>
   </g>
   <g id="patch_3">
    <path d="M 48.953125 246.196875 
L 48.953125 14.599219 
" style="fill:none;stroke:#000000;stroke-linecap:square;stroke-linejoin:miter;stroke-width:0.8;"/>
   </g>
   <g id="patch_4">
    <path d="M 446.5 246.196875 
L 446.5 14.599219 
" style="fill:none;stroke:#000000;stroke-linecap:square;stroke-linejoin:miter;stroke-width:0.8;"/>
   </g>
   <g id="patch_5">
    <path d="M 48.953125 246.196875 
L 446.5 246.196875 
" style="fill:none;stroke:#000000;stroke-linecap:square;stroke-linejoin:miter;stroke-width:0.8;"/>
   </g>
   <g id="patch_6">
    <path d="M 48.953125 14.599219 
L 446.5 14.599219 
" style="fill:none;stroke:#000000;stroke-linecap:square;stroke-linejoin:miter;stroke-width:0.8;"/>
   </g>
  </g>
  <g id="patch_7">
   <path d="M 366.990625 269.356641 
C 388.076758 269.356641 408.302096 259.595605 423.212243 242.223287 
C 438.122391 224.85097 446.5 201.285745 446.5 176.717578 
C 446.5 152.149412 438.122391 128.584186 423.212243 111.211869 
C 408.302096 93.839552 388.076758 84.078516 366.990625 84.078516 
C 345.904492 84.078516 325.679154 93.839552 310.769007 111.211869 
C 295.858859 128.584186 287.48125 152.149412 287.48125 176.717578 
C 287.48125 201.285745 295.858859 224.85097 310.769007 242.223287 
C 325.679154 259.595605 345.904492 269.356641 366.990625 269.356641 
z
" style="fill:none;stroke:#ff0000;stroke-linejoin:miter;stroke-width:2;"/>
  </g>
 </g>
 <defs>
  <clipPath id="pe07b63c27c">
   <rect height="231.597656" width="397.546875" x="48.953125" y="14.599219"/>
  </clipPath>
 </defs>
</svg>
