<?xml version="1.0" encoding="UTF-8" standalone="no"?>
<?xml-stylesheet type="text/css" href="https://fonts.googleapis.com/css?family=Open+Sans:300italic,400italic,600italic,700italic,400,600,700,300&amp;subset=latin,cyrillic-ext,latin-ext,cyrillic" ?>
<svg xmlns="http://www.w3.org/2000/svg"
     xmlns:xlink="http://www.w3.org/1999/xlink"
     width="600px" height="300px" viewBox="0 0 600 300">
<title>gl2ps_renderer figure</title>
<desc>
Creator: GL2PS 1.4.0, (C) 1999-2017 C. Geuzaine
For: Octave
</desc>
<defs>
</defs>
<polygon fill="#ffffff" points="0,0 600,0 600,300 0,300"/>
<g>
<polygon fill="#fefefe" points="0,300 600,300 600,0 0,0" shape-rendering="crispEdges"/>
<clipPath id="cp00600300">
  <polygon points="0,300 600,300 600,0 0,0"/>
</clipPath>
<g clip-path="url(#cp00600300)">
<polygon fill="#ffffff" shape-rendering="crispEdges" points="60,250 560,250 60,5"/>
<polygon fill="#ffffff" shape-rendering="crispEdges" points="560,250 560,5 60,5"/>
<polyline fill="none" stroke="#262626" stroke-width="0.5" stroke-linecap="butt" stroke-linejoin="miter" points="343.162,250 343.162,245"/>
<polyline fill="none" stroke="#262626" stroke-width="0.5" stroke-linecap="butt" stroke-linejoin="miter" points="343.162,5 343.162,10"/>
<polyline fill="none" stroke="#262626" stroke-width="0.5" stroke-linecap="butt" stroke-linejoin="miter" points="422.682,250 422.682,245"/>
<polyline fill="none" stroke="#262626" stroke-width="0.5" stroke-linecap="butt" stroke-linejoin="miter" points="422.682,5 422.682,10"/>
<polyline fill="none" stroke="#262626" stroke-width="0.5" stroke-linecap="butt" stroke-linejoin="miter" points="459.657,250 459.657,245"/>
<polyline fill="none" stroke="#262626" stroke-width="0.5" stroke-linecap="butt" stroke-linejoin="miter" points="459.657,5 459.657,10"/>
<polyline fill="none" stroke="#262626" stroke-width="0.5" stroke-linecap="butt" stroke-linejoin="miter" points="484.011,250 484.011,245"/>
<polyline fill="none" stroke="#262626" stroke-width="0.5" stroke-linecap="butt" stroke-linejoin="miter" points="484.011,5 484.011,10"/>
<polyline fill="none" stroke="#262626" stroke-width="0.5" stroke-linecap="butt" stroke-linejoin="miter" points="502.202,250 502.202,245"/>
<polyline fill="none" stroke="#262626" stroke-width="0.5" stroke-linecap="butt" stroke-linejoin="miter" points="502.202,5 502.202,10"/>
<text fill="#262626" x="343.162" y="255" font-size="10" text-anchor="middle" dy="10" font-family="Open Sans">1k</text>
<text fill="#262626" x="422.682" y="255" font-size="10" text-anchor="middle" dy="10" font-family="Open Sans">3k</text>
<text fill="#262626" x="459.657" y="255" font-size="10" text-anchor="middle" dy="10" font-family="Open Sans">5k</text>
<text fill="#262626" x="484.011" y="255" font-size="10" text-anchor="middle" dy="10" font-family="Open Sans">7k</text>
<text fill="#262626" x="502.202" y="255" font-size="10" text-anchor="middle" dy="10" font-family="Open Sans">9k</text>
<polyline fill="none" stroke="#262626" stroke-width="0.5" stroke-linecap="butt" stroke-linejoin="miter" points="60,250 65,250"/>
<polyline fill="none" stroke="#262626" stroke-width="0.5" stroke-linecap="butt" stroke-linejoin="miter" points="560,250 555,250"/>
<polyline fill="none" stroke="#262626" stroke-width="0.5" stroke-linecap="butt" stroke-linejoin="miter" points="60,209.167 65,209.167"/>
<polyline fill="none" stroke="#262626" stroke-width="0.5" stroke-linecap="butt" stroke-linejoin="miter" points="560,209.167 555,209.167"/>
<polyline fill="none" stroke="#262626" stroke-width="0.5" stroke-linecap="butt" stroke-linejoin="miter" points="60,168.333 65,168.333"/>
<polyline fill="none" stroke="#262626" stroke-width="0.5" stroke-linecap="butt" stroke-linejoin="miter" points="560,168.333 555,168.333"/>
<polyline fill="none" stroke="#262626" stroke-width="0.5" stroke-linecap="butt" stroke-linejoin="miter" points="60,127.5 65,127.5"/>
<polyline fill="none" stroke="#262626" stroke-width="0.5" stroke-linecap="butt" stroke-linejoin="miter" points="560,127.5 555,127.5"/>
<polyline fill="none" stroke="#262626" stroke-width="0.5" stroke-linecap="butt" stroke-linejoin="miter" points="60,86.6667 65,86.6667"/>
<polyline fill="none" stroke="#262626" stroke-width="0.5" stroke-linecap="butt" stroke-linejoin="miter" points="560,86.6667 555,86.6667"/>
<polyline fill="none" stroke="#262626" stroke-width="0.5" stroke-linecap="butt" stroke-linejoin="miter" points="60,45.8333 65,45.8333"/>
<polyline fill="none" stroke="#262626" stroke-width="0.5" stroke-linecap="butt" stroke-linejoin="miter" points="560,45.8333 555,45.8333"/>
<polyline fill="none" stroke="#262626" stroke-width="0.5" stroke-linecap="butt" stroke-linejoin="miter" points="60,5 65,5"/>
<polyline fill="none" stroke="#262626" stroke-width="0.5" stroke-linecap="butt" stroke-linejoin="miter" points="560,5 555,5"/>
<text fill="#262626" x="55" y="250" font-size="10" text-anchor="end" dy="5" font-family="Open Sans">-60</text>
<text fill="#262626" x="55" y="209.167" font-size="10" text-anchor="end" dy="5" font-family="Open Sans">-50</text>
<text fill="#262626" x="55" y="168.333" font-size="10" text-anchor="end" dy="5" font-family="Open Sans">-40</text>
<text fill="#262626" x="55" y="127.5" font-size="10" text-anchor="end" dy="5" font-family="Open Sans">-30</text>
<text fill="#262626" x="55" y="86.6667" font-size="10" text-anchor="end" dy="5" font-family="Open Sans">-20</text>
<text fill="#262626" x="55" y="45.8333" font-size="10" text-anchor="end" dy="5" font-family="Open Sans">-10</text>
<text fill="#262626" x="55" y="5" font-size="10" text-anchor="end" dy="5" font-family="Open Sans">0</text>
<polyline fill="none" stroke="#262626" stroke-width="0.5" stroke-linecap="butt" stroke-linejoin="miter" stroke-dasharray="16,0" points="60,250 560,250"/>
<polyline fill="none" stroke="#262626" stroke-width="0.5" stroke-linecap="butt" stroke-linejoin="miter" stroke-dasharray="16,0" points="60,5 560,5"/>
<polyline fill="none" stroke="#262626" stroke-width="0.5" stroke-linecap="butt" stroke-linejoin="miter" stroke-dasharray="16,0" points="60,250 60,5"/>
<polyline fill="none" stroke="#262626" stroke-width="0.5" stroke-linecap="butt" stroke-linejoin="miter" stroke-dasharray="16,0" points="560,250 560,5"/>
<text fill="#262626" x="310" y="268" font-size="10" text-anchor="middle" dy="10" font-family="Open Sans">Frequency (Hz)</text>
<text fill="#262626" x="35" y="127.5" font-size="10" transform="rotate(-90, 35, 127.5)" text-anchor="middle" dy="0" font-family="Open Sans">Amplitude (dB)</text>
<polyline fill="none" stroke="#0071bc" stroke-width="0.5" stroke-linecap="butt" stroke-linejoin="miter" points="338.434,250.245 343.162,13.7838 347.024,250.245"/>
<polyline fill="none" stroke="#0071bc" stroke-width="0.5" stroke-linecap="butt" stroke-linejoin="miter" points="421.702,250.245 422.682,110.826 423.598,250.245"/>
<polyline fill="none" stroke="#0071bc" stroke-width="0.5" stroke-linecap="butt" stroke-linejoin="miter" points="459.161,250.245 459.657,135.169 460.133,250.245"/>
<polyline fill="none" stroke="#0071bc" stroke-width="0.5" stroke-linecap="butt" stroke-linejoin="miter" points="483.826,250.245 484.011,195.039 484.191,250.245"/>
<polyline fill="none" stroke="#0071bc" stroke-width="0.5" stroke-linecap="butt" stroke-linejoin="miter" points="502.058,250.245 502.202,194.754 502.343,250.245"/>
<polyline fill="none" stroke="#0071bc" stroke-width="0.5" stroke-linecap="butt" stroke-linejoin="miter" points="516.616,250.245 516.727,198.224 516.836,250.245"/>
<polyline fill="none" stroke="#0071bc" stroke-width="0.5" stroke-linecap="butt" stroke-linejoin="miter" points="539.142,250.245 539.177,229.165 539.211,250.245"/>
<polyline fill="none" stroke="#0071bc" stroke-width="0.5" stroke-linecap="butt" stroke-linejoin="miter" points="548.229,250.245 548.236,245.159 548.244,250.245"/>
</g>
<clipPath id="cp00600300">
  <polygon points="0,300 600,300 600,0 0,0"/>
</clipPath>
<g clip-path="url(#cp00600300)">
<polyline fill="none" stroke="#ff0000" stroke-width="2" stroke-linecap="butt" stroke-linejoin="miter" points="555,187.5 554.834,194.16 554.336,200.792 553.509,207.371 552.356,213.871 550.881,220.264 549.09,226.525 546.991,232.628 544.593,238.551 541.903,244.267 538.935,249.755 535.699,254.993 532.208,259.958 528.477,264.632 524.521,268.995 520.355,273.03 515.996,276.721 511.462,280.053 506.772,283.011 501.943,285.586 496.996,287.765 491.95,289.54 486.826,290.905 481.644,291.853 476.426,292.381 471.191,292.487 465.962,292.17 460.759,291.431 455.603,290.274 450.516,288.703 445.517,286.725 440.627,284.347 435.865,281.579 431.25,278.433 426.802,274.92 422.537,271.055 418.474,266.854 414.628,262.333 411.016,257.511 407.651,252.407 404.547,247.041 401.716,241.436 399.171,235.614 396.921,229.598 394.975,223.412 393.342,217.082 392.027,210.633 391.036,204.09 390.374,197.481 390.042,190.831 390.042,184.169 390.374,177.519 391.036,170.91 392.027,164.367 393.342,157.918 394.975,151.588 396.921,145.402 399.171,139.386 401.716,133.564 404.547,127.959 407.651,122.593 411.016,117.489 414.628,112.667 418.474,108.146 422.537,103.945 426.802,100.08 431.25,96.5673 435.865,93.4207 440.627,90.6528 445.517,88.2749 450.516,86.2966 455.603,84.7257 460.759,83.5688 465.962,82.8302 471.191,82.5132 476.426,82.6189 481.644,83.147 486.826,84.0952 491.95,85.4598 496.996,87.2353 501.943,89.4145 506.772,91.9886 511.462,94.9474 515.996,98.2788 520.355,101.97 524.521,106.005 528.477,110.368 532.208,115.042 535.699,120.007 538.935,125.245 541.903,130.733 544.593,136.449 546.991,142.372 549.09,148.475 550.881,154.736 552.356,161.129 553.509,167.629 554.336,174.208 554.834,180.84 555,187.5 555,187.5"/>
</g>
</g>
</svg>
