<?xml version="1.0" encoding="UTF-8" standalone="no"?>
<?xml-stylesheet type="text/css" href="https://fonts.googleapis.com/css?family=Open+Sans:300italic,400italic,600italic,700italic,400,600,700,300&amp;subset=latin,cyrillic-ext,latin-ext,cyrillic" ?>
<svg xmlns="http://www.w3.org/2000/svg"
     xmlns:xlink="http://www.w3.org/1999/xlink"
     width="600px" height="180px" viewBox="0 0 600 180">
<title>gl2ps_renderer figure</title>
<desc>
Creator: GL2PS 1.4.0, (C) 1999-2017 C. Geuzaine
For: Octave
</desc>
<defs>
</defs>
<polygon fill="#ffffff" points="0,0 600,0 600,180 0,180"/>
<g>
<polygon fill="#fefefe" points="0,180 600,180 600,0 0,0" shape-rendering="crispEdges"/>
<clipPath id="cp00600180">
  <polygon points="0,180 600,180 600,0 0,0"/>
</clipPath>
<g clip-path="url(#cp00600180)">
<polygon fill="#ffffff" shape-rendering="crispEdges" points="60,130 560,130 60,5"/>
<polygon fill="#ffffff" shape-rendering="crispEdges" points="560,130 560,5 60,5"/>
<polyline fill="none" stroke="#262626" stroke-width="0.5" stroke-linecap="butt" stroke-linejoin="miter" points="60,130 60,125"/>
<polyline fill="none" stroke="#262626" stroke-width="0.5" stroke-linecap="butt" stroke-linejoin="miter" points="60,5 60,10"/>
<polyline fill="none" stroke="#262626" stroke-width="0.5" stroke-linecap="butt" stroke-linejoin="miter" points="143.333,130 143.333,125"/>
<polyline fill="none" stroke="#262626" stroke-width="0.5" stroke-linecap="butt" stroke-linejoin="miter" points="143.333,5 143.333,10"/>
<polyline fill="none" stroke="#262626" stroke-width="0.5" stroke-linecap="butt" stroke-linejoin="miter" points="226.667,130 226.667,125"/>
<polyline fill="none" stroke="#262626" stroke-width="0.5" stroke-linecap="butt" stroke-linejoin="miter" points="226.667,5 226.667,10"/>
<polyline fill="none" stroke="#262626" stroke-width="0.5" stroke-linecap="butt" stroke-linejoin="miter" points="310,130 310,125"/>
<polyline fill="none" stroke="#262626" stroke-width="0.5" stroke-linecap="butt" stroke-linejoin="miter" points="310,5 310,10"/>
<polyline fill="none" stroke="#262626" stroke-width="0.5" stroke-linecap="butt" stroke-linejoin="miter" points="393.333,130 393.333,125"/>
<polyline fill="none" stroke="#262626" stroke-width="0.5" stroke-linecap="butt" stroke-linejoin="miter" points="393.333,5 393.333,10"/>
<polyline fill="none" stroke="#262626" stroke-width="0.5" stroke-linecap="butt" stroke-linejoin="miter" points="476.667,130 476.667,125"/>
<polyline fill="none" stroke="#262626" stroke-width="0.5" stroke-linecap="butt" stroke-linejoin="miter" points="476.667,5 476.667,10"/>
<polyline fill="none" stroke="#262626" stroke-width="0.5" stroke-linecap="butt" stroke-linejoin="miter" points="560,130 560,125"/>
<polyline fill="none" stroke="#262626" stroke-width="0.5" stroke-linecap="butt" stroke-linejoin="miter" points="560,5 560,10"/>
<text fill="#262626" x="60" y="135" font-size="10" text-anchor="middle" dy="10" font-family="Open Sans">0</text>
<text fill="#262626" x="143.333" y="135" font-size="10" text-anchor="middle" dy="10" font-family="Open Sans">0.5</text>
<text fill="#262626" x="226.667" y="135" font-size="10" text-anchor="middle" dy="10" font-family="Open Sans">1</text>
<text fill="#262626" x="310" y="135" font-size="10" text-anchor="middle" dy="10" font-family="Open Sans">1.5</text>
<text fill="#262626" x="393.333" y="135" font-size="10" text-anchor="middle" dy="10" font-family="Open Sans">2</text>
<text fill="#262626" x="476.667" y="135" font-size="10" text-anchor="middle" dy="10" font-family="Open Sans">2.5</text>
<text fill="#262626" x="560" y="135" font-size="10" text-anchor="middle" dy="10" font-family="Open Sans">3</text>
<polyline fill="none" stroke="#262626" stroke-width="0.5" stroke-linecap="butt" stroke-linejoin="miter" stroke-dasharray="16,0" points="60,130 560,130"/>
<polyline fill="none" stroke="#262626" stroke-width="0.5" stroke-linecap="butt" stroke-linejoin="miter" stroke-dasharray="16,0" points="60,5 560,5"/>
<polyline fill="none" stroke="#262626" stroke-width="0.5" stroke-linecap="butt" stroke-linejoin="miter" stroke-dasharray="16,0" points="60,130 60,5"/>
<polyline fill="none" stroke="#262626" stroke-width="0.5" stroke-linecap="butt" stroke-linejoin="miter" stroke-dasharray="16,0" points="560,130 560,5"/>
<text fill="#262626" x="310" y="148" font-size="10" text-anchor="middle" dy="10" font-family="Open Sans">Time (milliseconds)</text>
<polyline fill="none" stroke="#0071bc" stroke-width="0.5" stroke-linecap="butt" stroke-linejoin="miter" points="60,67.5 60.558,66.1853 61.116,64.8711 61.6741,63.5581 62.2321,62.2468 62.7902,60.9379 63.3482,59.6319 63.9062,58.3293 64.4643,57.0309 65.0223,55.737 65.5803,54.4484 66.1384,53.1655 66.6964,51.889 67.2544,50.6194 67.8125,49.3572 68.3705,48.1031 68.9286,46.8576 69.4866,45.6212 70.0446,44.3944 70.6027,43.178 71.1607,41.9722 71.7187,40.7778 72.2768,39.5952 72.8348,38.425 73.3928,37.2676 73.9509,36.1236 74.5089,34.9934 75.067,33.8777 75.625,32.7769 76.183,31.6914 76.7411,30.6217 77.2991,29.5684 77.8571,28.5319 78.4152,27.5126 78.9732,26.511 79.5312,25.5276 80.0893,24.5627 80.6473,23.6168 81.2053,22.6904 81.7634,21.7838 82.3214,20.8974 82.8794,20.0316 83.4375,19.1868 83.9955,18.3635 84.5535,17.5618 85.1116,16.7823 85.6696,16.0252 86.2277,15.4167 86.7857,15.4167 87.3437,15.4167 87.9018,15.4167 88.4598,15.4167 89.0178,15.4167 89.5759,15.4167 90.1339,15.4167 90.6919,15.4167 91.25,15.4167 91.808,15.4167 92.3661,15.4167 92.9241,15.4167 93.4821,15.4167 94.0402,15.4167 94.5982,15.4167 95.1562,15.4167 95.7143,15.4167 96.2723,15.4167 96.8303,15.4167 97.3884,15.4167 97.9464,15.4167 98.5045,15.4167 99.0625,15.4167 99.6205,15.4167 100.179,15.4167 100.737,15.4167 101.295,15.4167 101.853,15.4167 102.411,15.4167 102.969,15.4167 103.527,15.4167 104.085,15.4167 104.643,15.4167 105.201,15.4167 105.759,15.4167 106.317,15.4167 106.875,15.4167 107.433,15.4167 107.991,15.4167 108.549,15.4167 109.107,15.4167 109.665,15.4167 110.223,15.4167 110.781,15.4167 111.339,15.4167 111.897,15.4167 112.455,15.4167 113.013,15.4167 113.571,15.4167 114.129,15.4167 114.687,15.4167 115.246,15.4167 115.804,15.4167 116.362,15.4167 116.92,15.4167 117.478,15.7779 118.036,16.5274 118.594,17.2995 119.152,18.0938 119.71,18.91 120.268,19.7477 120.826,20.6065 121.384,21.486 121.942,22.3859 122.5,23.3058 123.058,24.2453 123.616,25.2039 124.174,26.1812 124.732,27.1768 125.29,28.1902 125.848,29.221 126.406,30.2688 126.964,31.333 127.522,32.4133 128.08,33.5091 128.638,34.6199 129.196,35.7453 129.754,36.8847 130.312,38.0377 130.871,39.2037 131.429,40.3823 131.987,41.5728 132.545,42.7748 133.103,43.9878 133.661,45.2112 134.219,46.4444 134.777,47.6869 135.335,48.9382 135.893,50.1978 136.451,51.465 137.009,52.7393 137.567,54.0201 138.125,55.3069 138.683,56.599 139.241,57.896 139.799,59.1973 140.357,60.5022 140.915,61.8102 141.473,63.1208 142.031,64.4333 142.589,65.7471 143.147,67.0617 143.705,68.3765 144.263,69.6909 144.821,71.0044 145.379,72.3163 145.937,73.6261 146.496,74.9331 147.054,76.2369 147.612,77.5368 148.17,78.8323 148.728,80.1227 149.286,81.4076 149.844,82.6863 150.402,83.9582 150.96,85.2229 151.518,86.4798 152.076,87.7282 152.634,88.9678 153.192,90.1978 153.75,91.4177 154.308,92.6271 154.866,93.8253 155.424,95.0119 155.982,96.1864 156.54,97.3481 157.098,98.4966 157.656,99.6314 158.214,100.752 158.772,101.858 159.33,102.949 159.888,104.024 160.446,105.082 161.004,106.124 161.562,107.15 162.121,108.157 162.679,109.147 163.237,110.118 163.795,111.07 164.353,112.003 164.911,112.916 165.469,113.809 166.027,114.682 166.585,115.534 167.143,116.364 167.701,117.173 168.259,117.96 168.817,118.725 169.375,119.467 169.933,119.583 170.491,119.583 171.049,119.583 171.607,119.583 172.165,119.583 172.723,119.583 173.281,119.583 173.839,119.583 174.397,119.583 174.955,119.583 175.513,119.583 176.071,119.583 176.629,119.583 177.187,119.583 177.746,119.583 178.304,119.583 178.862,119.583 179.42,119.583 179.978,119.583 180.536,119.583 181.094,119.583 181.652,119.583 182.21,119.583 182.768,119.583 183.326,119.583 183.884,119.583 184.442,119.583 185,119.583 185.558,119.583 186.116,119.583 186.674,119.583 187.232,119.583 187.79,119.583 188.348,119.583 188.906,119.583 189.464,119.583 190.022,119.583 190.58,119.583 191.138,119.583 191.696,119.583 192.254,119.583 192.812,119.583 193.371,119.583 193.929,119.583 194.487,119.583 195.045,119.583 195.603,119.583 196.161,119.583 196.719,119.583 197.277,119.583 197.835,119.583 198.393,119.583 198.951,119.583 199.509,119.583 200.067,119.583 200.625,119.467 201.183,118.725 201.741,117.96 202.299,117.173 202.857,116.364 203.415,115.534 203.973,114.682 204.531,113.809 205.089,112.916 205.647,112.003 206.205,111.07 206.763,110.118 207.321,109.147 207.879,108.157 208.437,107.15 208.996,106.124 209.554,105.082 210.112,104.024 210.67,102.949 211.228,101.858 211.786,100.752 212.344,99.6314 212.902,98.4966 213.46,97.3481 214.018,96.1864 214.576,95.0119 215.134,93.8253 215.692,92.6271 216.25,91.4177 216.808,90.1978 217.366,88.9678 217.924,87.7282 218.482,86.4798 219.04,85.2229 219.598,83.9582 220.156,82.6863 220.714,81.4076 221.272,80.1227 221.83,78.8323 222.388,77.5368 222.946,76.2369 223.504,74.9331 224.062,73.6261 224.621,72.3163 225.179,71.0044 225.737,69.6909 226.295,68.3765 226.853,67.0617 227.411,65.7471 227.969,64.4333 228.527,63.1208 229.085,61.8102 229.643,60.5022 230.201,59.1973 230.759,57.896 231.317,56.599 231.875,55.3069 232.433,54.0201 232.991,52.7393 233.549,51.465 234.107,50.1978 234.665,48.9382 235.223,47.6869 235.781,46.4444 236.339,45.2112 236.897,43.9878 237.455,42.7748 238.013,41.5728 238.571,40.3823 239.129,39.2037 239.688,38.0377 240.246,36.8847 240.804,35.7453 241.362,34.6199 241.92,33.5091 242.478,32.4133 243.036,31.333 243.594,30.2688 244.152,29.221 244.71,28.1902 245.268,27.1768 245.826,26.1812 246.384,25.2039 246.942,24.2453 247.5,23.3058 248.058,22.3859 248.616,21.486 249.174,20.6065 249.732,19.7477 250.29,18.91 250.848,18.0938 251.406,17.2995 251.964,16.5274 252.522,15.7779 253.08,15.4167 253.638,15.4167 254.196,15.4167 254.754,15.4167 255.312,15.4167 255.871,15.4167 256.429,15.4167 256.987,15.4167 257.545,15.4167 258.103,15.4167 258.661,15.4167 259.219,15.4167 259.777,15.4167 260.335,15.4167 260.893,15.4167 261.451,15.4167 262.009,15.4167 262.567,15.4167 263.125,15.4167 263.683,15.4167 264.241,15.4167 264.799,15.4167 265.357,15.4167 265.915,15.4167 266.473,15.4167 267.031,15.4167 267.589,15.4167 268.147,15.4167 268.705,15.4167 269.263,15.4167 269.821,15.4167 270.379,15.4167 270.938,15.4167 271.496,15.4167 272.054,15.4167 272.612,15.4167 273.17,15.4167 273.728,15.4167 274.286,15.4167 274.844,15.4167 275.402,15.4167 275.96,15.4167 276.518,15.4167 277.076,15.4167 277.634,15.4167 278.192,15.4167 278.75,15.4167 279.308,15.4167 279.866,15.4167 280.424,15.4167 280.982,15.4167 281.54,15.4167 282.098,15.4167 282.656,15.4167 283.214,15.4167 283.772,15.4167 284.33,16.0252 284.888,16.7823 285.446,17.5618 286.004,18.3635 286.562,19.1868 287.121,20.0316 287.679,20.8974 288.237,21.7838 288.795,22.6904 289.353,23.6168 289.911,24.5627 290.469,25.5276 291.027,26.511 291.585,27.5126 292.143,28.5319 292.701,29.5684 293.259,30.6217 293.817,31.6914 294.375,32.7769 294.933,33.8777 295.491,34.9934 296.049,36.1236 296.607,37.2676 297.165,38.425 297.723,39.5952 298.281,40.7778 298.839,41.9722 299.397,43.178 299.955,44.3944 300.513,45.6212 301.071,46.8576 301.629,48.1031 302.187,49.3572 302.746,50.6194 303.304,51.889 303.862,53.1655 304.42,54.4484 304.978,55.737 305.536,57.0309 306.094,58.3293 306.652,59.6319 307.21,60.9379 307.768,62.2468 308.326,63.5581 308.884,64.8711 309.442,66.1853 310,67.5 310.558,68.8147 311.116,70.1289 311.674,71.4419 312.232,72.7532 312.79,74.0621 313.348,75.3681 313.906,76.6707 314.464,77.9691 315.022,79.263 315.58,80.5516 316.138,81.8345 316.696,83.111 317.254,84.3806 317.812,85.6428 318.371,86.8969 318.929,88.1424 319.487,89.3788 320.045,90.6056 320.603,91.822 321.161,93.0278 321.719,94.2222 322.277,95.4048 322.835,96.575 323.393,97.7324 323.951,98.8764 324.509,100.007 325.067,101.122 325.625,102.223 326.183,103.309 326.741,104.378 327.299,105.432 327.857,106.468 328.415,107.487 328.973,108.489 329.531,109.472 330.089,110.437 330.647,111.383 331.205,112.31 331.763,113.216 332.321,114.103 332.879,114.968 333.438,115.813 333.996,116.637 334.554,117.438 335.112,118.218 335.67,118.975 336.228,119.583 336.786,119.583 337.344,119.583 337.902,119.583 338.46,119.583 339.018,119.583 339.576,119.583 340.134,119.583 340.692,119.583 341.25,119.583 341.808,119.583 342.366,119.583 342.924,119.583 343.482,119.583 344.04,119.583 344.598,119.583 345.156,119.583 345.714,119.583 346.272,119.583 346.83,119.583 347.388,119.583 347.946,119.583 348.504,119.583 349.062,119.583 349.621,119.583 350.179,119.583 350.737,119.583 351.295,119.583 351.853,119.583 352.411,119.583 352.969,119.583 353.527,119.583 354.085,119.583 354.643,119.583 355.201,119.583 355.759,119.583 356.317,119.583 356.875,119.583 357.433,119.583 357.991,119.583 358.549,119.583 359.107,119.583 359.665,119.583 360.223,119.583 360.781,119.583 361.339,119.583 361.897,119.583 362.455,119.583 363.013,119.583 363.571,119.583 364.129,119.583 364.687,119.583 365.246,119.583 365.804,119.583 366.362,119.583 366.92,119.583 367.478,119.222 368.036,118.473 368.594,117.7 369.152,116.906 369.71,116.09 370.268,115.252 370.826,114.394 371.384,113.514 371.942,112.614 372.5,111.694 373.058,110.755 373.616,109.796 374.174,108.819 374.732,107.823 375.29,106.81 375.848,105.779 376.406,104.731 376.964,103.667 377.522,102.587 378.08,101.491 378.638,100.38 379.196,99.2547 379.754,98.1153 380.312,96.9623 380.871,95.7963 381.429,94.6177 381.987,93.4272 382.545,92.2252 383.103,91.0122 383.661,89.7888 384.219,88.5556 384.777,87.3131 385.335,86.0618 385.893,84.8022 386.451,83.535 387.009,82.2607 387.567,80.9799 388.125,79.6931 388.683,78.401 389.241,77.104 389.799,75.8027 390.357,74.4978 390.915,73.1898 391.473,71.8792 392.031,70.5667 392.589,69.2529 393.147,67.9383 393.705,66.6235 394.263,65.3091 394.821,63.9956 395.379,62.6837 395.938,61.3739 396.496,60.0669 397.054,58.7631 397.612,57.4632 398.17,56.1677 398.728,54.8773 399.286,53.5924 399.844,52.3137 400.402,51.0417 400.96,49.7771 401.518,48.5202 402.076,47.2717 402.634,46.0322 403.192,44.8022 403.75,43.5823 404.308,42.3729 404.866,41.1747 405.424,39.9881 405.982,38.8136 406.54,37.6519 407.098,36.5034 407.656,35.3686 408.214,34.248 408.772,33.1421 409.33,32.0515 409.888,30.9765 410.446,29.9177 411.004,28.8755 411.562,27.8504 412.121,26.8429 412.679,25.8533 413.237,24.8822 413.795,23.93 414.353,22.997 414.911,22.0837 415.469,21.1906 416.027,20.3179 416.585,19.4661 417.143,18.6355 417.701,17.8266 418.259,17.0397 418.817,16.2751 419.375,15.5331 419.933,15.4167 420.491,15.4167 421.049,15.4167 421.607,15.4167 422.165,15.4167 422.723,15.4167 423.281,15.4167 423.839,15.4167 424.397,15.4167 424.955,15.4167 425.513,15.4167 426.071,15.4167 426.629,15.4167 427.188,15.4167 427.745,15.4167 428.304,15.4167 428.862,15.4167 429.42,15.4167 429.978,15.4167 430.536,15.4167 431.094,15.4167 431.652,15.4167 432.21,15.4167 432.768,15.4167 433.326,15.4167 433.884,15.4167 434.442,15.4167 435,15.4167 435.558,15.4167 436.116,15.4167 436.674,15.4167 437.232,15.4167 437.79,15.4167 438.348,15.4167 438.906,15.4167 439.464,15.4167 440.022,15.4167 440.58,15.4167 441.138,15.4167 441.696,15.4167 442.255,15.4167 442.812,15.4167 443.371,15.4167 443.929,15.4167 444.487,15.4167 445.045,15.4167 445.603,15.4167 446.161,15.4167 446.719,15.4167 447.277,15.4167 447.835,15.4167 448.393,15.4167 448.951,15.4167 449.509,15.4167 450.067,15.4167 450.625,15.5331 451.183,16.2751 451.741,17.0397 452.299,17.8266 452.857,18.6355 453.415,19.4661 453.973,20.3179 454.531,21.1906 455.089,22.0837 455.647,22.997 456.205,23.93 456.763,24.8822 457.321,25.8533 457.879,26.8429 458.438,27.8504 458.996,28.8755 459.554,29.9177 460.112,30.9765 460.67,32.0515 461.228,33.1421 461.786,34.248 462.344,35.3686 462.902,36.5034 463.46,37.6519 464.018,38.8136 464.576,39.9881 465.134,41.1747 465.692,42.3729 466.25,43.5823 466.808,44.8022 467.366,46.0322 467.924,47.2717 468.482,48.5202 469.04,49.7771 469.598,51.0417 470.156,52.3137 470.714,53.5924 471.272,54.8773 471.83,56.1677 472.388,57.4632 472.946,58.7631 473.504,60.0669 474.062,61.3739 474.621,62.6837 475.179,63.9956 475.737,65.3091 476.295,66.6235 476.853,67.9383 477.411,69.2529 477.969,70.5667 478.527,71.8792 479.085,73.1898 479.643,74.4978 480.201,75.8027 480.759,77.104 481.317,78.401 481.875,79.6931 482.433,80.9799 482.991,82.2607 483.549,83.535 484.107,84.8022 484.665,86.0618 485.223,87.3131 485.781,88.5556 486.339,89.7888 486.897,91.0122 487.455,92.2252 488.013,93.4272 488.571,94.6177 489.13,95.7963 489.688,96.9623 490.246,98.1153 490.804,99.2547 491.362,100.38 491.92,101.491 492.478,102.587 493.036,103.667 493.594,104.731 494.152,105.779 494.71,106.81 495.268,107.823 495.826,108.819 496.384,109.796 496.942,110.755 497.5,111.694 498.058,112.614 498.616,113.514 499.174,114.394 499.732,115.252 500.29,116.09 500.848,116.906 501.406,117.7 501.964,118.473 502.522,119.222 503.08,119.583 503.638,119.583 504.196,119.583 504.754,119.583 505.312,119.583 505.871,119.583 506.429,119.583 506.987,119.583 507.545,119.583 508.103,119.583 508.661,119.583 509.219,119.583 509.777,119.583 510.335,119.583 510.893,119.583 511.451,119.583 512.009,119.583 512.567,119.583 513.125,119.583 513.683,119.583 514.241,119.583 514.799,119.583 515.357,119.583 515.915,119.583 516.473,119.583 517.031,119.583 517.589,119.583 518.147,119.583 518.705,119.583 519.263,119.583 519.821,119.583 520.38,119.583 520.938,119.583 521.496,119.583 522.054,119.583 522.612,119.583 523.17,119.583 523.728,119.583 524.286,119.583 524.844,119.583 525.402,119.583 525.96,119.583 526.518,119.583 527.076,119.583 527.634,119.583 528.192,119.583 528.75,119.583 529.308,119.583 529.866,119.583 530.424,119.583 530.982,119.583 531.54,119.583 532.098,119.583 532.656,119.583 533.214,119.583 533.772,119.583 534.33,118.975 534.888,118.218 535.446,117.438 536.005,116.637 536.562,115.813 537.12,114.968 537.679,114.103 538.237,113.216 538.795,112.31 539.353,111.383 539.911,110.437 540.469,109.472 541.027,108.489 541.585,107.487 542.143,106.468 542.701,105.432 543.259,104.378 543.817,103.309 544.375,102.223 544.933,101.122 545.491,100.007 546.049,98.8764 546.607,97.7324 547.165,96.575 547.723,95.4048 548.281,94.2222 548.839,93.0278 549.397,91.822 549.955,90.6056 550.513,89.3788 551.071,88.1424 551.629,86.8969 552.188,85.6428 552.745,84.3806 553.304,83.111 553.862,81.8345 554.42,80.5516 554.978,79.263 555.536,77.9691 556.094,76.6707 556.652,75.3681 557.21,74.0621 557.768,72.7532 558.326,71.4419 558.884,70.1289 559.442,68.8147 560,67.5"/>
<polyline fill="none" stroke="#000000" stroke-width="0.5" stroke-linecap="butt" stroke-linejoin="miter" points="60,67.5 560,67.5"/>
</g>
<clipPath id="cp00600180">
  <polygon points="0,180 600,180 600,0 0,0"/>
</clipPath>
<g clip-path="url(#cp00600180)">
</g>
</g>
</svg>
