<?xml version="1.0" encoding="UTF-8" standalone="no"?>
<?xml-stylesheet type="text/css" href="https://fonts.googleapis.com/css?family=Open+Sans:300italic,400italic,600italic,700italic,400,600,700,300&amp;subset=latin,cyrillic-ext,latin-ext,cyrillic" ?>
<svg xmlns="http://www.w3.org/2000/svg"
     xmlns:xlink="http://www.w3.org/1999/xlink"
     width="600px" height="160px" viewBox="0 0 600 160">
<title>gl2ps_renderer figure</title>
<desc>
Creator: GL2PS 1.4.0, (C) 1999-2017 C. Geuzaine
For: Octave
</desc>
<defs>
</defs>
<polygon fill="#ffffff" points="0,0 600,0 600,160 0,160"/>
<g>
<polygon fill="#fefefe" points="0,160 600,160 600,0 0,0" shape-rendering="crispEdges"/>
<clipPath id="cp00600160">
  <polygon points="0,160 600,160 600,0 0,0"/>
</clipPath>
<g clip-path="url(#cp00600160)">
<polygon fill="#ffffff" shape-rendering="crispEdges" points="60,133.333 560,133.333 60,4.44444"/>
<polygon fill="#ffffff" shape-rendering="crispEdges" points="560,133.333 560,4.44444 60,4.44444"/>
<polyline fill="none" stroke="#262626" stroke-width="0.5" stroke-linecap="butt" stroke-linejoin="miter" stroke-dasharray="16,0" points="60,133.333 560,133.333"/>
<polyline fill="none" stroke="#262626" stroke-width="0.5" stroke-linecap="butt" stroke-linejoin="miter" stroke-dasharray="16,0" points="60,4.44444 560,4.44444"/>
<polyline fill="none" stroke="#262626" stroke-width="0.5" stroke-linecap="butt" stroke-linejoin="miter" stroke-dasharray="16,0" points="60,133.333 60,4.44444"/>
<polyline fill="none" stroke="#262626" stroke-width="0.5" stroke-linecap="butt" stroke-linejoin="miter" stroke-dasharray="16,0" points="560,133.333 560,4.44444"/>
<text fill="#262626" x="310" y="138.329" font-size="10" text-anchor="middle" dy="10" font-family="Open Sans">Time (milliseconds)</text>
<polyline fill="none" stroke="#0071bc" stroke-width="0.5" stroke-linecap="butt" stroke-linejoin="miter" points="61.7361,61.4902 63.4722,57.7399 65.2083,59.4755 66.9444,57.6265 68.6805,47.1652 70.4166,44.7768 72.1528,32.4131 73.8889,39.0292 75.625,32.1846 77.3611,27.4051 79.0972,18.623 80.8333,26.1928 82.5694,30.6124 84.3055,20.7984 86.0417,24.8471 87.7778,34.5558 89.5139,22.8799 91.25,24.4331 92.9861,31.8456 94.7222,34.0956 96.4583,51.4857 98.1944,47.5105 99.9305,49.2016 101.667,59.3288 103.403,69.4873 105.139,83.0742 106.875,81.4226 108.611,82.9481 110.347,81.4983 112.083,85.0197 113.819,99.7622 115.556,95.1263 117.292,111.241 119.028,102.029 120.764,109.342 122.5,121.923 124.236,107.132 125.972,113.658 127.708,103.41 129.444,104.969 131.181,116.812 132.917,103.112 134.653,91.3716 136.389,100.544 138.125,94.1252 139.861,77.3718 141.597,86.6449 143.333,73.0464 145.069,74.5038 146.806,53.2376 148.542,51.2565 150.278,53.5654 152.014,56.4201 153.75,46.6002 155.486,38.3389 157.222,25.5062 158.958,40.0799 160.694,28.095 162.431,22.9526 164.167,25.2744 165.903,19.1707 167.639,25.4281 169.375,17.4259 171.111,26.9797 172.847,29.7997 174.583,35.9858 176.319,36.4411 178.056,45.2072 179.792,45.7823 181.528,56.9517 183.264,64.4416 185,70.0106 186.736,66.4664 188.472,71.1314 190.208,80.5127 191.944,94.1413 193.681,84.8367 195.417,86.9495 197.153,90.1734 198.889,95.6171 200.625,97.5426 202.361,99.4931 204.097,109.516 205.833,113.819 207.569,107.442 209.306,116.304 211.042,103.694 212.778,101.074 214.514,97.6099 216.25,101.045 217.986,89.6067 219.722,93.3311 221.458,91.4324 223.194,81.8878 224.931,69.3482 226.667,65.5402 228.403,62.5878 230.139,72.2523 231.875,55.3465 233.611,52.7389 235.347,44.6116 237.083,35.3219 238.819,44.0295 240.556,29.8313 242.292,39.9064 244.028,35.2012 245.764,21.0618 247.5,29.8909 249.236,19.1396 250.972,34.873 252.708,34.9866 254.444,24.95 256.181,41.4509 257.917,33.2173 259.653,29.7017 261.389,42.0001 263.125,43.5281 264.861,62.6149 266.597,54.8693 268.333,60.9968 270.069,67.2573 271.806,76.8337 273.542,82.7981 275.278,75.0079 277.014,100.329 278.75,105.319 280.486,89.3647 282.222,109.741 283.958,114.175 285.694,114.799 287.431,103.927 289.167,102.098 290.903,122.103 292.639,113.082 294.375,118.948 296.111,113.739 297.847,112.093 299.583,99.8175 301.319,102.484 303.056,101.91 304.792,90.2923 306.528,95.2249 308.264,88.5813 310,64.0087 311.736,75.3472 313.472,66.3195 315.208,52.7942 316.944,45.1799 318.681,38.4178 320.417,49.8359 322.153,34.8009 323.889,24.7819 325.625,41.1756 327.361,25.4112 329.097,19.9696 330.833,29.6808 332.569,31.2815 334.306,24.2143 336.042,28.629 337.778,36.1816 339.514,32.2914 341.25,36.7394 342.986,37.0248 344.722,42.5499 346.458,51.4578 348.194,55.5163 349.931,50.5158 351.667,68.6314 353.403,67.5871 355.139,84.9703 356.875,74.8191 358.611,88.8549 360.347,100.129 362.083,99.75 363.819,104.851 365.556,93.2398 367.292,109.27 369.028,113.138 370.764,113.412 372.5,101.884 374.236,108.979 375.972,108.883 377.708,105.756 379.444,110.987 381.181,107.934 382.917,99.7336 384.653,109.976 386.389,101.653 388.125,93.9277 389.861,90.9278 391.597,77.057 393.333,77.1035 395.069,60.8242 396.806,61.8171 398.542,59.6079 400.278,54.5471 402.014,43.0718 403.75,44.4913 405.486,35.0253 407.222,44.5399 408.958,32.8558 410.694,34.3684 412.431,34.7433 414.167,25.7012 415.903,26.1995 417.639,24.9744 419.375,21.9017 421.111,20.9501 422.847,31.7982 424.583,38.8413 426.319,39.2207 428.056,36.0959 429.792,39.3515 431.528,45.7365 433.264,64.4715 435,52.5528 436.736,66.0299 438.472,83.4444 440.208,75.1633 441.944,74.8725 443.681,92.4795 445.417,91.2083 447.153,103.217 448.889,109.128 450.625,101.427 452.361,119.272 454.097,103.455 455.833,110.875 457.569,120.492 459.306,119.671 461.042,107.181 462.778,100.555 464.514,110.822 466.25,92.6945 467.986,107.857 469.722,87.44 471.458,92.5895 473.194,94.3234 474.931,84.848 476.667,75.5068 478.403,62.609 480.139,55.5186 481.875,65.6439 483.611,51.9995 485.347,44.1684 487.083,46.0202 488.819,30.5213 490.556,39.5642 492.292,42.0236 494.028,39.0635 495.764,23.5018 497.5,25.0399 499.236,16.3344 500.972,16.8752 502.708,18.5856 504.444,39.0347 506.181,26.3301 507.917,30.4793 509.653,35.1721 511.389,38.1729 513.125,38.7566 514.861,49.4372 516.597,60.5092 518.333,62.4663 520.069,75.1648 521.806,72.6251 523.542,90.5581 525.278,92.8266 527.014,93.949 528.75,88.8215 530.486,94.5746 532.222,106.448 533.958,103.507 535.694,118.437 537.431,117.609 539.167,101.132 540.903,116.373 542.639,113.744 544.375,109.346 546.111,113.019 547.847,106.567 549.583,108.565 551.319,108.972 553.056,101.926 554.792,89.8752 556.528,94.5486 558.264,82.0886 560,78.1803"/>
<polyline fill="none" stroke="#000000" stroke-width="0.5" stroke-linecap="butt" stroke-linejoin="miter" points="60,68.8889 560,68.8889"/>
</g>
</g>
</svg>
