<?xml version="1.0" encoding="utf-8" standalone="no"?>
<?xml-stylesheet type="text/css" href="https://fonts.googleapis.com/css?family=Open+Sans:300italic,400italic,600italic,700italic,400,600,700,300&amp;subset=latin,cyrillic-ext,latin-ext,cyrillic" ?>
<!DOCTYPE svg PUBLIC "-//W3C//DTD SVG 1.1//EN"
  "http://www.w3.org/Graphics/SVG/1.1/DTD/svg11.dtd">
<!-- Created with matplotlib (http://matplotlib.org/) -->
<svg height="180pt" version="1.1" viewBox="0 0 460 180" width="460pt" xmlns="http://www.w3.org/2000/svg" xmlns:xlink="http://www.w3.org/1999/xlink">
 <defs>
  <style type="text/css">
*{stroke-linecap:butt;stroke-linejoin:round;}
  </style>
 </defs>
 <g id="figure_1">
  <g id="patch_1">
   <path d="M 0 180 
L 460.8 180 
L 460.8 0 
L 0 0 
z
" style="fill:#fefefe;"/>
  </g>
  <g id="axes_1">
   <g id="patch_2">
    <path d="M 43.235938 138.196875 
L 446.5 138.196875 
L 446.5 14.3 
L 43.235938 14.3 
z
" style="fill:#ffffff;"/>
   </g>
   <g id="line2d_1">
    <path clip-path="url(#p6737ef88e7)" d="M 43.235938 75.848128 
L 446.5 75.848128 
" style="fill:none;stroke:#808080;stroke-linecap:square;stroke-width:1.5;"/>
   </g>
   <g id="matplotlib.axis_1">
    <g id="xtick_1">
     <g id="line2d_2">
      <defs>
       <path d="M 0 0 
L 0 3.5 
" id="m8a150fd669" style="stroke:#000000;stroke-width:0.8;"/>
      </defs>
      <g>
       <use style="stroke:#000000;stroke-width:0.8;" x="43.235938" xlink:href="#m8a150fd669" y="138.196875"/>
      </g>
     </g>
     <g id="text_1">
      <text style="font-family:Open Sans;font-size:10px;font-style:normal;font-weight:normal;text-anchor:middle;" transform="rotate(-0, 43.235938, 152.795312)" x="43.235938" y="152.795312">0.0</text>
     </g>
    </g>
    <g id="xtick_2">
     <g id="line2d_3">
      <g>
       <use style="stroke:#000000;stroke-width:0.8;" x="110.671399" xlink:href="#m8a150fd669" y="138.196875"/>
      </g>
     </g>
     <g id="text_2">
      <text style="font-family:Open Sans;font-size:10px;font-style:normal;font-weight:normal;text-anchor:middle;" transform="rotate(-0, 110.671399, 152.795312)" x="110.671399" y="152.795312">0.5</text>
     </g>
    </g>
    <g id="xtick_3">
     <g id="line2d_4">
      <g>
       <use style="stroke:#000000;stroke-width:0.8;" x="178.106861" xlink:href="#m8a150fd669" y="138.196875"/>
      </g>
     </g>
     <g id="text_3">
      <text style="font-family:Open Sans;font-size:10px;font-style:normal;font-weight:normal;text-anchor:middle;" transform="rotate(-0, 178.106861, 152.795312)" x="178.106861" y="152.795312">1.0</text>
     </g>
    </g>
    <g id="xtick_4">
     <g id="line2d_5">
      <g>
       <use style="stroke:#000000;stroke-width:0.8;" x="245.542323" xlink:href="#m8a150fd669" y="138.196875"/>
      </g>
     </g>
     <g id="text_4">
      <text style="font-family:Open Sans;font-size:10px;font-style:normal;font-weight:normal;text-anchor:middle;" transform="rotate(-0, 245.542323, 152.795312)" x="245.542323" y="152.795312">1.5</text>
     </g>
    </g>
    <g id="xtick_5">
     <g id="line2d_6">
      <g>
       <use style="stroke:#000000;stroke-width:0.8;" x="312.977785" xlink:href="#m8a150fd669" y="138.196875"/>
      </g>
     </g>
     <g id="text_5">
      <text style="font-family:Open Sans;font-size:10px;font-style:normal;font-weight:normal;text-anchor:middle;" transform="rotate(-0, 312.977785, 152.795312)" x="312.977785" y="152.795312">2.0</text>
     </g>
    </g>
    <g id="xtick_6">
     <g id="line2d_7">
      <g>
       <use style="stroke:#000000;stroke-width:0.8;" x="380.413247" xlink:href="#m8a150fd669" y="138.196875"/>
      </g>
     </g>
     <g id="text_6">
      <text style="font-family:Open Sans;font-size:10px;font-style:normal;font-weight:normal;text-anchor:middle;" transform="rotate(-0, 380.413247, 152.795312)" x="380.413247" y="152.795312">2.5</text>
     </g>
    </g>
    <g id="text_7">
     <text style="font-family:Open Sans;font-size:10px;font-style:normal;font-weight:normal;text-anchor:middle;" transform="rotate(-0, 244.867969, 166.796875)" x="244.867969" y="166.796875">Time (milliseconds)</text>
    </g>
   </g>
   <g id="matplotlib.axis_2">
    <g id="ytick_1">
     <g id="line2d_8">
      <defs>
       <path d="M 0 0 
L -3.5 0 
" id="m2b4174279e" style="stroke:#000000;stroke-width:0.8;"/>
      </defs>
      <g>
       <use style="stroke:#000000;stroke-width:0.8;" x="43.235938" xlink:href="#m2b4174279e" y="114.337096"/>
      </g>
     </g>
     <g id="text_8">
      <text style="font-family:Open Sans;font-size:10px;font-style:normal;font-weight:normal;text-anchor:end;" transform="rotate(-0, 36.235938, 118.136315)" x="36.235938" y="118.136315">−1</text>
     </g>
    </g>
    <g id="ytick_2">
     <g id="line2d_9">
      <g>
       <use style="stroke:#000000;stroke-width:0.8;" x="43.235938" xlink:href="#m2b4174279e" y="75.848128"/>
      </g>
     </g>
     <g id="text_9">
      <text style="font-family:Open Sans;font-size:10px;font-style:normal;font-weight:normal;text-anchor:end;" transform="rotate(-0, 36.235938, 79.647347)" x="36.235938" y="79.647347">0</text>
     </g>
    </g>
    <g id="ytick_3">
     <g id="line2d_10">
      <g>
       <use style="stroke:#000000;stroke-width:0.8;" x="43.235938" xlink:href="#m2b4174279e" y="37.35916"/>
      </g>
     </g>
     <g id="text_10">
      <text style="font-family:Open Sans;font-size:10px;font-style:normal;font-weight:normal;text-anchor:end;" transform="rotate(-0, 36.235938, 41.158379)" x="36.235938" y="41.158379">1</text>
     </g>
    </g>
    <g id="text_11">
     <text style="font-family:Open Sans;font-size:10px;font-style:normal;font-weight:normal;text-anchor:middle;" transform="rotate(-90, 18.398438, 76.248437)" x="18.398438" y="76.248437">Amplitude</text>
    </g>
   </g>
   <g id="line2d_11">
    <path clip-path="url(#p6737ef88e7)" d="M 43.235938 73.969347 
L 44.584647 65.148969 
L 45.933356 67.068925 
L 47.282065 66.908507 
L 48.630774 69.214759 
L 49.979484 58.339069 
L 51.328193 64.081598 
L 52.676902 44.381384 
L 54.025611 39.460025 
L 55.374321 59.710923 
L 56.72303 41.996684 
L 58.071739 50.202201 
L 59.420448 46.881651 
L 60.769158 31.410102 
L 62.117867 62.702248 
L 63.466576 60.600866 
L 64.815285 61.817116 
L 66.163995 29.317793 
L 67.512704 30.316302 
L 68.861413 25.820605 
L 70.210122 20.821418 
L 71.558832 27.054057 
L 72.907541 39.523525 
L 74.25625 26.865378 
L 75.604959 52.127333 
L 76.953668 31.973744 
L 78.302378 51.162073 
L 79.651087 20.547809 
L 80.999796 37.199986 
L 82.348505 41.852935 
L 83.697215 48.304956 
L 85.045924 29.507019 
L 86.394633 42.709997 
L 87.743342 39.486036 
L 89.092052 61.872102 
L 90.440761 40.18223 
L 91.78947 41.87742 
L 93.138179 43.290209 
L 94.486889 32.421211 
L 95.835598 44.316261 
L 97.184307 58.632276 
L 98.533016 57.648283 
L 99.881726 49.699305 
L 101.230435 76.38679 
L 102.579144 55.260715 
L 103.927853 57.386707 
L 105.276563 77.423387 
L 106.625272 82.918259 
L 107.973981 78.128154 
L 109.32269 78.677018 
L 110.671399 73.146327 
L 112.020109 80.628035 
L 113.368818 61.87507 
L 114.717527 98.377126 
L 116.066236 96.624979 
L 117.414946 100.777721 
L 118.763655 84.123881 
L 120.112364 101.731486 
L 121.461073 95.686994 
L 122.809783 106.308344 
L 124.158492 111.597285 
L 125.507201 115.378179 
L 126.85591 96.178675 
L 128.20462 117.831343 
L 129.553329 117.18262 
L 130.902038 112.03899 
L 132.250747 95.990741 
L 133.599457 125.083424 
L 134.948166 97.666837 
L 136.296875 127.180021 
L 137.645584 94.114879 
L 138.994293 114.334478 
L 140.343003 95.305309 
L 141.691712 109.998204 
L 143.040421 105.052139 
L 144.38913 132.073283 
L 145.73784 122.620683 
L 147.086549 128.651842 
L 148.435258 121.501705 
L 149.783967 127.802672 
L 151.132677 119.458952 
L 152.481386 114.934195 
L 153.830095 127.449501 
L 155.178804 102.168215 
L 156.527514 105.782018 
L 157.876223 116.016274 
L 159.224932 104.609594 
L 160.573641 119.534189 
L 161.922351 99.272538 
L 163.27106 83.858752 
L 164.619769 105.45447 
L 165.968478 90.028096 
L 167.317188 108.56205 
L 168.665897 83.909723 
L 170.014606 98.122405 
L 171.363315 99.935511 
L 172.712024 82.090152 
L 174.060734 101.530807 
L 175.409443 68.011513 
L 176.758152 97.328631 
L 178.106861 69.004153 
L 179.455571 82.283542 
L 180.80428 61.971806 
L 182.152989 50.846854 
L 183.501698 75.946543 
L 184.850408 61.023166 
L 186.199117 58.136795 
L 187.547826 56.679421 
L 188.896535 67.964229 
L 190.245245 37.798865 
L 191.593954 55.25997 
L 192.942663 37.981424 
L 194.291372 41.822865 
L 195.640082 55.587321 
L 196.988791 34.114114 
L 198.3375 48.693286 
L 199.686209 28.682549 
L 201.034918 38.991879 
L 202.383628 26.329668 
L 203.732337 32.651648 
L 205.081046 30.573139 
L 206.429755 38.517387 
L 207.778465 20.486717 
L 209.127174 32.120623 
L 210.475883 40.36585 
L 211.824592 33.264195 
L 213.173302 55.940867 
L 214.522011 45.299837 
L 215.87072 31.875991 
L 217.219429 46.648058 
L 218.568139 34.700652 
L 219.916848 42.80361 
L 221.265557 55.052496 
L 222.614266 49.883893 
L 223.962976 40.65794 
L 225.311685 41.2123 
L 226.660394 43.331166 
L 228.009103 41.894336 
L 229.357813 43.646318 
L 230.706522 53.95397 
L 232.055231 37.962211 
L 233.40394 60.322115 
L 234.752649 59.774419 
L 236.101359 44.375597 
L 237.450068 49.894303 
L 238.798777 56.106922 
L 240.147486 81.663166 
L 241.496196 52.490562 
L 242.844905 62.778255 
L 244.193614 54.231279 
L 245.542323 89.340501 
L 246.891033 64.096078 
L 248.239742 93.662374 
L 249.588451 78.612473 
L 250.93716 99.898726 
L 252.28587 74.347396 
L 253.634579 78.188473 
L 254.983288 89.576318 
L 256.331997 97.962749 
L 257.680707 113.053867 
L 259.029416 90.872546 
L 260.378125 102.170014 
L 261.726834 93.648949 
L 263.075543 89.803701 
L 264.424253 87.202056 
L 265.772962 93.291854 
L 267.121671 127.13906 
L 269.81909 101.821888 
L 271.167799 124.272901 
L 272.516508 111.643635 
L 273.865217 130.280966 
L 275.213927 125.202175 
L 276.562636 132.565199 
L 277.911345 102.957026 
L 279.260054 124.96295 
L 280.608764 120.213402 
L 281.957473 97.557192 
L 283.306182 105.787652 
L 284.654891 131.146931 
L 286.003601 125.358888 
L 287.35231 106.958688 
L 288.701019 107.701539 
L 290.049728 119.664503 
L 291.398438 91.63299 
L 292.747147 102.599926 
L 294.095856 104.132918 
L 295.444565 100.444836 
L 296.793274 93.338481 
L 298.141984 107.619963 
L 299.490693 102.388742 
L 300.839402 107.639363 
L 302.188111 106.468438 
L 303.536821 75.132499 
L 304.88553 80.796799 
L 307.582948 95.911475 
L 308.931658 92.514807 
L 310.280367 97.683077 
L 311.629076 80.789107 
L 312.977785 83.091911 
L 314.326495 65.874328 
L 315.675204 75.729387 
L 317.023913 80.967739 
L 318.372622 84.570936 
L 319.721332 80.610498 
L 321.070041 54.774751 
L 322.41875 61.242483 
L 323.767459 55.89803 
L 325.116168 39.957239 
L 326.464878 34.35224 
L 327.813587 62.210679 
L 329.162296 43.223905 
L 330.511005 56.900355 
L 331.859715 64.641517 
L 333.208424 34.765171 
L 334.557133 50.278172 
L 335.905842 46.605343 
L 337.254552 37.623034 
L 338.603261 27.320277 
L 339.95197 34.278566 
L 341.300679 24.225422 
L 342.649389 46.757039 
L 343.998098 26.191142 
L 345.346807 49.534657 
L 346.695516 19.931676 
L 348.044226 30.218879 
L 349.392935 48.612473 
L 350.741644 20.822073 
L 352.090353 29.68296 
L 353.439063 48.713476 
L 354.787772 51.096317 
L 356.136481 40.321742 
L 357.48519 60.376741 
L 358.833899 54.609992 
L 360.182609 47.608677 
L 361.531318 51.034936 
L 362.880027 49.192822 
L 364.228736 58.059458 
L 365.577446 47.974096 
L 366.926155 39.220453 
L 368.274864 69.945512 
L 369.623573 56.637022 
L 370.972283 73.621642 
L 372.320992 53.332689 
L 373.669701 67.954938 
L 375.01841 63.758312 
L 376.36712 80.826247 
L 377.715829 84.693625 
L 379.064538 73.891087 
L 380.413247 81.405445 
L 381.761957 61.313099 
L 383.110666 70.45998 
L 384.459375 73.489435 
L 385.808084 69.881189 
L 387.156793 103.775514 
L 388.505503 88.008028 
L 389.854212 88.984537 
L 391.202921 76.610875 
L 392.55163 104.471576 
L 393.90034 108.446609 
L 395.249049 115.766194 
L 396.597758 120.807765 
L 397.946467 87.373238 
L 399.295177 98.964475 
L 400.643886 96.011116 
L 401.992595 116.746422 
L 403.341304 106.25043 
L 404.690014 127.4569 
L 406.038723 112.187445 
L 407.387432 94.075017 
L 408.736141 98.636596 
L 410.084851 119.884446 
L 411.43356 96.26824 
L 412.782269 124.587675 
L 414.130978 97.043279 
L 415.479688 97.272975 
L 416.828397 102.517601 
L 418.177106 108.634545 
L 419.525815 98.721937 
L 420.874524 120.419748 
L 422.223234 98.203788 
L 423.571943 106.137036 
L 424.920652 128.311279 
L 426.269361 114.225263 
L 427.618071 120.529053 
L 428.96678 86.959272 
L 430.315489 104.737883 
L 431.664198 102.296044 
L 433.012908 95.013767 
L 434.361617 103.529419 
L 435.710326 110.446883 
L 437.059035 81.992351 
L 438.407745 104.173368 
L 439.756454 89.581206 
L 441.105163 98.352627 
L 442.453872 100.898496 
L 443.802582 69.119864 
L 445.151291 62.469892 
L 446.5 60.52782 
L 446.5 60.52782 
" style="fill:none;stroke:#1f77b4;stroke-linecap:square;stroke-width:1.5;"/>
   </g>
   <g id="patch_3">
    <path d="M 43.235938 138.196875 
L 43.235938 14.3 
" style="fill:none;stroke:#000000;stroke-linecap:square;stroke-linejoin:miter;stroke-width:0.8;"/>
   </g>
   <g id="patch_4">
    <path d="M 446.5 138.196875 
L 446.5 14.3 
" style="fill:none;stroke:#000000;stroke-linecap:square;stroke-linejoin:miter;stroke-width:0.8;"/>
   </g>
   <g id="patch_5">
    <path d="M 43.235938 138.196875 
L 446.5 138.196875 
" style="fill:none;stroke:#000000;stroke-linecap:square;stroke-linejoin:miter;stroke-width:0.8;"/>
   </g>
   <g id="patch_6">
    <path d="M 43.235938 14.3 
L 446.5 14.3 
" style="fill:none;stroke:#000000;stroke-linecap:square;stroke-linejoin:miter;stroke-width:0.8;"/>
   </g>
  </g>
 </g>
 <defs>
  <clipPath id="p6737ef88e7">
   <rect height="123.896875" width="403.264063" x="43.235938" y="14.3"/>
  </clipPath>
 </defs>
</svg>
