<?xml version="1.0" encoding="UTF-8" standalone="no"?>
<?xml-stylesheet type="text/css" href="https://fonts.googleapis.com/css?family=Open+Sans" ?>
<svg xmlns="http://www.w3.org/2000/svg"
     xmlns:xlink="http://www.w3.org/1999/xlink"
     width="600px" height="280px" viewBox="0 0 600 280">
<title>gl2ps_renderer figure</title>
<desc>
Creator: GL2PS 1.4.0, (C) 1999-2017 C. Geuzaine
For: Octave
</desc>
<defs>
</defs>
<polygon fill="#ffffff" points="0,0 600,0 600,280 0,280"/>
<g>
<polygon fill="#fefefe" points="0,280 600,280 600,0 0,0" shape-rendering="crispEdges"/>
<clipPath id="cp00600280">
  <polygon points="0,280 600,280 600,0 0,0"/>
</clipPath>
<g clip-path="url(#cp00600280)">
<polygon fill="#ffffff" shape-rendering="crispEdges" points="60,252 560,252 60,4.66666"/>
<polygon fill="#ffffff" shape-rendering="crispEdges" points="560,252 560,4.66666 60,4.66666"/>
<polyline fill="none" stroke="#262626" stroke-width="0.5" stroke-linecap="butt" stroke-linejoin="miter" points="60,252 65,252"/>
<polyline fill="none" stroke="#262626" stroke-width="0.5" stroke-linecap="butt" stroke-linejoin="miter" points="560,252 555,252"/>
<polyline fill="none" stroke="#262626" stroke-width="0.5" stroke-linecap="butt" stroke-linejoin="miter" points="60,197.037 65,197.037"/>
<polyline fill="none" stroke="#262626" stroke-width="0.5" stroke-linecap="butt" stroke-linejoin="miter" points="560,197.037 555,197.037"/>
<polyline fill="none" stroke="#262626" stroke-width="0.5" stroke-linecap="butt" stroke-linejoin="miter" points="60,142.074 65,142.074"/>
<polyline fill="none" stroke="#262626" stroke-width="0.5" stroke-linecap="butt" stroke-linejoin="miter" points="560,142.074 555,142.074"/>
<polyline fill="none" stroke="#262626" stroke-width="0.5" stroke-linecap="butt" stroke-linejoin="miter" points="60,87.1111 65,87.1111"/>
<polyline fill="none" stroke="#262626" stroke-width="0.5" stroke-linecap="butt" stroke-linejoin="miter" points="560,87.1111 555,87.1111"/>
<polyline fill="none" stroke="#262626" stroke-width="0.5" stroke-linecap="butt" stroke-linejoin="miter" points="60,32.1481 65,32.1481"/>
<polyline fill="none" stroke="#262626" stroke-width="0.5" stroke-linecap="butt" stroke-linejoin="miter" points="560,32.1481 555,32.1481"/>
<text fill="#262626" x="55" y="252" font-size="10" text-anchor="end" dy="5" font-family="Open Sans">-80</text>
<text fill="#262626" x="55" y="197.037" font-size="10" text-anchor="end" dy="5" font-family="Open Sans">-60</text>
<text fill="#262626" x="55" y="142.074" font-size="10" text-anchor="end" dy="5" font-family="Open Sans">-40</text>
<text fill="#262626" x="55" y="87.1111" font-size="10" text-anchor="end" dy="5" font-family="Open Sans">-20</text>
<text fill="#262626" x="55" y="32.1481" font-size="10" text-anchor="end" dy="5" font-family="Open Sans">0</text>
<polyline fill="none" stroke="#262626" stroke-width="0.5" stroke-linecap="butt" stroke-linejoin="miter" stroke-dasharray="16,0" points="60,252 560,252"/>
<polyline fill="none" stroke="#262626" stroke-width="0.5" stroke-linecap="butt" stroke-linejoin="miter" stroke-dasharray="16,0" points="60,4.66666 560,4.66666"/>
<polyline fill="none" stroke="#262626" stroke-width="0.5" stroke-linecap="butt" stroke-linejoin="miter" stroke-dasharray="16,0" points="60,252 60,4.66666"/>
<polyline fill="none" stroke="#262626" stroke-width="0.5" stroke-linecap="butt" stroke-linejoin="miter" stroke-dasharray="16,0" points="560,252 560,4.66666"/>
<text fill="#262626" x="35" y="128.333" font-size="10" transform="rotate(-90, 35, 128.333)" text-anchor="middle" dy="0" font-family="Open Sans">Amplitude (dB)</text>
<polyline fill="none" stroke="#0071bc" stroke-width="0.5" stroke-linecap="butt" stroke-linejoin="miter" points="59.5,179.524 60,179.572 89.3485,166.158 110.172,191.565 126.323,178.805 139.52,185.777 150.678,192.544 160.343,175.285 168.869,175.701 176.495,157.31 183.394,180.094 189.692,173.108 195.486,161.433 200.85,166.853 205.844,165.056 210.515,154.033 214.903,190.209 219.04,179.835 222.954,185.431 226.667,174.445 230.198,163.521 233.565,158.669 236.783,173.347 239.864,173.535 242.818,164.259 245.657,173.604 248.389,189.502 251.021,173.561 253.561,186.677 256.015,173.589 258.389,161.614 260.687,190.304 262.914,175.283 265.075,172.232 267.173,172.155 269.212,158.355 271.195,171.724 273.126,167.731 275.006,171.472 276.838,194.787 278.626,185.294 280.37,168.617 282.073,202.239 283.737,185.462 285.364,189.446 286.955,173.897 288.511,169.733 290.035,177.54 291.528,171.5 292.99,195.001 294.423,175.949 295.829,191.552 297.208,167.816 298.561,174.279 299.889,154.753 301.193,186.82 302.474,178.269 303.733,171.8 304.97,165.273 306.187,176.234 307.383,203.217 308.56,172.795 309.718,172.87 310.858,162.078 311.981,165.416 313.086,189.436 314.174,193.897 315.246,197.32 316.303,201.721 317.345,185.212 318.371,185.443 319.384,169.587 320.382,163.652 321.367,151.51 322.339,168.077 323.297,247.074 324.243,163.423 325.177,173.06 326.1,173.529 327.01,171.112 327.909,170.515 328.797,184.677 329.675,171.883 330.542,172.764 331.398,215.054 332.245,168.214 333.082,197.732 333.909,182.945 334.727,178.681 335.535,172.973 336.335,155.011 337.126,159.242 337.909,196.693 338.683,171.02 339.449,163.123 340.207,180.558 340.957,176.456 341.699,188.917 342.434,170.048 343.162,40.4435 343.882,167.774 344.595,180.278 345.301,161.091 346.001,164.48 346.693,166.679 347.379,181.122 348.059,176.007 348.732,163.368 349.399,179.463 350.06,160.13 350.715,175.36 351.365,173.302 352.008,177.68 352.646,167.256 353.278,172.683 353.905,174.824 354.526,202.881 355.142,222.842 355.753,191.555 356.359,183.585 356.959,178.738 357.555,181.401 358.146,159.866 358.732,167.032 359.313,176.93 359.89,166.973 360.462,165.961 361.03,177.026 361.593,189.5 362.152,194.189 362.707,177.837 363.257,204.011 363.804,181.401 364.346,178.855 364.884,154.18 365.418,165.572 365.948,172.903 366.475,175.252 366.997,179.476 367.516,157.525 368.032,172.595 368.543,164.68 369.051,168.861 369.555,165.473 370.056,166.822 370.554,178.646 371.048,162.749 371.539,165.869 372.026,164.671 372.51,175.368 372.991,217.782 373.469,209.46 373.944,179.336 374.415,189.198 374.884,176.01 375.349,171.777 375.812,173.75 376.271,196.655 376.728,161.814 377.182,161.039 377.633,157.609 378.081,164.202 378.526,172.145 378.969,161.17 379.409,165.411 379.846,173.584 380.281,172.837 380.713,178.411 381.143,209.769 381.57,176.465 381.994,236.615 382.416,185.288 382.836,169.264 383.253,163.607 383.668,194.298 384.08,162.492 384.491,186.062 384.898,169.626 385.304,169.797 385.707,171.001 386.108,174.663 386.507,169.423 386.904,163.198 387.298,178.681 387.69,172.124 388.081,163.001 388.469,186.841 388.855,228.366 389.239,160.027 389.621,196.617 390.001,198.172 390.379,163.876 390.755,226.403 391.129,197.353 391.501,178.903 391.871,183.988 392.239,160.057 392.606,177.199 392.971,172.274 393.333,198.257 393.694,170.88 394.054,188.422 394.411,164.38 394.767,174.564 395.121,157.671 395.473,163.147 395.823,174.607 396.172,194.801 396.519,224.959 396.865,163.905 397.209,190.998 397.551,172.047 397.892,153.516 398.231,178.15 398.568,168.797 398.904,178.575 399.238,179.648 399.571,175.793 399.902,174.39 400.232,158.855 400.56,177.895 400.887,158.356 401.212,201.084 401.536,167.513 401.859,170.131 402.18,172.985 402.499,169.338 402.818,162.173 403.134,172.679 403.45,172.988 403.764,176.241 404.076,182.044 404.388,183.943 404.698,159.515 405.006,176.37 405.314,180.363 405.62,163.151 405.924,156.99 406.228,163.529 406.53,185.641 406.831,186.009 407.131,182.355 407.429,173.262 407.727,167.865 408.023,226.54 408.318,169.899 408.611,180.03 408.904,183.814 409.195,170.954 409.485,207.999 409.774,187.968 410.062,189.173 410.348,162.281 410.634,164.352 410.918,188.654 411.202,178.753 411.484,172.181 411.765,191.46 412.045,179.497 412.324,169.847 412.602,183.588 412.879,166.515 413.154,156.217 413.429,169.658 413.703,173.014 413.975,165.883 414.247,175.188 414.517,190.576 414.787,169.383 415.056,166.427 415.323,182.439 415.59,175.889 415.855,171.645 416.12,199.987 416.384,195.611 416.647,172.532 416.908,185.38 417.169,175.316 417.429,180.355 417.688,185.17 417.946,168.397 418.203,175.265 418.459,184.698 418.715,161.006 418.969,181.058 419.223,159.724 419.475,179.073 419.727,171.712 419.978,175.186 420.228,173.32 420.477,184.638 420.725,169.747 420.973,198.608 421.22,176.345 421.465,169.545 421.71,154.827 421.954,178.886 422.198,191.204 422.44,170.043 422.682,182.642 422.923,196.864 423.163,179.759 423.402,211.198 423.641,164.098 423.878,165.187 424.115,184.447 424.351,168.026 424.587,184.369 424.821,184.019 425.055,178.533 425.288,183.068 425.521,156.09 425.752,177.394 425.983,159.396 426.213,171.177 426.443,157.716 426.672,177.237 426.9,192.321 427.127,165.952 427.353,196.037 427.579,169.787 427.804,174.341 428.029,180.706 428.253,177.734 428.476,187.685 428.698,175.87 428.92,179.978 429.141,181.667 429.361,157.084 429.581,172.047 429.8,223.567 430.018,169.947 430.236,172.984 430.453,164.351 430.669,177.734 430.885,169.129 431.1,173.6 431.314,178.857 431.528,162.116 431.741,164.317 431.954,184.09 432.166,179.566 432.377,182.335 432.588,173.539 432.798,164.369 433.008,163.673 433.217,182.721 433.425,195.247 433.633,183.702 433.84,158.296 434.046,169.146 434.252,165.761 434.457,210.883 434.662,173.469 434.866,162.303 435.07,177.09 435.273,190.616 435.476,161.661 435.677,171.107 435.879,177.787 436.08,162.491 436.28,172.408 436.479,174.838 436.679,215.333 436.877,178.449 437.075,204.157 437.273,188.82 437.47,166.301 437.666,174.672 437.862,168.62 438.057,163.602 438.252,175.908 438.447,186.241 438.64,160.165 438.834,194.614 439.026,174.091 439.219,190.676 439.41,169.901 439.602,224.131 439.792,169.132 439.983,163.357 440.172,187.251 440.361,170.315 440.55,175.827 440.738,164.819 440.926,174.604 441.113,190.282 441.3,157.9 441.487,167.251 441.672,165.927 441.858,170.288 442.043,167.258 442.227,196.697 442.411,173.887 442.595,189.292 442.778,184.378 442.96,189.116 443.142,213.497 443.324,169.25 443.505,200.454 443.686,192.528 443.866,174.1 444.046,201.413 444.225,178.6 444.404,180.879 444.583,165.646 444.761,169.022 444.938,157.846 445.116,185.261 445.292,186.577 445.469,163.78 445.645,222.367 445.82,179.866 445.995,159.103 446.17,185.328 446.344,161.853 446.518,176.255 446.691,195.236 446.864,163.357 447.037,157.347 447.209,165.405 447.38,162.9 447.552,184.313 447.723,164.021 447.893,161.103 448.063,185.835 448.233,206.097 448.402,187.817 448.571,198.118 448.74,172.563 448.908,188.475 449.076,178.953 449.243,153.489 449.41,175.699 449.577,173.881 449.743,158.094 449.909,164.481 450.074,175.213 450.239,165.016 450.404,165.556 450.568,178.992 450.732,178.93 450.896,158.188 451.059,157.057 451.222,179.303 451.384,219.634 451.546,203.53 451.708,172.549 451.869,177.997 452.03,184.346 452.191,167.516 452.351,173.343 452.511,190.169 452.671,168.414 452.83,152.538 452.989,177.514 453.148,179.336 453.306,174.634 453.464,191.32 453.621,160.122 453.779,169.756 453.935,184.176 454.092,179.367 454.248,165.479 454.404,196.735 454.559,187.943 454.714,182.982 454.869,172.632 455.024,187.752 455.178,182.014 455.332,179.017 455.485,173.277 455.639,173.795 455.791,189.322 455.944,168.558 456.096,168.573 456.248,164.942 456.4,181.133 456.551,195.284 456.702,201.821 456.853,164.675 457.003,176.762 457.153,184.949 457.303,194.709 457.452,167.149 457.601,177.396 457.75,206.024 457.898,154.821 458.046,215.178 458.194,212.21 458.342,205.816 458.489,166.779 458.636,208.045 458.783,197.158 458.929,182.914 459.075,174.498 459.221,183.38 459.367,171.936 459.512,183.056 459.657,188.936 459.801,177.25 459.946,171.405 460.09,191.808 460.233,162.253 460.377,177.539 460.52,171.387 460.663,170.902 460.806,154.53 460.948,202.354 461.09,179.616 461.232,165.449 461.373,179.546 461.515,151.838 461.656,171.662 461.796,155.749 461.937,168.43 462.077,166.315 462.217,173.25 462.356,176.023 462.496,178.539 462.635,162.972 462.773,170.529 462.912,239.407 463.05,196.02 463.188,170.636 463.326,182.532 463.463,182.696 463.601,177.866 463.738,166.379 463.874,175.525 464.011,172.252 464.147,185.122 464.283,182.611 464.419,160.822 464.554,172.627 464.689,174.008 464.824,178.384 464.959,204.828 465.093,166.712 465.227,186.553 465.361,168.521 465.495,174.096 465.628,190.571 465.762,162.344 465.894,166.278 466.027,192.418 466.16,187.412 466.292,183.54 466.424,189.308 466.555,177.066 466.687,173.306 466.818,147.885 466.949,157.052 467.08,197.069 467.21,192.026 467.341,164.451 467.471,175.636 467.601,165.528 467.73,188.291 467.86,172.828 467.989,168.936 468.118,211.576 468.246,177.369 468.375,208.423 468.503,165.674 468.631,191.018 468.759,173.688 468.886,166.104 469.014,168.456 469.141,170.813 469.268,163.226 469.394,164.551 469.521,174.927 469.647,178.903 469.773,208.743 469.899,156.064 470.024,178.227 470.15,170.839 470.275,175.746 470.4,192.29 470.524,168.066 470.649,166.124 470.773,196.92 470.897,197.727 471.021,179.22 471.145,154.419 471.268,178.177 471.391,170.303 471.514,224.271 471.637,173.49 471.76,164.893 471.882,177.614 472.004,196.946 472.126,180.025 472.248,174.971 472.369,149.455 472.491,162.304 472.612,175.861 472.733,173.769 472.854,164.413 472.974,162.811 473.094,177.244 473.215,216.446 473.335,178.909 473.454,198.222 473.574,165.957 473.693,169.706 473.812,187.826 473.931,208.29 474.05,184.579 474.169,183.739 474.287,202.073 474.405,176.619 474.523,187.28 474.641,170.397 474.758,163.717 474.876,175.309 474.993,166.232 475.11,170.207 475.227,173.208 475.344,180.904 475.46,205.862 475.576,180.575 475.693,162.06 475.808,168.718 475.924,162.224 476.04,176.619 476.155,189.587 476.27,181.99 476.385,160.848 476.5,173.3 476.615,196.621 476.729,182.656 476.843,167.027 476.957,173.301 477.071,168.575 477.185,180.585 477.298,182.064 477.412,188.089 477.525,182.789 477.638,150.507 477.751,176.981 477.863,174.087 477.976,168.227 478.088,176.112 478.2,187.15 478.312,181.451 478.424,170.312 478.536,202.696 478.647,163.172 478.758,168.695 478.87,163.992 478.981,183.351 479.091,169.496 479.202,157.814 479.312,177.183 479.423,170.861 479.533,164.819 479.643,156.205 479.752,171.4 479.862,158.392 479.971,169.69 480.081,177.345 480.19,160.169 480.271,252.247"/>
<polyline fill="none" stroke="#0071bc" stroke-width="0.5" stroke-linecap="butt" stroke-linejoin="miter" points="480.332,252.247 480.407,181.016 480.516,171.664 480.624,161.846 480.733,189.301 480.841,211.327 480.949,165.868 481.057,165.823 481.164,180.72 481.272,200.76 481.379,182.427 481.486,204.609 481.593,180.434 481.7,179.715 481.807,161.821 481.913,172.7 482.02,172.757 482.126,158.838 482.232,198.924 482.338,156.405 482.443,202.516 482.549,170.131 482.654,181.697 482.76,203.778 482.865,172.258 482.97,232.682 483.075,166.847 483.179,159.867 483.284,183.614 483.388,175.176 483.492,159.372 483.597,165.099 483.701,187.114 483.804,176.549 483.908,178.294 484.011,178.568 484.115,163.47 484.218,163.427 484.321,160.611 484.424,178.898 484.527,169.811 484.629,162.453 484.732,191.409 484.834,177.189 484.936,226.327 485.038,175.844 485.14,161.427 485.242,184.204 485.343,168.952 485.445,181.801 485.546,175.549 485.647,164.022 485.748,180.316 485.849,165.887 485.95,204.404 486.05,175.453 486.151,204.849 486.251,166.902 486.351,180.056 486.451,186.148 486.551,181.983 486.651,176.808 486.751,178.141 486.85,163.612 486.95,161.095 487.049,208.181 487.148,170.541 487.247,158.006 487.346,172.287 487.444,174.583 487.543,172.35 487.641,213.319 487.74,187.385 487.838,174.395 487.936,196.364 488.034,194.061 488.131,179.248 488.229,174.171 488.326,168.645 488.424,203.674 488.521,183.243 488.618,181.112 488.715,170.76 488.812,168.798 488.909,168.031 489.005,185.782 489.102,184.187 489.198,171.453 489.294,161.562 489.39,160.441 489.486,164.546 489.582,198.537 489.678,158.454 489.773,184.244 489.869,182.892 489.964,151.653 490.059,164.118 490.154,159.415 490.249,171.408 490.344,206.554 490.439,182.921 490.533,165.806 490.628,222.036 490.722,157.236 490.816,158.461 490.91,172.234 491.004,182.45 491.098,191.474 491.192,190.658 491.285,187.843 491.379,187.061 491.472,183.781 491.565,170.315 491.658,174.48 491.751,162.281 491.844,196.408 491.937,189.131 492.029,163.179 492.122,156.669 492.214,177.897 492.307,161.575 492.399,181.048 492.491,167.795 492.583,155.375 492.674,185.166 492.766,167.275 492.858,188.43 492.949,197.465 493.041,186.093 493.132,195.709 493.223,179.41 493.314,188.147 493.405,178.408 493.495,185.009 493.586,170.033 493.677,181.159 493.767,186.702 493.857,182.446 493.948,152.364 494.038,204.876 494.128,190.593 494.218,177.153 494.307,167.958 494.397,168.054 494.486,151.95 494.576,169.49 494.665,157.114 494.754,163.98 494.843,205.962 494.932,164.907 495.021,181.289 495.11,179.603 495.199,153.891 495.287,168.281 495.376,165.423 495.464,169.702 495.552,176.454 495.64,191.784 495.728,162.563 495.816,157.641 495.904,210.276 495.992,158.188 496.079,186.428 496.167,168.573 496.254,185.794 496.341,180.579 496.429,203.619 496.516,168.894 496.602,153.717 496.689,177.249 496.776,195.405 496.863,188.493 496.949,175.783 497.036,194.89 497.122,224.784 497.208,171.782 497.294,174.032 497.38,170.847 497.466,178.016 497.552,187.454 497.638,173.198 497.723,175.337 497.809,214.546 497.894,167.49 497.98,207.219 498.065,199.673 498.15,166.189 498.235,188.906 498.32,174.917 498.405,176.083 498.489,168.024 498.574,186.871 498.659,160.106 498.743,187.822 498.827,206.46 498.911,172.549 498.996,178.939 499.08,181.276 499.163,174.932 499.247,183.761 499.331,198.404 499.415,171.243 499.498,152.868 499.582,161.416 499.665,176.506 499.748,170.476 499.831,176.905 499.914,177.528 499.997,162.33 500.08,162.266 500.163,223.851 500.246,157.996 500.328,168.235 500.411,173.105 500.493,175.349 500.575,180.699 500.658,174.205 500.74,170.317 500.822,195.434 500.904,175.635 500.986,217.825 501.067,174.838 501.149,189.041 501.23,161.716 501.312,167.541 501.393,227.919 501.475,197.875 501.556,179.099 501.637,185.757 501.718,214.139 501.799,184.924 501.88,167.58 501.96,197.552 502.041,174.646 502.122,183.516 502.202,184.285 502.282,177.645 502.363,184.79 502.443,157.245 502.523,168.621 502.603,161.717 502.683,185.76 502.763,166.225 502.843,181.479 502.922,183.354 503.002,185.083 503.081,183.423 503.161,169.593 503.24,195.497 503.319,156.748 503.398,156.495 503.478,173.992 503.557,169.377 503.635,168.47 503.714,166.092 503.793,189.781 503.872,159.282 503.95,193.331 504.029,211.115 504.107,164.525 504.185,183.365 504.264,174.144 504.342,194.769 504.42,175.761 504.498,192.487 504.576,214.513 504.653,165.33 504.731,177.886 504.809,186.361 504.886,172.807 504.964,176.662 505.041,167.557 505.118,207.532 505.195,185.017 505.273,160.076 505.35,159.702 505.427,180.493 505.503,193.437 505.58,172.47 505.657,191.937 505.734,165.794 505.81,168.892 505.887,174.002 505.963,164.232 506.039,158.215 506.116,220.235 506.192,162.581 506.268,167.404 506.344,183.779 506.42,187.273 506.496,163.428 506.571,158.601 506.647,194.042 506.723,166.203 506.798,151.556 506.874,154.785 506.949,217.272 507.024,166.037 507.099,220.243 507.175,172.417 507.25,172.495 507.325,187.162 507.399,172.89 507.474,180.206 507.549,174.296 507.624,169.137 507.698,172.233 507.773,205.14 507.847,197.912 507.922,170.36 507.996,181.905 508.07,183.192 508.144,154.708 508.218,174.75 508.292,170.781 508.366,154.267 508.44,168.061 508.514,200.116 508.587,178.547 508.661,180.026 508.734,168.593 508.808,182.759 508.881,198.926 508.955,167.183 509.028,146.55 509.101,210.607 509.174,181.542 509.247,205.897 509.32,192.824 509.393,163.576 509.466,175.728 509.538,196.888 509.611,166.886 509.683,183.58 509.756,162.354 509.828,163.618 509.901,205.639 509.973,173.218 510.045,164.135 510.117,166.689 510.189,169.443 510.261,191.868 510.333,164.368 510.405,171.352 510.477,188.544 510.549,181.399 510.62,172.623 510.692,192.312 510.763,158.922 510.835,155.575 510.906,167.234 510.977,184.706 511.049,206.239 511.12,163.145 511.191,170.496 511.262,165.085 511.333,191.548 511.404,164.285 511.474,173.974 511.545,181.181 511.616,178.476 511.686,175.952 511.757,183.74 511.827,169.861 511.898,162.542 511.968,163.803 512.038,210.259 512.108,164.68 512.178,168.253 512.248,163.908 512.318,190.798 512.388,180.311 512.458,184.451 512.528,158.561 512.598,196.164 512.667,156.912 512.737,170.123 512.806,183.865 512.876,172.833 512.945,159.664 513.014,171.674 513.084,178.314 513.153,178.401 513.222,187.375 513.291,179.898 513.36,181.733 513.429,180.711 513.498,162.444 513.566,159.673 513.635,167.555 513.704,159.734 513.772,185.512 513.841,182.582 513.909,185.504 513.978,164.551 514.046,191.738 514.114,168.641 514.182,161.431 514.251,181.062 514.319,183.804 514.387,208.576 514.455,219.934 514.522,161.61 514.59,165.466 514.658,193.586 514.726,170.4 514.793,193.599 514.861,185.263 514.928,194.039 514.996,171.506 515.063,156.052 515.13,193.942 515.198,172.357 515.265,171.424 515.332,195.514 515.399,177.377 515.466,192.989 515.533,167.333 515.6,192.986 515.667,175.817 515.733,177.953 515.8,196.071 515.867,176.211 515.933,171.181 516,172.933 516.066,161.924 516.132,177.405 516.199,165.46 516.265,214.574 516.331,184.171 516.397,190.214 516.464,192.111 516.529,226.488 516.595,166.237 516.661,170.49 516.727,175.043 516.793,213.464 516.859,166.361 516.924,177.578 516.99,177.431 517.055,183.292 517.121,171.095 517.186,198.703 517.252,182.692 517.317,168.365 517.382,192.896 517.447,175.293 517.512,169.373 517.578,199.439 517.643,233.181 517.708,164.304 517.772,183.669 517.837,180.868 517.902,176.146 517.967,202.485 518.031,178.378 518.096,180 518.161,173.915 518.225,187 518.289,184.251 518.354,165.916 518.418,163.98 518.482,173.465 518.547,183.524 518.611,171.595 518.675,183.652 518.739,181.4 518.803,218.75 518.867,184.129 518.931,174.828 518.994,171.34 519.058,178.218 519.122,171.596 519.185,168.109 519.249,181.559 519.312,150.827 519.376,166.143 519.439,173.712 519.503,185.566 519.566,182.724 519.629,177.671 519.692,177.395 519.756,167.937 519.819,182.801 519.882,190.038 519.945,156.583 520.008,177.203 520.07,176.448 520.133,159.787 520.196,176.496 520.259,171.508 520.321,178.766 520.384,171.735 520.446,163.323 520.509,164.082 520.571,185.448 520.634,163.39 520.696,164.586 520.758,186.418 520.82,180.348 520.883,185.923 520.945,161.447 521.007,180.401 521.069,169.945 521.131,166.223 521.193,176.212 521.255,175.96 521.316,190.882 521.378,194.808 521.44,188.919 521.501,193.978 521.563,158.866 521.624,186.099 521.686,163.608 521.747,170.129 521.809,197.675 521.87,174.081 521.931,182.186 521.992,156.116 522.054,225.677 522.115,161.832 522.176,162.332 522.237,153.962 522.298,170.793 522.359,189.455 522.419,168.617 522.48,187.424 522.541,165.594 522.602,179.823 522.662,206.261 522.723,170.69 522.784,165.038 522.844,172.804 522.905,175.368 522.965,214.708 523.025,209.893 523.086,160.16 523.146,170.956 523.206,192.895 523.266,176.586 523.326,181.308 523.386,164.876 523.446,169.827 523.506,160.984 523.566,167.24 523.626,162.526 523.686,174.431 523.745,202.96 523.805,174.893 523.865,172.618 523.924,193.064 523.984,190.85 524.043,153.593 524.103,168.083 524.162,168.93 524.222,169.708 524.281,166.813 524.34,189.684 524.399,182.19 524.459,180.189 524.518,175.303 524.577,181.834 524.636,161.906 524.695,176.743 524.754,158.465 524.812,172.951 524.871,181.204 524.93,179.451 524.989,206.404 525.048,155.182 525.106,158.292 525.165,193.114 525.223,152.816 525.282,177.835 525.34,212.868 525.399,169.118 525.457,177.696 525.515,185.085 525.573,172.653 525.632,174.099 525.69,167.977 525.748,210.999 525.806,178.32 525.864,159.218 525.922,157.746 525.98,164.225 526.038,166.695 526.096,176.934 526.154,188 526.211,191.72 526.269,219.073 526.327,198.7 526.384,185.352 526.442,171.502 526.499,156.402 526.557,172.511 526.614,178.569 526.672,173.039 526.729,179.565 526.786,190.336 526.843,191.949 526.901,174.439 526.958,206.794 527.015,194.696 527.072,206.033 527.129,162.929 527.186,200.286 527.243,174.584 527.3,205.622 527.357,199.382 527.413,162.614 527.47,176.089 527.527,169.773 527.583,171.701 527.64,176.675 527.697,211.086 527.753,175.33 527.81,177.377 527.866,181.132 527.922,166.319 527.979,161.184 528.035,187.52 528.091,185.209 528.148,177.116 528.204,189.195 528.26,173.942 528.316,205.52 528.372,201.544 528.428,158.334 528.484,176.418 528.54,171.014 528.596,176.183 528.652,154.553 528.707,193.25 528.763,193.4 528.819,180.514 528.875,184.183 528.93,170.354 528.986,192.342 529.041,181.693 529.097,169.128 529.152,164.056 529.208,153.448 529.263,192.06 529.318,205.889 529.374,167.123 529.429,173.811 529.484,189.337 529.539,183.308 529.594,179.051 529.649,185.51 529.704,160.659 529.759,175.187 529.814,200.083 529.869,173.21 529.924,208.468 529.979,197.701 530.034,180.436 530.088,179.501 530.143,177.984 530.198,181.063 530.252,168.195 530.307,164.96 530.361,192.542 530.416,192.917 530.47,212.063 530.525,182.481 530.579,240.519 530.633,198.794 530.688,166.012 530.742,184.393 530.796,184.167 530.85,157.432 530.904,174.251 530.958,170.391 531.013,167.962 531.067,167.893 531.12,159.292 531.174,163.789 531.228,177.994 531.282,161.515 531.336,161.221 531.39,176.864 531.443,195.675 531.497,181.017 531.551,178.119 531.604,179.057 531.658,179.832 531.711,196.673 531.765,165.623 531.818,170.088 531.872,172.816 531.925,179.967 531.978,172.941 532.032,172.862 532.085,177.611 532.138,168.955 532.191,167.071 532.244,191.82 532.297,157.638 532.35,163.576 532.403,185.692 532.456,185.738 532.509,165.555 532.562,168.13 532.615,155.398 532.668,169.437 532.721,194.873 532.773,252.247"/>
<polyline fill="none" stroke="#0071bc" stroke-width="0.5" stroke-linecap="butt" stroke-linejoin="miter" points="532.774,252.247 532.826,203.988 532.879,171.965 532.931,164.421 532.984,169.907 533.037,170.731 533.089,184.122 533.142,161.74 533.194,176.62 533.246,179.561 533.299,176.264 533.351,164.926 533.403,191.568 533.456,177.549 533.508,203.946 533.56,171.339 533.612,169.488 533.664,203.126 533.716,175.894 533.768,169.548 533.82,169.899 533.872,206.951 533.924,180.311 533.976,194.89 534.028,163.945 534.08,201.832 534.131,209.276 534.183,174.134 534.235,222.082 534.286,169.199 534.338,165.284 534.39,169.59 534.441,173.369 534.493,181.496 534.544,181.268 534.595,172.173 534.647,171.162 534.698,168.521 534.75,161.645 534.801,162.321 534.852,202.471 534.903,189.139 534.954,207.687 535.006,211.085 535.057,200.198 535.108,164.637 535.159,222.476 535.21,175.56 535.261,168.191 535.312,165.241 535.362,171.896 535.413,168.1 535.464,165.228 535.515,175.552 535.566,165.056 535.616,185.977 535.667,168.564 535.718,171.724 535.768,178.35 535.819,177.423 535.869,180.664 535.92,159.224 535.97,173.845 536.021,157.515 536.071,185.264 536.121,166.195 536.172,163.419 536.222,215.619 536.272,199.384 536.323,186.832 536.373,205.212 536.423,175.902 536.473,164.529 536.523,168.37 536.573,166.432 536.623,161.852 536.673,174.873 536.723,197.435 536.773,201.049 536.823,174.907 536.873,167.624 536.922,170.983 536.972,171.065 537.022,192.365 537.072,170.694 537.121,181.459 537.171,162.264 537.221,170.75 537.27,164.242 537.32,184.431 537.369,171.481 537.419,198.993 537.468,180.24 537.517,189.065 537.567,187.319 537.616,175.07 537.665,165.124 537.715,167.146 537.764,168.034 537.813,176.739 537.862,183.354 537.911,180.365 537.96,193.263 538.009,154.357 538.058,175.346 538.107,162.23 538.156,171.239 538.205,179.322 538.254,179.721 538.303,187.862 538.352,175.838 538.401,172.057 538.449,163.753 538.498,168.433 538.547,161.081 538.596,176.589 538.644,220.073 538.693,176.264 538.741,174.224 538.79,173.412 538.838,176.169 538.887,172.891 538.935,156.709 538.984,167.252 539.032,159.843 539.08,160.692 539.129,188.406 539.177,170.653 539.225,183.453 539.273,191.839 539.321,175.871 539.37,169.045 539.418,167.735 539.466,194.647 539.514,161.295 539.562,176.02 539.61,204.496 539.658,173.566 539.706,164.467 539.754,183.75 539.802,164.412 539.849,176.553 539.897,184.705 539.945,164.675 539.993,173.123 540.04,170.516 540.088,161.435 540.136,216.611 540.183,207.085 540.231,185.244 540.278,176.159 540.326,170.99 540.373,159.333 540.421,190.931 540.468,166.395 540.516,188.302 540.563,182.084 540.61,165.83 540.658,184.3 540.705,187.254 540.752,167.287 540.799,197.661 540.846,180.256 540.894,212.459 540.941,179.555 540.988,170.987 541.035,219.078 541.082,188.835 541.129,178.775 541.176,173.863 541.223,187.406 541.27,168.6 541.316,167.184 541.363,153.011 541.41,178.119 541.457,187.72 541.504,175.72 541.55,191.99 541.597,168.556 541.644,234.304 541.69,159.618 541.737,199.059 541.783,167.792 541.83,203.084 541.876,191.796 541.923,155.983 541.969,155.133 542.016,220.964 542.062,166.944 542.109,162.721 542.155,185.975 542.201,180.303 542.247,183.55 542.294,160.126 542.34,178.22 542.386,176.826 542.432,192.728 542.478,185.996 542.524,172.278 542.57,165.86 542.616,191.424 542.662,172.961 542.708,164.899 542.754,155.941 542.8,170.709 542.846,165.402 542.892,187.917 542.938,166.825 542.984,161.804 543.029,165.269 543.075,186.197 543.121,162.659 543.167,206.383 543.212,185.013 543.258,181.916 543.303,169.149 543.349,180.561 543.395,168.385 543.44,205.083 543.485,177.461 543.531,158.701 543.576,197.816 543.622,165.63 543.667,193.301 543.712,197.088 543.758,197.738 543.803,162.381 543.848,184.305 543.894,182.659 543.939,175.579 543.984,182.979 544.029,159.717 544.074,185.852 544.119,176.587 544.164,173.832 544.209,192.702 544.254,176.824 544.299,166.327 544.344,182.036 544.389,178.573 544.434,168.944 544.479,170.423 544.524,152.263 544.569,195.033 544.613,163.245 544.658,189.036 544.703,154.78 544.748,219.758 544.792,209.54 544.837,183.547 544.881,176.198 544.926,227.926 544.971,160.327 545.015,190.642 545.06,205.405 545.104,200.224 545.149,165.119 545.193,189.8 545.237,167.74 545.282,171.813 545.326,186.298 545.37,169.089 545.415,182.847 545.459,178.004 545.503,180.518 545.547,176.731 545.592,170.161 545.636,183.971 545.68,162.158 545.724,182.849 545.768,193.027 545.812,191.973 545.856,179.566 545.9,176.127 545.944,165.285 545.988,182.062 546.032,178.703 546.076,174.044 546.12,162.526 546.163,178.926 546.207,163.926 546.251,183.374 546.295,179.644 546.338,245.307 546.382,195.337 546.426,183.66 546.469,202.898 546.513,175.936 546.557,169.656 546.6,190.036 546.644,158.831 546.687,166.809 546.731,178.121 546.774,173.394 546.818,166.572 546.861,182.451 546.904,160.659 546.948,160.828 546.991,177.116 547.034,183.728 547.078,187.285 547.121,170.555 547.164,190.32 547.207,160.353 547.251,173.019 547.294,183.894 547.337,188.586 547.38,186.759 547.423,189.445 547.466,180.817 547.509,167.014 547.552,183.014 547.595,168.462 547.638,162.965 547.681,204.779 547.724,154.152 547.767,169.813 547.809,168.561 547.852,237.64 547.895,170.441 547.938,166.575 547.981,178.599 548.023,227.094 548.066,185.7 548.109,235.048 548.151,177.714 548.194,179.774 548.236,180.916 548.279,159.014 548.322,154.928 548.364,161.296 548.407,189.376 548.449,183.828 548.492,196.164 548.534,160.969 548.576,154.665 548.619,185.726 548.661,171.338 548.703,182.536 548.746,173.252 548.788,158.825 548.83,185.546 548.872,174.833 548.914,184.065 548.957,170.614 548.999,162.915 549.041,230.096 549.083,157.189 549.125,182.532 549.167,173.189 549.209,175.336 549.251,157.343 549.293,169.301 549.335,192.395 549.377,169.697 549.419,177.116 549.461,153.102 549.503,207.853 549.544,193.046 549.586,166.902 549.628,169.362 549.67,173.08 549.712,182.723 549.753,201.582 549.795,167.767 549.837,156.742 549.878,193.706 549.92,181.391 549.961,175.75 550.003,163.415 550.045,173.954 550.086,174.329 550.128,183.782 550.169,193.791 550.21,172.762 550.252,185.087 550.293,187.213 550.335,163.312 550.376,164.113 550.417,188.582 550.459,156.615 550.5,185.928 550.541,172.755 550.582,190.713 550.624,168.288 550.665,170.015 550.706,165.629 550.747,183.176 550.788,163.914 550.829,164.742 550.87,169.689 550.911,206.3 550.953,178.981 550.993,193.311 551.034,176.669 551.075,156.853 551.116,190.663 551.157,184.831 551.198,159.971 551.239,195.531 551.28,202.315 551.321,166.647 551.361,186.665 551.402,199.696 551.443,170.752 551.484,159.185 551.524,231.27 551.565,201.308 551.606,157.371 551.646,202.457 551.687,213.355 551.727,152.287 551.768,182.555 551.809,232.466 551.849,153.332 551.89,173.114 551.93,162.789 551.971,206.091 552.011,185.165 552.051,170.871 552.085,252.247"/>
<polyline fill="none" stroke="#0071bc" stroke-width="0.5" stroke-linecap="butt" stroke-linejoin="miter" points="552.098,252.247 552.132,162.882 552.172,181.908 552.213,195.869 552.253,173.169 552.293,178.715 552.334,167.352 552.374,185.487 552.414,189.991 552.454,166.796 552.494,183.673 552.534,178.843 552.575,176.254 552.615,189.127 552.655,171.894 552.695,190.855 552.735,189.856 552.775,185.009 552.815,169.707 552.855,187.035 552.895,172.407 552.935,174.043 552.974,169.864 553.014,205.418 553.054,160.491 553.094,174.71 553.134,178.816 553.174,161.853 553.213,194.901 553.253,158.254 553.293,165.459 553.333,196.449 553.372,183.265 553.412,169.509 553.452,171.142 553.491,153.469 553.531,198.398 553.57,162.606 553.61,148.936 553.649,193.423 553.689,167.359 553.728,172.862 553.768,189.706 553.807,161.139 553.847,183.33 553.886,188.082 553.925,171.034 553.965,215.583 554.004,175.787 554.043,181.471 554.083,191.247 554.122,173.515 554.161,170.154 554.2,170.733 554.24,168.394 554.279,172.803 554.318,197.67 554.357,210.855 554.396,193.615 554.435,200.514 554.474,155.996 554.513,197.942 554.552,179.552 554.591,165.377 554.63,171.887 554.669,200.555 554.708,151.755 554.747,186.341 554.786,175.415 554.825,193.111 554.864,188.532 554.903,166.681 554.942,184.583 554.98,154.476 555.019,199.356 555.058,167.181 555.097,168.814 555.135,167.796 555.174,161.697 555.213,178.555 555.251,159.885 555.29,159.369 555.329,162.447 555.367,188.878 555.406,171.175 555.444,235.744 555.483,165.148 555.521,184.729 555.56,168.826 555.598,167.276 555.637,177.929 555.675,152.384 555.714,177.689 555.752,179.02 555.79,205.657 555.829,187.039 555.867,173.09 555.905,177.758 555.944,170.896 555.982,209.816 556.02,176.503 556.058,172.612 556.097,183.65 556.135,176.585 556.173,183.723 556.211,189.32 556.249,175.262 556.287,164.447 556.325,181.859 556.363,187.811 556.401,206.562 556.439,173.443 556.477,167.506 556.515,181.283 556.553,159.838 556.591,180.593 556.629,192.898 556.667,175.678 556.705,176.883 556.743,166.953 556.781,189.835 556.819,162.496 556.856,154.973 556.894,211.147 556.932,173.116 556.97,169.57 557.007,208.368 557.045,186.974 557.083,186.729 557.121,196.527 557.158,194.172 557.196,174.652 557.233,193.154 557.271,165.687 557.309,192.724 557.346,184.212 557.384,166.904 557.421,167.204 557.459,197.547 557.496,173.223 557.534,167.801 557.571,168.656 557.609,169.388 557.646,189.463 557.683,225.194 557.721,186.049 557.758,168.181 557.795,150.619 557.833,172.376 557.87,169.387 557.907,178.875 557.944,168.648 557.982,197.465 558.019,177.837 558.056,210.524 558.093,176.322 558.13,166.319 558.167,176.292 558.205,181.355 558.242,172.761 558.279,165.789 558.316,181.748 558.353,172.396 558.39,167.246 558.427,166.643 558.464,203.189 558.501,184.051 558.538,188.758 558.575,169.207 558.612,192.337 558.648,173.263 558.685,162.16 558.722,187.73 558.759,164.591 558.796,168.343 558.833,177.825 558.869,189.868 558.906,154.554 558.943,173.622 558.979,180.527 559.016,227.344 559.053,196.793 559.089,173.389 559.126,195.577 559.163,173.422 559.199,163.553 559.236,187.838 559.273,165.251 559.309,169.976 559.346,181.647 559.382,171.261 559.419,196.582 559.455,159.248 559.492,177.654 559.528,159.099 559.564,181.063 559.601,173.79 559.637,204.269 559.674,186.106 559.71,158.727 559.746,163.471 559.783,161.339 559.819,167.595 559.855,174.546 559.891,195.158 559.928,175.778 559.964,183.963 560,162.935 560.036,158.101 560.072,174.167 560.109,194.846 560.145,182.343 560.181,159.393 560.217,175.511 560.253,163.112 560.289,159.262 560.325,180.273 560.361,180.234 560.397,163.835 560.433,173.948 560.469,184.464 560.5,178.998"/>
</g>
<clipPath id="cp00600280">
  <polygon points="0,280 600,280 600,0 0,0"/>
</clipPath>
<g clip-path="url(#cp00600280)">
<polyline fill="none" stroke="#ff0000" stroke-width="2" stroke-linecap="butt" stroke-linejoin="miter" points="585,182 584.441,184.664 582.767,187.317 579.985,189.949 576.106,192.548 571.145,195.105 565.122,197.61 558.062,200.051 549.993,202.42 540.948,204.707 530.962,206.902 520.077,208.997 508.336,210.983 495.786,212.853 482.478,214.598 468.466,216.212 453.805,217.688 438.555,219.021 422.778,220.205 406.536,221.234 389.895,222.106 372.923,222.816 355.687,223.362 338.258,223.741 320.704,223.952 303.097,223.995 285.508,223.868 268.008,223.573 250.666,223.11 233.554,222.481 216.739,221.69 200.289,220.739 184.272,219.632 168.75,218.373 153.787,216.968 139.443,215.422 125.776,213.741 112.841,211.933 100.689,210.004 89.3703,207.963 78.9298,205.817 69.4096,203.574 60.8482,201.246 53.2799,198.839 46.7353,196.365 41.2407,193.833 36.8182,191.253 33.4857,188.636 31.2565,185.992 30.1397,183.333 30.1397,180.667 31.2565,178.008 33.4857,175.364 36.8182,172.747 41.2407,170.167 46.7353,167.635 53.2799,165.161 60.8482,162.754 69.4096,160.426 78.9298,158.183 89.3703,156.037 100.689,153.996 112.841,152.067 125.776,150.259 139.443,148.578 153.787,147.032 168.75,145.627 184.272,144.368 200.289,143.261 216.739,142.31 233.554,141.519 250.666,140.89 268.008,140.427 285.508,140.132 303.097,140.005 320.704,140.048 338.258,140.259 355.687,140.638 372.923,141.184 389.895,141.894 406.536,142.766 422.778,143.795 438.555,144.979 453.805,146.312 468.466,147.788 482.478,149.402 495.786,151.147 508.336,153.017 520.077,155.003 530.962,157.098 540.948,159.293 549.993,161.58 558.062,163.949 565.122,166.39 571.145,168.895 576.106,171.452 579.985,174.051 582.767,176.683 584.441,179.336 585,182 585,182"/>
</g>
</g>
</svg>
