<?xml version="1.0" encoding="utf-8" standalone="no"?>
<?xml-stylesheet type="text/css" href="https://fonts.googleapis.com/css?family=Open+Sans:300italic,400italic,600italic,700italic,400,600,700,300&amp;subset=latin,cyrillic-ext,latin-ext,cyrillic" ?>
<!DOCTYPE svg PUBLIC "-//W3C//DTD SVG 1.1//EN"
  "http://www.w3.org/Graphics/SVG/1.1/DTD/svg11.dtd">
<!-- Created with matplotlib (http://matplotlib.org/) -->
<svg height="288pt" version="1.1" viewBox="0 0 460.8 288" width="460.8pt" xmlns="http://www.w3.org/2000/svg" xmlns:xlink="http://www.w3.org/1999/xlink">
 <defs>
  <style type="text/css">
*{stroke-linecap:butt;stroke-linejoin:round;}
  </style>
 </defs>
 <g id="figure_1">
  <g id="patch_1">
   <path d="M 0 288 
L 460.8 288 
L 460.8 0 
L 0 0 
z
" style="fill:#fefefe;"/>
  </g>
  <g id="axes_1">
   <g id="patch_2">
    <path d="M 48.953125 246.196875 
L 435.707031 246.196875 
L 435.707031 14.599219 
L 48.953125 14.599219 
z
" style="fill:#ffffff;"/>
   </g>
   <g id="matplotlib.axis_1">
    <g id="xtick_1">
     <g id="line2d_1">
      <defs>
       <path d="M 0 0 
L 0 3.5 
" id="me453689abb" style="stroke:#000000;stroke-width:0.8;"/>
      </defs>
      <g>
       <use style="stroke:#000000;stroke-width:0.8;" x="48.953125" xlink:href="#me453689abb" y="246.196875"/>
      </g>
     </g>
     <g id="text_1">
      <text style="font-family:Open Sans;font-size:10px;font-style:normal;font-weight:normal;text-anchor:middle;" transform="rotate(-0, 48.953125, 260.795313)" x="48.953125" y="260.795313">20</text>
     </g>
    </g>
    <g id="xtick_2">
     <g id="line2d_2">
      <g>
       <use style="stroke:#000000;stroke-width:0.8;" x="139.062918" xlink:href="#me453689abb" y="246.196875"/>
      </g>
     </g>
     <g id="text_2">
      <text style="font-family:Open Sans;font-size:10px;font-style:normal;font-weight:normal;text-anchor:middle;" transform="rotate(-0, 139.062918, 260.795313)" x="139.062918" y="260.795313">100</text>
     </g>
    </g>
    <g id="xtick_3">
     <g id="line2d_3">
      <g>
       <use style="stroke:#000000;stroke-width:0.8;" x="267.980887" xlink:href="#me453689abb" y="246.196875"/>
      </g>
     </g>
     <g id="text_3">
      <text style="font-family:Open Sans;font-size:10px;font-style:normal;font-weight:normal;text-anchor:middle;" transform="rotate(-0, 267.980887, 260.795313)" x="267.980887" y="260.795313">1000</text>
     </g>
    </g>
    <g id="xtick_4">
     <g id="line2d_4">
      <g>
       <use style="stroke:#000000;stroke-width:0.8;" x="396.898856" xlink:href="#me453689abb" y="246.196875"/>
      </g>
     </g>
     <g id="text_4">
      <text style="font-family:Open Sans;font-size:10px;font-style:normal;font-weight:normal;text-anchor:middle;" transform="rotate(-0, 396.898856, 260.795313)" x="396.898856" y="260.795313">10000</text>
     </g>
    </g>
    <g id="xtick_5">
     <g id="line2d_5">
      <g>
       <use style="stroke:#000000;stroke-width:0.8;" x="435.707031" xlink:href="#me453689abb" y="246.196875"/>
      </g>
     </g>
     <g id="text_5">
      <text style="font-family:Open Sans;font-size:10px;font-style:normal;font-weight:normal;text-anchor:middle;" transform="rotate(-0, 435.707031, 260.795313)" x="435.707031" y="260.795313">20000</text>
     </g>
    </g>
    <g id="xtick_6">
     <g id="line2d_6">
      <defs>
       <path d="M 0 0 
L 0 2 
" id="m6f345adbae" style="stroke:#000000;stroke-width:0.6;"/>
      </defs>
      <g>
       <use style="stroke:#000000;stroke-width:0.6;" x="48.953125" xlink:href="#m6f345adbae" y="246.196875"/>
      </g>
     </g>
    </g>
    <g id="xtick_7">
     <g id="line2d_7">
      <g>
       <use style="stroke:#000000;stroke-width:0.6;" x="71.654452" xlink:href="#m6f345adbae" y="246.196875"/>
      </g>
     </g>
    </g>
    <g id="xtick_8">
     <g id="line2d_8">
      <g>
       <use style="stroke:#000000;stroke-width:0.6;" x="87.761301" xlink:href="#m6f345adbae" y="246.196875"/>
      </g>
     </g>
    </g>
    <g id="xtick_9">
     <g id="line2d_9">
      <g>
       <use style="stroke:#000000;stroke-width:0.6;" x="100.254743" xlink:href="#m6f345adbae" y="246.196875"/>
      </g>
     </g>
    </g>
    <g id="xtick_10">
     <g id="line2d_10">
      <g>
       <use style="stroke:#000000;stroke-width:0.6;" x="110.462628" xlink:href="#m6f345adbae" y="246.196875"/>
      </g>
     </g>
    </g>
    <g id="xtick_11">
     <g id="line2d_11">
      <g>
       <use style="stroke:#000000;stroke-width:0.6;" x="119.093272" xlink:href="#m6f345adbae" y="246.196875"/>
      </g>
     </g>
    </g>
    <g id="xtick_12">
     <g id="line2d_12">
      <g>
       <use style="stroke:#000000;stroke-width:0.6;" x="126.569476" xlink:href="#m6f345adbae" y="246.196875"/>
      </g>
     </g>
    </g>
    <g id="xtick_13">
     <g id="line2d_13">
      <g>
       <use style="stroke:#000000;stroke-width:0.6;" x="133.163955" xlink:href="#m6f345adbae" y="246.196875"/>
      </g>
     </g>
    </g>
    <g id="xtick_14">
     <g id="line2d_14">
      <g>
       <use style="stroke:#000000;stroke-width:0.6;" x="177.871094" xlink:href="#m6f345adbae" y="246.196875"/>
      </g>
     </g>
    </g>
    <g id="xtick_15">
     <g id="line2d_15">
      <g>
       <use style="stroke:#000000;stroke-width:0.6;" x="200.572421" xlink:href="#m6f345adbae" y="246.196875"/>
      </g>
     </g>
    </g>
    <g id="xtick_16">
     <g id="line2d_16">
      <g>
       <use style="stroke:#000000;stroke-width:0.6;" x="216.679269" xlink:href="#m6f345adbae" y="246.196875"/>
      </g>
     </g>
    </g>
    <g id="xtick_17">
     <g id="line2d_17">
      <g>
       <use style="stroke:#000000;stroke-width:0.6;" x="229.172711" xlink:href="#m6f345adbae" y="246.196875"/>
      </g>
     </g>
    </g>
    <g id="xtick_18">
     <g id="line2d_18">
      <g>
       <use style="stroke:#000000;stroke-width:0.6;" x="239.380597" xlink:href="#m6f345adbae" y="246.196875"/>
      </g>
     </g>
    </g>
    <g id="xtick_19">
     <g id="line2d_19">
      <g>
       <use style="stroke:#000000;stroke-width:0.6;" x="248.011241" xlink:href="#m6f345adbae" y="246.196875"/>
      </g>
     </g>
    </g>
    <g id="xtick_20">
     <g id="line2d_20">
      <g>
       <use style="stroke:#000000;stroke-width:0.6;" x="255.487445" xlink:href="#m6f345adbae" y="246.196875"/>
      </g>
     </g>
    </g>
    <g id="xtick_21">
     <g id="line2d_21">
      <g>
       <use style="stroke:#000000;stroke-width:0.6;" x="262.081924" xlink:href="#m6f345adbae" y="246.196875"/>
      </g>
     </g>
    </g>
    <g id="xtick_22">
     <g id="line2d_22">
      <g>
       <use style="stroke:#000000;stroke-width:0.6;" x="306.789062" xlink:href="#m6f345adbae" y="246.196875"/>
      </g>
     </g>
    </g>
    <g id="xtick_23">
     <g id="line2d_23">
      <g>
       <use style="stroke:#000000;stroke-width:0.6;" x="329.49039" xlink:href="#m6f345adbae" y="246.196875"/>
      </g>
     </g>
    </g>
    <g id="xtick_24">
     <g id="line2d_24">
      <g>
       <use style="stroke:#000000;stroke-width:0.6;" x="345.597238" xlink:href="#m6f345adbae" y="246.196875"/>
      </g>
     </g>
    </g>
    <g id="xtick_25">
     <g id="line2d_25">
      <g>
       <use style="stroke:#000000;stroke-width:0.6;" x="358.09068" xlink:href="#m6f345adbae" y="246.196875"/>
      </g>
     </g>
    </g>
    <g id="xtick_26">
     <g id="line2d_26">
      <g>
       <use style="stroke:#000000;stroke-width:0.6;" x="368.298566" xlink:href="#m6f345adbae" y="246.196875"/>
      </g>
     </g>
    </g>
    <g id="xtick_27">
     <g id="line2d_27">
      <g>
       <use style="stroke:#000000;stroke-width:0.6;" x="376.92921" xlink:href="#m6f345adbae" y="246.196875"/>
      </g>
     </g>
    </g>
    <g id="xtick_28">
     <g id="line2d_28">
      <g>
       <use style="stroke:#000000;stroke-width:0.6;" x="384.405414" xlink:href="#m6f345adbae" y="246.196875"/>
      </g>
     </g>
    </g>
    <g id="xtick_29">
     <g id="line2d_29">
      <g>
       <use style="stroke:#000000;stroke-width:0.6;" x="390.999893" xlink:href="#m6f345adbae" y="246.196875"/>
      </g>
     </g>
    </g>
    <g id="xtick_30">
     <g id="line2d_30">
      <g>
       <use style="stroke:#000000;stroke-width:0.6;" x="435.707031" xlink:href="#m6f345adbae" y="246.196875"/>
      </g>
     </g>
    </g>
    <g id="text_6">
     <text style="font-family:Open Sans;font-size:10px;font-style:normal;font-weight:normal;text-anchor:middle;" transform="rotate(-0, 242.330078, 274.796875)" x="242.330078" y="274.796875">Frequency (Hz)</text>
    </g>
   </g>
   <g id="matplotlib.axis_2">
    <g id="ytick_1">
     <g id="line2d_31">
      <defs>
       <path d="M 0 0 
L -3.5 0 
" id="mc1a911a7ee" style="stroke:#000000;stroke-width:0.8;"/>
      </defs>
      <g>
       <use style="stroke:#000000;stroke-width:0.8;" x="48.953125" xlink:href="#mc1a911a7ee" y="246.196875"/>
      </g>
     </g>
     <g id="text_7">
      <text style="font-family:Open Sans;font-size:10px;font-style:normal;font-weight:normal;text-anchor:end;" transform="rotate(-0, 41.953125, 249.996094)" x="41.953125" y="249.996094">−80</text>
     </g>
    </g>
    <g id="ytick_2">
     <g id="line2d_32">
      <g>
       <use style="stroke:#000000;stroke-width:0.8;" x="48.953125" xlink:href="#mc1a911a7ee" y="220.463802"/>
      </g>
     </g>
     <g id="text_8">
      <text style="font-family:Open Sans;font-size:10px;font-style:normal;font-weight:normal;text-anchor:end;" transform="rotate(-0, 41.953125, 224.263021)" x="41.953125" y="224.263021">−70</text>
     </g>
    </g>
    <g id="ytick_3">
     <g id="line2d_33">
      <g>
       <use style="stroke:#000000;stroke-width:0.8;" x="48.953125" xlink:href="#mc1a911a7ee" y="194.730729"/>
      </g>
     </g>
     <g id="text_9">
      <text style="font-family:Open Sans;font-size:10px;font-style:normal;font-weight:normal;text-anchor:end;" transform="rotate(-0, 41.953125, 198.529948)" x="41.953125" y="198.529948">−60</text>
     </g>
    </g>
    <g id="ytick_4">
     <g id="line2d_34">
      <g>
       <use style="stroke:#000000;stroke-width:0.8;" x="48.953125" xlink:href="#mc1a911a7ee" y="168.997656"/>
      </g>
     </g>
     <g id="text_10">
      <text style="font-family:Open Sans;font-size:10px;font-style:normal;font-weight:normal;text-anchor:end;" transform="rotate(-0, 41.953125, 172.796875)" x="41.953125" y="172.796875">−50</text>
     </g>
    </g>
    <g id="ytick_5">
     <g id="line2d_35">
      <g>
       <use style="stroke:#000000;stroke-width:0.8;" x="48.953125" xlink:href="#mc1a911a7ee" y="143.264583"/>
      </g>
     </g>
     <g id="text_11">
      <text style="font-family:Open Sans;font-size:10px;font-style:normal;font-weight:normal;text-anchor:end;" transform="rotate(-0, 41.953125, 147.063802)" x="41.953125" y="147.063802">−40</text>
     </g>
    </g>
    <g id="ytick_6">
     <g id="line2d_36">
      <g>
       <use style="stroke:#000000;stroke-width:0.8;" x="48.953125" xlink:href="#mc1a911a7ee" y="117.53151"/>
      </g>
     </g>
     <g id="text_12">
      <text style="font-family:Open Sans;font-size:10px;font-style:normal;font-weight:normal;text-anchor:end;" transform="rotate(-0, 41.953125, 121.330729)" x="41.953125" y="121.330729">−30</text>
     </g>
    </g>
    <g id="ytick_7">
     <g id="line2d_37">
      <g>
       <use style="stroke:#000000;stroke-width:0.8;" x="48.953125" xlink:href="#mc1a911a7ee" y="91.798438"/>
      </g>
     </g>
     <g id="text_13">
      <text style="font-family:Open Sans;font-size:10px;font-style:normal;font-weight:normal;text-anchor:end;" transform="rotate(-0, 41.953125, 95.597656)" x="41.953125" y="95.597656">−20</text>
     </g>
    </g>
    <g id="ytick_8">
     <g id="line2d_38">
      <g>
       <use style="stroke:#000000;stroke-width:0.8;" x="48.953125" xlink:href="#mc1a911a7ee" y="66.065365"/>
      </g>
     </g>
     <g id="text_14">
      <text style="font-family:Open Sans;font-size:10px;font-style:normal;font-weight:normal;text-anchor:end;" transform="rotate(-0, 41.953125, 69.864583)" x="41.953125" y="69.864583">−10</text>
     </g>
    </g>
    <g id="ytick_9">
     <g id="line2d_39">
      <g>
       <use style="stroke:#000000;stroke-width:0.8;" x="48.953125" xlink:href="#mc1a911a7ee" y="40.332292"/>
      </g>
     </g>
     <g id="text_15">
      <text style="font-family:Open Sans;font-size:10px;font-style:normal;font-weight:normal;text-anchor:end;" transform="rotate(-0, 41.953125, 44.13151)" x="41.953125" y="44.13151">0</text>
     </g>
    </g>
    <g id="ytick_10">
     <g id="line2d_40">
      <g>
       <use style="stroke:#000000;stroke-width:0.8;" x="48.953125" xlink:href="#mc1a911a7ee" y="14.599219"/>
      </g>
     </g>
     <g id="text_16">
      <text style="font-family:Open Sans;font-size:10px;font-style:normal;font-weight:normal;text-anchor:end;" transform="rotate(-0, 41.953125, 18.398438)" x="41.953125" y="18.398438">10</text>
     </g>
    </g>
    <g id="text_17">
     <text style="font-family:Open Sans;font-size:10px;font-style:normal;font-weight:normal;text-anchor:middle;" transform="rotate(-90, 18.398438, 130.398047)" x="18.398438" y="130.398047">Amplitude (dB)</text>
    </g>
   </g>
   <g id="line2d_41">
    <path clip-path="url(#pac55830248)" d="M 10.144949 153.199198 
L 48.953125 163.911468 
L 71.654452 168.959986 
L 87.761301 172.208998 
L 100.254743 168.238492 
L 110.462628 183.739879 
L 119.093272 148.684106 
L 126.569476 171.038412 
L 133.163955 164.609494 
L 139.062918 152.714259 
L 144.399179 162.145826 
L 149.270804 166.968081 
L 153.752264 215.92721 
L 157.901448 167.059571 
L 161.764246 179.976062 
L 165.377652 157.106929 
L 168.771925 158.566498 
L 171.972131 190.101219 
L 174.999266 160.89541 
L 177.871094 159.679561 
L 180.602775 168.537525 
L 183.207355 181.952329 
L 185.696136 167.076697 
L 188.078979 165.762031 
L 190.364536 147.661832 
L 192.560439 161.751937 
L 194.673458 150.274516 
L 196.709623 189.943268 
L 198.674329 164.061015 
L 200.572421 154.227202 
L 202.40827 165.517025 
L 204.185827 161.734801 
L 205.908682 227.19506 
L 207.580101 177.127799 
L 209.203065 180.246862 
L 210.780307 167.135513 
L 212.31433 180.398893 
L 213.807442 164.339015 
L 215.261767 180.206572 
L 216.679269 158.158871 
L 218.061768 161.037823 
L 219.410951 173.410507 
L 220.728385 167.59801 
L 222.01553 179.927126 
L 223.273749 149.237363 
L 224.504312 179.712056 
L 225.708409 162.520983 
L 226.887155 170.915516 
L 228.041595 157.943772 
L 229.172711 164.694989 
L 230.281428 152.194143 
L 231.368615 184.430623 
L 232.435092 187.190768 
L 233.481634 164.508498 
L 234.508972 169.246708 
L 235.517799 159.340836 
L 236.508769 180.370174 
L 237.482504 157.777273 
L 238.439594 169.303492 
L 239.380597 165.414238 
L 240.306045 162.298658 
L 241.216445 171.217018 
L 242.112278 168.214405 
L 242.994003 157.968724 
L 243.862057 156.902647 
L 244.716858 167.349734 
L 245.558804 169.319106 
L 246.388276 164.034603 
L 247.205639 171.92438 
L 248.011241 166.837009 
L 248.805415 158.241194 
L 249.588482 180.774928 
L 250.360748 176.557159 
L 251.122506 160.745669 
L 251.874039 167.418648 
L 252.615617 162.979443 
L 253.347502 204.554563 
L 254.069942 150.525828 
L 254.783179 182.811017 
L 255.487445 170.841576 
L 256.182961 174.182404 
L 256.869944 189.889226 
L 257.548599 138.005481 
L 258.219126 164.636696 
L 258.881718 148.254411 
L 259.53656 175.090417 
L 260.183832 159.698403 
L 260.823706 176.985815 
L 261.456349 173.253082 
L 262.081924 153.036789 
L 262.700586 166.201147 
L 263.312487 152.233319 
L 263.917773 156.876585 
L 264.516584 175.372799 
L 265.109059 168.529683 
L 265.69533 159.75525 
L 266.275526 173.339166 
L 266.84977 151.685216 
L 267.418185 176.123542 
L 267.980887 48.250929 
L 268.53799 190.777795 
L 269.089604 202.395629 
L 269.635836 159.97835 
L 270.17679 173.015768 
L 270.712568 168.39232 
L 271.243268 145.60897 
L 271.768984 192.192295 
L 272.28981 179.089069 
L 272.805835 158.913398 
L 273.317148 155.919582 
L 273.823833 166.159479 
L 274.325974 153.463646 
L 274.823652 197.093835 
L 275.805929 155.822157 
L 276.29068 176.850308 
L 276.77127 187.250687 
L 277.247769 173.292483 
L 277.720248 178.358414 
L 278.188772 179.795368 
L 278.653409 164.622443 
L 279.114221 159.823395 
L 279.571271 175.62346 
L 280.024621 165.944768 
L 280.474329 192.636987 
L 280.920454 158.851956 
L 281.363052 190.80352 
L 281.802178 161.67628 
L 282.237888 195.375759 
L 282.670232 165.197013 
L 283.099264 167.78684 
L 283.525033 179.445663 
L 283.947589 169.691635 
L 284.366979 175.059712 
L 284.783252 187.038006 
L 285.196452 162.157194 
L 285.606625 158.689635 
L 286.013815 165.362324 
L 286.418064 183.620831 
L 286.819416 154.566777 
L 287.217912 162.565794 
L 287.613591 177.153096 
L 288.006493 158.649016 
L 288.396658 193.456079 
L 288.784122 162.083885 
L 289.168923 169.068283 
L 289.551098 154.92232 
L 289.930681 177.06902 
L 290.307709 174.459119 
L 290.682214 204.939495 
L 291.054231 166.322202 
L 291.423793 176.768763 
L 291.790931 178.190977 
L 292.155677 178.948894 
L 292.518063 176.451436 
L 292.878118 164.647851 
L 293.235872 148.301795 
L 293.944595 200.017473 
L 294.29562 150.491334 
L 294.644459 172.425295 
L 294.991137 157.541786 
L 295.335682 153.958323 
L 295.678119 161.45543 
L 296.018475 174.826179 
L 296.356775 155.387255 
L 296.693042 167.218681 
L 297.027302 221.79659 
L 297.359578 184.588776 
L 297.689894 164.865346 
L 298.018272 158.992213 
L 298.344736 176.724115 
L 298.669307 175.654301 
L 298.992007 153.871454 
L 299.312858 166.072361 
L 299.631881 194.918783 
L 299.949097 174.11978 
L 300.264525 174.216609 
L 300.8901 169.399329 
L 301.508762 157.792619 
L 301.815548 164.161181 
L 302.424123 159.556474 
L 302.725948 175.064323 
L 303.026155 174.984838 
L 303.32476 154.953193 
L 303.621781 175.413529 
L 303.917235 165.585017 
L 304.211138 168.857429 
L 304.503506 162.672477 
L 304.794355 169.714566 
L 305.083701 160.379993 
L 305.37156 178.078331 
L 305.657946 156.884396 
L 305.942875 193.358114 
L 306.226361 151.530222 
L 306.508418 163.101016 
L 307.068307 154.598498 
L 307.346165 168.141186 
L 307.622652 160.472948 
L 308.171561 170.607719 
L 308.444011 199.990944 
L 308.715142 160.63953 
L 308.984966 179.260293 
L 309.253496 186.977333 
L 309.520744 177.028816 
L 309.786722 172.252025 
L 310.051443 176.51449 
L 310.577159 158.35442 
L 310.838178 159.78527 
L 311.097985 159.41857 
L 311.356592 141.141273 
L 311.614011 159.88836 
L 311.870251 157.624897 
L 312.125323 157.89783 
L 312.379239 145.70439 
L 312.632009 165.564777 
L 312.883642 160.53273 
L 313.13415 159.42231 
L 313.383542 163.42005 
L 314.12512 151.256133 
L 314.370146 166.028512 
L 314.614105 162.508018 
L 314.857005 170.756662 
L 315.098856 154.053155 
L 315.339666 169.392413 
L 315.579445 165.785067 
L 315.818202 150.127127 
L 316.055945 169.277363 
L 316.292682 175.229046 
L 316.528423 161.055031 
L 316.763176 194.169414 
L 316.996948 150.992616 
L 317.229748 177.898695 
L 317.461584 181.282399 
L 317.692464 158.232599 
L 317.922396 153.993755 
L 318.151388 154.031615 
L 318.379447 162.44373 
L 318.60658 166.654943 
L 318.832796 206.051517 
L 319.058102 195.054872 
L 319.282505 160.794906 
L 319.506011 183.80206 
L 319.728629 157.198126 
L 319.950366 172.321578 
L 320.171227 179.188464 
L 320.391221 160.478756 
L 320.610354 176.712886 
L 320.828633 177.641399 
L 321.046063 173.220193 
L 321.262653 161.625091 
L 321.478408 172.347144 
L 321.693335 168.437429 
L 321.90744 192.494999 
L 322.120729 152.638627 
L 322.333209 172.736334 
L 322.544885 181.844606 
L 322.755764 169.647533 
L 322.965852 169.74679 
L 323.175155 165.977647 
L 323.383678 152.844116 
L 324.004627 179.738768 
L 324.210089 167.570082 
L 324.4148 169.610404 
L 324.618765 192.307776 
L 324.82199 160.355746 
L 325.02448 156.183267 
L 325.22624 162.068515 
L 325.427276 155.335854 
L 325.627592 183.077655 
L 325.827194 171.900637 
L 326.026087 169.734225 
L 326.224277 157.854312 
L 326.421767 178.343678 
L 326.618562 152.534553 
L 326.814669 198.764428 
L 327.398901 167.439935 
L 327.592298 169.000924 
L 327.785029 172.91831 
L 327.977099 157.555873 
L 328.168512 188.100331 
L 328.359273 156.551532 
L 328.549387 179.766094 
L 328.738857 171.171218 
L 328.927688 174.492637 
L 329.115884 151.104808 
L 329.30345 163.862328 
L 329.49039 159.730831 
L 329.676707 171.876882 
L 329.862407 173.770914 
L 330.047493 162.530038 
L 330.231968 192.144952 
L 330.415838 162.718652 
L 330.599107 180.937533 
L 330.781777 169.776167 
L 330.963853 181.293712 
L 331.145339 153.170471 
L 331.326238 151.937152 
L 331.506555 212.02314 
L 331.686293 170.863131 
L 331.865456 175.815785 
L 332.044048 184.357803 
L 332.222071 223.62969 
L 332.399531 160.698733 
L 332.576429 164.148679 
L 332.752771 181.297744 
L 332.928558 170.572245 
L 333.103796 167.955927 
L 333.278487 154.737487 
L 333.626242 182.11359 
L 333.799313 169.824753 
L 333.97185 184.507175 
L 334.143857 166.358813 
L 334.315338 167.778377 
L 334.656732 197.375996 
L 334.996056 151.766435 
L 335.16495 187.849571 
L 335.333336 167.712302 
L 335.668597 247.168684 
L 335.835477 157.482216 
L 336.001862 157.822647 
L 336.167754 149.266636 
L 336.498069 158.951827 
L 336.662499 196.753689 
L 336.826448 154.720843 
L 336.989918 155.989826 
L 337.152911 176.299387 
L 337.315432 159.582945 
L 337.477483 169.979375 
L 337.800183 163.229806 
L 338.121034 178.926047 
L 338.280773 171.963927 
L 338.440057 191.519677 
L 338.915209 152.033822 
L 339.072701 165.700306 
L 339.229751 220.286587 
L 339.386362 159.682785 
L 339.542536 169.805805 
L 339.698275 160.27371 
L 339.853583 180.342633 
L 340.008461 166.369694 
L 340.162912 170.30044 
L 340.316938 156.153143 
L 340.623724 181.957624 
L 340.776489 162.098878 
L 340.928838 164.394205 
L 341.080774 163.56201 
L 341.232299 158.486113 
L 341.383415 181.498158 
L 341.684428 147.056601 
L 341.983832 177.54443 
L 342.132936 169.379211 
L 342.429957 149.206782 
L 342.725411 198.943207 
L 343.019313 157.915772 
L 343.311681 171.284799 
L 343.457295 199.984821 
L 343.602531 158.143517 
L 343.747391 159.803568 
L 344.179735 171.640076 
L 344.466122 164.197926 
L 344.608767 168.257332 
L 344.75105 166.676046 
L 344.892973 159.210318 
L 345.034536 188.090522 
L 345.316594 158.226973 
L 345.457092 162.995065 
L 345.597238 163.335729 
L 345.737034 171.827871 
L 345.876482 169.252126 
L 346.015584 172.272852 
L 346.154341 166.133568 
L 346.430827 180.958724 
L 346.56856 186.313178 
L 346.705955 149.557489 
L 346.843013 178.703902 
L 346.979737 179.679083 
L 347.116128 185.988071 
L 347.252187 161.349385 
L 347.387916 178.251703 
L 347.658392 161.170268 
L 347.793142 158.468038 
L 347.927567 160.33027 
L 348.061671 149.793007 
L 348.195455 188.744008 
L 348.328919 167.008359 
L 348.462067 167.804789 
L 348.594898 151.703819 
L 348.859619 175.74431 
L 348.991511 152.885198 
L 349.123094 170.806508 
L 349.385335 163.601694 
L 349.515996 185.411342 
L 349.646353 164.777638 
L 350.035614 181.716034 
L 350.164768 192.96458 
L 350.293625 175.756017 
L 350.550453 187.504715 
L 350.678426 162.159395 
L 350.806108 179.728585 
L 350.933499 170.749207 
L 351.060601 171.754758 
L 351.187415 175.245282 
L 351.440184 163.695879 
L 351.566143 164.166492 
L 351.691818 181.915087 
L 351.942326 156.339913 
L 352.191717 171.972563 
L 352.315998 152.681769 
L 352.563734 201.179699 
L 352.81038 163.066686 
L 353.055943 178.992219 
L 353.300434 155.389367 
L 353.42228 161.880635 
L 353.543862 159.843607 
L 353.66518 198.308019 
L 353.907031 155.332155 
L 354.027566 173.119119 
L 354.26786 156.645403 
L 354.387621 180.963467 
L 354.507126 158.394663 
L 354.626378 158.615809 
L 354.745375 173.143017 
L 354.86412 171.49091 
L 355.100858 158.468322 
L 355.336599 163.552893 
L 355.454098 162.168921 
L 355.571351 218.130121 
L 355.688359 158.933656 
L 355.805123 187.681228 
L 355.921645 175.721312 
L 356.037924 195.923775 
L 356.153962 168.490873 
L 356.26976 167.711601 
L 356.385319 181.55921 
L 356.50064 161.04899 
L 356.615724 161.134444 
L 356.730572 177.524831 
L 356.845185 160.311888 
L 357.073709 190.263009 
L 357.187622 154.633304 
L 357.301304 202.290923 
L 357.414756 169.903242 
L 357.527978 175.373658 
L 357.640972 169.813004 
L 357.753738 173.394538 
L 357.866278 195.67784 
L 357.978591 151.932339 
L 358.09068 153.860874 
L 358.202545 152.622869 
L 358.425606 173.977398 
L 358.536805 178.788143 
L 358.647783 175.929449 
L 358.758541 147.631826 
L 358.869081 161.482485 
L 358.979403 159.964005 
L 359.089508 161.795825 
L 359.199397 173.16673 
L 359.41853 157.127386 
L 359.527775 180.079538 
L 359.745629 158.769979 
L 359.854239 163.732941 
L 359.962638 151.639103 
L 360.070829 172.411516 
L 360.17881 167.937687 
L 360.286584 182.124191 
L 360.39415 157.730147 
L 360.50151 196.461338 
L 360.715615 158.091917 
L 360.822361 193.100053 
L 361.035245 158.11632 
L 361.141384 154.283275 
L 361.247323 163.180308 
L 361.353061 152.478994 
L 361.4586 171.748506 
L 361.56394 165.311944 
L 361.669083 168.02358 
L 361.774028 163.479245 
L 361.98333 172.936495 
L 362.087689 182.622713 
L 362.191854 160.606587 
L 362.295824 177.302123 
L 362.399603 149.427732 
L 362.606584 180.870427 
L 362.709788 148.862643 
L 362.812803 170.307672 
L 362.915628 164.687663 
L 363.018265 191.668932 
L 363.120714 151.473995 
L 363.426941 188.108277 
L 363.731502 151.497876 
L 363.933626 182.218019 
L 364.034416 158.812578 
L 364.135024 177.864079 
L 364.235451 150.457598 
L 364.435768 165.308093 
L 364.535658 158.424318 
L 364.63537 176.294324 
L 364.734905 159.506379 
L 364.834263 167.961675 
L 364.933445 166.658443 
L 365.032452 175.182983 
L 365.229942 154.239187 
L 365.328426 176.479506 
L 365.622844 144.466203 
L 365.818267 201.324736 
L 366.013009 162.003272 
L 366.110127 171.309703 
L 366.207076 163.558676 
L 366.303858 167.205606 
L 366.496922 146.166511 
L 366.593204 165.869267 
L 366.689322 149.855647 
L 366.881063 177.744775 
L 366.976688 162.025212 
L 367.07215 195.298498 
L 367.167449 181.791923 
L 367.262586 152.467543 
L 367.357562 164.845754 
L 367.452378 155.843161 
L 367.547033 187.749327 
L 367.641528 167.574702 
L 367.830041 238.968551 
L 368.017921 169.872486 
L 368.111626 216.340063 
L 368.205174 159.127701 
L 368.298566 161.387779 
L 368.391802 159.853997 
L 368.484883 171.756344 
L 368.57781 159.206394 
L 368.670583 179.263012 
L 368.855668 155.046966 
L 368.947982 161.926243 
L 369.040144 205.6177 
L 369.315723 150.822738 
L 369.498692 215.332224 
L 369.589952 169.620929 
L 369.772029 181.664398 
L 369.862845 154.341224 
L 369.953514 161.999486 
L 370.044037 180.686269 
L 370.224645 161.501699 
L 370.314731 193.350556 
L 370.404672 156.580079 
L 370.584122 190.194083 
L 370.673632 164.795196 
L 370.762999 189.92961 
L 370.852223 185.596618 
L 371.030247 167.042565 
L 371.119047 167.814225 
L 371.207706 176.92476 
L 371.296225 163.280254 
L 371.384605 191.549386 
L 371.560946 158.348811 
L 371.648909 214.560806 
L 371.736734 168.053949 
L 371.824421 193.946405 
L 371.911972 155.756354 
L 371.999385 156.095152 
L 372.086662 152.657048 
L 372.26081 176.434548 
L 372.434417 160.669805 
L 372.607488 170.094894 
L 372.780026 149.242842 
L 372.952033 167.102489 
L 373.037839 148.930645 
L 373.123514 170.281404 
L 373.209057 136.991466 
L 373.294471 176.84695 
L 373.379754 153.428593 
L 373.464907 162.277025 
L 373.634826 155.033125 
L 373.888742 194.126612 
L 374.057382 153.847584 
L 374.141512 204.281831 
L 374.225515 166.968538 
L 374.309393 180.191773 
L 374.393145 156.576204 
L 374.476773 161.546962 
L 374.560275 173.011063 
L 374.643653 172.108666 
L 374.726907 167.726448 
L 374.810038 184.059346 
L 374.893045 175.802254 
L 374.975929 150.760796 
L 375.223848 185.597523 
L 375.38852 165.295478 
L 375.470675 183.881613 
L 375.552709 162.828357 
L 375.634623 193.26885 
L 375.716418 182.560348 
L 375.961087 148.033672 
L 376.123608 172.425021 
L 376.204692 167.23267 
L 376.285658 170.188812 
L 376.366508 165.268735 
L 376.447241 172.364711 
L 376.527858 163.826479 
L 376.608359 178.59649 
L 376.688744 152.426443 
L 376.769014 153.568219 
L 376.92921 169.327719 
L 377.009136 172.831351 
L 377.168647 164.529859 
L 377.248233 198.649216 
L 377.327705 162.086664 
L 377.486312 194.667553 
L 377.644472 161.348948 
L 377.802185 154.374583 
L 377.959456 171.633366 
L 378.116287 165.34472 
L 378.194537 163.537336 
L 378.272679 168.501001 
L 378.350711 158.007166 
L 378.428635 161.386667 
L 378.739251 198.97114 
L 378.971087 154.391182 
L 379.048153 163.459905 
L 379.125113 197.21515 
L 379.201967 164.801599 
L 379.278716 169.661649 
L 379.35536 153.432408 
L 379.584665 189.431111 
L 379.660891 154.709408 
L 379.737014 195.018725 
L 379.813033 156.295273 
L 379.88895 182.132327 
L 379.964763 168.621625 
L 380.040475 202.297781 
L 380.19159 156.151829 
L 380.266996 157.545602 
L 380.342299 167.082042 
L 380.417502 161.465157 
L 380.567605 175.346354 
L 380.717307 156.200632 
L 380.792008 163.796129 
L 380.866609 162.263764 
L 380.941111 190.487265 
L 381.015514 157.794172 
L 381.089819 178.460327 
L 381.164025 154.473662 
L 381.238132 158.694742 
L 381.312142 162.613516 
L 381.386054 149.627182 
L 381.459869 181.488712 
L 381.533586 149.023831 
L 381.607207 163.967132 
L 381.754158 200.217465 
L 381.827489 151.259266 
L 381.900724 181.923596 
L 381.973864 177.496119 
L 382.046908 152.082667 
L 382.119857 156.68074 
L 382.192711 163.811056 
L 382.265471 154.153935 
L 382.338136 177.809639 
L 382.410706 148.843571 
L 382.483183 180.550614 
L 382.555566 178.805304 
L 382.627856 179.058873 
L 382.700052 176.970636 
L 382.844167 154.074448 
L 382.916085 173.717642 
L 382.987911 166.935897 
L 383.059645 153.754762 
L 383.202838 182.896898 
L 383.345665 164.920847 
L 383.488129 157.926948 
L 383.771975 183.788253 
L 383.842712 163.58198 
L 383.91336 213.387274 
L 383.983918 165.454013 
L 384.054388 177.080788 
L 384.12477 180.548117 
L 384.265267 156.395158 
L 384.405414 164.599721 
L 384.475355 201.598214 
L 384.54521 154.244324 
L 384.614977 179.462695 
L 384.684658 184.901109 
L 384.754252 143.308659 
L 384.82376 159.97016 
L 384.893181 167.335485 
L 385.031766 149.959266 
L 385.10093 179.774502 
L 385.170009 151.638768 
L 385.239003 165.282024 
L 385.307911 150.257241 
L 385.445475 206.856702 
L 385.51413 185.687946 
L 385.582702 179.323298 
L 385.651189 155.701273 
L 385.719592 174.723992 
L 385.787913 173.067279 
L 385.856149 164.339944 
L 385.992374 189.948888 
L 386.060363 182.900021 
L 386.128268 206.584021 
L 386.196092 162.114917 
L 386.263834 186.172099 
L 386.331493 171.507254 
L 386.399071 184.33478 
L 386.533983 159.754002 
L 386.802835 194.330974 
L 386.936779 157.783594 
L 387.00363 157.996228 
L 387.070403 171.076961 
L 387.137095 161.638625 
L 387.203708 169.398577 
L 387.270242 153.138852 
L 387.469371 171.320335 
L 387.601731 160.763099 
L 387.667794 188.35778 
L 387.73378 179.520032 
L 387.799687 162.48804 
L 387.865517 169.990719 
L 387.996945 155.012901 
L 388.128065 185.559126 
L 388.193511 167.332265 
L 388.258879 190.866113 
L 388.324172 184.10333 
L 388.389388 184.606698 
L 388.519594 161.231626 
L 388.584583 190.463678 
L 388.649497 163.809669 
L 388.714336 176.079274 
L 388.7791 197.128862 
L 388.908404 155.145663 
L 388.972944 157.308352 
L 389.037409 174.449816 
L 389.101801 154.352646 
L 389.166118 161.041355 
L 389.294532 169.086429 
L 389.358628 155.809929 
L 389.422652 169.97284 
L 389.486602 151.702887 
L 389.678015 207.439368 
L 389.805262 155.563881 
L 389.868776 175.222647 
L 389.932219 151.035629 
L 389.99559 169.458641 
L 390.05889 154.245161 
L 390.122118 173.480803 
L 390.185275 159.329258 
L 390.374318 183.903017 
L 390.437191 160.688321 
L 390.499994 192.220414 
L 390.562726 168.868984 
L 390.750501 148.097426 
L 390.812953 169.87945 
L 390.875336 169.692807 
L 390.937649 172.616305 
L 391.124173 152.415209 
L 391.310079 182.045747 
L 391.495368 157.27646 
L 391.556996 154.156996 
L 391.618555 165.076385 
L 391.680047 196.023315 
L 391.741471 179.135969 
L 391.802829 153.618807 
L 391.864119 181.322532 
L 391.925341 164.48742 
L 391.986498 149.172185 
L 392.047587 169.541498 
L 392.169566 149.320994 
L 392.230456 176.935267 
L 392.29128 173.299883 
L 392.352038 166.14248 
L 392.473356 185.441833 
L 392.533917 175.08468 
L 392.594412 188.30241 
L 392.654842 160.726794 
L 392.715207 173.650429 
L 392.835741 150.019572 
L 393.016058 176.004086 
L 393.195796 159.771946 
L 393.255581 194.658641 
L 393.315302 174.367614 
L 393.494084 151.926833 
L 393.553551 158.914792 
L 393.612955 177.477554 
L 393.672296 169.45174 
L 393.731574 159.028774 
L 393.79079 165.176909 
L 393.849943 183.306687 
L 393.909034 153.863611 
L 393.968062 175.26528 
L 394.027028 166.21582 
L 394.085932 178.403455 
L 394.144774 157.50062 
L 394.203555 170.567481 
L 394.320931 167.079387 
L 394.379527 170.436532 
L 394.438061 167.468216 
L 394.496535 154.876751 
L 394.554947 170.523348 
L 394.613299 147.587053 
L 394.67159 169.54941 
L 394.72982 168.536939 
L 394.78799 146.99152 
L 394.846099 151.49038 
L 394.904148 151.239221 
L 394.962137 163.003793 
L 395.020066 155.950364 
L 395.077935 161.903343 
L 395.135745 184.069097 
L 395.193495 151.528933 
L 395.251185 168.874224 
L 395.308816 166.402344 
L 395.366387 157.854221 
L 395.4239 160.926795 
L 395.481353 166.668569 
L 395.538748 152.716746 
L 395.596083 159.746656 
L 395.710579 174.399969 
L 395.767739 165.967409 
L 395.881885 189.629414 
L 396.052668 148.868415 
L 396.166235 179.963481 
L 396.336154 155.023621 
L 396.392679 235.685985 
L 396.449148 154.750521 
L 396.505559 169.615079 
L 396.561914 154.75866 
L 396.674453 175.034202 
L 396.730638 159.285564 
L 396.786767 180.472036 
L 396.842839 166.92014 
L 396.898856 159.990566 
L 396.954816 177.593889 
L 397.010721 158.637045 
L 397.066569 165.557946 
L 397.1781 187.461952 
L 397.289409 160.347392 
L 397.34498 162.736876 
L 397.400497 180.777081 
L 397.455958 153.903698 
L 397.511365 169.064541 
L 397.566717 162.00065 
L 397.732445 179.509282 
L 397.787579 160.422096 
L 397.842658 165.807617 
L 397.897683 172.377732 
L 397.952655 170.800828 
L 398.117246 159.947586 
L 398.172002 182.972732 
L 398.281355 155.085972 
L 398.335951 207.376762 
L 398.390494 158.207527 
L 398.499421 171.947923 
L 398.608136 167.98626 
L 398.662414 201.985789 
L 398.71664 173.169488 
L 398.770814 165.196521 
L 398.824935 173.13278 
L 398.879004 171.256207 
L 398.933021 162.597323 
L 398.986986 187.631599 
L 399.040898 167.628988 
L 399.094759 149.076248 
L 399.148568 151.006885 
L 399.202326 154.144856 
L 399.309686 195.390466 
L 399.416841 153.905049 
L 399.470341 177.741098 
L 399.523791 164.706151 
L 399.630537 146.440415 
L 399.843421 174.881028 
L 399.896516 169.264277 
L 399.94956 176.726045 
L 400.002554 150.729472 
L 400.055498 156.630216 
L 400.108392 190.450604 
L 400.161236 162.344629 
L 400.214031 184.806456 
L 400.266775 174.280412 
L 400.372116 153.172339 
L 400.424712 164.016218 
L 400.477258 183.96887 
L 400.529755 165.447679 
L 400.582204 159.524325 
L 400.634603 167.444506 
L 400.739254 153.0926 
L 400.84371 191.709132 
L 401.000029 160.248231 
L 401.155913 173.412393 
L 401.207778 166.291868 
L 401.259595 216.065825 
L 401.311365 182.903062 
L 401.363086 167.53831 
L 401.41476 187.859042 
L 401.466386 159.388592 
L 401.517964 175.88509 
L 401.569495 184.533475 
L 401.620978 166.086805 
L 401.672415 166.310418 
L 401.723804 170.18648 
L 401.775146 201.872144 
L 401.826441 175.264364 
L 401.877689 166.413849 
L 401.92889 169.045872 
L 401.980044 180.076133 
L 402.082212 182.598807 
L 402.133227 158.03288 
L 402.235117 248.132307 
L 402.336821 164.783299 
L 402.387604 167.322006 
L 402.438341 217.403517 
L 402.590277 153.797434 
L 402.741802 177.391268 
L 402.792219 154.946298 
L 402.842591 194.703249 
L 402.892918 155.60016 
L 402.993436 185.200992 
L 403.193931 159.088617 
L 403.243943 171.803245 
L 403.343833 169.338333 
L 403.443545 182.783269 
L 403.493335 179.509481 
L 403.592781 162.038828 
L 403.692052 180.990141 
L 403.741621 178.908952 
L 403.791146 150.815808 
L 403.890066 156.323053 
L 404.038118 190.444905 
L 404.087382 175.592836 
L 404.284005 154.863659 
L 404.382058 156.389562 
L 404.43102 174.624781 
L 404.47994 171.439464 
L 404.528816 157.945266 
L 404.577651 175.031753 
L 404.626442 163.854713 
L 404.675191 184.267636 
L 404.723898 182.413856 
L 404.772562 153.509998 
L 404.821184 169.091588 
L 404.869764 172.408073 
L 404.918302 167.424967 
L 405.015252 184.200589 
L 405.112034 146.032935 
L 405.160362 162.624733 
L 405.208649 174.617927 
L 405.256894 172.196092 
L 405.353259 162.949197 
L 405.40138 163.017352 
L 405.497497 182.387604 
L 405.641365 154.242273 
L 405.689238 162.577895 
L 405.737071 147.455782 
L 405.784863 160.923304 
L 405.880325 165.015007 
L 405.927995 154.147624 
L 405.975625 160.01297 
L 406.023214 162.301257 
L 406.070762 151.039135 
L 406.11827 186.382732 
L 406.165738 174.690833 
L 406.260553 158.836291 
L 406.355208 209.050087 
L 406.402476 178.606651 
L 406.449703 144.417339 
L 406.496891 180.10413 
L 406.544039 211.190675 
L 406.685246 157.12831 
L 406.872969 196.16253 
L 406.919801 157.114318 
L 407.013349 166.538784 
L 407.060065 163.14368 
L 407.106741 149.455976 
L 407.153379 166.795236 
L 407.246537 160.726241 
L 407.432391 197.183931 
L 407.478758 156.56069 
L 407.571377 171.654916 
L 407.61763 170.535734 
L 407.663844 224.778011 
L 407.71002 179.318309 
L 407.756158 167.09163 
L 407.84832 171.786556 
L 407.894344 165.459462 
L 407.94033 168.607471 
L 407.986279 174.835722 
L 408.03219 170.010803 
L 408.078063 170.865354 
L 408.123899 159.615889 
L 408.169697 167.017774 
L 408.215458 183.165058 
L 408.261181 165.768836 
L 408.398128 161.141543 
L 408.443703 175.943895 
L 408.48924 163.749691 
L 408.534741 168.661285 
L 408.580204 165.612384 
L 408.625631 164.280136 
L 408.76169 172.320956 
L 408.80697 156.980045 
L 408.852213 190.037899 
L 408.94259 178.499694 
L 409.032821 183.482792 
L 409.077882 163.038103 
L 409.122907 164.227923 
L 409.167895 208.528293 
L 409.212848 145.372867 
L 409.257764 177.543372 
L 409.347489 175.185301 
L 409.392298 166.383193 
L 409.481807 186.806981 
L 409.526509 186.061964 
L 409.704958 155.236137 
L 409.749481 156.773789 
L 409.838422 188.653612 
L 409.88284 163.81334 
L 409.927222 171.37017 
L 409.97157 169.493295 
L 410.060159 157.36653 
L 410.148608 213.497491 
L 410.19278 170.361113 
L 410.236918 155.961749 
L 410.281021 177.442542 
L 410.413121 158.74561 
L 410.457085 163.068858 
L 410.54491 189.115559 
L 410.632597 156.959993 
L 410.676389 173.025877 
L 410.763871 164.012717 
L 410.807561 158.131452 
L 410.851216 223.025478 
L 410.894838 168.361258 
L 410.981979 165.185481 
L 411.025499 198.472556 
L 411.199242 162.038957 
L 411.242593 183.266347 
L 411.285911 178.964997 
L 411.329195 152.422994 
L 411.415664 162.029403 
L 411.458848 162.836793 
L 411.545117 161.894671 
L 411.588201 176.276246 
L 411.674271 157.617163 
L 411.760209 204.896658 
L 411.803128 174.564318 
L 411.888868 154.162956 
L 411.974477 155.721176 
L 412.017233 172.256668 
L 412.059956 158.699901 
L 412.102646 157.199009 
L 412.187929 181.189561 
L 412.230522 169.679192 
L 412.273083 146.997522 
L 412.315611 187.201546 
L 412.358107 164.636394 
L 412.40057 149.421346 
L 412.443002 166.235463 
L 412.485401 169.483959 
L 412.527769 185.235835 
L 412.570104 153.426933 
L 412.612407 196.388007 
L 412.654678 206.914863 
L 412.696918 161.356383 
L 412.739125 211.057051 
L 412.781301 180.676082 
L 412.865558 169.027048 
L 412.907638 213.556422 
L 412.949687 160.602237 
L 413.075646 213.090936 
L 413.117569 151.547043 
L 413.201321 182.644263 
L 413.24315 190.452829 
L 413.368451 151.035107 
L 413.451829 176.56834 
L 413.535083 166.899348 
L 413.618213 172.20208 
L 413.659732 157.729428 
L 413.70122 168.905714 
L 413.742678 215.965115 
L 413.784105 164.187574 
L 413.825501 192.963292 
L 413.949506 154.906057 
L 414.032024 175.212178 
L 414.073237 165.237612 
L 414.11442 147.735684 
L 414.196696 188.278192 
L 414.237788 160.069411 
L 414.319883 199.416264 
L 414.360885 153.353725 
L 414.442799 185.440672 
L 414.565446 153.045389 
L 414.647062 190.710969 
L 414.728559 190.53316 
L 414.769263 152.439303 
L 414.850582 170.927168 
L 414.891197 176.134985 
L 414.97234 154.977073 
L 415.012867 162.391631 
L 415.093834 159.684305 
L 415.134273 177.844368 
L 415.174683 152.564248 
L 415.215064 145.891261 
L 415.336033 176.320626 
L 415.376298 162.18945 
L 415.416534 194.262885 
L 415.456741 191.177279 
L 415.496919 155.899494 
L 415.57719 172.450045 
L 415.617281 165.809135 
L 415.737385 220.659356 
L 415.817312 163.523323 
L 415.897124 166.258343 
L 415.936987 148.465134 
L 415.976823 151.19767 
L 416.056408 180.433055 
L 416.096158 149.852988 
L 416.175575 171.518623 
L 416.21524 173.987454 
L 416.294488 161.935052 
L 416.33407 199.721461 
L 416.413149 162.142544 
L 416.452647 171.104361 
L 416.492117 194.282771 
L 416.53156 161.774685 
L 416.570974 164.006827 
L 416.689052 181.839153 
L 416.806881 162.483281 
L 416.846102 180.200783 
L 416.885296 161.607339 
L 416.924462 154.971159 
L 417.002713 159.580422 
L 417.041797 162.147379 
L 417.080854 206.052017 
L 417.119884 155.313611 
L 417.197862 161.789337 
L 417.236811 182.060862 
L 417.275732 170.553647 
L 417.392334 154.423448 
L 417.431148 175.888379 
L 417.508694 158.140064 
L 417.547427 156.953939 
L 417.702091 206.193779 
L 417.817809 156.395636 
L 417.971729 186.122189 
L 418.010143 158.188157 
L 418.048531 188.80801 
L 418.086892 166.004975 
L 418.125227 169.993637 
L 418.163536 155.9277 
L 418.201819 165.011952 
L 418.240075 170.506435 
L 418.278305 167.09605 
L 418.31651 157.48447 
L 418.354688 166.726685 
L 418.39284 175.054393 
L 418.430966 163.375469 
L 418.469067 165.529988 
L 418.507141 187.373253 
L 418.545189 147.415241 
L 418.583212 144.824783 
L 418.735045 176.41563 
L 418.84865 195.096609 
L 418.810807 172.955087 
L 418.886467 187.919398 
L 418.924259 156.949538 
L 418.999766 171.707811 
L 419.037481 190.75484 
L 419.075171 162.892991 
L 419.112836 148.636138 
L 419.150475 163.967483 
L 419.188089 189.977031 
L 419.225678 167.699266 
L 419.263241 158.797156 
L 419.300779 172.841693 
L 419.338293 172.737691 
L 419.488094 152.308494 
L 419.525482 199.52892 
L 419.600183 164.903914 
L 419.637496 172.374291 
L 419.674785 155.965002 
L 419.749287 165.248308 
L 419.786501 165.090808 
L 419.860854 191.095892 
L 419.897994 181.843148 
L 419.93511 147.296186 
L 420.009266 162.638543 
L 420.157286 195.902002 
L 420.19423 189.81246 
L 420.231149 160.072855 
L 420.304915 161.815454 
L 420.341762 160.99925 
L 420.415382 152.263715 
L 420.452156 200.98696 
L 420.525632 153.202066 
L 420.599011 160.6137 
L 420.672294 186.088414 
L 420.7089 159.785837 
L 420.782039 162.089264 
L 420.818573 166.413262 
L 420.855084 159.464227 
L 420.89157 161.420017 
L 420.928033 158.473675 
L 420.964471 183.897383 
L 421.000887 144.886377 
L 421.037278 161.79698 
L 421.073646 158.259977 
L 421.10999 205.931973 
L 421.182608 156.292018 
L 421.255132 178.93228 
L 421.327562 165.873231 
L 421.363742 166.652872 
L 421.399898 139.229924 
L 421.472141 157.543683 
L 421.580332 198.045722 
L 421.724261 157.457335 
L 421.760185 149.562796 
L 421.796087 160.081813 
L 421.903653 179.260772 
L 421.939463 153.8493 
L 421.97525 180.947413 
L 422.011013 187.815096 
L 422.118168 146.108438 
L 422.153841 165.533464 
L 422.189491 189.643199 
L 422.225118 147.263586 
L 422.260723 173.144281 
L 422.402916 148.814086 
L 422.438408 179.362492 
L 422.509324 154.804997 
L 422.544748 145.19772 
L 422.58015 154.979206 
L 422.61553 185.570079 
L 422.686222 178.87328 
L 422.82734 155.335565 
L 422.862564 194.186431 
L 422.932945 184.310706 
L 422.968103 157.759433 
L 423.038352 163.699116 
L 423.14356 163.336519 
L 423.178586 180.332109 
L 423.248571 149.05471 
L 423.283531 198.396125 
L 423.353385 167.51064 
L 423.38828 172.774219 
L 423.423153 172.063199 
L 423.458004 166.493475 
L 423.492834 169.90546 
L 423.562427 195.409042 
L 423.597192 155.879009 
L 423.631935 209.880299 
L 423.666657 215.692423 
L 423.805328 151.634181 
L 423.839942 215.87239 
L 423.909106 182.336205 
L 423.943656 157.145807 
L 424.012692 181.344958 
L 424.116087 147.481957 
L 424.253651 194.348667 
L 424.287989 151.505961 
L 424.356602 174.196125 
L 424.493577 150.774473 
L 424.596088 202.862464 
L 424.664325 159.808905 
L 424.698412 178.95943 
L 424.732479 178.779444 
L 424.80055 158.103314 
L 424.834554 170.227591 
L 424.868538 178.51449 
L 424.902501 158.947294 
L 424.970366 173.234757 
L 425.004268 176.89957 
L 425.038149 161.19559 
L 425.105849 165.806422 
L 425.139669 169.167215 
L 425.173468 233.330638 
L 425.241005 171.797849 
L 425.308461 154.726235 
L 425.375836 182.28972 
L 425.409493 154.582342 
L 425.577475 182.913255 
L 425.611011 152.787707 
L 425.678023 170.899618 
L 425.744954 190.656452 
L 425.77839 155.897921 
L 425.845202 157.370579 
L 425.945271 183.420644 
L 426.011884 179.493356 
L 426.111655 167.839751 
L 426.178071 171.803462 
L 426.211249 172.696043 
L 426.244408 157.093222 
L 426.277547 176.173351 
L 426.310666 192.324804 
L 426.343766 164.586392 
L 426.376846 173.989713 
L 426.442948 162.876394 
L 426.541955 159.492974 
L 426.574918 183.825044 
L 426.607863 181.503022 
L 426.673692 152.835969 
L 426.706578 164.345942 
L 426.870719 184.588645 
L 426.936241 187.196686 
L 427.001686 147.725674 
L 427.03438 170.078831 
L 427.132348 164.963152 
L 427.197564 178.441982 
L 427.295247 157.347666 
L 427.425225 193.301036 
L 427.490102 147.050571 
L 427.554903 165.3048 
L 427.587276 168.312085 
L 427.61963 189.988467 
L 427.651965 159.797977 
L 427.684281 163.641023 
L 427.748858 179.128158 
L 427.781119 172.951086 
L 427.813361 163.215941 
L 427.845585 175.834097 
L 427.87779 182.072828 
L 427.909976 172.978951 
L 427.942144 174.362917 
L 428.006425 159.924334 
L 428.070632 165.912925 
L 428.102707 167.093629 
L 428.134765 177.215192 
L 428.198825 166.982101 
L 428.230827 144.396314 
L 428.262811 207.626033 
L 428.326725 168.613832 
L 428.390566 179.131166 
L 428.422459 155.005769 
L 428.51803 174.067927 
L 428.54985 162.585008 
L 428.676952 147.304879 
L 428.708682 187.181257 
L 428.803766 178.954942 
L 428.961881 155.707565 
L 429.025002 183.054281 
L 429.088052 181.890588 
L 429.151031 153.914016 
L 429.213939 170.219266 
L 429.245367 163.14007 
L 429.276777 170.079295 
L 429.370901 192.83683 
L 429.433563 160.347294 
L 429.464868 185.218948 
L 429.496155 201.787982 
L 429.527425 170.9944 
L 429.589912 153.013543 
L 429.621129 190.911728 
L 429.683511 157.775314 
L 429.714677 155.475516 
L 429.808069 195.613195 
L 429.839165 173.07361 
L 429.901305 142.796914 
L 429.932349 187.690447 
L 430.025379 162.19318 
L 430.056354 149.940704 
L 430.087313 163.688302 
L 430.149178 182.14535 
L 430.180086 174.840915 
L 430.241849 143.637586 
L 430.334366 153.113217 
L 430.457485 182.513194 
L 430.549647 154.599265 
L 430.580334 174.088243 
L 430.611004 173.152839 
L 430.672294 150.327913 
L 430.702914 185.182686 
L 430.733517 205.451852 
L 430.764103 157.73526 
L 430.794673 161.72742 
L 430.825226 185.778361 
L 430.886282 156.605198 
L 430.916785 168.309766 
L 430.947272 149.606051 
L 431.008195 161.594232 
L 431.069052 193.445102 
L 431.099455 151.221094 
L 431.190567 162.845218 
L 431.220905 158.651036 
L 431.281532 159.999661 
L 431.31182 162.191088 
L 431.402587 193.70041 
L 431.432811 154.719608 
L 431.463017 199.214085 
L 431.523382 170.321768 
L 431.55354 166.679959 
L 431.583682 202.866283 
L 431.643917 177.1308 
L 431.734148 156.776488 
L 431.764193 205.174772 
L 431.824234 170.61685 
L 431.884211 162.985742 
L 431.914175 150.408243 
L 431.944123 175.665337 
L 432.003972 203.06683 
L 432.033872 149.633073 
L 432.123478 157.966696 
L 432.153314 197.425855 
L 432.21294 176.339118 
L 432.242729 161.32147 
L 432.272502 216.249906 
L 432.332001 166.519703 
L 432.361726 170.566268 
L 432.391436 158.887177 
L 432.450809 172.919225 
L 432.510119 174.622725 
L 432.53975 150.860476 
L 432.569366 182.748801 
L 432.658119 163.788974 
L 432.687672 162.224408 
L 432.746731 156.560443 
L 432.835204 192.320631 
L 432.923537 144.442221 
L 432.894108 197.646767 
L 432.95295 180.596306 
L 433.01173 198.391121 
L 433.041098 158.203337 
L 433.099786 149.082576 
L 433.187702 200.716431 
L 433.304711 155.027984 
L 433.392306 167.588771 
L 433.450628 156.61496 
L 433.567088 183.811485 
L 433.537996 152.604678 
L 433.596165 174.51893 
L 433.654275 150.340162 
L 433.712324 163.649913 
L 433.741326 186.252608 
L 433.828242 167.859133 
L 433.857184 153.050257 
L 433.886111 201.104485 
L 433.94392 183.940767 
L 433.972803 153.42147 
L 434.05936 170.495931 
L 434.116991 168.327935 
L 434.145784 205.439132 
L 434.174563 142.842402 
L 434.203326 208.744973 
L 434.232075 200.876313 
L 434.260809 198.0722 
L 434.346923 151.130174 
L 434.404259 154.4666 
L 434.461536 161.904744 
L 434.490153 156.296656 
L 434.518755 188.026144 
L 434.604473 170.140896 
L 434.661546 148.028531 
L 434.69006 174.741347 
L 434.747046 157.350464 
L 434.803974 182.668615 
L 434.860843 165.655947 
L 434.889257 164.210376 
L 434.917656 189.565505 
L 434.97441 161.574141 
L 435.002766 179.507153 
L 435.031107 150.80039 
L 435.116045 157.155742 
L 435.144329 150.322419 
L 435.172599 162.350401 
L 435.200855 201.447807 
L 435.257323 145.682967 
L 435.454515 197.996145 
L 435.482629 156.610096 
L 435.566885 167.629843 
L 435.594942 174.389852 
L 435.622986 143.362859 
L 435.707031 152.974125 
L 435.735018 154.791604 
L 435.735018 154.791604 
" style="fill:none;stroke:#1f77b4;stroke-linecap:square;stroke-width:1.5;"/>
   </g>
   <g id="patch_3">
    <path d="M 48.953125 246.196875 
L 48.953125 14.599219 
" style="fill:none;stroke:#000000;stroke-linecap:square;stroke-linejoin:miter;stroke-width:0.8;"/>
   </g>
   <g id="patch_4">
    <path d="M 435.707031 246.196875 
L 435.707031 14.599219 
" style="fill:none;stroke:#000000;stroke-linecap:square;stroke-linejoin:miter;stroke-width:0.8;"/>
   </g>
   <g id="patch_5">
    <path d="M 48.953125 246.196875 
L 435.707031 246.196875 
" style="fill:none;stroke:#000000;stroke-linecap:square;stroke-linejoin:miter;stroke-width:0.8;"/>
   </g>
   <g id="patch_6">
    <path d="M 48.953125 14.599219 
L 435.707031 14.599219 
" style="fill:none;stroke:#000000;stroke-linecap:square;stroke-linejoin:miter;stroke-width:0.8;"/>
   </g>
  </g>
  <g id="patch_7">
   <path d="M 242.330078 199.877344 
C 298.742662 199.877344 352.852328 196.216955 392.742048 189.702336 
C 432.631769 183.187717 455.044727 174.350758 455.044727 165.137695 
C 455.044727 155.924633 432.631769 147.087673 392.742048 140.573054 
C 352.852328 134.058435 298.742662 130.398047 242.330078 130.398047 
C 185.917494 130.398047 131.807829 134.058435 91.918108 140.573054 
C 52.028387 147.087673 29.61543 155.924633 29.61543 165.137695 
C 29.61543 174.350758 52.028387 183.187717 91.918108 189.702336 
C 131.807829 196.216955 185.917494 199.877344 242.330078 199.877344 
z
" style="fill:none;stroke:#ff0000;stroke-linejoin:miter;stroke-width:2;"/>
  </g>
 </g>
 <defs>
  <clipPath id="pac55830248">
   <rect height="231.597656" width="386.753906" x="48.953125" y="14.599219"/>
  </clipPath>
 </defs>
</svg>
