<?xml version="1.0" encoding="UTF-8" standalone="no"?>
<?xml-stylesheet type="text/css" href="https://fonts.googleapis.com/css?family=Open+Sans" ?>
<svg xmlns="http://www.w3.org/2000/svg"
     xmlns:xlink="http://www.w3.org/1999/xlink"
     width="600px" height="300px" viewBox="0 0 600 300">
<title>gl2ps_renderer figure</title>
<desc>
Creator: GL2PS 1.4.0, (C) 1999-2017 C. Geuzaine
For: Octave
</desc>
<defs>
</defs>
<polygon fill="#ffffff" points="0,0 600,0 600,300 0,300"/>
<g>
<polygon fill="#fefefe" points="0,300 600,300 600,0 0,0" shape-rendering="crispEdges"/>
<clipPath id="cp00600300">
  <polygon points="0,300 600,300 600,0 0,0"/>
</clipPath>
<g clip-path="url(#cp00600300)">
<polygon fill="#ffffff" shape-rendering="crispEdges" points="60,250 560,250 60,5"/>
<polygon fill="#ffffff" shape-rendering="crispEdges" points="560,250 560,5 60,5"/>
<polyline fill="none" stroke="#262626" stroke-width="0.5" stroke-linecap="butt" stroke-linejoin="miter" points="60,250 60,245"/>
<polyline fill="none" stroke="#262626" stroke-width="0.5" stroke-linecap="butt" stroke-linejoin="miter" points="60,5 60,10"/>
<polyline fill="none" stroke="#262626" stroke-width="0.5" stroke-linecap="butt" stroke-linejoin="miter" points="176.495,250 176.495,245"/>
<polyline fill="none" stroke="#262626" stroke-width="0.5" stroke-linecap="butt" stroke-linejoin="miter" points="176.495,5 176.495,10"/>
<polyline fill="none" stroke="#262626" stroke-width="0.5" stroke-linecap="butt" stroke-linejoin="miter" points="343.162,250 343.162,245"/>
<polyline fill="none" stroke="#262626" stroke-width="0.5" stroke-linecap="butt" stroke-linejoin="miter" points="343.162,5 343.162,10"/>
<polyline fill="none" stroke="#262626" stroke-width="0.5" stroke-linecap="butt" stroke-linejoin="miter" points="509.828,250 509.828,245"/>
<polyline fill="none" stroke="#262626" stroke-width="0.5" stroke-linecap="butt" stroke-linejoin="miter" points="509.828,5 509.828,10"/>
<polyline fill="none" stroke="#262626" stroke-width="0.5" stroke-linecap="butt" stroke-linejoin="miter" points="560,250 560,245"/>
<polyline fill="none" stroke="#262626" stroke-width="0.5" stroke-linecap="butt" stroke-linejoin="miter" points="560,5 560,10"/>
<text fill="#262626" x="60" y="255" font-size="10" text-anchor="middle" dy="10" font-family="Open Sans">20</text>
<text fill="#262626" x="176.495" y="255" font-size="10" text-anchor="middle" dy="10" font-family="Open Sans">100</text>
<text fill="#262626" x="343.162" y="255" font-size="10" text-anchor="middle" dy="10" font-family="Open Sans">1000</text>
<text fill="#262626" x="509.828" y="255" font-size="10" text-anchor="middle" dy="10" font-family="Open Sans">10000</text>
<text fill="#262626" x="560" y="255" font-size="10" text-anchor="middle" dy="10" font-family="Open Sans">20000</text>
<polyline fill="none" stroke="#262626" stroke-width="0.5" stroke-linecap="butt" stroke-linejoin="miter" points="60,250 65,250"/>
<polyline fill="none" stroke="#262626" stroke-width="0.5" stroke-linecap="butt" stroke-linejoin="miter" points="560,250 555,250"/>
<polyline fill="none" stroke="#262626" stroke-width="0.5" stroke-linecap="butt" stroke-linejoin="miter" points="60,188.75 65,188.75"/>
<polyline fill="none" stroke="#262626" stroke-width="0.5" stroke-linecap="butt" stroke-linejoin="miter" points="560,188.75 555,188.75"/>
<polyline fill="none" stroke="#262626" stroke-width="0.5" stroke-linecap="butt" stroke-linejoin="miter" points="60,127.5 65,127.5"/>
<polyline fill="none" stroke="#262626" stroke-width="0.5" stroke-linecap="butt" stroke-linejoin="miter" points="560,127.5 555,127.5"/>
<polyline fill="none" stroke="#262626" stroke-width="0.5" stroke-linecap="butt" stroke-linejoin="miter" points="60,66.25 65,66.25"/>
<polyline fill="none" stroke="#262626" stroke-width="0.5" stroke-linecap="butt" stroke-linejoin="miter" points="560,66.25 555,66.25"/>
<polyline fill="none" stroke="#262626" stroke-width="0.5" stroke-linecap="butt" stroke-linejoin="miter" points="60,5 65,5"/>
<polyline fill="none" stroke="#262626" stroke-width="0.5" stroke-linecap="butt" stroke-linejoin="miter" points="560,5 555,5"/>
<text fill="#262626" x="55" y="250" font-size="10" text-anchor="end" dy="5" font-family="Open Sans">-10</text>
<text fill="#262626" x="55" y="188.75" font-size="10" text-anchor="end" dy="5" font-family="Open Sans">-5</text>
<text fill="#262626" x="55" y="127.5" font-size="10" text-anchor="end" dy="5" font-family="Open Sans">0</text>
<text fill="#262626" x="55" y="66.25" font-size="10" text-anchor="end" dy="5" font-family="Open Sans">5</text>
<text fill="#262626" x="55" y="5" font-size="10" text-anchor="end" dy="5" font-family="Open Sans">10</text>
<polyline fill="none" stroke="#262626" stroke-width="0.5" stroke-linecap="butt" stroke-linejoin="miter" stroke-dasharray="16,0" points="60,250 560,250"/>
<polyline fill="none" stroke="#262626" stroke-width="0.5" stroke-linecap="butt" stroke-linejoin="miter" stroke-dasharray="16,0" points="60,5 560,5"/>
<polyline fill="none" stroke="#262626" stroke-width="0.5" stroke-linecap="butt" stroke-linejoin="miter" stroke-dasharray="16,0" points="60,250 60,5"/>
<polyline fill="none" stroke="#262626" stroke-width="0.5" stroke-linecap="butt" stroke-linejoin="miter" stroke-dasharray="16,0" points="560,250 560,5"/>
<text fill="#262626" x="310" y="268" font-size="10" text-anchor="middle" dy="10" font-family="Open Sans">Frequency (Hz)</text>
<text fill="#262626" x="35" y="127.5" font-size="10" transform="rotate(-90, 35, 127.5)" text-anchor="middle" dy="0" font-family="Open Sans">Gain (dB)</text>
<polyline fill="none" stroke="#0071bc" stroke-width="0.5" stroke-linecap="butt" stroke-linejoin="miter" points="59.5,127.491 67.9487,127.49 97.2972,127.478 118.12,127.46 134.272,127.438 147.469,127.41 158.627,127.377 168.292,127.339 176.817,127.295 184.444,127.246 191.342,127.192 197.641,127.131 203.434,127.065 208.798,126.992 213.792,126.914 218.464,126.828 222.852,126.736 226.989,126.637 230.903,126.531 234.615,126.418 238.147,126.296 241.514,126.166 244.732,126.028 247.812,125.881 250.767,125.724 253.606,125.558 256.338,125.381 258.97,125.193 261.51,124.994 263.964,124.783 266.337,124.559 268.635,124.322 270.863,124.071 273.023,123.805 275.122,123.523 277.161,123.224 279.144,122.908 281.074,122.573 282.954,122.218 284.787,121.842 286.574,121.444 288.319,121.022 290.022,120.574 291.686,120.1 293.312,119.598 294.903,119.065 296.46,118.5 297.984,117.901 299.476,117.265 300.939,116.591 302.372,115.875 303.778,115.116 305.156,114.311 306.509,113.457 307.837,112.55 309.142,111.588 310.423,110.568 311.682,109.485 312.919,108.338 314.136,107.122 315.332,105.834 316.509,104.471 317.667,103.029 318.807,101.506 319.929,99.898 321.034,98.2034 322.123,96.4203 323.195,94.5477 324.252,92.5856 325.293,90.535 326.32,88.3987 327.332,86.1811 328.331,83.8885 329.316,81.5302 330.287,79.118 331.246,76.6671 332.192,74.196 333.126,71.7274 334.048,69.2874 334.959,66.9061 335.858,64.6169 336.746,62.4557 337.623,60.4599 338.49,58.6667 339.347,57.1117 340.193,55.8264 341.03,54.8363 341.857,54.1596 342.675,53.8052 343.484,53.773 344.284,54.0531 345.075,54.6277 345.858,55.4719 346.632,56.5558 347.398,57.8466 348.156,59.3102 348.906,60.913 349.648,62.623 350.383,64.411 351.11,66.2507 351.831,68.119 352.544,69.9966 353.25,71.8669 353.949,73.7166 354.642,75.5349 355.328,77.3136 356.008,79.0461 356.681,80.7279 357.348,82.3557 358.009,83.9275 358.664,85.4421 359.313,86.8992 359.957,88.2992 360.594,89.6428 361.227,90.9312 361.853,92.1657 362.475,93.3481 363.091,94.4801 363.702,95.5635 364.307,96.6002 364.908,97.5922 365.504,98.5414 366.095,99.4498 366.681,100.319 367.262,101.151 367.839,101.948 368.411,102.71 368.979,103.441 369.542,104.141 370.101,104.812 370.656,105.455 371.206,106.072 371.752,106.664 372.294,107.232 372.833,107.778 373.367,108.302 373.897,108.805 374.424,109.289 374.946,109.755 375.465,110.202 375.98,110.633 376.492,111.048 377,111.448 377.504,111.833 378.005,112.204 378.503,112.562 378.997,112.907 379.487,113.24 379.975,113.562 380.459,113.872 380.94,114.172 381.418,114.462 381.892,114.743 382.364,115.014 382.832,115.276 383.298,115.53 383.76,115.776 384.22,116.014 384.677,116.244 385.13,116.468 385.581,116.685 386.029,116.895 386.475,117.099 386.918,117.296 387.358,117.488 387.795,117.675 388.23,117.856 388.662,118.031 389.091,118.202 389.518,118.368 389.943,118.53 390.365,118.687 390.785,118.84 391.202,118.988 391.617,119.133 392.029,119.274 392.439,119.411 392.847,119.545 393.253,119.675 393.656,119.802 394.057,119.925 394.456,120.046 394.852,120.164 395.247,120.278 395.639,120.39 396.029,120.499 396.417,120.606 396.803,120.71 397.187,120.811 397.569,120.911 397.949,121.008 398.327,121.102 398.703,121.195 399.077,121.285 399.449,121.374 399.82,121.46 400.188,121.545 400.555,121.627 400.919,121.708 401.282,121.787 401.643,121.865 402.002,121.941 402.36,122.015 402.715,122.087 403.069,122.159 403.422,122.228 403.772,122.297 404.121,122.364 404.468,122.429 404.814,122.493 405.157,122.556 405.5,122.618 405.84,122.679 406.179,122.738 406.517,122.796 406.853,122.853 407.187,122.909 407.52,122.964 407.851,123.018 408.181,123.071 408.509,123.123 408.836,123.174 409.161,123.224 409.485,123.273 409.807,123.322 410.128,123.369 410.448,123.416 410.766,123.461 411.083,123.506 411.398,123.55 411.712,123.594 412.025,123.636 412.336,123.678 412.646,123.72 412.955,123.76 413.262,123.8 413.568,123.839 413.873,123.878 414.177,123.916 414.479,123.953 414.78,123.99 415.08,124.026 415.378,124.061 415.675,124.096 415.971,124.131 416.266,124.164 416.56,124.198 416.852,124.231 417.144,124.263 417.434,124.295 417.723,124.326 418.01,124.357 418.297,124.387 418.583,124.417 418.867,124.447 419.15,124.476 419.433,124.504 419.714,124.532 419.994,124.56 420.273,124.587 420.55,124.614 420.827,124.641 421.103,124.667 421.378,124.693 421.651,124.719 421.924,124.744 422.196,124.768 422.466,124.793 422.736,124.817 423.004,124.841 423.272,124.864 423.539,124.887 423.804,124.91 424.069,124.932 424.332,124.954 424.595,124.976 424.857,124.998 425.118,125.019 425.378,125.04 425.637,125.061 425.895,125.081 426.152,125.101 426.408,125.121 426.663,125.141 426.918,125.16 427.171,125.18 427.424,125.199 427.676,125.217 427.927,125.236 428.177,125.254 428.426,125.272 428.674,125.29 428.922,125.307 429.168,125.325 429.414,125.342 429.659,125.359 429.903,125.375 430.146,125.392 430.389,125.408 430.631,125.424 430.871,125.44 431.112,125.456 431.351,125.471 431.589,125.487 431.827,125.502 432.064,125.517 432.3,125.532 432.535,125.546 432.77,125.561 433.004,125.575 433.237,125.589 433.469,125.603 433.701,125.617 433.932,125.631 434.162,125.644 434.392,125.658 434.62,125.671 434.848,125.684 435.075,125.697 435.302,125.71 435.528,125.723 435.753,125.735 435.977,125.747 436.201,125.76 436.424,125.772 436.647,125.784 436.868,125.796 437.089,125.807 437.31,125.819 437.529,125.831 437.748,125.842 437.967,125.853 438.184,125.864 438.401,125.875 438.618,125.886 438.834,125.897 439.049,125.908 439.263,125.918 439.477,125.929 439.69,125.939 439.903,125.949 440.115,125.959 440.326,125.969 440.537,125.979 440.747,125.989 440.956,125.999 441.165,126.009 441.374,126.018 441.581,126.028 441.788,126.037 441.995,126.046 442.201,126.055 442.406,126.064 442.611,126.073 442.815,126.082 443.019,126.091 443.222,126.1 443.424,126.109 443.626,126.117 443.827,126.126 444.028,126.134 444.228,126.142 444.428,126.151 444.627,126.159 444.826,126.167 445.024,126.175 445.221,126.183 445.418,126.191 445.615,126.199 445.811,126.206 446.006,126.214 446.201,126.222 446.395,126.229 446.589,126.237 446.782,126.244 446.975,126.251 447.167,126.259 447.359,126.266 447.55,126.273 447.741,126.28 447.931,126.287 448.121,126.294 448.31,126.301 448.499,126.308 448.687,126.315 448.875,126.321 449.062,126.328 449.249,126.334 449.435,126.341 449.621,126.347 449.806,126.354 449.991,126.36 450.176,126.367 450.36,126.373 450.543,126.379 450.726,126.385 450.909,126.391 451.091,126.397 451.273,126.403 451.454,126.409 451.634,126.415 451.815,126.421 451.995,126.427 452.174,126.433 452.353,126.438 452.531,126.444 452.709,126.45 452.887,126.455 453.064,126.461 453.241,126.466 453.417,126.472 453.593,126.477 453.769,126.482 453.944,126.488 454.118,126.493 454.293,126.498 454.466,126.503 454.64,126.509 454.813,126.514 454.985,126.519 455.157,126.524 455.329,126.529 455.5,126.534 455.671,126.539 455.842,126.543 456.012,126.548 456.182,126.553 456.351,126.558 456.52,126.562 456.688,126.567 456.857,126.572 457.024,126.576 457.192,126.581 457.359,126.586 457.525,126.59 457.691,126.595 457.857,126.599 458.023,126.603 458.188,126.608 458.352,126.612 458.517,126.616 458.681,126.621 458.844,126.625 459.008,126.629 459.17,126.633 459.333,126.637 459.495,126.642 459.657,126.646 459.818,126.65 459.979,126.654 460.14,126.658 460.3,126.662 460.46,126.666 460.62,126.67 460.779,126.673 460.938,126.677 461.096,126.681 461.255,126.685 461.412,126.689 461.57,126.693 461.727,126.696 461.884,126.7 462.041,126.704 462.197,126.707 462.352,126.711 462.508,126.715 462.663,126.718 462.818,126.722 462.973,126.725 463.127,126.729 463.281,126.732 463.434,126.736 463.587,126.739 463.74,126.742 463.893,126.746 464.045,126.749 464.197,126.752 464.348,126.756 464.5,126.759 464.651,126.762 464.801,126.766 464.952,126.769 465.102,126.772 465.251,126.775 465.401,126.778 465.55,126.782 465.698,126.785 465.847,126.788 465.995,126.791 466.143,126.794 466.291,126.797 466.438,126.8 466.585,126.803 466.731,126.806 466.878,126.809 467.024,126.812 467.17,126.815 467.315,126.818 467.46,126.82 467.605,126.823 467.75,126.826 467.894,126.829 468.038,126.832 468.182,126.835 468.326,126.837 468.469,126.84 468.612,126.843 468.754,126.846 468.897,126.848 469.039,126.851 469.181,126.854 469.322,126.856 469.463,126.859 469.604,126.862 469.745,126.864 469.885,126.867 470.025,126.869 470.165,126.872 470.305,126.874 470.444,126.877 470.583,126.88 470.722,126.882 470.861,126.884 470.999,126.887 471.137,126.889 471.275,126.892 471.412,126.894 471.549,126.897 471.686,126.899 471.823,126.901 471.959,126.904 472.096,126.906 472.232,126.908 472.367,126.911 472.503,126.913 472.638,126.915 472.773,126.918 472.907,126.92 473.042,126.922 473.176,126.924 473.31,126.927 473.444,126.929 473.577,126.931 473.71,126.933 473.843,126.935 473.976,126.938 474.108,126.94 474.24,126.942 474.372,126.944 474.504,126.946 474.636,126.948 474.767,126.95 474.898,126.952 475.029,126.954 475.159,126.956 475.289,126.959 475.42,126.961 475.549,126.963 475.679,126.965 475.808,126.967 475.938,126.969 476.066,126.971 476.195,126.972 476.324,126.974 476.452,126.976 476.58,126.978 476.708,126.98 476.835,126.982 476.962,126.984 477.09,126.986 477.216,126.988 477.343,126.99 477.469,126.992 477.596,126.993 477.722,126.995 477.847,126.997 477.973,126.999 478.098,127.001 478.223,127.002 478.348,127.004 478.473,127.006 478.598,127.008 478.722,127.009 478.846,127.011 478.97,127.013 479.093,127.015 479.217,127.016 479.34,127.018 479.463,127.02 479.586,127.022 479.708,127.023 479.831,127.025 479.953,127.027 480.075,127.028 480.197,127.03 480.318,127.031 480.439,127.033 480.561,127.035 480.681,127.036 480.802,127.038 480.923,127.04 481.043,127.041 481.163,127.043 481.283,127.044 481.403,127.046 481.522,127.047 481.642,127.049 481.761,127.05 481.88,127.052 481.999,127.054 482.117,127.055 482.236,127.057 482.354,127.058 482.472,127.06 482.59,127.061 482.707,127.062 482.825,127.064 482.942,127.065 483.059,127.067 483.176,127.068 483.292,127.07 483.409,127.071 483.525,127.073 483.641,127.074 483.757,127.075 483.873,127.077 483.988,127.078 484.104,127.08 484.219,127.081 484.334,127.082 484.449,127.084 484.563,127.085 484.678,127.086 484.792,127.088 484.906,127.089 485.02,127.09 485.134,127.092 485.247,127.093 485.36,127.094 485.474,127.096 485.587,127.097 485.699,127.098 485.812,127.1 485.925,127.101 486.037,127.102 486.149,127.103 486.261,127.105 486.373,127.106 486.484,127.107 486.596,127.109 486.707,127.11 486.818,127.111 486.929,127.112 487.04,127.113 487.151,127.115 487.261,127.116 487.371,127.117 487.481,127.118 487.591,127.119 487.701,127.121 487.811,127.122 487.92,127.123 488.029,127.124 488.138,127.125 488.247,127.126 488.356,127.128 488.465,127.129 488.573,127.13 488.681,127.131 488.79,127.132 488.897,127.133 489.005,127.134 489.113,127.136 489.22,127.137 489.328,127.138 489.435,127.139 489.542,127.14 489.649,127.141 489.755,127.142 489.862,127.143 489.968,127.144 490.074,127.145 490.18,127.146 490.286,127.148 490.392,127.149 490.498,127.15 490.603,127.151 490.708,127.152 490.814,127.153 490.919,127.154 491.023,127.155 491.128,127.156 491.233,127.157 491.337,127.158 491.441,127.159 491.545,127.16 491.649,127.161 491.753,127.162 491.857,127.163 491.96,127.164 492.063,127.165 492.167,127.166 492.27,127.167 492.372,127.168 492.475,127.169 492.578,127.17 492.68,127.171 492.783,127.172 492.885,127.173 492.987,127.174 493.089,127.175 493.19,127.175 493.292,127.176 493.393,127.177 493.495,127.178 493.596,127.179 493.697,127.18 493.798,127.181 493.898,127.182 493.999,127.183 494.1,127.184 494.2,127.185 494.3,127.186 494.4,127.186 494.5,127.187 494.6,127.188 494.699,127.189 494.799,127.19 494.898,127.191 494.997,127.192 495.097,127.193 495.195,127.193 495.294,127.194 495.393,127.195 495.492,127.196 495.59,127.197 495.688,127.198 495.786,127.199 495.884,127.199 495.982,127.2 496.08,127.201 496.178,127.202 496.275,127.203 496.373,127.203 496.47,127.204 496.567,127.205 496.664,127.206 496.761,127.207 496.857,127.208 496.954,127.208 497.05,127.209 497.147,127.21 497.243,127.211 497.339,127.211 497.435,127.212 497.531,127.213 497.626,127.214 497.722,127.215 497.817,127.215 497.913,127.216 498.008,127.217 498.103,127.218 498.198,127.218 498.293,127.219 498.387,127.22 498.482,127.221 498.576,127.221 498.671,127.222 498.765,127.223 498.859,127.224 498.953,127.224 499.047,127.225 499.14,127.226 499.234,127.227 499.327,127.227 499.421,127.228 499.514,127.229 499.607,127.229 499.7,127.23 499.793,127.231 499.885,127.232 499.978,127.232 500.071,127.233 500.163,127.234 500.255,127.234 500.347,127.235 500.439,127.236 500.531,127.236 500.623,127.237 500.715,127.238 500.806,127.238 500.898,127.239 500.989,127.24 501.08,127.24 501.172,127.241 501.263,127.242 501.353,127.242 501.444,127.243 501.535,127.244 501.625,127.244 501.716,127.245 501.806,127.246 501.896,127.246 501.986,127.247 502.076,127.248 502.166,127.248 502.256,127.249 502.346,127.25 502.435,127.25 502.525,127.251 502.614,127.251 502.703,127.252 502.792,127.253 502.881,127.253 502.97,127.254 503.059,127.255 503.147,127.255 503.236,127.256 503.324,127.256 503.413,127.257 503.501,127.258 503.589,127.258 503.677,127.259 503.765,127.259 503.853,127.26 503.94,127.261 504.028,127.261 504.115,127.262 504.203,127.262 504.29,127.263 504.377,127.263 504.464,127.264 504.551,127.265 504.638,127.265 504.725,127.266 504.811,127.266 504.898,127.267 504.984,127.267 505.071,127.268 505.157,127.269 505.243,127.269 505.329,127.27 505.415,127.27 505.501,127.271 505.586,127.271 505.672,127.272 505.758,127.272 505.843,127.273 505.928,127.274 506.013,127.274 506.099,127.275 506.184,127.275 506.269,127.276 506.353,127.276 506.438,127.277 506.523,127.277 506.607,127.278 506.692,127.278 506.776,127.279 506.86,127.279 506.944,127.28 507.028,127.28 507.112,127.281 507.196,127.282 507.28,127.282 507.363,127.283 507.447,127.283 507.53,127.284 507.614,127.284 507.697,127.285 507.78,127.285 507.863,127.286 507.946,127.286 508.029,127.287 508.112,127.287 508.194,127.288 508.277,127.288 508.359,127.289 508.442,127.289 508.524,127.29 508.606,127.29 508.688,127.29 508.77,127.291 508.852,127.291 508.934,127.292 509.016,127.292 509.098,127.293 509.179,127.293 509.261,127.294 509.342,127.294 509.423,127.295 509.504,127.295 509.586,127.296 509.667,127.296 509.748,127.297 509.828,127.297 509.909,127.298 509.99,127.298 510.07,127.298 510.151,127.299 510.231,127.299 510.311,127.3 510.392,127.3 510.472,127.301 510.552,127.301 510.632,127.302 510.712,127.302 510.791,127.303 510.871,127.303 510.951,127.303 511.03,127.304 511.109,127.304 511.189,127.305 511.268,127.305 511.347,127.306 511.426,127.306 511.505,127.306 511.584,127.307 511.663,127.307 511.742,127.308 511.82,127.308 511.899,127.309 511.977,127.309 512.056,127.309 512.134,127.31 512.212,127.31 512.29,127.311 512.368,127.311 512.446,127.311 512.524,127.312 512.602,127.312 512.68,127.313 512.757,127.313 512.835,127.314 512.912,127.314 512.99,127.314 513.067,127.315 513.144,127.315 513.221,127.316 513.298,127.316 513.375,127.316 513.452,127.317 513.529,127.317 513.606,127.318 513.682,127.318 513.759,127.318 513.835,127.319 513.912,127.319 513.988,127.319 514.064,127.32 514.141,127.32 514.217,127.321 514.292,127.321 514.368,127.321 514.444,127.322 514.52,127.322 514.596,127.323 514.671,127.323 514.747,127.323 514.822,127.324 514.898,127.324 514.973,127.324 515.048,127.325 515.123,127.325 515.198,127.325 515.273,127.326 515.348,127.326 515.423,127.327 515.498,127.327 515.572,127.327 515.647,127.328 515.721,127.328 515.796,127.328 515.87,127.329 515.944,127.329 516.019,127.329 516.093,127.33 516.167,127.33 516.241,127.331 516.315,127.331 516.389,127.331 516.462,127.332 516.536,127.332 516.61,127.332 516.683,127.333 516.756,127.333 516.83,127.333 516.903,127.334 516.976,127.334 517.05,127.334 517.123,127.335 517.196,127.335 517.268,127.335 517.341,127.336 517.414,127.336 517.487,127.336 517.56,127.337 517.632,127.337 517.705,127.337 517.777,127.338 517.849,127.338 517.922,127.338 517.994,127.339 518.066,127.339 518.138,127.339 518.21,127.34 518.282,127.34 518.354,127.34 518.426,127.341 518.497,127.341 518.569,127.341 518.64,127.342 518.712,127.342 518.783,127.342 518.855,127.342 518.926,127.343 518.997,127.343 519.068,127.343 519.139,127.344 519.21,127.344 519.281,127.344 519.352,127.345 519.423,127.345 519.494,127.345 519.564,127.346 519.635,127.346 519.705,127.346 519.776,127.346 519.846,127.347 519.917,127.347 519.987,127.347 520.057,127.348 520.127,127.348 520.197,127.348 520.267,127.349 520.337,127.349 520.407,127.349 520.477,127.349 520.546,127.35 520.616,127.35 520.685,127.35 520.755,127.351 520.824,127.351 520.894,127.351 520.963,127.352 521.032,127.352 521.102,127.352 521.171,127.352 521.24,127.353 521.309,127.353 521.378,127.353 521.446,127.354 521.515,127.354 521.584,127.354 521.652,127.354 521.721,127.355 521.789,127.355 521.858,127.355 521.926,127.355 521.995,127.356 522.063,127.356 522.131,127.356 522.199,127.357 522.267,127.357 522.335,127.357 522.403,127.357 522.471,127.358 522.539,127.358 522.607,127.358 522.674,127.358 522.742,127.359 522.809,127.359 522.877,127.359 522.944,127.359 523.012,127.36 523.079,127.36 523.146,127.36 523.214,127.361 523.281,127.361 523.348,127.361 523.415,127.361 523.482,127.362 523.548,127.362 523.615,127.362 523.682,127.362 523.749,127.363 523.815,127.363 523.882,127.363 523.948,127.363 524.015,127.364 524.081,127.364 524.147,127.364 524.214,127.364 524.28,127.365 524.346,127.365 524.412,127.365 524.478,127.365 524.544,127.366 524.61,127.366 524.676,127.366 524.742,127.366 524.807,127.367 524.873,127.367 524.939,127.367 525.004,127.367 525.07,127.368 525.135,127.368 525.2,127.368 525.266,127.368 525.331,127.369 525.396,127.369 525.461,127.369 525.526,127.369 525.591,127.37 525.656,127.37 525.721,127.37 525.786,127.37 525.851,127.37 525.915,127.371 525.98,127.371 526.045,127.371 526.109,127.371 526.174,127.372 526.238,127.372 526.302,127.372 526.367,127.372 526.431,127.373 526.495,127.373 526.559,127.373 526.623,127.373 526.688,127.373 526.751,127.374 526.815,127.374 526.879,127.374 526.943,127.374 527.007,127.375 527.07,127.375 527.134,127.375 527.198,127.375 527.261,127.375 527.325,127.376 527.388,127.376 527.451,127.376 527.515,127.376 527.578,127.377 527.641,127.377 527.704,127.377 527.767,127.377 527.83,127.377 527.893,127.378 527.956,127.378 528.019,127.378 528.082,127.378 528.145,127.379 528.207,127.379 528.27,127.379 528.333,127.379 528.395,127.379 528.458,127.38 528.52,127.38 528.582,127.38 528.645,127.38 528.707,127.38 528.769,127.381 528.831,127.381 528.893,127.381 528.956,127.381 529.017,127.381 529.079,127.382 529.141,127.382 529.203,127.382 529.265,127.382 529.327,127.382 529.388,127.383 529.45,127.383 529.512,127.383 529.573,127.383 529.635,127.383 529.696,127.384 529.757,127.384 529.819,127.384 529.88,127.384 529.941,127.384 530.002,127.385 530.063,127.385 530.124,127.385 530.185,127.385 530.246,127.385 530.307,127.386 530.368,127.386 530.429,127.386 530.49,127.386 530.55,127.386 530.611,127.387 530.672,127.387 530.732,127.387 530.793,127.387 530.853,127.387 530.914,127.388 530.974,127.388 531.034,127.388 531.094,127.388 531.155,127.388 531.215,127.388 531.275,127.389 531.335,127.389 531.395,127.389 531.455,127.389 531.515,127.389 531.575,127.39 531.634,127.39 531.694,127.39 531.754,127.39 531.813,127.39 531.873,127.391 531.933,127.391 531.992,127.391 532.052,127.391 532.111,127.391 532.17,127.391 532.23,127.392 532.289,127.392 532.348,127.392 532.407,127.392 532.466,127.392 532.525,127.392 532.584,127.393 532.643,127.393 532.702,127.393 532.761,127.393 532.82,127.393 532.879,127.394 532.938,127.394 532.996,127.394 533.055,127.394 533.113,127.394 533.172,127.394 533.231,127.395 533.289,127.395 533.347,127.395 533.406,127.395 533.464,127.395 533.522,127.395 533.58,127.396 533.639,127.396 533.697,127.396 533.755,127.396 533.813,127.396 533.871,127.396 533.929,127.397 533.987,127.397 534.044,127.397 534.102,127.397 534.16,127.397 534.218,127.397 534.275,127.398 534.333,127.398 534.39,127.398 534.448,127.398 534.505,127.398 534.563,127.398 534.62,127.399 534.678,127.399 534.735,127.399 534.792,127.399 534.849,127.399 534.906,127.399 534.964,127.4 535.021,127.4 535.078,127.4 535.135,127.4 535.192,127.4 535.248,127.4 535.305,127.4 535.362,127.401 535.419,127.401 535.475,127.401 535.532,127.401 535.589,127.401 535.645,127.401 535.702,127.402 535.758,127.402 535.815,127.402 535.871,127.402 535.928,127.402 535.984,127.402 536.04,127.403 536.096,127.403 536.152,127.403 536.209,127.403 536.265,127.403 536.321,127.403 536.377,127.403 536.433,127.404 536.489,127.404 536.544,127.404 536.6,127.404 536.656,127.404 536.712,127.404 536.768,127.404 536.823,127.405 536.879,127.405 536.934,127.405 536.99,127.405 537.045,127.405 537.101,127.405 537.156,127.406 537.212,127.406 537.267,127.406 537.322,127.406 537.377,127.406 537.433,127.406 537.488,127.406 537.543,127.407 537.598,127.407 537.653,127.407 537.708,127.407 537.763,127.407 537.818,127.407 537.873,127.407 537.927,127.408 537.982,127.408 538.037,127.408 538.092,127.408 538.146,127.408 538.201,127.408 538.255,127.408 538.31,127.408 538.365,127.409 538.419,127.409 538.473,127.409 538.528,127.409 538.582,127.409 538.636,127.409 538.691,127.409 538.745,127.41 538.799,127.41 538.853,127.41 538.907,127.41 538.961,127.41 539.015,127.41 539.069,127.41 539.123,127.411 539.177,127.411 539.231,127.411 539.285,127.411 539.338,127.411 539.392,127.411 539.446,127.411 539.499,127.411 539.553,127.412 539.606,127.412 539.66,127.412 539.713,127.412 539.767,127.412 539.82,127.412 539.874,127.412 539.927,127.413 539.98,127.413 540.034,127.413 540.087,127.413 540.14,127.413 540.193,127.413 540.246,127.413 540.299,127.413 540.352,127.414 540.405,127.414 540.458,127.414 540.511,127.414 540.564,127.414 540.617,127.414 540.669,127.414 540.722,127.414 540.775,127.415 540.827,127.415 540.88,127.415 540.933,127.415 540.985,127.415 541.038,127.415 541.09,127.415 541.143,127.415 541.195,127.416 541.247,127.416 541.3,127.416 541.352,127.416 541.404,127.416 541.456,127.416 541.509,127.416 541.561,127.416 541.613,127.417 541.665,127.417 541.717,127.417 541.769,127.417 541.821,127.417 541.873,127.417 541.925,127.417 541.976,127.417 542.028,127.417 542.08,127.418 542.132,127.418 542.183,127.418 542.235,127.418 542.287,127.418 542.338,127.418 542.39,127.418 542.441,127.418 542.493,127.419 542.544,127.419 542.596,127.419 542.647,127.419 542.698,127.419 542.749,127.419 542.801,127.419 542.852,127.419 542.903,127.419 542.954,127.42 543.005,127.42 543.056,127.42 543.107,127.42 543.158,127.42 543.209,127.42 543.26,127.42 543.311,127.42 543.362,127.42 543.413,127.421 543.464,127.421 543.514,127.421 543.565,127.421 543.616,127.421 543.666,127.421 543.717,127.421 543.768,127.421 543.818,127.421 543.869,127.422 543.919,127.422 543.969,127.422 544.02,127.422 544.07,127.422 544.12,127.422 544.171,127.422 544.221,127.422 544.271,127.422 544.321,127.423 544.372,127.423 544.422,127.423 544.472,127.423 544.522,127.423 544.572,127.423 544.622,127.423 544.672,127.423 544.722,127.423 544.771,127.424 544.821,127.424 544.871,127.424 544.921,127.424 544.971,127.424 545.02,127.424 545.07,127.424 545.12,127.424 545.169,127.424 545.219,127.424 545.268,127.425 545.318,127.425 545.367,127.425 545.417,127.425 545.466,127.425 545.515,127.425 545.565,127.425 545.614,127.425 545.663,127.425 545.713,127.426 545.762,127.426 545.811,127.426 545.86,127.426 545.909,127.426 545.958,127.426 546.007,127.426 546.056,127.426 546.105,127.426 546.154,127.426 546.203,127.427 546.252,127.427 546.301,127.427 546.349,127.427 546.398,127.427 546.447,127.427 546.495,127.427 546.544,127.427 546.593,127.427 546.641,127.427 546.69,127.428 546.738,127.428 546.787,127.428 546.835,127.428 546.884,127.428 546.932,127.428 546.981,127.428 547.029,127.428 547.077,127.428 547.125,127.428 547.174,127.428 547.222,127.429 547.27,127.429 547.318,127.429 547.366,127.429 547.414,127.429 547.463,127.429 547.511,127.429 547.559,127.429 547.607,127.429 547.654,127.429 547.702,127.43 547.75,127.43 547.798,127.43 547.846,127.43 547.894,127.43 547.941,127.43 547.989,127.43 548.037,127.43 548.084,127.43 548.132,127.43 548.18,127.43 548.227,127.431 548.275,127.431 548.322,127.431 548.369,127.431 548.417,127.431 548.464,127.431 548.512,127.431 548.559,127.431 548.606,127.431 548.653,127.431 548.701,127.431 548.748,127.432 548.795,127.432 548.842,127.432 548.889,127.432 548.936,127.432 548.983,127.432 549.031,127.432 549.077,127.432 549.124,127.432 549.171,127.432 549.218,127.432 549.265,127.433 549.312,127.433 549.359,127.433 549.406,127.433 549.452,127.433 549.499,127.433 549.546,127.433 549.592,127.433 549.639,127.433 549.685,127.433 549.732,127.433 549.779,127.433 549.825,127.434 549.872,127.434 549.918,127.434 549.964,127.434 550.011,127.434 550.057,127.434 550.104,127.434 550.15,127.434 550.196,127.434 550.242,127.434 550.289,127.434 550.335,127.434 550.381,127.435 550.427,127.435 550.473,127.435 550.519,127.435 550.565,127.435 550.611,127.435 550.657,127.435 550.703,127.435 550.749,127.435 550.795,127.435 550.841,127.435 550.886,127.436 550.932,127.436 550.978,127.436 551.024,127.436 551.07,127.436 551.115,127.436 551.161,127.436 551.207,127.436 551.252,127.436 551.298,127.436 551.343,127.436 551.389,127.436 551.434,127.436 551.48,127.437 551.525,127.437 551.57,127.437 551.616,127.437 551.661,127.437 551.707,127.437 551.752,127.437 551.797,127.437 551.842,127.437 551.887,127.437 551.933,127.437 551.978,127.437 552.023,127.438 552.068,127.438 552.113,127.438 552.158,127.438 552.203,127.438 552.248,127.438 552.293,127.438 552.338,127.438 552.383,127.438 552.428,127.438 552.472,127.438 552.517,127.438 552.562,127.438 552.607,127.439 552.651,127.439 552.696,127.439 552.741,127.439 552.785,127.439 552.83,127.439 552.875,127.439 552.919,127.439 552.964,127.439 553.008,127.439 553.053,127.439 553.097,127.439 553.142,127.439 553.186,127.439 553.23,127.44 553.275,127.44 553.319,127.44 553.363,127.44 553.408,127.44 553.452,127.44 553.496,127.44 553.54,127.44 553.584,127.44 553.628,127.44 553.673,127.44 553.717,127.44 553.761,127.44 553.805,127.441 553.849,127.441 553.893,127.441 553.937,127.441 553.98,127.441 554.024,127.441 554.068,127.441 554.112,127.441 554.156,127.441 554.2,127.441 554.243,127.441 554.287,127.441 554.331,127.441 554.374,127.441 554.418,127.442 554.462,127.442 554.505,127.442 554.549,127.442 554.592,127.442 554.636,127.442 554.679,127.442 554.723,127.442 554.766,127.442 554.81,127.442 554.853,127.442 554.896,127.442 554.94,127.442 554.983,127.442 555.026,127.443 555.07,127.443 555.113,127.443 555.156,127.443 555.199,127.443 555.242,127.443 555.286,127.443 555.329,127.443 555.372,127.443 555.415,127.443 555.458,127.443 555.501,127.443 555.544,127.443 555.587,127.443 555.63,127.443 555.672,127.444 555.715,127.444 555.758,127.444 555.801,127.444 555.844,127.444 555.887,127.444 555.929,127.444 555.972,127.444 556.015,127.444 556.057,127.444 556.1,127.444 556.143,127.444 556.185,127.444 556.228,127.444 556.27,127.444 556.313,127.445 556.355,127.445 556.398,127.445 556.44,127.445 556.483,127.445 556.525,127.445 556.567,127.445 556.61,127.445 556.652,127.445 556.694,127.445 556.737,127.445 556.779,127.445 556.821,127.445 556.863,127.445 556.905,127.445 556.948,127.445 556.99,127.446 557.032,127.446 557.074,127.446 557.116,127.446 557.158,127.446 557.2,127.446 557.242,127.446 557.284,127.446 557.326,127.446 557.368,127.446 557.41,127.446 557.451,127.446 557.493,127.446 557.535,127.446 557.577,127.446 557.619,127.446 557.66,127.447 557.702,127.447 557.744,127.447 557.785,127.447 557.827,127.447 557.869,127.447 557.91,127.447 557.952,127.447 557.993,127.447 558.035,127.447 558.076,127.447 558.118,127.447 558.159,127.447 558.201,127.447 558.242,127.447 558.283,127.447 558.325,127.448 558.366,127.448 558.407,127.448 558.449,127.448 558.49,127.448 558.531,127.448 558.572,127.448 558.614,127.448 558.655,127.448 558.696,127.448 558.737,127.448 558.778,127.448 558.819,127.448 558.86,127.448 558.901,127.448 558.942,127.448 558.983,127.448 559.024,127.449 559.065,127.449 559.106,127.449 559.147,127.449 559.188,127.449 559.228,127.449 559.269,127.449 559.31,127.449 559.351,127.449 559.392,127.449 559.432,127.449 559.473,127.449 559.514,127.449 559.554,127.449 559.595,127.449 559.636,127.449 559.676,127.449 559.717,127.45 559.757,127.45 559.798,127.45 559.838,127.45 559.879,127.45 559.919,127.45 559.96,127.45 560,127.45"/>
</g>
<clipPath id="cp00600300">
  <polygon points="0,300 600,300 600,0 0,0"/>
</clipPath>
<g clip-path="url(#cp00600300)">
</g>
</g>
</svg>
