<?xml version="1.0" encoding="UTF-8" standalone="no"?>
<?xml-stylesheet type="text/css" href="https://fonts.googleapis.com/css?family=Open+Sans:300italic,400italic,600italic,700italic,400,600,700,300&amp;subset=latin,cyrillic-ext,latin-ext,cyrillic" ?>
<svg xmlns="http://www.w3.org/2000/svg"
     xmlns:xlink="http://www.w3.org/1999/xlink"
     width="600px" height="300px" viewBox="0 0 600 300">
<title>gl2ps_renderer figure</title>
<desc>
Creator: GL2PS 1.4.0, (C) 1999-2017 C. Geuzaine
For: Octave
</desc>
<defs>
</defs>
<polygon fill="#ffffff" points="0,0 600,0 600,300 0,300"/>
<g>
<polygon fill="#fefefe" points="0,300 600,300 600,0 0,0" shape-rendering="crispEdges"/>
<clipPath id="cp00600300">
  <polygon points="0,300 600,300 600,0 0,0"/>
</clipPath>
<g clip-path="url(#cp00600300)">
<polygon fill="#ffffff" shape-rendering="crispEdges" points="60,250 560,250 60,5.00003"/>
<polygon fill="#ffffff" shape-rendering="crispEdges" points="560,250 560,5.00003 60,5.00003"/>
<polyline fill="none" stroke="#262626" stroke-width="0.5" stroke-linecap="butt" stroke-linejoin="miter" points="60,250 60,245"/>
<polyline fill="none" stroke="#262626" stroke-width="0.5" stroke-linecap="butt" stroke-linejoin="miter" points="60,5.00003 60,10.0001"/>
<polyline fill="none" stroke="#262626" stroke-width="0.5" stroke-linecap="butt" stroke-linejoin="miter" points="176.495,250 176.495,245"/>
<polyline fill="none" stroke="#262626" stroke-width="0.5" stroke-linecap="butt" stroke-linejoin="miter" points="176.495,5.00003 176.495,10.0001"/>
<polyline fill="none" stroke="#262626" stroke-width="0.5" stroke-linecap="butt" stroke-linejoin="miter" points="343.162,250 343.162,245"/>
<polyline fill="none" stroke="#262626" stroke-width="0.5" stroke-linecap="butt" stroke-linejoin="miter" points="343.162,5.00003 343.162,10.0001"/>
<polyline fill="none" stroke="#262626" stroke-width="0.5" stroke-linecap="butt" stroke-linejoin="miter" points="509.828,250 509.828,245"/>
<polyline fill="none" stroke="#262626" stroke-width="0.5" stroke-linecap="butt" stroke-linejoin="miter" points="509.828,5.00003 509.828,10.0001"/>
<polyline fill="none" stroke="#262626" stroke-width="0.5" stroke-linecap="butt" stroke-linejoin="miter" points="560,250 560,245"/>
<polyline fill="none" stroke="#262626" stroke-width="0.5" stroke-linecap="butt" stroke-linejoin="miter" points="560,5.00003 560,10.0001"/>
<text fill="#262626" x="60" y="255" font-size="10" text-anchor="middle" dy="10" font-family="Open Sans">20</text>
<text fill="#262626" x="176.495" y="255" font-size="10" text-anchor="middle" dy="10" font-family="Open Sans">100</text>
<text fill="#262626" x="343.162" y="255" font-size="10" text-anchor="middle" dy="10" font-family="Open Sans">1000</text>
<text fill="#262626" x="509.828" y="255" font-size="10" text-anchor="middle" dy="10" font-family="Open Sans">10000</text>
<text fill="#262626" x="560" y="255" font-size="10" text-anchor="middle" dy="10" font-family="Open Sans">20000</text>
<polyline fill="none" stroke="#262626" stroke-width="0.5" stroke-linecap="butt" stroke-linejoin="miter" stroke-dasharray="16,0" points="60,250 560,250"/>
<polyline fill="none" stroke="#262626" stroke-width="0.5" stroke-linecap="butt" stroke-linejoin="miter" stroke-dasharray="16,0" points="60,5.00003 560,5.00003"/>
<polyline fill="none" stroke="#262626" stroke-width="0.5" stroke-linecap="butt" stroke-linejoin="miter" stroke-dasharray="16,0" points="60,250 60,5.00003"/>
<polyline fill="none" stroke="#262626" stroke-width="0.5" stroke-linecap="butt" stroke-linejoin="miter" stroke-dasharray="16,0" points="560,250 560,5.00003"/>
<text fill="#262626" x="310" y="268" font-size="10" text-anchor="middle" dy="10" font-family="Open Sans">Frequency (Hz)</text>
<text fill="#262626" x="51" y="127.5" font-size="10" transform="rotate(-90, 51, 127.5)" text-anchor="middle" dy="0" font-family="Open Sans">Amplitude</text>
<polyline fill="none" stroke="#0071bc" stroke-width="0.5" stroke-linecap="butt" stroke-linejoin="miter" points="243.347,250.245 243.697,191.1 244.06,146.332 244.421,113.136 244.78,88.8887 245.138,72.1526 245.493,62.1249 245.847,58.4041 246.199,60.8943 246.55,69.7875 246.899,85.6149 247.246,109.398 247.591,143.011 247.935,190.082 248.235,250.245"/>
<polyline fill="none" stroke="#0071bc" stroke-width="0.5" stroke-linecap="butt" stroke-linejoin="miter" points="294.789,250.245 294.952,211.775 295.131,181.308 295.309,159.772 295.487,145.466 295.665,137.405 295.842,135.051 296.019,138.202 296.195,146.962 296.371,161.795 296.547,183.683 296.722,214.496 296.865,250.245"/>
<polyline fill="none" stroke="#0071bc" stroke-width="0.5" stroke-linecap="butt" stroke-linejoin="miter" points="325.034,250.245 325.132,220.315 325.25,195.006 325.367,178.38 325.485,169.381 325.602,167.547 325.72,172.856 325.837,185.724 325.954,207.134 326.07,239.017 326.098,250.245"/>
</g>
</g>
</svg>
