<?xml version="1.0" encoding="UTF-8" standalone="no"?>
<?xml-stylesheet type="text/css" href="https://fonts.googleapis.com/css?family=Open+Sans:300italic,400italic,600italic,700italic,400,600,700,300&amp;subset=latin,cyrillic-ext,latin-ext,cyrillic" ?>
<svg xmlns="http://www.w3.org/2000/svg"
     xmlns:xlink="http://www.w3.org/1999/xlink"
     width="600px" height="180px" viewBox="0 0 600 180">
<title>gl2ps_renderer figure</title>
<desc>
Creator: GL2PS 1.4.0, (C) 1999-2017 C. Geuzaine
For: Octave
</desc>
<defs>
</defs>
<polygon fill="#ffffff" points="0,0 600,0 600,180 0,180"/>
<g>
<polygon fill="#fefefe" points="0,180 600,180 600,0 0,0" shape-rendering="crispEdges"/>
<clipPath id="cp00600180">
  <polygon points="0,180 600,180 600,0 0,0"/>
</clipPath>
<g clip-path="url(#cp00600180)">
<polygon fill="#ffffff" shape-rendering="crispEdges" points="60,130 560,130 60,5"/>
<polygon fill="#ffffff" shape-rendering="crispEdges" points="560,130 560,5 60,5"/>
<polyline fill="none" stroke="#262626" stroke-width="0.5" stroke-linecap="butt" stroke-linejoin="miter" points="60,130 60,125"/>
<polyline fill="none" stroke="#262626" stroke-width="0.5" stroke-linecap="butt" stroke-linejoin="miter" points="60,5 60,10"/>
<polyline fill="none" stroke="#262626" stroke-width="0.5" stroke-linecap="butt" stroke-linejoin="miter" points="161.754,130 161.754,125"/>
<polyline fill="none" stroke="#262626" stroke-width="0.5" stroke-linecap="butt" stroke-linejoin="miter" points="161.754,5 161.754,10"/>
<polyline fill="none" stroke="#262626" stroke-width="0.5" stroke-linecap="butt" stroke-linejoin="miter" points="263.507,130 263.507,125"/>
<polyline fill="none" stroke="#262626" stroke-width="0.5" stroke-linecap="butt" stroke-linejoin="miter" points="263.507,5 263.507,10"/>
<polyline fill="none" stroke="#262626" stroke-width="0.5" stroke-linecap="butt" stroke-linejoin="miter" points="365.261,130 365.261,125"/>
<polyline fill="none" stroke="#262626" stroke-width="0.5" stroke-linecap="butt" stroke-linejoin="miter" points="365.261,5 365.261,10"/>
<polyline fill="none" stroke="#262626" stroke-width="0.5" stroke-linecap="butt" stroke-linejoin="miter" points="467.014,130 467.014,125"/>
<polyline fill="none" stroke="#262626" stroke-width="0.5" stroke-linecap="butt" stroke-linejoin="miter" points="467.014,5 467.014,10"/>
<text fill="#262626" x="60" y="135" font-size="10" text-anchor="middle" dy="10" font-family="Open Sans">0</text>
<text fill="#262626" x="161.754" y="135" font-size="10" text-anchor="middle" dy="10" font-family="Open Sans">20</text>
<text fill="#262626" x="263.507" y="135" font-size="10" text-anchor="middle" dy="10" font-family="Open Sans">40</text>
<text fill="#262626" x="365.261" y="135" font-size="10" text-anchor="middle" dy="10" font-family="Open Sans">60</text>
<text fill="#262626" x="467.014" y="135" font-size="10" text-anchor="middle" dy="10" font-family="Open Sans">80</text>
<polyline fill="none" stroke="#262626" stroke-width="0.5" stroke-linecap="butt" stroke-linejoin="miter" stroke-dasharray="16,0" points="60,130 560,130"/>
<polyline fill="none" stroke="#262626" stroke-width="0.5" stroke-linecap="butt" stroke-linejoin="miter" stroke-dasharray="16,0" points="60,5 560,5"/>
<polyline fill="none" stroke="#262626" stroke-width="0.5" stroke-linecap="butt" stroke-linejoin="miter" stroke-dasharray="16,0" points="60,130 60,5"/>
<polyline fill="none" stroke="#262626" stroke-width="0.5" stroke-linecap="butt" stroke-linejoin="miter" stroke-dasharray="16,0" points="560,130 560,5"/>
<text fill="#262626" x="310" y="148" font-size="10" text-anchor="middle" dy="10" font-family="Open Sans">Time (milliseconds)</text>
<text fill="#262626" x="51" y="67.5" font-size="10" transform="rotate(-90, 51, 67.5)" text-anchor="middle" dy="0" font-family="Open Sans">Amplitude</text>
<polyline fill="none" stroke="#0071bc" stroke-width="0.5" stroke-linecap="butt" stroke-linejoin="miter" points="60,90.8955 60.1154,90.6781 60.2307,89.7454 60.3461,88.5323 60.4614,86.6841 60.5768,84.2351 60.6922,80.8038 60.8075,76.6572 60.9229,71.9613 61.0383,67.1891 61.1537,62.3559 61.269,57.702 61.3844,53.2273 61.4997,49.2467 61.6151,46.1587 61.7305,44.175 61.8459,43.0306 61.9612,42.3478 62.0766,41.7451 62.192,40.8963 62.3073,39.9483 62.4227,38.8898 62.538,37.7129 62.6534,36.5056 62.7688,35.5996 62.8842,35.1533 62.9995,35.4146 63.1149,36.1146 63.2303,37.156 63.3456,38.2813 63.461,39.3208 63.5763,40.2402 63.6917,40.7246 63.8071,41.0699 63.9225,41.2816 64.0378,41.377 64.1532,41.4304 64.2686,41.8004 64.3839,42.2448 64.4993,43.0821 64.6147,43.8527 64.73,44.4535 64.8454,44.8121 64.9608,45.2336 65.0761,45.7085 65.1915,46.0957 65.3069,46.4886 65.4222,46.6832 65.5376,46.8301 65.653,46.7137 65.7683,46.4429 65.8837,46.2235 65.9991,45.9184 66.1144,45.8211 66.2298,45.9145 66.3452,46.4295 66.4605,47.5396 66.5759,48.8614 66.6913,50.5379 66.8066,52.5445 66.922,54.8161 67.0374,57.5494 67.1527,60.7995 67.2681,64.2003 67.3835,67.8815 67.4988,71.7229 67.6142,75.425 67.7296,78.8735 67.8449,81.4637 67.9603,83.3195 68.0757,84.1855 68.191,84.3343 68.3064,83.661 68.4218,82.3754 68.5371,80.5806 68.6525,78.6408 68.7679,76.6381 68.8832,74.7021 68.9986,73.0733 69.114,71.4845 69.2293,70.2199 69.3447,69.2834 69.4601,68.7665 69.5754,68.6597 69.6908,68.8142 69.8062,69.4398 69.9215,70.1302 70.0369,71.0992 70.1523,72.2626 70.2676,73.0065 70.383,73.5329 70.4984,73.8324 70.6137,74.1605 70.7291,74.5095 70.8445,75.2248 70.9598,76.2681 71.0752,77.8283 71.1906,79.7528 71.3059,81.9863 71.4213,84.319 71.5367,86.5678 71.652,88.7173 71.7674,90.4378 71.8828,91.9999 71.9981,93.2778 72.1135,94.3307 72.2289,95.0059 72.3442,95.4942 72.4596,95.8203 72.575,95.9176 72.6903,95.7497 72.8057,95.0402 72.9211,93.8882 73.0364,92.4863 73.1518,90.8307 73.2672,88.95 73.3825,86.8233 73.4979,84.6585 73.6133,82.5585 73.7286,80.5005 73.844,78.5817 73.9594,76.4626 74.0747,74.2711 74.1901,72.131 74.3055,70.3 74.4208,68.6444 74.5362,67.3779 74.6516,66.5807 74.7669,66.2278 74.8823,66.4605 74.9977,66.9907 75.1131,67.7136 75.2284,68.4594 75.3438,69.2357 75.4591,70.3858 75.5745,71.5188 75.6899,73.1114 75.8052,74.931 75.9206,76.9681 76.036,79.0738 76.1514,80.9888 76.2667,82.5452 76.3821,83.455 76.4974,83.6285 76.6128,83.1174 76.7282,82.1713 76.8435,80.8533 76.9589,79.3484 77.0743,77.979 77.1897,76.6248 77.305,75.5948 77.4204,74.5286 77.5357,73.6169 77.6511,72.9722 77.7665,72.4667 77.8818,72.0433 77.9972,71.8049 78.1126,71.9441 78.228,72.3962 78.3433,73.3479 78.4587,75.1694 78.5741,77.5555 78.6894,80.3117 78.8048,83.4931 78.9201,86.9702 79.0355,90.4092 79.1509,93.7184 79.2663,96.547 79.3816,98.6737 79.497,99.7247 79.6124,99.8734 79.7277,99.0304 79.8431,97.1707 79.9584,94.447 80.0738,90.8307 80.1892,87.0065 80.3046,82.8503 80.4199,78.4825 80.5353,74.1757 80.6507,70.115 80.766,66.058 80.8814,61.9496 80.9967,57.9747 81.1121,54.3889 81.2275,50.9938 81.3428,47.8791 81.4582,45.0906 81.5736,42.674 81.6889,40.7418 81.8043,39.2255 81.9197,37.9037 82.035,36.6868 82.1504,35.4356 82.2658,34.3369 82.3811,33.0819 82.4965,31.8383 82.6119,30.3105 82.7272,28.6874 82.8426,27.356 82.958,26.0972 83.0733,24.9909 83.1887,24.0678 83.3041,23.4669 83.4194,23.0569 83.5348,22.992 83.6502,23.1923 83.7655,23.8351 83.8809,24.9203 83.9963,26.3013 84.1117,27.8825 84.227,29.7135 84.3424,31.722 84.4577,33.7247 84.5731,35.6396 84.6885,37.1426 84.8038,38.3767 84.9192,39.3094 85.0346,39.9827 85.15,40.3069 85.2653,40.1696 85.3807,40.0342 85.4961,39.832 85.6114,39.8301 85.7268,39.9693 85.8421,40.4233 85.9575,41.1671 86.0729,42.5195 86.1883,44.0778 86.3036,46.2388 86.419,48.7927 86.5344,51.6213 86.6497,54.2477 86.7651,57.0382 86.8804,59.3861 86.9958,61.2954 87.1112,62.7068 87.2266,63.4717 87.3419,63.7234 87.4573,63.3172 87.5727,62.3578 87.688,60.8815 87.8034,58.957 87.9188,57.0782 88.0341,55.1823 88.1495,53.6507 88.2649,52.5273 88.3802,51.9761 88.4956,52.1363 88.611,52.7543 88.7263,53.7461 88.8417,55.2701 88.9571,56.7082 89.0724,58.0396 89.1878,59.1286 89.3032,59.9335 89.4185,60.481 89.5339,61.1676 89.6493,61.7322 89.7646,62.5886 89.88,63.8093 89.9954,65.0967 90.1107,66.5425 90.2261,67.8719 90.3415,69.1994 90.4568,70.3362 90.5722,71.4349 90.6876,72.297 90.8029,73.2278 90.9183,74.2062 91.0337,75.2896 91.149,76.5599 91.2644,77.6891 91.3798,78.7743 91.4951,79.8386 91.6105,80.5959 91.7259,81.3836 91.8412,81.8776 91.9566,82.076 92.072,82.1332 92.1873,82.1255 92.3027,81.8299 92.4181,81.2959 92.5334,80.6969 92.6488,79.8425 92.7642,78.9212 92.8795,78.0343 92.9949,77.2618 93.1103,76.9528 93.2256,77.1455 93.341,77.5918 93.4564,78.3166 93.5717,78.9746 93.6871,79.6689 93.8025,80.3651 93.9178,80.9678 94.0332,81.4637 94.1486,82.2552 94.2639,83.186 94.3793,84.5746 94.4947,86.2778 94.61,88.5152 94.7254,91.0977 94.8408,93.8042 94.9561,96.5642 95.0715,98.9617 95.1869,101.107 95.3022,102.906 95.4176,104.266 95.533,105.342 95.6483,106.265 95.7637,106.995 95.8791,107.652 95.9944,108.197 96.1098,108.632 96.2252,108.905 96.3405,108.975 96.4559,108.952 96.5713,108.519 96.6866,107.802 96.802,106.929 96.9174,105.893 97.0327,104.8 97.1481,103.845 97.2635,102.889 97.3788,102.038 97.4942,101.26 97.6096,100.877 97.7249,100.768 97.8403,100.976 97.9557,101.298 98.071,101.884 98.1864,102.517 98.3018,103.202 98.4171,103.684 98.5325,103.743 98.6479,103.312 98.7632,102.258 98.8786,100.585 98.994,98.1358 99.1093,94.9353 99.2247,90.9337 99.3401,86.5315 99.4554,81.6335 99.5708,76.6743 99.6862,71.6561 99.8015,66.5978 99.9169,61.8123 100.032,57.3186 100.148,53.3723 100.263,49.7121 100.378,46.4028 100.494,43.3358 100.609,40.4919 100.724,37.9361 100.84,35.3879 100.955,33.1487 101.071,31.0582 101.186,29.1966 101.301,27.5391 101.417,26.2364 101.532,25.2236 101.647,24.3748 101.763,23.3811 101.878,22.2462 101.994,21.2487 102.109,20.4037 102.224,19.473 102.34,18.9828 102.455,18.6299 102.57,18.7615 102.686,19.6255 102.801,21.1991 102.916,23.259 103.032,25.937 103.147,29.2252 103.263,32.8854 103.378,36.6505 103.493,40.8829 103.609,45.1211 103.724,49.4717 103.839,53.7137 103.955,57.6543 104.07,61.221 104.185,64.3338 104.301,66.7981 104.416,68.7188 104.532,69.9567 104.647,70.7291 104.762,70.9924 104.878,70.979 104.993,70.9275 105.108,70.6071 105.224,70.4011 105.339,70.2866 105.455,70.3191 105.57,70.4507 105.685,70.8302 105.801,71.3471 105.916,71.9765 106.031,72.9588 106.147,73.9144 106.262,74.6869 106.377,75.3716 106.493,75.7989 106.608,75.5929 106.724,75.0531 106.839,74.2577 106.954,72.8577 107.07,71.2956 107.185,69.97 107.3,68.652 107.416,67.8433 107.531,67.0632 107.646,66.4681 107.762,66.058 107.877,65.8692 107.993,65.6384 108.108,65.173 108.223,64.6428 108.339,64.042 108.454,63.5575 108.569,63.1646 108.685,62.8613 108.8,62.9147 108.916,62.9777 109.031,63.2199 109.146,63.5022 109.262,63.979 109.377,64.3319 109.492,64.5722 109.608,64.7668 109.723,64.7286 109.838,64.412 109.954,63.897 110.069,63.1493 110.185,62.1308 110.3,61.0398 110.415,60.069 110.531,59.2107 110.646,58.5679 110.761,58.0567 110.877,57.8088 110.992,57.5341 111.107,57.4006 111.223,57.5188 111.338,57.6028 111.454,57.7554 111.569,57.99 111.684,58.4019 111.8,59.0543 111.915,60.0575 112.03,61.3049 112.146,62.6229 112.261,64.0496 112.377,65.6155 112.492,67.088 112.607,68.4785 112.723,69.5027 112.838,70.2237 112.953,70.6338 113.069,70.897 113.184,70.8741 113.299,70.8283 113.415,71.0114 113.53,71.4177 113.646,72.2455 113.761,73.5673 113.876,75.3201 113.992,77.5594 114.107,80.0217 114.222,82.7149 114.338,85.4996 114.453,88.1795 114.568,90.7391 114.684,93.0489 114.799,94.9525 114.915,96.6958 115.03,98.2198 115.145,99.7914 115.261,101.329 115.376,102.769 115.491,104.064 115.607,105.578 115.722,106.841 115.838,107.821 115.953,108.266 116.068,108.155 116.184,107.659 116.299,106.871 116.414,105.83 116.53,104.762 116.645,104.083 116.76,103.852 116.876,104.236 116.991,105.172 117.107,106.669 117.222,108.331 117.337,110.358 117.453,112.237 117.568,114.03 117.683,115.514 117.799,116.769 117.914,117.343 118.03,117.188 118.145,116.212 118.26,114.619 118.376,112.235 118.491,109.296 118.606,105.622 118.722,101.416 118.837,96.9819 118.952,92.0667 119.068,87.0904 119.183,82.2228 119.299,77.2351 119.414,72.4477 119.529,67.9025 119.645,63.5384 119.76,59.3098 119.875,55.5238 119.991,51.9227 120.106,48.6554 120.221,45.7887 120.337,43.2938 120.452,40.8829 120.568,38.6475 120.683,36.4503 120.798,34.0642 120.914,31.619 121.029,29.1222 121.144,26.2097 121.26,23.2724 121.375,20.4247 121.491,17.8479 121.606,15.5515 121.721,13.7738 121.837,12.5092 121.952,11.8626 122.067,11.7978 122.183,12.4406 122.298,13.6193 122.413,15.3703 122.529,17.6228 122.644,20.3255 122.76,23.3239 122.875,26.8678 122.99,30.7301 123.106,34.829 123.221,38.7486 123.336,42.756 123.452,46.5306 123.567,49.8742 123.682,52.4625 123.798,54.4423 123.913,55.5047 124.029,55.827 124.144,55.5428 124.259,54.9134 124.375,54.1352 124.49,53.6507 124.605,53.521 124.721,54.0074 124.836,55.0126 124.952,56.6071 125.067,58.6175 125.182,60.8643 125.298,62.9681 125.413,64.9365 125.528,66.8401 125.644,68.4022 125.759,69.97 125.874,71.412 125.99,72.9455 126.105,74.3035 126.221,75.8351 126.336,76.8613 126.451,77.7901 126.567,78.2021 126.682,78.3128 126.797,78.1335 126.913,77.6566 127.028,76.9128 127.144,76.1861 127.259,75.3583 127.374,74.4771 127.49,73.6855 127.605,72.7853 127.72,71.925 127.836,71.082 127.951,70.4335 128.066,69.9166 128.182,69.537 128.297,69.4417 128.413,69.4894 128.528,69.5752 128.643,69.8289 128.759,69.9776 128.874,69.8155 128.989,69.5027 129.105,68.9706 129.22,68.4537 129.335,67.9711 129.451,67.4275 129.566,66.985 129.682,66.5501 129.797,66.1248 129.912,65.8044 130.028,65.1425 130.143,64.2155 130.258,62.9109 130.374,61.4442 130.489,59.9183 130.604,58.6499 130.72,57.6066 130.835,57.0573 130.951,57.2041 131.066,57.8145 131.181,58.9112 131.297,60.3055 131.412,61.8161 131.527,62.9777 131.643,64.082 131.758,64.7343 131.874,65.2169 131.989,65.2264 132.104,64.9422 132.22,64.2804 132.335,63.5575 132.45,62.9281 132.566,62.3063 132.681,61.7093 132.796,61.3736 132.912,61.0532 133.027,61.0532 133.143,61.1886 133.258,61.406 133.373,61.7799 133.489,62.1518 133.604,62.6591 133.719,63.3687 133.835,64.1469 133.95,65.3809 134.065,66.6493 134.181,68.3907 134.296,70.3381 134.412,72.3275 134.527,74.4962 134.642,76.5065 134.758,78.3681 134.873,79.8558 134.988,81.0727 135.104,81.9005 135.219,82.61 135.335,82.9171 135.45,83.0849 135.565,83.1689 135.681,83.3901 135.796,83.6934 135.911,84.1492 136.027,84.9122 136.142,85.9746 136.257,87.4661 136.373,89.4574 136.488,91.9312 136.604,94.5462 136.719,97.5617 136.834,100.43 136.95,103.005 137.065,105.286 137.18,106.994 137.296,108.01 137.411,108.344 137.527,108.064 137.642,107.076 137.757,105.542 137.873,103.341 137.988,100.669 138.103,97.308 138.219,93.5334 138.334,89.3754 138.449,85.061 138.565,80.5692 138.68,75.9953 138.796,71.4749 138.911,67.1319 139.026,63.1226 139.142,59.6932 139.257,56.5099 139.372,53.6946 139.488,51.2112 139.603,49.0807 139.718,47.1371 139.834,45.5293 139.949,43.9099 140.065,42.3821 140.18,40.881 140.295,39.3933 140.411,37.7492 140.526,36.0993 140.641,34.2988 140.757,32.5478 140.872,30.8656 140.988,29.2348 141.103,27.6707 141.218,26.3909 141.334,25.3743 141.449,24.9013 141.564,24.8994 141.68,25.4639 141.795,26.6198 141.91,28.4413 142.026,30.9342 142.141,34.1328 142.257,37.8064 142.372,41.7718 142.487,45.7219 142.603,49.2448 142.718,52.3652 142.833,54.7093 142.949,56.2848 143.064,57.0477 143.18,57.0573 143.295,56.7807 143.41,56.1932 143.526,55.8671 143.641,55.5543 143.756,55.4208 143.872,55.5276 143.987,55.7221 144.102,56.321 144.218,56.9428 144.333,57.4845 144.449,58.194 144.564,59.1096 144.679,60.1891 144.795,61.3736 144.91,62.745 145.025,64.0096 145.141,65.3485 145.256,66.5635 145.371,67.5648 145.487,68.3545 145.602,68.9515 145.718,69.3864 145.833,69.6954 145.948,70.0787 146.064,70.4926 146.179,70.8875 146.294,71.288 146.41,71.6828 146.525,72.0471 146.641,72.4133 146.756,72.7719 146.871,72.8177 146.987,72.8921 147.102,72.8711 147.217,72.7185 147.333,72.6556 147.448,72.5621 147.563,72.5545 147.679,72.5526 147.794,72.358 147.91,72.3733 148.025,72.3561 148.14,72.522 148.256,72.6861 148.371,72.8844 148.486,73.2831 148.602,73.6798 148.717,74.1586 148.832,74.5629 148.948,74.7975 149.063,74.7346 149.179,74.5438 149.294,73.9735 149.409,73.1572 149.525,72.0776 149.64,71.0114 149.755,69.9147 149.871,69.1327 149.986,68.5452 150.102,68.2019 150.217,68.3125 150.332,68.7054 150.448,69.5294 150.563,70.4831 150.678,71.5379 150.794,72.5011 150.909,73.1763 151.024,73.428 151.14,73.3651 151.255,72.934 151.371,72.3046 151.486,71.3948 151.601,70.5746 151.717,69.5924 151.832,68.7951 151.947,68.1237 152.063,67.2559 152.178,66.2926 152.293,65.2665 152.409,64.2117 152.524,63.0673 152.64,62.0641 152.755,61.1047 152.87,60.4619 152.986,60.0365 153.101,60.2254 153.216,60.7957 153.332,61.6502 153.447,62.9052 153.563,64.4254 153.678,66.1343 153.793,67.9406 153.909,69.8766 154.024,71.824 154.139,73.615 154.255,75.24 154.37,76.5408 154.485,77.5746 154.601,78.1602 154.716,78.3376 154.832,78.3299 154.947,78.0324 155.062,77.7406 155.178,77.7577 155.293,78.2822 155.408,79.2493 155.524,80.8495 155.639,83.0201 155.754,85.637 155.87,88.58 155.985,91.5059 156.101,94.3631 156.216,96.917 156.331,99.2669 156.447,101.277 156.562,102.82 156.677,103.812 156.793,104.443 156.908,104.489 157.024,104.291 157.139,103.679 157.254,102.364 157.37,100.379 157.485,97.8478 157.6,94.7694 157.716,91.1149 157.831,87.0103 157.946,82.7798 158.062,78.534 158.177,74.5515 158.293,70.9714 158.408,67.9406 158.523,65.3065 158.639,63.157 158.754,61.5186 158.869,60.0957 158.985,58.8006 159.1,57.4502 159.215,56.033 159.331,54.5396 159.446,53.1586 159.562,51.5145 159.677,49.9944 159.792,48.5066 159.908,46.9159 160.023,45.1421 160.138,43.3835 160.254,41.3503 160.369,39.1759 160.485,36.8031 160.6,34.7089 160.715,32.7328 160.831,31.3901 160.946,30.7053 161.061,30.7301 161.177,31.6705 161.292,33.2669 161.407,35.5882 161.523,38.2794 161.638,41.1805 161.754,44.1636 161.869,46.7461 161.984,49.0636 162.1,50.9595 162.215,52.3099 162.33,53.5783 162.446,54.1524 162.561,54.511 162.676,54.6769 162.792,54.7971 162.907,54.8619 163.023,55.1366 163.138,55.436 163.253,56.1169 163.369,56.6911 163.484,57.6848 163.599,58.7567 163.715,60.0842 163.83,61.3087 163.946,62.5581 164.061,63.8055 164.176,64.8793 164.292,65.8635 164.407,66.8114 164.522,67.6545 164.638,68.4651 164.753,69.4341 164.868,70.2885 164.984,70.9256 165.099,71.4368 165.215,71.7858 165.33,71.8259 165.445,71.8068 165.561,71.7019 165.676,71.4253 165.791,71.1201 165.907,71.0038 166.022,70.9542 166.137,70.9332 166.253,70.9237 166.368,70.8607 166.484,70.6242 166.599,70.5022 166.714,70.1016 166.83,69.6725 166.945,69.1708 167.06,68.9324 167.176,68.7112 167.291,68.8828 167.407,69.436 167.522,70.3572 167.637,71.6828 167.753,73.1133 167.868,74.7098 167.983,76.2261 168.099,77.5994 168.214,78.4768 168.329,78.7648 168.445,78.6446 168.56,78.0247 168.676,77.0673 168.791,76.1536 168.906,75.118 169.022,74.5152 169.137,74.2883 169.252,74.4828 169.368,75.3373 169.483,76.5427 169.599,77.7921 169.714,79.3809 169.829,80.7542 169.945,81.9482 170.06,82.9514 170.175,83.6762 170.291,84.2198 170.406,84.7386 170.521,85.3356 170.637,85.7896 170.752,86.1977 170.868,86.4991 170.983,86.6879 171.098,86.7509 171.214,86.6059 171.329,86.1615 171.444,85.3165 171.56,84.1836 171.675,82.9839 171.79,81.6144 171.906,80.2258 172.021,79.0128 172.137,77.8054 172.252,76.9662 172.367,76.4054 172.483,76.3539 172.598,76.6782 172.713,77.3515 172.829,78.3852 172.944,79.6841 173.06,81.0422 173.175,82.5566 173.29,84.0024 173.406,84.9904 173.521,85.7285 173.636,86.0223 173.752,85.946 173.867,85.5511 173.982,84.9122 174.098,84.0634 174.213,83.4607 174.329,83.0811 174.444,83.0201 174.559,83.3195 174.675,83.9318 174.79,84.8416 174.905,85.9612 175.021,87.346 175.136,88.7803 175.251,90.3939 175.367,92.1277 175.482,93.8748 175.598,95.7001 175.713,97.4873 175.828,99.1525 175.944,100.6 176.059,101.567 176.174,102.178 176.29,102.054 176.405,101.178 176.521,99.574 176.636,97.2508 176.751,94.3822 176.867,90.8479 176.982,87.2716 177.097,83.701 177.213,80.1553 177.328,76.8632 177.443,73.7542 177.559,70.8703 177.674,68.1256 177.79,65.4286 177.905,62.745 178.02,60.0385 178.136,57.2976 178.251,54.8486 178.366,52.6456 178.482,50.7935 178.597,49.2123 178.712,47.8486 178.828,46.3914 178.943,44.8197 179.059,42.8952 179.174,40.4023 179.289,37.5203 179.405,34.2282 179.52,30.7778 179.635,27.2912 179.751,24.3367 179.866,21.7294 179.982,19.9059 180.097,18.9084 180.212,18.7157 180.328,19.3547 180.443,20.5029 180.558,22.1833 180.674,24.001 180.789,26.1372 180.904,28.4032 181.02,30.4765 181.135,32.5497 181.251,34.3827 181.366,36.0116 181.481,37.4497 181.597,38.6971 181.712,39.7481 181.827,40.4729 181.943,40.9821 182.058,41.2873 182.173,41.6726 182.289,42.1361 182.404,42.6148 182.52,43.3568 182.635,44.1712 182.75,45.1611 182.866,46.46 182.981,47.5911 183.096,48.8652 183.212,50.1431 183.327,51.3657 183.443,52.7486 183.558,54.0704 183.673,55.4379 183.789,56.4736 183.904,57.4445 184.019,58.1521 184.135,58.709 184.25,59.0199 184.365,59.1801 184.481,59.3537 184.596,59.4224 184.712,59.7867 184.827,60.1929 184.942,60.8624 185.058,61.5624 185.173,62.4055 185.288,63.3153 185.404,64.3033 185.519,65.0052 185.634,65.6556 185.75,65.7338 185.865,65.8902 185.981,65.9379 186.096,66.0752 186.211,66.3613 186.327,67.0232 186.442,68.1008 186.557,69.6973 186.673,71.7686 186.788,74.3111 186.904,76.9299 187.019,79.3122 187.134,81.4656 187.25,83.1479 187.365,84.2217 187.48,84.8244 187.596,84.7424 187.711,84.4029 187.826,83.8136 187.942,83.1841 188.057,82.5642 188.173,82.0168 188.288,81.6659 188.403,81.3588 188.519,81.21 188.634,81.0212 188.749,80.8858 188.865,80.8362 188.98,80.7523 189.096,80.7694 189.211,80.9029 189.326,81.0536 189.442,81.3092 189.557,81.5171 189.672,81.6945 189.788,81.8356 189.903,81.9157 190.018,81.9367 190.134,81.7307 190.249,81.3302 190.365,80.8133 190.48,80.0809 190.595,79.1234 190.711,77.9656 190.826,76.5866 190.941,75.076 191.057,73.4242 191.172,71.8125 191.287,70.1779 191.403,68.9019 191.518,67.8815 191.634,67.2768 191.749,67.1738 191.864,67.4771 191.98,68.406 192.095,69.6801 192.21,71.2441 192.326,72.9436 192.441,74.6278 192.557,76.2204 192.672,77.6738 192.787,78.6885 192.903,79.3637 193.018,79.5544 193.133,79.461 193.249,79.2702 193.364,78.9174 193.479,78.8316 193.595,78.6828 193.71,78.9632 193.826,79.2607 193.941,80.0446 194.056,81.0345 194.172,82.446 194.287,83.8765 194.402,85.6084 194.518,87.6988 194.633,90.001 194.748,92.6045 194.864,95.4961 194.979,98.2178 195.095,100.892 195.21,103.272 195.325,105.119 195.441,106.385 195.556,106.824 195.671,106.589 195.787,105.555 195.902,103.919 196.018,101.785 196.133,99.1315 196.248,96.1579 196.364,92.8696 196.479,89.4479 196.594,85.8563 196.71,82.1179 196.825,78.3566 196.94,74.6564 197.056,71.103 197.171,67.9311 197.287,65.1788 197.402,62.8461 197.517,60.8815 197.633,59.2259 197.748,57.8774 197.863,56.363 197.979,54.7684 198.094,52.9317 198.209,50.6562 198.325,47.9974 198.44,44.9036 198.556,41.3407 198.671,37.6462 198.786,33.8162 198.902,30.1045 199.017,26.5626 199.132,23.3582 199.248,20.6288 199.363,18.4029 199.479,16.8885 199.594,16.1599 199.709,15.8356 199.825,16.4498 199.94,17.6801 200.055,19.4367 200.171,21.7446 200.286,24.2203 200.401,26.9498 200.517,29.5342 200.632,32.0004 200.748,34.4571 200.863,36.5704 200.978,38.4396 201.094,40.0246 201.209,41.3121 201.324,42.426 201.44,43.3606 201.555,44.2151 201.67,44.9513 201.786,45.617 201.901,46.2579 202.017,46.9312 202.132,47.8333 202.247,48.9758 202.363,50.1298 202.478,51.3829 202.593,52.7638 202.709,54.2592 202.824,55.5886 202.94,57.0267 203.055,58.1807 203.17,59.1058 203.286,60.0232 203.401,60.748 203.516,61.2038 203.632,61.4747 203.747,61.6463 203.862,61.879 203.978,62.0526 204.093,62.3864 204.209,62.7621 204.324,63.1303 204.439,63.5556 204.555,63.876 204.67,64.0305 204.785,63.9409 204.901,63.4564 205.016,62.9262 205.132,62.2052 205.247,61.6273 205.362,61.4556 205.478,61.7322 205.593,62.6553 205.708,63.9981 205.824,65.7872 205.939,67.933 206.054,70.1474 206.17,72.318 206.285,74.2711 206.401,75.9553 206.516,77.0425 206.631,77.9465 206.747,78.3681 206.862,78.4825 206.977,78.3376 207.093,77.8073 207.208,77.2675 207.323,76.5427 207.439,75.8637 207.554,75.1885 207.67,74.5629 207.785,74.0403 207.9,73.7981 208.016,73.7389 208.131,73.7809 208.246,74.1948 208.362,74.6411 208.477,75.2629 208.592,76.0106 208.708,76.7163 208.823,77.5174 208.939,78.4043 209.054,79.2741 209.169,80.3212 209.285,81.3168 209.4,82.4517 209.515,83.3806 209.631,84.0901 209.746,84.6165 209.862,84.6986 209.977,84.3266 210.092,83.619 210.208,82.5719 210.323,81.1929 210.438,79.8215 210.554,78.6351 210.669,77.6433 210.784,77.2008 210.9,77.2313 211.015,77.7634 211.131,78.7171 211.246,80.1801 211.361,81.8509 211.477,83.3863 211.592,84.7291 211.707,85.7533 211.823,86.3675 211.938,86.7528 212.054,86.9931 212.169,87.0217 212.284,86.8424 212.4,86.5811 212.515,86.4018 212.63,86.0585 212.746,85.4882 212.861,84.7729 212.976,83.7983 213.092,82.8618 213.207,82.055 213.323,81.4618 213.438,81.2577 213.553,81.5133 213.669,82.5261 213.784,83.9299 213.899,85.8582 214.015,88.1757 214.13,90.5064 214.245,92.8258 214.361,95.004 214.476,96.8999 214.592,98.5745 214.707,99.8753 214.822,100.888 214.938,101.638 215.053,102.086 215.168,102.01 215.284,101.43 215.399,100.297 215.515,98.5078 215.63,96.2895 215.745,93.4666 215.861,90.2394 215.976,86.7337 216.091,83.2909 216.207,80.1076 216.322,77.2675 216.437,74.8853 216.553,72.8539 216.668,71.1144 216.784,69.8098 216.899,68.7321 217.014,67.9139 217.13,67.0251 217.245,65.9684 217.36,64.9289 217.476,63.3496 217.591,61.4938 217.706,59.1248 217.822,56.3668 217.937,53.3093 218.053,49.8761 218.168,46.3742 218.283,42.8609 218.399,39.5592 218.514,36.4693 218.629,33.6903 218.745,31.4473 218.86,29.6696 218.976,28.5004 219.091,27.7795 219.206,27.6383 219.322,27.9263 219.437,28.6588 219.552,29.786 219.668,31.3081 219.783,33.0571 219.898,34.9702 220.014,36.9996 220.129,38.9317 220.245,40.9154 220.36,42.7235 220.475,44.1903 220.591,45.4167 220.706,46.3895 220.821,47.1066 220.937,47.6235 221.052,48.0508 221.167,48.4208 221.283,49.0121 221.398,49.611 221.514,50.2728 221.629,51.3924 221.744,52.2794 221.86,53.2712 221.975,54.1276 222.09,54.8009 222.206,55.0469 222.321,55.0355 222.437,54.8104 222.552,54.3431 222.667,53.9807 222.783,53.7022 222.898,53.7423 223.013,54.2096 223.129,54.9268 223.244,56.0826 223.359,57.2175 223.475,58.4286 223.59,59.3633 223.706,60.0194 223.821,60.2921 223.936,60.2921 224.052,59.9545 224.167,59.5616 224.282,59.1782 224.398,58.936 224.513,59.0276 224.628,59.409 224.744,60.3455 224.859,61.6063 224.975,62.9319 225.09,64.7553 225.205,66.6665 225.321,68.6635 225.436,70.7368 225.551,72.709 225.667,74.622 225.782,76.2624 225.898,77.855 226.013,79.1959 226.128,80.4318 226.244,81.3588 226.359,82.1217 226.474,82.6634 226.59,83.0983 226.705,83.4092 226.82,83.5713 226.936,83.4817 227.051,83.2795 227.167,83.0563 227.282,82.7435 227.397,82.4765 227.513,82.2591 227.628,82.2209 227.743,82.2896 227.859,82.6482 227.974,83.2318 228.089,83.97 228.205,85.0095 228.32,86.1291 228.436,87.4814 228.551,88.7669 228.666,90.0315 228.782,91.0386 228.897,91.565 229.012,91.7481 229.128,91.2999 229.243,90.4244 229.359,89.0702 229.474,87.3784 229.589,85.5397 229.705,83.7086 229.82,82.1046 229.935,80.8038 230.051,79.7986 230.166,79.1367 230.281,78.7324 230.397,78.6599 230.512,78.904 230.628,79.3504 230.743,79.9054 230.858,80.5653 230.974,81.479 231.089,82.4937 231.204,83.5389 231.32,84.4582 231.435,85.0934 231.551,85.4043 231.666,85.2803 231.781,84.8817 231.897,84.1092 232.012,83.0258 232.127,81.8776 232.243,80.6702 232.358,79.7871 232.473,79.1444 232.589,79.0108 232.704,79.2283 232.82,79.8405 232.935,80.8152 233.05,82.1942 233.166,83.7563 233.281,85.5588 233.396,87.6626 233.512,89.9361 233.627,92.45 233.742,95.2462 233.858,98.0805 233.973,100.858 234.089,103.44 234.204,105.63 234.319,107.173 234.435,108.134 234.55,108.189 234.665,107.251 234.781,105.605 234.896,103.192 235.012,100.089 235.127,96.6882 235.242,93.0394 235.358,89.343 235.473,85.822 235.588,82.5127 235.704,79.4629 235.819,77.0196 235.934,74.8452 236.05,73.0962 236.165,71.3624 236.281,69.9014 236.396,68.385 236.511,66.758 236.627,64.8679 236.742,62.7297 236.857,60.3074 236.973,57.536 237.088,54.6941 237.203,51.4668 237.319,48.1328 237.434,44.7339 237.55,41.1214 237.665,37.7454 237.78,34.4971 237.896,31.5713 238.011,28.8991 238.126,26.7552 238.242,25.1778 238.357,24.0678 238.473,23.5165 238.588,23.5986 238.703,24.0563 238.819,25.0024 238.934,26.1716 239.049,27.5353 239.165,29.1985 239.28,30.8007 239.395,32.3247 239.511,33.6102 239.626,34.623 239.742,35.4871 239.857,36.0936 239.972,36.4846 240.088,36.9233 240.203,37.4287 240.318,37.9933 240.434,38.9317 240.549,39.9846 240.664,41.1691 240.78,42.4851 240.895,43.6543 241.011,44.7377 241.126,45.4377 241.241,45.8611 241.357,45.8611 241.472,45.5674 241.587,45.0562 241.703,44.5145 241.818,44.0434 241.934,43.7383 242.049,43.6162 242.164,43.8432 242.28,44.2094 242.395,44.7358 242.51,45.1917 242.626,45.6513 242.741,45.9641 242.856,46.214 242.972,46.1835 243.087,46.1415 243.203,46.1568 243.318,45.966 243.433,45.9241 243.549,45.9317 243.664,45.9393 243.779,46.2045 243.895,46.832 244.01,47.7303 244.125,48.993 244.241,50.6047 244.356,52.2603 244.472,54.2725 244.587,56.3668 244.702,58.4172 244.818,60.3875 244.933,62.2605 245.048,63.836 245.164,65.2512 245.279,66.4414 245.395,67.4313 245.51,68.1676 245.625,68.7321 245.741,69.1651 245.856,69.6477 245.971,70.1112 246.087,70.6776 246.202,71.0591 246.317,71.5035 246.433,71.7896 246.548,72.1806 246.664,72.3103 246.779,72.503 246.894,72.7509 247.01,73.1438 247.125,73.8362 247.24,74.8318 247.356,76.2223 247.471,77.9237 247.586,79.707 247.702,81.4599 247.817,83.001 247.933,84.2179 248.048,85.0629 248.163,85.4348 248.279,85.3528 248.394,84.9084 248.509,84.237 248.625,83.3367 248.74,82.3602 248.856,81.4084 248.971,80.3975 249.086,79.6536 249.202,78.9231 249.317,78.4196 249.432,78.0114 249.548,77.7749 249.663,77.794 249.778,77.979 249.894,78.4978 250.009,79.337 250.125,80.2392 250.24,81.3817 250.355,82.3716 250.471,83.3215 250.586,84.0672 250.701,84.5727 250.817,84.7062 250.932,84.4754 251.048,84.1454 251.163,83.495 251.278,82.7435 251.394,81.9367 251.509,81.107 251.624,80.1572 251.74,79.5544 251.855,78.9727 251.97,78.555 252.086,78.3185 252.201,78.328 252.317,78.7114 252.432,79.3942 252.547,80.4318 252.663,81.8356 252.778,83.6552 252.893,85.7285 253.009,88.0002 253.124,90.392 253.24,92.8582 253.355,95.2061 253.47,97.3252 253.586,98.7424 253.701,99.7399 253.816,100.043 253.932,99.6579 254.047,98.5516 254.162,96.8407 254.278,94.5576 254.393,92.0705 254.509,89.3525 254.624,86.5887 254.739,83.8765 254.855,81.5324 254.97,79.3446 255.085,77.4754 255.201,76.0812 255.316,74.6659 255.431,73.5806 255.547,72.3485 255.662,71.2632 255.778,70.0883 255.893,68.673 256.008,66.9564 256.124,64.8736 256.239,62.4684 256.354,59.8592 256.47,56.939 256.585,53.8529 256.701,50.6848 256.816,47.4576 256.931,44.4821 257.047,41.6249 257.162,39.0195 257.277,36.7059 257.393,34.6364 257.508,33.0228 257.623,31.8631 257.739,31.228 257.854,31.0048 257.97,31.2928 258.085,31.9527 258.2,32.9503 258.316,34.129 258.431,35.2219 258.546,36.2424 258.662,37.0301 258.777,37.526 258.892,37.9266 259.008,37.9151 259.123,37.9952 259.239,37.7816 259.354,37.9208 259.469,38.2966 259.585,38.947 259.7,39.7538 259.815,40.7571 259.931,41.8099 260.046,42.9982 260.161,43.8508 260.277,44.6042 260.392,44.9723 260.508,45.1707 260.623,45.1134 260.738,45.0181 260.854,44.8731 260.969,44.753 261.084,44.9857 261.2,45.2794 261.315,45.884 261.431,46.6279 261.546,47.5968 261.661,48.5352 261.777,49.5747 261.892,50.2137 262.007,50.8183 262.123,51.2685 262.238,51.4096 262.353,51.4687 262.469,51.2589 262.584,51.1464 262.7,50.99 262.815,51.0606 262.93,51.1445 263.046,51.6976 263.161,52.3843 263.276,53.4543 263.392,54.8695 263.507,56.4336 263.622,58.381 263.738,60.4943 263.853,62.7106 263.969,65.009 264.084,67.1052 264.199,69.0182 264.315,70.6872 264.43,72.3504 264.545,73.7351 264.661,74.8795 264.776,76.022 264.892,77.1302 265.007,78.1964 265.122,78.8621 265.238,79.4781 265.353,79.5373 265.468,79.4991 265.584,79.2111 265.699,78.6237 265.814,77.9771 265.93,77.3019 266.045,76.8956 266.161,76.8803 266.276,77.216 266.391,78.082 266.507,79.3294 266.622,80.9373 266.737,82.6634 266.853,84.4888 266.968,86.2607 267.084,87.8571 267.199,89.1351 267.314,90.2394 267.43,90.8612 267.545,91.3895 267.66,91.3342 267.776,91.0348 267.891,90.3691 268.006,89.259 268.122,87.9716 268.237,86.2626 268.353,84.4563 268.468,82.7092 268.583,80.8247 268.699,79.4934 268.814,78.3395 268.929,77.7196 269.045,77.5098 269.16,77.7043 269.275,78.3337 269.391,79.2493 269.506,80.3059 269.622,81.4523 269.737,82.5032 269.852,83.4798 269.968,84.2656 270.083,84.7749 270.198,85.1334 270.314,85.0266 270.429,84.6928 270.545,84.1683 270.66,83.5236 270.775,82.713 270.891,81.8318 271.006,80.819 271.121,79.8749 271.237,79.3122 271.352,78.6904 271.467,78.3471 271.583,78.2327 271.698,78.658 271.814,79.564 271.929,81.0765 272.044,83.1002 272.16,85.5168 272.275,88.5705 272.39,91.6489 272.506,94.9296 272.621,98.0595 272.736,100.894 272.852,103.139 272.967,104.812 273.083,105.712 273.198,105.941 273.313,105.342 273.429,103.98 273.544,102.181 273.659,99.902 273.775,97.3977 273.89,94.7446 274.006,92.2383 274.121,89.8446 274.236,87.8381 274.352,86.0089 274.467,84.4411 274.582,82.9438 274.698,81.5858 274.813,80.3078 274.928,78.8945 275.044,77.3324 275.159,75.8694 275.275,74.1166 275.39,72.2035 275.505,69.9738 275.621,67.5153 275.736,64.8068 275.851,61.673 275.967,58.2532 276.082,54.4347 276.197,50.5399 276.313,46.5096 276.428,42.5671 276.544,38.8745 276.659,35.5481 276.774,32.9369 276.89,30.835 277.005,29.5171 277.12,28.7064 277.236,28.3841 277.351,28.4528 277.467,28.6359 277.582,28.962 277.697,29.1966 277.813,29.5152 277.928,29.7574 278.043,30.1369 278.159,30.4707 278.274,31.0181 278.389,31.6514 278.505,32.6432 278.62,33.7609 278.736,35.0827 278.851,36.5323 278.966,38.0582 279.082,39.5097 279.197,40.8143 279.312,42.0083 279.428,43.0325 279.543,43.8699 279.658,44.4344 279.774,44.8674 279.889,45.3633 280.005,45.7619 280.12,46.3666 280.235,47.0437 280.351,47.7876 280.466,48.6497 280.581,49.6968 280.697,50.7001 280.812,51.669 280.928,52.617 281.043,53.4409 281.158,54.1238 281.274,54.6559 281.389,54.9535 281.504,54.8581 281.62,54.5338 281.735,53.9941 281.85,53.3799 281.966,52.7333 282.081,52.2069 282.197,51.7396 282.312,51.6118 282.427,51.7739 282.543,52.1401 282.658,52.7486 282.773,53.5668 282.889,54.5529 283.004,55.6458 283.12,56.8742 283.235,58.194 283.35,59.6551 283.466,61.2992 283.581,63.1207 283.696,65.1063 283.812,67.1758 283.927,69.3883 284.042,71.4024 284.158,73.4109 284.273,75.055 284.389,76.3711 284.504,77.2504 284.619,77.8111 284.735,78.0438 284.85,78.0305 284.965,77.876 285.081,77.5918 285.196,77.485 285.311,77.525 285.427,77.6204 285.542,78.1487 285.658,78.8411 285.773,79.8024 285.888,80.9563 286.004,82.5108 286.119,84.3171 286.234,86.1977 286.35,88.189 286.465,90.1727 286.581,91.9923 286.696,93.438 286.811,94.5443 286.927,94.9563 287.042,94.8037 287.157,94.0255 287.273,92.6884 287.388,90.9489 287.503,88.8127 287.619,86.5067 287.734,84.195 287.85,82.0588 287.965,80.037 288.08,78.37 288.196,76.9948 288.311,75.9705 288.426,75.4212 288.542,75.1218 288.657,75.158 288.772,75.4861 288.888,76.0239 289.003,76.5199 289.119,77.3362 289.234,78.1182 289.349,78.8678 289.465,79.5735 289.58,80.1057 289.695,80.5997 289.811,80.8038 289.926,80.7999 290.042,80.4318 290.157,79.7204 290.272,78.7038 290.388,77.3896 290.503,76.1632 290.618,74.9425 290.734,73.8114 290.849,73.1152 290.964,72.9016 291.08,73.1267 291.195,74.0212 291.311,75.4441 291.426,77.3839 291.541,79.8405 291.657,82.5928 291.772,85.555 291.887,88.5629 292.003,91.4887 292.118,94.0923 292.233,96.3086 292.349,98.0481 292.464,99.2669 292.58,99.9268 292.695,99.9745 292.81,99.5415 292.926,98.689 293.041,97.4911 293.156,96.0378 293.272,94.3955 293.387,92.7094 293.503,91.1301 293.618,89.5623 293.733,87.9372 293.849,86.5506 293.964,85.1678 294.079,83.9928 294.195,82.9705 294.31,82.0168 294.425,80.9544 294.541,79.8577 294.656,78.7019 294.772,77.052 294.887,75.1675 295.002,72.8577 295.118,70.0635 295.233,66.8706 295.348,63.3687 295.464,59.7504 295.579,56.0654 295.694,52.5616 295.81,49.2371 295.925,46.2693 296.041,43.7936 296.156,41.6383 296.271,39.9846 296.387,38.6666 296.502,37.6805 296.617,36.8432 296.733,36.2443 296.848,35.7922 296.964,35.3345 297.079,34.8748 297.194,34.6097 297.31,34.52 297.425,34.6268 297.54,34.9606 297.656,35.571 297.771,36.4655 297.886,37.5184 298.002,38.762 298.117,39.8549 298.233,40.9249 298.348,42.0178 298.463,42.8723 298.579,43.5532 298.694,44.0568 298.809,44.2151 298.925,44.3429 299.04,44.2799 299.155,44.0778 299.271,43.8184 299.386,43.6581 299.502,43.6677 299.617,43.8565 299.732,44.3124 299.848,45.0066 299.963,45.7314 300.078,46.7004 300.194,47.5549 300.309,48.3083 300.425,48.9587 300.54,49.1837 300.655,49.1666 300.771,48.9606 300.886,48.5581 301.001,48.1347 301.117,47.6598 301.232,47.1867 301.347,46.8339 301.463,46.6584 301.578,46.5173 301.694,46.5039 301.809,46.6355 301.924,46.8262 302.04,47.1238 302.155,47.6598 302.27,48.3865 302.386,49.3344 302.501,50.723 302.617,52.4949 302.732,54.612 302.847,56.9104 302.963,59.5769 303.078,62.2243 303.193,64.9041 303.309,67.4466 303.424,69.7583 303.539,71.7419 303.655,73.3937 303.77,74.5801 303.886,75.509 304.001,76.0335 304.116,76.2891 304.232,76.2528 304.347,76.0182 304.462,75.6749 304.578,75.3964 304.693,75.2343 304.808,75.1752 304.924,75.2534 305.039,75.6806 305.155,76.3043 305.27,77.2332 305.385,78.3185 305.501,79.5316 305.616,80.8896 305.731,82.1351 305.847,83.2223 305.962,84.1473 306.078,84.7634 306.193,84.9732 306.308,84.7634 306.424,84.2313 306.539,83.2719 306.654,81.9024 306.77,80.3784 306.885,78.7228 307,77.0825 307.116,75.4575 307.231,74.1261 307.347,72.8864 307.462,71.8926 307.577,71.1812 307.693,70.7406 307.808,70.4888 307.923,70.3496 308.039,70.4907 308.154,70.8741 308.269,71.3033 308.385,72.0719 308.5,72.8749 308.616,73.7847 308.731,74.746 308.846,75.6844 308.962,76.5866 309.077,77.3038 309.192,77.7768 309.308,77.8569 309.423,77.6109 309.539,77.094 309.654,76.3425 309.769,75.3716 309.885,74.3264 310,73.5158 310.115,72.6842 310.231,72.3847 310.346,72.4782 310.461,73.1133 310.577,74.3226 310.692,75.9343 310.808,78.0648 310.923,80.2735 311.038,82.7683 311.154,85.1105 311.269,87.3307 311.384,89.4078 311.5,91.0329 311.615,92.4672 311.73,93.5544 311.846,94.1914 311.961,94.6187 312.077,94.7007 312.192,94.447 312.307,93.8557 312.423,93.1481 312.538,92.1105 312.653,91.0538 312.769,89.7931 312.884,88.7193 313,87.6149 313.115,86.7871 313.23,86.1462 313.346,85.5378 313.461,84.9923 313.576,84.5269 313.692,83.8574 313.807,82.9381 313.922,81.7097 314.038,79.8596 314.153,77.5193 314.269,74.6812 314.384,71.2842 314.499,67.5782 314.615,63.6395 314.73,59.5979 314.845,55.7946 314.961,52.3614 315.076,49.2162 315.191,46.563 315.307,44.2246 315.422,42.2353 315.538,40.4576 315.653,38.9336 315.768,37.486 315.884,36.1737 315.999,34.9339 316.114,33.7724 316.23,32.8034 316.345,32.0157 316.461,31.3443 316.576,30.959 316.691,30.7778 316.807,30.795 316.922,31.1803 317.037,31.8612 317.153,32.6394 317.268,33.8486 317.383,35.0293 317.499,36.3797 317.614,37.774 317.73,38.9661 317.845,40.0189 317.96,40.8124 318.076,41.3541 318.191,41.6745 318.306,42.0808 318.422,42.2334 318.537,42.6205 318.652,43.1145 318.768,43.8222 318.883,44.8331 318.999,45.9412 319.114,47.0628 319.229,48.2434 319.345,49.1914 319.46,50.1183 319.575,50.6676 319.691,51.1769 319.806,51.5202 319.922,51.5946 320.037,51.8407 320.152,51.9208 320.268,52.1077 320.383,52.2775 320.498,52.327 320.614,52.3595 320.729,52.2469 320.844,52.1039 320.96,51.8063 321.075,51.4973 321.191,51.2952 321.306,51.1292 321.421,51.3123 321.537,51.7854 321.652,52.4663 321.767,53.6736 321.883,55.108 321.998,56.836 322.113,58.9284 322.229,61.0112 322.344,63.3096 322.46,65.7948 322.575,68.0627 322.69,70.2924 322.806,72.4381 322.921,74.2062 323.036,75.7283 323.152,76.9318 323.267,77.6891 323.383,78.2002 323.498,78.3643 323.613,78.2861 323.729,78.0953 323.844,77.8588 323.959,77.4583 324.075,77.2618 324.19,77.2733 324.305,77.5708 324.421,78.2327 324.536,79.1959 324.652,80.4623 324.767,82.0054 324.882,83.5389 324.998,85.2002 325.113,86.7375 325.228,87.9525 325.344,89.0912 325.459,89.8274 325.574,90.1555 325.69,90.1688 325.805,89.7988 325.921,89.1198 326.036,88.3263 326.151,87.3154 326.267,86.1901 326.382,85.0037 326.497,83.7354 326.613,82.4994 326.728,81.3569 326.844,80.1781 326.959,79.213 327.074,78.4673 327.19,77.8436 327.305,77.4564 327.42,77.3648 327.536,77.4773 327.651,77.855 327.766,78.4043 327.882,79.1119 327.997,79.8672 328.113,80.5901 328.228,81.0803 328.343,81.2691 328.459,81.0288 328.574,80.489 328.689,79.4286 328.805,77.9618 328.92,76.2738 329.035,74.4218 329.151,72.8272 329.266,71.431 329.382,70.4869 329.497,70.1016 329.612,70.3324 329.728,71.0839 329.843,72.2588 329.958,74.0403 330.074,76.0335 330.189,78.349 330.305,80.9411 330.42,83.6209 330.535,86.337 330.651,89.1351 330.766,91.6737 330.881,94.0465 330.997,95.9634 331.112,97.6991 331.227,98.8435 331.343,99.6865 331.458,100.032 331.574,100.043 331.689,99.7037 331.804,99.2211 331.92,98.7195 332.035,98.2236 332.15,97.8783 332.266,97.8459 332.381,98.0672 332.497,98.6394 332.612,99.1162 332.727,99.7552 332.843,100.234 332.958,100.31 333.073,100.135 333.189,99.1772 333.304,97.7296 333.419,95.5647 333.535,92.8391 333.65,89.5814 333.766,85.9746 333.881,82.0359 333.996,77.9618 334.112,73.8686 334.227,70.0005 334.342,66.1553 334.458,62.8327 334.573,59.6761 334.688,56.8665 334.804,54.2001 334.919,51.8731 335.035,49.775 335.15,47.6884 335.265,45.8955 335.381,44.1159 335.496,42.5633 335.611,41.3464 335.727,40.3603 335.842,39.7614 335.958,39.6489 336.073,39.7443 336.188,40.2573 336.304,41.0126 336.419,41.7107 336.534,42.672 336.65,43.435 336.765,44.1407 336.88,44.587 336.996,44.8483 337.111,44.9628 337.227,44.9647 337.342,45.0467 337.457,45.1001 337.573,45.1649 337.688,45.4911 337.803,45.8745 337.919,46.5707 338.034,47.2134 338.15,48.108 338.265,48.9701 338.38,49.9562 338.496,50.9938 338.611,52.0219 338.726,52.9031 338.842,53.7289 338.957,54.3927 339.072,54.8962 339.188,55.2892 339.303,55.5028 339.419,55.5753 339.534,55.4208 339.649,55.2377 339.765,54.9477 339.88,54.5949 339.995,54.1314 340.111,53.6698 340.226,53.1339 340.341,52.5864 340.457,52.1706 340.572,51.7892 340.688,51.5317 340.803,51.566 340.918,52.0772 341.034,52.6284 341.149,53.7843 341.264,55.1328 341.38,56.7578 341.495,58.7357 341.611,60.8872 341.726,63.1951 341.841,65.503 341.957,67.8662 342.072,69.9109 342.187,71.8945 342.303,73.3594 342.418,74.6659 342.533,75.425 342.649,75.797 342.764,75.9667 342.88,75.7302 342.995,75.3888 343.11,74.9387 343.226,74.5591 343.341,74.3111 343.456,74.4447 343.572,74.664 343.687,75.3239 343.802,76.2185 343.918,77.3896 344.033,78.616 344.149,80.1667 344.264,81.4046 344.379,82.816 344.495,84.0176 344.61,84.8893 344.725,85.7114 344.841,86.0738 344.956,86.4171 345.072,86.2149 345.187,85.8029 345.302,85.1697 345.418,84.1969 345.533,83.0697 345.648,81.6506 345.764,79.9664 345.879,78.3585 345.994,76.6362 346.11,74.9215 346.225,73.3956 346.341,71.8564 346.456,70.7082 346.571,69.9643 346.687,69.4703 346.802,69.4245 346.917,69.8117 347.033,70.4202 347.148,71.2136 347.263,72.0795 347.379,72.8005 347.494,73.3327 347.61,73.4948 347.725,73.243 347.84,72.791 347.956,71.7877 348.071,70.588 348.186,69.1899 348.302,67.7747 348.417,66.3537 348.533,65.257 348.648,64.4711 348.763,64.0763 348.879,64.1183 348.994,64.6313 349.109,65.7414 349.225,67.2883 349.34,69.3063 349.455,71.7553 349.571,74.4294 349.686,77.3476 349.802,80.5215 349.917,83.8059 350.032,86.8768 350.148,89.7969 350.263,92.3146 350.378,94.3002 350.494,95.744 350.609,96.6004 350.724,96.7606 350.84,96.5966 350.955,95.9023 351.071,95.1566 351.186,94.3135 351.301,93.5868 351.417,92.9555 351.532,92.6617 351.647,92.4786 351.763,92.5111 351.878,92.5835 351.994,92.7399 352.109,92.7914 352.224,92.6389 352.34,92.3337 352.455,91.5746 352.57,90.4034 352.686,88.8528 352.801,86.8558 352.916,84.4029 353.032,81.4961 353.147,78.3509 353.263,74.9501 353.378,71.5398 353.493,67.9463 353.609,64.5913 353.724,61.284 353.839,58.0987 353.955,55.1328 354.07,52.2927 354.185,49.4717 354.301,46.7099 354.416,44.0968 354.532,41.52 354.647,39.3285 354.762,37.2914 354.878,35.6587 354.993,34.6535 355.108,34.0203 355.224,34.0432 355.339,34.5296 355.455,35.2429 355.57,36.3206 355.685,37.4593 355.801,38.6685 355.916,39.6451 356.031,40.5415 356.147,41.1176 356.262,41.623 356.377,41.9644 356.493,42.2314 356.608,42.3688 356.724,42.4355 356.839,42.4508 356.954,42.5233 357.07,42.7216 357.185,42.9086 357.3,43.0993 357.416,43.4102 357.531,43.8279 357.646,44.2418 357.762,44.6709 357.877,45.1554 357.993,45.6666 358.108,46.3418 358.223,47.0685 358.339,47.9153 358.454,48.8271 358.569,49.6892 358.685,50.3835 358.8,51.0091 358.916,51.5145 359.031,51.8216 359.146,51.9379 359.262,51.8388 359.377,51.463 359.492,51.1121 359.608,50.6161 359.723,50.0153 359.838,49.4508 359.954,48.9816 360.069,48.52 360.185,48.4399 360.3,48.6249 360.415,49.2162 360.531,50.1813 360.646,51.4973 360.761,53.4619 360.877,55.6401 360.992,58.1616 361.108,60.8681 361.223,63.5861 361.338,66.1954 361.454,68.5262 361.569,70.6033 361.684,72.1329 361.8,73.2392 361.915,73.8896 362.03,74.0536 362.146,74.0727 362.261,73.8038 362.377,73.512 362.492,73.2297 362.607,73.1076 362.723,73.1591 362.838,73.3804 362.953,73.9354 363.069,74.7823 363.184,75.8332 363.299,77.1817 363.415,78.5722 363.53,80.0542 363.646,81.4999 363.761,82.8618 363.876,84.1512 363.992,85.2345 364.107,86.1577 364.222,86.9778 364.338,87.4795 364.453,87.6664 364.568,87.5024 364.684,86.8501 364.799,85.9479 364.915,84.3819 365.03,82.6482 365.145,80.5463 365.261,78.3032 365.376,76.0468 365.491,73.924 365.607,72.1749 365.722,70.794 365.838,69.846 365.953,69.4207 366.068,69.4245 366.184,69.9929 366.299,70.7463 366.414,71.7343 366.53,72.7414 366.645,73.5463 366.76,74.1395 366.876,74.4275 366.991,74.3073 367.107,73.9068 367.222,72.9703 367.337,71.9289 367.453,70.5346 367.568,69.0526 367.683,67.5286 367.799,66.0561 367.914,64.6027 368.03,63.4068 368.145,62.6382 368.26,62.2052 368.376,62.3368 368.491,63.1131 368.606,64.3529 368.722,66.4109 368.837,68.8828 368.952,71.8545 369.068,75.076 369.183,78.2574 369.299,81.4713 369.414,84.2942 369.529,86.8768 369.645,88.847 369.76,90.3767 369.875,91.5211 369.991,92.1143 370.106,92.5187 370.221,92.6045 370.337,92.5721 370.452,92.5187 370.568,92.5721 370.683,92.6369 370.798,92.9097 370.914,93.4686 371.029,94.138 371.144,95.0135 371.26,95.9767 371.375,96.8598 371.491,97.4644 371.606,97.9222 371.721,97.8211 371.837,97.4129 371.952,96.4402 372.067,95.0421 372.183,93.3636 372.298,91.3209 372.413,89.1846 372.529,86.8787 372.644,84.5689 372.76,82.1408 372.875,79.667 372.99,77.0158 373.106,74.2406 373.221,71.267 373.336,68.0684 373.452,64.6371 373.567,61.2057 373.682,57.7382 373.798,54.4251 373.913,51.3467 374.029,48.5371 374.144,45.9222 374.259,43.8737 374.375,42.1628 374.49,40.7475 374.605,39.6756 374.721,38.9909 374.836,38.5274 374.952,38.2279 375.067,38.2394 375.182,38.2108 375.298,38.3767 375.413,38.5484 375.528,38.6971 375.644,38.9718 375.759,39.2026 375.874,39.38 375.99,39.5745 376.105,39.853 376.221,40.08 376.336,40.2764 376.451,40.5701 376.567,40.8372 376.682,41.0413 376.797,41.3102 376.913,41.7374 377.028,42.1513 377.144,42.6701 377.259,43.3854 377.374,44.1064 377.49,44.9933 377.605,45.9832 377.72,47.0208 377.836,48.0813 377.951,49.1494 378.066,50.2137 378.182,51.1273 378.297,51.9551 378.413,52.5636 378.528,52.9221 378.643,53.0328 378.759,53.0118 378.874,52.7085 378.989,52.4339 379.105,51.9017 379.22,51.3657 379.335,51.0091 379.451,50.6505 379.566,50.5894 379.682,50.8851 379.797,51.4039 379.912,52.4072 380.028,53.666 380.143,55.3693 380.258,57.2308 380.374,59.3633 380.489,61.5243 380.604,63.6071 380.72,65.5488 380.835,67.1948 380.951,68.467 381.066,69.5008 381.181,70.1398 381.297,70.4793 381.412,70.7005 381.527,70.8302 381.643,71.0267 381.758,71.4196 381.874,71.8221 381.989,72.4171 382.104,73.1744 382.22,74.0212 382.335,74.9883 382.45,76.064 382.566,77.0692 382.681,78.1277 382.796,79.2645 382.912,80.5825 383.027,81.9176 383.143,83.2871 383.258,84.6928 383.373,86.11 383.489,87.2792 383.604,88.3778 383.719,89.1198 383.835,89.444 383.95,89.3906 384.065,88.7517 384.181,87.7141 384.296,86.2855 384.412,84.3648 384.527,82.3125 384.642,80.2239 384.758,78.2994 384.873,76.5427 384.988,75.1694 385.104,74.1586 385.219,73.5654 385.335,73.3937 385.45,73.6188 385.565,74.0556 385.681,74.6259 385.796,75.3468 385.911,75.9438 386.027,76.6324 386.142,77.1588 386.257,77.4277 386.373,77.464 386.488,77.2561 386.604,76.6267 386.719,75.6253 386.834,74.4103 386.95,72.9588 387.065,71.1945 387.18,69.4779 387.296,67.8471 387.411,66.4624 387.527,65.5011 387.642,65.0071 387.757,65.1158 387.873,65.7128 387.988,67.0785 388.103,68.8409 388.219,71.1335 388.334,73.6512 388.449,76.3692 388.565,79.1653 388.68,81.6773 388.796,84.0024 388.911,85.9727 389.026,87.552 389.142,88.7116 389.257,89.6157 389.372,90.186 389.488,90.5904 389.603,90.8498 389.719,91.1092 389.834,91.6165 389.949,92.0724 390.065,92.8658 390.18,93.7299 390.295,94.6397 390.411,95.5075 390.526,96.2628 390.641,96.9113 390.757,97.2089 390.872,97.2985 390.987,97.0429 391.103,96.5718 391.218,95.8546 391.334,94.9372 391.449,93.7184 391.564,92.2879 391.68,90.7086 391.795,88.9005 391.91,86.9263 392.026,84.7024 392.141,82.282 392.257,79.7623 392.372,76.8689 392.487,73.8133 392.603,70.6109 392.718,67.254 392.833,63.8627 392.949,60.4256 393.064,57.2137 393.179,54.139 393.295,51.4611 393.41,49.0502 393.526,47.12 393.641,45.4434 393.756,44.114 393.872,43.0535 393.987,42.2753 394.102,41.6516 394.218,41.1881 394.333,40.9306 394.449,40.7418 394.564,40.7151 394.679,40.8791 394.795,41.1309 394.91,41.4952 395.025,41.9549 395.141,42.4413 395.256,42.9581 395.371,43.3301 395.487,43.8107 395.602,44.1884 395.718,44.6214 395.833,45.1382 395.948,45.6837 396.064,46.3761 396.179,47.0494 396.294,48.0012 396.41,48.6745 396.525,49.5194 396.641,50.2843 396.756,50.9881 396.871,51.6022 396.987,52.1916 397.102,52.617 397.217,53.1205 397.333,53.6298 397.448,53.8987 397.563,54.0208 397.679,54.0341 397.794,53.7995 397.91,53.3418 398.025,52.6151 398.14,51.6499 398.256,50.5379 398.371,49.3993 398.486,48.1709 398.602,47.1352 398.717,46.2731 398.832,45.7524 398.948,45.6952 399.063,46.1263 399.179,46.8625 399.294,48.087 399.409,49.6529 399.525,51.3486 399.64,53.2883 399.755,55.0355 399.871,56.7063 399.986,58.2112 400.102,59.5006 400.217,60.6087 400.332,61.4919 400.448,62.3921 400.563,63.0254 400.678,63.6472 400.794,64.2766 400.909,65.0948 401.024,65.854 401.14,66.7199 401.255,67.6945 401.371,68.7512 401.486,69.991 401.601,71.2689 401.717,72.5488 401.832,74.025 401.947,75.6749 402.063,77.4411 402.178,79.5125 402.293,81.5514 402.409,83.7907 402.524,86.0471 402.64,88.1718 402.755,90.0887 402.87,91.5688 402.986,92.574 403.101,92.9745 403.216,92.6064 403.332,91.7596 403.447,90.268 403.562,88.3626 403.678,86.213 403.793,83.9471 403.909,81.683 404.024,79.6002 404.139,77.7577 404.255,76.0697 404.37,74.7823 404.485,73.8858 404.601,73.346 404.716,73.1915 404.832,73.449 404.947,73.9697 405.062,74.8357 405.178,75.9114 405.293,76.8822 405.408,77.9256 405.524,78.6752 405.639,79.0223 405.754,78.9479 405.87,78.41 405.985,77.5136 406.101,76.1117 406.216,74.4656 406.331,72.564 406.447,70.6586 406.562,69.0163 406.677,67.4943 406.793,66.3117 406.908,65.6499 407.024,65.503 407.139,65.8501 407.254,66.8744 407.37,68.3869 407.485,70.3362 407.6,72.6193 407.716,75.1542 407.831,77.6395 407.946,79.9245 408.062,81.9844 408.177,83.6762 408.293,85.0152 408.408,86.007 408.523,86.6879 408.639,87.2449 408.754,87.7351 408.869,88.1738 408.985,88.6639 409.1,89.446 409.216,90.165 409.331,91.0882 409.446,92.0266 409.562,92.923 409.677,93.7966 409.792,94.4871 409.908,95.086 410.023,95.4007 410.138,95.5533 410.254,95.5094 410.369,95.1413 410.485,94.5863 410.6,93.8863 410.715,93.0489 410.831,91.9541 410.946,90.7182 411.061,89.1846 411.177,87.4013 411.292,85.3452 411.407,83.1231 411.523,80.4776 411.638,77.794 411.754,74.8013 411.869,71.7171 411.984,68.6177 412.1,65.5946 412.215,62.4589 412.33,59.512 412.446,56.7426 412.561,54.0532 412.676,51.8178 412.792,49.6758 412.907,47.8753 413.023,46.2292 413.138,44.8655 413.253,43.7936 413.369,42.7865 413.484,42.117 413.599,41.5391 413.715,41.0317 413.83,40.881 413.946,40.7094 414.061,40.6789 414.176,40.675 414.292,40.7475 414.407,40.9459 414.522,41.2034 414.638,41.4189 414.753,41.6764 414.868,41.9091 414.984,42.1513 415.099,42.3688 415.215,42.6015 415.33,42.8113 415.445,43.1107 415.561,43.5151 415.676,44.0491 415.791,44.7282 415.907,45.5674 416.022,46.3094 416.138,47.2153 416.253,48.0737 416.368,49.0578 416.484,49.981 416.599,50.9728 416.714,51.8044 416.83,52.5292 416.945,53.0042 417.06,53.1396 417.176,52.9183 417.291,52.2641 417.407,51.1712 417.522,49.899 417.637,48.5181 417.753,47.1238 417.868,45.8325 417.983,44.8369 418.099,44.2456 418.214,44.0587 418.329,44.2475 418.445,44.9513 418.56,46.0061 418.676,47.3717 418.791,48.8957 418.906,50.6886 419.022,52.4949 419.137,54.3088 419.252,55.8404 419.368,57.3701 419.483,58.5965 419.599,59.8401 419.714,60.7117 419.829,61.4442 419.945,62.148 420.06,62.5752 420.175,62.93 420.291,63.1474 420.406,63.2561 420.521,63.075 420.637,63.1036 420.752,63.0273 420.868,63.1169 420.983,63.3706 421.098,63.9237 421.214,64.8946 421.329,66.2411 421.444,67.9864 421.56,69.9471 421.675,72.1406 421.79,74.3989 421.906,76.6724 422.021,78.7114 422.137,80.4566 422.252,81.8394 422.367,82.589 422.483,83.0392 422.598,82.8294 422.713,82.1885 422.829,81.1242 422.944,79.7185 423.06,77.9485 423.175,76.1308 423.29,74.3474 423.406,72.5278 423.521,71.0172 423.636,69.7583 423.752,68.8657 423.867,68.5242 423.982,68.6139 424.098,69.0469 424.213,69.949 424.329,71.1297 424.444,72.5335 424.559,74.1738 424.675,75.715 424.79,77.2122 424.905,78.5607 425.021,79.543 425.136,80.0484 425.251,80.119 425.367,79.6078 425.482,78.7 425.598,77.34 425.713,75.8618 425.828,74.0918 425.944,72.4286 426.059,71.0667 426.174,70.0616 426.29,69.5599 426.405,69.5237 426.521,69.9796 426.636,70.8264 426.751,72.0776 426.867,73.5978 426.982,75.2057 427.097,76.8975 427.213,78.7038 427.328,80.2449 427.443,81.7479 427.559,83.1212 427.674,84.2809 427.79,85.492 427.905,86.6135 428.02,87.6874 428.136,88.8661 428.251,90.0353 428.366,91.2827 428.482,92.4405 428.597,93.665 428.712,94.7408 428.828,95.7269 428.943,96.5165 429.059,97.1803 429.174,97.6991 429.289,98.0481 429.405,98.3704 429.52,98.42 429.635,98.5593 429.751,98.6203 429.866,98.6623 429.982,98.4334 430.097,98.1377 430.212,97.5388 430.328,96.7168 430.443,95.4598 430.558,94.0427 430.674,92.1983 430.789,90.1021 430.904,87.6683 431.02,85.0285 431.135,82.1885 431.251,79.2302 431.366,76.1689 431.481,72.9893 431.597,69.7964 431.712,66.6798 431.827,63.6605 431.943,60.7442 432.058,58.0643 432.173,55.5695 432.289,53.3627 432.404,51.4458 432.52,49.8589 432.635,48.3559 432.75,47.2363 432.866,46.2579 432.981,45.5979 433.096,45.0715 433.212,44.69 433.327,44.2227 433.443,44.0453 433.558,43.6677 433.673,43.4693 433.789,43.2309 433.904,43.0268 434.019,42.9086 434.135,42.7769 434.25,42.7522 434.365,42.8304 434.481,42.8189 434.596,42.8456 434.712,42.8761 434.827,42.8895 434.942,43.147 435.058,43.5189 435.173,44.2265 435.288,45.0906 435.404,46.3113 435.519,47.8257 435.634,49.5061 435.75,51.2627 435.865,52.9507 435.981,54.4938 436.096,55.6935 436.211,56.4164 436.327,56.693 436.442,56.5194 436.557,55.7946 436.673,54.9649 436.788,53.6641 436.904,52.2736 437.019,50.8107 437.134,49.5328 437.25,48.3235 437.365,47.593 437.48,47.1314 437.596,47.1257 437.711,47.4519 437.826,48.1061 437.942,49.0254 438.057,50.3377 438.173,51.5946 438.288,52.9908 438.403,54.49 438.519,56.1837 438.634,57.8564 438.749,59.5673 438.865,61.3183 438.98,62.9681 439.096,64.515 439.211,65.8406 439.326,66.8858 439.442,67.748 439.557,68.1371 439.672,68.4079 439.788,68.3583 439.903,68.3907 440.018,68.3392 440.134,68.4422 440.249,68.7283 440.365,69.3883 440.48,70.2714 440.595,71.5474 440.711,73.1305 440.826,74.8814 440.941,76.8288 441.057,78.9937 441.172,81.1738 441.288,83.3043 441.403,85.3013 441.518,87.1247 441.634,88.5819 441.749,89.7473 441.864,90.4053 441.98,90.6762 442.095,90.3748 442.21,89.6786 442.326,88.5953 442.441,87.1972 442.557,85.6179 442.672,83.9852 442.787,82.2362 442.903,80.6836 443.018,79.316 443.133,78.0953 443.249,77.3877 443.364,77.0463 443.479,77.1512 443.595,77.6223 443.71,78.3528 443.826,79.3275 443.941,80.4318 444.056,81.4465 444.172,82.0645 444.287,82.4498 444.402,82.3506 444.518,81.9253 444.633,80.8801 444.748,79.6765 444.864,78.0877 444.979,76.4474 445.095,74.746 445.21,73.0218 445.325,71.6428 445.441,70.5499 445.556,69.8308 445.671,69.4741 445.787,69.5733 445.902,69.9815 446.018,70.7234 446.133,71.74 446.248,72.7853 446.364,74.025 446.479,75.116 446.594,76.3768 446.71,77.4506 446.825,78.5207 446.94,79.7547 447.056,80.8152 447.171,82.1084 447.287,83.5561 447.402,85.1144 447.517,86.8062 447.633,88.4255 447.748,90.0372 447.863,91.6871 447.979,93.3217 448.094,94.7961 448.21,96.1942 448.325,97.4225 448.44,98.5535 448.556,99.6255 448.671,100.602 448.786,101.31 448.902,101.928 449.017,102.338 449.132,102.5 449.248,102.498 449.363,102.219 449.479,101.693 449.594,100.915 449.709,99.9345 449.825,98.5497 449.94,97.0391 450.055,95.0383 450.171,92.822 450.286,90.4435 450.401,87.8323 450.517,85.0838 450.632,82.1542 450.748,79.295 450.863,76.3406 450.978,73.2087 451.094,70.2504 451.209,67.2272 451.324,64.3643 451.44,61.6425 451.555,59.3518 451.67,56.9505 451.786,55.0603 451.901,53.1644 452.017,51.5546 452.132,50.0764 452.247,48.8137 452.363,47.5873 452.478,46.7385 452.593,45.9946 452.709,45.4701 452.824,45.1878 452.94,45.0066 453.055,44.9723 453.17,44.854 453.286,44.8693 453.401,44.772 453.516,44.3925 453.632,44.0301 453.747,43.4636 453.862,42.8761 453.978,42.4031 454.093,41.9606 454.209,41.8118 454.324,41.8099 454.439,42.199 454.555,42.8571 454.67,43.7402 454.785,45.02 454.901,46.3284 455.016,47.9115 455.132,49.5042 455.247,50.9938 455.362,52.2546 455.478,53.214 455.593,53.624 455.708,53.5821 455.824,53.0862 455.939,52.3461 456.054,51.1578 456.17,50.0001 456.285,48.6363 456.401,47.4423 456.516,46.3589 456.631,45.4606 456.747,44.772 456.862,44.175 456.977,43.8584 457.093,43.7688 457.208,43.7573 457.323,44.0244 457.439,44.6996 457.554,45.6513 457.67,47.0494 457.785,48.745 457.9,50.6867 458.016,52.6322 458.131,54.5739 458.246,56.506 458.362,58.1597 458.477,59.5673 458.593,60.5763 458.708,61.4079 458.823,61.982 458.939,62.3387 459.054,62.5428 459.169,62.6725 459.285,62.7259 459.4,62.8995 459.515,63.0254 459.631,63.2409 459.746,63.8207 459.862,64.639 459.977,65.8025 460.092,67.1738 460.208,68.9858 460.323,70.9389 460.438,73.0485 460.554,75.1637 460.669,77.1703 460.784,79.0452 460.9,80.7656 461.015,82.158 461.131,83.1326 461.246,83.7792 461.361,83.949 461.477,83.64 461.592,83.0029 461.707,81.8471 461.823,80.4166 461.938,78.9746 462.053,77.3362 462.169,75.797 462.284,74.3779 462.4,73.2926 462.515,72.5678 462.63,72.215 462.746,72.3294 462.861,72.6861 462.976,73.4128 463.092,74.2577 463.207,75.1389 463.323,76.1365 463.438,76.8765 463.553,77.2198 463.669,77.2656 463.784,76.949 463.899,76.2872 464.015,75.2896 464.13,74.1395 464.245,72.7567 464.361,71.4978 464.476,70.424 464.592,69.4379 464.707,68.8638 464.822,68.5471 464.938,68.4861 465.053,68.652 465.168,69.1117 465.284,69.579 465.399,70.3667 465.515,71.1316 465.63,71.9937 465.745,72.7853 465.861,73.5825 465.976,74.4447 466.091,75.2209 466.207,76.1384 466.322,77.0119 466.437,77.9446 466.553,79.0452 466.668,80.0713 466.784,81.2978 466.899,82.6577 467.014,83.9356 467.13,85.2917 467.245,86.6784 467.36,87.9468 467.476,89.0282 467.591,90.144 467.706,91.1073 467.822,91.956 467.937,93.1004 468.053,94.1895 468.168,95.1432 468.283,96.0702 468.399,96.713 468.514,97.1059 468.629,97.4206 468.745,97.2546 468.86,96.9189 468.976,96.116 469.091,95.2176 469.206,94.0503 469.322,92.6446 469.437,90.8936 469.552,89.0225 469.668,86.9016 469.783,84.4945 469.898,81.9787 470.014,79.152 470.129,76.2681 470.245,73.4452 470.36,70.609 470.475,68.015 470.591,65.7224 470.706,63.6052 470.821,61.5434 470.937,59.6818 471.052,58.0262 471.168,56.4355 471.283,54.9668 471.398,53.7652 471.514,52.8001 471.629,51.9723 471.744,51.4649 471.86,51.0606 471.975,50.7706 472.09,50.639 472.206,50.4655 472.321,50.2328 472.437,50.0249 472.552,49.5747 472.667,49.0102 472.783,48.087 472.898,47.0818 473.013,45.9393 473.129,44.8178 473.244,43.8222 473.359,42.9944 473.475,42.2658 473.59,42.117 473.706,42.281 473.821,42.8761 473.936,43.9919 474.052,45.411 474.167,46.9865 474.282,48.5867 474.398,50.3854 474.513,52.0238 474.629,53.3398 474.744,54.2573 474.859,54.9477 474.975,55.3349 475.09,55.4436 475.205,55.2625 475.321,54.8199 475.436,54.2668 475.551,53.584 475.667,52.8973 475.782,52.2126 475.898,51.4134 476.013,50.7706 476.128,50.0802 476.244,49.7559 476.359,49.3707 476.474,49.2314 476.59,49.3516 476.705,49.6739 476.82,50.2805 476.936,51.1445 477.051,52.142 477.167,53.357 477.282,54.799 477.397,56.4183 477.513,58.0739 477.628,59.6722 477.743,61.078 477.859,62.2624 477.974,63.075 478.09,63.6262 478.205,64.0096 478.32,64.267 478.436,64.3147 478.551,64.5551 478.666,64.8526 478.782,65.1997 478.897,65.6155 479.012,66.3117 479.128,67.0575 479.243,68.0302 479.359,69.2757 479.474,70.8035 479.589,72.3866 479.705,74.0346 479.82,75.9877 479.935,77.8188 480.051,79.5602 480.166,81.1814 480.281,82.4002 480.397,83.2986 480.512,83.8651 480.628,84.0157 480.743,83.5561 480.858,82.9705 480.974,82.0493 481.089,80.8381 481.204,79.4839 481.32,78.1792 481.435,76.7983 481.551,75.591 481.666,74.6831 481.781,74.1071 481.897,74.0193 482.012,74.3626 482.127,75.0493 482.243,75.9515 482.358,76.9986 482.473,78.0114 482.589,78.8392 482.704,79.1825 482.82,79.2741 482.935,78.7953 483.05,77.9084 483.166,76.7278 483.281,75.2744 483.396,73.8343 483.512,72.4152 483.627,71.0305 483.742,69.8594 483.858,68.818 483.973,67.9139 484.089,67.294 484.204,66.9202 484.319,66.8153 484.435,66.8744 484.55,67.1357 484.665,67.4657 484.781,67.8777 484.896,68.3621 485.012,68.8447 485.127,69.3234 485.242,69.9452 485.358,70.5212 485.473,71.1144 485.588,71.7381 485.704,72.4496 485.819,73.1076 485.934,73.6684 486.05,74.3569 486.165,75.0893 486.281,75.8141 486.396,76.7754 486.511,77.813 486.627,78.988 486.742,80.2659 486.857,81.5762 486.973,83.0525 487.088,84.4888 487.203,85.9422 487.319,87.159 487.434,88.395 487.55,89.713 487.665,90.8288 487.78,91.9465 487.896,93.0089 488.011,93.9587 488.126,94.6683 488.242,95.0383 488.357,94.9372 488.473,94.5329 488.588,93.7394 488.703,92.5359 488.819,91.0329 488.934,89.2705 489.049,87.2811 489.165,85.1468 489.28,82.9343 489.395,80.5463 489.511,78.0133 489.626,75.2209 489.742,72.4 489.857,69.5752 489.972,66.7657 490.088,63.979 490.203,61.2897 490.318,58.751 490.434,56.5404 490.549,54.4232 490.664,52.6303 490.78,51.2322 490.895,49.9734 491.011,49.0311 491.126,48.5085 491.241,48.1652 491.357,48.0164 491.472,47.9173 491.587,47.7551 491.703,47.4995 491.818,47.0628 491.934,46.4639 492.049,45.3614 492.164,44.175 492.28,42.8933 492.395,41.5734 492.51,40.4404 492.626,39.4601 492.741,38.8688 492.856,38.68 492.972,39.0061 493.087,39.626 493.203,40.6636 493.318,41.9072 493.433,43.3377 493.549,44.9837 493.664,46.8701 493.779,48.7756 493.895,50.6867 494.01,52.4968 494.125,54.3412 494.241,55.8747 494.356,57.2194 494.472,58.4096 494.587,59.1973 494.702,59.7466 494.818,59.9717 494.933,59.9221 495.048,59.6093 495.164,59.0829 495.279,58.3714 495.395,57.5608 495.51,56.5652 495.625,55.766 495.741,54.942 495.856,54.3298 495.971,53.9273 496.087,53.7347 496.202,53.8987 496.317,54.2725 496.433,54.8638 496.548,55.7259 496.664,56.8246 496.779,57.824 496.894,58.9227 497.01,60.0022 497.125,61.0722 497.24,62.0469 497.356,62.7278 497.471,63.3878 497.586,63.8417 497.702,64.0611 497.817,64.3185 497.933,64.2442 498.048,64.3376 498.163,64.5322 498.279,64.9289 498.394,65.4763 498.509,66.182 498.625,67.1376 498.74,68.3221 498.856,69.6973 498.971,71.1583 499.086,72.8406 499.202,74.5305 499.317,76.3024 499.432,77.7425 499.548,79.1634 499.663,80.4242 499.778,81.2157 499.894,81.4904 500.009,81.3092 500.125,80.7713 500.24,79.7166 500.355,78.4711 500.471,77.0825 500.586,75.7436 500.701,74.5152 500.817,73.6798 500.932,73.0294 501.047,72.7986 501.163,72.8425 501.278,73.1915 501.394,73.7828 501.509,74.4809 501.624,75.2896 501.74,76.1498 501.855,76.7831 501.97,77.2446 502.086,77.5613 502.201,77.6528 502.317,77.2713 502.432,76.5218 502.547,75.6654 502.663,74.3398 502.778,73.0599 502.893,71.7706 503.009,70.4202 503.124,69.2071 503.239,68.1809 503.355,67.3531 503.47,66.7218 503.586,66.1172 503.701,65.5621 503.816,65.0605 503.932,64.7095 504.047,64.494 504.162,64.5284 504.278,64.6123 504.393,65.0452 504.509,65.4687 504.624,66.018 504.739,66.6741 504.855,67.3512 504.97,67.9578 505.085,68.7093 505.201,69.4398 505.316,70.321 505.431,71.1926 505.547,72.2855 505.662,73.224 505.778,74.1566 505.893,75.1752 506.008,75.8599 506.124,76.6133 506.239,77.2656 506.354,77.8111 506.47,78.4844 506.585,79.213 506.701,79.8882 506.816,80.7713 506.931,81.4771 507.047,82.3563 507.162,83.0525 507.277,83.6743 507.393,84.2389 507.508,84.586 507.623,84.8798 507.739,84.9408 507.854,84.8988 507.97,84.5689 508.085,84.1035 508.2,83.537 508.316,82.6005 508.431,81.4542 508.546,80.1171 508.662,78.4253 508.777,76.5008 508.892,74.1814 509.008,71.7133 509.123,68.9095 509.239,66.0771 509.354,63.1665 509.469,60.3741 509.585,57.6562 509.7,55.1328 509.815,52.9202 509.931,51.1102 510.046,49.7559 510.161,48.8461 510.277,48.4551 510.392,48.3178 510.508,48.5753 510.623,48.9796 510.738,49.4698 510.854,49.7922 510.969,50.1279 511.084,50.248 511.2,50.2652 511.315,50.3491 511.431,50.2309 511.546,50.0802 511.661,49.8208 511.777,49.7121 511.892,49.4984 512.007,49.4069 512.123,49.4489 512.238,49.7273 512.354,50.126 512.469,50.7249 512.584,51.5469 512.7,52.4281 512.815,53.4467 512.93,54.4728 513.046,55.6268 513.161,56.8742 513.276,57.9766 513.392,59.2068 513.507,60.2959 513.622,61.3869 513.738,62.373 513.853,63.1989 513.969,63.7597 514.084,63.9771 514.199,63.9104 514.315,63.672 514.43,63.033 514.545,62.1671 514.661,61.2572 514.776,60.172 514.892,58.9551 515.007,57.824 515.122,56.672 515.238,55.6096 515.353,54.5758 515.468,53.8148 515.584,53.172 515.699,52.5655 515.814,52.4281 515.93,52.327 516.045,52.5159 516.161,52.8821 516.276,53.4123 516.391,54.1028 516.507,54.8962 516.622,55.5905 516.737,56.3706 516.853,57.1793 516.968,58.0796 517.083,58.9017 517.199,59.7504 517.314,60.6145 517.43,61.4919 517.545,62.373 517.66,63.1799 517.776,64.2003 517.891,65.194 518.006,66.2946 518.122,67.5286 518.237,68.9839 518.353,70.7043 518.468,72.4038 518.583,74.0327 518.699,75.6158 518.814,77.113 518.929,78.2517 519.045,79.1577 519.16,79.522 519.276,79.5125 519.391,79.234 519.506,78.8049 519.622,78.1125 519.737,77.4392 519.852,76.6763 519.968,76.0831 520.083,75.6158 520.198,75.3335 520.314,75.4498 520.429,75.6558 520.545,76.1575 520.66,76.8918 520.775,77.6948 520.891,78.5321 521.006,79.1653 521.121,79.8386 521.237,80.2926 521.352,80.4662 521.467,80.5463 521.583,80.5501 521.698,80.4299 521.814,80.2602 521.929,79.9073 522.044,79.3961 522.16,78.7934 522.275,77.8569 522.39,76.949 522.506,75.8294 522.621,74.8013 522.736,73.7141 522.852,72.8253 522.967,71.9384 523.083,71.2193 523.198,70.6013 523.313,70.0349 523.429,69.5199 523.544,69.1556 523.659,68.6768 523.775,68.324 523.89,68.2057 524.005,68.2534 524.121,68.4441 524.236,68.8275 524.352,69.4417 524.467,70.0845 524.582,70.7864 524.698,71.4902 524.813,72.1406 524.928,72.8253 525.044,73.3765 525.159,73.8896 525.275,74.2863 525.39,74.5858 525.505,74.8967 525.621,75.1733 525.736,75.3754 525.851,75.3526 525.967,75.4994 526.082,75.5204 526.198,75.5299 526.313,75.4079 526.428,75.2038 526.544,75.0207 526.659,74.8338 526.774,74.8967 526.89,74.8071 527.005,74.6754 527.12,74.5477 527.236,74.4275 527.351,74.2577 527.467,73.922 527.582,73.615 527.697,73.0733 527.813,72.4515 527.928,71.5169 528.043,70.2542 528.159,68.7245 528.274,66.9087 528.389,64.7992 528.505,62.4303 528.62,60.0632 528.736,57.6791 528.851,55.3998 528.966,53.2578 529.082,51.5336 529.197,50.2309 529.312,49.1818 529.428,48.8309 529.543,48.6363 529.659,48.9663 529.774,49.4164 529.889,50.1317 530.005,50.9747 530.12,51.8521 530.235,52.823 530.351,53.5382 530.466,54.2268 530.581,54.9115 530.697,55.4551 530.812,56.1017 530.927,56.6529 531.043,57.4178 531.158,58.0434 531.274,58.8197 531.389,59.6341 531.504,60.3398 531.62,61.139 531.735,61.9801 531.85,62.7297 531.966,63.6548 532.081,64.6371 532.197,65.6194 532.312,66.615 532.427,67.7308 532.543,69.0011 532.658,70.0806 532.773,71.2498 532.889,72.2646 533.004,72.9703 533.12,73.634 533.235,73.8705 533.35,74.0193 533.466,73.8915 533.581,73.4586 533.696,72.9569 533.812,72.215 533.927,71.2117 534.042,70.237 534.158,69.0507 534.273,67.8796 534.389,66.6207 534.504,65.461 534.619,64.3529 534.735,63.2352 534.85,62.2643 534.965,61.2115 535.081,60.2006 535.196,59.3842 535.311,58.6499 535.427,57.99 535.542,57.6066 535.658,57.3624 535.773,57.3376 535.888,57.3129 536.004,57.3167 536.119,57.4502 536.234,57.4673 536.35,57.4178 536.465,57.3167 536.581,57.2289 536.696,57.1317 536.811,57.2137 536.927,57.6543 537.042,58.1597 537.157,59.1592 537.273,60.275 537.388,61.7818 537.503,63.4183 537.619,65.1788 537.734,67.088 537.85,68.8828 537.965,70.4182 538.08,72.028 538.196,73.3117 538.311,74.2234 538.426,74.7002 538.542,74.9482 538.657,74.87 538.773,74.6449 538.888,74.4637 539.003,74.2577 539.119,74.1891 539.234,74.4466 539.349,74.7803 539.465,75.4269 539.58,76.2032 539.695,77.1302 539.811,78.2517 539.926,79.3446 540.042,80.4681 540.157,81.6106 540.272,82.9171 540.388,84.2027 540.503,85.4482 540.618,86.5392 540.734,87.4585 540.849,88.1795 540.964,88.5114 541.08,88.6143 541.195,88.292 541.311,87.8037 541.426,87.1915 541.541,86.3694 541.657,85.4653 541.772,84.5746 541.887,83.5236 542.003,82.4937 542.118,81.5285 542.234,80.264 542.349,79.2073 542.464,78.0515 542.58,76.8575 542.695,75.7169 542.81,74.4771 542.926,73.3613 543.041,72.3656 543.156,71.4845 543.272,70.8283 543.387,70.197 543.503,69.764 543.618,69.4684 543.733,69.1575 543.849,69.0125 543.964,68.9019 544.079,69.0125 544.195,69.0545 544.31,69.2662 544.425,69.2738 544.541,69.3177 544.656,69.4417 544.772,69.5409 544.887,69.6076 545.002,69.7087 545.118,69.8499 545.233,69.9567 545.348,69.9033 545.464,69.8537 545.579,69.5828 545.694,69.2643 545.81,68.8676 545.925,68.4918 546.041,68.1199 546.156,67.851 546.271,67.7651 546.387,67.7289 546.502,67.87 546.617,68.1886 546.733,68.4899 546.848,68.7836 546.964,68.8447 547.079,68.7798 547.194,68.3755 547.31,67.8147 547.425,66.9564 547.54,65.8006 547.656,64.3185 547.771,62.7583 547.886,61.1218 548.002,59.5483 548.117,57.99 548.233,56.5881 548.348,55.56 548.463,54.5396 548.579,54.0055 548.694,53.708 548.809,53.687 548.925,53.7747 549.04,54.0417 549.156,54.4881 549.271,55.0507 549.386,55.7259 549.502,56.4355 549.617,57.1984 549.732,57.9251 549.848,58.7357 549.963,59.6474 550.078,60.4466 550.194,61.1485 550.309,61.9057 550.424,62.5676 550.54,63.1703 550.655,63.6224 550.771,64.2461 550.886,64.8431 551.001,65.379 551.117,66.161 551.232,66.8172 551.347,67.5477 551.463,68.303 551.578,68.8676 551.694,69.4894 551.809,70.115 551.924,70.6414 552.04,71.1469 552.155,71.4997 552.27,71.8278 552.386,71.9193 552.501,72.0166 552.616,71.8163 552.732,71.4577 552.847,71.0572 552.963,70.5613 553.078,69.9242 553.193,69.3406 553.309,68.5586 553.424,67.6316 553.539,66.718 553.655,65.463 553.77,64.2518 553.885,62.9243 554.001,61.5491 554.116,60.2006 554.232,58.7605 554.347,57.7153 554.462,56.8284 554.578,56.0788 554.693,55.4894 554.808,54.9363 554.924,54.4347 555.039,54.0074 555.155,53.5077 555.27,52.9698 555.385,52.4148 555.501,51.8674 555.616,51.3848 555.731,50.9042 555.847,50.5379 555.962,50.3453 556.078,50.2194 556.193,50.4254 556.308,50.8832 556.424,51.6919 556.539,52.842 556.654,54.3889 556.77,56.4336 556.885,58.587 557,60.8815 557.116,63.2504 557.231,65.5354 557.347,67.4771 557.462,69.2014 557.577,70.5231 557.693,71.637 557.808,72.4801 557.923,73.1133 558.039,73.5444 558.154,73.8877 558.269,74.1242 558.385,74.3073 558.5,74.3264 558.616,74.4618 558.731,74.5953 558.846,74.8338 558.962,75.2248 559.077,75.6577 559.192,76.3406 559.308,77.0806 559.423,77.9122 559.539,78.7724 559.654,79.6861 559.769,80.5997 559.885,81.1566 560,81.767"/>
<polyline fill="none" stroke="#000000" stroke-width="0.5" stroke-linecap="butt" stroke-linejoin="miter" points="60,67.5 560,67.5"/>
</g>
</g>
</svg>
