<?xml version="1.0" encoding="utf-8" standalone="no"?>
<?xml-stylesheet type="text/css" href="https://fonts.googleapis.com/css?family=Open+Sans:300italic,400italic,600italic,700italic,400,600,700,300&amp;subset=latin,cyrillic-ext,latin-ext,cyrillic" ?>
<!DOCTYPE svg PUBLIC "-//W3C//DTD SVG 1.1//EN"
  "http://www.w3.org/Graphics/SVG/1.1/DTD/svg11.dtd">
<!-- Created with matplotlib (http://matplotlib.org/) -->
<svg height="180pt" version="1.1" viewBox="0 0 460.8 180" width="460.8pt" xmlns="http://www.w3.org/2000/svg" xmlns:xlink="http://www.w3.org/1999/xlink">
 <defs>
  <style type="text/css">
*{stroke-linecap:butt;stroke-linejoin:round;}
  </style>
 </defs>
 <g id="figure_1">
  <g id="patch_1">
   <path d="M 0 180 
L 460.8 180 
L 460.8 0 
L 0 0 
z
" style="fill:#fefefe;"/>
  </g>
  <g id="axes_1">
   <g id="patch_2">
    <path d="M 24.801563 138.196875 
L 446.5 138.196875 
L 446.5 14.3 
L 24.801563 14.3 
z
" style="fill:#ffffff;"/>
   </g>
   <g id="line2d_1">
    <path clip-path="url(#pa165886939)" d="M 24.801563 79.374885 
L 446.5 79.374885 
" style="fill:none;stroke:#808080;stroke-linecap:square;stroke-width:1.5;"/>
   </g>
   <g id="matplotlib.axis_1">
    <g id="xtick_1">
     <g id="line2d_2">
      <defs>
       <path d="M 0 0 
L 0 3.5 
" id="mdcae2fc793" style="stroke:#000000;stroke-width:0.8;"/>
      </defs>
      <g>
       <use style="stroke:#000000;stroke-width:0.8;" x="24.801563" xlink:href="#mdcae2fc793" y="138.196875"/>
      </g>
     </g>
     <g id="text_1">
      <text style="font-family:Open Sans;font-size:10px;font-style:normal;font-weight:normal;text-anchor:middle;" transform="rotate(-0, 24.801563, 152.795312)" x="24.801563" y="152.795312">0</text>
     </g>
    </g>
    <g id="xtick_2">
     <g id="line2d_3">
      <g>
       <use style="stroke:#000000;stroke-width:0.8;" x="110.620211" xlink:href="#mdcae2fc793" y="138.196875"/>
      </g>
     </g>
     <g id="text_2">
      <text style="font-family:Open Sans;font-size:10px;font-style:normal;font-weight:normal;text-anchor:middle;" transform="rotate(-0, 110.620211, 152.795312)" x="110.620211" y="152.795312">20</text>
     </g>
    </g>
    <g id="xtick_3">
     <g id="line2d_4">
      <g>
       <use style="stroke:#000000;stroke-width:0.8;" x="196.438859" xlink:href="#mdcae2fc793" y="138.196875"/>
      </g>
     </g>
     <g id="text_3">
      <text style="font-family:Open Sans;font-size:10px;font-style:normal;font-weight:normal;text-anchor:middle;" transform="rotate(-0, 196.438859, 152.795312)" x="196.438859" y="152.795312">40</text>
     </g>
    </g>
    <g id="xtick_4">
     <g id="line2d_5">
      <g>
       <use style="stroke:#000000;stroke-width:0.8;" x="282.257507" xlink:href="#mdcae2fc793" y="138.196875"/>
      </g>
     </g>
     <g id="text_4">
      <text style="font-family:Open Sans;font-size:10px;font-style:normal;font-weight:normal;text-anchor:middle;" transform="rotate(-0, 282.257507, 152.795312)" x="282.257507" y="152.795312">60</text>
     </g>
    </g>
    <g id="xtick_5">
     <g id="line2d_6">
      <g>
       <use style="stroke:#000000;stroke-width:0.8;" x="368.076156" xlink:href="#mdcae2fc793" y="138.196875"/>
      </g>
     </g>
     <g id="text_5">
      <text style="font-family:Open Sans;font-size:10px;font-style:normal;font-weight:normal;text-anchor:middle;" transform="rotate(-0, 368.076156, 152.795312)" x="368.076156" y="152.795312">80</text>
     </g>
    </g>
    <g id="text_6">
     <text style="font-family:Open Sans;font-size:10px;font-style:normal;font-weight:normal;text-anchor:middle;" transform="rotate(-0, 235.650781, 166.796875)" x="235.650781" y="166.796875">Time (milliseconds)</text>
    </g>
   </g>
   <g id="matplotlib.axis_2">
    <g id="text_7">
     <text style="font-family:Open Sans;font-size:10px;font-style:normal;font-weight:normal;text-anchor:middle;" transform="rotate(-90, 18.398438, 76.248437)" x="18.398438" y="76.248437">Amplitude</text>
    </g>
   </g>
   <g id="line2d_7">
    <path clip-path="url(#pa165886939)" d="M 24.801563 104.341684 
L 24.898863 104.109643 
L 25.093463 101.819764 
L 25.288063 97.233901 
L 25.677263 79.043107 
L 26.163763 56.600263 
L 26.455663 52.533439 
L 26.747564 49.972846 
L 27.234064 44.855731 
L 27.331364 45.134587 
L 27.623264 48.193865 
L 27.915164 50.801273 
L 28.207064 51.497396 
L 28.304364 51.554388 
L 28.498965 52.423525 
L 28.888165 55.163237 
L 29.374665 57.160011 
L 29.471965 57.31674 
L 29.666565 56.903544 
L 29.958465 56.239989 
L 30.055765 56.339726 
L 30.250366 58.073927 
L 30.542266 63.414941 
L 30.931466 75.853561 
L 31.515266 96.256886 
L 31.709866 97.339744 
L 31.904467 95.24934 
L 32.682867 81.278028 
L 32.877467 80.612437 
L 32.974767 80.777308 
L 33.266667 83.215774 
L 33.558567 85.813005 
L 33.850468 86.855154 
L 34.045068 88.731837 
L 34.336968 94.834109 
L 34.823468 105.520208 
L 35.115368 108.728073 
L 35.407268 109.701017 
L 35.504569 109.521898 
L 35.699169 107.535301 
L 36.088369 99.996003 
L 37.061369 79.244616 
L 37.25597 78.017241 
L 37.35327 78.265566 
L 37.64517 80.398715 
L 37.93707 83.663573 
L 38.71547 96.586629 
L 38.91007 95.031547 
L 39.688471 85.214584 
L 39.980371 83.96889 
L 40.077671 84.117478 
L 40.272271 85.615567 
L 40.564171 93.046986 
L 41.245272 113.76377 
L 41.342572 113.922535 
L 41.439872 113.022867 
L 41.634472 108.131687 
L 43.191273 49.201411 
L 44.456174 32.384544 
L 44.650774 31.877717 
L 44.748074 32.091439 
L 44.942674 33.935555 
L 45.331874 41.193961 
L 45.721074 48.295637 
L 46.012974 50.35551 
L 46.402175 49.846648 
L 46.499475 49.995236 
L 46.694075 51.273497 
L 46.985975 56.685752 
L 47.667075 74.259805 
L 47.861675 75.344699 
L 47.958976 74.911148 
L 48.153576 72.311882 
L 48.640076 63.396622 
L 48.737376 62.808378 
L 48.834676 62.979355 
L 49.029276 64.697273 
L 49.515776 71.300265 
L 49.904977 74.133608 
L 51.364477 92.542195 
L 51.753678 94.929775 
L 51.948278 94.982696 
L 52.142878 94.097277 
L 52.434778 91.563144 
L 52.726678 89.462563 
L 52.823978 89.668143 
L 53.115878 91.620137 
L 53.796979 97.596211 
L 54.088879 104.557441 
L 54.672679 118.610171 
L 55.06188 122.22309 
L 55.35378 123.560379 
L 55.54838 123.611265 
L 55.74298 122.38389 
L 56.61868 114.87716 
L 56.813281 115.443015 
L 57.299781 118.052458 
L 57.397081 117.592447 
L 57.591681 114.681757 
L 57.883581 104.382393 
L 59.148482 47.825449 
L 59.634982 36.730224 
L 60.121482 31.081858 
L 60.510683 27.599207 
L 60.607983 27.222649 
L 60.705283 27.363095 
L 60.899883 29.964397 
L 61.191783 38.52956 
L 62.359384 81.996541 
L 62.553984 83.101789 
L 62.748584 83.032584 
L 63.040484 82.348674 
L 63.235084 82.523722 
L 63.526984 84.15208 
L 64.013485 88.231117 
L 64.110785 88.011289 
L 64.305385 86.586475 
L 64.889185 78.908767 
L 65.181085 77.634577 
L 65.375685 76.891639 
L 65.862186 74.424677 
L 66.056786 74.548839 
L 66.348686 75.617449 
L 66.640586 76.458089 
L 66.737886 76.41738 
L 66.932486 75.529925 
L 67.321686 71.444781 
L 67.613587 69.297384 
L 67.905487 68.59719 
L 68.294687 69.226144 
L 68.489287 70.361923 
L 68.878487 75.69276 
L 69.364988 82.281504 
L 69.559588 83.000017 
L 69.754188 82.926741 
L 69.948788 83.555694 
L 70.143388 85.849643 
L 70.435288 92.737598 
L 71.116389 110.53148 
L 71.894789 122.404245 
L 71.992089 122.878504 
L 72.089389 122.760448 
L 72.283989 121.390592 
L 72.673189 118.168479 
L 72.77049 118.577604 
L 72.96509 121.174835 
L 73.64619 132.565199 
L 73.74349 132.400328 
L 73.93809 129.65858 
L 74.22999 120.057374 
L 75.884091 48.584671 
L 76.467892 32.176928 
L 76.857092 22.0404 
L 77.051692 20.000881 
L 77.148992 19.931676 
L 77.343592 21.875528 
L 77.635492 29.032162 
L 78.024692 44.509705 
L 78.608493 65.440211 
L 78.803093 66.917946 
L 78.900393 66.614664 
L 79.289593 64.45709 
L 79.484193 66.04881 
L 79.873394 74.538662 
L 80.457194 85.186087 
L 80.943694 90.795781 
L 81.040994 90.913837 
L 81.138294 90.722505 
L 81.430194 88.644313 
L 82.305895 81.548743 
L 82.500495 81.497857 
L 82.597795 81.589452 
L 82.792395 82.018931 
L 82.986995 81.512105 
L 83.959996 75.869844 
L 84.543796 68.23081 
L 84.641096 68.387539 
L 84.835696 70.209265 
L 85.322197 76.423486 
L 85.516797 76.948631 
L 85.614097 76.64535 
L 86.295197 72.495072 
L 86.392497 72.495072 
L 86.587097 72.87163 
L 86.878997 74.208919 
L 87.170898 77.113503 
L 87.462798 82.403631 
L 88.046598 93.859129 
L 88.338498 95.827407 
L 88.727699 96.655834 
L 88.922299 97.956485 
L 89.116899 100.681949 
L 89.506099 111.455573 
L 89.895299 121.520861 
L 90.089899 122.961958 
L 90.187199 122.662747 
L 90.381799 119.971885 
L 90.6737 111.184858 
L 92.0359 57.644447 
L 93.398101 34.419991 
L 93.592701 33.913165 
L 93.787301 35.749139 
L 94.079202 43.766766 
L 94.760302 67.406454 
L 94.954902 68.23081 
L 95.149502 67.308752 
L 95.441402 66.484396 
L 95.636002 66.805997 
L 96.122503 70.420951 
L 97.095503 81.387942 
L 97.582003 83.417284 
L 98.068504 85.049712 
L 98.263104 85.106705 
L 98.555004 84.776963 
L 98.749604 84.766785 
L 98.944204 84.575453 
L 99.041504 84.557134 
L 99.333404 85.120953 
L 99.819905 87.162507 
L 99.917205 87.095337 
L 100.014505 86.891792 
L 100.209105 85.412022 
L 100.695605 80.49031 
L 100.792905 80.12393 
L 100.890205 80.241985 
L 101.084805 81.540601 
L 101.571306 85.701056 
L 101.668606 85.633886 
L 101.863206 84.502177 
L 103.225407 71.410179 
L 103.322707 71.611688 
L 103.517307 73.132167 
L 103.906507 79.845073 
L 104.490307 90.126119 
L 104.684907 90.940298 
L 104.782208 90.932156 
L 105.074108 90.321521 
L 105.268708 91.913241 
L 105.560608 98.729955 
L 106.144408 115.420625 
L 106.436308 118.799467 
L 106.533609 118.848318 
L 106.630909 118.636632 
L 106.825509 116.58083 
L 107.117409 108.475678 
L 108.090409 72.991722 
L 109.25801 53.638687 
L 109.93911 40.109067 
L 110.036411 40.135528 
L 110.231011 42.842673 
L 111.204011 65.130823 
L 111.398611 65.690571 
L 111.690511 66.181114 
L 111.787811 66.500679 
L 112.177012 70.044394 
L 112.858112 78.640088 
L 113.539212 83.948535 
L 113.733813 83.970925 
L 113.831113 83.858976 
L 114.123013 83.114002 
L 114.512213 82.961343 
L 114.901413 81.69326 
L 115.193313 80.667394 
L 115.290613 80.850584 
L 115.485214 82.423985 
L 116.166314 91.396238 
L 116.263614 91.268005 
L 116.555514 88.60971 
L 116.750114 86.861261 
L 116.847414 86.619043 
L 116.944714 86.826658 
L 117.236615 90.35816 
L 117.625815 95.864045 
L 118.112315 98.892791 
L 118.404215 99.851487 
L 118.501515 99.918656 
L 118.598815 99.763962 
L 118.793415 98.388 
L 119.669116 88.823432 
L 119.863716 89.887971 
L 120.252916 95.442707 
L 120.544816 98.827657 
L 120.642116 99.141116 
L 120.739417 99.059698 
L 120.934017 97.956485 
L 121.225917 96.002455 
L 121.323217 95.937321 
L 121.517817 96.910265 
L 121.809717 100.553716 
L 122.393517 111.37619 
L 122.685418 115.730013 
L 122.782718 116.381356 
L 122.880018 116.249052 
L 123.074618 113.60297 
L 123.366518 104.290798 
L 124.242219 74.300514 
L 124.826019 59.859014 
L 125.215219 53.117612 
L 125.604419 40.186414 
L 125.993619 28.584363 
L 126.18822 27.314244 
L 126.38282 29.221459 
L 126.86932 39.864813 
L 127.35582 48.637592 
L 127.64772 51.076058 
L 127.939621 52.307504 
L 128.134221 53.61019 
L 128.426121 56.921864 
L 129.593722 70.325285 
L 129.982922 71.143535 
L 130.177522 72.291528 
L 130.955922 77.656967 
L 131.150522 77.854406 
L 131.247822 78.159723 
L 131.442423 80.016051 
L 131.734323 86.643468 
L 132.123523 96.073696 
L 132.318123 97.862854 
L 132.415423 97.77533 
L 132.610023 96.784067 
L 133.096523 94.164446 
L 133.583024 93.517174 
L 133.680324 93.535493 
L 133.972224 94.111525 
L 134.361424 94.758797 
L 134.458724 94.781187 
L 134.653324 94.133915 
L 134.847924 92.800697 
L 135.139825 89.071757 
L 135.820925 79.136737 
L 135.918225 79.026823 
L 136.015525 79.350459 
L 136.307425 83.370468 
L 136.793926 91.31482 
L 136.988526 92.238913 
L 137.183126 91.935631 
L 137.377726 91.467478 
L 137.475026 91.308714 
L 137.669626 91.925454 
L 137.961526 95.324651 
L 138.253426 100.930274 
L 139.129127 121.339706 
L 139.226427 121.089346 
L 139.421027 118.239719 
L 139.712927 109.957484 
L 140.880528 70.545114 
L 141.269728 63.828137 
L 141.658928 51.458722 
L 142.340029 26.980431 
L 142.534629 24.586745 
L 142.631929 24.240718 
L 142.826529 26.208996 
L 143.118429 33.188546 
L 143.702229 48.362807 
L 144.09143 53.614261 
L 145.06443 63.649017 
L 145.550931 70.41688 
L 145.842831 72.655873 
L 146.815831 75.672406 
L 146.913131 75.57674 
L 147.399632 72.924552 
L 147.496932 73.219692 
L 147.691532 75.637803 
L 148.567232 90.972865 
L 148.664532 91.094992 
L 148.761832 90.940298 
L 149.637533 86.032834 
L 149.734833 86.077613 
L 150.026733 87.659156 
L 150.707833 94.119667 
L 151.097034 97.640991 
L 151.194334 97.728515 
L 151.388934 96.576452 
L 151.972734 89.727171 
L 152.070034 89.759738 
L 152.264634 91.345352 
L 152.848435 99.509532 
L 153.043035 100.177158 
L 153.140335 100.20769 
L 153.432235 99.54617 
L 153.626835 98.57119 
L 154.210635 94.056568 
L 154.307935 94.329318 
L 154.502536 96.90823 
L 155.475536 115.805324 
L 155.572836 116.283654 
L 155.670136 116.202236 
L 155.864736 114.374405 
L 156.156636 107.085467 
L 156.935037 83.232058 
L 157.421537 77.740421 
L 157.616137 74.945751 
L 157.908037 67.493978 
L 158.881038 37.75609 
L 159.075638 36.836068 
L 159.172938 37.14342 
L 159.367538 39.127981 
L 159.854039 48.887952 
L 160.243239 55.808474 
L 160.535139 58.163486 
L 160.924339 60.284423 
L 161.216239 63.132014 
L 161.508139 65.822875 
L 161.70274 66.073235 
L 161.89734 65.334368 
L 162.09194 64.650458 
L 162.18924 64.693202 
L 162.38384 65.957215 
L 162.87034 71.39186 
L 163.06494 71.682929 
L 163.454141 70.235726 
L 163.551441 70.333427 
L 163.648741 70.740517 
L 163.940641 74.499988 
L 165.010941 94.164446 
L 165.302842 96.020774 
L 165.497442 96.525565 
L 165.692042 96.214142 
L 166.178542 95.084469 
L 166.275842 95.157745 
L 166.470442 96.163256 
L 166.762342 99.255101 
L 167.248843 105.056126 
L 167.346143 105.251529 
L 167.540743 103.838928 
L 168.416443 91.361635 
L 168.513743 91.284288 
L 168.708344 92.02112 
L 169.000244 94.29268 
L 169.486744 98.481631 
L 169.584044 98.349326 
L 169.778644 97.099562 
L 170.265144 91.801292 
L 170.362444 91.658811 
L 170.459745 91.890852 
L 170.654345 93.584344 
L 171.043545 100.8916 
L 172.016545 122.797086 
L 172.211146 120.039055 
L 172.503046 110.523338 
L 173.184146 87.213393 
L 174.059847 68.741707 
L 175.324747 32.437466 
L 175.422047 32.52499 
L 175.616647 34.023079 
L 176.005848 40.21084 
L 176.395048 45.211934 
L 177.076148 50.011519 
L 177.659949 56.282733 
L 177.757249 56.282733 
L 177.951849 55.423774 
L 178.243749 54.01728 
L 178.341049 53.887011 
L 178.535649 54.520035 
L 178.924849 56.392647 
L 179.119449 56.626724 
L 179.70325 56.366186 
L 179.80055 56.649114 
L 179.99515 58.277472 
L 180.28705 63.111659 
L 181.065451 78.245211 
L 181.357351 80.689784 
L 182.233051 84.508283 
L 182.427651 84.978472 
L 182.622251 86.136641 
L 182.914152 90.498605 
L 183.400652 98.117285 
L 183.497952 98.514198 
L 183.595252 98.426673 
L 183.789852 97.235937 
L 184.568252 90.592236 
L 184.762853 90.360195 
L 184.860153 90.557633 
L 185.054753 92.006872 
L 185.735853 97.736657 
L 185.930453 97.138235 
L 186.903454 90.93012 
L 187.098054 92.067935 
L 187.389954 96.615125 
L 188.265655 114.10369 
L 188.362955 113.69253 
L 188.557555 110.686174 
L 189.627855 85.863891 
L 190.211656 76.572074 
L 190.698156 61.43038 
L 191.281956 44.304124 
L 191.573856 40.66678 
L 191.671156 40.428632 
L 191.768457 40.735985 
L 191.963057 42.504789 
L 192.449557 47.387827 
L 192.644157 47.803059 
L 192.741457 47.888548 
L 192.838757 47.660577 
L 192.936057 47.809165 
L 193.130657 48.904236 
L 193.909058 55.545901 
L 194.103658 55.383065 
L 194.298258 55.100138 
L 194.492858 55.661922 
L 194.784758 58.13499 
L 195.271259 62.053227 
L 195.465859 62.266949 
L 195.757759 61.756051 
L 195.952359 61.920923 
L 196.146959 63.243963 
L 196.438859 67.565218 
L 197.50916 88.469264 
L 197.89836 92.157495 
L 198.09296 92.179885 
L 198.28756 91.245615 
L 198.57946 89.401499 
L 198.67676 89.385216 
L 198.77406 89.743454 
L 198.968661 91.99873 
L 199.747061 104.305046 
L 199.844361 104.868865 
L 199.941661 104.809837 
L 200.038961 104.490272 
L 200.233561 102.59527 
L 200.622762 95.605543 
L 200.914662 90.942333 
L 201.109262 90.056913 
L 201.206562 90.264529 
L 201.498462 93.040879 
L 201.984962 97.809933 
L 202.082262 98.192597 
L 202.179562 98.078612 
L 202.374163 97.162661 
L 202.666063 94.669237 
L 203.055263 91.316855 
L 203.249863 90.828348 
L 203.444463 92.24909 
L 203.736363 98.601722 
L 204.417464 119.192309 
L 204.612064 120.397294 
L 204.709364 119.758163 
L 205.001264 113.953067 
L 205.682364 97.45373 
L 206.558065 82.01486 
L 206.947265 69.507035 
L 207.725666 40.247478 
L 208.017566 37.631928 
L 208.212166 37.900607 
L 208.893266 40.442881 
L 209.087866 42.177082 
L 209.574367 49.504693 
L 209.963567 54.157726 
L 210.741967 59.258557 
L 211.325768 65.100292 
L 211.520368 65.985711 
L 211.617668 65.883939 
L 211.812268 64.961881 
L 212.298768 62.419607 
L 212.493368 62.983426 
L 212.785268 65.558267 
L 213.174469 71.003089 
L 213.660969 81.389978 
L 214.147469 89.780092 
L 214.342069 90.626839 
L 214.439369 90.61259 
L 214.82857 90.073197 
L 214.92587 90.174969 
L 215.21777 92.503521 
L 215.50967 97.321425 
L 216.09347 108.235495 
L 216.19077 108.675152 
L 216.28807 108.512316 
L 216.48267 106.255005 
L 216.969171 94.911456 
L 217.358371 88.414307 
L 217.552971 87.508533 
L 217.650271 87.547207 
L 217.942171 89.000516 
L 218.525972 93.354338 
L 218.720572 93.56806 
L 218.915172 92.415997 
L 219.596272 85.139272 
L 219.693572 85.379455 
L 219.888172 87.852524 
L 220.180073 95.481381 
L 220.763873 111.974612 
L 220.958473 113.979528 
L 221.055773 114.030414 
L 221.250373 112.658522 
L 221.639573 106.277394 
L 222.320674 95.8844 
L 222.709874 91.329068 
L 223.001774 85.092457 
L 223.488274 67.172377 
L 223.974775 51.776252 
L 224.363975 46.659137 
L 224.753175 44.558555 
L 224.947775 44.179962 
L 225.045075 44.293947 
L 225.239675 45.301494 
L 225.726176 51.014995 
L 226.115376 54.3572 
L 226.309976 54.662517 
L 226.407276 54.595347 
L 226.796476 53.941968 
L 226.893776 54.143478 
L 227.185676 56.144323 
L 227.574877 59.5883 
L 227.769477 59.810164 
L 227.964077 59.160856 
L 228.450577 57.13355 
L 228.645177 56.968679 
L 228.839777 57.312669 
L 229.034378 58.20216 
L 229.228978 59.989283 
L 229.520878 65.621366 
L 230.493878 87.921729 
L 230.688478 88.754227 
L 230.785779 88.715553 
L 231.272279 87.565526 
L 231.369579 87.648979 
L 231.564179 88.770511 
L 231.953379 93.663726 
L 232.342579 97.79772 
L 232.439879 98.021619 
L 232.537179 97.79772 
L 232.73178 96.206 
L 233.70478 82.83311 
L 233.89938 82.415843 
L 233.99668 82.566467 
L 234.28858 84.253853 
L 235.066981 90.427365 
L 235.261581 89.613186 
L 235.845381 84.587666 
L 235.942681 84.687403 
L 236.137282 86.655681 
L 236.429182 93.006277 
L 237.012982 106.018893 
L 237.304882 108.314877 
L 237.402182 108.402402 
L 237.499482 108.131687 
L 237.791382 105.638264 
L 238.472483 98.624112 
L 238.861683 95.849797 
L 239.056283 92.564585 
L 239.348183 83.413213 
L 240.126584 54.536319 
L 240.613084 45.944695 
L 241.099584 40.790942 
L 241.294184 40.186414 
L 241.391484 40.204733 
L 241.586085 41.342548 
L 241.877985 44.723427 
L 242.364485 50.894903 
L 242.656385 52.248476 
L 242.753685 52.411312 
L 243.045585 54.10684 
L 243.823986 61.955525 
L 244.115886 62.663861 
L 244.310486 62.948824 
L 244.505086 63.1829 
L 244.602386 63.217503 
L 244.796986 62.944753 
L 245.186187 61.904639 
L 245.283487 62.100042 
L 245.478087 63.331488 
L 245.769987 67.994698 
L 246.840288 90.248245 
L 247.034888 90.968794 
L 247.229488 90.681796 
L 247.618688 89.804518 
L 247.715988 90.122048 
L 247.910588 91.856249 
L 248.786289 103.55193 
L 248.883589 103.566178 
L 249.078189 102.446682 
L 249.370089 99.320235 
L 250.148489 90.413117 
L 250.34309 89.902219 
L 250.44039 90.022311 
L 250.63499 91.011538 
L 251.12149 94.06878 
L 251.21879 93.812314 
L 251.41339 92.104574 
L 252.094491 82.151235 
L 252.191791 82.397524 
L 252.386391 84.453326 
L 252.775591 93.718683 
L 253.456691 111.602125 
L 253.748591 114.091477 
L 253.845891 114.10369 
L 254.137792 112.691089 
L 254.332392 111.793457 
L 254.429692 111.758855 
L 254.526992 111.994966 
L 255.013492 114.388653 
L 255.110792 114.201392 
L 255.305392 111.634692 
L 255.597292 102.939261 
L 256.764893 60.459471 
L 257.251393 51.464829 
L 257.445994 49.773372 
L 257.543294 49.65328 
L 257.640594 49.755053 
L 257.932494 51.853599 
L 258.321694 54.923054 
L 258.516294 55.324037 
L 258.710894 55.413597 
L 258.905494 55.539795 
L 259.100094 56.296981 
L 259.586595 60.652839 
L 260.073095 65.38729 
L 260.364995 66.57192 
L 260.462295 66.649267 
L 260.754195 65.979605 
L 261.143396 64.043894 
L 261.532596 62.334118 
L 261.629896 62.370756 
L 261.824496 63.504501 
L 262.116396 67.911245 
L 263.089397 87.832169 
L 263.283997 88.410236 
L 263.478597 87.793496 
L 263.770497 86.643468 
L 263.965097 87.020026 
L 264.256997 89.92868 
L 265.035398 99.196073 
L 265.132698 99.562453 
L 265.327298 98.907039 
L 265.521898 97.193192 
L 265.813798 92.67857 
L 266.494899 82.004683 
L 266.689499 81.428651 
L 266.884099 82.491155 
L 267.370599 85.772296 
L 267.565199 85.021216 
L 267.954399 79.667989 
L 268.2463 76.142594 
L 268.3436 75.721257 
L 268.4409 75.766036 
L 268.5382 76.313572 
L 268.7328 79.14895 
L 269.122 89.8839 
L 269.7058 107.974958 
L 269.900401 110.429707 
L 269.997701 110.600685 
L 270.095001 110.425636 
L 270.776101 106.031105 
L 270.970701 106.143055 
L 271.165301 106.364919 
L 271.359901 105.876411 
L 271.554501 103.816538 
L 271.846402 97.413021 
L 273.597803 44.322444 
L 273.695103 43.646675 
L 273.792403 43.6711 
L 273.987003 44.951397 
L 274.668103 51.759969 
L 274.960003 52.555829 
L 275.349204 52.932386 
L 275.641104 53.667183 
L 276.224904 56.795666 
L 277.003305 62.643506 
L 277.100605 62.767669 
L 277.197905 62.661825 
L 277.587105 60.715938 
L 277.879005 59.120147 
L 277.976305 59.034658 
L 278.073605 59.232096 
L 278.268205 60.893022 
L 278.462805 64.393991 
L 279.435806 86.193634 
L 279.630406 86.389037 
L 280.019606 85.3591 
L 280.116906 85.414058 
L 280.214206 85.650169 
L 280.408806 87.146223 
L 280.798007 92.7722 
L 281.284507 99.285632 
L 281.479107 100.696197 
L 281.576407 100.895671 
L 281.673707 100.720623 
L 281.868307 99.061733 
L 282.257507 90.903659 
L 282.646708 82.890103 
L 282.841308 81.42458 
L 282.938608 81.428651 
L 283.230508 83.893578 
L 283.522408 86.460278 
L 283.619708 86.76763 
L 283.717008 86.639397 
L 283.814308 86.211953 
L 284.106209 82.613282 
L 284.690009 74.186529 
L 284.787309 73.724483 
L 284.884609 73.864928 
L 285.079209 76.016396 
L 285.371109 84.021811 
L 285.95491 102.155613 
L 286.24681 105.642335 
L 286.44141 106.165445 
L 286.73331 106.130842 
L 286.83061 106.200047 
L 287.02521 107.087503 
L 287.609011 111.840272 
L 287.706311 111.732394 
L 287.803611 111.296808 
L 287.998211 108.766747 
L 288.387411 100.055031 
L 288.971211 83.394894 
L 289.944212 52.336 
L 290.236112 48.951051 
L 290.430712 48.136872 
L 290.625312 48.118553 
L 291.306413 49.573898 
L 292.279413 52.877429 
L 292.765913 57.520285 
L 293.349714 63.435296 
L 293.544314 63.936016 
L 293.641614 63.913626 
L 293.933514 62.728995 
L 294.225414 61.393742 
L 294.322714 61.328607 
L 294.517314 62.197743 
L 294.809215 66.429439 
L 295.684915 82.191944 
L 295.976815 82.928776 
L 296.171415 83.557729 
L 296.366015 84.622269 
L 296.852516 89.586725 
L 297.339016 96.222284 
L 297.825516 102.446682 
L 297.922816 102.792708 
L 298.020116 102.735716 
L 298.214716 100.946557 
L 298.506617 95.18217 
L 298.993117 86.480632 
L 299.187717 85.664418 
L 299.382317 86.370718 
L 300.063418 90.008063 
L 300.160718 89.786199 
L 300.355318 88.045891 
L 300.744518 81.485644 
L 301.036418 77.241736 
L 301.133718 76.714555 
L 301.231018 76.830575 
L 301.328318 77.467671 
L 301.620218 83.252412 
L 302.398619 102.011096 
L 302.690519 104.016012 
L 302.982419 105.111083 
L 303.177019 106.444301 
L 303.76082 111.079015 
L 303.85812 111.174681 
L 304.05272 110.399176 
L 304.34462 107.354146 
L 304.73382 100.105918 
L 305.22032 86.112216 
L 306.193321 55.83697 
L 306.485221 52.456092 
L 306.777121 51.021101 
L 306.971721 50.791096 
L 307.166322 51.234823 
L 307.652822 53.581694 
L 308.333922 57.550817 
L 308.820422 61.754016 
L 309.306923 64.573111 
L 309.501523 64.990377 
L 309.598823 65.004626 
L 309.793423 64.265758 
L 310.085323 61.27365 
L 310.571823 56.166712 
L 310.669124 56.105649 
L 310.863724 57.351343 
L 311.155624 62.138715 
L 311.642124 70.838218 
L 312.031324 74.599725 
L 312.517825 78.542387 
L 313.004325 84.762714 
L 313.490825 94.370027 
L 314.074625 106.132878 
L 314.171925 106.560322 
L 314.269226 106.16748 
L 314.463826 103.672022 
L 315.436826 85.613531 
L 315.534126 85.44866 
L 315.728726 86.279123 
L 316.312527 91.671023 
L 316.409827 91.591641 
L 316.604427 90.060984 
L 317.090927 80.993066 
L 317.382827 77.400501 
L 317.480127 77.243771 
L 317.577427 77.614223 
L 317.772028 80.321368 
L 318.745028 99.851487 
L 319.426128 104.547264 
L 319.912629 108.813562 
L 320.107229 109.312247 
L 320.204529 109.265431 
L 320.399129 108.280275 
L 320.691029 105.471357 
L 320.982929 100.612744 
L 321.46943 87.166578 
L 322.34513 60.353628 
L 322.73433 54.076308 
L 323.02623 51.670409 
L 323.220831 50.96818 
L 323.415431 50.752422 
L 323.610031 50.825698 
L 324.291131 52.555829 
L 324.680331 53.779133 
L 324.972232 55.969274 
L 325.458732 60.6793 
L 325.847932 63.905484 
L 325.945232 64.050001 
L 326.042532 63.813889 
L 326.237132 61.949419 
L 326.820933 54.558709 
L 326.918233 54.359235 
L 327.015533 54.560744 
L 327.210133 56.437427 
L 327.696633 65.29773 
L 328.183133 72.130727 
L 328.572334 74.497953 
L 328.766934 74.846014 
L 328.961534 74.683178 
L 329.058834 74.60176 
L 329.156134 74.697427 
L 329.350734 75.558421 
L 329.545334 78.03149 
L 330.031834 89.163352 
L 330.421035 95.47731 
L 330.518335 95.957676 
L 330.615635 95.733776 
L 330.810235 93.914086 
L 331.296735 84.740324 
L 331.588635 80.832265 
L 331.685935 80.46792 
L 331.783235 80.563586 
L 331.977836 81.988399 
L 332.367036 88.141557 
L 332.756236 92.766094 
L 332.853536 92.841406 
L 333.048136 91.327033 
L 333.729236 81.573168 
L 333.826537 81.534495 
L 334.021137 82.924705 
L 334.410337 89.403535 
L 334.896837 97.282752 
L 335.967138 110.340148 
L 336.259038 111.974612 
L 336.453638 112.371524 
L 336.745538 112.630026 
L 336.940138 112.070278 
L 337.134738 110.55387 
L 337.426639 105.731895 
L 337.815839 95.049866 
L 338.983439 60.549031 
L 339.27534 56.706106 
L 339.66454 54.534284 
L 339.95644 53.730282 
L 340.34564 52.991414 
L 340.54024 53.048407 
L 340.929441 53.111506 
L 341.124041 53.783203 
L 341.415941 56.763099 
L 342.097041 67.546899 
L 342.194341 67.842039 
L 342.291641 67.656814 
L 342.583541 64.609749 
L 343.070042 58.130919 
L 343.264642 57.632235 
L 343.459242 58.678455 
L 343.751142 62.401288 
L 344.334942 72.778 
L 344.821443 79.639493 
L 345.016043 80.343758 
L 345.307943 80.270482 
L 345.405243 80.380396 
L 345.502543 80.685713 
L 345.697143 82.33239 
L 346.086343 89.330259 
L 346.767444 103.116344 
L 346.962044 104.107607 
L 347.059344 103.786007 
L 347.253944 101.886934 
L 348.129645 89.5623 
L 348.226945 89.674249 
L 348.421545 90.956581 
L 348.908045 95.328722 
L 349.005345 95.222879 
L 349.102645 94.768974 
L 349.394545 90.673654 
L 349.978346 81.862202 
L 350.075646 81.481573 
L 350.172946 81.587416 
L 350.367546 82.814791 
L 351.243246 93.584344 
L 351.827047 103.425732 
L 352.410847 112.514006 
L 352.800047 116.114712 
L 352.994647 116.725346 
L 353.091947 116.723311 
L 353.286548 115.864352 
L 353.578448 112.509935 
L 353.870348 106.397486 
L 354.454148 88.809184 
L 355.135249 68.116825 
L 355.719049 58.124813 
L 356.010949 55.865466 
L 356.205549 55.370853 
L 356.594749 55.120492 
L 356.98395 53.097258 
L 357.27585 51.961478 
L 357.37315 51.959443 
L 357.56775 53.076903 
L 357.85965 56.781418 
L 358.34615 64.129383 
L 358.44345 64.567004 
L 358.54075 64.522224 
L 358.735351 63.203254 
L 359.513751 54.483397 
L 359.708351 54.049847 
L 359.805651 54.037634 
L 359.902951 54.322597 
L 360.097551 56.058834 
L 360.486752 63.508572 
L 360.973252 71.98621 
L 361.265152 73.866964 
L 361.557052 74.28016 
L 361.848952 74.829731 
L 362.043552 76.321714 
L 362.335453 80.960498 
L 363.113853 96.057413 
L 363.308453 96.928584 
L 363.503053 95.919002 
L 363.892253 89.871688 
L 364.281454 84.783069 
L 364.378754 84.406511 
L 364.476054 84.528638 
L 364.670654 85.684772 
L 365.157154 89.747525 
L 365.254454 89.796376 
L 365.449054 88.752191 
L 366.227455 80.492346 
L 366.324755 80.427211 
L 366.422055 80.604295 
L 366.713955 82.434162 
L 367.589656 90.520995 
L 369.341057 110.969101 
L 369.438357 111.30495 
L 369.632957 110.769627 
L 369.924857 107.708314 
L 370.314057 100.079457 
L 371.676258 65.999959 
L 372.065458 62.262878 
L 372.357358 61.381529 
L 372.649258 60.726115 
L 372.843859 59.643257 
L 373.622259 52.28715 
L 373.719559 52.462198 
L 373.914159 54.287994 
L 374.78986 66.392801 
L 374.88716 66.508821 
L 374.98446 66.315454 
L 375.27636 64.52426 
L 375.95746 60.027956 
L 376.05476 59.879369 
L 376.15206 60.007602 
L 376.34666 60.998865 
L 376.638561 64.282042 
L 377.416961 75.240891 
L 377.611561 75.924801 
L 377.708861 75.975688 
L 378.000761 76.920135 
L 378.195362 78.106801 
L 378.487262 81.269886 
L 379.460262 96.839024 
L 379.557562 96.999825 
L 379.752162 95.8844 
L 380.044063 92.163601 
L 380.530563 86.425675 
L 380.627863 86.332044 
L 380.822463 87.431186 
L 381.308963 91.842001 
L 381.406263 91.939702 
L 381.600863 90.482322 
L 382.573864 78.756109 
L 382.671164 78.644159 
L 382.768464 78.707258 
L 383.060364 79.777903 
L 383.741465 83.897649 
L 384.519865 90.380549 
L 385.979366 108.762676 
L 386.076666 108.654797 
L 386.271266 107.376536 
L 386.563166 102.607483 
L 387.146967 87.614376 
L 388.022667 63.506536 
L 388.411867 59.107934 
L 388.606467 58.582789 
L 388.801068 58.303932 
L 388.995668 57.565065 
L 389.190268 55.749446 
L 389.774068 48.820782 
L 389.871368 48.619273 
L 390.065968 49.628855 
L 390.357868 53.589836 
L 391.428169 71.100791 
L 391.525469 71.340974 
L 391.622769 71.288052 
L 391.817369 70.392455 
L 392.59577 64.68506 
L 392.79037 65.259056 
L 392.98497 66.810067 
L 393.76337 74.98646 
L 394.05527 75.979758 
L 394.152571 75.900376 
L 394.347171 76.207729 
L 394.639071 77.968391 
L 394.930971 81.71972 
L 395.806671 94.304892 
L 395.903972 94.111525 
L 396.098572 92.411926 
L 396.682372 85.275647 
L 396.779672 85.029358 
L 396.876972 85.076173 
L 397.071572 86.079649 
L 397.655372 90.11187 
L 397.752673 90.209572 
L 397.947273 89.002552 
L 398.239173 85.308214 
L 398.822973 78.544422 
L 399.212173 76.397025 
L 399.406773 76.203658 
L 399.504074 76.293217 
L 399.893274 78.493536 
L 400.477074 83.315511 
L 401.060874 89.100253 
L 402.325775 97.921882 
L 402.520375 97.942237 
L 402.812275 96.488927 
L 403.104176 92.83937 
L 403.493376 83.871188 
L 404.271776 61.884285 
L 404.563676 59.050942 
L 404.660976 58.904389 
L 404.855577 59.61069 
L 405.147477 60.836029 
L 405.439377 61.072141 
L 405.633977 60.785143 
L 405.925877 60.164331 
L 406.120477 60.11141 
L 406.315077 60.833994 
L 406.606978 63.290779 
L 407.774578 75.615413 
L 407.871878 75.544173 
L 407.969178 75.289742 
L 408.261078 72.712865 
L 409.136779 63.437331 
L 409.331379 63.1829 
L 409.525979 63.775215 
L 409.915179 66.665551 
L 410.88818 75.853561 
L 411.27738 80.958463 
L 411.958481 91.81554 
L 412.153081 92.194133 
L 412.347681 91.438982 
L 412.931481 87.734468 
L 413.126081 88.078458 
L 413.417981 90.254352 
L 413.807182 93.026631 
L 414.001782 93.297346 
L 414.099082 93.301417 
L 414.293682 92.992029 
L 414.585582 91.426769 
L 415.655883 81.530424 
L 416.045083 80.128 
L 416.142383 80.178887 
L 416.336983 80.791556 
L 417.407284 87.26835 
L 417.601884 87.779248 
L 417.699184 87.754822 
L 417.893784 87.933942 
L 417.991084 87.944119 
L 418.282984 87.400654 
L 418.380284 87.20118 
L 418.477584 87.26835 
L 418.866784 86.76763 
L 419.061385 86.228237 
L 419.255985 85.322462 
L 419.450585 83.661537 
L 419.742485 78.743896 
L 420.618185 59.826447 
L 420.812786 59.244309 
L 421.007386 60.076807 
L 422.856087 75.271423 
L 423.926387 86.173279 
L 424.023687 86.332044 
L 424.120987 86.195669 
L 424.412888 84.406511 
L 425.872388 68.817019 
L 426.066988 68.530021 
L 426.261589 68.507631 
L 426.456189 68.668431 
L 426.748089 68.414 
L 426.845389 68.310192 
L 426.942689 68.397717 
L 427.137289 69.407298 
L 427.429189 73.272613 
L 428.30489 87.058699 
L 428.40219 87.323307 
L 428.49949 87.239854 
L 428.88869 86.513199 
L 429.08329 87.144188 
L 429.37519 89.651859 
L 430.445491 101.797374 
L 430.542791 101.907289 
L 430.737391 101.042223 
L 431.029291 98.546765 
L 431.613092 91.868462 
L 432.391492 82.926741 
L 432.683392 81.475467 
L 432.975292 80.870939 
L 433.656393 81.552814 
L 433.948293 81.882556 
L 434.142893 81.939549 
L 434.240193 81.886627 
L 434.629393 80.433318 
L 434.921293 79.657812 
L 435.018594 79.619139 
L 435.213194 80.109681 
L 435.505094 80.809875 
L 435.602394 80.74067 
L 435.796994 79.710734 
L 436.088894 75.979758 
L 436.769995 65.544019 
L 436.964595 64.656564 
L 437.061895 64.634174 
L 437.159195 64.727805 
L 437.353795 65.489062 
L 437.840295 69.156938 
L 438.618696 75.23682 
L 439.980896 83.993315 
L 440.175496 84.194825 
L 440.370097 83.598438 
L 440.661997 81.961939 
L 440.953897 79.515331 
L 441.245797 75.908518 
L 441.926897 67.186625 
L 442.802598 62.177389 
L 443.094498 61.06807 
L 443.191798 60.933731 
L 443.386398 61.642066 
L 443.580998 63.732471 
L 443.872899 69.863239 
L 444.456699 82.601069 
L 444.748599 85.365207 
L 445.040499 86.443994 
L 445.332399 86.804268 
L 445.526999 87.20118 
L 445.8189 88.809184 
L 446.5 94.600032 
L 446.5 94.600032 
" style="fill:none;stroke:#1f77b4;stroke-linecap:square;stroke-width:1.5;"/>
   </g>
   <g id="patch_3">
    <path d="M 24.801563 138.196875 
L 24.801563 14.3 
" style="fill:none;stroke:#000000;stroke-linecap:square;stroke-linejoin:miter;stroke-width:0.8;"/>
   </g>
   <g id="patch_4">
    <path d="M 446.5 138.196875 
L 446.5 14.3 
" style="fill:none;stroke:#000000;stroke-linecap:square;stroke-linejoin:miter;stroke-width:0.8;"/>
   </g>
   <g id="patch_5">
    <path d="M 24.801563 138.196875 
L 446.5 138.196875 
" style="fill:none;stroke:#000000;stroke-linecap:square;stroke-linejoin:miter;stroke-width:0.8;"/>
   </g>
   <g id="patch_6">
    <path d="M 24.801563 14.3 
L 446.5 14.3 
" style="fill:none;stroke:#000000;stroke-linecap:square;stroke-linejoin:miter;stroke-width:0.8;"/>
   </g>
  </g>
 </g>
 <defs>
  <clipPath id="pa165886939">
   <rect height="123.896875" width="421.698438" x="24.801563" y="14.3"/>
  </clipPath>
 </defs>
</svg>
