<?xml version="1.0" encoding="utf-8" standalone="no"?>
<?xml-stylesheet type="text/css" href="https://fonts.googleapis.com/css?family=Open+Sans:300italic,400italic,600italic,700italic,400,600,700,300&amp;subset=latin,cyrillic-ext,latin-ext,cyrillic" ?>
<!DOCTYPE svg PUBLIC "-//W3C//DTD SVG 1.1//EN"
  "http://www.w3.org/Graphics/SVG/1.1/DTD/svg11.dtd">
<!-- Created with matplotlib (http://matplotlib.org/) -->
<svg height="288pt" version="1.1" viewBox="0 0 460.8 288" width="460.8pt" xmlns="http://www.w3.org/2000/svg" xmlns:xlink="http://www.w3.org/1999/xlink">
 <defs>
  <style type="text/css">
*{stroke-linecap:butt;stroke-linejoin:round;}
  </style>
 </defs>
 <g id="figure_1">
  <g id="patch_1">
   <path d="M 0 288 
L 460.8 288 
L 460.8 0 
L 0 0 
z
" style="fill:#fefefe;"/>
  </g>
  <g id="axes_1">
   <g id="patch_2">
    <path clip-path="url(#pfd55a329f2)" d="M 183.293145 505.797656 
C 215.859982 505.797656 247.09735 492.858715 270.125581 469.830483 
C 293.153812 446.802252 306.092754 415.564884 306.092754 382.998047 
C 306.092754 350.43121 293.153812 319.193842 270.125581 296.16561 
C 247.09735 273.137379 215.859982 260.198438 183.293145 260.198438 
C 150.726307 260.198438 119.488939 273.137379 96.460708 296.16561 
C 73.432477 319.193842 60.493535 350.43121 60.493535 382.998047 
C 60.493535 415.564884 73.432477 446.802252 96.460708 469.830483 
C 119.488939 492.858715 150.726307 505.797656 183.293145 505.797656 
z
" style="fill:none;stroke:#0000ff;stroke-dasharray:1,1.65;stroke-dashoffset:0;stroke-linejoin:miter;"/>
   </g>
   <g id="patch_3">
    <path clip-path="url(#pfd55a329f2)" d="M 183.293145 389.138027 
C 184.921486 389.138027 186.483355 388.49108 187.634766 387.339669 
C 188.786178 386.188257 189.433125 384.626389 189.433125 382.998047 
C 189.433125 381.369705 188.786178 379.807837 187.634766 378.656425 
C 186.483355 377.505013 184.921486 376.858066 183.293145 376.858066 
C 181.664803 376.858066 180.102934 377.505013 178.951523 378.656425 
C 177.800111 379.807837 177.153164 381.369705 177.153164 382.998047 
C 177.153164 384.626389 177.800111 386.188257 178.951523 387.339669 
C 180.102934 388.49108 181.664803 389.138027 183.293145 389.138027 
z
" style="fill:none;stroke:#0000ff;stroke-linejoin:miter;"/>
   </g>
   <g id="patch_4">
    <path clip-path="url(#pfd55a329f2)" d="M 183.293145 473.051094 
C 215.859982 473.051094 247.09735 460.112152 270.125581 437.083921 
C 293.153812 414.05569 306.092754 382.818321 306.092754 350.251484 
C 306.092754 317.684647 293.153812 286.447279 270.125581 263.419048 
C 247.09735 240.390817 215.859982 227.451875 183.293145 227.451875 
C 150.726307 227.451875 119.488939 240.390817 96.460708 263.419048 
C 73.432477 286.447279 60.493535 317.684647 60.493535 350.251484 
C 60.493535 382.818321 73.432477 414.05569 96.460708 437.083921 
C 119.488939 460.112152 150.726307 473.051094 183.293145 473.051094 
z
" style="fill:none;stroke:#0000ff;stroke-dasharray:1,1.65;stroke-dashoffset:0;stroke-linejoin:miter;"/>
   </g>
   <g id="patch_5">
    <path clip-path="url(#pfd55a329f2)" d="M 183.293145 356.391465 
C 184.921486 356.391465 186.483355 355.744518 187.634766 354.593106 
C 188.786178 353.441695 189.433125 351.879826 189.433125 350.251484 
C 189.433125 348.623143 188.786178 347.061274 187.634766 345.909863 
C 186.483355 344.758451 184.921486 344.111504 183.293145 344.111504 
C 181.664803 344.111504 180.102934 344.758451 178.951523 345.909863 
C 177.800111 347.061274 177.153164 348.623143 177.153164 350.251484 
C 177.153164 351.879826 177.800111 353.441695 178.951523 354.593106 
C 180.102934 355.744518 181.664803 356.391465 183.293145 356.391465 
z
" style="fill:none;stroke:#0000ff;stroke-linejoin:miter;"/>
   </g>
   <g id="patch_6">
    <path clip-path="url(#pfd55a329f2)" d="M 183.293145 440.304531 
C 215.859982 440.304531 247.09735 427.36559 270.125581 404.337358 
C 293.153812 381.309127 306.092754 350.071759 306.092754 317.504922 
C 306.092754 284.938085 293.153812 253.700717 270.125581 230.672485 
C 247.09735 207.644254 215.859982 194.705313 183.293145 194.705313 
C 150.726307 194.705313 119.488939 207.644254 96.460708 230.672485 
C 73.432477 253.700717 60.493535 284.938085 60.493535 317.504922 
C 60.493535 350.071759 73.432477 381.309127 96.460708 404.337358 
C 119.488939 427.36559 150.726307 440.304531 183.293145 440.304531 
z
" style="fill:none;stroke:#0000ff;stroke-dasharray:1,1.65;stroke-dashoffset:0;stroke-linejoin:miter;"/>
   </g>
   <g id="patch_7">
    <path clip-path="url(#pfd55a329f2)" d="M 183.293145 323.644902 
C 184.921486 323.644902 186.483355 322.997955 187.634766 321.846544 
C 188.786178 320.695132 189.433125 319.133264 189.433125 317.504922 
C 189.433125 315.87658 188.786178 314.314712 187.634766 313.1633 
C 186.483355 312.011888 184.921486 311.364941 183.293145 311.364941 
C 181.664803 311.364941 180.102934 312.011888 178.951523 313.1633 
C 177.800111 314.314712 177.153164 315.87658 177.153164 317.504922 
C 177.153164 319.133264 177.800111 320.695132 178.951523 321.846544 
C 180.102934 322.997955 181.664803 323.644902 183.293145 323.644902 
z
" style="fill:none;stroke:#0000ff;stroke-linejoin:miter;"/>
   </g>
   <g id="patch_8">
    <path clip-path="url(#pfd55a329f2)" d="M 183.293145 407.557969 
C 215.859982 407.557969 247.09735 394.619027 270.125581 371.590796 
C 293.153812 348.562565 306.092754 317.325196 306.092754 284.758359 
C 306.092754 252.191522 293.153812 220.954154 270.125581 197.925923 
C 247.09735 174.897692 215.859982 161.95875 183.293145 161.95875 
C 150.726307 161.95875 119.488939 174.897692 96.460708 197.925923 
C 73.432477 220.954154 60.493535 252.191522 60.493535 284.758359 
C 60.493535 317.325196 73.432477 348.562565 96.460708 371.590796 
C 119.488939 394.619027 150.726307 407.557969 183.293145 407.557969 
z
" style="fill:none;stroke:#0000ff;stroke-dasharray:1,1.65;stroke-dashoffset:0;stroke-linejoin:miter;"/>
   </g>
   <g id="patch_9">
    <path clip-path="url(#pfd55a329f2)" d="M 183.293145 290.89834 
C 184.921486 290.89834 186.483355 290.251393 187.634766 289.099981 
C 188.786178 287.94857 189.433125 286.386701 189.433125 284.758359 
C 189.433125 283.130018 188.786178 281.568149 187.634766 280.416738 
C 186.483355 279.265326 184.921486 278.618379 183.293145 278.618379 
C 181.664803 278.618379 180.102934 279.265326 178.951523 280.416738 
C 177.800111 281.568149 177.153164 283.130018 177.153164 284.758359 
C 177.153164 286.386701 177.800111 287.94857 178.951523 289.099981 
C 180.102934 290.251393 181.664803 290.89834 183.293145 290.89834 
z
" style="fill:none;stroke:#0000ff;stroke-linejoin:miter;"/>
   </g>
   <g id="patch_10">
    <path clip-path="url(#pfd55a329f2)" d="M 183.293145 374.811406 
C 215.859982 374.811406 247.09735 361.872465 270.125581 338.844233 
C 293.153812 315.816002 306.092754 284.578634 306.092754 252.011797 
C 306.092754 219.44496 293.153812 188.207592 270.125581 165.17936 
C 247.09735 142.151129 215.859982 129.212188 183.293145 129.212188 
C 150.726307 129.212188 119.488939 142.151129 96.460708 165.17936 
C 73.432477 188.207592 60.493535 219.44496 60.493535 252.011797 
C 60.493535 284.578634 73.432477 315.816002 96.460708 338.844233 
C 119.488939 361.872465 150.726307 374.811406 183.293145 374.811406 
z
" style="fill:none;stroke:#0000ff;stroke-dasharray:1,1.65;stroke-dashoffset:0;stroke-linejoin:miter;"/>
   </g>
   <g id="patch_11">
    <path clip-path="url(#pfd55a329f2)" d="M 183.293145 258.151777 
C 184.921486 258.151777 186.483355 257.50483 187.634766 256.353419 
C 188.786178 255.202007 189.433125 253.640139 189.433125 252.011797 
C 189.433125 250.383455 188.786178 248.821587 187.634766 247.670175 
C 186.483355 246.518763 184.921486 245.871816 183.293145 245.871816 
C 181.664803 245.871816 180.102934 246.518763 178.951523 247.670175 
C 177.800111 248.821587 177.153164 250.383455 177.153164 252.011797 
C 177.153164 253.640139 177.800111 255.202007 178.951523 256.353419 
C 180.102934 257.50483 181.664803 258.151777 183.293145 258.151777 
z
" style="fill:none;stroke:#0000ff;stroke-linejoin:miter;"/>
   </g>
   <g id="patch_12">
    <path clip-path="url(#pfd55a329f2)" d="M 183.293145 342.064844 
C 215.859982 342.064844 247.09735 329.125902 270.125581 306.097671 
C 293.153812 283.06944 306.092754 251.832071 306.092754 219.265234 
C 306.092754 186.698397 293.153812 155.461029 270.125581 132.432798 
C 247.09735 109.404567 215.859982 96.465625 183.293145 96.465625 
C 150.726307 96.465625 119.488939 109.404567 96.460708 132.432798 
C 73.432477 155.461029 60.493535 186.698397 60.493535 219.265234 
C 60.493535 251.832071 73.432477 283.06944 96.460708 306.097671 
C 119.488939 329.125902 150.726307 342.064844 183.293145 342.064844 
z
" style="fill:none;stroke:#0000ff;stroke-dasharray:1,1.65;stroke-dashoffset:0;stroke-linejoin:miter;"/>
   </g>
   <g id="patch_13">
    <path clip-path="url(#pfd55a329f2)" d="M 183.293145 225.405215 
C 184.921486 225.405215 186.483355 224.758268 187.634766 223.606856 
C 188.786178 222.455445 189.433125 220.893576 189.433125 219.265234 
C 189.433125 217.636893 188.786178 216.075024 187.634766 214.923613 
C 186.483355 213.772201 184.921486 213.125254 183.293145 213.125254 
C 181.664803 213.125254 180.102934 213.772201 178.951523 214.923613 
C 177.800111 216.075024 177.153164 217.636893 177.153164 219.265234 
C 177.153164 220.893576 177.800111 222.455445 178.951523 223.606856 
C 180.102934 224.758268 181.664803 225.405215 183.293145 225.405215 
z
" style="fill:none;stroke:#0000ff;stroke-linejoin:miter;"/>
   </g>
   <g id="patch_14">
    <path clip-path="url(#pfd55a329f2)" d="M 183.293145 309.318281 
C 215.859982 309.318281 247.09735 296.37934 270.125581 273.351108 
C 293.153812 250.322877 306.092754 219.085509 306.092754 186.518672 
C 306.092754 153.951835 293.153812 122.714467 270.125581 99.686235 
C 247.09735 76.658004 215.859982 63.719063 183.293145 63.719063 
C 150.726307 63.719063 119.488939 76.658004 96.460708 99.686235 
C 73.432477 122.714467 60.493535 153.951835 60.493535 186.518672 
C 60.493535 219.085509 73.432477 250.322877 96.460708 273.351108 
C 119.488939 296.37934 150.726307 309.318281 183.293145 309.318281 
z
" style="fill:none;stroke:#0000ff;stroke-dasharray:1,1.65;stroke-dashoffset:0;stroke-linejoin:miter;"/>
   </g>
   <g id="patch_15">
    <path clip-path="url(#pfd55a329f2)" d="M 183.293145 192.658652 
C 184.921486 192.658652 186.483355 192.011705 187.634766 190.860294 
C 188.786178 189.708882 189.433125 188.147014 189.433125 186.518672 
C 189.433125 184.89033 188.786178 183.328462 187.634766 182.17705 
C 186.483355 181.025638 184.921486 180.378691 183.293145 180.378691 
C 181.664803 180.378691 180.102934 181.025638 178.951523 182.17705 
C 177.800111 183.328462 177.153164 184.89033 177.153164 186.518672 
C 177.153164 188.147014 177.800111 189.708882 178.951523 190.860294 
C 180.102934 192.011705 181.664803 192.658652 183.293145 192.658652 
z
" style="fill:none;stroke:#0000ff;stroke-linejoin:miter;"/>
   </g>
   <g id="patch_16">
    <path clip-path="url(#pfd55a329f2)" d="M 183.293145 276.571719 
C 215.859982 276.571719 247.09735 263.632777 270.125581 240.604546 
C 293.153812 217.576315 306.092754 186.338946 306.092754 153.772109 
C 306.092754 121.205272 293.153812 89.967904 270.125581 66.939673 
C 247.09735 43.911442 215.859982 30.9725 183.293145 30.9725 
C 150.726307 30.9725 119.488939 43.911442 96.460708 66.939673 
C 73.432477 89.967904 60.493535 121.205272 60.493535 153.772109 
C 60.493535 186.338946 73.432477 217.576315 96.460708 240.604546 
C 119.488939 263.632777 150.726307 276.571719 183.293145 276.571719 
z
" style="fill:none;stroke:#0000ff;stroke-dasharray:1,1.65;stroke-dashoffset:0;stroke-linejoin:miter;"/>
   </g>
   <g id="patch_17">
    <path clip-path="url(#pfd55a329f2)" d="M 183.293145 159.91209 
C 184.921486 159.91209 186.483355 159.265143 187.634766 158.113731 
C 188.786178 156.96232 189.433125 155.400451 189.433125 153.772109 
C 189.433125 152.143768 188.786178 150.581899 187.634766 149.430488 
C 186.483355 148.279076 184.921486 147.632129 183.293145 147.632129 
C 181.664803 147.632129 180.102934 148.279076 178.951523 149.430488 
C 177.800111 150.581899 177.153164 152.143768 177.153164 153.772109 
C 177.153164 155.400451 177.800111 156.96232 178.951523 158.113731 
C 180.102934 159.265143 181.664803 159.91209 183.293145 159.91209 
z
" style="fill:none;stroke:#0000ff;stroke-linejoin:miter;"/>
   </g>
   <g id="patch_18">
    <path clip-path="url(#pfd55a329f2)" d="M 183.293145 243.825156 
C 215.859982 243.825156 247.09735 230.886215 270.125581 207.857983 
C 293.153812 184.829752 306.092754 153.592384 306.092754 121.025547 
C 306.092754 88.45871 293.153812 57.221342 270.125581 34.19311 
C 247.09735 11.164879 215.859982 -1.774062 183.293145 -1.774062 
C 150.726307 -1.774062 119.488939 11.164879 96.460708 34.19311 
C 73.432477 57.221342 60.493535 88.45871 60.493535 121.025547 
C 60.493535 153.592384 73.432477 184.829752 96.460708 207.857983 
C 119.488939 230.886215 150.726307 243.825156 183.293145 243.825156 
z
" style="fill:none;stroke:#0000ff;stroke-dasharray:1,1.65;stroke-dashoffset:0;stroke-linejoin:miter;"/>
   </g>
   <g id="patch_19">
    <path clip-path="url(#pfd55a329f2)" d="M 183.293145 127.165527 
C 184.921486 127.165527 186.483355 126.51858 187.634766 125.367169 
C 188.786178 124.215757 189.433125 122.653889 189.433125 121.025547 
C 189.433125 119.397205 188.786178 117.835337 187.634766 116.683925 
C 186.483355 115.532513 184.921486 114.885566 183.293145 114.885566 
C 181.664803 114.885566 180.102934 115.532513 178.951523 116.683925 
C 177.800111 117.835337 177.153164 119.397205 177.153164 121.025547 
C 177.153164 122.653889 177.800111 124.215757 178.951523 125.367169 
C 180.102934 126.51858 181.664803 127.165527 183.293145 127.165527 
z
" style="fill:none;stroke:#0000ff;stroke-linejoin:miter;"/>
   </g>
   <g id="patch_20">
    <path clip-path="url(#pfd55a329f2)" d="M 183.293145 211.078594 
C 215.859982 211.078594 247.09735 198.139652 270.125581 175.111421 
C 293.153812 152.08319 306.092754 120.845821 306.092754 88.278984 
C 306.092754 55.712147 293.153812 24.474779 270.125581 1.446548 
C 247.09735 -21.581683 215.859982 -34.520625 183.293145 -34.520625 
C 150.726307 -34.520625 119.488939 -21.581683 96.460708 1.446548 
C 73.432477 24.474779 60.493535 55.712147 60.493535 88.278984 
C 60.493535 120.845821 73.432477 152.08319 96.460708 175.111421 
C 119.488939 198.139652 150.726307 211.078594 183.293145 211.078594 
z
" style="fill:none;stroke:#0000ff;stroke-dasharray:1,1.65;stroke-dashoffset:0;stroke-linejoin:miter;"/>
   </g>
   <g id="patch_21">
    <path clip-path="url(#pfd55a329f2)" d="M 183.293145 94.418965 
C 184.921486 94.418965 186.483355 93.772018 187.634766 92.620606 
C 188.786178 91.469195 189.433125 89.907326 189.433125 88.278984 
C 189.433125 86.650643 188.786178 85.088774 187.634766 83.937363 
C 186.483355 82.785951 184.921486 82.139004 183.293145 82.139004 
C 181.664803 82.139004 180.102934 82.785951 178.951523 83.937363 
C 177.800111 85.088774 177.153164 86.650643 177.153164 88.278984 
C 177.153164 89.907326 177.800111 91.469195 178.951523 92.620606 
C 180.102934 93.772018 181.664803 94.418965 183.293145 94.418965 
z
" style="fill:none;stroke:#0000ff;stroke-linejoin:miter;"/>
   </g>
   <g id="patch_22">
    <path clip-path="url(#pfd55a329f2)" d="M 183.293145 178.332031 
C 215.859982 178.332031 247.09735 165.39309 270.125581 142.364858 
C 293.153812 119.336627 306.092754 88.099259 306.092754 55.532422 
C 306.092754 22.965585 293.153812 -8.271783 270.125581 -31.300015 
C 247.09735 -54.328246 215.859982 -67.267187 183.293145 -67.267187 
C 150.726307 -67.267187 119.488939 -54.328246 96.460708 -31.300015 
C 73.432477 -8.271783 60.493535 22.965585 60.493535 55.532422 
C 60.493535 88.099259 73.432477 119.336627 96.460708 142.364858 
C 119.488939 165.39309 150.726307 178.332031 183.293145 178.332031 
z
" style="fill:none;stroke:#0000ff;stroke-dasharray:1,1.65;stroke-dashoffset:0;stroke-linejoin:miter;"/>
   </g>
   <g id="patch_23">
    <path clip-path="url(#pfd55a329f2)" d="M 183.293145 61.672402 
C 184.921486 61.672402 186.483355 61.025455 187.634766 59.874044 
C 188.786178 58.722632 189.433125 57.160764 189.433125 55.532422 
C 189.433125 53.90408 188.786178 52.342212 187.634766 51.1908 
C 186.483355 50.039388 184.921486 49.392441 183.293145 49.392441 
C 181.664803 49.392441 180.102934 50.039388 178.951523 51.1908 
C 177.800111 52.342212 177.153164 53.90408 177.153164 55.532422 
C 177.153164 57.160764 177.800111 58.722632 178.951523 59.874044 
C 180.102934 61.025455 181.664803 61.672402 183.293145 61.672402 
z
" style="fill:none;stroke:#0000ff;stroke-linejoin:miter;"/>
   </g>
   <g id="patch_24">
    <path clip-path="url(#pfd55a329f2)" d="M 183.293145 145.585469 
C 215.859982 145.585469 247.09735 132.646527 270.125581 109.618296 
C 293.153812 86.590065 306.092754 55.352696 306.092754 22.785859 
C 306.092754 -9.780978 293.153812 -41.018346 270.125581 -64.046577 
C 247.09735 -87.074808 215.859982 -100.01375 183.293145 -100.01375 
C 150.726307 -100.01375 119.488939 -87.074808 96.460708 -64.046577 
C 73.432477 -41.018346 60.493535 -9.780978 60.493535 22.785859 
C 60.493535 55.352696 73.432477 86.590065 96.460708 109.618296 
C 119.488939 132.646527 150.726307 145.585469 183.293145 145.585469 
z
" style="fill:none;stroke:#0000ff;stroke-dasharray:1,1.65;stroke-dashoffset:0;stroke-linejoin:miter;"/>
   </g>
   <g id="patch_25">
    <path clip-path="url(#pfd55a329f2)" d="M 183.293145 28.92584 
C 184.921486 28.92584 186.483355 28.278893 187.634766 27.127481 
C 188.786178 25.97607 189.433125 24.414201 189.433125 22.785859 
C 189.433125 21.157518 188.786178 19.595649 187.634766 18.444238 
C 186.483355 17.292826 184.921486 16.645879 183.293145 16.645879 
C 181.664803 16.645879 180.102934 17.292826 178.951523 18.444238 
C 177.800111 19.595649 177.153164 21.157518 177.153164 22.785859 
C 177.153164 24.414201 177.800111 25.97607 178.951523 27.127481 
C 180.102934 28.278893 181.664803 28.92584 183.293145 28.92584 
z
" style="fill:none;stroke:#0000ff;stroke-linejoin:miter;"/>
   </g>
   <g id="patch_26">
    <path clip-path="url(#pfd55a329f2)" d="M 183.293145 112.838906 
C 215.859982 112.838906 247.09735 99.899965 270.125581 76.871733 
C 293.153812 53.843502 306.092754 22.606134 306.092754 -9.960703 
C 306.092754 -42.52754 293.153812 -73.764908 270.125581 -96.79314 
C 247.09735 -119.821371 215.859982 -132.760312 183.293145 -132.760312 
C 150.726307 -132.760312 119.488939 -119.821371 96.460708 -96.79314 
C 73.432477 -73.764908 60.493535 -42.52754 60.493535 -9.960703 
C 60.493535 22.606134 73.432477 53.843502 96.460708 76.871733 
C 119.488939 99.899965 150.726307 112.838906 183.293145 112.838906 
z
" style="fill:none;stroke:#0000ff;stroke-dasharray:1,1.65;stroke-dashoffset:0;stroke-linejoin:miter;"/>
   </g>
   <g id="patch_27">
    <path clip-path="url(#pfd55a329f2)" d="M 183.293145 -3.820723 
C 184.921486 -3.820723 186.483355 -4.46767 187.634766 -5.619081 
C 188.786178 -6.770493 189.433125 -8.332361 189.433125 -9.960703 
C 189.433125 -11.589045 188.786178 -13.150913 187.634766 -14.302325 
C 186.483355 -15.453737 184.921486 -16.100684 183.293145 -16.100684 
C 181.664803 -16.100684 180.102934 -15.453737 178.951523 -14.302325 
C 177.800111 -13.150913 177.153164 -11.589045 177.153164 -9.960703 
C 177.153164 -8.332361 177.800111 -6.770493 178.951523 -5.619081 
C 180.102934 -4.46767 181.664803 -3.820723 183.293145 -3.820723 
z
" style="fill:none;stroke:#0000ff;stroke-linejoin:miter;"/>
   </g>
   <g id="patch_28">
    <path clip-path="url(#pfd55a329f2)" d="M 183.293145 80.092344 
C 215.859982 80.092344 247.09735 67.153402 270.125581 44.125171 
C 293.153812 21.09694 306.092754 -10.140429 306.092754 -42.707266 
C 306.092754 -75.274103 293.153812 -106.511471 270.125581 -129.539702 
C 247.09735 -152.567933 215.859982 -165.506875 183.293145 -165.506875 
C 150.726307 -165.506875 119.488939 -152.567933 96.460708 -129.539702 
C 73.432477 -106.511471 60.493535 -75.274103 60.493535 -42.707266 
C 60.493535 -10.140429 73.432477 21.09694 96.460708 44.125171 
C 119.488939 67.153402 150.726307 80.092344 183.293145 80.092344 
z
" style="fill:none;stroke:#0000ff;stroke-dasharray:1,1.65;stroke-dashoffset:0;stroke-linejoin:miter;"/>
   </g>
   <g id="patch_29">
    <path clip-path="url(#pfd55a329f2)" d="M 183.293145 -36.567285 
C 184.921486 -36.567285 186.483355 -37.214232 187.634766 -38.365644 
C 188.786178 -39.517055 189.433125 -41.078924 189.433125 -42.707266 
C 189.433125 -44.335607 188.786178 -45.897476 187.634766 -47.048887 
C 186.483355 -48.200299 184.921486 -48.847246 183.293145 -48.847246 
C 181.664803 -48.847246 180.102934 -48.200299 178.951523 -47.048887 
C 177.800111 -45.897476 177.153164 -44.335607 177.153164 -42.707266 
C 177.153164 -41.078924 177.800111 -39.517055 178.951523 -38.365644 
C 180.102934 -37.214232 181.664803 -36.567285 183.293145 -36.567285 
z
" style="fill:none;stroke:#0000ff;stroke-linejoin:miter;"/>
   </g>
   <g id="patch_30">
    <path clip-path="url(#pfd55a329f2)" d="M 183.293145 47.345781 
C 215.859982 47.345781 247.09735 34.40684 270.125581 11.378608 
C 293.153812 -11.649623 306.092754 -42.886991 306.092754 -75.453828 
C 306.092754 -108.020665 293.153812 -139.258033 270.125581 -162.286265 
C 247.09735 -185.314496 215.859982 -198.253437 183.293145 -198.253437 
C 150.726307 -198.253437 119.488939 -185.314496 96.460708 -162.286265 
C 73.432477 -139.258033 60.493535 -108.020665 60.493535 -75.453828 
C 60.493535 -42.886991 73.432477 -11.649623 96.460708 11.378608 
C 119.488939 34.40684 150.726307 47.345781 183.293145 47.345781 
z
" style="fill:none;stroke:#0000ff;stroke-dasharray:1,1.65;stroke-dashoffset:0;stroke-linejoin:miter;"/>
   </g>
   <g id="patch_31">
    <path clip-path="url(#pfd55a329f2)" d="M 183.293145 -69.313848 
C 184.921486 -69.313848 186.483355 -69.960795 187.634766 -71.112206 
C 188.786178 -72.263618 189.433125 -73.825486 189.433125 -75.453828 
C 189.433125 -77.08217 188.786178 -78.644038 187.634766 -79.79545 
C 186.483355 -80.946862 184.921486 -81.593809 183.293145 -81.593809 
C 181.664803 -81.593809 180.102934 -80.946862 178.951523 -79.79545 
C 177.800111 -78.644038 177.153164 -77.08217 177.153164 -75.453828 
C 177.153164 -73.825486 177.800111 -72.263618 178.951523 -71.112206 
C 180.102934 -69.960795 181.664803 -69.313848 183.293145 -69.313848 
z
" style="fill:none;stroke:#0000ff;stroke-linejoin:miter;"/>
   </g>
   <g id="patch_32">
    <path clip-path="url(#pfd55a329f2)" d="M 183.293145 14.599219 
C 215.859982 14.599219 247.09735 1.660277 270.125581 -21.367954 
C 293.153812 -44.396185 306.092754 -75.633554 306.092754 -108.200391 
C 306.092754 -140.767228 293.153812 -172.004596 270.125581 -195.032827 
C 247.09735 -218.061058 215.859982 -231 183.293145 -231 
C 150.726307 -231 119.488939 -218.061058 96.460708 -195.032827 
C 73.432477 -172.004596 60.493535 -140.767228 60.493535 -108.200391 
C 60.493535 -75.633554 73.432477 -44.396185 96.460708 -21.367954 
C 119.488939 1.660277 150.726307 14.599219 183.293145 14.599219 
z
" style="fill:none;stroke:#0000ff;stroke-dasharray:1,1.65;stroke-dashoffset:0;stroke-linejoin:miter;"/>
   </g>
   <g id="patch_33">
    <path clip-path="url(#pfd55a329f2)" d="M 183.293145 -102.06041 
C 184.921486 -102.06041 186.483355 -102.707357 187.634766 -103.858769 
C 188.786178 -105.01018 189.433125 -106.572049 189.433125 -108.200391 
C 189.433125 -109.828732 188.786178 -111.390601 187.634766 -112.542012 
C 186.483355 -113.693424 184.921486 -114.340371 183.293145 -114.340371 
C 181.664803 -114.340371 180.102934 -113.693424 178.951523 -112.542012 
C 177.800111 -111.390601 177.153164 -109.828732 177.153164 -108.200391 
C 177.153164 -106.572049 177.800111 -105.01018 178.951523 -103.858769 
C 180.102934 -102.707357 181.664803 -102.06041 183.293145 -102.06041 
z
" style="fill:none;stroke:#0000ff;stroke-linejoin:miter;"/>
   </g>
   <g id="LineCollection_1">
    <path clip-path="url(#pfd55a329f2)" d="M 183.293145 260.198438 
L 183.293145 14.599219 
" style="fill:none;stroke:#008000;stroke-width:1.5;"/>
   </g>
   <g id="LineCollection_2">
    <path clip-path="url(#pfd55a329f2)" d="M 306.092754 260.198438 
L 306.092754 14.599219 
" style="fill:none;stroke:#ff0000;stroke-width:1.5;"/>
   </g>
   <g id="line2d_1">
    <defs>
     <path d="M 0 3 
C 0.795609 3 1.55874 2.683901 2.12132 2.12132 
C 2.683901 1.55874 3 0.795609 3 0 
C 3 -0.795609 2.683901 -1.55874 2.12132 -2.12132 
C 1.55874 -2.683901 0.795609 -3 0 -3 
C -0.795609 -3 -1.55874 -2.683901 -2.12132 -2.12132 
C -2.683901 -1.55874 -3 -0.795609 -3 0 
C -3 0.795609 -2.683901 1.55874 -2.12132 2.12132 
C -1.55874 2.683901 -0.795609 3 0 3 
z
" id="m49c2e81056" style="stroke:#0000ff;"/>
    </defs>
    <g clip-path="url(#pfd55a329f2)">
     <use style="fill:#0000ff;stroke:#0000ff;" x="183.293145" xlink:href="#m49c2e81056" y="382.998047"/>
     <use style="fill:#0000ff;stroke:#0000ff;" x="183.293145" xlink:href="#m49c2e81056" y="350.251484"/>
     <use style="fill:#0000ff;stroke:#0000ff;" x="183.293145" xlink:href="#m49c2e81056" y="317.504922"/>
     <use style="fill:#0000ff;stroke:#0000ff;" x="183.293145" xlink:href="#m49c2e81056" y="284.758359"/>
     <use style="fill:#0000ff;stroke:#0000ff;" x="183.293145" xlink:href="#m49c2e81056" y="252.011797"/>
     <use style="fill:#0000ff;stroke:#0000ff;" x="183.293145" xlink:href="#m49c2e81056" y="219.265234"/>
     <use style="fill:#0000ff;stroke:#0000ff;" x="183.293145" xlink:href="#m49c2e81056" y="186.518672"/>
     <use style="fill:#0000ff;stroke:#0000ff;" x="183.293145" xlink:href="#m49c2e81056" y="153.772109"/>
     <use style="fill:#0000ff;stroke:#0000ff;" x="183.293145" xlink:href="#m49c2e81056" y="121.025547"/>
     <use style="fill:#0000ff;stroke:#0000ff;" x="183.293145" xlink:href="#m49c2e81056" y="88.278984"/>
     <use style="fill:#0000ff;stroke:#0000ff;" x="183.293145" xlink:href="#m49c2e81056" y="55.532422"/>
     <use style="fill:#0000ff;stroke:#0000ff;" x="183.293145" xlink:href="#m49c2e81056" y="22.785859"/>
     <use style="fill:#0000ff;stroke:#0000ff;" x="183.293145" xlink:href="#m49c2e81056" y="-1"/>
    </g>
   </g>
   <g id="patch_34">
    <path d="M 312.234983 135.398828 
Q 330.79287 135.398828 349.350757 135.398828 
L 349.350757 131.398828 
Q 355.350856 134.398828 361.350954 137.398828 
Q 355.350856 140.398828 349.350757 143.398828 
L 349.350757 139.398828 
Q 330.79287 139.398828 312.234983 139.398828 
L 312.234983 135.398828 
z
"/>
   </g>
   <g id="text_1">
    <text style="font-family:Open Sans;font-size:10px;font-style:normal;font-weight:normal;text-anchor:middle;" transform="rotate(-0, 183.293145, 277.796875)" x="183.293145" y="277.796875">Source</text>
   </g>
   <g id="text_2">
    <text style="font-family:Open Sans;font-size:10px;font-style:normal;font-weight:normal;text-anchor:middle;" transform="rotate(-0, 306.092754, 277.796875)" x="306.092754" y="277.796875">Wavefront</text>
   </g>
  </g>
 </g>
 <defs>
  <clipPath id="pfd55a329f2">
   <rect height="245.599219" width="380.678789" x="48.213574" y="14.599219"/>
  </clipPath>
 </defs>
</svg>
