<?xml version="1.0" encoding="utf-8" standalone="no"?>
<?xml-stylesheet type="text/css" href="https://fonts.googleapis.com/css?family=Open+Sans:300italic,400italic,600italic,700italic,400,600,700,300&amp;subset=latin,cyrillic-ext,latin-ext,cyrillic" ?>
<!DOCTYPE svg PUBLIC "-//W3C//DTD SVG 1.1//EN"
  "http://www.w3.org/Graphics/SVG/1.1/DTD/svg11.dtd">
<!-- Created with matplotlib (http://matplotlib.org/) -->
<svg height="345.6pt" version="1.1" viewBox="0 0 460.8 345.6" width="460.8pt" xmlns="http://www.w3.org/2000/svg" xmlns:xlink="http://www.w3.org/1999/xlink">
 <defs>
  <style type="text/css">
*{stroke-linecap:butt;stroke-linejoin:round;}
  </style>
 </defs>
 <g id="figure_1">
  <g id="patch_1">
   <path d="M 0 345.6 
L 460.8 345.6 
L 460.8 0 
L 0 0 
z
" style="fill:#fefefe;"/>
  </g>
  <g id="axes_1">
   <g id="patch_2">
    <path d="M 71.9 331.3 
L 388.9 331.3 
L 388.9 14.3 
L 71.9 14.3 
z
" style="fill:#ffffff;"/>
   </g>
   <g id="patch_3">
    <path clip-path="url(#pef0402238c)" d="M 167 141.1 
C 175.406938 141.1 183.470682 137.759888 189.415285 131.815285 
C 195.359888 125.870682 198.7 117.806938 198.7 109.4 
C 198.7 100.993062 195.359888 92.929318 189.415285 86.984715 
C 183.470682 81.040112 175.406938 77.7 167 77.7 
C 158.593062 77.7 150.529318 81.040112 144.584715 86.984715 
C 138.640112 92.929318 135.3 100.993062 135.3 109.4 
C 135.3 117.806938 138.640112 125.870682 144.584715 131.815285 
C 150.529318 137.759888 158.593062 141.1 167 141.1 
z
" style="fill:none;stroke:#000000;stroke-dasharray:1,1.65;stroke-dashoffset:0;stroke-linejoin:miter;"/>
   </g>
   <g id="patch_4">
    <path clip-path="url(#pef0402238c)" d="M 167 156.95 
C 179.610407 156.95 191.706023 151.939832 200.622927 143.022927 
C 209.539832 134.106023 214.55 122.010407 214.55 109.4 
C 214.55 96.789593 209.539832 84.693977 200.622927 75.777073 
C 191.706023 66.860168 179.610407 61.85 167 61.85 
C 154.389593 61.85 142.293977 66.860168 133.377073 75.777073 
C 124.460168 84.693977 119.45 96.789593 119.45 109.4 
C 119.45 122.010407 124.460168 134.106023 133.377073 143.022927 
C 142.293977 151.939832 154.389593 156.95 167 156.95 
z
" style="fill:none;stroke:#000000;stroke-dasharray:1,1.65;stroke-dashoffset:0;stroke-linejoin:miter;"/>
   </g>
   <g id="patch_5">
    <path clip-path="url(#pef0402238c)" d="M 293.8 141.1 
C 302.206938 141.1 310.270682 137.759888 316.215285 131.815285 
C 322.159888 125.870682 325.5 117.806938 325.5 109.4 
C 325.5 100.993062 322.159888 92.929318 316.215285 86.984715 
C 310.270682 81.040112 302.206938 77.7 293.8 77.7 
C 285.393062 77.7 277.329318 81.040112 271.384715 86.984715 
C 265.440112 92.929318 262.1 100.993062 262.1 109.4 
C 262.1 117.806938 265.440112 125.870682 271.384715 131.815285 
C 277.329318 137.759888 285.393062 141.1 293.8 141.1 
z
" style="fill:none;stroke:#000000;stroke-dasharray:1,1.65;stroke-dashoffset:0;stroke-linejoin:miter;"/>
   </g>
   <g id="patch_6">
    <path clip-path="url(#pef0402238c)" d="M 293.8 156.95 
C 306.410407 156.95 318.506023 151.939832 327.422927 143.022927 
C 336.339832 134.106023 341.35 122.010407 341.35 109.4 
C 341.35 96.789593 336.339832 84.693977 327.422927 75.777073 
C 318.506023 66.860168 306.410407 61.85 293.8 61.85 
C 281.189593 61.85 269.093977 66.860168 260.177073 75.777073 
C 251.260168 84.693977 246.25 96.789593 246.25 109.4 
C 246.25 122.010407 251.260168 134.106023 260.177073 143.022927 
C 269.093977 151.939832 281.189593 156.95 293.8 156.95 
z
" style="fill:none;stroke:#000000;stroke-dasharray:1,1.65;stroke-dashoffset:0;stroke-linejoin:miter;"/>
   </g>
   <g id="matplotlib.axis_1"/>
   <g id="matplotlib.axis_2"/>
   <g id="line2d_1">
    <path clip-path="url(#pef0402238c)" d="M 167 109.4 
" style="fill:none;stroke:#1f77b4;stroke-linecap:square;stroke-width:1.5;"/>
    <defs>
     <path d="M 0 3 
C 0.795609 3 1.55874 2.683901 2.12132 2.12132 
C 2.683901 1.55874 3 0.795609 3 0 
C 3 -0.795609 2.683901 -1.55874 2.12132 -2.12132 
C 1.55874 -2.683901 0.795609 -3 0 -3 
C -0.795609 -3 -1.55874 -2.683901 -2.12132 -2.12132 
C -2.683901 -1.55874 -3 -0.795609 -3 0 
C -3 0.795609 -2.683901 1.55874 -2.12132 2.12132 
C -1.55874 2.683901 -0.795609 3 0 3 
z
" id="m476633e528" style="stroke:#000000;"/>
    </defs>
    <g clip-path="url(#pef0402238c)">
     <use style="fill:#d62728;stroke:#000000;" x="167" xlink:href="#m476633e528" y="109.4"/>
    </g>
   </g>
   <g id="line2d_2">
    <path clip-path="url(#pef0402238c)" d="M 293.8 109.4 
" style="fill:none;stroke:#ff7f0e;stroke-linecap:square;stroke-width:1.5;"/>
    <g clip-path="url(#pef0402238c)">
     <use style="fill:#d62728;stroke:#000000;" x="293.8" xlink:href="#m476633e528" y="109.4"/>
    </g>
   </g>
   <g id="line2d_3">
    <path clip-path="url(#pef0402238c)" d="M 230.4 267.9 
" style="fill:none;stroke:#2ca02c;stroke-linecap:square;stroke-width:1.5;"/>
    <defs>
     <path d="M -3 3 
L 3 3 
L 3 -3 
L -3 -3 
z
" id="meac9eb4a30" style="stroke:#000000;stroke-linejoin:miter;"/>
    </defs>
    <g clip-path="url(#pef0402238c)">
     <use style="fill:#9467bd;stroke:#000000;stroke-linejoin:miter;" x="230.4" xlink:href="#meac9eb4a30" y="267.9"/>
    </g>
   </g>
   <g id="line2d_4">
    <path clip-path="url(#pef0402238c)" d="M 262.1 267.9 
" style="fill:none;stroke:#d62728;stroke-linecap:square;stroke-width:1.5;"/>
    <g clip-path="url(#pef0402238c)">
     <use style="fill:#9467bd;stroke:#000000;stroke-linejoin:miter;" x="262.1" xlink:href="#meac9eb4a30" y="267.9"/>
    </g>
   </g>
   <g id="patch_7">
    <path d="M 71.9 331.3 
L 71.9 14.3 
" style="fill:none;stroke:#000000;stroke-linecap:square;stroke-linejoin:miter;stroke-width:0.8;"/>
   </g>
   <g id="patch_8">
    <path d="M 388.9 331.3 
L 388.9 14.3 
" style="fill:none;stroke:#000000;stroke-linecap:square;stroke-linejoin:miter;stroke-width:0.8;"/>
   </g>
   <g id="patch_9">
    <path d="M 71.9 331.3 
L 388.9 331.3 
" style="fill:none;stroke:#000000;stroke-linecap:square;stroke-linejoin:miter;stroke-width:0.8;"/>
   </g>
   <g id="patch_10">
    <path d="M 71.9 14.3 
L 388.9 14.3 
" style="fill:none;stroke:#000000;stroke-linecap:square;stroke-linejoin:miter;stroke-width:0.8;"/>
   </g>
   <g id="text_1">
    <text style="font-family:Open Sans;font-size:10px;font-style:normal;font-weight:normal;text-anchor:middle;" transform="rotate(-0, 167, 101.996875)" x="167" y="101.996875">Source A</text>
   </g>
   <g id="text_2">
    <text style="font-family:Open Sans;font-size:10px;font-style:normal;font-weight:normal;text-anchor:middle;" transform="rotate(-0, 293.8, 101.996875)" x="293.8" y="101.996875">Source B</text>
   </g>
   <g id="text_3">
    <text style="font-family:Open Sans;font-size:10px;font-style:normal;font-weight:normal;text-anchor:middle;" transform="rotate(-0, 262.1, 280.498437)" x="262.1" y="280.498437">Listener</text>
   </g>
   <g id="patch_11">
    <path d="M 168.028838 111.114729 
Q 214.549824 188.649706 260.495586 265.225976 
" style="fill:none;stroke:#000000;stroke-linecap:round;"/>
    <path d="M 260.152589 260.767013 
L 260.495586 265.225976 
L 256.722617 262.824996 
" style="fill:none;stroke:#000000;stroke-linecap:round;"/>
   </g>
   <g id="patch_12">
    <path d="M 293.4082 111.359 
Q 277.950445 188.647774 262.711955 264.840227 
" style="fill:none;stroke:#000000;stroke-linecap:round;"/>
    <path d="M 265.457581 261.310136 
L 262.711955 264.840227 
L 261.535258 260.525672 
" style="fill:none;stroke:#000000;stroke-linecap:round;"/>
   </g>
   <g id="text_4">
    <text style="font-family:Open Sans;font-size:10px;font-style:normal;font-weight:normal;text-anchor:end;" transform="rotate(-0, 209.55, 201.248437)" x="209.55" y="201.248437">5.8 m</text>
   </g>
   <g id="text_5">
    <text style="font-family:Open Sans;font-size:10px;font-style:normal;font-weight:normal;text-anchor:start;" transform="rotate(-0, 282.95, 201.248437)" x="282.95" y="201.248437">5.1 m</text>
   </g>
  </g>
 </g>
 <defs>
  <clipPath id="pef0402238c">
   <rect height="317" width="317" x="71.9" y="14.3"/>
  </clipPath>
 </defs>
</svg>
