<?xml version="1.0" encoding="UTF-8" standalone="no"?>
<?xml-stylesheet type="text/css" href="https://fonts.googleapis.com/css?family=Open+Sans" ?>
<svg xmlns="http://www.w3.org/2000/svg"
     xmlns:xlink="http://www.w3.org/1999/xlink"
     width="600px" height="160px" viewBox="0 0 600 160">
<title>gl2ps_renderer figure</title>
<desc>
Creator: GL2PS 1.4.0, (C) 1999-2017 C. Geuzaine
For: Octave
</desc>
<defs>
</defs>
<polygon fill="#ffffff" points="0,0 600,0 600,160 0,160"/>
<g>
<polygon fill="#fefefe" points="0,160 600,160 600,0 0,0" shape-rendering="crispEdges"/>
<clipPath id="cp00600160">
  <polygon points="0,160 600,160 600,0 0,0"/>
</clipPath>
<g clip-path="url(#cp00600160)">
<polygon fill="#ffffff" shape-rendering="crispEdges" points="60,133.333 560,133.333 60,4.44444"/>
<polygon fill="#ffffff" shape-rendering="crispEdges" points="560,133.333 560,4.44444 60,4.44444"/>
<polyline fill="none" stroke="#262626" stroke-width="0.5" stroke-linecap="butt" stroke-linejoin="miter" points="60,133.333 65,133.333"/>
<polyline fill="none" stroke="#262626" stroke-width="0.5" stroke-linecap="butt" stroke-linejoin="miter" points="560,133.333 555,133.333"/>
<polyline fill="none" stroke="#262626" stroke-width="0.5" stroke-linecap="butt" stroke-linejoin="miter" points="60,111.852 65,111.852"/>
<polyline fill="none" stroke="#262626" stroke-width="0.5" stroke-linecap="butt" stroke-linejoin="miter" points="560,111.852 555,111.852"/>
<polyline fill="none" stroke="#262626" stroke-width="0.5" stroke-linecap="butt" stroke-linejoin="miter" points="60,90.3704 65,90.3704"/>
<polyline fill="none" stroke="#262626" stroke-width="0.5" stroke-linecap="butt" stroke-linejoin="miter" points="560,90.3704 555,90.3704"/>
<polyline fill="none" stroke="#262626" stroke-width="0.5" stroke-linecap="butt" stroke-linejoin="miter" points="60,68.8889 65,68.8889"/>
<polyline fill="none" stroke="#262626" stroke-width="0.5" stroke-linecap="butt" stroke-linejoin="miter" points="560,68.8889 555,68.8889"/>
<polyline fill="none" stroke="#262626" stroke-width="0.5" stroke-linecap="butt" stroke-linejoin="miter" points="60,47.4074 65,47.4074"/>
<polyline fill="none" stroke="#262626" stroke-width="0.5" stroke-linecap="butt" stroke-linejoin="miter" points="560,47.4074 555,47.4074"/>
<polyline fill="none" stroke="#262626" stroke-width="0.5" stroke-linecap="butt" stroke-linejoin="miter" points="60,25.9259 65,25.9259"/>
<polyline fill="none" stroke="#262626" stroke-width="0.5" stroke-linecap="butt" stroke-linejoin="miter" points="560,25.9259 555,25.9259"/>
<polyline fill="none" stroke="#262626" stroke-width="0.5" stroke-linecap="butt" stroke-linejoin="miter" points="60,4.44444 65,4.44444"/>
<polyline fill="none" stroke="#262626" stroke-width="0.5" stroke-linecap="butt" stroke-linejoin="miter" points="560,4.44444 555,4.44444"/>
<text fill="#262626" x="55" y="133.333" font-size="10" text-anchor="end" dy="5" font-family="Open Sans">-1.5</text>
<text fill="#262626" x="55" y="111.852" font-size="10" text-anchor="end" dy="5" font-family="Open Sans">-1</text>
<text fill="#262626" x="55" y="90.3704" font-size="10" text-anchor="end" dy="5" font-family="Open Sans">-0.5</text>
<text fill="#262626" x="55" y="68.8889" font-size="10" text-anchor="end" dy="5" font-family="Open Sans">0</text>
<text fill="#262626" x="55" y="47.4074" font-size="10" text-anchor="end" dy="5" font-family="Open Sans">0.5</text>
<text fill="#262626" x="55" y="25.9259" font-size="10" text-anchor="end" dy="5" font-family="Open Sans">1</text>
<text fill="#262626" x="55" y="4.44444" font-size="10" text-anchor="end" dy="5" font-family="Open Sans">1.5</text>
<polyline fill="none" stroke="#262626" stroke-width="0.5" stroke-linecap="butt" stroke-linejoin="miter" stroke-dasharray="16,0" points="60,133.333 560,133.333"/>
<polyline fill="none" stroke="#262626" stroke-width="0.5" stroke-linecap="butt" stroke-linejoin="miter" stroke-dasharray="16,0" points="60,4.44444 560,4.44444"/>
<polyline fill="none" stroke="#262626" stroke-width="0.5" stroke-linecap="butt" stroke-linejoin="miter" stroke-dasharray="16,0" points="60,133.333 60,4.44444"/>
<polyline fill="none" stroke="#262626" stroke-width="0.5" stroke-linecap="butt" stroke-linejoin="miter" stroke-dasharray="16,0" points="560,133.333 560,4.44444"/>
<polyline fill="none" stroke="#0071bc" stroke-width="0.5" stroke-linecap="butt" stroke-linejoin="miter" points="60,68.8889 62.2321,65.2778 64.4643,61.6923 66.6964,58.1578 68.9286,54.6991 71.1607,51.3409 73.3928,48.1069 75.625,45.0199 77.8571,42.1019 80.0893,39.3735 82.3214,36.8539 84.5535,34.561 86.7857,32.5111 89.0178,30.7186 91.25,29.1963 93.4821,27.9548 95.7143,27.0031 97.9464,26.3478 100.179,25.9935 102.411,25.9428 104.643,26.1961 106.875,26.7514 109.107,27.605 111.339,28.7508 113.571,30.1806 115.804,31.8843 118.036,33.85 120.268,36.0636 122.5,38.5095 124.732,41.1704 126.964,44.0275 129.196,47.0605 131.429,50.248 133.661,53.5674 135.893,56.9952 138.125,60.5072 140.357,64.0786 142.589,67.6839 144.821,71.2978 147.054,74.8947 149.286,78.449 151.518,81.9357 153.75,85.3301 155.982,88.6081 158.214,91.7466 160.446,94.7233 162.679,97.5171 164.911,100.108 167.143,102.479 169.375,104.611 171.607,106.491 173.839,108.105 176.071,109.441 178.304,110.49 180.536,111.245 182.768,111.7 185,111.852 187.232,111.7 189.464,111.245 191.696,110.49 193.929,109.441 196.161,108.105 198.393,106.491 200.625,104.611 202.857,102.479 205.089,100.108 207.321,97.5171 209.554,94.7233 211.786,91.7466 214.018,88.6081 216.25,85.3301 218.482,81.9357 220.714,78.449 222.946,74.8947 225.179,71.2978 227.411,67.6839 229.643,64.0786 231.875,60.5072 234.107,56.9952 236.339,53.5674 238.571,50.248 240.804,47.0605 243.036,44.0275 245.268,41.1704 247.5,38.5095 249.732,36.0636 251.964,33.85 254.196,31.8843 256.429,30.1806 258.661,28.7508 260.893,27.605 263.125,26.7514 265.357,26.1961 267.589,25.9428 269.821,25.9935 272.054,26.3478 274.286,27.0031 276.518,27.9548 278.75,29.1963 280.982,30.7186 283.214,32.5111 285.446,34.561 287.679,36.8539 289.911,39.3735 292.143,42.1019 294.375,45.0199 296.607,48.1069 298.839,51.3409 301.071,54.6991 303.304,58.1578 305.536,61.6923 307.768,65.2778 310,68.8889 312.232,72.4999 314.464,76.0854 316.696,79.62 318.929,83.0787 321.161,86.4369 323.393,89.6709 325.625,92.7578 327.857,95.6759 330.089,98.4043 332.321,100.924 334.554,103.217 336.786,105.267 339.018,107.059 341.25,108.581 343.482,109.823 345.714,110.775 347.946,111.43 350.179,111.784 352.411,111.835 354.643,111.582 356.875,111.026 359.107,110.173 361.339,109.027 363.571,107.597 365.804,105.893 368.036,103.928 370.268,101.714 372.5,99.2683 374.732,96.6074 376.964,93.7503 379.196,90.7173 381.429,87.5298 383.661,84.2104 385.893,80.7826 388.125,77.2705 390.357,73.6992 392.589,70.0938 394.821,66.4799 397.054,62.8831 399.286,59.3287 401.518,55.842 403.75,52.4477 405.982,49.1697 408.214,46.0312 410.446,43.0545 412.679,40.2607 414.911,37.6694 417.143,35.2991 419.375,33.1665 421.607,31.2867 423.839,29.673 426.071,28.3369 428.304,27.2877 430.536,26.533 432.768,26.078 435,25.9259 437.232,26.078 439.464,26.533 441.696,27.2877 443.929,28.3369 446.161,29.673 448.393,31.2867 450.625,33.1665 452.857,35.2991 455.089,37.6694 457.321,40.2607 459.554,43.0545 461.786,46.0312 464.018,49.1697 466.25,52.4477 468.482,55.842 470.714,59.3287 472.946,62.8831 475.179,66.4799 477.411,70.0938 479.643,73.6992 481.875,77.2705 484.107,80.7826 486.339,84.2104 488.571,87.5298 490.804,90.7173 493.036,93.7503 495.268,96.6074 497.5,99.2683 499.732,101.714 501.964,103.928 504.196,105.893 506.429,107.597 508.661,109.027 510.893,110.173 513.125,111.026 515.357,111.582 517.589,111.835 519.821,111.784 522.054,111.43 524.286,110.775 526.518,109.823 528.75,108.581 530.982,107.059 533.214,105.267 535.446,103.217 537.679,100.924 539.911,98.4043 542.143,95.6759 544.375,92.7578 546.607,89.6709 548.839,86.4369 551.071,83.0787 553.304,79.62 555.536,76.0854 557.768,72.4999 560,68.8889"/>
</g>
<clipPath id="cp00600160">
  <polygon points="0,160 600,160 600,0 0,0"/>
</clipPath>
<g clip-path="url(#cp00600160)">
</g>
</g>
</svg>
