<?xml version="1.0" encoding="utf-8" standalone="no"?>
<?xml-stylesheet type="text/css" href="https://fonts.googleapis.com/css?family=Open+Sans:300italic,400italic,600italic,700italic,400,600,700,300&amp;subset=latin,cyrillic-ext,latin-ext,cyrillic" ?>
<!DOCTYPE svg PUBLIC "-//W3C//DTD SVG 1.1//EN"
  "http://www.w3.org/Graphics/SVG/1.1/DTD/svg11.dtd">
<!-- Created with matplotlib (http://matplotlib.org/) -->
<svg height="180pt" version="1.1" viewBox="0 0 460.8 180" width="460.8pt" xmlns="http://www.w3.org/2000/svg" xmlns:xlink="http://www.w3.org/1999/xlink">
 <defs>
  <style type="text/css">
*{stroke-linecap:butt;stroke-linejoin:round;}
  </style>
 </defs>
 <g id="figure_1">
  <g id="patch_1">
   <path d="M 0 180 
L 460.8 180 
L 460.8 0 
L 0 0 
z
" style="fill:#fefefe;"/>
  </g>
  <g id="axes_1">
   <g id="patch_2">
    <path d="M 43.235938 138.196875 
L 446.5 138.196875 
L 446.5 14.3 
L 43.235938 14.3 
z
" style="fill:#ffffff;"/>
   </g>
   <g id="line2d_1">
    <path clip-path="url(#p5197969fff)" d="M 43.235938 76.248437 
L 446.5 76.248437 
" style="fill:none;stroke:#808080;stroke-linecap:square;stroke-width:1.5;"/>
   </g>
   <g id="matplotlib.axis_1">
    <g id="xtick_1">
     <g id="line2d_2">
      <defs>
       <path d="M 0 0 
L 0 3.5 
" id="m793e7efc69" style="stroke:#000000;stroke-width:0.8;"/>
      </defs>
      <g>
       <use style="stroke:#000000;stroke-width:0.8;" x="43.235938" xlink:href="#m793e7efc69" y="138.196875"/>
      </g>
     </g>
     <g id="text_1">
      <text style="font-family:Open Sans;font-size:10px;font-style:normal;font-weight:normal;text-anchor:middle;" transform="rotate(-0, 43.235938, 152.795312)" x="43.235938" y="152.795312">0.00</text>
     </g>
    </g>
    <g id="xtick_2">
     <g id="line2d_3">
      <g>
       <use style="stroke:#000000;stroke-width:0.8;" x="93.897252" xlink:href="#m793e7efc69" y="138.196875"/>
      </g>
     </g>
     <g id="text_2">
      <text style="font-family:Open Sans;font-size:10px;font-style:normal;font-weight:normal;text-anchor:middle;" transform="rotate(-0, 93.897252, 152.795312)" x="93.897252" y="152.795312">0.25</text>
     </g>
    </g>
    <g id="xtick_3">
     <g id="line2d_4">
      <g>
       <use style="stroke:#000000;stroke-width:0.8;" x="144.558566" xlink:href="#m793e7efc69" y="138.196875"/>
      </g>
     </g>
     <g id="text_3">
      <text style="font-family:Open Sans;font-size:10px;font-style:normal;font-weight:normal;text-anchor:middle;" transform="rotate(-0, 144.558566, 152.795312)" x="144.558566" y="152.795312">0.50</text>
     </g>
    </g>
    <g id="xtick_4">
     <g id="line2d_5">
      <g>
       <use style="stroke:#000000;stroke-width:0.8;" x="195.219881" xlink:href="#m793e7efc69" y="138.196875"/>
      </g>
     </g>
     <g id="text_4">
      <text style="font-family:Open Sans;font-size:10px;font-style:normal;font-weight:normal;text-anchor:middle;" transform="rotate(-0, 195.219881, 152.795312)" x="195.219881" y="152.795312">0.75</text>
     </g>
    </g>
    <g id="xtick_5">
     <g id="line2d_6">
      <g>
       <use style="stroke:#000000;stroke-width:0.8;" x="245.881195" xlink:href="#m793e7efc69" y="138.196875"/>
      </g>
     </g>
     <g id="text_5">
      <text style="font-family:Open Sans;font-size:10px;font-style:normal;font-weight:normal;text-anchor:middle;" transform="rotate(-0, 245.881195, 152.795312)" x="245.881195" y="152.795312">1.00</text>
     </g>
    </g>
    <g id="xtick_6">
     <g id="line2d_7">
      <g>
       <use style="stroke:#000000;stroke-width:0.8;" x="296.542509" xlink:href="#m793e7efc69" y="138.196875"/>
      </g>
     </g>
     <g id="text_6">
      <text style="font-family:Open Sans;font-size:10px;font-style:normal;font-weight:normal;text-anchor:middle;" transform="rotate(-0, 296.542509, 152.795312)" x="296.542509" y="152.795312">1.25</text>
     </g>
    </g>
    <g id="xtick_7">
     <g id="line2d_8">
      <g>
       <use style="stroke:#000000;stroke-width:0.8;" x="347.203824" xlink:href="#m793e7efc69" y="138.196875"/>
      </g>
     </g>
     <g id="text_7">
      <text style="font-family:Open Sans;font-size:10px;font-style:normal;font-weight:normal;text-anchor:middle;" transform="rotate(-0, 347.203824, 152.795312)" x="347.203824" y="152.795312">1.50</text>
     </g>
    </g>
    <g id="xtick_8">
     <g id="line2d_9">
      <g>
       <use style="stroke:#000000;stroke-width:0.8;" x="397.865138" xlink:href="#m793e7efc69" y="138.196875"/>
      </g>
     </g>
     <g id="text_8">
      <text style="font-family:Open Sans;font-size:10px;font-style:normal;font-weight:normal;text-anchor:middle;" transform="rotate(-0, 397.865138, 152.795312)" x="397.865138" y="152.795312">1.75</text>
     </g>
    </g>
    <g id="text_9">
     <text style="font-family:Open Sans;font-size:10px;font-style:normal;font-weight:normal;text-anchor:middle;" transform="rotate(-0, 244.867969, 166.796875)" x="244.867969" y="166.796875">Time (milliseconds)</text>
    </g>
   </g>
   <g id="matplotlib.axis_2">
    <g id="ytick_1">
     <g id="line2d_10">
      <defs>
       <path d="M 0 0 
L -3.5 0 
" id="m15b6ba6048" style="stroke:#000000;stroke-width:0.8;"/>
      </defs>
      <g>
       <use style="stroke:#000000;stroke-width:0.8;" x="43.235938" xlink:href="#m15b6ba6048" y="116.189403"/>
      </g>
     </g>
     <g id="text_10">
      <text style="font-family:Open Sans;font-size:10px;font-style:normal;font-weight:normal;text-anchor:end;" transform="rotate(-0, 36.235938, 119.988622)" x="36.235938" y="119.988622">−1</text>
     </g>
    </g>
    <g id="ytick_2">
     <g id="line2d_11">
      <g>
       <use style="stroke:#000000;stroke-width:0.8;" x="43.235938" xlink:href="#m15b6ba6048" y="76.248437"/>
      </g>
     </g>
     <g id="text_11">
      <text style="font-family:Open Sans;font-size:10px;font-style:normal;font-weight:normal;text-anchor:end;" transform="rotate(-0, 36.235938, 80.047656)" x="36.235938" y="80.047656">0</text>
     </g>
    </g>
    <g id="ytick_3">
     <g id="line2d_12">
      <g>
       <use style="stroke:#000000;stroke-width:0.8;" x="43.235938" xlink:href="#m15b6ba6048" y="36.307472"/>
      </g>
     </g>
     <g id="text_12">
      <text style="font-family:Open Sans;font-size:10px;font-style:normal;font-weight:normal;text-anchor:end;" transform="rotate(-0, 36.235938, 40.106691)" x="36.235938" y="40.106691">1</text>
     </g>
    </g>
    <g id="text_13">
     <text style="font-family:Open Sans;font-size:10px;font-style:normal;font-weight:normal;text-anchor:middle;" transform="rotate(-90, 18.398438, 76.248437)" x="18.398438" y="76.248437">Voltage (volts)</text>
    </g>
   </g>
   <g id="line2d_13">
    <path clip-path="url(#p5197969fff)" d="M 43.235938 76.248437 
L 51.341748 62.243028 
L 55.394653 55.516855 
L 59.447558 49.117631 
L 63.500463 43.146276 
L 67.553368 37.696961 
L 71.606274 32.855627 
L 73.632726 30.68722 
L 75.659179 28.698623 
L 77.685631 26.897683 
L 79.712084 25.291508 
L 81.738536 23.886437 
L 83.764989 22.688015 
L 85.791442 21.700971 
L 87.817894 20.929201 
L 89.844347 20.375751 
L 91.870799 20.042804 
L 93.897252 19.931676 
L 95.923704 20.042804 
L 97.950157 20.375751 
L 99.97661 20.929201 
L 102.003062 21.700971 
L 104.029515 22.688015 
L 106.055967 23.886437 
L 108.08242 25.291508 
L 110.108872 26.897683 
L 112.135325 28.698623 
L 114.161778 30.68722 
L 116.18823 32.855627 
L 120.241135 37.696961 
L 124.294041 43.146276 
L 128.346946 49.117631 
L 132.399851 55.516855 
L 138.479209 65.695729 
L 156.717282 96.98002 
L 160.770187 103.379244 
L 164.823092 109.350599 
L 168.875997 114.799914 
L 172.928902 119.641248 
L 174.955355 121.809655 
L 176.981807 123.798252 
L 179.00826 125.599192 
L 181.034713 127.205367 
L 183.061165 128.610438 
L 185.087618 129.80886 
L 187.11407 130.795904 
L 189.140523 131.567674 
L 191.166976 132.121124 
L 193.193428 132.454071 
L 195.219881 132.565199 
L 197.246333 132.454071 
L 199.272786 132.121124 
L 201.299238 131.567674 
L 203.325691 130.795904 
L 205.352144 129.80886 
L 207.378596 128.610438 
L 209.405049 127.205367 
L 211.431501 125.599192 
L 213.457954 123.798252 
L 215.484406 121.809655 
L 217.510859 119.641248 
L 221.563764 114.799914 
L 225.616669 109.350599 
L 229.669574 103.379244 
L 233.72248 96.98002 
L 239.801837 86.801146 
L 258.03991 55.516855 
L 262.092816 49.117631 
L 266.145721 43.146276 
L 270.198626 37.696961 
L 274.251531 32.855627 
L 276.277984 30.68722 
L 278.304436 28.698623 
L 280.330889 26.897683 
L 282.357341 25.291508 
L 284.383794 23.886437 
L 286.410247 22.688015 
L 288.436699 21.700971 
L 290.463152 20.929201 
L 292.489604 20.375751 
L 294.516057 20.042804 
L 296.542509 19.931676 
L 298.568962 20.042804 
L 300.595415 20.375751 
L 302.621867 20.929201 
L 304.64832 21.700971 
L 306.674772 22.688015 
L 308.701225 23.886437 
L 310.727677 25.291508 
L 312.75413 26.897683 
L 314.780583 28.698623 
L 316.807035 30.68722 
L 318.833488 32.855627 
L 322.886393 37.696961 
L 326.939298 43.146276 
L 330.992203 49.117631 
L 335.045108 55.516855 
L 341.124466 65.695729 
L 359.362539 96.98002 
L 363.415444 103.379244 
L 367.46835 109.350599 
L 371.521255 114.799914 
L 375.57416 119.641248 
L 377.600612 121.809655 
L 379.627065 123.798252 
L 381.653518 125.599192 
L 383.67997 127.205367 
L 385.706423 128.610438 
L 387.732875 129.80886 
L 389.759328 130.795904 
L 391.78578 131.567674 
L 393.812233 132.121124 
L 395.838686 132.454071 
L 397.865138 132.565199 
L 399.891591 132.454071 
L 401.918043 132.121124 
L 403.944496 131.567674 
L 405.970948 130.795904 
L 407.997401 129.80886 
L 410.023854 128.610438 
L 412.050306 127.205367 
L 414.076759 125.599192 
L 416.103211 123.798252 
L 418.129664 121.809655 
L 420.156117 119.641248 
L 424.209022 114.799914 
L 428.261927 109.350599 
L 432.314832 103.379244 
L 436.367737 96.98002 
L 442.447095 86.801146 
L 446.5 79.784596 
L 446.5 79.784596 
" style="fill:none;stroke:#1f77b4;stroke-linecap:square;stroke-width:1.5;"/>
   </g>
   <g id="patch_3">
    <path d="M 43.235938 138.196875 
L 43.235938 14.3 
" style="fill:none;stroke:#000000;stroke-linecap:square;stroke-linejoin:miter;stroke-width:0.8;"/>
   </g>
   <g id="patch_4">
    <path d="M 446.5 138.196875 
L 446.5 14.3 
" style="fill:none;stroke:#000000;stroke-linecap:square;stroke-linejoin:miter;stroke-width:0.8;"/>
   </g>
   <g id="patch_5">
    <path d="M 43.235938 138.196875 
L 446.5 138.196875 
" style="fill:none;stroke:#000000;stroke-linecap:square;stroke-linejoin:miter;stroke-width:0.8;"/>
   </g>
   <g id="patch_6">
    <path d="M 43.235938 14.3 
L 446.5 14.3 
" style="fill:none;stroke:#000000;stroke-linecap:square;stroke-linejoin:miter;stroke-width:0.8;"/>
   </g>
  </g>
 </g>
 <defs>
  <clipPath id="p5197969fff">
   <rect height="123.896875" width="403.264063" x="43.235938" y="14.3"/>
  </clipPath>
 </defs>
</svg>
