<?xml version="1.0" encoding="utf-8" standalone="no"?>
<?xml-stylesheet type="text/css" href="https://fonts.googleapis.com/css?family=Open+Sans:300italic,400italic,600italic,700italic,400,600,700,300&amp;subset=latin,cyrillic-ext,latin-ext,cyrillic" ?>
<!DOCTYPE svg PUBLIC "-//W3C//DTD SVG 1.1//EN"
  "http://www.w3.org/Graphics/SVG/1.1/DTD/svg11.dtd">
<!-- Created with matplotlib (http://matplotlib.org/) -->
<svg height="180pt" version="1.1" viewBox="0 0 460 180" width="460pt" xmlns="http://www.w3.org/2000/svg" xmlns:xlink="http://www.w3.org/1999/xlink">
 <defs>
  <style type="text/css">
*{stroke-linecap:butt;stroke-linejoin:round;}
  </style>
 </defs>
 <g id="figure_1">
  <g id="patch_1">
   <path d="M 0 180 
L 460.8 180 
L 460.8 0 
L 0 0 
z
" style="fill:#fefefe;"/>
  </g>
  <g id="axes_1">
   <g id="patch_2">
    <path d="M 24.801563 138.196875 
L 446.5 138.196875 
L 446.5 14.3 
L 24.801563 14.3 
z
" style="fill:#ffffff;"/>
   </g>
   <g id="line2d_1">
    <path clip-path="url(#p5f38c91b3c)" d="M 24.801563 76.248437 
L 446.5 76.248437 
" style="fill:none;stroke:#808080;stroke-linecap:square;stroke-width:1.5;"/>
   </g>
   <g id="matplotlib.axis_1">
    <g id="xtick_1">
     <g id="line2d_2">
      <defs>
       <path d="M 0 0 
L 0 3.5 
" id="m9083e12e87" style="stroke:#000000;stroke-width:0.8;"/>
      </defs>
      <g>
       <use style="stroke:#000000;stroke-width:0.8;" x="24.801563" xlink:href="#m9083e12e87" y="138.196875"/>
      </g>
     </g>
     <g id="text_1">
      <text style="font-family:Open Sans;font-size:10px;font-style:normal;font-weight:400;text-anchor:middle;" transform="rotate(-0, 24.801563, 152.795312)" x="24.801563" y="152.795312">0.0</text>
     </g>
    </g>
    <g id="xtick_2">
     <g id="line2d_3">
      <g>
       <use style="stroke:#000000;stroke-width:0.8;" x="95.319696" xlink:href="#m9083e12e87" y="138.196875"/>
      </g>
     </g>
     <g id="text_2">
      <text style="font-family:Open Sans;font-size:10px;font-style:normal;font-weight:400;text-anchor:middle;" transform="rotate(-0, 95.319696, 152.795312)" x="95.319696" y="152.795312">0.5</text>
     </g>
    </g>
    <g id="xtick_3">
     <g id="line2d_4">
      <g>
       <use style="stroke:#000000;stroke-width:0.8;" x="165.837829" xlink:href="#m9083e12e87" y="138.196875"/>
      </g>
     </g>
     <g id="text_3">
      <text style="font-family:Open Sans;font-size:10px;font-style:normal;font-weight:400;text-anchor:middle;" transform="rotate(-0, 165.837829, 152.795312)" x="165.837829" y="152.795312">1.0</text>
     </g>
    </g>
    <g id="xtick_4">
     <g id="line2d_5">
      <g>
       <use style="stroke:#000000;stroke-width:0.8;" x="236.355963" xlink:href="#m9083e12e87" y="138.196875"/>
      </g>
     </g>
     <g id="text_4">
      <text style="font-family:Open Sans;font-size:10px;font-style:normal;font-weight:400;text-anchor:middle;" transform="rotate(-0, 236.355963, 152.795312)" x="236.355963" y="152.795312">1.5</text>
     </g>
    </g>
    <g id="xtick_5">
     <g id="line2d_6">
      <g>
       <use style="stroke:#000000;stroke-width:0.8;" x="306.874096" xlink:href="#m9083e12e87" y="138.196875"/>
      </g>
     </g>
     <g id="text_5">
      <text style="font-family:Open Sans;font-size:10px;font-style:normal;font-weight:400;text-anchor:middle;" transform="rotate(-0, 306.874096, 152.795312)" x="306.874096" y="152.795312">2.0</text>
     </g>
    </g>
    <g id="xtick_6">
     <g id="line2d_7">
      <g>
       <use style="stroke:#000000;stroke-width:0.8;" x="377.392229" xlink:href="#m9083e12e87" y="138.196875"/>
      </g>
     </g>
     <g id="text_6">
      <text style="font-family:Open Sans;font-size:10px;font-style:normal;font-weight:400;text-anchor:middle;" transform="rotate(-0, 377.392229, 152.795312)" x="377.392229" y="152.795312">2.5</text>
     </g>
    </g>
    <g id="text_7">
     <text style="font-family:Open Sans;font-size:10px;font-style:normal;font-weight:400;text-anchor:middle;" transform="rotate(-0, 235.650781, 166.796875)" x="235.650781" y="166.796875">Time (milliseconds)</text>
    </g>
   </g>
   <g id="matplotlib.axis_2">
    <g id="text_8">
     <text style="font-family:Open Sans;font-size:10px;font-style:normal;font-weight:400;text-anchor:middle;" transform="rotate(-90, 18.398438, 76.248437)" x="18.398438" y="76.248437">Amplitude</text>
    </g>
   </g>
   <g id="line2d_8">
    <path clip-path="url(#p5f38c91b3c)" d="M 24.801563 76.248437 
L 31.853376 58.845601 
L 36.084464 49.117631 
L 38.905189 43.146276 
L 41.725915 37.696961 
L 44.54664 32.855627 
L 47.367365 28.698623 
L 48.777728 26.897683 
L 50.188091 25.291508 
L 51.598453 23.886437 
L 53.008816 22.688015 
L 54.419179 21.700971 
L 55.829541 20.929201 
L 57.239904 20.375751 
L 58.650267 20.042804 
L 60.060629 19.931676 
L 61.470992 20.042804 
L 62.881355 20.375751 
L 64.291717 20.929201 
L 65.70208 21.700971 
L 67.112443 22.688015 
L 68.522805 23.886437 
L 69.933168 25.291508 
L 71.343531 26.897683 
L 72.753893 28.698623 
L 75.574619 32.855627 
L 78.395344 37.696961 
L 81.216069 43.146276 
L 84.036795 49.117631 
L 88.267883 58.845601 
L 93.909333 72.712279 
L 102.371509 93.651274 
L 106.602597 103.379244 
L 109.423323 109.350599 
L 112.244048 114.799914 
L 115.064773 119.641248 
L 117.885499 123.798252 
L 119.295861 125.599192 
L 120.706224 127.205367 
L 122.116587 128.610438 
L 123.526949 129.80886 
L 124.937312 130.795904 
L 126.347675 131.567674 
L 127.758037 132.121124 
L 129.1684 132.454071 
L 130.578763 132.565199 
L 131.989125 132.454071 
L 133.399488 132.121124 
L 134.809851 131.567674 
L 136.220213 130.795904 
L 137.630576 129.80886 
L 139.040939 128.610438 
L 140.451301 127.205367 
L 141.861664 125.599192 
L 143.272027 123.798252 
L 146.092752 119.641248 
L 148.913477 114.799914 
L 151.734203 109.350599 
L 154.554928 103.379244 
L 158.786016 93.651274 
L 164.427467 79.784596 
L 172.889643 58.845601 
L 177.120731 49.117631 
L 179.941456 43.146276 
L 182.762181 37.696961 
L 185.582907 32.855627 
L 188.403632 28.698623 
L 189.813995 26.897683 
L 191.224357 25.291508 
L 192.63472 23.886437 
L 194.045083 22.688015 
L 195.455445 21.700971 
L 196.865808 20.929201 
L 198.276171 20.375751 
L 199.686533 20.042804 
L 201.096896 19.931676 
L 202.507259 20.042804 
L 203.917621 20.375751 
L 205.327984 20.929201 
L 206.738347 21.700971 
L 208.148709 22.688015 
L 209.559072 23.886437 
L 210.969435 25.291508 
L 212.379797 26.897683 
L 213.79016 28.698623 
L 216.610885 32.855627 
L 219.431611 37.696961 
L 222.252336 43.146276 
L 225.073061 49.117631 
L 229.304149 58.845601 
L 234.9456 72.712279 
L 243.407776 93.651274 
L 247.638864 103.379244 
L 250.459589 109.350599 
L 253.280315 114.799914 
L 256.10104 119.641248 
L 258.921765 123.798252 
L 260.332128 125.599192 
L 261.742491 127.205367 
L 263.152853 128.610438 
L 264.563216 129.80886 
L 265.973579 130.795904 
L 267.383941 131.567674 
L 268.794304 132.121124 
L 270.204667 132.454071 
L 271.615029 132.565199 
L 273.025392 132.454071 
L 274.435755 132.121124 
L 275.846117 131.567674 
L 277.25648 130.795904 
L 278.666843 129.80886 
L 280.077205 128.610438 
L 281.487568 127.205367 
L 282.897931 125.599192 
L 284.308293 123.798252 
L 287.129019 119.641248 
L 289.949744 114.799914 
L 292.770469 109.350599 
L 295.591195 103.379244 
L 299.822283 93.651274 
L 305.463733 79.784596 
L 313.925909 58.845601 
L 318.156997 49.117631 
L 320.977723 43.146276 
L 323.798448 37.696961 
L 326.619173 32.855627 
L 329.439899 28.698623 
L 330.850261 26.897683 
L 332.260624 25.291508 
L 333.670987 23.886437 
L 335.081349 22.688015 
L 336.491712 21.700971 
L 337.902075 20.929201 
L 339.312437 20.375751 
L 340.7228 20.042804 
L 342.133163 19.931676 
L 343.543525 20.042804 
L 344.953888 20.375751 
L 346.364251 20.929201 
L 347.774613 21.700971 
L 349.184976 22.688015 
L 350.595339 23.886437 
L 352.005701 25.291508 
L 353.416064 26.897683 
L 354.826427 28.698623 
L 357.647152 32.855627 
L 360.467877 37.696961 
L 363.288603 43.146276 
L 366.109328 49.117631 
L 370.340416 58.845601 
L 375.981867 72.712279 
L 384.444043 93.651274 
L 388.675131 103.379244 
L 391.495856 109.350599 
L 394.316581 114.799914 
L 397.137307 119.641248 
L 399.958032 123.798252 
L 401.368395 125.599192 
L 402.778757 127.205367 
L 404.18912 128.610438 
L 405.599483 129.80886 
L 407.009845 130.795904 
L 408.420208 131.567674 
L 409.830571 132.121124 
L 411.240933 132.454071 
L 412.651296 132.565199 
L 414.061659 132.454071 
L 415.472021 132.121124 
L 416.882384 131.567674 
L 418.292747 130.795904 
L 419.703109 129.80886 
L 421.113472 128.610438 
L 422.523835 127.205367 
L 423.934197 125.599192 
L 425.34456 123.798252 
L 428.165285 119.641248 
L 430.986011 114.799914 
L 433.806736 109.350599 
L 436.627461 103.379244 
L 440.858549 93.651274 
L 446.5 79.784596 
L 446.5 79.784596 
" style="fill:none;stroke:#1f77b4;stroke-linecap:square;stroke-width:1.5;"/>
   </g>
   <g id="patch_3">
    <path d="M 24.801563 138.196875 
L 24.801563 14.3 
" style="fill:none;stroke:#000000;stroke-linecap:square;stroke-linejoin:miter;stroke-width:0.8;"/>
   </g>
   <g id="patch_4">
    <path d="M 446.5 138.196875 
L 446.5 14.3 
" style="fill:none;stroke:#000000;stroke-linecap:square;stroke-linejoin:miter;stroke-width:0.8;"/>
   </g>
   <g id="patch_5">
    <path d="M 24.801563 138.196875 
L 446.5 138.196875 
" style="fill:none;stroke:#000000;stroke-linecap:square;stroke-linejoin:miter;stroke-width:0.8;"/>
   </g>
   <g id="patch_6">
    <path d="M 24.801563 14.3 
L 446.5 14.3 
" style="fill:none;stroke:#000000;stroke-linecap:square;stroke-linejoin:miter;stroke-width:0.8;"/>
   </g>
  </g>
 </g>
 <defs>
  <clipPath id="p5f38c91b3c">
   <rect height="123.896875" width="421.698438" x="24.801563" y="14.3"/>
  </clipPath>
 </defs>
</svg>
