<?xml version="1.0" encoding="UTF-8" standalone="no"?>
<?xml-stylesheet type="text/css" href="https://fonts.googleapis.com/css?family=Open+Sans" ?>
<svg xmlns="http://www.w3.org/2000/svg"
     xmlns:xlink="http://www.w3.org/1999/xlink"
     width="600px" height="160px" viewBox="0 0 600 160">
<title>gl2ps_renderer figure</title>
<desc>
Creator: GL2PS 1.4.0, (C) 1999-2017 C. Geuzaine
For: Octave
</desc>
<defs>
</defs>
<polygon fill="#ffffff" points="0,0 600,0 600,160 0,160"/>
<g>
<polygon fill="#fefefe" points="0,160 600,160 600,0 0,0" shape-rendering="crispEdges"/>
<clipPath id="cp00600160">
  <polygon points="0,160 600,160 600,0 0,0"/>
</clipPath>
<g clip-path="url(#cp00600160)">
<polygon fill="#ffffff" shape-rendering="crispEdges" points="60,133.333 560,133.333 60,4.44444"/>
<polygon fill="#ffffff" shape-rendering="crispEdges" points="560,133.333 560,4.44444 60,4.44444"/>
<polyline fill="none" stroke="#262626" stroke-width="0.5" stroke-linecap="butt" stroke-linejoin="miter" points="60,133.333 65,133.333"/>
<polyline fill="none" stroke="#262626" stroke-width="0.5" stroke-linecap="butt" stroke-linejoin="miter" points="560,133.333 555,133.333"/>
<polyline fill="none" stroke="#262626" stroke-width="0.5" stroke-linecap="butt" stroke-linejoin="miter" points="60,111.852 65,111.852"/>
<polyline fill="none" stroke="#262626" stroke-width="0.5" stroke-linecap="butt" stroke-linejoin="miter" points="560,111.852 555,111.852"/>
<polyline fill="none" stroke="#262626" stroke-width="0.5" stroke-linecap="butt" stroke-linejoin="miter" points="60,90.3704 65,90.3704"/>
<polyline fill="none" stroke="#262626" stroke-width="0.5" stroke-linecap="butt" stroke-linejoin="miter" points="560,90.3704 555,90.3704"/>
<polyline fill="none" stroke="#262626" stroke-width="0.5" stroke-linecap="butt" stroke-linejoin="miter" points="60,68.8889 65,68.8889"/>
<polyline fill="none" stroke="#262626" stroke-width="0.5" stroke-linecap="butt" stroke-linejoin="miter" points="560,68.8889 555,68.8889"/>
<polyline fill="none" stroke="#262626" stroke-width="0.5" stroke-linecap="butt" stroke-linejoin="miter" points="60,47.4074 65,47.4074"/>
<polyline fill="none" stroke="#262626" stroke-width="0.5" stroke-linecap="butt" stroke-linejoin="miter" points="560,47.4074 555,47.4074"/>
<polyline fill="none" stroke="#262626" stroke-width="0.5" stroke-linecap="butt" stroke-linejoin="miter" points="60,25.9259 65,25.9259"/>
<polyline fill="none" stroke="#262626" stroke-width="0.5" stroke-linecap="butt" stroke-linejoin="miter" points="560,25.9259 555,25.9259"/>
<polyline fill="none" stroke="#262626" stroke-width="0.5" stroke-linecap="butt" stroke-linejoin="miter" points="60,4.44444 65,4.44444"/>
<polyline fill="none" stroke="#262626" stroke-width="0.5" stroke-linecap="butt" stroke-linejoin="miter" points="560,4.44444 555,4.44444"/>
<text fill="#262626" x="55" y="133.333" font-size="10" text-anchor="end" dy="5" font-family="Open Sans">-1.5</text>
<text fill="#262626" x="55" y="111.852" font-size="10" text-anchor="end" dy="5" font-family="Open Sans">-1</text>
<text fill="#262626" x="55" y="90.3704" font-size="10" text-anchor="end" dy="5" font-family="Open Sans">-0.5</text>
<text fill="#262626" x="55" y="68.8889" font-size="10" text-anchor="end" dy="5" font-family="Open Sans">0</text>
<text fill="#262626" x="55" y="47.4074" font-size="10" text-anchor="end" dy="5" font-family="Open Sans">0.5</text>
<text fill="#262626" x="55" y="25.9259" font-size="10" text-anchor="end" dy="5" font-family="Open Sans">1</text>
<text fill="#262626" x="55" y="4.44444" font-size="10" text-anchor="end" dy="5" font-family="Open Sans">1.5</text>
<polyline fill="none" stroke="#262626" stroke-width="0.5" stroke-linecap="butt" stroke-linejoin="miter" stroke-dasharray="16,0" points="60,133.333 560,133.333"/>
<polyline fill="none" stroke="#262626" stroke-width="0.5" stroke-linecap="butt" stroke-linejoin="miter" stroke-dasharray="16,0" points="60,4.44444 560,4.44444"/>
<polyline fill="none" stroke="#262626" stroke-width="0.5" stroke-linecap="butt" stroke-linejoin="miter" stroke-dasharray="16,0" points="60,133.333 60,4.44444"/>
<polyline fill="none" stroke="#262626" stroke-width="0.5" stroke-linecap="butt" stroke-linejoin="miter" stroke-dasharray="16,0" points="560,133.333 560,4.44444"/>
<polyline fill="none" stroke="#0071bc" stroke-width="0.5" stroke-linecap="butt" stroke-linejoin="miter" points="60,68.8889 61.6667,66.1912 63.3333,63.5042 65,60.8384 66.6666,58.2044 68.3333,55.6126 70,53.0732 71.6666,50.5961 73.3333,48.1913 75,45.8682 76.6667,43.6359 78.3333,41.5033 80,39.4787 81.6666,37.5702 83.3333,35.7854 85,34.1311 86.6666,32.6141 88.3333,31.2402 90,30.0148 91.6666,28.9429 93.3333,28.0287 95,27.2757 96.6667,26.6869 98.3333,26.2647 100,26.0107 101.667,25.9259 103.333,26.0107 105,26.2647 106.667,26.6869 108.333,27.2757 110,28.0287 111.667,28.9429 113.333,30.0148 115,31.2402 116.667,32.6141 118.333,34.1311 120,35.7854 121.667,37.5702 123.333,39.4787 125,41.5033 126.667,43.6359 128.333,45.8682 130,48.1913 131.667,50.5961 133.333,53.0732 135,55.6126 136.667,58.2044 138.333,60.8384 140,63.5042 141.667,66.1912 143.333,68.8889 145,71.5866 146.667,74.2736 148.333,76.9393 150,79.5733 151.667,82.1652 153.333,84.7046 155,87.1816 156.667,89.5865 158.333,91.9096 160,94.1419 161.667,96.2745 163.333,98.2991 165,100.208 166.667,101.992 168.333,103.647 170,105.164 171.667,106.538 173.333,107.763 175,108.835 176.667,109.749 178.333,110.502 180,111.091 181.667,111.513 183.333,111.767 185,111.852 186.667,111.767 188.333,111.513 190,111.091 191.667,110.502 193.333,109.749 195,108.835 196.667,107.763 198.333,106.538 200,105.164 201.667,103.647 203.333,101.992 205,100.208 206.667,98.2991 208.333,96.2745 210,94.1419 211.667,91.9096 213.333,89.5865 215,87.1816 216.667,84.7046 218.333,82.1652 220,79.5733 221.667,76.9393 223.333,74.2736 225,71.5866 226.667,68.8889 228.333,66.1912 230,63.5042 231.667,60.8384 233.333,58.2044 235,55.6126 236.667,53.0732 238.333,50.5961 240,48.1913 241.667,45.8682 243.333,43.6359 245,41.5033 246.667,39.4787 248.333,37.5702 250,35.7854 251.667,34.1311 253.333,32.6141 255,31.2402 256.667,30.0148 258.333,28.9429 260,28.0287 261.667,27.2757 263.333,26.6869 265,26.2647 266.667,26.0107 268.333,25.9259 270,26.0107 271.667,26.2647 273.333,26.6869 275,27.2757 276.667,28.0287 278.333,28.9429 280,30.0148 281.667,31.2402 283.333,32.6141 285,34.1311 286.667,35.7854 288.333,37.5702 290,39.4787 291.667,41.5033 293.333,43.6359 295,45.8682 296.667,48.1913 298.333,50.5961 300,53.0732 301.667,55.6126 303.333,58.2044 305,60.8384 306.667,63.5042 308.333,66.1912 310,68.8889 311.667,71.5866 313.333,74.2736 315,76.9393 316.667,79.5733 318.333,82.1652 320,84.7046 321.667,87.1816 323.333,89.5865 325,91.9096 326.667,94.1419 328.333,96.2745 330,98.2991 331.667,100.208 333.333,101.992 335,103.647 336.667,105.164 338.333,106.538 340,107.763 341.667,108.835 343.333,109.749 345,110.502 346.667,111.091 348.333,111.513 350,111.767 351.667,111.852 353.333,111.767 355,111.513 356.667,111.091 358.333,110.502 360,109.749 361.667,108.835 363.333,107.763 365,106.538 366.667,105.164 368.333,103.647 370,101.992 371.667,100.208 373.333,98.2991 375,96.2745 376.667,94.1419 378.333,91.9096 380,89.5865 381.667,87.1816 383.333,84.7046 385,82.1652 386.667,79.5733 388.333,76.9393 390,74.2736 391.667,71.5866 393.333,68.8889 395,66.1912 396.667,63.5042 398.333,60.8384 400,58.2044 401.667,55.6126 403.333,53.0732 405,50.5961 406.667,48.1913 408.333,45.8682 410,43.6359 411.667,41.5033 413.333,39.4787 415,37.5702 416.667,35.7854 418.333,34.1311 420,32.6141 421.667,31.2402 423.333,30.0148 425,28.9429 426.667,28.0287 428.333,27.2757 430,26.6869 431.667,26.2647 433.333,26.0107 435,25.9259 436.667,26.0107 438.333,26.2647 440,26.6869 441.667,27.2757 443.333,28.0287 445,28.9429 446.667,30.0148 448.333,31.2402 450,32.6141 451.667,34.1311 453.333,35.7854 455,37.5702 456.667,39.4787 458.333,41.5033 460,43.6359 461.667,45.8682 463.333,48.1913 465,50.5961 466.667,53.0732 468.333,55.6126 470,58.2044 471.667,60.8384 473.333,63.5042 475,66.1912 476.667,68.8889 478.333,71.5866 480,74.2736 481.667,76.9393 483.333,79.5733 485,82.1652 486.667,84.7046 488.333,87.1816 490,89.5865 491.667,91.9096 493.333,94.1419 495,96.2745 496.667,98.2991 498.333,100.208 500,101.992 501.667,103.647 503.333,105.164 505,106.538 506.667,107.763 508.333,108.835 510,109.749 511.667,110.502 513.333,111.091 515,111.513 516.667,111.767 518.333,111.852 520,111.767 521.667,111.513 523.333,111.091 525,110.502 526.667,109.749 528.333,108.835 530,107.763 531.667,106.538 533.333,105.164 535,103.647 536.667,101.992 538.333,100.208 540,98.2991 541.667,96.2745 543.333,94.1419 545,91.9096 546.667,89.5865 548.333,87.1816 550,84.7046 551.667,82.1652 553.333,79.5733 555,76.9393 556.667,74.2736 558.333,71.5866 560,68.8889"/>
<polyline fill="none" stroke="#000000" stroke-width="0.5" stroke-linecap="butt" stroke-linejoin="miter" stroke-dasharray="4,4,4,4" points="60,111.852 560,111.852"/>
<polyline fill="none" stroke="#000000" stroke-width="0.5" stroke-linecap="butt" stroke-linejoin="miter" stroke-dasharray="4,4,4,4" points="60,68.8889 560,68.8889"/>
<polyline fill="none" stroke="#000000" stroke-width="0.5" stroke-linecap="butt" stroke-linejoin="miter" stroke-dasharray="4,4,4,4" points="60,25.9259 560,25.9259"/>
<polyline fill="none" stroke="#000000" stroke-width="0.5" stroke-linecap="butt" stroke-linejoin="miter" stroke-dasharray="4,4,4,4" points="60,38.56 560,38.56"/>
</g>
<clipPath id="cp00600160">
  <polygon points="0,160 600,160 600,0 0,0"/>
</clipPath>
<g clip-path="url(#cp00600160)">
<polygon fill="#000000" shape-rendering="crispEdges" points="310,107.266 310,111.852 306.472,104.796"/>
<polygon fill="#000000" shape-rendering="crispEdges" points="310,111.852 310,107.266 313.528,104.796"/>
<polygon fill="#000000" shape-rendering="crispEdges" points="310,25.9259 310,30.512 306.472,32.9815"/>
<polygon fill="#000000" shape-rendering="crispEdges" points="310,30.512 310,25.9259 313.528,32.9815"/>
<polygon fill="#000000" shape-rendering="crispEdges" points="393.333,64.3028 393.333,68.8889 389.806,61.8333"/>
<polygon fill="#000000" shape-rendering="crispEdges" points="393.333,68.8889 393.333,64.3028 396.861,61.8333"/>
<polygon fill="#000000" shape-rendering="crispEdges" points="393.333,25.9259 393.333,30.512 389.806,32.9815"/>
<polygon fill="#000000" shape-rendering="crispEdges" points="393.333,30.512 393.333,25.9259 396.861,32.9815"/>
<polygon fill="#000000" shape-rendering="crispEdges" points="476.667,64.3028 476.667,68.8889 473.139,61.8333"/>
<polygon fill="#000000" shape-rendering="crispEdges" points="476.667,68.8889 476.667,64.3028 480.194,61.8333"/>
<polygon fill="#000000" shape-rendering="crispEdges" points="476.667,38.56 476.667,43.1461 473.139,45.6155"/>
<polygon fill="#000000" shape-rendering="crispEdges" points="476.667,43.1461 476.667,38.56 480.194,45.6155"/>
<polyline fill="none" stroke="#000000" stroke-width="0.5" stroke-linecap="butt" stroke-linejoin="miter" points="310,111.852 310,25.9259"/>
<polyline fill="none" stroke="#000000" stroke-width="0.5" stroke-linecap="butt" stroke-linejoin="miter" points="313.528,104.796 310,111.852 306.472,104.796 310,107.266 313.528,104.796"/>
<polyline fill="none" stroke="#000000" stroke-width="0.5" stroke-linecap="butt" stroke-linejoin="miter" points="313.528,32.9815 310,30.512 306.472,32.9815 310,25.9259 313.528,32.9815"/>
<text fill="#000000" x="302.25" y="58.1481" font-size="10" text-anchor="end" dy="5" font-family="Open Sans">Peak-to-peak</text>
<polyline fill="none" stroke="#000000" stroke-width="0.5" stroke-linecap="butt" stroke-linejoin="miter" points="393.333,68.8889 393.333,25.9259"/>
<polyline fill="none" stroke="#000000" stroke-width="0.5" stroke-linecap="butt" stroke-linejoin="miter" points="396.861,61.8333 393.333,68.8889 389.806,61.8333 393.333,64.3028 396.861,61.8333"/>
<polyline fill="none" stroke="#000000" stroke-width="0.5" stroke-linecap="butt" stroke-linejoin="miter" points="396.861,32.9815 393.333,30.512 389.806,32.9815 393.333,25.9259 396.861,32.9815"/>
<text fill="#000000" x="383.5" y="58.1481" font-size="10" text-anchor="end" dy="5" font-family="Open Sans">Peak</text>
<polyline fill="none" stroke="#000000" stroke-width="0.5" stroke-linecap="butt" stroke-linejoin="miter" points="476.667,68.8889 476.667,38.56"/>
<polyline fill="none" stroke="#000000" stroke-width="0.5" stroke-linecap="butt" stroke-linejoin="miter" points="480.194,61.8333 476.667,68.8889 473.139,61.8333 476.667,64.3028 480.194,61.8333"/>
<polyline fill="none" stroke="#000000" stroke-width="0.5" stroke-linecap="butt" stroke-linejoin="miter" points="480.194,45.6155 476.667,43.1461 473.139,45.6155 476.667,38.56 480.194,45.6155"/>
<text fill="#000000" x="464.75" y="58.1481" font-size="10" text-anchor="end" dy="5" font-family="Open Sans">RMS</text>
</g>
</g>
</svg>
