<?xml version="1.0" encoding="utf-8" standalone="no"?>
<?xml-stylesheet type="text/css" href="https://fonts.googleapis.com/css?family=Open+Sans:300italic,400italic,600italic,700italic,400,600,700,300&amp;subset=latin,cyrillic-ext,latin-ext,cyrillic" ?>
<!DOCTYPE svg PUBLIC "-//W3C//DTD SVG 1.1//EN"
  "http://www.w3.org/Graphics/SVG/1.1/DTD/svg11.dtd">
<!-- Created with matplotlib (http://matplotlib.org/) -->
<svg height="180pt" version="1.1" viewBox="0 0 460 180" width="460pt" xmlns="http://www.w3.org/2000/svg" xmlns:xlink="http://www.w3.org/1999/xlink">
 <defs>
  <style type="text/css">
*{stroke-linecap:butt;stroke-linejoin:round;}
  </style>
 </defs>
 <g id="figure_1">
  <g id="patch_1">
   <path d="M 0 180 
L 460.8 180 
L 460.8 0 
L 0 0 
z
" style="fill:#fefefe;"/>
  </g>
  <g id="axes_1">
   <g id="patch_2">
    <path d="M 37.6125 165.7 
L 446.5 165.7 
L 446.5 14.3 
L 37.6125 14.3 
z
" style="fill:#ffffff;"/>
   </g>
   <g id="line2d_1">
    <path clip-path="url(#pcd2061bac1)" d="M 37.6125 90 
L 446.5 90 
" style="fill:none;stroke:#808080;stroke-linecap:square;stroke-width:1.5;"/>
   </g>
   <g id="matplotlib.axis_1"/>
   <g id="matplotlib.axis_2">
    <g id="ytick_1">
     <g id="line2d_2">
      <defs>
       <path d="M 0 0 
L -3.5 0 
" id="m31c2fa3d92" style="stroke:#000000;stroke-width:0.8;"/>
      </defs>
      <g>
       <use style="stroke:#000000;stroke-width:0.8;" x="37.6125" xlink:href="#m31c2fa3d92" y="158.818182"/>
      </g>
     </g>
     <g id="text_1">
      <text style="font-family:Open Sans;font-size:10px;font-style:normal;font-weight:normal;text-anchor:end;" transform="rotate(-0, 30.6125, 162.617401)" x="30.6125" y="162.617401">−1.0</text>
     </g>
    </g>
    <g id="ytick_2">
     <g id="line2d_3">
      <g>
       <use style="stroke:#000000;stroke-width:0.8;" x="37.6125" xlink:href="#m31c2fa3d92" y="124.409091"/>
      </g>
     </g>
     <g id="text_2">
      <text style="font-family:Open Sans;font-size:10px;font-style:normal;font-weight:normal;text-anchor:end;" transform="rotate(-0, 30.6125, 128.20831)" x="30.6125" y="128.20831">−0.5</text>
     </g>
    </g>
    <g id="ytick_3">
     <g id="line2d_4">
      <g>
       <use style="stroke:#000000;stroke-width:0.8;" x="37.6125" xlink:href="#m31c2fa3d92" y="90"/>
      </g>
     </g>
     <g id="text_3">
      <text style="font-family:Open Sans;font-size:10px;font-style:normal;font-weight:normal;text-anchor:end;" transform="rotate(-0, 30.6125, 93.799219)" x="30.6125" y="93.799219">0.0</text>
     </g>
    </g>
    <g id="ytick_4">
     <g id="line2d_5">
      <g>
       <use style="stroke:#000000;stroke-width:0.8;" x="37.6125" xlink:href="#m31c2fa3d92" y="55.590909"/>
      </g>
     </g>
     <g id="text_4">
      <text style="font-family:Open Sans;font-size:10px;font-style:normal;font-weight:normal;text-anchor:end;" transform="rotate(-0, 30.6125, 59.390128)" x="30.6125" y="59.390128">0.5</text>
     </g>
    </g>
    <g id="ytick_5">
     <g id="line2d_6">
      <g>
       <use style="stroke:#000000;stroke-width:0.8;" x="37.6125" xlink:href="#m31c2fa3d92" y="21.181818"/>
      </g>
     </g>
     <g id="text_5">
      <text style="font-family:Open Sans;font-size:10px;font-style:normal;font-weight:normal;text-anchor:end;" transform="rotate(-0, 30.6125, 24.981037)" x="30.6125" y="24.981037">1.0</text>
     </g>
    </g>
   </g>
   <g id="line2d_7">
    <path clip-path="url(#pcd2061bac1)" d="M 37.6125 90 
L 44.450084 68.734012 
L 48.552634 56.846588 
L 51.287667 49.549688 
L 54.022701 42.890713 
L 56.757734 36.97468 
L 59.492768 31.894887 
L 60.860284 29.694168 
L 62.227801 27.731447 
L 63.595318 26.014473 
L 64.962834 24.55002 
L 66.330351 23.343868 
L 67.697868 22.400777 
L 69.065385 21.72447 
L 70.432901 21.317615 
L 71.800418 21.181818 
L 73.167935 21.317615 
L 74.535452 21.72447 
L 75.902968 22.400777 
L 77.270485 23.343868 
L 78.638002 24.55002 
L 80.005518 26.014473 
L 81.373035 27.731447 
L 82.740552 29.694168 
L 84.108069 31.894887 
L 86.843102 36.97468 
L 89.578135 42.890713 
L 92.313169 49.549688 
L 95.048202 56.846588 
L 99.150753 68.734012 
L 104.620819 85.678871 
L 112.82592 111.265988 
L 116.92847 123.153412 
L 119.663503 130.450312 
L 122.398537 137.109287 
L 125.13357 143.02532 
L 127.868604 148.105113 
L 129.23612 150.305832 
L 130.603637 152.268553 
L 131.971154 153.985527 
L 133.338671 155.44998 
L 134.706187 156.656132 
L 136.073704 157.599223 
L 137.441221 158.27553 
L 138.808737 158.682385 
L 140.176254 158.818182 
L 141.543771 158.682385 
L 142.911288 158.27553 
L 144.278804 157.599223 
L 145.646321 156.656132 
L 147.013838 155.44998 
L 148.381355 153.985527 
L 149.748871 152.268553 
L 151.116388 150.305832 
L 152.483905 148.105113 
L 155.218938 143.02532 
L 157.953972 137.109287 
L 160.689005 130.450312 
L 163.424038 123.153412 
L 167.526589 111.265988 
L 172.996656 94.321129 
L 181.201756 68.734012 
L 185.304306 56.846588 
L 188.039339 49.549688 
L 190.774373 42.890713 
L 193.509406 36.97468 
L 196.24444 31.894887 
L 197.611957 29.694168 
L 198.979473 27.731447 
L 200.34699 26.014473 
L 201.714507 24.55002 
L 203.082023 23.343868 
L 204.44954 22.400777 
L 205.817057 21.72447 
L 207.184574 21.317615 
L 208.55209 21.181818 
L 209.919607 21.317615 
L 211.287124 21.72447 
L 212.65464 22.400777 
L 214.022157 23.343868 
L 215.389674 24.55002 
L 216.757191 26.014473 
L 218.124707 27.731447 
L 219.492224 29.694168 
L 220.859741 31.894887 
L 223.594774 36.97468 
L 226.329808 42.890713 
L 229.064841 49.549688 
L 231.799875 56.846588 
L 235.902425 68.734012 
L 241.372492 85.678871 
L 249.577592 111.265988 
L 253.680142 123.153412 
L 256.415176 130.450312 
L 259.150209 137.109287 
L 261.885242 143.02532 
L 264.620276 148.105113 
L 265.987793 150.305832 
L 267.355309 152.268553 
L 268.722826 153.985527 
L 270.090343 155.44998 
L 271.45786 156.656132 
L 272.825376 157.599223 
L 274.192893 158.27553 
L 275.56041 158.682385 
L 276.927926 158.818182 
L 278.295443 158.682385 
L 279.66296 158.27553 
L 281.030477 157.599223 
L 282.397993 156.656132 
L 283.76551 155.44998 
L 285.133027 153.985527 
L 286.500543 152.268553 
L 287.86806 150.305832 
L 289.235577 148.105113 
L 291.97061 143.02532 
L 294.705644 137.109287 
L 297.440677 130.450312 
L 300.175711 123.153412 
L 304.278261 111.265988 
L 309.748328 94.321129 
L 317.953428 68.734012 
L 322.055978 56.846588 
L 324.791012 49.549688 
L 327.526045 42.890713 
L 330.261079 36.97468 
L 332.996112 31.894887 
L 334.363629 29.694168 
L 335.731145 27.731447 
L 337.098662 26.014473 
L 338.466179 24.55002 
L 339.833696 23.343868 
L 341.201212 22.400777 
L 342.568729 21.72447 
L 343.936246 21.317615 
L 345.303763 21.181818 
L 346.671279 21.317615 
L 348.038796 21.72447 
L 349.406313 22.400777 
L 350.773829 23.343868 
L 352.141346 24.55002 
L 353.508863 26.014473 
L 354.87638 27.731447 
L 356.243896 29.694168 
L 357.611413 31.894887 
L 360.346446 36.97468 
L 363.08148 42.890713 
L 365.816513 49.549688 
L 368.551547 56.846588 
L 372.654097 68.734012 
L 378.124164 85.678871 
L 386.329264 111.265988 
L 390.431814 123.153412 
L 393.166848 130.450312 
L 395.901881 137.109287 
L 398.636915 143.02532 
L 401.371948 148.105113 
L 402.739465 150.305832 
L 404.106982 152.268553 
L 405.474498 153.985527 
L 406.842015 155.44998 
L 408.209532 156.656132 
L 409.577048 157.599223 
L 410.944565 158.27553 
L 412.312082 158.682385 
L 413.679599 158.818182 
L 415.047115 158.682385 
L 416.414632 158.27553 
L 417.782149 157.599223 
L 419.149666 156.656132 
L 420.517182 155.44998 
L 421.884699 153.985527 
L 423.252216 152.268553 
L 424.619732 150.305832 
L 425.987249 148.105113 
L 428.722283 143.02532 
L 431.457316 137.109287 
L 434.192349 130.450312 
L 436.927383 123.153412 
L 441.029933 111.265988 
L 446.5 94.321129 
L 446.5 94.321129 
" style="fill:none;stroke:#1f77b4;stroke-linecap:square;stroke-width:1.5;"/>
   </g>
   <g id="line2d_8">
    <path clip-path="url(#pcd2061bac1)" d="M 37.6125 158.818182 
L 446.5 158.818182 
" style="fill:none;stroke:#1f77b4;stroke-dasharray:1.5,2.475;stroke-dashoffset:0;stroke-width:1.5;"/>
   </g>
   <g id="line2d_9">
    <path clip-path="url(#pcd2061bac1)" d="M 37.6125 21.181818 
L 446.5 21.181818 
" style="fill:none;stroke:#1f77b4;stroke-dasharray:1.5,2.475;stroke-dashoffset:0;stroke-width:1.5;"/>
   </g>
   <g id="line2d_10">
    <path clip-path="url(#pcd2061bac1)" d="M 37.6125 41.338197 
L 446.5 41.338197 
" style="fill:none;stroke:#1f77b4;stroke-dasharray:1.5,2.475;stroke-dashoffset:0;stroke-width:1.5;"/>
   </g>
   <g id="patch_3">
    <path d="M 37.6125 165.7 
L 37.6125 14.3 
" style="fill:none;stroke:#000000;stroke-linecap:square;stroke-linejoin:miter;stroke-width:0.8;"/>
   </g>
   <g id="patch_4">
    <path d="M 446.5 165.7 
L 446.5 14.3 
" style="fill:none;stroke:#000000;stroke-linecap:square;stroke-linejoin:miter;stroke-width:0.8;"/>
   </g>
   <g id="patch_5">
    <path d="M 37.6125 165.7 
L 446.5 165.7 
" style="fill:none;stroke:#000000;stroke-linecap:square;stroke-linejoin:miter;stroke-width:0.8;"/>
   </g>
   <g id="patch_6">
    <path d="M 37.6125 14.3 
L 446.5 14.3 
" style="fill:none;stroke:#000000;stroke-linecap:square;stroke-linejoin:miter;stroke-width:0.8;"/>
   </g>
   <g id="text_6">
    <text style="font-family:Open Sans;font-size:10px;font-style:normal;font-weight:normal;text-anchor:end;" transform="rotate(-0, 210.389674, 85)" x="210.389674" y="85">Peak-to-peak</text>
   </g>
   <g id="patch_7">
    <path d="M 215.389674 24.303409 
Q 215.389674 90.002165 215.389674 155.700922 
" style="fill:none;stroke:#000000;stroke-linecap:round;"/>
    <path d="M 213.389674 28.303409 
L 215.389674 24.303409 
L 217.389674 28.303409 
" style="fill:none;stroke:#000000;stroke-linecap:round;"/>
    <path d="M 217.389674 151.700922 
L 215.389674 155.700922 
L 213.389674 151.700922 
" style="fill:none;stroke:#000000;stroke-linecap:round;"/>
   </g>
   <g id="text_7">
    <text style="font-family:Open Sans;font-size:10px;font-style:normal;font-weight:normal;text-anchor:end;" transform="rotate(-0, 278.76551, 85)" x="278.76551" y="85">Peak</text>
   </g>
   <g id="patch_8">
    <path d="M 283.76551 24.303409 
Q 283.76551 55.591528 283.76551 86.879648 
" style="fill:none;stroke:#000000;stroke-linecap:round;"/>
    <path d="M 281.76551 28.303409 
L 283.76551 24.303409 
L 285.76551 28.303409 
" style="fill:none;stroke:#000000;stroke-linecap:round;"/>
    <path d="M 285.76551 82.879648 
L 283.76551 86.879648 
L 281.76551 82.879648 
" style="fill:none;stroke:#000000;stroke-linecap:round;"/>
   </g>
   <g id="text_8">
    <text style="font-family:Open Sans;font-size:10px;font-style:normal;font-weight:normal;text-anchor:end;" transform="rotate(-0, 347.141346, 85)" x="347.141346" y="85">RMS</text>
   </g>
   <g id="patch_9">
    <path d="M 352.141346 44.455095 
Q 352.141346 65.667431 352.141346 86.879766 
" style="fill:none;stroke:#000000;stroke-linecap:round;"/>
    <path d="M 350.141346 48.455095 
L 352.141346 44.455095 
L 354.141346 48.455095 
" style="fill:none;stroke:#000000;stroke-linecap:round;"/>
    <path d="M 354.141346 82.879766 
L 352.141346 86.879766 
L 350.141346 82.879766 
" style="fill:none;stroke:#000000;stroke-linecap:round;"/>
   </g>
  </g>
 </g>
 <defs>
  <clipPath id="pcd2061bac1">
   <rect height="151.4" width="408.8875" x="37.6125" y="14.3"/>
  </clipPath>
 </defs>
</svg>
