<?xml version="1.0" encoding="utf-8" standalone="no"?>
<?xml-stylesheet type="text/css" href="https://fonts.googleapis.com/css?family=Open+Sans:300italic,400italic,600italic,700italic,400,600,700,300&amp;subset=latin,cyrillic-ext,latin-ext,cyrillic" ?>
<!DOCTYPE svg PUBLIC "-//W3C//DTD SVG 1.1//EN"
  "http://www.w3.org/Graphics/SVG/1.1/DTD/svg11.dtd">
<!-- Created with matplotlib (http://matplotlib.org/) -->
<svg height="180pt" version="1.1" viewBox="0 0 460.8 180" width="460.8pt" xmlns="http://www.w3.org/2000/svg" xmlns:xlink="http://www.w3.org/1999/xlink">
 <defs>
  <style type="text/css">
*{stroke-linecap:butt;stroke-linejoin:round;}
  </style>
 </defs>
 <g id="figure_1">
  <g id="patch_1">
   <path d="M 0 180 
L 460.8 180 
L 460.8 0 
L 0 0 
z
" style="fill:#fefefe;"/>
  </g>
  <g id="axes_1">
   <g id="patch_2">
    <path d="M 48.953125 155.198437 
L 446.5 155.198437 
L 446.5 14.599219 
L 48.953125 14.599219 
z
" style="fill:#ffffff;"/>
   </g>
   <g id="line2d_1">
    <path clip-path="url(#pb0032f0081)" d="M 48.953125 84.898828 
L 446.5 84.898828 
" style="fill:none;stroke:#808080;stroke-linecap:square;stroke-width:1.5;"/>
   </g>
   <g id="matplotlib.axis_1">
    <g id="text_1">
     <text style="font-family:Open Sans;font-size:10px;font-style:normal;font-weight:normal;text-anchor:middle;" transform="rotate(-0, 247.726562, 166.796875)" x="247.726562" y="166.796875">Time</text>
    </g>
   </g>
   <g id="matplotlib.axis_2">
    <g id="ytick_1">
     <g id="line2d_2">
      <defs>
       <path d="M 0 0 
L -3.5 0 
" id="m640c8d8b45" style="stroke:#000000;stroke-width:0.8;"/>
      </defs>
      <g>
       <use style="stroke:#000000;stroke-width:0.8;" x="48.953125" xlink:href="#m640c8d8b45" y="155.198438"/>
      </g>
     </g>
     <g id="text_2">
      <text style="font-family:Open Sans;font-size:10px;font-style:normal;font-weight:normal;text-anchor:end;" transform="rotate(-0, 41.953125, 158.997656)" x="41.953125" y="158.997656">−10</text>
     </g>
    </g>
    <g id="ytick_2">
     <g id="line2d_3">
      <g>
       <use style="stroke:#000000;stroke-width:0.8;" x="48.953125" xlink:href="#m640c8d8b45" y="120.048633"/>
      </g>
     </g>
     <g id="text_3">
      <text style="font-family:Open Sans;font-size:10px;font-style:normal;font-weight:normal;text-anchor:end;" transform="rotate(-0, 41.953125, 123.847852)" x="41.953125" y="123.847852">−5</text>
     </g>
    </g>
    <g id="ytick_3">
     <g id="line2d_4">
      <g>
       <use style="stroke:#000000;stroke-width:0.8;" x="48.953125" xlink:href="#m640c8d8b45" y="84.898828"/>
      </g>
     </g>
     <g id="text_4">
      <text style="font-family:Open Sans;font-size:10px;font-style:normal;font-weight:normal;text-anchor:end;" transform="rotate(-0, 41.953125, 88.698047)" x="41.953125" y="88.698047">0</text>
     </g>
    </g>
    <g id="ytick_4">
     <g id="line2d_5">
      <g>
       <use style="stroke:#000000;stroke-width:0.8;" x="48.953125" xlink:href="#m640c8d8b45" y="49.749023"/>
      </g>
     </g>
     <g id="text_5">
      <text style="font-family:Open Sans;font-size:10px;font-style:normal;font-weight:normal;text-anchor:end;" transform="rotate(-0, 41.953125, 53.548242)" x="41.953125" y="53.548242">5</text>
     </g>
    </g>
    <g id="ytick_5">
     <g id="line2d_6">
      <g>
       <use style="stroke:#000000;stroke-width:0.8;" x="48.953125" xlink:href="#m640c8d8b45" y="14.599219"/>
      </g>
     </g>
     <g id="text_6">
      <text style="font-family:Open Sans;font-size:10px;font-style:normal;font-weight:normal;text-anchor:end;" transform="rotate(-0, 41.953125, 18.398438)" x="41.953125" y="18.398438">10</text>
     </g>
    </g>
    <g id="text_7">
     <text style="font-family:Open Sans;font-size:10px;font-style:normal;font-weight:normal;text-anchor:middle;" transform="rotate(-90, 18.398438, 84.898828)" x="18.398438" y="84.898828">Amplitude</text>
    </g>
   </g>
   <g id="line2d_7">
    <path clip-path="url(#pb0032f0081)" d="M 48.953125 84.898828 
L 55.601066 78.754417 
L 59.589831 75.319767 
L 63.578595 72.22446 
L 66.237772 70.404211 
L 68.896948 68.812551 
L 71.556125 67.474581 
L 74.215301 66.411401 
L 76.874477 65.63978 
L 79.533654 65.171885 
L 82.19283 65.015096 
L 84.852007 65.171885 
L 87.511183 65.63978 
L 90.17036 66.411401 
L 92.829536 67.474581 
L 95.488712 68.812551 
L 98.147889 70.404211 
L 100.807065 72.22446 
L 104.79583 75.319767 
L 108.784594 78.754417 
L 115.432536 84.898828 
L 122.080477 91.043239 
L 126.069241 94.477889 
L 130.058006 97.573196 
L 132.717182 99.393445 
L 135.376359 100.985105 
L 138.035535 102.323075 
L 140.694712 103.386255 
L 143.353888 104.157876 
L 146.013064 104.625771 
L 148.672241 104.78256 
L 151.331417 104.625771 
L 153.990594 104.157876 
L 156.64977 103.386255 
L 159.308946 102.323075 
L 161.968123 100.985105 
L 164.627299 99.393445 
L 167.286476 97.573196 
L 171.27524 94.477889 
L 175.264005 91.043239 
L 181.911946 84.898828 
L 188.559887 78.754417 
L 192.548652 75.319767 
L 196.537416 72.22446 
L 199.196593 70.404211 
L 201.855769 68.812551 
L 204.514946 67.474581 
L 207.174122 66.411401 
L 209.833298 65.63978 
L 212.492475 65.171885 
L 215.151651 65.015096 
L 217.810828 65.171885 
L 220.470004 65.63978 
L 223.129181 66.411401 
L 225.788357 67.474581 
L 228.447533 68.812551 
L 231.10671 70.404211 
L 233.765886 72.22446 
L 237.754651 75.319767 
L 241.743416 78.754417 
L 248.391357 84.898828 
L 255.039298 91.043239 
L 259.028062 94.477889 
L 263.016827 97.573196 
L 265.676003 99.393445 
L 268.33518 100.985105 
L 270.994356 102.323075 
L 273.653533 103.386255 
L 276.312709 104.157876 
L 278.971885 104.625771 
L 281.631062 104.78256 
L 284.290238 104.625771 
L 286.949415 104.157876 
L 289.608591 103.386255 
L 292.267768 102.323075 
L 294.926944 100.985105 
L 297.58612 99.393445 
L 300.245297 97.573196 
L 304.234061 94.477889 
L 308.222826 91.043239 
L 314.870767 84.898828 
L 321.518708 78.754417 
L 325.507473 75.319767 
L 329.496237 72.22446 
L 332.155414 70.404211 
L 334.81459 68.812551 
L 337.473767 67.474581 
L 340.132943 66.411401 
L 342.79212 65.63978 
L 345.451296 65.171885 
L 348.110472 65.015096 
L 350.769649 65.171885 
L 353.428825 65.63978 
L 356.088002 66.411401 
L 358.747178 67.474581 
L 361.406355 68.812551 
L 364.065531 70.404211 
L 366.724707 72.22446 
L 370.713472 75.319767 
L 374.702237 78.754417 
L 381.350178 84.898828 
L 387.998119 91.043239 
L 391.986883 94.477889 
L 395.975648 97.573196 
L 398.634824 99.393445 
L 401.294001 100.985105 
L 403.953177 102.323075 
L 406.612354 103.386255 
L 409.27153 104.157876 
L 411.930707 104.625771 
L 414.589883 104.78256 
L 417.249059 104.625771 
L 419.908236 104.157876 
L 422.567412 103.386255 
L 425.226589 102.323075 
L 427.885765 100.985105 
L 430.544941 99.393445 
L 433.204118 97.573196 
L 437.192883 94.477889 
L 441.181647 91.043239 
L 446.5 86.147338 
L 446.5 86.147338 
" style="fill:none;stroke:#1f77b4;stroke-linecap:square;stroke-width:1.5;"/>
   </g>
   <g id="line2d_8">
    <path clip-path="url(#pb0032f0081)" d="M 48.953125 84.898828 
L 55.601066 69.5378 
L 59.589831 60.951176 
L 62.249007 55.680417 
L 64.908184 50.87045 
L 67.56736 46.597131 
L 70.226536 42.927852 
L 72.885713 39.920481 
L 74.215301 38.680261 
L 75.544889 37.622445 
L 76.874477 36.751208 
L 78.204066 36.069987 
L 79.533654 35.581471 
L 80.863242 35.287588 
L 82.19283 35.189498 
L 83.522418 35.287588 
L 84.852007 35.581471 
L 86.181595 36.069987 
L 87.511183 36.751208 
L 88.840771 37.622445 
L 90.17036 38.680261 
L 91.499948 39.920481 
L 92.829536 41.33821 
L 95.488712 44.683135 
L 98.147889 48.662286 
L 100.807065 53.212908 
L 103.466242 58.263237 
L 106.125418 63.733625 
L 110.114183 72.53662 
L 116.762124 88.020103 
L 122.080477 100.259856 
L 126.069241 108.846481 
L 128.728418 114.117239 
L 131.387594 118.927206 
L 134.04677 123.200526 
L 136.705947 126.869804 
L 139.365123 129.877175 
L 140.694712 131.117395 
L 142.0243 132.175211 
L 143.353888 133.046449 
L 144.683476 133.72767 
L 146.013064 134.216186 
L 147.342653 134.510069 
L 148.672241 134.608159 
L 150.001829 134.510069 
L 151.331417 134.216186 
L 152.661005 133.72767 
L 153.990594 133.046449 
L 155.320182 132.175211 
L 156.64977 131.117395 
L 157.979358 129.877175 
L 159.308946 128.459447 
L 161.968123 125.114521 
L 164.627299 121.135371 
L 167.286476 116.584748 
L 169.945652 111.534419 
L 172.604829 106.064032 
L 176.593593 97.261036 
L 183.241534 81.777553 
L 188.559887 69.5378 
L 192.548652 60.951176 
L 195.207828 55.680417 
L 197.867005 50.87045 
L 200.526181 46.597131 
L 203.185357 42.927852 
L 205.844534 39.920481 
L 207.174122 38.680261 
L 208.50371 37.622445 
L 209.833298 36.751208 
L 211.162887 36.069987 
L 212.492475 35.581471 
L 213.822063 35.287588 
L 215.151651 35.189498 
L 216.48124 35.287588 
L 217.810828 35.581471 
L 219.140416 36.069987 
L 220.470004 36.751208 
L 221.799592 37.622445 
L 223.129181 38.680261 
L 224.458769 39.920481 
L 225.788357 41.33821 
L 228.447533 44.683135 
L 231.10671 48.662286 
L 233.765886 53.212908 
L 236.425063 58.263237 
L 239.084239 63.733625 
L 243.073004 72.53662 
L 249.720945 88.020103 
L 255.039298 100.259856 
L 259.028062 108.846481 
L 261.687239 114.117239 
L 264.346415 118.927206 
L 267.005592 123.200526 
L 269.664768 126.869804 
L 272.323944 129.877175 
L 273.653533 131.117395 
L 274.983121 132.175211 
L 276.312709 133.046449 
L 277.642297 133.72767 
L 278.971885 134.216186 
L 280.301474 134.510069 
L 281.631062 134.608159 
L 282.96065 134.510069 
L 284.290238 134.216186 
L 285.619827 133.72767 
L 286.949415 133.046449 
L 288.279003 132.175211 
L 289.608591 131.117395 
L 290.938179 129.877175 
L 292.267768 128.459447 
L 294.926944 125.114521 
L 297.58612 121.135371 
L 300.245297 116.584748 
L 302.904473 111.534419 
L 305.56365 106.064032 
L 309.552414 97.261036 
L 316.200355 81.777553 
L 321.518708 69.5378 
L 325.507473 60.951176 
L 328.166649 55.680417 
L 330.825826 50.87045 
L 333.485002 46.597131 
L 336.144179 42.927852 
L 338.803355 39.920481 
L 340.132943 38.680261 
L 341.462531 37.622445 
L 342.79212 36.751208 
L 344.121708 36.069987 
L 345.451296 35.581471 
L 346.780884 35.287588 
L 348.110472 35.189498 
L 349.440061 35.287588 
L 350.769649 35.581471 
L 352.099237 36.069987 
L 353.428825 36.751208 
L 354.758413 37.622445 
L 356.088002 38.680261 
L 357.41759 39.920481 
L 358.747178 41.33821 
L 361.406355 44.683135 
L 364.065531 48.662286 
L 366.724707 53.212908 
L 369.383884 58.263237 
L 372.04306 63.733625 
L 376.031825 72.53662 
L 382.679766 88.020103 
L 387.998119 100.259856 
L 391.986883 108.846481 
L 394.64606 114.117239 
L 397.305236 118.927206 
L 399.964413 123.200526 
L 402.623589 126.869804 
L 405.282765 129.877175 
L 406.612354 131.117395 
L 407.941942 132.175211 
L 409.27153 133.046449 
L 410.601118 133.72767 
L 411.930707 134.216186 
L 413.260295 134.510069 
L 414.589883 134.608159 
L 415.919471 134.510069 
L 417.249059 134.216186 
L 418.578648 133.72767 
L 419.908236 133.046449 
L 421.237824 132.175211 
L 422.567412 131.117395 
L 423.897 129.877175 
L 425.226589 128.459447 
L 427.885765 125.114521 
L 430.544941 121.135371 
L 433.204118 116.584748 
L 435.863294 111.534419 
L 438.522471 106.064032 
L 442.511235 97.261036 
L 446.5 88.020103 
L 446.5 88.020103 
" style="fill:none;stroke:#ff7f0e;stroke-linecap:square;stroke-width:1.5;"/>
   </g>
   <g id="line2d_9">
    <path clip-path="url(#pb0032f0081)" d="M 48.953125 84.898828 
L 55.601066 63.393389 
L 59.589831 51.372114 
L 62.249007 43.993052 
L 64.908184 37.259098 
L 67.56736 31.276452 
L 70.226536 26.139462 
L 71.556125 23.913962 
L 72.885713 21.929142 
L 74.215301 20.192835 
L 75.544889 18.711892 
L 76.874477 17.492159 
L 78.204066 16.53845 
L 79.533654 15.854528 
L 80.863242 15.443091 
L 82.19283 15.305765 
L 83.522418 15.443091 
L 84.852007 15.854528 
L 86.181595 16.53845 
L 87.511183 17.492159 
L 88.840771 18.711892 
L 90.17036 20.192835 
L 91.499948 21.929142 
L 92.829536 23.913962 
L 94.159124 26.139462 
L 96.818301 31.276452 
L 99.477477 37.259098 
L 102.136653 43.993052 
L 104.79583 51.372114 
L 108.784594 63.393389 
L 114.102947 80.529044 
L 122.080477 106.404267 
L 126.069241 118.425542 
L 128.728418 125.804604 
L 131.387594 132.538558 
L 134.04677 138.521205 
L 136.705947 143.658194 
L 138.035535 145.883694 
L 139.365123 147.868514 
L 140.694712 149.604821 
L 142.0243 151.085764 
L 143.353888 152.305497 
L 144.683476 153.259206 
L 146.013064 153.943129 
L 147.342653 154.354565 
L 148.672241 154.491891 
L 150.001829 154.354565 
L 151.331417 153.943129 
L 152.661005 153.259206 
L 153.990594 152.305497 
L 155.320182 151.085764 
L 156.64977 149.604821 
L 157.979358 147.868514 
L 159.308946 145.883694 
L 160.638535 143.658194 
L 163.297711 138.521205 
L 165.956888 132.538558 
L 168.616064 125.804604 
L 171.27524 118.425542 
L 175.264005 106.404267 
L 180.582358 89.268613 
L 188.559887 63.393389 
L 192.548652 51.372114 
L 195.207828 43.993052 
L 197.867005 37.259098 
L 200.526181 31.276452 
L 203.185357 26.139462 
L 204.514946 23.913962 
L 205.844534 21.929142 
L 207.174122 20.192835 
L 208.50371 18.711892 
L 209.833298 17.492159 
L 211.162887 16.53845 
L 212.492475 15.854528 
L 213.822063 15.443091 
L 215.151651 15.305765 
L 216.48124 15.443091 
L 217.810828 15.854528 
L 219.140416 16.53845 
L 220.470004 17.492159 
L 221.799592 18.711892 
L 223.129181 20.192835 
L 224.458769 21.929142 
L 225.788357 23.913962 
L 227.117945 26.139462 
L 229.777122 31.276452 
L 232.436298 37.259098 
L 235.095474 43.993052 
L 237.754651 51.372114 
L 241.743416 63.393389 
L 247.061768 80.529044 
L 255.039298 106.404267 
L 259.028062 118.425542 
L 261.687239 125.804604 
L 264.346415 132.538558 
L 267.005592 138.521205 
L 269.664768 143.658194 
L 270.994356 145.883694 
L 272.323944 147.868514 
L 273.653533 149.604821 
L 274.983121 151.085764 
L 276.312709 152.305497 
L 277.642297 153.259206 
L 278.971885 153.943129 
L 280.301474 154.354565 
L 281.631062 154.491891 
L 282.96065 154.354565 
L 284.290238 153.943129 
L 285.619827 153.259206 
L 286.949415 152.305497 
L 288.279003 151.085764 
L 289.608591 149.604821 
L 290.938179 147.868514 
L 292.267768 145.883694 
L 293.597356 143.658194 
L 296.256532 138.521205 
L 298.915709 132.538558 
L 301.574885 125.804604 
L 304.234061 118.425542 
L 308.222826 106.404267 
L 313.541179 89.268613 
L 321.518708 63.393389 
L 325.507473 51.372114 
L 328.166649 43.993052 
L 330.825826 37.259098 
L 333.485002 31.276452 
L 336.144179 26.139462 
L 337.473767 23.913962 
L 338.803355 21.929142 
L 340.132943 20.192835 
L 341.462531 18.711892 
L 342.79212 17.492159 
L 344.121708 16.53845 
L 345.451296 15.854528 
L 346.780884 15.443091 
L 348.110472 15.305765 
L 349.440061 15.443091 
L 350.769649 15.854528 
L 352.099237 16.53845 
L 353.428825 17.492159 
L 354.758413 18.711892 
L 356.088002 20.192835 
L 357.41759 21.929142 
L 358.747178 23.913962 
L 360.076766 26.139462 
L 362.735943 31.276452 
L 365.395119 37.259098 
L 368.054296 43.993052 
L 370.713472 51.372114 
L 374.702237 63.393389 
L 380.020589 80.529044 
L 387.998119 106.404267 
L 391.986883 118.425542 
L 394.64606 125.804604 
L 397.305236 132.538558 
L 399.964413 138.521205 
L 402.623589 143.658194 
L 403.953177 145.883694 
L 405.282765 147.868514 
L 406.612354 149.604821 
L 407.941942 151.085764 
L 409.27153 152.305497 
L 410.601118 153.259206 
L 411.930707 153.943129 
L 413.260295 154.354565 
L 414.589883 154.491891 
L 415.919471 154.354565 
L 417.249059 153.943129 
L 418.578648 153.259206 
L 419.908236 152.305497 
L 421.237824 151.085764 
L 422.567412 149.604821 
L 423.897 147.868514 
L 425.226589 145.883694 
L 426.556177 143.658194 
L 429.215353 138.521205 
L 431.87453 132.538558 
L 434.533706 125.804604 
L 437.192883 118.425542 
L 441.181647 106.404267 
L 446.5 89.268613 
L 446.5 89.268613 
" style="fill:none;stroke:#2ca02c;stroke-linecap:square;stroke-width:1.5;"/>
   </g>
   <g id="patch_3">
    <path d="M 48.953125 155.198438 
L 48.953125 14.599219 
" style="fill:none;stroke:#000000;stroke-linecap:square;stroke-linejoin:miter;stroke-width:0.8;"/>
   </g>
   <g id="patch_4">
    <path d="M 446.5 155.198438 
L 446.5 14.599219 
" style="fill:none;stroke:#000000;stroke-linecap:square;stroke-linejoin:miter;stroke-width:0.8;"/>
   </g>
   <g id="patch_5">
    <path d="M 48.953125 155.198437 
L 446.5 155.198437 
" style="fill:none;stroke:#000000;stroke-linecap:square;stroke-linejoin:miter;stroke-width:0.8;"/>
   </g>
   <g id="patch_6">
    <path d="M 48.953125 14.599219 
L 446.5 14.599219 
" style="fill:none;stroke:#000000;stroke-linecap:square;stroke-linejoin:miter;stroke-width:0.8;"/>
   </g>
   <g id="legend_1">
    <g id="patch_7">
     <path d="M 373.748438 67.603906 
L 439.5 67.603906 
Q 441.5 67.603906 441.5 65.603906 
L 441.5 21.599219 
Q 441.5 19.599219 439.5 19.599219 
L 373.748438 19.599219 
Q 371.748438 19.599219 371.748438 21.599219 
L 371.748438 65.603906 
Q 371.748438 67.603906 373.748438 67.603906 
z
" style="fill:#ffffff;opacity:0.8;stroke:#cccccc;stroke-linejoin:miter;"/>
    </g>
    <g id="line2d_10">
     <path d="M 375.748438 27.697656 
L 395.748438 27.697656 
" style="fill:none;stroke:#1f77b4;stroke-linecap:square;stroke-width:1.5;"/>
    </g>
    <g id="line2d_11"/>
    <g id="text_8">
     <text style="font-family:Open Sans;font-size:10px;font-style:normal;font-weight:normal;text-anchor:start;" transform="rotate(-0, 403.748438, 31.197656)" x="403.748438" y="31.197656">Wave 1</text>
    </g>
    <g id="line2d_12">
     <path d="M 375.748438 42.699219 
L 395.748438 42.699219 
" style="fill:none;stroke:#ff7f0e;stroke-linecap:square;stroke-width:1.5;"/>
    </g>
    <g id="line2d_13"/>
    <g id="text_9">
     <text style="font-family:Open Sans;font-size:10px;font-style:normal;font-weight:normal;text-anchor:start;" transform="rotate(-0, 403.748438, 46.199219)" x="403.748438" y="46.199219">Wave 2</text>
    </g>
    <g id="line2d_14">
     <path d="M 375.748438 57.700781 
L 395.748438 57.700781 
" style="fill:none;stroke:#2ca02c;stroke-linecap:square;stroke-width:1.5;"/>
    </g>
    <g id="line2d_15"/>
    <g id="text_10">
     <text style="font-family:Open Sans;font-size:10px;font-style:normal;font-weight:normal;text-anchor:start;" transform="rotate(-0, 403.748438, 61.200781)" x="403.748438" y="61.200781">Sum</text>
    </g>
   </g>
  </g>
 </g>
 <defs>
  <clipPath id="pb0032f0081">
   <rect height="140.599219" width="397.546875" x="48.953125" y="14.599219"/>
  </clipPath>
 </defs>
</svg>
