<?xml version="1.0" encoding="utf-8" standalone="no"?>
<?xml-stylesheet type="text/css" href="https://fonts.googleapis.com/css?family=Open+Sans:300italic,400italic,600italic,700italic,400,600,700,300&amp;subset=latin,cyrillic-ext,latin-ext,cyrillic" ?>
<!DOCTYPE svg PUBLIC "-//W3C//DTD SVG 1.1//EN"
  "http://www.w3.org/Graphics/SVG/1.1/DTD/svg11.dtd">
<!-- Created with matplotlib (http://matplotlib.org/) -->
<svg height="180pt" version="1.1" viewBox="0 0 460 180" width="460pt" xmlns="http://www.w3.org/2000/svg" xmlns:xlink="http://www.w3.org/1999/xlink">
 <defs>
  <style type="text/css">
*{stroke-linecap:butt;stroke-linejoin:round;}
  </style>
 </defs>
 <g id="figure_1">
  <g id="patch_1">
   <path d="M 0 180 
L 460.8 180 
L 460.8 0 
L 0 0 
z
" style="fill:#fefefe;"/>
  </g>
  <g id="axes_1">
   <g id="patch_2">
    <path d="M 48.953125 155.198437 
L 446.5 155.198437 
L 446.5 14.599219 
L 48.953125 14.599219 
z
" style="fill:#ffffff;"/>
   </g>
   <g id="line2d_1">
    <path clip-path="url(#p678cc6e071)" d="M 48.953125 84.898828 
L 446.5 84.898828 
" style="fill:none;stroke:#808080;stroke-linecap:square;stroke-width:1.5;"/>
   </g>
   <g id="matplotlib.axis_1">
    <g id="text_1">
     <text style="font-family:Open Sans;font-size:10px;font-style:normal;font-weight:normal;text-anchor:middle;" transform="rotate(-0, 247.726562, 166.796875)" x="247.726562" y="166.796875">Time</text>
    </g>
   </g>
   <g id="matplotlib.axis_2">
    <g id="ytick_1">
     <g id="line2d_2">
      <defs>
       <path d="M 0 0 
L -3.5 0 
" id="m2263ee9046" style="stroke:#000000;stroke-width:0.8;"/>
      </defs>
      <g>
       <use style="stroke:#000000;stroke-width:0.8;" x="48.953125" xlink:href="#m2263ee9046" y="155.198438"/>
      </g>
     </g>
     <g id="text_2">
      <text style="font-family:Open Sans;font-size:10px;font-style:normal;font-weight:normal;text-anchor:end;" transform="rotate(-0, 41.953125, 158.997656)" x="41.953125" y="158.997656">−10</text>
     </g>
    </g>
    <g id="ytick_2">
     <g id="line2d_3">
      <g>
       <use style="stroke:#000000;stroke-width:0.8;" x="48.953125" xlink:href="#m2263ee9046" y="120.048633"/>
      </g>
     </g>
     <g id="text_3">
      <text style="font-family:Open Sans;font-size:10px;font-style:normal;font-weight:normal;text-anchor:end;" transform="rotate(-0, 41.953125, 123.847852)" x="41.953125" y="123.847852">−5</text>
     </g>
    </g>
    <g id="ytick_3">
     <g id="line2d_4">
      <g>
       <use style="stroke:#000000;stroke-width:0.8;" x="48.953125" xlink:href="#m2263ee9046" y="84.898828"/>
      </g>
     </g>
     <g id="text_4">
      <text style="font-family:Open Sans;font-size:10px;font-style:normal;font-weight:normal;text-anchor:end;" transform="rotate(-0, 41.953125, 88.698047)" x="41.953125" y="88.698047">0</text>
     </g>
    </g>
    <g id="ytick_4">
     <g id="line2d_5">
      <g>
       <use style="stroke:#000000;stroke-width:0.8;" x="48.953125" xlink:href="#m2263ee9046" y="49.749023"/>
      </g>
     </g>
     <g id="text_5">
      <text style="font-family:Open Sans;font-size:10px;font-style:normal;font-weight:normal;text-anchor:end;" transform="rotate(-0, 41.953125, 53.548242)" x="41.953125" y="53.548242">5</text>
     </g>
    </g>
    <g id="ytick_5">
     <g id="line2d_6">
      <g>
       <use style="stroke:#000000;stroke-width:0.8;" x="48.953125" xlink:href="#m2263ee9046" y="14.599219"/>
      </g>
     </g>
     <g id="text_6">
      <text style="font-family:Open Sans;font-size:10px;font-style:normal;font-weight:normal;text-anchor:end;" transform="rotate(-0, 41.953125, 18.398438)" x="41.953125" y="18.398438">10</text>
     </g>
    </g>
    <g id="text_7">
     <text style="font-family:Open Sans;font-size:10px;font-style:normal;font-weight:normal;text-anchor:middle;" transform="rotate(-90, 18.398438, 84.898828)" x="18.398438" y="84.898828">Amplitude</text>
    </g>
   </g>
   <g id="line2d_7">
    <path clip-path="url(#p678cc6e071)" d="M 48.953125 84.898828 
L 55.601066 91.043239 
L 59.589831 94.477889 
L 63.578595 97.573196 
L 66.237772 99.393445 
L 68.896948 100.985105 
L 71.556125 102.323075 
L 74.215301 103.386255 
L 76.874477 104.157876 
L 79.533654 104.625771 
L 82.19283 104.78256 
L 84.852007 104.625771 
L 87.511183 104.157876 
L 90.17036 103.386255 
L 92.829536 102.323075 
L 95.488712 100.985105 
L 98.147889 99.393445 
L 100.807065 97.573196 
L 104.79583 94.477889 
L 108.784594 91.043239 
L 115.432536 84.898828 
L 122.080477 78.754417 
L 126.069241 75.319767 
L 130.058006 72.22446 
L 132.717182 70.404211 
L 135.376359 68.812551 
L 138.035535 67.474581 
L 140.694712 66.411401 
L 143.353888 65.63978 
L 146.013064 65.171885 
L 148.672241 65.015096 
L 151.331417 65.171885 
L 153.990594 65.63978 
L 156.64977 66.411401 
L 159.308946 67.474581 
L 161.968123 68.812551 
L 164.627299 70.404211 
L 167.286476 72.22446 
L 171.27524 75.319767 
L 175.264005 78.754417 
L 181.911946 84.898828 
L 188.559887 91.043239 
L 192.548652 94.477889 
L 196.537416 97.573196 
L 199.196593 99.393445 
L 201.855769 100.985105 
L 204.514946 102.323075 
L 207.174122 103.386255 
L 209.833298 104.157876 
L 212.492475 104.625771 
L 215.151651 104.78256 
L 217.810828 104.625771 
L 220.470004 104.157876 
L 223.129181 103.386255 
L 225.788357 102.323075 
L 228.447533 100.985105 
L 231.10671 99.393445 
L 233.765886 97.573196 
L 237.754651 94.477889 
L 241.743416 91.043239 
L 248.391357 84.898828 
L 255.039298 78.754417 
L 259.028062 75.319767 
L 263.016827 72.22446 
L 265.676003 70.404211 
L 268.33518 68.812551 
L 270.994356 67.474581 
L 273.653533 66.411401 
L 276.312709 65.63978 
L 278.971885 65.171885 
L 281.631062 65.015096 
L 284.290238 65.171885 
L 286.949415 65.63978 
L 289.608591 66.411401 
L 292.267768 67.474581 
L 294.926944 68.812551 
L 297.58612 70.404211 
L 300.245297 72.22446 
L 304.234061 75.319767 
L 308.222826 78.754417 
L 314.870767 84.898828 
L 321.518708 91.043239 
L 325.507473 94.477889 
L 329.496237 97.573196 
L 332.155414 99.393445 
L 334.81459 100.985105 
L 337.473767 102.323075 
L 340.132943 103.386255 
L 342.79212 104.157876 
L 345.451296 104.625771 
L 348.110472 104.78256 
L 350.769649 104.625771 
L 353.428825 104.157876 
L 356.088002 103.386255 
L 358.747178 102.323075 
L 361.406355 100.985105 
L 364.065531 99.393445 
L 366.724707 97.573196 
L 370.713472 94.477889 
L 374.702237 91.043239 
L 381.350178 84.898828 
L 387.998119 78.754417 
L 391.986883 75.319767 
L 395.975648 72.22446 
L 398.634824 70.404211 
L 401.294001 68.812551 
L 403.953177 67.474581 
L 406.612354 66.411401 
L 409.27153 65.63978 
L 411.930707 65.171885 
L 414.589883 65.015096 
L 417.249059 65.171885 
L 419.908236 65.63978 
L 422.567412 66.411401 
L 425.226589 67.474581 
L 427.885765 68.812551 
L 430.544941 70.404211 
L 433.204118 72.22446 
L 437.192883 75.319767 
L 441.181647 78.754417 
L 446.5 83.650318 
L 446.5 83.650318 
" style="fill:none;stroke:#1f77b4;stroke-linecap:square;stroke-width:1.5;"/>
   </g>
   <g id="line2d_8">
    <path clip-path="url(#p678cc6e071)" d="M 48.953125 84.898828 
L 55.601066 69.5378 
L 59.589831 60.951176 
L 62.249007 55.680417 
L 64.908184 50.87045 
L 67.56736 46.597131 
L 70.226536 42.927852 
L 72.885713 39.920481 
L 74.215301 38.680261 
L 75.544889 37.622445 
L 76.874477 36.751208 
L 78.204066 36.069987 
L 79.533654 35.581471 
L 80.863242 35.287588 
L 82.19283 35.189498 
L 83.522418 35.287588 
L 84.852007 35.581471 
L 86.181595 36.069987 
L 87.511183 36.751208 
L 88.840771 37.622445 
L 90.17036 38.680261 
L 91.499948 39.920481 
L 92.829536 41.33821 
L 95.488712 44.683135 
L 98.147889 48.662286 
L 100.807065 53.212908 
L 103.466242 58.263237 
L 106.125418 63.733625 
L 110.114183 72.53662 
L 116.762124 88.020103 
L 122.080477 100.259856 
L 126.069241 108.846481 
L 128.728418 114.117239 
L 131.387594 118.927206 
L 134.04677 123.200526 
L 136.705947 126.869804 
L 139.365123 129.877175 
L 140.694712 131.117395 
L 142.0243 132.175211 
L 143.353888 133.046449 
L 144.683476 133.72767 
L 146.013064 134.216186 
L 147.342653 134.510069 
L 148.672241 134.608159 
L 150.001829 134.510069 
L 151.331417 134.216186 
L 152.661005 133.72767 
L 153.990594 133.046449 
L 155.320182 132.175211 
L 156.64977 131.117395 
L 157.979358 129.877175 
L 159.308946 128.459447 
L 161.968123 125.114521 
L 164.627299 121.135371 
L 167.286476 116.584748 
L 169.945652 111.534419 
L 172.604829 106.064032 
L 176.593593 97.261036 
L 183.241534 81.777553 
L 188.559887 69.5378 
L 192.548652 60.951176 
L 195.207828 55.680417 
L 197.867005 50.87045 
L 200.526181 46.597131 
L 203.185357 42.927852 
L 205.844534 39.920481 
L 207.174122 38.680261 
L 208.50371 37.622445 
L 209.833298 36.751208 
L 211.162887 36.069987 
L 212.492475 35.581471 
L 213.822063 35.287588 
L 215.151651 35.189498 
L 216.48124 35.287588 
L 217.810828 35.581471 
L 219.140416 36.069987 
L 220.470004 36.751208 
L 221.799592 37.622445 
L 223.129181 38.680261 
L 224.458769 39.920481 
L 225.788357 41.33821 
L 228.447533 44.683135 
L 231.10671 48.662286 
L 233.765886 53.212908 
L 236.425063 58.263237 
L 239.084239 63.733625 
L 243.073004 72.53662 
L 249.720945 88.020103 
L 255.039298 100.259856 
L 259.028062 108.846481 
L 261.687239 114.117239 
L 264.346415 118.927206 
L 267.005592 123.200526 
L 269.664768 126.869804 
L 272.323944 129.877175 
L 273.653533 131.117395 
L 274.983121 132.175211 
L 276.312709 133.046449 
L 277.642297 133.72767 
L 278.971885 134.216186 
L 280.301474 134.510069 
L 281.631062 134.608159 
L 282.96065 134.510069 
L 284.290238 134.216186 
L 285.619827 133.72767 
L 286.949415 133.046449 
L 288.279003 132.175211 
L 289.608591 131.117395 
L 290.938179 129.877175 
L 292.267768 128.459447 
L 294.926944 125.114521 
L 297.58612 121.135371 
L 300.245297 116.584748 
L 302.904473 111.534419 
L 305.56365 106.064032 
L 309.552414 97.261036 
L 316.200355 81.777553 
L 321.518708 69.5378 
L 325.507473 60.951176 
L 328.166649 55.680417 
L 330.825826 50.87045 
L 333.485002 46.597131 
L 336.144179 42.927852 
L 338.803355 39.920481 
L 340.132943 38.680261 
L 341.462531 37.622445 
L 342.79212 36.751208 
L 344.121708 36.069987 
L 345.451296 35.581471 
L 346.780884 35.287588 
L 348.110472 35.189498 
L 349.440061 35.287588 
L 350.769649 35.581471 
L 352.099237 36.069987 
L 353.428825 36.751208 
L 354.758413 37.622445 
L 356.088002 38.680261 
L 357.41759 39.920481 
L 358.747178 41.33821 
L 361.406355 44.683135 
L 364.065531 48.662286 
L 366.724707 53.212908 
L 369.383884 58.263237 
L 372.04306 63.733625 
L 376.031825 72.53662 
L 382.679766 88.020103 
L 387.998119 100.259856 
L 391.986883 108.846481 
L 394.64606 114.117239 
L 397.305236 118.927206 
L 399.964413 123.200526 
L 402.623589 126.869804 
L 405.282765 129.877175 
L 406.612354 131.117395 
L 407.941942 132.175211 
L 409.27153 133.046449 
L 410.601118 133.72767 
L 411.930707 134.216186 
L 413.260295 134.510069 
L 414.589883 134.608159 
L 415.919471 134.510069 
L 417.249059 134.216186 
L 418.578648 133.72767 
L 419.908236 133.046449 
L 421.237824 132.175211 
L 422.567412 131.117395 
L 423.897 129.877175 
L 425.226589 128.459447 
L 427.885765 125.114521 
L 430.544941 121.135371 
L 433.204118 116.584748 
L 435.863294 111.534419 
L 438.522471 106.064032 
L 442.511235 97.261036 
L 446.5 88.020103 
L 446.5 88.020103 
" style="fill:none;stroke:#ff7f0e;stroke-linecap:square;stroke-width:1.5;"/>
   </g>
   <g id="line2d_9">
    <path clip-path="url(#p678cc6e071)" d="M 48.953125 84.898828 
L 55.601066 75.682211 
L 59.589831 70.530237 
L 62.249007 67.367781 
L 64.908184 64.481801 
L 67.56736 61.91781 
L 70.226536 59.716243 
L 72.885713 57.91182 
L 75.544889 56.532999 
L 78.204066 55.601523 
L 79.533654 55.308414 
L 80.863242 55.132084 
L 82.19283 55.07323 
L 83.522418 55.132084 
L 84.852007 55.308414 
L 86.181595 55.601523 
L 88.840771 56.532999 
L 91.499948 57.91182 
L 94.159124 59.716243 
L 96.818301 61.91781 
L 99.477477 64.481801 
L 102.136653 67.367781 
L 104.79583 70.530237 
L 108.784594 75.682211 
L 114.102947 83.026063 
L 122.080477 94.115445 
L 126.069241 99.26742 
L 128.728418 102.429875 
L 131.387594 105.315855 
L 134.04677 107.879847 
L 136.705947 110.081414 
L 139.365123 111.885836 
L 142.0243 113.264658 
L 144.683476 114.196133 
L 146.013064 114.489243 
L 147.342653 114.665572 
L 148.672241 114.724426 
L 150.001829 114.665572 
L 151.331417 114.489243 
L 152.661005 114.196133 
L 155.320182 113.264658 
L 157.979358 111.885836 
L 160.638535 110.081414 
L 163.297711 107.879847 
L 165.956888 105.315855 
L 168.616064 102.429875 
L 171.27524 99.26742 
L 175.264005 94.115445 
L 180.582358 86.771593 
L 188.559887 75.682211 
L 192.548652 70.530237 
L 195.207828 67.367781 
L 197.867005 64.481801 
L 200.526181 61.91781 
L 203.185357 59.716243 
L 205.844534 57.91182 
L 208.50371 56.532999 
L 211.162887 55.601523 
L 212.492475 55.308414 
L 213.822063 55.132084 
L 215.151651 55.07323 
L 216.48124 55.132084 
L 217.810828 55.308414 
L 219.140416 55.601523 
L 221.799592 56.532999 
L 224.458769 57.91182 
L 227.117945 59.716243 
L 229.777122 61.91781 
L 232.436298 64.481801 
L 235.095474 67.367781 
L 237.754651 70.530237 
L 241.743416 75.682211 
L 247.061768 83.026063 
L 255.039298 94.115445 
L 259.028062 99.26742 
L 261.687239 102.429875 
L 264.346415 105.315855 
L 267.005592 107.879847 
L 269.664768 110.081414 
L 272.323944 111.885836 
L 274.983121 113.264658 
L 277.642297 114.196133 
L 278.971885 114.489243 
L 280.301474 114.665572 
L 281.631062 114.724426 
L 282.96065 114.665572 
L 284.290238 114.489243 
L 285.619827 114.196133 
L 288.279003 113.264658 
L 290.938179 111.885836 
L 293.597356 110.081414 
L 296.256532 107.879847 
L 298.915709 105.315855 
L 301.574885 102.429875 
L 304.234061 99.26742 
L 308.222826 94.115445 
L 313.541179 86.771593 
L 321.518708 75.682211 
L 325.507473 70.530237 
L 328.166649 67.367781 
L 330.825826 64.481801 
L 333.485002 61.91781 
L 336.144179 59.716243 
L 338.803355 57.91182 
L 341.462531 56.532999 
L 344.121708 55.601523 
L 345.451296 55.308414 
L 346.780884 55.132084 
L 348.110472 55.07323 
L 349.440061 55.132084 
L 350.769649 55.308414 
L 352.099237 55.601523 
L 354.758413 56.532999 
L 357.41759 57.91182 
L 360.076766 59.716243 
L 362.735943 61.91781 
L 365.395119 64.481801 
L 368.054296 67.367781 
L 370.713472 70.530237 
L 374.702237 75.682211 
L 380.020589 83.026063 
L 387.998119 94.115445 
L 391.986883 99.26742 
L 394.64606 102.429875 
L 397.305236 105.315855 
L 399.964413 107.879847 
L 402.623589 110.081414 
L 405.282765 111.885836 
L 407.941942 113.264658 
L 410.601118 114.196133 
L 411.930707 114.489243 
L 413.260295 114.665572 
L 414.589883 114.724426 
L 415.919471 114.665572 
L 417.249059 114.489243 
L 418.578648 114.196133 
L 421.237824 113.264658 
L 423.897 111.885836 
L 426.556177 110.081414 
L 429.215353 107.879847 
L 431.87453 105.315855 
L 434.533706 102.429875 
L 437.192883 99.26742 
L 441.181647 94.115445 
L 446.5 86.771593 
L 446.5 86.771593 
" style="fill:none;stroke:#2ca02c;stroke-linecap:square;stroke-width:1.5;"/>
   </g>
   <g id="patch_3">
    <path d="M 48.953125 155.198438 
L 48.953125 14.599219 
" style="fill:none;stroke:#000000;stroke-linecap:square;stroke-linejoin:miter;stroke-width:0.8;"/>
   </g>
   <g id="patch_4">
    <path d="M 446.5 155.198438 
L 446.5 14.599219 
" style="fill:none;stroke:#000000;stroke-linecap:square;stroke-linejoin:miter;stroke-width:0.8;"/>
   </g>
   <g id="patch_5">
    <path d="M 48.953125 155.198437 
L 446.5 155.198437 
" style="fill:none;stroke:#000000;stroke-linecap:square;stroke-linejoin:miter;stroke-width:0.8;"/>
   </g>
   <g id="patch_6">
    <path d="M 48.953125 14.599219 
L 446.5 14.599219 
" style="fill:none;stroke:#000000;stroke-linecap:square;stroke-linejoin:miter;stroke-width:0.8;"/>
   </g>
   <g id="legend_1">
    <g id="patch_7">
     <path d="M 373.748438 67.603906 
L 439.5 67.603906 
Q 441.5 67.603906 441.5 65.603906 
L 441.5 21.599219 
Q 441.5 19.599219 439.5 19.599219 
L 373.748438 19.599219 
Q 371.748438 19.599219 371.748438 21.599219 
L 371.748438 65.603906 
Q 371.748438 67.603906 373.748438 67.603906 
z
" style="fill:#ffffff;opacity:0.8;stroke:#cccccc;stroke-linejoin:miter;"/>
    </g>
    <g id="line2d_10">
     <path d="M 375.748438 27.697656 
L 395.748438 27.697656 
" style="fill:none;stroke:#1f77b4;stroke-linecap:square;stroke-width:1.5;"/>
    </g>
    <g id="line2d_11"/>
    <g id="text_8">
     <text style="font-family:Open Sans;font-size:10px;font-style:normal;font-weight:normal;text-anchor:start;" transform="rotate(-0, 403.748438, 31.197656)" x="403.748438" y="31.197656">Wave 1</text>
    </g>
    <g id="line2d_12">
     <path d="M 375.748438 42.699219 
L 395.748438 42.699219 
" style="fill:none;stroke:#ff7f0e;stroke-linecap:square;stroke-width:1.5;"/>
    </g>
    <g id="line2d_13"/>
    <g id="text_9">
     <text style="font-family:Open Sans;font-size:10px;font-style:normal;font-weight:normal;text-anchor:start;" transform="rotate(-0, 403.748438, 46.199219)" x="403.748438" y="46.199219">Wave 2</text>
    </g>
    <g id="line2d_14">
     <path d="M 375.748438 57.700781 
L 395.748438 57.700781 
" style="fill:none;stroke:#2ca02c;stroke-linecap:square;stroke-width:1.5;"/>
    </g>
    <g id="line2d_15"/>
    <g id="text_10">
     <text style="font-family:Open Sans;font-size:10px;font-style:normal;font-weight:normal;text-anchor:start;" transform="rotate(-0, 403.748438, 61.200781)" x="403.748438" y="61.200781">Sum</text>
    </g>
   </g>
  </g>
 </g>
 <defs>
  <clipPath id="p678cc6e071">
   <rect height="140.599219" width="397.546875" x="48.953125" y="14.599219"/>
  </clipPath>
 </defs>
</svg>
