<?xml version="1.0" encoding="utf-8" standalone="no"?>
<?xml-stylesheet type="text/css" href="https://fonts.googleapis.com/css?family=Open+Sans:300italic,400italic,600italic,700italic,400,600,700,300&amp;subset=latin,cyrillic-ext,latin-ext,cyrillic" ?>
<!DOCTYPE svg PUBLIC "-//W3C//DTD SVG 1.1//EN"
  "http://www.w3.org/Graphics/SVG/1.1/DTD/svg11.dtd">
<!-- Created with matplotlib (http://matplotlib.org/) -->
<svg height="180pt" version="1.1" viewBox="0 0 460 180" width="460pt" xmlns="http://www.w3.org/2000/svg" xmlns:xlink="http://www.w3.org/1999/xlink">
 <defs>
  <style type="text/css">
*{stroke-linecap:butt;stroke-linejoin:round;}
  </style>
 </defs>
 <g id="figure_1">
  <g id="patch_1">
   <path d="M 0 180 
L 460.8 180 
L 460.8 0 
L 0 0 
z
" style="fill:#fefefe;"/>
  </g>
  <g id="axes_1">
   <g id="patch_2">
    <path d="M 48.953125 155.198437 
L 446.5 155.198437 
L 446.5 14.599219 
L 48.953125 14.599219 
z
" style="fill:#ffffff;"/>
   </g>
   <g id="line2d_1">
    <path clip-path="url(#pf5b6372b58)" d="M 48.953125 84.898828 
L 446.5 84.898828 
" style="fill:none;stroke:#808080;stroke-linecap:square;stroke-width:1.5;"/>
   </g>
   <g id="matplotlib.axis_1">
    <g id="text_1">
     <text style="font-family:Open Sans;font-size:10px;font-style:normal;font-weight:normal;text-anchor:middle;" transform="rotate(-0, 247.726562, 166.796875)" x="247.726562" y="166.796875">Time</text>
    </g>
   </g>
   <g id="matplotlib.axis_2">
    <g id="ytick_1">
     <g id="line2d_2">
      <defs>
       <path d="M 0 0 
L -3.5 0 
" id="mfaf50d8684" style="stroke:#000000;stroke-width:0.8;"/>
      </defs>
      <g>
       <use style="stroke:#000000;stroke-width:0.8;" x="48.953125" xlink:href="#mfaf50d8684" y="155.198438"/>
      </g>
     </g>
     <g id="text_2">
      <text style="font-family:Open Sans;font-size:10px;font-style:normal;font-weight:normal;text-anchor:end;" transform="rotate(-0, 41.953125, 158.997656)" x="41.953125" y="158.997656">−10</text>
     </g>
    </g>
    <g id="ytick_2">
     <g id="line2d_3">
      <g>
       <use style="stroke:#000000;stroke-width:0.8;" x="48.953125" xlink:href="#mfaf50d8684" y="120.048633"/>
      </g>
     </g>
     <g id="text_3">
      <text style="font-family:Open Sans;font-size:10px;font-style:normal;font-weight:normal;text-anchor:end;" transform="rotate(-0, 41.953125, 123.847852)" x="41.953125" y="123.847852">−5</text>
     </g>
    </g>
    <g id="ytick_3">
     <g id="line2d_4">
      <g>
       <use style="stroke:#000000;stroke-width:0.8;" x="48.953125" xlink:href="#mfaf50d8684" y="84.898828"/>
      </g>
     </g>
     <g id="text_4">
      <text style="font-family:Open Sans;font-size:10px;font-style:normal;font-weight:normal;text-anchor:end;" transform="rotate(-0, 41.953125, 88.698047)" x="41.953125" y="88.698047">0</text>
     </g>
    </g>
    <g id="ytick_4">
     <g id="line2d_5">
      <g>
       <use style="stroke:#000000;stroke-width:0.8;" x="48.953125" xlink:href="#mfaf50d8684" y="49.749023"/>
      </g>
     </g>
     <g id="text_5">
      <text style="font-family:Open Sans;font-size:10px;font-style:normal;font-weight:normal;text-anchor:end;" transform="rotate(-0, 41.953125, 53.548242)" x="41.953125" y="53.548242">5</text>
     </g>
    </g>
    <g id="ytick_5">
     <g id="line2d_6">
      <g>
       <use style="stroke:#000000;stroke-width:0.8;" x="48.953125" xlink:href="#mfaf50d8684" y="14.599219"/>
      </g>
     </g>
     <g id="text_6">
      <text style="font-family:Open Sans;font-size:10px;font-style:normal;font-weight:normal;text-anchor:end;" transform="rotate(-0, 41.953125, 18.398438)" x="41.953125" y="18.398438">10</text>
     </g>
    </g>
    <g id="text_7">
     <text style="font-family:Open Sans;font-size:10px;font-style:normal;font-weight:normal;text-anchor:middle;" transform="rotate(-90, 18.398438, 84.898828)" x="18.398438" y="84.898828">Amplitude</text>
    </g>
   </g>
   <g id="line2d_7">
    <path clip-path="url(#pf5b6372b58)" d="M 48.953125 84.898828 
L 58.51337 74.457875 
L 63.293493 69.534294 
L 67.276929 65.693174 
L 71.260364 62.154937 
L 74.447113 59.580107 
L 77.633861 57.260943 
L 80.82061 55.220866 
L 84.007358 53.480477 
L 87.194107 52.057348 
L 89.584168 51.206974 
L 91.97423 50.548044 
L 94.364291 50.084302 
L 96.754352 49.818384 
L 99.144414 49.751799 
L 101.534475 49.884926 
L 103.924537 50.21701 
L 106.314598 50.746162 
L 108.704659 51.469377 
L 111.094721 52.382545 
L 114.281469 53.886464 
L 117.468218 55.703544 
L 120.654966 57.815438 
L 123.841715 60.200819 
L 127.028463 62.835599 
L 131.011899 66.439042 
L 134.995334 70.333607 
L 139.775457 75.304621 
L 146.945641 83.13275 
L 158.099261 95.339782 
L 162.879384 100.263362 
L 166.862819 104.104483 
L 170.846255 107.642719 
L 174.033004 110.21755 
L 177.219752 112.536713 
L 180.406501 114.57679 
L 183.593249 116.31718 
L 186.779997 117.740308 
L 189.170059 118.590682 
L 191.56012 119.249612 
L 193.950182 119.713354 
L 196.340243 119.979273 
L 198.730304 120.045858 
L 201.120366 119.91273 
L 203.510427 119.580646 
L 205.900488 119.051494 
L 208.29055 118.328279 
L 210.680611 117.415111 
L 213.86736 115.911192 
L 217.054108 114.094112 
L 220.240857 111.982218 
L 223.427605 109.596837 
L 226.614354 106.962057 
L 230.597789 103.358614 
L 234.581225 99.464049 
L 239.361348 94.493035 
L 246.531532 86.664906 
L 257.685152 74.457875 
L 262.465274 69.534294 
L 266.44871 65.693174 
L 270.432146 62.154937 
L 273.618894 59.580107 
L 276.805643 57.260943 
L 279.992391 55.220866 
L 283.17914 53.480477 
L 286.365888 52.057348 
L 288.755949 51.206974 
L 291.146011 50.548044 
L 293.536072 50.084302 
L 295.926134 49.818384 
L 298.316195 49.751799 
L 300.706256 49.884926 
L 303.096318 50.21701 
L 305.486379 50.746162 
L 307.87644 51.469377 
L 310.266502 52.382545 
L 313.45325 53.886464 
L 316.639999 55.703544 
L 319.826747 57.815438 
L 323.013496 60.200819 
L 326.200244 62.835599 
L 330.18368 66.439042 
L 334.167115 70.333607 
L 338.947238 75.304621 
L 346.117422 83.13275 
L 357.271042 95.339782 
L 362.051165 100.263362 
L 366.0346 104.104483 
L 370.018036 107.642719 
L 373.204785 110.21755 
L 376.391533 112.536713 
L 379.578282 114.57679 
L 382.76503 116.31718 
L 385.951779 117.740308 
L 388.34184 118.590682 
L 390.731901 119.249612 
L 393.121963 119.713354 
L 395.512024 119.979273 
L 397.902085 120.045858 
L 400.292147 119.91273 
L 402.682208 119.580646 
L 405.07227 119.051494 
L 407.462331 118.328279 
L 409.852392 117.415111 
L 413.039141 115.911192 
L 416.225889 114.094112 
L 419.412638 111.982218 
L 422.599386 109.596837 
L 425.786135 106.962057 
L 429.76957 103.358614 
L 433.753006 99.464049 
L 438.533129 94.493035 
L 445.703313 86.664906 
L 446.5 85.782146 
L 446.5 85.782146 
" style="fill:none;stroke:#1f77b4;stroke-linecap:square;stroke-width:1.5;"/>
   </g>
   <g id="line2d_8">
    <path clip-path="url(#pf5b6372b58)" d="M 48.953125 66.634454 
L 50.546499 65.456842 
L 52.139873 64.585842 
L 53.733248 64.035191 
L 55.326622 63.813571 
L 56.919996 63.924478 
L 58.51337 64.366163 
L 60.106745 65.131661 
L 61.700119 66.208898 
L 63.293493 67.580888 
L 64.886867 69.225991 
L 66.480242 71.118264 
L 68.870303 74.353887 
L 71.260364 77.963069 
L 75.2438 84.457155 
L 80.023923 92.250172 
L 82.413984 95.823957 
L 84.804046 99.010714 
L 86.39742 100.863765 
L 87.990794 102.465039 
L 89.584168 103.789284 
L 91.177543 104.815615 
L 92.770917 105.527846 
L 94.364291 105.914746 
L 95.957665 105.970212 
L 97.55104 105.693369 
L 99.144414 105.088584 
L 100.737788 104.165395 
L 102.331162 102.93836 
L 103.924537 101.426831 
L 105.517911 99.654646 
L 107.907972 96.569791 
L 110.298034 93.071486 
L 113.484782 87.979702 
L 120.654966 76.3208 
L 123.045028 72.862546 
L 125.435089 69.830683 
L 127.028463 68.100105 
L 128.621837 66.634454 
L 130.215212 65.456842 
L 131.808586 64.585842 
L 133.40196 64.035191 
L 134.995334 63.813571 
L 136.588709 63.924478 
L 138.182083 64.366163 
L 139.775457 65.131661 
L 141.368831 66.208898 
L 142.962206 67.580888 
L 144.55558 69.225991 
L 146.148954 71.118264 
L 148.539016 74.353887 
L 150.929077 77.963069 
L 154.912513 84.457155 
L 159.692635 92.250172 
L 162.082697 95.823957 
L 164.472758 99.010714 
L 166.066132 100.863765 
L 167.659507 102.465039 
L 169.252881 103.789284 
L 170.846255 104.815615 
L 172.439629 105.527846 
L 174.033004 105.914746 
L 175.626378 105.970212 
L 177.219752 105.693369 
L 178.813126 105.088584 
L 180.406501 104.165395 
L 181.999875 102.93836 
L 183.593249 101.426831 
L 185.186623 99.654646 
L 187.576685 96.569791 
L 189.966746 93.071486 
L 193.153494 87.979702 
L 200.323679 76.3208 
L 202.71374 72.862546 
L 205.103801 69.830683 
L 206.697176 68.100105 
L 208.29055 66.634454 
L 209.883924 65.456842 
L 211.477298 64.585842 
L 213.070673 64.035191 
L 214.664047 63.813571 
L 216.257421 63.924478 
L 217.850795 64.366163 
L 219.44417 65.131661 
L 221.037544 66.208898 
L 222.630918 67.580888 
L 224.224292 69.225991 
L 225.817667 71.118264 
L 228.207728 74.353887 
L 230.597789 77.963069 
L 234.581225 84.457155 
L 239.361348 92.250172 
L 241.751409 95.823957 
L 244.14147 99.010714 
L 245.734845 100.863765 
L 247.328219 102.465039 
L 248.921593 103.789284 
L 250.514967 104.815615 
L 252.108342 105.527846 
L 253.701716 105.914746 
L 255.29509 105.970212 
L 256.888464 105.693369 
L 258.481839 105.088584 
L 260.075213 104.165395 
L 261.668587 102.93836 
L 263.261961 101.426831 
L 264.855336 99.654646 
L 267.245397 96.569791 
L 269.635458 93.071486 
L 272.822207 87.979702 
L 279.992391 76.3208 
L 282.382452 72.862546 
L 284.772514 69.830683 
L 286.365888 68.100105 
L 287.959262 66.634454 
L 289.552637 65.456842 
L 291.146011 64.585842 
L 292.739385 64.035191 
L 294.332759 63.813571 
L 295.926134 63.924478 
L 297.519508 64.366163 
L 299.112882 65.131661 
L 300.706256 66.208898 
L 302.299631 67.580888 
L 303.893005 69.225991 
L 305.486379 71.118264 
L 307.87644 74.353887 
L 310.266502 77.963069 
L 314.249937 84.457155 
L 319.03006 92.250172 
L 321.420121 95.823957 
L 323.810183 99.010714 
L 325.403557 100.863765 
L 326.996931 102.465039 
L 328.590306 103.789284 
L 330.18368 104.815615 
L 331.777054 105.527846 
L 333.370428 105.914746 
L 334.963803 105.970212 
L 336.557177 105.693369 
L 338.150551 105.088584 
L 339.743925 104.165395 
L 341.3373 102.93836 
L 342.930674 101.426831 
L 344.524048 99.654646 
L 346.914109 96.569791 
L 349.304171 93.071486 
L 352.490919 87.979702 
L 359.661103 76.3208 
L 362.051165 72.862546 
L 364.441226 69.830683 
L 366.0346 68.100105 
L 367.627975 66.634454 
L 369.221349 65.456842 
L 370.814723 64.585842 
L 372.408097 64.035191 
L 374.001472 63.813571 
L 375.594846 63.924478 
L 377.18822 64.366163 
L 378.781594 65.131661 
L 380.374969 66.208898 
L 381.968343 67.580888 
L 383.561717 69.225991 
L 385.155091 71.118264 
L 387.545153 74.353887 
L 389.935214 77.963069 
L 393.91865 84.457155 
L 398.698773 92.250172 
L 401.088834 95.823957 
L 403.478895 99.010714 
L 405.07227 100.863765 
L 406.665644 102.465039 
L 408.259018 103.789284 
L 409.852392 104.815615 
L 411.445767 105.527846 
L 413.039141 105.914746 
L 414.632515 105.970212 
L 416.225889 105.693369 
L 417.819264 105.088584 
L 419.412638 104.165395 
L 421.006012 102.93836 
L 422.599386 101.426831 
L 424.192761 99.654646 
L 426.582822 96.569791 
L 428.972883 93.071486 
L 432.159632 87.979702 
L 439.329816 76.3208 
L 441.719877 72.862546 
L 444.109939 69.830683 
L 445.703313 68.100105 
L 446.5 67.332617 
L 446.5 67.332617 
" style="fill:none;stroke:#ff7f0e;stroke-linecap:square;stroke-width:1.5;"/>
   </g>
   <g id="line2d_9">
    <path clip-path="url(#pf5b6372b58)" d="M 48.953125 66.634454 
L 51.343186 62.334319 
L 52.936561 59.864371 
L 54.529935 57.730884 
L 56.123309 55.944371 
L 57.716683 54.51008 
L 59.310058 53.427967 
L 60.903432 52.692755 
L 62.496806 52.294075 
L 64.09018 52.216683 
L 65.683555 52.440753 
L 67.276929 52.942249 
L 68.870303 53.69335 
L 70.463677 54.662941 
L 72.853739 56.452298 
L 75.2438 58.533713 
L 84.007358 66.580411 
L 86.39742 68.347482 
L 87.990794 69.319106 
L 89.584168 70.097431 
L 91.177543 70.662949 
L 92.770917 71.000641 
L 94.364291 71.10022 
L 95.957665 70.95631 
L 97.55104 70.568539 
L 99.144414 69.941555 
L 100.737788 69.08495 
L 102.331162 68.013117 
L 104.721224 66.04446 
L 107.111285 63.716777 
L 110.298034 60.230007 
L 117.468218 52.186411 
L 119.858279 49.9096 
L 121.451653 48.61618 
L 123.045028 47.543824 
L 124.638402 46.725245 
L 126.231776 46.19 
L 127.82515 45.963986 
L 129.418525 46.068979 
L 131.011899 46.522255 
L 132.605273 47.336262 
L 134.198647 48.518377 
L 135.792022 50.070737 
L 137.385396 51.990156 
L 138.97877 54.268119 
L 140.572144 56.890861 
L 142.165519 59.839529 
L 144.55558 64.820552 
L 146.945641 70.381826 
L 150.13239 78.492248 
L 154.912513 91.476922 
L 159.692635 104.364303 
L 162.879384 112.299644 
L 165.269445 117.66923 
L 167.659507 122.404432 
L 169.252881 125.157915 
L 170.846255 127.559506 
L 172.439629 129.589543 
L 174.033004 131.233467 
L 175.626378 132.482 
L 177.219752 133.331254 
L 178.813126 133.782749 
L 180.406501 133.843356 
L 181.999875 133.525149 
L 183.593249 132.845183 
L 185.186623 131.825194 
L 186.779997 130.491232 
L 188.373372 128.87322 
L 189.966746 127.004462 
L 192.356807 123.810866 
L 195.543556 119.029577 
L 204.307114 105.314147 
L 206.697176 102.033082 
L 209.087237 99.154305 
L 210.680611 97.498324 
L 212.273985 96.074304 
L 213.86736 94.895275 
L 215.460734 93.969339 
L 217.054108 93.299571 
L 218.647482 92.883995 
L 220.240857 92.715651 
L 221.834231 92.782738 
L 223.427605 93.068834 
L 225.020979 93.553197 
L 227.411041 94.596496 
L 229.801102 95.931824 
L 233.784538 98.498606 
L 237.767973 100.995826 
L 240.158035 102.218257 
L 241.751409 102.843724 
L 243.344783 103.279162 
L 244.938158 103.494668 
L 246.531532 103.463629 
L 248.124906 103.163202 
L 249.71828 102.574736 
L 251.311655 101.684119 
L 252.905029 100.482066 
L 254.498403 98.964319 
L 256.091777 97.131777 
L 257.685152 94.99054 
L 259.278526 92.551864 
L 261.668587 88.373139 
L 264.058649 83.638118 
L 266.44871 78.444098 
L 269.635458 71.008258 
L 278.399017 50.109016 
L 280.789078 44.986075 
L 283.17914 40.380543 
L 284.772514 37.660135 
L 286.365888 35.258626 
L 287.959262 33.205003 
L 289.552637 31.523866 
L 291.146011 30.235059 
L 292.739385 29.353372 
L 294.332759 28.888327 
L 295.926134 28.844033 
L 297.519508 29.219134 
L 299.112882 30.006831 
L 300.706256 31.194997 
L 302.299631 32.766362 
L 303.893005 34.698786 
L 305.486379 36.965599 
L 307.079753 39.536012 
L 309.469815 43.88469 
L 311.859876 48.709501 
L 315.046624 55.640086 
L 323.013496 73.300753 
L 325.403557 78.119874 
L 327.793618 82.502666 
L 330.18368 86.355829 
L 331.777054 88.594299 
L 333.370428 90.550212 
L 334.963803 92.213504 
L 336.557177 93.579238 
L 338.150551 94.647631 
L 339.743925 95.423994 
L 341.3373 95.918593 
L 342.930674 96.146431 
L 344.524048 96.126951 
L 346.117422 95.883675 
L 347.710797 95.44377 
L 350.100858 94.48231 
L 352.490919 93.260102 
L 360.457791 88.884677 
L 362.847852 87.953037 
L 364.441226 87.53294 
L 366.0346 87.30576 
L 367.627975 87.294991 
L 369.221349 87.520071 
L 370.814723 87.99603 
L 372.408097 88.7332 
L 374.001472 89.737013 
L 375.594846 91.007868 
L 377.18822 92.541086 
L 378.781594 94.326944 
L 381.171656 97.446085 
L 383.561717 101.030485 
L 385.951779 104.989383 
L 389.935214 112.115735 
L 395.512024 122.183766 
L 397.902085 126.141504 
L 400.292147 129.683589 
L 401.885521 131.749636 
L 403.478895 133.537919 
L 405.07227 135.016431 
L 406.665644 136.156893 
L 408.259018 136.935217 
L 409.852392 137.331898 
L 411.445767 137.332341 
L 413.039141 136.92711 
L 414.632515 136.112106 
L 416.225889 134.888653 
L 417.819264 133.263507 
L 419.412638 131.248785 
L 421.006012 128.861802 
L 422.599386 126.124841 
L 424.989448 121.423283 
L 427.379509 116.104306 
L 430.566258 108.272573 
L 435.34638 95.633841 
L 440.126503 83.011042 
L 443.313252 75.192381 
L 445.703313 69.866183 
L 446.5 68.215935 
L 446.5 68.215935 
" style="fill:none;stroke:#2ca02c;stroke-linecap:square;stroke-width:1.5;"/>
   </g>
   <g id="patch_3">
    <path d="M 48.953125 155.198438 
L 48.953125 14.599219 
" style="fill:none;stroke:#000000;stroke-linecap:square;stroke-linejoin:miter;stroke-width:0.8;"/>
   </g>
   <g id="patch_4">
    <path d="M 446.5 155.198438 
L 446.5 14.599219 
" style="fill:none;stroke:#000000;stroke-linecap:square;stroke-linejoin:miter;stroke-width:0.8;"/>
   </g>
   <g id="patch_5">
    <path d="M 48.953125 155.198437 
L 446.5 155.198437 
" style="fill:none;stroke:#000000;stroke-linecap:square;stroke-linejoin:miter;stroke-width:0.8;"/>
   </g>
   <g id="patch_6">
    <path d="M 48.953125 14.599219 
L 446.5 14.599219 
" style="fill:none;stroke:#000000;stroke-linecap:square;stroke-linejoin:miter;stroke-width:0.8;"/>
   </g>
   <g id="legend_1">
    <g id="patch_7">
     <path d="M 373.748438 67.603906 
L 439.5 67.603906 
Q 441.5 67.603906 441.5 65.603906 
L 441.5 21.599219 
Q 441.5 19.599219 439.5 19.599219 
L 373.748438 19.599219 
Q 371.748438 19.599219 371.748438 21.599219 
L 371.748438 65.603906 
Q 371.748438 67.603906 373.748438 67.603906 
z
" style="fill:#ffffff;opacity:0.8;stroke:#cccccc;stroke-linejoin:miter;"/>
    </g>
    <g id="line2d_10">
     <path d="M 375.748438 27.697656 
L 395.748438 27.697656 
" style="fill:none;stroke:#1f77b4;stroke-linecap:square;stroke-width:1.5;"/>
    </g>
    <g id="line2d_11"/>
    <g id="text_8">
     <text style="font-family:Open Sans;font-size:10px;font-style:normal;font-weight:normal;text-anchor:start;" transform="rotate(-0, 403.748438, 31.197656)" x="403.748438" y="31.197656">Wave 1</text>
    </g>
    <g id="line2d_12">
     <path d="M 375.748438 42.699219 
L 395.748438 42.699219 
" style="fill:none;stroke:#ff7f0e;stroke-linecap:square;stroke-width:1.5;"/>
    </g>
    <g id="line2d_13"/>
    <g id="text_9">
     <text style="font-family:Open Sans;font-size:10px;font-style:normal;font-weight:normal;text-anchor:start;" transform="rotate(-0, 403.748438, 46.199219)" x="403.748438" y="46.199219">Wave 2</text>
    </g>
    <g id="line2d_14">
     <path d="M 375.748438 57.700781 
L 395.748438 57.700781 
" style="fill:none;stroke:#2ca02c;stroke-linecap:square;stroke-width:1.5;"/>
    </g>
    <g id="line2d_15"/>
    <g id="text_10">
     <text style="font-family:Open Sans;font-size:10px;font-style:normal;font-weight:normal;text-anchor:start;" transform="rotate(-0, 403.748438, 61.200781)" x="403.748438" y="61.200781">Sum</text>
    </g>
   </g>
  </g>
 </g>
 <defs>
  <clipPath id="pf5b6372b58">
   <rect height="140.599219" width="397.546875" x="48.953125" y="14.599219"/>
  </clipPath>
 </defs>
</svg>
