<?xml version="1.0" encoding="utf-8" standalone="no"?>
<?xml-stylesheet type="text/css" href="https://fonts.googleapis.com/css?family=Open+Sans:300italic,400italic,600italic,700italic,400,600,700,300&amp;subset=latin,cyrillic-ext,latin-ext,cyrillic" ?>
<!DOCTYPE svg PUBLIC "-//W3C//DTD SVG 1.1//EN"
  "http://www.w3.org/Graphics/SVG/1.1/DTD/svg11.dtd">
<!-- Created with matplotlib (http://matplotlib.org/) -->
<svg height="180pt" version="1.1" viewBox="0 0 460.8 180" width="460.8pt" xmlns="http://www.w3.org/2000/svg" xmlns:xlink="http://www.w3.org/1999/xlink">
 <defs>
  <style type="text/css">
*{stroke-linecap:butt;stroke-linejoin:round;}
  </style>
 </defs>
 <g id="figure_1">
  <g id="patch_1">
   <path d="M 0 180 
L 460.8 180 
L 460.8 0 
L 0 0 
z
" style="fill:#fefefe;"/>
  </g>
  <g id="axes_1">
   <g id="patch_2">
    <path d="M 24.801563 138.196875 
L 446.5 138.196875 
L 446.5 14.3 
L 24.801563 14.3 
z
" style="fill:#ffffff;"/>
   </g>
   <g id="line2d_1">
    <path clip-path="url(#pbd737df02e)" d="M 24.801563 76.248437 
L 446.5 76.248437 
" style="fill:none;stroke:#808080;stroke-linecap:square;stroke-width:1.5;"/>
   </g>
   <g id="matplotlib.axis_1">
    <g id="xtick_1">
     <g id="line2d_2">
      <defs>
       <path d="M 0 0 
L 0 3.5 
" id="mc1b6aceab8" style="stroke:#000000;stroke-width:0.8;"/>
      </defs>
      <g>
       <use style="stroke:#000000;stroke-width:0.8;" x="24.801563" xlink:href="#mc1b6aceab8" y="138.196875"/>
      </g>
     </g>
     <g id="text_1">
      <text style="font-family:Open Sans;font-size:10px;font-style:normal;font-weight:normal;text-anchor:middle;" transform="rotate(-0, 24.801563, 152.795312)" x="24.801563" y="152.795312">0.00</text>
     </g>
    </g>
    <g id="xtick_2">
     <g id="line2d_3">
      <g>
       <use style="stroke:#000000;stroke-width:0.8;" x="77.778753" xlink:href="#mc1b6aceab8" y="138.196875"/>
      </g>
     </g>
     <g id="text_2">
      <text style="font-family:Open Sans;font-size:10px;font-style:normal;font-weight:normal;text-anchor:middle;" transform="rotate(-0, 77.778753, 152.795312)" x="77.778753" y="152.795312">0.25</text>
     </g>
    </g>
    <g id="xtick_3">
     <g id="line2d_4">
      <g>
       <use style="stroke:#000000;stroke-width:0.8;" x="130.755944" xlink:href="#mc1b6aceab8" y="138.196875"/>
      </g>
     </g>
     <g id="text_3">
      <text style="font-family:Open Sans;font-size:10px;font-style:normal;font-weight:normal;text-anchor:middle;" transform="rotate(-0, 130.755944, 152.795312)" x="130.755944" y="152.795312">0.50</text>
     </g>
    </g>
    <g id="xtick_4">
     <g id="line2d_5">
      <g>
       <use style="stroke:#000000;stroke-width:0.8;" x="183.733134" xlink:href="#mc1b6aceab8" y="138.196875"/>
      </g>
     </g>
     <g id="text_4">
      <text style="font-family:Open Sans;font-size:10px;font-style:normal;font-weight:normal;text-anchor:middle;" transform="rotate(-0, 183.733134, 152.795312)" x="183.733134" y="152.795312">0.75</text>
     </g>
    </g>
    <g id="xtick_5">
     <g id="line2d_6">
      <g>
       <use style="stroke:#000000;stroke-width:0.8;" x="236.710325" xlink:href="#mc1b6aceab8" y="138.196875"/>
      </g>
     </g>
     <g id="text_5">
      <text style="font-family:Open Sans;font-size:10px;font-style:normal;font-weight:normal;text-anchor:middle;" transform="rotate(-0, 236.710325, 152.795312)" x="236.710325" y="152.795312">1.00</text>
     </g>
    </g>
    <g id="xtick_6">
     <g id="line2d_7">
      <g>
       <use style="stroke:#000000;stroke-width:0.8;" x="289.687516" xlink:href="#mc1b6aceab8" y="138.196875"/>
      </g>
     </g>
     <g id="text_6">
      <text style="font-family:Open Sans;font-size:10px;font-style:normal;font-weight:normal;text-anchor:middle;" transform="rotate(-0, 289.687516, 152.795312)" x="289.687516" y="152.795312">1.25</text>
     </g>
    </g>
    <g id="xtick_7">
     <g id="line2d_8">
      <g>
       <use style="stroke:#000000;stroke-width:0.8;" x="342.664706" xlink:href="#mc1b6aceab8" y="138.196875"/>
      </g>
     </g>
     <g id="text_7">
      <text style="font-family:Open Sans;font-size:10px;font-style:normal;font-weight:normal;text-anchor:middle;" transform="rotate(-0, 342.664706, 152.795312)" x="342.664706" y="152.795312">1.50</text>
     </g>
    </g>
    <g id="xtick_8">
     <g id="line2d_9">
      <g>
       <use style="stroke:#000000;stroke-width:0.8;" x="395.641897" xlink:href="#mc1b6aceab8" y="138.196875"/>
      </g>
     </g>
     <g id="text_8">
      <text style="font-family:Open Sans;font-size:10px;font-style:normal;font-weight:normal;text-anchor:middle;" transform="rotate(-0, 395.641897, 152.795312)" x="395.641897" y="152.795312">1.75</text>
     </g>
    </g>
    <g id="text_9">
     <text style="font-family:Open Sans;font-size:10px;font-style:normal;font-weight:normal;text-anchor:middle;" transform="rotate(-0, 235.650781, 166.796875)" x="235.650781" y="166.796875">Time (milliseconds)</text>
    </g>
   </g>
   <g id="matplotlib.axis_2">
    <g id="text_10">
     <text style="font-family:Open Sans;font-size:10px;font-style:normal;font-weight:normal;text-anchor:middle;" transform="rotate(-90, 18.398438, 76.248437)" x="18.398438" y="76.248437">Amplitude</text>
    </g>
   </g>
   <g id="line2d_10">
    <path clip-path="url(#pbd737df02e)" d="M 24.801563 76.248437 
L 33.277913 62.243028 
L 37.516088 55.516855 
L 41.754264 49.117631 
L 45.992439 43.146276 
L 50.230614 37.696961 
L 54.468789 32.855627 
L 56.587877 30.68722 
L 58.706965 28.698623 
L 60.826052 26.897683 
L 62.94514 25.291508 
L 65.064227 23.886437 
L 67.183315 22.688015 
L 69.302403 21.700971 
L 71.42149 20.929201 
L 73.540578 20.375751 
L 75.659666 20.042804 
L 77.778753 19.931676 
L 79.897841 20.042804 
L 82.016928 20.375751 
L 84.136016 20.929201 
L 86.255104 21.700971 
L 88.374191 22.688015 
L 90.493279 23.886437 
L 92.612367 25.291508 
L 94.731454 26.897683 
L 96.850542 28.698623 
L 98.969629 30.68722 
L 101.088717 32.855627 
L 105.326892 37.696961 
L 109.565068 43.146276 
L 113.803243 49.117631 
L 118.041418 55.516855 
L 124.398681 65.695729 
L 143.47047 96.98002 
L 147.708645 103.379244 
L 151.94682 109.350599 
L 156.184995 114.799914 
L 160.423171 119.641248 
L 162.542258 121.809655 
L 164.661346 123.798252 
L 166.780433 125.599192 
L 168.899521 127.205367 
L 171.018609 128.610438 
L 173.137696 129.80886 
L 175.256784 130.795904 
L 177.375872 131.567674 
L 179.494959 132.121124 
L 181.614047 132.454071 
L 183.733134 132.565199 
L 185.852222 132.454071 
L 187.97131 132.121124 
L 190.090397 131.567674 
L 192.209485 130.795904 
L 194.328573 129.80886 
L 196.44766 128.610438 
L 198.566748 127.205367 
L 200.685835 125.599192 
L 202.804923 123.798252 
L 204.924011 121.809655 
L 207.043098 119.641248 
L 211.281274 114.799914 
L 215.519449 109.350599 
L 219.757624 103.379244 
L 223.995799 96.98002 
L 230.353062 86.801146 
L 249.424851 55.516855 
L 253.663026 49.117631 
L 257.901201 43.146276 
L 262.139377 37.696961 
L 266.377552 32.855627 
L 268.496639 30.68722 
L 270.615727 28.698623 
L 272.734815 26.897683 
L 274.853902 25.291508 
L 276.97299 23.886437 
L 279.092078 22.688015 
L 281.211165 21.700971 
L 283.330253 20.929201 
L 285.44934 20.375751 
L 287.568428 20.042804 
L 289.687516 19.931676 
L 291.806603 20.042804 
L 293.925691 20.375751 
L 296.044779 20.929201 
L 298.163866 21.700971 
L 300.282954 22.688015 
L 302.402041 23.886437 
L 304.521129 25.291508 
L 306.640217 26.897683 
L 308.759304 28.698623 
L 310.878392 30.68722 
L 312.99748 32.855627 
L 317.235655 37.696961 
L 321.47383 43.146276 
L 325.712005 49.117631 
L 329.950181 55.516855 
L 336.307443 65.695729 
L 355.379232 96.98002 
L 359.617407 103.379244 
L 363.855583 109.350599 
L 368.093758 114.799914 
L 372.331933 119.641248 
L 374.451021 121.809655 
L 376.570108 123.798252 
L 378.689196 125.599192 
L 380.808284 127.205367 
L 382.927371 128.610438 
L 385.046459 129.80886 
L 387.165546 130.795904 
L 389.284634 131.567674 
L 391.403722 132.121124 
L 393.522809 132.454071 
L 395.641897 132.565199 
L 397.760985 132.454071 
L 399.880072 132.121124 
L 401.99916 131.567674 
L 404.118247 130.795904 
L 406.237335 129.80886 
L 408.356423 128.610438 
L 410.47551 127.205367 
L 412.594598 125.599192 
L 414.713686 123.798252 
L 416.832773 121.809655 
L 418.951861 119.641248 
L 423.190036 114.799914 
L 427.428211 109.350599 
L 431.666387 103.379244 
L 435.904562 96.98002 
L 442.261825 86.801146 
L 446.5 79.784596 
L 446.5 79.784596 
" style="fill:none;stroke:#1f77b4;stroke-linecap:square;stroke-width:1.5;"/>
   </g>
   <g id="line2d_11">
    <path clip-path="url(#pbd737df02e)" d="M 24.801563 19.931676 
L 26.92065 20.042804 
L 29.039738 20.375751 
L 31.158825 20.929201 
L 33.277913 21.700971 
L 35.397001 22.688015 
L 37.516088 23.886437 
L 39.635176 25.291508 
L 41.754264 26.897683 
L 43.873351 28.698623 
L 45.992439 30.68722 
L 48.111526 32.855627 
L 52.349702 37.696961 
L 56.587877 43.146276 
L 60.826052 49.117631 
L 65.064227 55.516855 
L 71.42149 65.695729 
L 90.493279 96.98002 
L 94.731454 103.379244 
L 98.969629 109.350599 
L 103.207805 114.799914 
L 107.44598 119.641248 
L 109.565068 121.809655 
L 111.684155 123.798252 
L 113.803243 125.599192 
L 115.92233 127.205367 
L 118.041418 128.610438 
L 120.160506 129.80886 
L 122.279593 130.795904 
L 124.398681 131.567674 
L 126.517769 132.121124 
L 128.636856 132.454071 
L 130.755944 132.565199 
L 132.875031 132.454071 
L 134.994119 132.121124 
L 137.113207 131.567674 
L 139.232294 130.795904 
L 141.351382 129.80886 
L 143.47047 128.610438 
L 145.589557 127.205367 
L 147.708645 125.599192 
L 149.827732 123.798252 
L 151.94682 121.809655 
L 154.065908 119.641248 
L 158.304083 114.799914 
L 162.542258 109.350599 
L 166.780433 103.379244 
L 171.018609 96.98002 
L 177.375872 86.801146 
L 196.44766 55.516855 
L 200.685835 49.117631 
L 204.924011 43.146276 
L 209.162186 37.696961 
L 213.400361 32.855627 
L 215.519449 30.68722 
L 217.638536 28.698623 
L 219.757624 26.897683 
L 221.876712 25.291508 
L 223.995799 23.886437 
L 226.114887 22.688015 
L 228.233975 21.700971 
L 230.353062 20.929201 
L 232.47215 20.375751 
L 234.591237 20.042804 
L 236.710325 19.931676 
L 238.829413 20.042804 
L 240.9485 20.375751 
L 243.067588 20.929201 
L 245.186676 21.700971 
L 247.305763 22.688015 
L 249.424851 23.886437 
L 251.543938 25.291508 
L 253.663026 26.897683 
L 255.782114 28.698623 
L 257.901201 30.68722 
L 260.020289 32.855627 
L 264.258464 37.696961 
L 268.496639 43.146276 
L 272.734815 49.117631 
L 276.97299 55.516855 
L 283.330253 65.695729 
L 302.402041 96.98002 
L 306.640217 103.379244 
L 310.878392 109.350599 
L 315.116567 114.799914 
L 319.354742 119.641248 
L 321.47383 121.809655 
L 323.592918 123.798252 
L 325.712005 125.599192 
L 327.831093 127.205367 
L 329.950181 128.610438 
L 332.069268 129.80886 
L 334.188356 130.795904 
L 336.307443 131.567674 
L 338.426531 132.121124 
L 340.545619 132.454071 
L 342.664706 132.565199 
L 344.783794 132.454071 
L 346.902882 132.121124 
L 349.021969 131.567674 
L 351.141057 130.795904 
L 353.260144 129.80886 
L 355.379232 128.610438 
L 357.49832 127.205367 
L 359.617407 125.599192 
L 361.736495 123.798252 
L 363.855583 121.809655 
L 365.97467 119.641248 
L 370.212845 114.799914 
L 374.451021 109.350599 
L 378.689196 103.379244 
L 382.927371 96.98002 
L 389.284634 86.801146 
L 408.356423 55.516855 
L 412.594598 49.117631 
L 416.832773 43.146276 
L 421.070948 37.696961 
L 425.309124 32.855627 
L 427.428211 30.68722 
L 429.547299 28.698623 
L 431.666387 26.897683 
L 433.785474 25.291508 
L 435.904562 23.886437 
L 438.023649 22.688015 
L 440.142737 21.700971 
L 442.261825 20.929201 
L 444.380912 20.375751 
L 446.5 20.042804 
L 446.5 20.042804 
" style="fill:none;stroke:#ff7f0e;stroke-dasharray:9.6,2.4,1.5,2.4;stroke-dashoffset:0;stroke-width:1.5;"/>
   </g>
   <g id="line2d_12">
    <path clip-path="url(#pbd737df02e)" d="M 24.801563 76.248437 
L 33.277913 90.253847 
L 37.516088 96.98002 
L 41.754264 103.379244 
L 45.992439 109.350599 
L 50.230614 114.799914 
L 54.468789 119.641248 
L 56.587877 121.809655 
L 58.706965 123.798252 
L 60.826052 125.599192 
L 62.94514 127.205367 
L 65.064227 128.610438 
L 67.183315 129.80886 
L 69.302403 130.795904 
L 71.42149 131.567674 
L 73.540578 132.121124 
L 75.659666 132.454071 
L 77.778753 132.565199 
L 79.897841 132.454071 
L 82.016928 132.121124 
L 84.136016 131.567674 
L 86.255104 130.795904 
L 88.374191 129.80886 
L 90.493279 128.610438 
L 92.612367 127.205367 
L 94.731454 125.599192 
L 96.850542 123.798252 
L 98.969629 121.809655 
L 101.088717 119.641248 
L 105.326892 114.799914 
L 109.565068 109.350599 
L 113.803243 103.379244 
L 118.041418 96.98002 
L 124.398681 86.801146 
L 143.47047 55.516855 
L 147.708645 49.117631 
L 151.94682 43.146276 
L 156.184995 37.696961 
L 160.423171 32.855627 
L 162.542258 30.68722 
L 164.661346 28.698623 
L 166.780433 26.897683 
L 168.899521 25.291508 
L 171.018609 23.886437 
L 173.137696 22.688015 
L 175.256784 21.700971 
L 177.375872 20.929201 
L 179.494959 20.375751 
L 181.614047 20.042804 
L 183.733134 19.931676 
L 185.852222 20.042804 
L 187.97131 20.375751 
L 190.090397 20.929201 
L 192.209485 21.700971 
L 194.328573 22.688015 
L 196.44766 23.886437 
L 198.566748 25.291508 
L 200.685835 26.897683 
L 202.804923 28.698623 
L 204.924011 30.68722 
L 207.043098 32.855627 
L 211.281274 37.696961 
L 215.519449 43.146276 
L 219.757624 49.117631 
L 223.995799 55.516855 
L 230.353062 65.695729 
L 249.424851 96.98002 
L 253.663026 103.379244 
L 257.901201 109.350599 
L 262.139377 114.799914 
L 266.377552 119.641248 
L 268.496639 121.809655 
L 270.615727 123.798252 
L 272.734815 125.599192 
L 274.853902 127.205367 
L 276.97299 128.610438 
L 279.092078 129.80886 
L 281.211165 130.795904 
L 283.330253 131.567674 
L 285.44934 132.121124 
L 287.568428 132.454071 
L 289.687516 132.565199 
L 291.806603 132.454071 
L 293.925691 132.121124 
L 296.044779 131.567674 
L 298.163866 130.795904 
L 300.282954 129.80886 
L 302.402041 128.610438 
L 304.521129 127.205367 
L 306.640217 125.599192 
L 308.759304 123.798252 
L 310.878392 121.809655 
L 312.99748 119.641248 
L 317.235655 114.799914 
L 321.47383 109.350599 
L 325.712005 103.379244 
L 329.950181 96.98002 
L 336.307443 86.801146 
L 355.379232 55.516855 
L 359.617407 49.117631 
L 363.855583 43.146276 
L 368.093758 37.696961 
L 372.331933 32.855627 
L 374.451021 30.68722 
L 376.570108 28.698623 
L 378.689196 26.897683 
L 380.808284 25.291508 
L 382.927371 23.886437 
L 385.046459 22.688015 
L 387.165546 21.700971 
L 389.284634 20.929201 
L 391.403722 20.375751 
L 393.522809 20.042804 
L 395.641897 19.931676 
L 397.760985 20.042804 
L 399.880072 20.375751 
L 401.99916 20.929201 
L 404.118247 21.700971 
L 406.237335 22.688015 
L 408.356423 23.886437 
L 410.47551 25.291508 
L 412.594598 26.897683 
L 414.713686 28.698623 
L 416.832773 30.68722 
L 418.951861 32.855627 
L 423.190036 37.696961 
L 427.428211 43.146276 
L 431.666387 49.117631 
L 435.904562 55.516855 
L 442.261825 65.695729 
L 446.5 72.712279 
L 446.5 72.712279 
" style="fill:none;stroke:#2ca02c;stroke-dasharray:5.55,2.4;stroke-dashoffset:0;stroke-width:1.5;"/>
   </g>
   <g id="line2d_13">
    <path clip-path="url(#pbd737df02e)" d="M 24.801563 132.565199 
L 26.92065 132.454071 
L 29.039738 132.121124 
L 31.158825 131.567674 
L 33.277913 130.795904 
L 35.397001 129.80886 
L 37.516088 128.610438 
L 39.635176 127.205367 
L 41.754264 125.599192 
L 43.873351 123.798252 
L 45.992439 121.809655 
L 48.111526 119.641248 
L 52.349702 114.799914 
L 56.587877 109.350599 
L 60.826052 103.379244 
L 65.064227 96.98002 
L 71.42149 86.801146 
L 90.493279 55.516855 
L 94.731454 49.117631 
L 98.969629 43.146276 
L 103.207805 37.696961 
L 107.44598 32.855627 
L 109.565068 30.68722 
L 111.684155 28.698623 
L 113.803243 26.897683 
L 115.92233 25.291508 
L 118.041418 23.886437 
L 120.160506 22.688015 
L 122.279593 21.700971 
L 124.398681 20.929201 
L 126.517769 20.375751 
L 128.636856 20.042804 
L 130.755944 19.931676 
L 132.875031 20.042804 
L 134.994119 20.375751 
L 137.113207 20.929201 
L 139.232294 21.700971 
L 141.351382 22.688015 
L 143.47047 23.886437 
L 145.589557 25.291508 
L 147.708645 26.897683 
L 149.827732 28.698623 
L 151.94682 30.68722 
L 154.065908 32.855627 
L 158.304083 37.696961 
L 162.542258 43.146276 
L 166.780433 49.117631 
L 171.018609 55.516855 
L 177.375872 65.695729 
L 196.44766 96.98002 
L 200.685835 103.379244 
L 204.924011 109.350599 
L 209.162186 114.799914 
L 213.400361 119.641248 
L 215.519449 121.809655 
L 217.638536 123.798252 
L 219.757624 125.599192 
L 221.876712 127.205367 
L 223.995799 128.610438 
L 226.114887 129.80886 
L 228.233975 130.795904 
L 230.353062 131.567674 
L 232.47215 132.121124 
L 234.591237 132.454071 
L 236.710325 132.565199 
L 238.829413 132.454071 
L 240.9485 132.121124 
L 243.067588 131.567674 
L 245.186676 130.795904 
L 247.305763 129.80886 
L 249.424851 128.610438 
L 251.543938 127.205367 
L 253.663026 125.599192 
L 255.782114 123.798252 
L 257.901201 121.809655 
L 260.020289 119.641248 
L 264.258464 114.799914 
L 268.496639 109.350599 
L 272.734815 103.379244 
L 276.97299 96.98002 
L 283.330253 86.801146 
L 302.402041 55.516855 
L 306.640217 49.117631 
L 310.878392 43.146276 
L 315.116567 37.696961 
L 319.354742 32.855627 
L 321.47383 30.68722 
L 323.592918 28.698623 
L 325.712005 26.897683 
L 327.831093 25.291508 
L 329.950181 23.886437 
L 332.069268 22.688015 
L 334.188356 21.700971 
L 336.307443 20.929201 
L 338.426531 20.375751 
L 340.545619 20.042804 
L 342.664706 19.931676 
L 344.783794 20.042804 
L 346.902882 20.375751 
L 349.021969 20.929201 
L 351.141057 21.700971 
L 353.260144 22.688015 
L 355.379232 23.886437 
L 357.49832 25.291508 
L 359.617407 26.897683 
L 361.736495 28.698623 
L 363.855583 30.68722 
L 365.97467 32.855627 
L 370.212845 37.696961 
L 374.451021 43.146276 
L 378.689196 49.117631 
L 382.927371 55.516855 
L 389.284634 65.695729 
L 408.356423 96.98002 
L 412.594598 103.379244 
L 416.832773 109.350599 
L 421.070948 114.799914 
L 425.309124 119.641248 
L 427.428211 121.809655 
L 429.547299 123.798252 
L 431.666387 125.599192 
L 433.785474 127.205367 
L 435.904562 128.610438 
L 438.023649 129.80886 
L 440.142737 130.795904 
L 442.261825 131.567674 
L 444.380912 132.121124 
L 446.5 132.454071 
L 446.5 132.454071 
" style="fill:none;stroke:#d62728;stroke-dasharray:1.5,2.475;stroke-dashoffset:0;stroke-width:1.5;"/>
   </g>
   <g id="patch_3">
    <path d="M 24.801563 138.196875 
L 24.801563 14.3 
" style="fill:none;stroke:#000000;stroke-linecap:square;stroke-linejoin:miter;stroke-width:0.8;"/>
   </g>
   <g id="patch_4">
    <path d="M 446.5 138.196875 
L 446.5 14.3 
" style="fill:none;stroke:#000000;stroke-linecap:square;stroke-linejoin:miter;stroke-width:0.8;"/>
   </g>
   <g id="patch_5">
    <path d="M 24.801563 138.196875 
L 446.5 138.196875 
" style="fill:none;stroke:#000000;stroke-linecap:square;stroke-linejoin:miter;stroke-width:0.8;"/>
   </g>
   <g id="patch_6">
    <path d="M 24.801563 14.3 
L 446.5 14.3 
" style="fill:none;stroke:#000000;stroke-linecap:square;stroke-linejoin:miter;stroke-width:0.8;"/>
   </g>
   <g id="legend_1">
    <g id="patch_7">
     <path d="M 386.065625 82.30625 
L 439.5 82.30625 
Q 441.5 82.30625 441.5 80.30625 
L 441.5 21.3 
Q 441.5 19.3 439.5 19.3 
L 386.065625 19.3 
Q 384.065625 19.3 384.065625 21.3 
L 384.065625 80.30625 
Q 384.065625 82.30625 386.065625 82.30625 
z
" style="fill:#ffffff;opacity:0.8;stroke:#cccccc;stroke-linejoin:miter;"/>
    </g>
    <g id="line2d_14">
     <path d="M 388.065625 27.398438 
L 408.065625 27.398438 
" style="fill:none;stroke:#1f77b4;stroke-linecap:square;stroke-width:1.5;"/>
    </g>
    <g id="line2d_15"/>
    <g id="text_11">
     <text style="font-family:Open Sans;font-size:10px;font-style:normal;font-weight:normal;text-anchor:start;" transform="rotate(-0, 416.065625, 30.898438)" x="416.065625" y="30.898438">0째</text>
    </g>
    <g id="line2d_16">
     <path d="M 388.065625 42.4 
L 408.065625 42.4 
" style="fill:none;stroke:#ff7f0e;stroke-dasharray:9.6,2.4,1.5,2.4;stroke-dashoffset:0;stroke-width:1.5;"/>
    </g>
    <g id="line2d_17"/>
    <g id="text_12">
     <text style="font-family:Open Sans;font-size:10px;font-style:normal;font-weight:normal;text-anchor:start;" transform="rotate(-0, 416.065625, 45.9)" x="416.065625" y="45.9">90째</text>
    </g>
    <g id="line2d_18">
     <path d="M 388.065625 57.401562 
L 408.065625 57.401562 
" style="fill:none;stroke:#2ca02c;stroke-dasharray:5.55,2.4;stroke-dashoffset:0;stroke-width:1.5;"/>
    </g>
    <g id="line2d_19"/>
    <g id="text_13">
     <text style="font-family:Open Sans;font-size:10px;font-style:normal;font-weight:normal;text-anchor:start;" transform="rotate(-0, 416.065625, 60.901562)" x="416.065625" y="60.901562">180째</text>
    </g>
    <g id="line2d_20">
     <path d="M 388.065625 72.403125 
L 408.065625 72.403125 
" style="fill:none;stroke:#d62728;stroke-dasharray:1.5,2.475;stroke-dashoffset:0;stroke-width:1.5;"/>
    </g>
    <g id="line2d_21"/>
    <g id="text_14">
     <text style="font-family:Open Sans;font-size:10px;font-style:normal;font-weight:normal;text-anchor:start;" transform="rotate(-0, 416.065625, 75.903125)" x="416.065625" y="75.903125">270째</text>
    </g>
   </g>
  </g>
 </g>
 <defs>
  <clipPath id="pbd737df02e">
   <rect height="123.896875" width="421.698438" x="24.801563" y="14.3"/>
  </clipPath>
 </defs>
</svg>
