<?xml version="1.0" encoding="utf-8" standalone="no"?>
<?xml-stylesheet type="text/css" href="https://fonts.googleapis.com/css?family=Open+Sans:300italic,400italic,600italic,700italic,400,600,700,300&amp;subset=latin,cyrillic-ext,latin-ext,cyrillic" ?>
<!DOCTYPE svg PUBLIC "-//W3C//DTD SVG 1.1//EN"
  "http://www.w3.org/Graphics/SVG/1.1/DTD/svg11.dtd">
<!-- Created with matplotlib (http://matplotlib.org/) -->
<svg height="180pt" version="1.1" viewBox="0 0 460.8 180" width="460.8pt" xmlns="http://www.w3.org/2000/svg" xmlns:xlink="http://www.w3.org/1999/xlink">
 <defs>
  <style type="text/css">
*{stroke-linecap:butt;stroke-linejoin:round;}
  </style>
 </defs>
 <g id="figure_1">
  <g id="patch_1">
   <path d="M 0 180 
L 460.8 180 
L 460.8 0 
L 0 0 
z
" style="fill:#fefefe;"/>
  </g>
  <g id="axes_1">
   <g id="patch_2">
    <path d="M 37.6125 165.7 
L 446.5 165.7 
L 446.5 14.3 
L 37.6125 14.3 
z
" style="fill:#ffffff;"/>
   </g>
   <g id="line2d_1">
    <path clip-path="url(#pbddfd89f1f)" d="M 37.6125 90 
L 446.5 90 
" style="fill:none;stroke:#808080;stroke-linecap:square;stroke-width:1.5;"/>
   </g>
   <g id="matplotlib.axis_1"/>
   <g id="matplotlib.axis_2">
    <g id="ytick_1">
     <g id="line2d_2">
      <defs>
       <path d="M 0 0 
L -3.5 0 
" id="mab85d403ab" style="stroke:#000000;stroke-width:0.8;"/>
      </defs>
      <g>
       <use style="stroke:#000000;stroke-width:0.8;" x="37.6125" xlink:href="#mab85d403ab" y="158.818182"/>
      </g>
     </g>
     <g id="text_1">
      <text style="font-family:Open Sans;font-size:10px;font-style:normal;font-weight:normal;text-anchor:end;" transform="rotate(-0, 30.6125, 162.617401)" x="30.6125" y="162.617401">−1.0</text>
     </g>
    </g>
    <g id="ytick_2">
     <g id="line2d_3">
      <g>
       <use style="stroke:#000000;stroke-width:0.8;" x="37.6125" xlink:href="#mab85d403ab" y="124.409091"/>
      </g>
     </g>
     <g id="text_2">
      <text style="font-family:Open Sans;font-size:10px;font-style:normal;font-weight:normal;text-anchor:end;" transform="rotate(-0, 30.6125, 128.20831)" x="30.6125" y="128.20831">−0.5</text>
     </g>
    </g>
    <g id="ytick_3">
     <g id="line2d_4">
      <g>
       <use style="stroke:#000000;stroke-width:0.8;" x="37.6125" xlink:href="#mab85d403ab" y="90"/>
      </g>
     </g>
     <g id="text_3">
      <text style="font-family:Open Sans;font-size:10px;font-style:normal;font-weight:normal;text-anchor:end;" transform="rotate(-0, 30.6125, 93.799219)" x="30.6125" y="93.799219">0.0</text>
     </g>
    </g>
    <g id="ytick_4">
     <g id="line2d_5">
      <g>
       <use style="stroke:#000000;stroke-width:0.8;" x="37.6125" xlink:href="#mab85d403ab" y="55.590909"/>
      </g>
     </g>
     <g id="text_4">
      <text style="font-family:Open Sans;font-size:10px;font-style:normal;font-weight:normal;text-anchor:end;" transform="rotate(-0, 30.6125, 59.390128)" x="30.6125" y="59.390128">0.5</text>
     </g>
    </g>
    <g id="ytick_5">
     <g id="line2d_6">
      <g>
       <use style="stroke:#000000;stroke-width:0.8;" x="37.6125" xlink:href="#mab85d403ab" y="21.181818"/>
      </g>
     </g>
     <g id="text_5">
      <text style="font-family:Open Sans;font-size:10px;font-style:normal;font-weight:normal;text-anchor:end;" transform="rotate(-0, 30.6125, 24.981037)" x="30.6125" y="24.981037">1.0</text>
     </g>
    </g>
   </g>
   <g id="line2d_7">
    <path clip-path="url(#pbddfd89f1f)" d="M 37.6125 90 
L 45.8176 89.876055 
L 48.552634 89.613669 
L 49.920151 89.33654 
L 51.287667 88.884489 
L 52.655184 88.167456 
L 54.022701 87.064324 
L 55.390217 85.422496 
L 56.757734 83.064867 
L 58.125251 79.807646 
L 59.492768 75.491319 
L 60.860284 70.023936 
L 62.227801 63.431176 
L 64.962834 47.816332 
L 66.330351 39.735473 
L 67.697868 32.352869 
L 69.065385 26.399903 
L 70.432901 22.526477 
L 71.800418 21.181818 
L 73.167935 22.526477 
L 74.535452 26.399903 
L 75.902968 32.352869 
L 77.270485 39.735473 
L 81.373035 63.431176 
L 82.740552 70.023936 
L 84.108069 75.491319 
L 85.475585 79.807646 
L 86.843102 83.064867 
L 88.210619 85.422496 
L 89.578135 87.064324 
L 90.945652 88.167456 
L 92.313169 88.884489 
L 93.680686 89.33654 
L 96.415719 89.779297 
L 100.518269 89.962693 
L 115.560953 90.220703 
L 118.295987 90.66346 
L 119.663503 91.115511 
L 121.03102 91.832544 
L 122.398537 92.935676 
L 123.766054 94.577504 
L 125.13357 96.935133 
L 126.501087 100.192354 
L 127.868604 104.508681 
L 129.23612 109.976064 
L 130.603637 116.568824 
L 133.338671 132.183668 
L 134.706187 140.264527 
L 136.073704 147.647131 
L 137.441221 153.600097 
L 138.808737 157.473523 
L 140.176254 158.818182 
L 141.543771 157.473523 
L 142.911288 153.600097 
L 144.278804 147.647131 
L 145.646321 140.264527 
L 149.748871 116.568824 
L 151.116388 109.976064 
L 152.483905 104.508681 
L 153.851421 100.192354 
L 155.218938 96.935133 
L 156.586455 94.577504 
L 157.953972 92.935676 
L 159.321488 91.832544 
L 160.689005 91.115511 
L 162.056522 90.66346 
L 164.791555 90.220703 
L 168.894105 90.037307 
L 183.936789 89.779297 
L 186.671823 89.33654 
L 188.039339 88.884489 
L 189.406856 88.167456 
L 190.774373 87.064324 
L 192.14189 85.422496 
L 193.509406 83.064867 
L 194.876923 79.807646 
L 196.24444 75.491319 
L 197.611957 70.023936 
L 198.979473 63.431176 
L 201.714507 47.816332 
L 203.082023 39.735473 
L 204.44954 32.352869 
L 205.817057 26.399903 
L 207.184574 22.526477 
L 208.55209 21.181818 
L 209.919607 22.526477 
L 211.287124 26.399903 
L 212.65464 32.352869 
L 214.022157 39.735473 
L 218.124707 63.431176 
L 219.492224 70.023936 
L 220.859741 75.491319 
L 222.227258 79.807646 
L 223.594774 83.064867 
L 224.962291 85.422496 
L 226.329808 87.064324 
L 227.697324 88.167456 
L 229.064841 88.884489 
L 230.432358 89.33654 
L 233.167391 89.779297 
L 237.269941 89.962693 
L 252.312625 90.220703 
L 255.047659 90.66346 
L 256.415176 91.115511 
L 257.782692 91.832544 
L 259.150209 92.935676 
L 260.517726 94.577504 
L 261.885242 96.935133 
L 263.252759 100.192354 
L 264.620276 104.508681 
L 265.987793 109.976064 
L 267.355309 116.568824 
L 270.090343 132.183668 
L 271.45786 140.264527 
L 272.825376 147.647131 
L 274.192893 153.600097 
L 275.56041 157.473523 
L 276.927926 158.818182 
L 278.295443 157.473523 
L 279.66296 153.600097 
L 281.030477 147.647131 
L 282.397993 140.264527 
L 286.500543 116.568824 
L 287.86806 109.976064 
L 289.235577 104.508681 
L 290.603094 100.192354 
L 291.97061 96.935133 
L 293.338127 94.577504 
L 294.705644 92.935676 
L 296.073161 91.832544 
L 297.440677 91.115511 
L 298.808194 90.66346 
L 301.543227 90.220703 
L 305.645778 90.037307 
L 320.688462 89.779297 
L 323.423495 89.33654 
L 324.791012 88.884489 
L 326.158528 88.167456 
L 327.526045 87.064324 
L 328.893562 85.422496 
L 330.261079 83.064867 
L 331.628595 79.807646 
L 332.996112 75.491319 
L 334.363629 70.023936 
L 335.731145 63.431176 
L 338.466179 47.816332 
L 339.833696 39.735473 
L 341.201212 32.352869 
L 342.568729 26.399903 
L 343.936246 22.526477 
L 345.303763 21.181818 
L 346.671279 22.526477 
L 348.038796 26.399903 
L 349.406313 32.352869 
L 350.773829 39.735473 
L 354.87638 63.431176 
L 356.243896 70.023936 
L 357.611413 75.491319 
L 358.97893 79.807646 
L 360.346446 83.064867 
L 361.713963 85.422496 
L 363.08148 87.064324 
L 364.448997 88.167456 
L 365.816513 88.884489 
L 367.18403 89.33654 
L 369.919064 89.779297 
L 374.021614 89.962693 
L 389.064298 90.220703 
L 391.799331 90.66346 
L 393.166848 91.115511 
L 394.534365 91.832544 
L 395.901881 92.935676 
L 397.269398 94.577504 
L 398.636915 96.935133 
L 400.004431 100.192354 
L 401.371948 104.508681 
L 402.739465 109.976064 
L 404.106982 116.568824 
L 406.842015 132.183668 
L 408.209532 140.264527 
L 409.577048 147.647131 
L 410.944565 153.600097 
L 412.312082 157.473523 
L 413.679599 158.818182 
L 415.047115 157.473523 
L 416.414632 153.600097 
L 417.782149 147.647131 
L 419.149666 140.264527 
L 423.252216 116.568824 
L 424.619732 109.976064 
L 425.987249 104.508681 
L 427.354766 100.192354 
L 428.722283 96.935133 
L 430.089799 94.577504 
L 431.457316 92.935676 
L 432.824833 91.832544 
L 434.192349 91.115511 
L 435.559866 90.66346 
L 438.2949 90.220703 
L 442.39745 90.037307 
L 446.5 90.004187 
L 446.5 90.004187 
" style="fill:none;stroke:#1f77b4;stroke-linecap:square;stroke-width:1.5;"/>
   </g>
   <g id="patch_3">
    <path d="M 37.6125 165.7 
L 37.6125 14.3 
" style="fill:none;stroke:#000000;stroke-linecap:square;stroke-linejoin:miter;stroke-width:0.8;"/>
   </g>
   <g id="patch_4">
    <path d="M 446.5 165.7 
L 446.5 14.3 
" style="fill:none;stroke:#000000;stroke-linecap:square;stroke-linejoin:miter;stroke-width:0.8;"/>
   </g>
   <g id="patch_5">
    <path d="M 37.6125 165.7 
L 446.5 165.7 
" style="fill:none;stroke:#000000;stroke-linecap:square;stroke-linejoin:miter;stroke-width:0.8;"/>
   </g>
   <g id="patch_6">
    <path d="M 37.6125 14.3 
L 446.5 14.3 
" style="fill:none;stroke:#000000;stroke-linecap:square;stroke-linejoin:miter;stroke-width:0.8;"/>
   </g>
  </g>
 </g>
 <defs>
  <clipPath id="pbddfd89f1f">
   <rect height="151.4" width="408.8875" x="37.6125" y="14.3"/>
  </clipPath>
 </defs>
</svg>
