<?xml version="1.0" encoding="UTF-8" standalone="no"?>
<?xml-stylesheet type="text/css" href="https://fonts.googleapis.com/css?family=Open+Sans" ?>
<svg xmlns="http://www.w3.org/2000/svg"
     xmlns:xlink="http://www.w3.org/1999/xlink"
     width="600px" height="160px" viewBox="0 0 600 160">
<title>gl2ps_renderer figure</title>
<desc>
Creator: GL2PS 1.4.0, (C) 1999-2017 C. Geuzaine
For: Octave
</desc>
<defs>
</defs>
<polygon fill="#ffffff" points="0,0 600,0 600,160 0,160"/>
<g>
<polygon fill="#fefefe" points="0,160 600,160 600,0 0,0" shape-rendering="crispEdges"/>
<clipPath id="cp00600160">
  <polygon points="0,160 600,160 600,0 0,0"/>
</clipPath>
<g clip-path="url(#cp00600160)">
<polygon fill="#ffffff" shape-rendering="crispEdges" points="60,133.333 560,133.333 60,4.44444"/>
<polygon fill="#ffffff" shape-rendering="crispEdges" points="560,133.333 560,4.44444 60,4.44444"/>
<polyline fill="none" stroke="#262626" stroke-width="0.5" stroke-linecap="butt" stroke-linejoin="miter" points="60,133.333 65,133.333"/>
<polyline fill="none" stroke="#262626" stroke-width="0.5" stroke-linecap="butt" stroke-linejoin="miter" points="560,133.333 555,133.333"/>
<polyline fill="none" stroke="#262626" stroke-width="0.5" stroke-linecap="butt" stroke-linejoin="miter" points="60,111.852 65,111.852"/>
<polyline fill="none" stroke="#262626" stroke-width="0.5" stroke-linecap="butt" stroke-linejoin="miter" points="560,111.852 555,111.852"/>
<polyline fill="none" stroke="#262626" stroke-width="0.5" stroke-linecap="butt" stroke-linejoin="miter" points="60,90.3704 65,90.3704"/>
<polyline fill="none" stroke="#262626" stroke-width="0.5" stroke-linecap="butt" stroke-linejoin="miter" points="560,90.3704 555,90.3704"/>
<polyline fill="none" stroke="#262626" stroke-width="0.5" stroke-linecap="butt" stroke-linejoin="miter" points="60,68.8889 65,68.8889"/>
<polyline fill="none" stroke="#262626" stroke-width="0.5" stroke-linecap="butt" stroke-linejoin="miter" points="560,68.8889 555,68.8889"/>
<polyline fill="none" stroke="#262626" stroke-width="0.5" stroke-linecap="butt" stroke-linejoin="miter" points="60,47.4074 65,47.4074"/>
<polyline fill="none" stroke="#262626" stroke-width="0.5" stroke-linecap="butt" stroke-linejoin="miter" points="560,47.4074 555,47.4074"/>
<polyline fill="none" stroke="#262626" stroke-width="0.5" stroke-linecap="butt" stroke-linejoin="miter" points="60,25.9259 65,25.9259"/>
<polyline fill="none" stroke="#262626" stroke-width="0.5" stroke-linecap="butt" stroke-linejoin="miter" points="560,25.9259 555,25.9259"/>
<polyline fill="none" stroke="#262626" stroke-width="0.5" stroke-linecap="butt" stroke-linejoin="miter" points="60,4.44444 65,4.44444"/>
<polyline fill="none" stroke="#262626" stroke-width="0.5" stroke-linecap="butt" stroke-linejoin="miter" points="560,4.44444 555,4.44444"/>
<text fill="#262626" x="55" y="133.333" font-size="10" text-anchor="end" dy="5" font-family="Open Sans">-1.5</text>
<text fill="#262626" x="55" y="111.852" font-size="10" text-anchor="end" dy="5" font-family="Open Sans">-1</text>
<text fill="#262626" x="55" y="90.3704" font-size="10" text-anchor="end" dy="5" font-family="Open Sans">-0.5</text>
<text fill="#262626" x="55" y="68.8889" font-size="10" text-anchor="end" dy="5" font-family="Open Sans">0</text>
<text fill="#262626" x="55" y="47.4074" font-size="10" text-anchor="end" dy="5" font-family="Open Sans">0.5</text>
<text fill="#262626" x="55" y="25.9259" font-size="10" text-anchor="end" dy="5" font-family="Open Sans">1</text>
<text fill="#262626" x="55" y="4.44444" font-size="10" text-anchor="end" dy="5" font-family="Open Sans">1.5</text>
<polyline fill="none" stroke="#262626" stroke-width="0.5" stroke-linecap="butt" stroke-linejoin="miter" stroke-dasharray="16,0" points="60,133.333 560,133.333"/>
<polyline fill="none" stroke="#262626" stroke-width="0.5" stroke-linecap="butt" stroke-linejoin="miter" stroke-dasharray="16,0" points="60,4.44444 560,4.44444"/>
<polyline fill="none" stroke="#262626" stroke-width="0.5" stroke-linecap="butt" stroke-linejoin="miter" stroke-dasharray="16,0" points="60,133.333 60,4.44444"/>
<polyline fill="none" stroke="#262626" stroke-width="0.5" stroke-linecap="butt" stroke-linejoin="miter" stroke-dasharray="16,0" points="560,133.333 560,4.44444"/>
<polyline fill="none" stroke="#0071bc" stroke-width="0.5" stroke-linecap="butt" stroke-linejoin="miter" points="60,68.8889 60.2502,68.8885 60.5005,68.8881 60.7507,68.8878 61.001,68.8874 61.2512,68.887 61.5015,68.8866 61.7517,68.8861 62.002,68.8857 62.2522,68.8852 62.5025,68.8846 62.7527,68.8841 63.003,68.8835 63.2532,68.8828 63.5035,68.8821 63.7537,68.8814 64.004,68.8805 64.2542,68.8797 64.5045,68.8787 64.7547,68.8776 65.005,68.8765 65.2552,68.8752 65.5055,68.8738 65.7557,68.8723 66.006,68.8707 66.2562,68.8689 66.5065,68.8669 66.7567,68.8648 67.007,68.8625 67.2572,68.8599 67.5075,68.8572 67.7577,68.8541 68.008,68.8508 68.2582,68.8472 68.5085,68.8433 68.7587,68.839 69.009,68.8344 69.2592,68.8293 69.5095,68.8238 69.7597,68.8178 70.01,68.8112 70.2602,68.8041 70.5105,68.7964 70.7607,68.788 71.011,68.7789 71.2612,68.769 71.5115,68.7582 71.7617,68.7466 72.012,68.7339 72.2622,68.7202 72.5125,68.7054 72.7627,68.6894 73.013,68.672 73.2632,68.6532 73.5135,68.6329 73.7637,68.611 74.014,68.5874 74.2643,68.5618 74.5145,68.5343 74.7648,68.5047 75.015,68.4727 75.2653,68.4383 75.5155,68.4013 75.7657,68.3616 76.016,68.3188 76.2663,68.2729 76.5165,68.2237 76.7668,68.1709 77.017,68.1143 77.2673,68.0537 77.5175,67.9889 77.7678,67.9196 78.018,67.8454 78.2682,67.7663 78.5185,67.6818 78.7688,67.5917 79.019,67.4957 79.2693,67.3934 79.5195,67.2847 79.7698,67.169 80.02,67.0461 80.2702,66.9156 80.5205,66.7771 80.7708,66.6304 81.021,66.4749 81.2713,66.3105 81.5215,66.1365 81.7718,65.9528 82.022,65.7588 82.2723,65.5541 82.5225,65.3385 82.7728,65.1114 83.023,64.8725 83.2733,64.6214 83.5235,64.3577 83.7738,64.0811 84.024,63.7911 84.2743,63.4873 84.5245,63.1695 84.7747,62.8374 85.025,62.4905 85.2753,62.1286 85.5255,61.7514 85.7758,61.3586 86.026,60.9501 86.2763,60.5256 86.5265,60.085 86.7768,59.6281 87.027,59.1548 87.2773,58.6651 87.5275,58.159 87.7778,57.6364 88.028,57.0974 88.2783,56.5422 88.5285,55.9709 88.7788,55.3838 89.029,54.7811 89.2793,54.1631 89.5295,53.5303 89.7798,52.8831 90.03,52.222 90.2803,51.5476 90.5305,50.8604 90.7808,50.1613 91.031,49.4509 91.2813,48.7301 91.5315,47.9998 91.7818,47.2608 92.032,46.5143 92.2823,45.7613 92.5325,45.0029 92.7828,44.2402 93.033,43.4746 93.2833,42.7073 93.5335,41.9397 93.7838,41.173 94.034,40.4088 94.2843,39.6485 94.5345,38.8936 94.7848,38.1455 95.035,37.4059 95.2853,36.6763 95.5355,35.9583 95.7858,35.2534 96.036,34.5633 96.2863,33.8895 96.5365,33.2335 96.7868,32.597 97.037,31.9814 97.2873,31.3882 97.5375,30.8189 97.7878,30.275 98.038,29.7578 98.2883,29.2685 98.5385,28.8086 98.7888,28.3792 99.039,27.9813 99.2893,27.6161 99.5395,27.2846 99.7898,26.9876 100.04,26.7259 100.29,26.5003 100.541,26.3113 100.791,26.1595 101.041,26.0453 101.291,25.9689 101.542,25.9307 101.792,25.9307 102.042,25.9689 102.292,26.0453 102.543,26.1595 102.793,26.3113 103.043,26.5003 103.293,26.7259 103.544,26.9876 103.794,27.2846 104.044,27.6161 104.294,27.9813 104.545,28.3792 104.795,28.8086 105.045,29.2685 105.295,29.7578 105.546,30.275 105.796,30.8189 106.046,31.3882 106.296,31.9814 106.547,32.597 106.797,33.2335 107.047,33.8895 107.297,34.5633 107.548,35.2534 107.798,35.9583 108.048,36.6763 108.298,37.4059 108.549,38.1455 108.799,38.8936 109.049,39.6485 109.299,40.4088 109.55,41.173 109.8,41.9397 110.05,42.7073 110.3,43.4746 110.551,44.2402 110.801,45.0029 111.051,45.7613 111.301,46.5143 111.552,47.2608 111.802,47.9998 112.052,48.7301 112.302,49.4509 112.553,50.1613 112.803,50.8604 113.053,51.5476 113.303,52.222 113.554,52.8831 113.804,53.5303 114.054,54.1631 114.304,54.7811 114.555,55.3838 114.805,55.9709 115.055,56.5422 115.305,57.0974 115.556,57.6364 115.806,58.159 116.056,58.6651 116.306,59.1548 116.557,59.6281 116.807,60.085 117.057,60.5256 117.307,60.9501 117.558,61.3586 117.808,61.7514 118.058,62.1286 118.308,62.4905 118.559,62.8374 118.809,63.1695 119.059,63.4873 119.309,63.7911 119.56,64.0811 119.81,64.3577 120.06,64.6214 120.31,64.8725 120.561,65.1114 120.811,65.3385 121.061,65.5541 121.311,65.7588 121.562,65.9528 121.812,66.1365 122.062,66.3105 122.312,66.4749 122.563,66.6304 122.813,66.7771 123.063,66.9156 123.313,67.0461 123.564,67.169 123.814,67.2847 124.064,67.3934 124.314,67.4957 124.565,67.5917 124.815,67.6818 125.065,67.7663 125.315,67.8454 125.566,67.9196 125.816,67.9889 126.066,68.0537 126.316,68.1143 126.567,68.1709 126.817,68.2237 127.067,68.2729 127.317,68.3188 127.568,68.3616 127.818,68.4013 128.068,68.4383 128.318,68.4727 128.569,68.5047 128.819,68.5343 129.069,68.5618 129.319,68.5874 129.57,68.611 129.82,68.6329 130.07,68.6532 130.32,68.672 130.571,68.6894 130.821,68.7054 131.071,68.7202 131.321,68.7339 131.572,68.7466 131.822,68.7582 132.072,68.769 132.322,68.7789 132.573,68.788 132.823,68.7964 133.073,68.8041 133.323,68.8112 133.574,68.8178 133.824,68.8238 134.074,68.8293 134.324,68.8344 134.575,68.839 134.825,68.8433 135.075,68.8472 135.325,68.8508 135.576,68.8541 135.826,68.8572 136.076,68.8599 136.326,68.8625 136.577,68.8648 136.827,68.8669 137.077,68.8689 137.327,68.8707 137.578,68.8723 137.828,68.8738 138.078,68.8752 138.328,68.8765 138.579,68.8776 138.829,68.8787 139.079,68.8797 139.329,68.8805 139.58,68.8814 139.83,68.8821 140.08,68.8828 140.33,68.8835 140.581,68.8841 140.831,68.8846 141.081,68.8852 141.331,68.8857 141.582,68.8861 141.832,68.8866 142.082,68.887 142.332,68.8874 142.583,68.8878 142.833,68.8881 143.083,68.8885 143.333,68.8889 143.584,68.8893 143.834,68.8896 144.084,68.89 144.334,68.8904 144.585,68.8908 144.835,68.8912 145.085,68.8917 145.335,68.8921 145.586,68.8926 145.836,68.8931 146.086,68.8937 146.336,68.8943 146.587,68.8949 146.837,68.8956 147.087,68.8964 147.337,68.8972 147.588,68.8981 147.838,68.8991 148.088,68.9002 148.338,68.9013 148.589,68.9026 148.839,68.904 149.089,68.9055 149.339,68.9071 149.59,68.9089 149.84,68.9108 150.09,68.913 150.34,68.9153 150.591,68.9178 150.841,68.9206 151.091,68.9236 151.341,68.9269 151.592,68.9305 151.842,68.9345 152.092,68.9387 152.342,68.9434 152.593,68.9485 152.843,68.954 153.093,68.96 153.343,68.9665 153.594,68.9736 153.844,68.9814 154.094,68.9898 154.344,68.9989 154.595,69.0088 154.845,69.0196 155.095,69.0312 155.345,69.0438 155.596,69.0575 155.846,69.0724 156.096,69.0884 156.346,69.1058 156.597,69.1245 156.847,69.1448 157.097,69.1668 157.347,69.1904 157.598,69.2159 157.848,69.2435 158.098,69.2731 158.348,69.3051 158.599,69.3395 158.849,69.3764 159.099,69.4162 159.349,69.459 159.6,69.5048 159.85,69.5541 160.1,69.6069 160.35,69.6634 160.601,69.724 160.851,69.7889 161.101,69.8582 161.351,69.9323 161.602,70.0115 161.852,70.096 162.102,70.1861 162.352,70.2821 162.603,70.3843 162.853,70.4931 163.103,70.6088 163.353,70.7317 163.604,70.8622 163.854,71.0007 164.104,71.1474 164.354,71.3028 164.605,71.4673 164.855,71.6412 165.105,71.825 165.355,72.019 165.606,72.2236 165.856,72.4393 166.106,72.6664 166.356,72.9053 166.607,73.1563 166.857,73.42 167.107,73.6967 167.357,73.9867 167.608,74.2904 167.858,74.6082 168.108,74.9404 168.358,75.2873 168.609,75.6492 168.859,76.0264 169.109,76.4191 169.359,76.8277 169.61,77.2521 169.86,77.6928 170.11,78.1497 170.36,78.6229 170.611,79.1126 170.861,79.6188 171.111,80.1414 171.361,80.6804 171.612,81.2356 171.862,81.8068 172.112,82.394 172.362,82.9967 172.613,83.6146 172.863,84.2474 173.113,84.8947 173.363,85.5558 173.614,86.2302 173.864,86.9174 174.114,87.6165 174.364,88.3269 174.615,89.0477 174.865,89.778 175.115,90.5169 175.365,91.2635 175.616,92.0165 175.866,92.7749 176.116,93.5375 176.366,94.3032 176.617,95.0705 176.867,95.8381 177.117,96.6048 177.367,97.369 177.618,98.1293 177.868,98.8842 178.118,99.6322 178.368,100.372 178.619,101.101 178.869,101.819 179.119,102.524 179.369,103.214 179.62,103.888 179.87,104.544 180.12,105.181 180.37,105.796 180.621,106.39 180.871,106.959 181.121,107.503 181.371,108.02 181.622,108.509 181.872,108.969 182.122,109.399 182.372,109.796 182.623,110.162 182.873,110.493 183.123,110.79 183.373,111.052 183.624,111.277 183.874,111.466 184.124,111.618 184.374,111.733 184.625,111.809 184.875,111.847 185.125,111.847 185.375,111.809 185.626,111.733 185.876,111.618 186.126,111.466 186.376,111.277 186.627,111.052 186.877,110.79 187.127,110.493 187.377,110.162 187.628,109.796 187.878,109.399 188.128,108.969 188.378,108.509 188.629,108.02 188.879,107.503 189.129,106.959 189.379,106.39 189.63,105.796 189.88,105.181 190.13,104.544 190.38,103.888 190.631,103.214 190.881,102.524 191.131,101.819 191.381,101.101 191.632,100.372 191.882,99.6322 192.132,98.8842 192.382,98.1293 192.633,97.369 192.883,96.6048 193.133,95.8381 193.383,95.0705 193.634,94.3032 193.884,93.5375 194.134,92.7749 194.384,92.0165 194.635,91.2635 194.885,90.5169 195.135,89.778 195.385,89.0477 195.636,88.3269 195.886,87.6165 196.136,86.9174 196.386,86.2302 196.637,85.5558 196.887,84.8947 197.137,84.2474 197.387,83.6146 197.638,82.9967 197.888,82.394 198.138,81.8068 198.388,81.2356 198.639,80.6804 198.889,80.1414 199.139,79.6188 199.389,79.1126 199.64,78.6229 199.89,78.1497 200.14,77.6928 200.39,77.2521 200.641,76.8277 200.891,76.4191 201.141,76.0264 201.391,75.6492 201.642,75.2873 201.892,74.9404 202.142,74.6082 202.392,74.2904 202.643,73.9867 202.893,73.6967 203.143,73.42 203.393,73.1563 203.644,72.9053 203.894,72.6664 204.144,72.4393 204.394,72.2236 204.645,72.019 204.895,71.825 205.145,71.6412 205.395,71.4673 205.646,71.3028 205.896,71.1474 206.146,71.0007 206.396,70.8622 206.647,70.7317 206.897,70.6088 207.147,70.4931 207.397,70.3843 207.648,70.2821 207.898,70.1861 208.148,70.096 208.398,70.0115 208.649,69.9323 208.899,69.8582 209.149,69.7889 209.399,69.724 209.65,69.6634 209.9,69.6069 210.15,69.5541 210.4,69.5048 210.651,69.459 210.901,69.4162 211.151,69.3764 211.401,69.3395 211.652,69.3051 211.902,69.2731 212.152,69.2435 212.402,69.2159 212.653,69.1904 212.903,69.1668 213.153,69.1448 213.403,69.1245 213.654,69.1058 213.904,69.0884 214.154,69.0724 214.404,69.0575 214.655,69.0438 214.905,69.0312 215.155,69.0196 215.405,69.0088 215.656,68.9989 215.906,68.9898 216.156,68.9814 216.406,68.9736 216.657,68.9665 216.907,68.96 217.157,68.954 217.407,68.9485 217.658,68.9434 217.908,68.9387 218.158,68.9345 218.408,68.9305 218.659,68.9269 218.909,68.9236 219.159,68.9206 219.409,68.9178 219.66,68.9153 219.91,68.913 220.16,68.9108 220.41,68.9089 220.661,68.9071 220.911,68.9055 221.161,68.904 221.411,68.9026 221.662,68.9013 221.912,68.9002 222.162,68.8991 222.412,68.8981 222.663,68.8972 222.913,68.8964 223.163,68.8956 223.413,68.8949 223.664,68.8943 223.914,68.8937 224.164,68.8931 224.414,68.8926 224.665,68.8921 224.915,68.8917 225.165,68.8912 225.415,68.8908 225.666,68.8904 225.916,68.89 226.166,68.8896 226.416,68.8893 226.667,68.8889 226.917,68.8885 227.167,68.8881 227.417,68.8878 227.668,68.8874 227.918,68.887 228.168,68.8866 228.418,68.8861 228.669,68.8857 228.919,68.8852 229.169,68.8846 229.419,68.8841 229.67,68.8835 229.92,68.8828 230.17,68.8821 230.42,68.8814 230.671,68.8805 230.921,68.8797 231.171,68.8787 231.421,68.8776 231.672,68.8765 231.922,68.8752 232.172,68.8738 232.422,68.8723 232.673,68.8707 232.923,68.8689 233.173,68.8669 233.423,68.8648 233.674,68.8625 233.924,68.8599 234.174,68.8572 234.424,68.8541 234.675,68.8508 234.925,68.8472 235.175,68.8433 235.425,68.839 235.676,68.8344 235.926,68.8293 236.176,68.8238 236.426,68.8178 236.677,68.8112 236.927,68.8041 237.177,68.7964 237.427,68.788 237.678,68.7789 237.928,68.769 238.178,68.7582 238.428,68.7466 238.679,68.7339 238.929,68.7202 239.179,68.7054 239.429,68.6894 239.68,68.672 239.93,68.6532 240.18,68.6329 240.43,68.611 240.681,68.5874 240.931,68.5618 241.181,68.5343 241.431,68.5047 241.682,68.4727 241.932,68.4383 242.182,68.4013 242.432,68.3616 242.683,68.3188 242.933,68.2729 243.183,68.2237 243.433,68.1709 243.684,68.1143 243.934,68.0537 244.184,67.9889 244.434,67.9196 244.685,67.8454 244.935,67.7663 245.185,67.6818 245.435,67.5917 245.686,67.4957 245.936,67.3934 246.186,67.2847 246.436,67.169 246.687,67.0461 246.937,66.9156 247.187,66.7771 247.437,66.6304 247.688,66.4749 247.938,66.3105 248.188,66.1365 248.438,65.9528 248.689,65.7588 248.939,65.5541 249.189,65.3385 249.439,65.1114 249.69,64.8725 249.94,64.6214 250.19,64.3577 250.44,64.0811 250.691,63.7911 250.941,63.4873 251.191,63.1695 251.441,62.8374 251.692,62.4905 251.942,62.1286 252.192,61.7514 252.442,61.3586 252.693,60.9501 252.943,60.5256 253.193,60.085 253.443,59.6281 253.694,59.1548 253.944,58.6651 254.194,58.159 254.444,57.6364 254.695,57.0974 254.945,56.5422 255.195,55.9709 255.445,55.3838 255.696,54.7811 255.946,54.1631 256.196,53.5303 256.446,52.8831 256.697,52.222 256.947,51.5476 257.197,50.8604 257.447,50.1613 257.698,49.4509 257.948,48.7301 258.198,47.9998 258.448,47.2608 258.699,46.5143 258.949,45.7613 259.199,45.0029 259.449,44.2402 259.7,43.4746 259.95,42.7073 260.2,41.9397 260.45,41.173 260.701,40.4088 260.951,39.6485 261.201,38.8936 261.451,38.1455 261.702,37.4059 261.952,36.6763 262.202,35.9583 262.452,35.2534 262.703,34.5633 262.953,33.8895 263.203,33.2335 263.453,32.597 263.704,31.9814 263.954,31.3882 264.204,30.8189 264.454,30.275 264.705,29.7578 264.955,29.2685 265.205,28.8086 265.455,28.3792 265.706,27.9813 265.956,27.6161 266.206,27.2846 266.456,26.9876 266.707,26.7259 266.957,26.5003 267.207,26.3113 267.457,26.1595 267.708,26.0453 267.958,25.9689 268.208,25.9307 268.458,25.9307 268.709,25.9689 268.959,26.0453 269.209,26.1595 269.459,26.3113 269.71,26.5003 269.96,26.7259 270.21,26.9876 270.46,27.2846 270.711,27.6161 270.961,27.9813 271.211,28.3792 271.461,28.8086 271.712,29.2685 271.962,29.7578 272.212,30.275 272.462,30.8189 272.713,31.3882 272.963,31.9814 273.213,32.597 273.463,33.2335 273.714,33.8895 273.964,34.5633 274.214,35.2534 274.464,35.9583 274.715,36.6763 274.965,37.4059 275.215,38.1455 275.465,38.8936 275.716,39.6485 275.966,40.4088 276.216,41.173 276.466,41.9397 276.717,42.7073 276.967,43.4746 277.217,44.2402 277.467,45.0029 277.718,45.7613 277.968,46.5143 278.218,47.2608 278.468,47.9998 278.719,48.7301 278.969,49.4509 279.219,50.1613 279.469,50.8604 279.72,51.5476 279.97,52.222 280.22,52.8831 280.47,53.5303 280.721,54.1631 280.971,54.7811 281.221,55.3838 281.471,55.9709 281.722,56.5422 281.972,57.0974 282.222,57.6364 282.472,58.159 282.723,58.6651 282.973,59.1548 283.223,59.6281 283.473,60.085 283.724,60.5256 283.974,60.9501 284.224,61.3586 284.474,61.7514 284.725,62.1286 284.975,62.4905 285.225,62.8374 285.475,63.1695 285.726,63.4873 285.976,63.7911 286.226,64.0811 286.476,64.3577 286.727,64.6214 286.977,64.8725 287.227,65.1114 287.477,65.3385 287.728,65.5541 287.978,65.7588 288.228,65.9528 288.478,66.1365 288.729,66.3105 288.979,66.4749 289.229,66.6304 289.479,66.7771 289.73,66.9156 289.98,67.0461 290.23,67.169 290.48,67.2847 290.731,67.3934 290.981,67.4957 291.231,67.5917 291.481,67.6818 291.732,67.7663 291.982,67.8454 292.232,67.9196 292.482,67.9889 292.733,68.0537 292.983,68.1143 293.233,68.1709 293.483,68.2237 293.734,68.2729 293.984,68.3188 294.234,68.3616 294.484,68.4013 294.735,68.4383 294.985,68.4727 295.235,68.5047 295.485,68.5343 295.736,68.5618 295.986,68.5874 296.236,68.611 296.486,68.6329 296.737,68.6532 296.987,68.672 297.237,68.6894 297.487,68.7054 297.738,68.7202 297.988,68.7339 298.238,68.7466 298.488,68.7582 298.739,68.769 298.989,68.7789 299.239,68.788 299.489,68.7964 299.74,68.8041 299.99,68.8112 300.24,68.8178 300.49,68.8238 300.741,68.8293 300.991,68.8344 301.241,68.839 301.491,68.8433 301.742,68.8472 301.992,68.8508 302.242,68.8541 302.492,68.8572 302.743,68.8599 302.993,68.8625 303.243,68.8648 303.493,68.8669 303.744,68.8689 303.994,68.8707 304.244,68.8723 304.494,68.8738 304.745,68.8752 304.995,68.8765 305.245,68.8776 305.495,68.8787 305.746,68.8797 305.996,68.8805 306.246,68.8814 306.496,68.8821 306.747,68.8828 306.997,68.8835 307.247,68.8841 307.497,68.8846 307.748,68.8852 307.998,68.8857 308.248,68.8861 308.498,68.8866 308.749,68.887 308.999,68.8874 309.249,68.8878 309.499,68.8881 309.75,68.8885 310,68.8889 310.25,68.8893 310.5,68.8896 310.751,68.89 311.001,68.8904 311.251,68.8908 311.501,68.8912 311.752,68.8917 312.002,68.8921 312.252,68.8926 312.503,68.8931 312.753,68.8937 313.003,68.8943 313.253,68.8949 313.503,68.8956 313.754,68.8964 314.004,68.8972 314.254,68.8981 314.504,68.8991 314.755,68.9002 315.005,68.9013 315.255,68.9026 315.505,68.904 315.756,68.9055 316.006,68.9071 316.256,68.9089 316.507,68.9108 316.757,68.913 317.007,68.9153 317.257,68.9178 317.508,68.9206 317.758,68.9236 318.008,68.9269 318.258,68.9305 318.508,68.9345 318.759,68.9387 319.009,68.9434 319.259,68.9485 319.509,68.954 319.76,68.96 320.01,68.9665 320.26,68.9736 320.51,68.9814 320.761,68.9898 321.011,68.9989 321.261,69.0088 321.512,69.0196 321.762,69.0312 322.012,69.0438 322.262,69.0575 322.512,69.0724 322.763,69.0884 323.013,69.1058 323.263,69.1245 323.513,69.1448 323.764,69.1668 324.014,69.1904 324.264,69.2159 324.514,69.2435 324.765,69.2731 325.015,69.3051 325.265,69.3395 325.516,69.3764 325.766,69.4162 326.016,69.459 326.266,69.5048 326.517,69.5541 326.767,69.6069 327.017,69.6634 327.267,69.724 327.518,69.7889 327.768,69.8582 328.018,69.9323 328.268,70.0115 328.519,70.096 328.769,70.1861 329.019,70.2821 329.269,70.3843 329.52,70.4931 329.77,70.6088 330.02,70.7317 330.27,70.8622 330.521,71.0007 330.771,71.1474 331.021,71.3028 331.271,71.4673 331.522,71.6412 331.772,71.825 332.022,72.019 332.272,72.2236 332.523,72.4393 332.773,72.6664 333.023,72.9053 333.273,73.1563 333.524,73.42 333.774,73.6967 334.024,73.9867 334.274,74.2904 334.525,74.6082 334.775,74.9404 335.025,75.2873 335.275,75.6492 335.526,76.0264 335.776,76.4191 336.026,76.8277 336.276,77.2521 336.527,77.6928 336.777,78.1497 337.027,78.6229 337.277,79.1126 337.528,79.6188 337.778,80.1414 338.028,80.6804 338.278,81.2356 338.529,81.8068 338.779,82.394 339.029,82.9967 339.279,83.6146 339.53,84.2474 339.78,84.8947 340.03,85.5558 340.28,86.2302 340.531,86.9174 340.781,87.6165 341.031,88.3269 341.281,89.0477 341.532,89.778 341.782,90.5169 342.032,91.2635 342.282,92.0165 342.533,92.7749 342.783,93.5375 343.033,94.3032 343.283,95.0705 343.534,95.8381 343.784,96.6048 344.034,97.369 344.284,98.1293 344.535,98.8842 344.785,99.6322 345.035,100.372 345.285,101.101 345.536,101.819 345.786,102.524 346.036,103.214 346.286,103.888 346.537,104.544 346.787,105.181 347.037,105.796 347.287,106.39 347.538,106.959 347.788,107.503 348.038,108.02 348.288,108.509 348.539,108.969 348.789,109.399 349.039,109.796 349.289,110.162 349.54,110.493 349.79,110.79 350.04,111.052 350.29,111.277 350.541,111.466 350.791,111.618 351.041,111.733 351.291,111.809 351.542,111.847 351.792,111.847 352.042,111.809 352.292,111.733 352.543,111.618 352.793,111.466 353.043,111.277 353.293,111.052 353.544,110.79 353.794,110.493 354.044,110.162 354.294,109.796 354.545,109.399 354.795,108.969 355.045,108.509 355.295,108.02 355.546,107.503 355.796,106.959 356.046,106.39 356.296,105.796 356.547,105.181 356.797,104.544 357.047,103.888 357.297,103.214 357.548,102.524 357.798,101.819 358.048,101.101 358.298,100.372 358.549,99.6322 358.799,98.8842 359.049,98.1293 359.299,97.369 359.55,96.6048 359.8,95.8381 360.05,95.0705 360.3,94.3032 360.551,93.5375 360.801,92.7749 361.051,92.0165 361.301,91.2635 361.552,90.5169 361.802,89.778 362.052,89.0477 362.302,88.3269 362.553,87.6165 362.803,86.9174 363.053,86.2302 363.303,85.5558 363.554,84.8947 363.804,84.2474 364.054,83.6146 364.304,82.9967 364.555,82.394 364.805,81.8068 365.055,81.2356 365.305,80.6804 365.556,80.1414 365.806,79.6188 366.056,79.1126 366.306,78.6229 366.557,78.1497 366.807,77.6928 367.057,77.2521 367.307,76.8277 367.558,76.4191 367.808,76.0264 368.058,75.6492 368.308,75.2873 368.559,74.9404 368.809,74.6082 369.059,74.2904 369.309,73.9867 369.56,73.6967 369.81,73.42 370.06,73.1563 370.31,72.9053 370.561,72.6664 370.811,72.4393 371.061,72.2236 371.311,72.019 371.562,71.825 371.812,71.6412 372.062,71.4673 372.312,71.3028 372.563,71.1474 372.813,71.0007 373.063,70.8622 373.313,70.7317 373.564,70.6088 373.814,70.4931 374.064,70.3843 374.314,70.2821 374.565,70.1861 374.815,70.096 375.065,70.0115 375.315,69.9323 375.566,69.8582 375.816,69.7889 376.066,69.724 376.316,69.6634 376.567,69.6069 376.817,69.5541 377.067,69.5048 377.317,69.459 377.568,69.4162 377.818,69.3764 378.068,69.3395 378.318,69.3051 378.569,69.2731 378.819,69.2435 379.069,69.2159 379.319,69.1904 379.57,69.1668 379.82,69.1448 380.07,69.1245 380.32,69.1058 380.571,69.0884 380.821,69.0724 381.071,69.0575 381.321,69.0438 381.572,69.0312 381.822,69.0196 382.072,69.0088 382.322,68.9989 382.573,68.9898 382.823,68.9814 383.073,68.9736 383.323,68.9665 383.574,68.96 383.824,68.954 384.074,68.9485 384.324,68.9434 384.575,68.9387 384.825,68.9345 385.075,68.9305 385.325,68.9269 385.576,68.9236 385.826,68.9206 386.076,68.9178 386.326,68.9153 386.577,68.913 386.827,68.9108 387.077,68.9089 387.327,68.9071 387.578,68.9055 387.828,68.904 388.078,68.9026 388.328,68.9013 388.579,68.9002 388.829,68.8991 389.079,68.8981 389.329,68.8972 389.58,68.8964 389.83,68.8956 390.08,68.8949 390.33,68.8943 390.581,68.8937 390.831,68.8931 391.081,68.8926 391.331,68.8921 391.582,68.8917 391.832,68.8912 392.082,68.8908 392.332,68.8904 392.583,68.89 392.833,68.8896 393.083,68.8893 393.333,68.8889 393.584,68.8885 393.834,68.8881 394.084,68.8878 394.334,68.8874 394.585,68.887 394.835,68.8866 395.085,68.8861 395.335,68.8857 395.586,68.8852 395.836,68.8846 396.086,68.8841 396.336,68.8835 396.587,68.8828 396.837,68.8821 397.087,68.8814 397.337,68.8805 397.588,68.8797 397.838,68.8787 398.088,68.8776 398.338,68.8765 398.589,68.8752 398.839,68.8738 399.089,68.8723 399.339,68.8707 399.59,68.8689 399.84,68.8669 400.09,68.8648 400.34,68.8625 400.591,68.8599 400.841,68.8572 401.091,68.8541 401.341,68.8508 401.592,68.8472 401.842,68.8433 402.092,68.839 402.342,68.8344 402.593,68.8293 402.843,68.8238 403.093,68.8178 403.343,68.8112 403.594,68.8041 403.844,68.7964 404.094,68.788 404.344,68.7789 404.595,68.769 404.845,68.7582 405.095,68.7466 405.345,68.7339 405.596,68.7202 405.846,68.7054 406.096,68.6894 406.346,68.672 406.597,68.6532 406.847,68.6329 407.097,68.611 407.347,68.5874 407.598,68.5618 407.848,68.5343 408.098,68.5047 408.348,68.4727 408.599,68.4383 408.849,68.4013 409.099,68.3616 409.349,68.3188 409.6,68.2729 409.85,68.2237 410.1,68.1709 410.35,68.1143 410.601,68.0537 410.851,67.9889 411.101,67.9196 411.351,67.8454 411.602,67.7663 411.852,67.6818 412.102,67.5917 412.352,67.4957 412.603,67.3934 412.853,67.2847 413.103,67.169 413.353,67.0461 413.604,66.9156 413.854,66.7771 414.104,66.6304 414.354,66.4749 414.605,66.3105 414.855,66.1365 415.105,65.9528 415.355,65.7588 415.606,65.5541 415.856,65.3385 416.106,65.1114 416.356,64.8725 416.607,64.6214 416.857,64.3577 417.107,64.0811 417.357,63.7911 417.608,63.4873 417.858,63.1695 418.108,62.8374 418.358,62.4905 418.609,62.1286 418.859,61.7514 419.109,61.3586 419.359,60.9501 419.61,60.5256 419.86,60.085 420.11,59.6281 420.36,59.1548 420.611,58.6651 420.861,58.159 421.111,57.6364 421.361,57.0974 421.612,56.5422 421.862,55.9709 422.112,55.3838 422.362,54.7811 422.613,54.1631 422.863,53.5303 423.113,52.8831 423.363,52.222 423.614,51.5476 423.864,50.8604 424.114,50.1613 424.364,49.4509 424.615,48.7301 424.865,47.9998 425.115,47.2608 425.365,46.5143 425.616,45.7613 425.866,45.0029 426.116,44.2402 426.366,43.4746 426.617,42.7073 426.867,41.9397 427.117,41.173 427.367,40.4088 427.618,39.6485 427.868,38.8936 428.118,38.1455 428.368,37.4059 428.619,36.6763 428.869,35.9583 429.119,35.2534 429.369,34.5633 429.62,33.8895 429.87,33.2335 430.12,32.597 430.37,31.9814 430.621,31.3882 430.871,30.8189 431.121,30.275 431.371,29.7578 431.622,29.2685 431.872,28.8086 432.122,28.3792 432.372,27.9813 432.623,27.6161 432.873,27.2846 433.123,26.9876 433.373,26.7259 433.624,26.5003 433.874,26.3113 434.124,26.1595 434.374,26.0453 434.625,25.9689 434.875,25.9307 435.125,25.9307 435.375,25.9689 435.626,26.0453 435.876,26.1595 436.126,26.3113 436.376,26.5003 436.627,26.7259 436.877,26.9876 437.127,27.2846 437.377,27.6161 437.628,27.9813 437.878,28.3792 438.128,28.8086 438.378,29.2685 438.629,29.7578 438.879,30.275 439.129,30.8189 439.379,31.3882 439.63,31.9814 439.88,32.597 440.13,33.2335 440.38,33.8895 440.631,34.5633 440.881,35.2534 441.131,35.9583 441.381,36.6763 441.632,37.4059 441.882,38.1455 442.132,38.8936 442.382,39.6485 442.633,40.4088 442.883,41.173 443.133,41.9397 443.383,42.7073 443.634,43.4746 443.884,44.2402 444.134,45.0029 444.384,45.7613 444.635,46.5143 444.885,47.2608 445.135,47.9998 445.385,48.7301 445.636,49.4509 445.886,50.1613 446.136,50.8604 446.386,51.5476 446.637,52.222 446.887,52.8831 447.137,53.5303 447.387,54.1631 447.638,54.7811 447.888,55.3838 448.138,55.9709 448.388,56.5422 448.639,57.0974 448.889,57.6364 449.139,58.159 449.389,58.6651 449.64,59.1548 449.89,59.6281 450.14,60.085 450.39,60.5256 450.641,60.9501 450.891,61.3586 451.141,61.7514 451.391,62.1286 451.642,62.4905 451.892,62.8374 452.142,63.1695 452.392,63.4873 452.643,63.7911 452.893,64.0811 453.143,64.3577 453.393,64.6214 453.644,64.8725 453.894,65.1114 454.144,65.3385 454.394,65.5541 454.645,65.7588 454.895,65.9528 455.145,66.1365 455.395,66.3105 455.646,66.4749 455.896,66.6304 456.146,66.7771 456.396,66.9156 456.647,67.0461 456.897,67.169 457.147,67.2847 457.397,67.3934 457.648,67.4957 457.898,67.5917 458.148,67.6818 458.398,67.7663 458.649,67.8454 458.899,67.9196 459.149,67.9889 459.399,68.0537 459.65,68.1143 459.9,68.1709 460.15,68.2237 460.4,68.2729 460.651,68.3188 460.901,68.3616 461.151,68.4013 461.401,68.4383 461.652,68.4727 461.902,68.5047 462.152,68.5343 462.402,68.5618 462.653,68.5874 462.903,68.611 463.153,68.6329 463.403,68.6532 463.654,68.672 463.904,68.6894 464.154,68.7054 464.404,68.7202 464.655,68.7339 464.905,68.7466 465.155,68.7582 465.405,68.769 465.656,68.7789 465.906,68.788 466.156,68.7964 466.406,68.8041 466.657,68.8112 466.907,68.8178 467.157,68.8238 467.407,68.8293 467.658,68.8344 467.908,68.839 468.158,68.8433 468.408,68.8472 468.659,68.8508 468.909,68.8541 469.159,68.8572 469.409,68.8599 469.66,68.8625 469.91,68.8648 470.16,68.8669 470.41,68.8689 470.661,68.8707 470.911,68.8723 471.161,68.8738 471.411,68.8752 471.662,68.8765 471.912,68.8776 472.162,68.8787 472.412,68.8797 472.663,68.8805 472.913,68.8814 473.163,68.8821 473.413,68.8828 473.664,68.8835 473.914,68.8841 474.164,68.8846 474.414,68.8852 474.665,68.8857 474.915,68.8861 475.165,68.8866 475.415,68.887 475.666,68.8874 475.916,68.8878 476.166,68.8881 476.416,68.8885 476.667,68.8889 476.917,68.8893 477.167,68.8896 477.417,68.89 477.668,68.8904 477.918,68.8908 478.168,68.8912 478.418,68.8917 478.669,68.8921 478.919,68.8926 479.169,68.8931 479.419,68.8937 479.67,68.8943 479.92,68.8949 480.17,68.8956 480.42,68.8964 480.671,68.8972 480.921,68.8981 481.171,68.8991 481.421,68.9002 481.672,68.9013 481.922,68.9026 482.172,68.904 482.422,68.9055 482.673,68.9071 482.923,68.9089 483.173,68.9108 483.423,68.913 483.674,68.9153 483.924,68.9178 484.174,68.9206 484.424,68.9236 484.675,68.9269 484.925,68.9305 485.175,68.9345 485.425,68.9387 485.676,68.9434 485.926,68.9485 486.176,68.954 486.426,68.96 486.677,68.9665 486.927,68.9736 487.177,68.9814 487.427,68.9898 487.678,68.9989 487.928,69.0088 488.178,69.0196 488.428,69.0312 488.679,69.0438 488.929,69.0575 489.179,69.0724 489.429,69.0884 489.68,69.1058 489.93,69.1245 490.18,69.1448 490.43,69.1668 490.681,69.1904 490.931,69.2159 491.181,69.2435 491.431,69.2731 491.682,69.3051 491.932,69.3395 492.182,69.3764 492.432,69.4162 492.683,69.459 492.933,69.5048 493.183,69.5541 493.433,69.6069 493.684,69.6634 493.934,69.724 494.184,69.7889 494.434,69.8582 494.685,69.9323 494.935,70.0115 495.185,70.096 495.435,70.1861 495.686,70.2821 495.936,70.3843 496.186,70.4931 496.436,70.6088 496.687,70.7317 496.937,70.8622 497.187,71.0007 497.437,71.1474 497.688,71.3028 497.938,71.4673 498.188,71.6412 498.438,71.825 498.689,72.019 498.939,72.2236 499.189,72.4393 499.439,72.6664 499.69,72.9053 499.94,73.1563 500.19,73.42 500.44,73.6967 500.691,73.9867 500.941,74.2904 501.191,74.6082 501.441,74.9404 501.692,75.2873 501.942,75.6492 502.192,76.0264 502.442,76.4191 502.693,76.8277 502.943,77.2521 503.193,77.6928 503.443,78.1497 503.694,78.6229 503.944,79.1126 504.194,79.6188 504.444,80.1414 504.695,80.6804 504.945,81.2356 505.195,81.8068 505.445,82.394 505.696,82.9967 505.946,83.6146 506.196,84.2474 506.446,84.8947 506.697,85.5558 506.947,86.2302 507.197,86.9174 507.447,87.6165 507.698,88.3269 507.948,89.0477 508.198,89.778 508.448,90.5169 508.699,91.2635 508.949,92.0165 509.199,92.7749 509.449,93.5375 509.7,94.3032 509.95,95.0705 510.2,95.8381 510.45,96.6048 510.701,97.369 510.951,98.1293 511.201,98.8842 511.451,99.6322 511.702,100.372 511.952,101.101 512.202,101.819 512.452,102.524 512.703,103.214 512.953,103.888 513.203,104.544 513.453,105.181 513.704,105.796 513.954,106.39 514.204,106.959 514.454,107.503 514.705,108.02 514.955,108.509 515.205,108.969 515.455,109.399 515.706,109.796 515.956,110.162 516.206,110.493 516.456,110.79 516.707,111.052 516.957,111.277 517.207,111.466 517.457,111.618 517.708,111.733 517.958,111.809 518.208,111.847 518.458,111.847 518.709,111.809 518.959,111.733 519.209,111.618 519.459,111.466 519.71,111.277 519.96,111.052 520.21,110.79 520.46,110.493 520.711,110.162 520.961,109.796 521.211,109.399 521.461,108.969 521.712,108.509 521.962,108.02 522.212,107.503 522.462,106.959 522.713,106.39 522.963,105.796 523.213,105.181 523.463,104.544 523.714,103.888 523.964,103.214 524.214,102.524 524.464,101.819 524.715,101.101 524.965,100.372 525.215,99.6322 525.465,98.8842 525.716,98.1293 525.966,97.369 526.216,96.6048 526.466,95.8381 526.717,95.0705 526.967,94.3032 527.217,93.5375 527.467,92.7749 527.718,92.0165 527.968,91.2635 528.218,90.5169 528.468,89.778 528.719,89.0477 528.969,88.3269 529.219,87.6165 529.469,86.9174 529.72,86.2302 529.97,85.5558 530.22,84.8947 530.47,84.2474 530.721,83.6146 530.971,82.9967 531.221,82.394 531.471,81.8068 531.722,81.2356 531.972,80.6804 532.222,80.1414 532.472,79.6188 532.723,79.1126 532.973,78.6229 533.223,78.1497 533.473,77.6928 533.724,77.2521 533.974,76.8277 534.224,76.4191 534.474,76.0264 534.725,75.6492 534.975,75.2873 535.225,74.9404 535.475,74.6082 535.726,74.2904 535.976,73.9867 536.226,73.6967 536.476,73.42 536.727,73.1563 536.977,72.9053 537.227,72.6664 537.477,72.4393 537.728,72.2236 537.978,72.019 538.228,71.825 538.478,71.6412 538.729,71.4673 538.979,71.3028 539.229,71.1474 539.479,71.0007 539.73,70.8622 539.98,70.7317 540.23,70.6088 540.48,70.4931 540.731,70.3843 540.981,70.2821 541.231,70.1861 541.481,70.096 541.732,70.0115 541.982,69.9323 542.232,69.8582 542.482,69.7889 542.733,69.724 542.983,69.6634 543.233,69.6069 543.483,69.5541 543.734,69.5048 543.984,69.459 544.234,69.4162 544.484,69.3764 544.735,69.3395 544.985,69.3051 545.235,69.2731 545.485,69.2435 545.736,69.2159 545.986,69.1904 546.236,69.1668 546.486,69.1448 546.737,69.1245 546.987,69.1058 547.237,69.0884 547.487,69.0724 547.738,69.0575 547.988,69.0438 548.238,69.0312 548.488,69.0196 548.739,69.0088 548.989,68.9989 549.239,68.9898 549.489,68.9814 549.74,68.9736 549.99,68.9665 550.24,68.96 550.49,68.954 550.741,68.9485 550.991,68.9434 551.241,68.9387 551.491,68.9345 551.742,68.9305 551.992,68.9269 552.242,68.9236 552.492,68.9206 552.743,68.9178 552.993,68.9153 553.243,68.913 553.493,68.9108 553.744,68.9089 553.994,68.9071 554.244,68.9055 554.494,68.904 554.745,68.9026 554.995,68.9013 555.245,68.9002 555.495,68.8991 555.746,68.8981 555.996,68.8972 556.246,68.8964 556.496,68.8956 556.747,68.8949 556.997,68.8943 557.247,68.8937 557.497,68.8931 557.748,68.8926 557.998,68.8921 558.248,68.8917 558.498,68.8912 558.749,68.8908 558.999,68.8904 559.249,68.89 559.5,68.8896 559.75,68.8893 560,68.8889"/>
</g>
<clipPath id="cp00600160">
  <polygon points="0,160 600,160 600,0 0,0"/>
</clipPath>
<g clip-path="url(#cp00600160)">
</g>
</g>
</svg>
