<?xml version="1.0" encoding="UTF-8" standalone="no"?>
<?xml-stylesheet type="text/css" href="https://fonts.googleapis.com/css?family=Open+Sans:300italic,400italic,600italic,700italic,400,600,700,300&amp;subset=latin,cyrillic-ext,latin-ext,cyrillic" ?>
<svg xmlns="http://www.w3.org/2000/svg"
     xmlns:xlink="http://www.w3.org/1999/xlink"
     width="600px" height="160px" viewBox="0 0 600 160">
<title>gl2ps_renderer figure</title>
<desc>
Creator: GL2PS 1.4.0, (C) 1999-2017 C. Geuzaine
For: Octave
</desc>
<defs>
</defs>
<polygon fill="#ffffff" points="0,0 600,0 600,160 0,160"/>
<g>
<polygon fill="#fefefe" points="0,160 600,160 600,0 0,0" shape-rendering="crispEdges"/>
<clipPath id="cp00600160">
  <polygon points="0,160 600,160 600,0 0,0"/>
</clipPath>
<g clip-path="url(#cp00600160)">
<polygon fill="#ffffff" shape-rendering="crispEdges" points="60,133.333 560,133.333 60,4.44444"/>
<polygon fill="#ffffff" shape-rendering="crispEdges" points="560,133.333 560,4.44444 60,4.44444"/>
<polyline fill="none" stroke="#262626" stroke-width="0.5" stroke-linecap="butt" stroke-linejoin="miter" points="60,133.333 65,133.333"/>
<polyline fill="none" stroke="#262626" stroke-width="0.5" stroke-linecap="butt" stroke-linejoin="miter" points="560,133.333 555,133.333"/>
<polyline fill="none" stroke="#262626" stroke-width="0.5" stroke-linecap="butt" stroke-linejoin="miter" points="60,111.852 65,111.852"/>
<polyline fill="none" stroke="#262626" stroke-width="0.5" stroke-linecap="butt" stroke-linejoin="miter" points="560,111.852 555,111.852"/>
<polyline fill="none" stroke="#262626" stroke-width="0.5" stroke-linecap="butt" stroke-linejoin="miter" points="60,90.3704 65,90.3704"/>
<polyline fill="none" stroke="#262626" stroke-width="0.5" stroke-linecap="butt" stroke-linejoin="miter" points="560,90.3704 555,90.3704"/>
<polyline fill="none" stroke="#262626" stroke-width="0.5" stroke-linecap="butt" stroke-linejoin="miter" points="60,68.8889 65,68.8889"/>
<polyline fill="none" stroke="#262626" stroke-width="0.5" stroke-linecap="butt" stroke-linejoin="miter" points="560,68.8889 555,68.8889"/>
<polyline fill="none" stroke="#262626" stroke-width="0.5" stroke-linecap="butt" stroke-linejoin="miter" points="60,47.4074 65,47.4074"/>
<polyline fill="none" stroke="#262626" stroke-width="0.5" stroke-linecap="butt" stroke-linejoin="miter" points="560,47.4074 555,47.4074"/>
<polyline fill="none" stroke="#262626" stroke-width="0.5" stroke-linecap="butt" stroke-linejoin="miter" points="60,25.9259 65,25.9259"/>
<polyline fill="none" stroke="#262626" stroke-width="0.5" stroke-linecap="butt" stroke-linejoin="miter" points="560,25.9259 555,25.9259"/>
<polyline fill="none" stroke="#262626" stroke-width="0.5" stroke-linecap="butt" stroke-linejoin="miter" points="60,4.44444 65,4.44444"/>
<polyline fill="none" stroke="#262626" stroke-width="0.5" stroke-linecap="butt" stroke-linejoin="miter" points="560,4.44444 555,4.44444"/>
<text fill="#262626" x="55" y="133.333" font-size="10" text-anchor="end" dy="5" font-family="Open Sans">-1.5</text>
<text fill="#262626" x="55" y="111.852" font-size="10" text-anchor="end" dy="5" font-family="Open Sans">-1</text>
<text fill="#262626" x="55" y="90.3704" font-size="10" text-anchor="end" dy="5" font-family="Open Sans">-0.5</text>
<text fill="#262626" x="55" y="68.8889" font-size="10" text-anchor="end" dy="5" font-family="Open Sans">0</text>
<text fill="#262626" x="55" y="47.4074" font-size="10" text-anchor="end" dy="5" font-family="Open Sans">0.5</text>
<text fill="#262626" x="55" y="25.9259" font-size="10" text-anchor="end" dy="5" font-family="Open Sans">1</text>
<text fill="#262626" x="55" y="4.44444" font-size="10" text-anchor="end" dy="5" font-family="Open Sans">1.5</text>
<polyline fill="none" stroke="#262626" stroke-width="0.5" stroke-linecap="butt" stroke-linejoin="miter" stroke-dasharray="16,0" points="60,133.333 560,133.333"/>
<polyline fill="none" stroke="#262626" stroke-width="0.5" stroke-linecap="butt" stroke-linejoin="miter" stroke-dasharray="16,0" points="60,4.44444 560,4.44444"/>
<polyline fill="none" stroke="#262626" stroke-width="0.5" stroke-linecap="butt" stroke-linejoin="miter" stroke-dasharray="16,0" points="60,133.333 60,4.44444"/>
<polyline fill="none" stroke="#262626" stroke-width="0.5" stroke-linecap="butt" stroke-linejoin="miter" stroke-dasharray="16,0" points="560,133.333 560,4.44444"/>
<polyline fill="none" stroke="#0071bc" stroke-width="0.5" stroke-linecap="butt" stroke-linejoin="miter" points="60,68.8889 60.1667,68.8886 60.3333,68.8884 60.5,68.8882 60.6667,68.8879 60.8333,68.8876 61,68.8874 61.1667,68.8871 61.3333,68.8868 61.5,68.8866 61.6667,68.8863 61.8333,68.886 62,68.8857 62.1667,68.8853 62.3333,68.885 62.5,68.8847 62.6666,68.8843 62.8333,68.8839 63,68.8835 63.1666,68.8831 63.3333,68.8826 63.5,68.8821 63.6666,68.8816 63.8333,68.8811 64,68.8806 64.1666,68.88 64.3333,68.8793 64.5,68.8787 64.6666,68.878 64.8333,68.8773 65,68.8765 65.1666,68.8757 65.3333,68.8748 65.5,68.8739 65.6666,68.8729 65.8333,68.8718 66,68.8707 66.1666,68.8696 66.3333,68.8683 66.5,68.867 66.6666,68.8656 66.8333,68.8641 67,68.8625 67.1666,68.8609 67.3333,68.8591 67.5,68.8573 67.6666,68.8553 67.8333,68.8532 68,68.851 68.1666,68.8486 68.3333,68.8461 68.5,68.8435 68.6666,68.8407 68.8333,68.8377 69,68.8346 69.1666,68.8312 69.3333,68.8277 69.5,68.824 69.6666,68.8201 69.8333,68.8159 70,68.8115 70.1666,68.8069 70.3333,68.8019 70.5,68.7967 70.6666,68.7912 70.8333,68.7854 71,68.7793 71.1666,68.7728 71.3333,68.766 71.5,68.7587 71.6666,68.7511 71.8333,68.7431 72,68.7346 72.1666,68.7256 72.3333,68.7161 72.5,68.7062 72.6666,68.6957 72.8333,68.6846 73,68.6729 73.1666,68.6606 73.3333,68.6477 73.5,68.6341 73.6666,68.6197 73.8333,68.6046 74,68.5887 74.1666,68.572 74.3333,68.5545 74.5,68.536 74.6667,68.5165 74.8333,68.4961 75,68.4747 75.1667,68.4522 75.3333,68.4285 75.5,68.4037 75.6667,68.3776 75.8333,68.3503 76,68.3217 76.1667,68.2916 76.3333,68.2601 76.5,68.2271 76.6667,68.1925 76.8333,68.1562 77,68.1183 77.1667,68.0786 77.3333,68.0371 77.5,67.9936 77.6667,67.9481 77.8333,67.9006 78,67.8509 78.1667,67.799 78.3333,67.7448 78.5,67.6882 78.6667,67.6292 78.8333,67.5675 79,67.5032 79.1667,67.4361 79.3333,67.3662 79.5,67.2934 79.6667,67.2175 79.8333,67.1384 80,67.0562 80.1667,66.9705 80.3333,66.8814 80.5,66.7888 80.6667,66.6925 80.8333,66.5923 81,66.4883 81.1667,66.3803 81.3333,66.2682 81.5,66.1519 81.6666,66.0312 81.8333,65.906 82,65.7763 82.1666,65.6418 82.3333,65.5025 82.5,65.3584 82.6666,65.2091 82.8333,65.0547 83,64.895 83.1666,64.7299 83.3333,64.5593 83.5,64.3831 83.6666,64.2011 83.8333,64.0133 84,63.8195 84.1666,63.6196 84.3333,63.4136 84.5,63.2013 84.6666,62.9827 84.8333,62.7575 85,62.5258 85.1666,62.2875 85.3333,62.0424 85.5,61.7906 85.6666,61.5318 85.8333,61.2661 86,60.9934 86.1666,60.7135 86.3333,60.4266 86.5,60.1325 86.6666,59.8312 86.8333,59.5226 87,59.2067 87.1666,58.8836 87.3333,58.5532 87.5,58.2154 87.6666,57.8704 87.8333,57.5181 88,57.1586 88.1666,56.7918 88.3333,56.4179 88.5,56.0369 88.6666,55.6488 88.8333,55.2537 89,54.8518 89.1666,54.4431 89.3333,54.0277 89.5,53.6058 89.6666,53.1774 89.8333,52.7428 90,52.3021 90.1666,51.8554 90.3333,51.4029 90.5,50.9449 90.6666,50.4815 90.8333,50.013 91,49.5396 91.1666,49.0615 91.3333,48.5789 91.5,48.0923 91.6666,47.6017 91.8333,47.1076 92,46.6103 92.1666,46.1099 92.3333,45.607 92.5,45.1017 92.6666,44.5945 92.8333,44.0858 93,43.5758 93.1666,43.065 93.3333,42.5538 93.5,42.0425 93.6667,41.5316 93.8333,41.0215 94,40.5125 94.1667,40.0052 94.3333,39.5 94.5,38.9974 94.6667,38.4976 94.8333,38.0013 95,37.5089 95.1667,37.0208 95.3333,36.5375 95.5,36.0595 95.6667,35.5872 95.8333,35.1211 96,34.6617 96.1667,34.2094 96.3333,33.7647 96.5,33.3281 96.6667,32.9 96.8333,32.4808 97,32.0711 97.1667,31.6712 97.3333,31.2816 97.5,30.9027 97.6667,30.535 97.8333,30.1788 98,29.8346 98.1667,29.5027 98.3333,29.1836 98.5,28.8775 98.6667,28.5849 98.8333,28.306 99,28.0413 99.1667,27.791 99.3333,27.5553 99.5,27.3347 99.6667,27.1294 99.8333,26.9395 100,26.7654 100.167,26.6072 100.333,26.4651 100.5,26.3394 100.667,26.2301 100.833,26.1374 101,26.0614 101.167,26.0022 101.333,25.9598 101.5,25.9344 101.667,25.9259 101.833,25.9344 102,25.9598 102.167,26.0022 102.333,26.0614 102.5,26.1374 102.667,26.2301 102.833,26.3394 103,26.4651 103.167,26.6072 103.333,26.7654 103.5,26.9395 103.667,27.1294 103.833,27.3347 104,27.5553 104.167,27.791 104.333,28.0413 104.5,28.306 104.667,28.5849 104.833,28.8775 105,29.1836 105.167,29.5027 105.333,29.8346 105.5,30.1788 105.667,30.535 105.833,30.9027 106,31.2816 106.167,31.6712 106.333,32.0711 106.5,32.4808 106.667,32.9 106.833,33.3281 107,33.7647 107.167,34.2094 107.333,34.6617 107.5,35.1211 107.667,35.5872 107.833,36.0595 108,36.5375 108.167,37.0208 108.333,37.5089 108.5,38.0013 108.667,38.4976 108.833,38.9974 109,39.5 109.167,40.0052 109.333,40.5125 109.5,41.0215 109.667,41.5316 109.833,42.0425 110,42.5538 110.167,43.065 110.333,43.5758 110.5,44.0858 110.667,44.5945 110.833,45.1017 111,45.607 111.167,46.1099 111.333,46.6103 111.5,47.1076 111.667,47.6017 111.833,48.0923 112,48.5789 112.167,49.0615 112.333,49.5396 112.5,50.013 112.667,50.4815 112.833,50.9449 113,51.4029 113.167,51.8554 113.333,52.3021 113.5,52.7428 113.667,53.1774 113.833,53.6058 114,54.0277 114.167,54.4431 114.333,54.8518 114.5,55.2537 114.667,55.6488 114.833,56.0369 115,56.4179 115.167,56.7918 115.333,57.1586 115.5,57.5181 115.667,57.8704 115.833,58.2154 116,58.5532 116.167,58.8836 116.333,59.2067 116.5,59.5226 116.667,59.8312 116.833,60.1325 117,60.4266 117.167,60.7135 117.333,60.9934 117.5,61.2661 117.667,61.5318 117.833,61.7906 118,62.0424 118.167,62.2875 118.333,62.5258 118.5,62.7575 118.667,62.9827 118.833,63.2013 119,63.4136 119.167,63.6196 119.333,63.8195 119.5,64.0133 119.667,64.2011 119.833,64.3831 120,64.5593 120.167,64.7299 120.333,64.895 120.5,65.0547 120.667,65.2091 120.833,65.3584 121,65.5025 121.167,65.6418 121.333,65.7763 121.5,65.906 121.667,66.0312 121.833,66.1519 122,66.2682 122.167,66.3803 122.333,66.4883 122.5,66.5923 122.667,66.6925 122.833,66.7888 123,66.8814 123.167,66.9705 123.333,67.0562 123.5,67.1384 123.667,67.2175 123.833,67.2934 124,67.3662 124.167,67.4361 124.333,67.5032 124.5,67.5675 124.667,67.6292 124.833,67.6882 125,67.7448 125.167,67.799 125.333,67.8509 125.5,67.9006 125.667,67.9481 125.833,67.9936 126,68.0371 126.167,68.0786 126.333,68.1183 126.5,68.1562 126.667,68.1925 126.833,68.2271 127,68.2601 127.167,68.2916 127.333,68.3217 127.5,68.3503 127.667,68.3776 127.833,68.4037 128,68.4285 128.167,68.4522 128.333,68.4747 128.5,68.4961 128.667,68.5165 128.833,68.536 129,68.5545 129.167,68.572 129.333,68.5887 129.5,68.6046 129.667,68.6197 129.833,68.6341 130,68.6477 130.167,68.6606 130.333,68.6729 130.5,68.6846 130.667,68.6957 130.833,68.7062 131,68.7161 131.167,68.7256 131.333,68.7346 131.5,68.7431 131.667,68.7511 131.833,68.7587 132,68.766 132.167,68.7728 132.333,68.7793 132.5,68.7854 132.667,68.7912 132.833,68.7967 133,68.8019 133.167,68.8069 133.333,68.8115 133.5,68.8159 133.667,68.8201 133.833,68.824 134,68.8277 134.167,68.8312 134.333,68.8346 134.5,68.8377 134.667,68.8407 134.833,68.8435 135,68.8461 135.167,68.8486 135.333,68.851 135.5,68.8532 135.667,68.8553 135.833,68.8573 136,68.8591 136.167,68.8609 136.333,68.8625 136.5,68.8641 136.667,68.8656 136.833,68.867 137,68.8683 137.167,68.8696 137.333,68.8707 137.5,68.8718 137.667,68.8729 137.833,68.8739 138,68.8748 138.167,68.8757 138.333,68.8765 138.5,68.8773 138.667,68.878 138.833,68.8787 139,68.8793 139.167,68.88 139.333,68.8806 139.5,68.8811 139.667,68.8816 139.833,68.8821 140,68.8826 140.167,68.8831 140.333,68.8835 140.5,68.8839 140.667,68.8843 140.833,68.8847 141,68.885 141.167,68.8853 141.333,68.8857 141.5,68.886 141.667,68.8863 141.833,68.8866 142,68.8868 142.167,68.8871 142.333,68.8874 142.5,68.8876 142.667,68.8879 142.833,68.8882 143,68.8884 143.167,68.8886 143.333,68.8889 143.5,68.8891 143.667,68.8894 143.833,68.8896 144,68.8899 144.167,68.8901 144.333,68.8904 144.5,68.8907 144.667,68.8909 144.833,68.8912 145,68.8915 145.167,68.8918 145.333,68.8921 145.5,68.8924 145.667,68.8928 145.833,68.8931 146,68.8935 146.167,68.8939 146.333,68.8943 146.5,68.8947 146.667,68.8952 146.833,68.8956 147,68.8961 147.167,68.8967 147.333,68.8972 147.5,68.8978 147.667,68.8984 147.833,68.8991 148,68.8998 148.167,68.9005 148.333,68.9013 148.5,68.9021 148.667,68.903 148.833,68.9039 149,68.9049 149.167,68.9059 149.333,68.9071 149.5,68.9082 149.667,68.9095 149.833,68.9108 150,68.9122 150.167,68.9137 150.333,68.9152 150.5,68.9169 150.667,68.9187 150.833,68.9205 151,68.9225 151.167,68.9246 151.333,68.9268 151.5,68.9292 151.667,68.9317 151.833,68.9343 152,68.9371 152.167,68.9401 152.333,68.9432 152.5,68.9465 152.667,68.9501 152.833,68.9538 153,68.9577 153.167,68.9619 153.333,68.9663 153.5,68.9709 153.667,68.9758 153.833,68.981 154,68.9865 154.167,68.9924 154.333,68.9985 154.5,69.005 154.667,69.0118 154.833,69.019 155,69.0267 155.167,69.0347 155.333,69.0432 155.5,69.0522 155.667,69.0616 155.833,69.0716 156,69.0821 156.167,69.0932 156.333,69.1048 156.5,69.1171 156.667,69.1301 156.833,69.1437 157,69.1581 157.167,69.1731 157.333,69.189 157.5,69.2057 157.667,69.2233 157.833,69.2418 158,69.2612 158.167,69.2816 158.333,69.3031 158.5,69.3256 158.667,69.3493 158.833,69.3741 159,69.4001 159.167,69.4275 159.333,69.4561 159.5,69.4862 159.667,69.5177 159.833,69.5507 160,69.5853 160.167,69.6215 160.333,69.6595 160.5,69.6992 160.667,69.7407 160.833,69.7842 161,69.8296 161.167,69.8772 161.333,69.9268 161.5,69.9787 161.667,70.0329 161.833,70.0895 162,70.1486 162.167,70.2103 162.333,70.2746 162.5,70.3416 162.667,70.4115 162.833,70.4844 163,70.5603 163.167,70.6393 163.333,70.7216 163.5,70.8073 163.667,70.8963 163.833,70.989 164,71.0853 164.167,71.1854 164.333,71.2894 164.5,71.3974 164.667,71.5096 164.833,71.6259 165,71.7466 165.167,71.8718 165.333,72.0015 165.5,72.136 165.667,72.2752 165.833,72.4194 166,72.5687 166.167,72.7231 166.333,72.8828 166.5,73.0479 166.667,73.2185 166.833,73.3947 167,73.5767 167.167,73.7645 167.333,73.9583 167.5,74.1581 167.667,74.3642 167.833,74.5765 168,74.7951 168.167,75.0202 168.333,75.2519 168.5,75.4903 168.667,75.7353 168.833,75.9872 169,76.246 169.167,76.5117 169.333,76.7844 169.5,77.0642 169.667,77.3512 169.833,77.6453 170,77.9466 170.167,78.2552 170.333,78.571 170.5,78.8942 170.667,79.2246 170.833,79.5623 171,79.9074 171.167,80.2597 171.333,80.6192 171.5,80.986 171.667,81.3599 171.833,81.7409 172,82.129 172.167,82.524 172.333,82.926 172.5,83.3347 172.667,83.7501 172.833,84.172 173,84.6004 173.167,85.035 173.333,85.4757 173.5,85.9224 173.667,86.3748 173.833,86.8329 174,87.2962 174.167,87.7648 174.333,88.2382 174.5,88.7163 174.667,89.1988 174.833,89.6855 175,90.176 175.167,90.6701 175.333,91.1675 175.5,91.6678 175.667,92.1708 175.833,92.6761 176,93.1832 176.167,93.692 176.333,94.202 176.5,94.7128 176.667,95.224 176.833,95.7353 177,96.2462 177.167,96.7563 177.333,97.2652 177.5,97.7725 177.667,98.2777 177.833,98.7804 178,99.2801 178.167,99.7764 178.333,100.269 178.5,100.757 178.667,101.24 178.833,101.718 179,102.191 179.167,102.657 179.333,103.116 179.5,103.568 179.667,104.013 179.833,104.45 180,104.878 180.167,105.297 180.333,105.707 180.5,106.107 180.667,106.496 180.833,106.875 181,107.243 181.167,107.599 181.333,107.943 181.5,108.275 181.667,108.594 181.833,108.9 182,109.193 182.167,109.472 182.333,109.737 182.5,109.987 182.667,110.222 182.833,110.443 183,110.648 183.167,110.838 183.333,111.012 183.5,111.171 183.667,111.313 183.833,111.438 184,111.548 184.167,111.64 184.333,111.716 184.5,111.776 184.667,111.818 184.833,111.843 185,111.852 185.167,111.843 185.333,111.818 185.5,111.776 185.667,111.716 185.833,111.64 186,111.548 186.167,111.438 186.333,111.313 186.5,111.171 186.667,111.012 186.833,110.838 187,110.648 187.167,110.443 187.333,110.222 187.5,109.987 187.667,109.737 187.833,109.472 188,109.193 188.167,108.9 188.333,108.594 188.5,108.275 188.667,107.943 188.833,107.599 189,107.243 189.167,106.875 189.333,106.496 189.5,106.107 189.667,105.707 189.833,105.297 190,104.878 190.167,104.45 190.333,104.013 190.5,103.568 190.667,103.116 190.833,102.657 191,102.191 191.167,101.718 191.333,101.24 191.5,100.757 191.667,100.269 191.833,99.7764 192,99.2801 192.167,98.7804 192.333,98.2777 192.5,97.7725 192.667,97.2652 192.833,96.7563 193,96.2462 193.167,95.7353 193.333,95.224 193.5,94.7128 193.667,94.202 193.833,93.692 194,93.1832 194.167,92.6761 194.333,92.1708 194.5,91.6678 194.667,91.1675 194.833,90.6701 195,90.176 195.167,89.6855 195.333,89.1988 195.5,88.7163 195.667,88.2382 195.833,87.7648 196,87.2962 196.167,86.8329 196.333,86.3748 196.5,85.9224 196.667,85.4757 196.833,85.035 197,84.6004 197.167,84.172 197.333,83.7501 197.5,83.3347 197.667,82.926 197.833,82.524 198,82.129 198.167,81.7409 198.333,81.3599 198.5,80.986 198.667,80.6192 198.833,80.2597 199,79.9074 199.167,79.5623 199.333,79.2246 199.5,78.8942 199.667,78.571 199.833,78.2552 200,77.9466 200.167,77.6453 200.333,77.3512 200.5,77.0642 200.667,76.7844 200.833,76.5117 201,76.246 201.167,75.9872 201.333,75.7353 201.5,75.4903 201.667,75.2519 201.833,75.0202 202,74.7951 202.167,74.5765 202.333,74.3642 202.5,74.1581 202.667,73.9583 202.833,73.7645 203,73.5767 203.167,73.3947 203.333,73.2185 203.5,73.0479 203.667,72.8828 203.833,72.7231 204,72.5687 204.167,72.4194 204.333,72.2752 204.5,72.136 204.667,72.0015 204.833,71.8718 205,71.7466 205.167,71.6259 205.333,71.5096 205.5,71.3974 205.667,71.2894 205.833,71.1854 206,71.0853 206.167,70.989 206.333,70.8963 206.5,70.8073 206.667,70.7216 206.833,70.6393 207,70.5603 207.167,70.4844 207.333,70.4115 207.5,70.3416 207.667,70.2746 207.833,70.2103 208,70.1486 208.167,70.0895 208.333,70.0329 208.5,69.9787 208.667,69.9268 208.833,69.8772 209,69.8296 209.167,69.7842 209.333,69.7407 209.5,69.6992 209.667,69.6595 209.833,69.6215 210,69.5853 210.167,69.5507 210.333,69.5177 210.5,69.4862 210.667,69.4561 210.833,69.4275 211,69.4001 211.167,69.3741 211.333,69.3493 211.5,69.3256 211.667,69.3031 211.833,69.2816 212,69.2612 212.167,69.2418 212.333,69.2233 212.5,69.2057 212.667,69.189 212.833,69.1731 213,69.1581 213.167,69.1437 213.333,69.1301 213.5,69.1171 213.667,69.1048 213.833,69.0932 214,69.0821 214.167,69.0716 214.333,69.0616 214.5,69.0522 214.667,69.0432 214.833,69.0347 215,69.0267 215.167,69.019 215.333,69.0118 215.5,69.005 215.667,68.9985 215.833,68.9924 216,68.9865 216.167,68.981 216.333,68.9758 216.5,68.9709 216.667,68.9663 216.833,68.9619 217,68.9577 217.167,68.9538 217.333,68.9501 217.5,68.9465 217.667,68.9432 217.833,68.9401 218,68.9371 218.167,68.9343 218.333,68.9317 218.5,68.9292 218.667,68.9268 218.833,68.9246 219,68.9225 219.167,68.9205 219.333,68.9187 219.5,68.9169 219.667,68.9152 219.833,68.9137 220,68.9122 220.167,68.9108 220.333,68.9095 220.5,68.9082 220.667,68.9071 220.833,68.9059 221,68.9049 221.167,68.9039 221.333,68.903 221.5,68.9021 221.667,68.9013 221.833,68.9005 222,68.8998 222.167,68.8991 222.333,68.8984 222.5,68.8978 222.667,68.8972 222.833,68.8967 223,68.8961 223.167,68.8956 223.333,68.8952 223.5,68.8947 223.667,68.8943 223.833,68.8939 224,68.8935 224.167,68.8931 224.333,68.8928 224.5,68.8924 224.667,68.8921 224.833,68.8918 225,68.8915 225.167,68.8912 225.333,68.8909 225.5,68.8907 225.667,68.8904 225.833,68.8901 226,68.8899 226.167,68.8896 226.333,68.8894 226.5,68.8891 226.667,68.8889 226.833,68.8886 227,68.8884 227.167,68.8882 227.333,68.8879 227.5,68.8876 227.667,68.8874 227.833,68.8871 228,68.8868 228.167,68.8866 228.333,68.8863 228.5,68.886 228.667,68.8857 228.833,68.8853 229,68.885 229.167,68.8847 229.333,68.8843 229.5,68.8839 229.667,68.8835 229.833,68.8831 230,68.8826 230.167,68.8821 230.333,68.8816 230.5,68.8811 230.667,68.8806 230.833,68.88 231,68.8793 231.167,68.8787 231.333,68.878 231.5,68.8773 231.667,68.8765 231.833,68.8757 232,68.8748 232.167,68.8739 232.333,68.8729 232.5,68.8718 232.667,68.8707 232.833,68.8696 233,68.8683 233.167,68.867 233.333,68.8656 233.5,68.8641 233.667,68.8625 233.833,68.8609 234,68.8591 234.167,68.8573 234.333,68.8553 234.5,68.8532 234.667,68.851 234.833,68.8486 235,68.8461 235.167,68.8435 235.333,68.8407 235.5,68.8377 235.667,68.8346 235.833,68.8312 236,68.8277 236.167,68.824 236.333,68.8201 236.5,68.8159 236.667,68.8115 236.833,68.8069 237,68.8019 237.167,68.7967 237.333,68.7912 237.5,68.7854 237.667,68.7793 237.833,68.7728 238,68.766 238.167,68.7587 238.333,68.7511 238.5,68.7431 238.667,68.7346 238.833,68.7256 239,68.7161 239.167,68.7062 239.333,68.6957 239.5,68.6846 239.667,68.6729 239.833,68.6606 240,68.6477 240.167,68.6341 240.333,68.6197 240.5,68.6046 240.667,68.5887 240.833,68.572 241,68.5545 241.167,68.536 241.333,68.5165 241.5,68.4961 241.667,68.4747 241.833,68.4522 242,68.4285 242.167,68.4037 242.333,68.3776 242.5,68.3503 242.667,68.3217 242.833,68.2916 243,68.2601 243.167,68.2271 243.333,68.1925 243.5,68.1562 243.667,68.1183 243.833,68.0786 244,68.0371 244.167,67.9936 244.333,67.9481 244.5,67.9006 244.667,67.8509 244.833,67.799 245,67.7448 245.167,67.6882 245.333,67.6292 245.5,67.5675 245.667,67.5032 245.833,67.4361 246,67.3662 246.167,67.2934 246.333,67.2175 246.5,67.1384 246.667,67.0562 246.833,66.9705 247,66.8814 247.167,66.7888 247.333,66.6925 247.5,66.5923 247.667,66.4883 247.833,66.3803 248,66.2682 248.167,66.1519 248.333,66.0312 248.5,65.906 248.667,65.7763 248.833,65.6418 249,65.5025 249.167,65.3584 249.333,65.2091 249.5,65.0547 249.667,64.895 249.833,64.7299 250,64.5593 250.167,64.3831 250.333,64.2011 250.5,64.0133 250.667,63.8195 250.833,63.6196 251,63.4136 251.167,63.2013 251.333,62.9827 251.5,62.7575 251.667,62.5258 251.833,62.2875 252,62.0424 252.167,61.7906 252.333,61.5318 252.5,61.2661 252.667,60.9934 252.833,60.7135 253,60.4266 253.167,60.1325 253.333,59.8312 253.5,59.5226 253.667,59.2067 253.833,58.8836 254,58.5532 254.167,58.2154 254.333,57.8704 254.5,57.5181 254.667,57.1586 254.833,56.7918 255,56.4179 255.167,56.0369 255.333,55.6488 255.5,55.2537 255.667,54.8518 255.833,54.4431 256,54.0277 256.167,53.6058 256.333,53.1774 256.5,52.7428 256.667,52.3021 256.833,51.8554 257,51.4029 257.167,50.9449 257.333,50.4815 257.5,50.013 257.667,49.5396 257.833,49.0615 258,48.5789 258.167,48.0923 258.333,47.6017 258.5,47.1076 258.667,46.6103 258.833,46.1099 259,45.607 259.167,45.1017 259.333,44.5945 259.5,44.0858 259.667,43.5758 259.833,43.065 260,42.5538 260.167,42.0425 260.333,41.5316 260.5,41.0215 260.667,40.5125 260.833,40.0052 261,39.5 261.167,38.9974 261.333,38.4976 261.5,38.0013 261.667,37.5089 261.833,37.0208 262,36.5375 262.167,36.0595 262.333,35.5872 262.5,35.1211 262.667,34.6617 262.833,34.2094 263,33.7647 263.167,33.3281 263.333,32.9 263.5,32.4808 263.667,32.0711 263.833,31.6712 264,31.2816 264.167,30.9027 264.333,30.535 264.5,30.1788 264.667,29.8346 264.833,29.5027 265,29.1836 265.167,28.8775 265.333,28.5849 265.5,28.306 265.667,28.0413 265.833,27.791 266,27.5553 266.167,27.3347 266.333,27.1294 266.5,26.9395 266.667,26.7654 266.833,26.6072 267,26.4651 267.167,26.3394 267.333,26.2301 267.5,26.1374 267.667,26.0614 267.833,26.0022 268,25.9598 268.167,25.9344 268.333,25.9259 268.5,25.9344 268.667,25.9598 268.833,26.0022 269,26.0614 269.167,26.1374 269.333,26.2301 269.5,26.3394 269.667,26.4651 269.833,26.6072 270,26.7654 270.167,26.9395 270.333,27.1294 270.5,27.3347 270.667,27.5553 270.833,27.791 271,28.0413 271.167,28.306 271.333,28.5849 271.5,28.8775 271.667,29.1836 271.833,29.5027 272,29.8346 272.167,30.1788 272.333,30.535 272.5,30.9027 272.667,31.2816 272.833,31.6712 273,32.0711 273.167,32.4808 273.333,32.9 273.5,33.3281 273.667,33.7647 273.833,34.2094 274,34.6617 274.167,35.1211 274.333,35.5872 274.5,36.0595 274.667,36.5375 274.833,37.0208 275,37.5089 275.167,38.0013 275.333,38.4976 275.5,38.9974 275.667,39.5 275.833,40.0052 276,40.5125 276.167,41.0215 276.333,41.5316 276.5,42.0425 276.667,42.5538 276.833,43.065 277,43.5758 277.167,44.0858 277.333,44.5945 277.5,45.1017 277.667,45.607 277.833,46.1099 278,46.6103 278.167,47.1076 278.333,47.6017 278.5,48.0923 278.667,48.5789 278.833,49.0615 279,49.5396 279.167,50.013 279.333,50.4815 279.5,50.9449 279.667,51.4029 279.833,51.8554 280,52.3021 280.167,52.7428 280.333,53.1774 280.5,53.6058 280.667,54.0277 280.833,54.4431 281,54.8518 281.167,55.2537 281.333,55.6488 281.5,56.0369 281.667,56.4179 281.833,56.7918 282,57.1586 282.167,57.5181 282.333,57.8704 282.5,58.2154 282.667,58.5532 282.833,58.8836 283,59.2067 283.167,59.5226 283.333,59.8312 283.5,60.1325 283.667,60.4266 283.833,60.7135 284,60.9934 284.167,61.2661 284.333,61.5318 284.5,61.7906 284.667,62.0424 284.833,62.2875 285,62.5258 285.167,62.7575 285.333,62.9827 285.5,63.2013 285.667,63.4136 285.833,63.6196 286,63.8195 286.167,64.0133 286.333,64.2011 286.5,64.3831 286.667,64.5593 286.833,64.7299 287,64.895 287.167,65.0547 287.333,65.2091 287.5,65.3584 287.667,65.5025 287.833,65.6418 288,65.7763 288.167,65.906 288.333,66.0312 288.5,66.1519 288.667,66.2682 288.833,66.3803 289,66.4883 289.167,66.5923 289.333,66.6925 289.5,66.7888 289.667,66.8814 289.833,66.9705 290,67.0562 290.167,67.1384 290.333,67.2175 290.5,67.2934 290.667,67.3662 290.833,67.4361 291,67.5032 291.167,67.5675 291.333,67.6292 291.5,67.6882 291.667,67.7448 291.833,67.799 292,67.8509 292.167,67.9006 292.333,67.9481 292.5,67.9936 292.667,68.0371 292.833,68.0786 293,68.1183 293.167,68.1562 293.333,68.1925 293.5,68.2271 293.667,68.2601 293.833,68.2916 294,68.3217 294.167,68.3503 294.333,68.3776 294.5,68.4037 294.667,68.4285 294.833,68.4522 295,68.4747 295.167,68.4961 295.333,68.5165 295.5,68.536 295.667,68.5545 295.833,68.572 296,68.5887 296.167,68.6046 296.333,68.6197 296.5,68.6341 296.667,68.6477 296.833,68.6606 297,68.6729 297.167,68.6846 297.333,68.6957 297.5,68.7062 297.667,68.7161 297.833,68.7256 298,68.7346 298.167,68.7431 298.333,68.7511 298.5,68.7587 298.667,68.766 298.833,68.7728 299,68.7793 299.167,68.7854 299.333,68.7912 299.5,68.7967 299.667,68.8019 299.833,68.8069 300,68.8115 300.167,68.8159 300.333,68.8201 300.5,68.824 300.667,68.8277 300.833,68.8312 301,68.8346 301.167,68.8377 301.333,68.8407 301.5,68.8435 301.667,68.8461 301.833,68.8486 302,68.851 302.167,68.8532 302.333,68.8553 302.5,68.8573 302.667,68.8591 302.833,68.8609 303,68.8625 303.167,68.8641 303.333,68.8656 303.5,68.867 303.667,68.8683 303.833,68.8696 304,68.8707 304.167,68.8718 304.333,68.8729 304.5,68.8739 304.667,68.8748 304.833,68.8757 305,68.8765 305.167,68.8773 305.333,68.878 305.5,68.8787 305.667,68.8793 305.833,68.88 306,68.8806 306.167,68.8811 306.333,68.8816 306.5,68.8821 306.667,68.8826 306.833,68.8831 307,68.8835 307.167,68.8839 307.333,68.8843 307.5,68.8847 307.667,68.885 307.833,68.8853 308,68.8857 308.167,68.886 308.333,68.8863 308.5,68.8866 308.667,68.8868 308.833,68.8871 309,68.8874 309.167,68.8876 309.333,68.8879 309.5,68.8882 309.667,68.8884 309.833,68.8886 310,68.8889 310.167,68.8891 310.333,68.8894 310.5,68.8896 310.667,68.8899 310.833,68.8901 311,68.8904 311.167,68.8907 311.333,68.8909 311.5,68.8912 311.667,68.8915 311.833,68.8918 312,68.8921 312.167,68.8924 312.333,68.8928 312.5,68.8931 312.667,68.8935 312.833,68.8939 313,68.8943 313.167,68.8947 313.333,68.8952 313.5,68.8956 313.667,68.8961 313.833,68.8967 314,68.8972 314.167,68.8978 314.333,68.8984 314.5,68.8991 314.667,68.8998 314.833,68.9005 315,68.9013 315.167,68.9021 315.333,68.903 315.5,68.9039 315.667,68.9049 315.833,68.9059 316,68.9071 316.167,68.9082 316.333,68.9095 316.5,68.9108 316.667,68.9122 316.833,68.9137 317,68.9152 317.167,68.9169 317.333,68.9187 317.5,68.9205 317.667,68.9225 317.833,68.9246 318,68.9268 318.167,68.9292 318.333,68.9317 318.5,68.9343 318.667,68.9371 318.833,68.9401 319,68.9432 319.167,68.9465 319.333,68.9501 319.5,68.9538 319.667,68.9577 319.833,68.9619 320,68.9663 320.167,68.9709 320.333,68.9758 320.5,68.981 320.667,68.9865 320.833,68.9924 321,68.9985 321.167,69.005 321.333,69.0118 321.5,69.019 321.667,69.0267 321.833,69.0347 322,69.0432 322.167,69.0522 322.333,69.0616 322.5,69.0716 322.667,69.0821 322.833,69.0932 323,69.1048 323.167,69.1171 323.333,69.1301 323.5,69.1437 323.667,69.1581 323.833,69.1731 324,69.189 324.167,69.2057 324.333,69.2233 324.5,69.2418 324.667,69.2612 324.833,69.2816 325,69.3031 325.167,69.3256 325.333,69.3493 325.5,69.3741 325.667,69.4001 325.833,69.4275 326,69.4561 326.167,69.4862 326.333,69.5177 326.5,69.5507 326.667,69.5853 326.833,69.6215 327,69.6595 327.167,69.6992 327.333,69.7407 327.5,69.7842 327.667,69.8296 327.833,69.8772 328,69.9268 328.167,69.9787 328.333,70.0329 328.5,70.0895 328.667,70.1486 328.833,70.2103 329,70.2746 329.167,70.3416 329.333,70.4115 329.5,70.4844 329.667,70.5603 329.833,70.6393 330,70.7216 330.167,70.8073 330.333,70.8963 330.5,70.989 330.667,71.0853 330.833,71.1854 331,71.2894 331.167,71.3974 331.333,71.5096 331.5,71.6259 331.667,71.7466 331.833,71.8718 332,72.0015 332.167,72.136 332.333,72.2752 332.5,72.4194 332.667,72.5687 332.833,72.7231 333,72.8828 333.167,73.0479 333.333,73.2185 333.5,73.3947 333.667,73.5767 333.833,73.7645 334,73.9583 334.167,74.1581 334.333,74.3642 334.5,74.5765 334.667,74.7951 334.833,75.0202 335,75.2519 335.167,75.4903 335.333,75.7353 335.5,75.9872 335.667,76.246 335.833,76.5117 336,76.7844 336.167,77.0642 336.333,77.3512 336.5,77.6453 336.667,77.9466 336.833,78.2552 337,78.571 337.167,78.8942 337.333,79.2246 337.5,79.5623 337.667,79.9074 337.833,80.2597 338,80.6192 338.167,80.986 338.333,81.3599 338.5,81.7409 338.667,82.129 338.833,82.524 339,82.926 339.167,83.3347 339.333,83.7501 339.5,84.172 339.667,84.6004 339.833,85.035 340,85.4757 340.167,85.9224 340.333,86.3748 340.5,86.8329 340.667,87.2962 340.833,87.7648 341,88.2382 341.167,88.7163 341.333,89.1988 341.5,89.6855 341.667,90.176 341.833,90.6701 342,91.1675 342.167,91.6678 342.333,92.1708 342.5,92.6761 342.667,93.1832 342.833,93.692 343,94.202 343.167,94.7128 343.333,95.224 343.5,95.7353 343.667,96.2462 343.833,96.7563 344,97.2652 344.167,97.7725 344.333,98.2777 344.5,98.7804 344.667,99.2801 344.833,99.7764 345,100.269 345.167,100.757 345.333,101.24 345.5,101.718 345.667,102.191 345.833,102.657 346,103.116 346.167,103.568 346.333,104.013 346.5,104.45 346.667,104.878 346.833,105.297 347,105.707 347.167,106.107 347.333,106.496 347.5,106.875 347.667,107.243 347.833,107.599 348,107.943 348.167,108.275 348.333,108.594 348.5,108.9 348.667,109.193 348.833,109.472 349,109.737 349.167,109.987 349.333,110.222 349.5,110.443 349.667,110.648 349.833,110.838 350,111.012 350.167,111.171 350.333,111.313 350.5,111.438 350.667,111.548 350.833,111.64 351,111.716 351.167,111.776 351.333,111.818 351.5,111.843 351.667,111.852 351.833,111.843 352,111.818 352.167,111.776 352.333,111.716 352.5,111.64 352.667,111.548 352.833,111.438 353,111.313 353.167,111.171 353.333,111.012 353.5,110.838 353.667,110.648 353.833,110.443 354,110.222 354.167,109.987 354.333,109.737 354.5,109.472 354.667,109.193 354.833,108.9 355,108.594 355.167,108.275 355.333,107.943 355.5,107.599 355.667,107.243 355.833,106.875 356,106.496 356.167,106.107 356.333,105.707 356.5,105.297 356.667,104.878 356.833,104.45 357,104.013 357.167,103.568 357.333,103.116 357.5,102.657 357.667,102.191 357.833,101.718 358,101.24 358.167,100.757 358.333,100.269 358.5,99.7764 358.667,99.2801 358.833,98.7804 359,98.2777 359.167,97.7725 359.333,97.2652 359.5,96.7563 359.667,96.2462 359.833,95.7353 360,95.224 360.167,94.7128 360.333,94.202 360.5,93.692 360.667,93.1832 360.833,92.6761 361,92.1708 361.167,91.6678 361.333,91.1675 361.5,90.6701 361.667,90.176 361.833,89.6855 362,89.1988 362.167,88.7163 362.333,88.2382 362.5,87.7648 362.667,87.2962 362.833,86.8329 363,86.3748 363.167,85.9224 363.333,85.4757 363.5,85.035 363.667,84.6004 363.833,84.172 364,83.7501 364.167,83.3347 364.333,82.926 364.5,82.524 364.667,82.129 364.833,81.7409 365,81.3599 365.167,80.986 365.333,80.6192 365.5,80.2597 365.667,79.9074 365.833,79.5623 366,79.2246 366.167,78.8942 366.333,78.571 366.5,78.2552 366.667,77.9466 366.833,77.6453 367,77.3512 367.167,77.0642 367.333,76.7844 367.5,76.5117 367.667,76.246 367.833,75.9872 368,75.7353 368.167,75.4903 368.333,75.2519 368.5,75.0202 368.667,74.7951 368.833,74.5765 369,74.3642 369.167,74.1581 369.333,73.9583 369.5,73.7645 369.667,73.5767 369.833,73.3947 370,73.2185 370.167,73.0479 370.333,72.8828 370.5,72.7231 370.667,72.5687 370.833,72.4194 371,72.2752 371.167,72.136 371.333,72.0015 371.5,71.8718 371.667,71.7466 371.833,71.6259 372,71.5096 372.167,71.3974 372.333,71.2894 372.5,71.1854 372.667,71.0853 372.833,70.989 373,70.8963 373.167,70.8073 373.333,70.7216 373.5,70.6393 373.667,70.5603 373.833,70.4844 374,70.4115 374.167,70.3416 374.333,70.2746 374.5,70.2103 374.667,70.1486 374.833,70.0895 375,70.0329 375.167,69.9787 375.333,69.9268 375.5,69.8772 375.667,69.8296 375.833,69.7842 376,69.7407 376.167,69.6992 376.333,69.6595 376.5,69.6215 376.667,69.5853 376.833,69.5507 377,69.5177 377.167,69.4862 377.333,69.4561 377.5,69.4275 377.667,69.4001 377.833,69.3741 378,69.3493 378.167,69.3256 378.333,69.3031 378.5,69.2816 378.667,69.2612 378.833,69.2418 379,69.2233 379.167,69.2057 379.333,69.189 379.5,69.1731 379.667,69.1581 379.833,69.1437 380,69.1301 380.167,69.1171 380.333,69.1048 380.5,69.0932 380.667,69.0821 380.833,69.0716 381,69.0616 381.167,69.0522 381.333,69.0432 381.5,69.0347 381.667,69.0267 381.833,69.019 382,69.0118 382.167,69.005 382.333,68.9985 382.5,68.9924 382.667,68.9865 382.833,68.981 383,68.9758 383.167,68.9709 383.333,68.9663 383.5,68.9619 383.667,68.9577 383.833,68.9538 384,68.9501 384.167,68.9465 384.333,68.9432 384.5,68.9401 384.667,68.9371 384.833,68.9343 385,68.9317 385.167,68.9292 385.333,68.9268 385.5,68.9246 385.667,68.9225 385.833,68.9205 386,68.9187 386.167,68.9169 386.333,68.9152 386.5,68.9137 386.667,68.9122 386.833,68.9108 387,68.9095 387.167,68.9082 387.333,68.9071 387.5,68.9059 387.667,68.9049 387.833,68.9039 388,68.903 388.167,68.9021 388.333,68.9013 388.5,68.9005 388.667,68.8998 388.833,68.8991 389,68.8984 389.167,68.8978 389.333,68.8972 389.5,68.8967 389.667,68.8961 389.833,68.8956 390,68.8952 390.167,68.8947 390.333,68.8943 390.5,68.8939 390.667,68.8935 390.833,68.8931 391,68.8928 391.167,68.8924 391.333,68.8921 391.5,68.8918 391.667,68.8915 391.833,68.8912 392,68.8909 392.167,68.8907 392.333,68.8904 392.5,68.8901 392.667,68.8899 392.833,68.8896 393,68.8894 393.167,68.8891 393.333,68.8889 393.5,68.8886 393.667,68.8884 393.833,68.8882 394,68.8879 394.167,68.8876 394.333,68.8874 394.5,68.8871 394.667,68.8868 394.833,68.8866 395,68.8863 395.167,68.886 395.333,68.8857 395.5,68.8853 395.667,68.885 395.833,68.8847 396,68.8843 396.167,68.8839 396.333,68.8835 396.5,68.8831 396.667,68.8826 396.833,68.8821 397,68.8816 397.167,68.8811 397.333,68.8806 397.5,68.88 397.667,68.8793 397.833,68.8787 398,68.878 398.167,68.8773 398.333,68.8765 398.5,68.8757 398.667,68.8748 398.833,68.8739 399,68.8729 399.167,68.8718 399.333,68.8707 399.5,68.8696 399.667,68.8683 399.833,68.867 400,68.8656 400.167,68.8641 400.333,68.8625 400.5,68.8609 400.667,68.8591 400.833,68.8573 401,68.8553 401.167,68.8532 401.333,68.851 401.5,68.8486 401.667,68.8461 401.833,68.8435 402,68.8407 402.167,68.8377 402.333,68.8346 402.5,68.8312 402.667,68.8277 402.833,68.824 403,68.8201 403.167,68.8159 403.333,68.8115 403.5,68.8069 403.667,68.8019 403.833,68.7967 404,68.7912 404.167,68.7854 404.333,68.7793 404.5,68.7728 404.667,68.766 404.833,68.7587 405,68.7511 405.167,68.7431 405.333,68.7346 405.5,68.7256 405.667,68.7161 405.833,68.7062 406,68.6957 406.167,68.6846 406.333,68.6729 406.5,68.6606 406.667,68.6477 406.833,68.6341 407,68.6197 407.167,68.6046 407.333,68.5887 407.5,68.572 407.667,68.5545 407.833,68.536 408,68.5165 408.167,68.4961 408.333,68.4747 408.5,68.4522 408.667,68.4285 408.833,68.4037 409,68.3776 409.167,68.3503 409.333,68.3217 409.5,68.2916 409.667,68.2601 409.833,68.2271 410,68.1925 410.167,68.1562 410.333,68.1183 410.5,68.0786 410.667,68.0371 410.833,67.9936 411,67.9481 411.167,67.9006 411.333,67.8509 411.5,67.799 411.667,67.7448 411.833,67.6882 412,67.6292 412.167,67.5675 412.333,67.5032 412.5,67.4361 412.667,67.3662 412.833,67.2934 413,67.2175 413.167,67.1384 413.333,67.0562 413.5,66.9705 413.667,66.8814 413.833,66.7888 414,66.6925 414.167,66.5923 414.333,66.4883 414.5,66.3803 414.667,66.2682 414.833,66.1519 415,66.0312 415.167,65.906 415.333,65.7763 415.5,65.6418 415.667,65.5025 415.833,65.3584 416,65.2091 416.167,65.0547 416.333,64.895 416.5,64.7299 416.667,64.5593 416.833,64.3831 417,64.2011 417.167,64.0133 417.333,63.8195 417.5,63.6196 417.667,63.4136 417.833,63.2013 418,62.9827 418.167,62.7575 418.333,62.5258 418.5,62.2875 418.667,62.0424 418.833,61.7906 419,61.5318 419.167,61.2661 419.333,60.9934 419.5,60.7135 419.667,60.4266 419.833,60.1325 420,59.8312 420.167,59.5226 420.333,59.2067 420.5,58.8836 420.667,58.5532 420.833,58.2154 421,57.8704 421.167,57.5181 421.333,57.1586 421.5,56.7918 421.667,56.4179 421.833,56.0369 422,55.6488 422.167,55.2537 422.333,54.8518 422.5,54.4431 422.667,54.0277 422.833,53.6058 423,53.1774 423.167,52.7428 423.333,52.3021 423.5,51.8554 423.667,51.4029 423.833,50.9449 424,50.4815 424.167,50.013 424.333,49.5396 424.5,49.0615 424.667,48.5789 424.833,48.0923 425,47.6017 425.167,47.1076 425.333,46.6103 425.5,46.1099 425.667,45.607 425.833,45.1017 426,44.5945 426.167,44.0858 426.333,43.5758 426.5,43.065 426.667,42.5538 426.833,42.0425 427,41.5316 427.167,41.0215 427.333,40.5125 427.5,40.0052 427.667,39.5 427.833,38.9974 428,38.4976 428.167,38.0013 428.333,37.5089 428.5,37.0208 428.667,36.5375 428.833,36.0595 429,35.5872 429.167,35.1211 429.333,34.6617 429.5,34.2094 429.667,33.7647 429.833,33.3281 430,32.9 430.167,32.4808 430.333,32.0711 430.5,31.6712 430.667,31.2816 430.833,30.9027 431,30.535 431.167,30.1788 431.333,29.8346 431.5,29.5027 431.667,29.1836 431.833,28.8775 432,28.5849 432.167,28.306 432.333,28.0413 432.5,27.791 432.667,27.5553 432.833,27.3347 433,27.1294 433.167,26.9395 433.333,26.7654 433.5,26.6072 433.667,26.4651 433.833,26.3394 434,26.2301 434.167,26.1374 434.333,26.0614 434.5,26.0022 434.667,25.9598 434.833,25.9344 435,25.9259 435.167,25.9344 435.333,25.9598 435.5,26.0022 435.667,26.0614 435.833,26.1374 436,26.2301 436.167,26.3394 436.333,26.4651 436.5,26.6072 436.667,26.7654 436.833,26.9395 437,27.1294 437.167,27.3347 437.333,27.5553 437.5,27.791 437.667,28.0413 437.833,28.306 438,28.5849 438.167,28.8775 438.333,29.1836 438.5,29.5027 438.667,29.8346 438.833,30.1788 439,30.535 439.167,30.9027 439.333,31.2816 439.5,31.6712 439.667,32.0711 439.833,32.4808 440,32.9 440.167,33.3281 440.333,33.7647 440.5,34.2094 440.667,34.6617 440.833,35.1211 441,35.5872 441.167,36.0595 441.333,36.5375 441.5,37.0208 441.667,37.5089 441.833,38.0013 442,38.4976 442.167,38.9974 442.333,39.5 442.5,40.0052 442.667,40.5125 442.833,41.0215 443,41.5316 443.167,42.0425 443.333,42.5538 443.5,43.065 443.667,43.5758 443.833,44.0858 444,44.5945 444.167,45.1017 444.333,45.607 444.5,46.1099 444.667,46.6103 444.833,47.1076 445,47.6017 445.167,48.0923 445.333,48.5789 445.5,49.0615 445.667,49.5396 445.833,50.013 446,50.4815 446.167,50.9449 446.333,51.4029 446.5,51.8554 446.667,52.3021 446.833,52.7428 447,53.1774 447.167,53.6058 447.333,54.0277 447.5,54.4431 447.667,54.8518 447.833,55.2537 448,55.6488 448.167,56.0369 448.333,56.4179 448.5,56.7918 448.667,57.1586 448.833,57.5181 449,57.8704 449.167,58.2154 449.333,58.5532 449.5,58.8836 449.667,59.2067 449.833,59.5226 450,59.8312 450.167,60.1325 450.333,60.4266 450.5,60.7135 450.667,60.9934 450.833,61.2661 451,61.5318 451.167,61.7906 451.333,62.0424 451.5,62.2875 451.667,62.5258 451.833,62.7575 452,62.9827 452.167,63.2013 452.333,63.4136 452.5,63.6196 452.667,63.8195 452.833,64.0133 453,64.2011 453.167,64.3831 453.333,64.5593 453.5,64.7299 453.667,64.895 453.833,65.0547 454,65.2091 454.167,65.3584 454.333,65.5025 454.5,65.6418 454.667,65.7763 454.833,65.906 455,66.0312 455.167,66.1519 455.333,66.2682 455.5,66.3803 455.667,66.4883 455.833,66.5923 456,66.6925 456.167,66.7888 456.333,66.8814 456.5,66.9705 456.667,67.0562 456.833,67.1384 457,67.2175 457.167,67.2934 457.333,67.3662 457.5,67.4361 457.667,67.5032 457.833,67.5675 458,67.6292 458.167,67.6882 458.333,67.7448 458.5,67.799 458.667,67.8509 458.833,67.9006 459,67.9481 459.167,67.9936 459.333,68.0371 459.5,68.0786 459.667,68.1183 459.833,68.1562 460,68.1925 460.167,68.2271 460.333,68.2601 460.5,68.2916 460.667,68.3217 460.833,68.3503 461,68.3776 461.167,68.4037 461.333,68.4285 461.5,68.4522 461.667,68.4747 461.833,68.4961 462,68.5165 462.167,68.536 462.333,68.5545 462.5,68.572 462.667,68.5887 462.833,68.6046 463,68.6197 463.167,68.6341 463.333,68.6477 463.5,68.6606 463.667,68.6729 463.833,68.6846 464,68.6957 464.167,68.7062 464.333,68.7161 464.5,68.7256 464.667,68.7346 464.833,68.7431 465,68.7511 465.167,68.7587 465.333,68.766 465.5,68.7728 465.667,68.7793 465.833,68.7854 466,68.7912 466.167,68.7967 466.333,68.8019 466.5,68.8069 466.667,68.8115 466.833,68.8159 467,68.8201 467.167,68.824 467.333,68.8277 467.5,68.8312 467.667,68.8346 467.833,68.8377 468,68.8407 468.167,68.8435 468.333,68.8461 468.5,68.8486 468.667,68.851 468.833,68.8532 469,68.8553 469.167,68.8573 469.333,68.8591 469.5,68.8609 469.667,68.8625 469.833,68.8641 470,68.8656 470.167,68.867 470.333,68.8683 470.5,68.8696 470.667,68.8707 470.833,68.8718 471,68.8729 471.167,68.8739 471.333,68.8748 471.5,68.8757 471.667,68.8765 471.833,68.8773 472,68.878 472.167,68.8787 472.333,68.8793 472.5,68.88 472.667,68.8806 472.833,68.8811 473,68.8816 473.167,68.8821 473.333,68.8826 473.5,68.8831 473.667,68.8835 473.833,68.8839 474,68.8843 474.167,68.8847 474.333,68.885 474.5,68.8853 474.667,68.8857 474.833,68.886 475,68.8863 475.167,68.8866 475.333,68.8868 475.5,68.8871 475.667,68.8874 475.833,68.8876 476,68.8879 476.167,68.8882 476.333,68.8884 476.5,68.8886 476.667,68.8889 476.833,68.8891 477,68.8894 477.167,68.8896 477.333,68.8899 477.5,68.8901 477.667,68.8904 477.833,68.8907 478,68.8909 478.167,68.8912 478.333,68.8915 478.5,68.8918 478.667,68.8921 478.833,68.8924 479,68.8928 479.167,68.8931 479.333,68.8935 479.5,68.8939 479.667,68.8943 479.833,68.8947 480,68.8952 480.167,68.8956 480.333,68.8961 480.5,68.8967 480.667,68.8972 480.833,68.8978 481,68.8984 481.167,68.8991 481.333,68.8998 481.5,68.9005 481.667,68.9013 481.833,68.9021 482,68.903 482.167,68.9039 482.333,68.9049 482.5,68.9059 482.667,68.9071 482.833,68.9082 483,68.9095 483.167,68.9108 483.333,68.9122 483.5,68.9137 483.667,68.9152 483.833,68.9169 484,68.9187 484.167,68.9205 484.333,68.9225 484.5,68.9246 484.667,68.9268 484.833,68.9292 485,68.9317 485.167,68.9343 485.333,68.9371 485.5,68.9401 485.667,68.9432 485.833,68.9465 486,68.9501 486.167,68.9538 486.333,68.9577 486.5,68.9619 486.667,68.9663 486.833,68.9709 487,68.9758 487.167,68.981 487.333,68.9865 487.5,68.9924 487.667,68.9985 487.833,69.005 488,69.0118 488.167,69.019 488.333,69.0267 488.5,69.0347 488.667,69.0432 488.833,69.0522 489,69.0616 489.167,69.0716 489.333,69.0821 489.5,69.0932 489.667,69.1048 489.833,69.1171 490,69.1301 490.167,69.1437 490.333,69.1581 490.5,69.1731 490.667,69.189 490.833,69.2057 491,69.2233 491.167,69.2418 491.333,69.2612 491.5,69.2816 491.667,69.3031 491.833,69.3256 492,69.3493 492.167,69.3741 492.333,69.4001 492.5,69.4275 492.667,69.4561 492.833,69.4862 493,69.5177 493.167,69.5507 493.333,69.5853 493.5,69.6215 493.667,69.6595 493.833,69.6992 494,69.7407 494.167,69.7842 494.333,69.8296 494.5,69.8772 494.667,69.9268 494.833,69.9787 495,70.0329 495.167,70.0895 495.333,70.1486 495.5,70.2103 495.667,70.2746 495.833,70.3416 496,70.4115 496.167,70.4844 496.333,70.5603 496.5,70.6393 496.667,70.7216 496.833,70.8073 497,70.8963 497.167,70.989 497.333,71.0853 497.5,71.1854 497.667,71.2894 497.833,71.3974 498,71.5096 498.167,71.6259 498.333,71.7466 498.5,71.8718 498.667,72.0015 498.833,72.136 499,72.2752 499.167,72.4194 499.333,72.5687 499.5,72.7231 499.667,72.8828 499.833,73.0479 500,73.2185 500.167,73.3947 500.333,73.5767 500.5,73.7645 500.667,73.9583 500.833,74.1581 501,74.3642 501.167,74.5765 501.333,74.7951 501.5,75.0202 501.667,75.2519 501.833,75.4903 502,75.7353 502.167,75.9872 502.333,76.246 502.5,76.5117 502.667,76.7844 502.833,77.0642 503,77.3512 503.167,77.6453 503.333,77.9466 503.5,78.2552 503.667,78.571 503.833,78.8942 504,79.2246 504.167,79.5623 504.333,79.9074 504.5,80.2597 504.667,80.6192 504.833,80.986 505,81.3599 505.167,81.7409 505.333,82.129 505.5,82.524 505.667,82.926 505.833,83.3347 506,83.7501 506.167,84.172 506.333,84.6004 506.5,85.035 506.667,85.4757 506.833,85.9224 507,86.3748 507.167,86.8329 507.333,87.2962 507.5,87.7648 507.667,88.2382 507.833,88.7163 508,89.1988 508.167,89.6855 508.333,90.176 508.5,90.6701 508.667,91.1675 508.833,91.6678 509,92.1708 509.167,92.6761 509.333,93.1832 509.5,93.692 509.667,94.202 509.833,94.7128 510,95.224 510.167,95.7353 510.333,96.2462 510.5,96.7563 510.667,97.2652 510.833,97.7725 511,98.2777 511.167,98.7804 511.333,99.2801 511.5,99.7764 511.667,100.269 511.833,100.757 512,101.24 512.167,101.718 512.333,102.191 512.5,102.657 512.667,103.116 512.833,103.568 513,104.013 513.167,104.45 513.333,104.878 513.5,105.297 513.667,105.707 513.833,106.107 514,106.496 514.167,106.875 514.333,107.243 514.5,107.599 514.667,107.943 514.833,108.275 515,108.594 515.167,108.9 515.333,109.193 515.5,109.472 515.667,109.737 515.833,109.987 516,110.222 516.167,110.443 516.333,110.648 516.5,110.838 516.667,111.012 516.833,111.171 517,111.313 517.167,111.438 517.333,111.548 517.5,111.64 517.667,111.716 517.833,111.776 518,111.818 518.167,111.843 518.333,111.852 518.5,111.843 518.667,111.818 518.833,111.776 519,111.716 519.167,111.64 519.333,111.548 519.5,111.438 519.667,111.313 519.833,111.171 520,111.012 520.167,110.838 520.333,110.648 520.5,110.443 520.667,110.222 520.833,109.987 521,109.737 521.167,109.472 521.333,109.193 521.5,108.9 521.667,108.594 521.833,108.275 522,107.943 522.167,107.599 522.333,107.243 522.5,106.875 522.667,106.496 522.833,106.107 523,105.707 523.167,105.297 523.333,104.878 523.5,104.45 523.667,104.013 523.833,103.568 524,103.116 524.167,102.657 524.333,102.191 524.5,101.718 524.667,101.24 524.833,100.757 525,100.269 525.167,99.7764 525.333,99.2801 525.5,98.7804 525.667,98.2777 525.833,97.7725 526,97.2652 526.167,96.7563 526.333,96.2462 526.5,95.7353 526.667,95.224 526.833,94.7128 527,94.202 527.167,93.692 527.333,93.1832 527.5,92.6761 527.667,92.1708 527.833,91.6678 528,91.1675 528.167,90.6701 528.333,90.176 528.5,89.6855 528.667,89.1988 528.833,88.7163 529,88.2382 529.167,87.7648 529.333,87.2962 529.5,86.8329 529.667,86.3748 529.833,85.9224 530,85.4757 530.167,85.035 530.333,84.6004 530.5,84.172 530.667,83.7501 530.833,83.3347 531,82.926 531.167,82.524 531.333,82.129 531.5,81.7409 531.667,81.3599 531.833,80.986 532,80.6192 532.167,80.2597 532.333,79.9074 532.5,79.5623 532.667,79.2246 532.833,78.8942 533,78.571 533.167,78.2552 533.333,77.9466 533.5,77.6453 533.667,77.3512 533.833,77.0642 534,76.7844 534.167,76.5117 534.333,76.246 534.5,75.9872 534.667,75.7353 534.833,75.4903 535,75.2519 535.167,75.0202 535.333,74.7951 535.5,74.5765 535.667,74.3642 535.833,74.1581 536,73.9583 536.167,73.7645 536.333,73.5767 536.5,73.3947 536.667,73.2185 536.833,73.0479 537,72.8828 537.167,72.7231 537.333,72.5687 537.5,72.4194 537.667,72.2752 537.833,72.136 538,72.0015 538.167,71.8718 538.333,71.7466 538.5,71.6259 538.667,71.5096 538.833,71.3974 539,71.2894 539.167,71.1854 539.333,71.0853 539.5,70.989 539.667,70.8963 539.833,70.8073 540,70.7216 540.167,70.6393 540.333,70.5603 540.5,70.4844 540.667,70.4115 540.833,70.3416 541,70.2746 541.167,70.2103 541.333,70.1486 541.5,70.0895 541.667,70.0329 541.833,69.9787 542,69.9268 542.167,69.8772 542.333,69.8296 542.5,69.7842 542.667,69.7407 542.833,69.6992 543,69.6595 543.167,69.6215 543.333,69.5853 543.5,69.5507 543.667,69.5177 543.833,69.4862 544,69.4561 544.167,69.4275 544.333,69.4001 544.5,69.3741 544.667,69.3493 544.833,69.3256 545,69.3031 545.167,69.2816 545.333,69.2612 545.5,69.2418 545.667,69.2233 545.833,69.2057 546,69.189 546.167,69.1731 546.333,69.1581 546.5,69.1437 546.667,69.1301 546.833,69.1171 547,69.1048 547.167,69.0932 547.333,69.0821 547.5,69.0716 547.667,69.0616 547.833,69.0522 548,69.0432 548.167,69.0347 548.333,69.0267 548.5,69.019 548.667,69.0118 548.833,69.005 549,68.9985 549.167,68.9924 549.333,68.9865 549.5,68.981 549.667,68.9758 549.833,68.9709 550,68.9663 550.167,68.9619 550.333,68.9577 550.5,68.9538 550.667,68.9501 550.833,68.9465 551,68.9432 551.167,68.9401 551.333,68.9371 551.5,68.9343 551.667,68.9317 551.833,68.9292 552,68.9268 552.167,68.9246 552.333,68.9225 552.5,68.9205 552.667,68.9187 552.833,68.9169 553,68.9152 553.167,68.9137 553.333,68.9122 553.5,68.9108 553.667,68.9095 553.833,68.9082 554,68.9071 554.167,68.9059 554.333,68.9049 554.5,68.9039 554.667,68.903 554.833,68.9021 555,68.9013 555.167,68.9005 555.333,68.8998 555.5,68.8991 555.667,68.8984 555.833,68.8978 556,68.8972 556.167,68.8967 556.333,68.8961 556.5,68.8956 556.667,68.8952 556.833,68.8947 557,68.8943 557.167,68.8939 557.333,68.8935 557.5,68.8931 557.667,68.8928 557.833,68.8924 558,68.8921 558.167,68.8918 558.333,68.8915 558.5,68.8912 558.667,68.8909 558.833,68.8907 559,68.8904 559.167,68.8901 559.333,68.8899 559.5,68.8896 559.667,68.8894 559.833,68.8891 560,68.8889"/>
<polyline fill="none" stroke="#000000" stroke-width="0.5" stroke-linecap="butt" stroke-linejoin="miter" points="60,68.8889 560,68.8889"/>
<polyline fill="none" stroke="#000000" stroke-width="0.5" stroke-linecap="butt" stroke-linejoin="miter" stroke-dasharray="4,4,4,4" points="60,111.852 560,111.852"/>
<polyline fill="none" stroke="#000000" stroke-width="0.5" stroke-linecap="butt" stroke-linejoin="miter" stroke-dasharray="4,4,4,4" points="60,25.9259 560,25.9259"/>
<polyline fill="none" stroke="#000000" stroke-width="0.5" stroke-linecap="butt" stroke-linejoin="miter" stroke-dasharray="4,4,4,4" points="60,50.6865 560,50.6865"/>
</g>
<clipPath id="cp00600160">
  <polygon points="0,160 600,160 600,0 0,0"/>
</clipPath>
<g clip-path="url(#cp00600160)">
<polygon fill="#000000" shape-rendering="crispEdges" points="310,107.266 310,111.852 306.472,104.796"/>
<polygon fill="#000000" shape-rendering="crispEdges" points="310,111.852 310,107.266 313.528,104.796"/>
<polygon fill="#000000" shape-rendering="crispEdges" points="310,25.9259 310,30.512 306.472,32.9815"/>
<polygon fill="#000000" shape-rendering="crispEdges" points="310,30.512 310,25.9259 313.528,32.9815"/>
<polygon fill="#000000" shape-rendering="crispEdges" points="393.333,64.3028 393.333,68.8889 389.806,61.8333"/>
<polygon fill="#000000" shape-rendering="crispEdges" points="393.333,68.8889 393.333,64.3028 396.861,61.8333"/>
<polygon fill="#000000" shape-rendering="crispEdges" points="393.333,25.9259 393.333,30.512 389.806,32.9815"/>
<polygon fill="#000000" shape-rendering="crispEdges" points="393.333,30.512 393.333,25.9259 396.861,32.9815"/>
<polygon fill="#000000" shape-rendering="crispEdges" points="476.667,64.3028 476.667,68.8889 473.139,61.8333"/>
<polygon fill="#000000" shape-rendering="crispEdges" points="476.667,68.8889 476.667,64.3028 480.194,61.8333"/>
<polygon fill="#000000" shape-rendering="crispEdges" points="476.667,50.6865 476.667,55.2727 473.139,57.7421"/>
<polygon fill="#000000" shape-rendering="crispEdges" points="476.667,55.2727 476.667,50.6865 480.194,57.7421"/>
<polyline fill="none" stroke="#000000" stroke-width="0.5" stroke-linecap="butt" stroke-linejoin="miter" points="310,111.852 310,25.9259"/>
<polyline fill="none" stroke="#000000" stroke-width="0.5" stroke-linecap="butt" stroke-linejoin="miter" points="313.528,104.796 310,111.852 306.472,104.796 310,107.266 313.528,104.796"/>
<polyline fill="none" stroke="#000000" stroke-width="0.5" stroke-linecap="butt" stroke-linejoin="miter" points="313.528,32.9815 310,30.512 306.472,32.9815 310,25.9259 313.528,32.9815"/>
<text fill="#000000" x="302.25" y="58.1481" font-size="10" text-anchor="end" dy="5" font-family="Open Sans">Peak-to-peak</text>
<polyline fill="none" stroke="#000000" stroke-width="0.5" stroke-linecap="butt" stroke-linejoin="miter" points="393.333,68.8889 393.333,25.9259"/>
<polyline fill="none" stroke="#000000" stroke-width="0.5" stroke-linecap="butt" stroke-linejoin="miter" points="396.861,61.8333 393.333,68.8889 389.806,61.8333 393.333,64.3028 396.861,61.8333"/>
<polyline fill="none" stroke="#000000" stroke-width="0.5" stroke-linecap="butt" stroke-linejoin="miter" points="396.861,32.9815 393.333,30.512 389.806,32.9815 393.333,25.9259 396.861,32.9815"/>
<text fill="#000000" x="383.5" y="58.1481" font-size="10" text-anchor="end" dy="5" font-family="Open Sans">Peak</text>
<polyline fill="none" stroke="#000000" stroke-width="0.5" stroke-linecap="butt" stroke-linejoin="miter" points="476.667,68.8889 476.667,50.6865"/>
<polyline fill="none" stroke="#000000" stroke-width="0.5" stroke-linecap="butt" stroke-linejoin="miter" points="480.194,61.8333 476.667,68.8889 473.139,61.8333 476.667,64.3028 480.194,61.8333"/>
<polyline fill="none" stroke="#000000" stroke-width="0.5" stroke-linecap="butt" stroke-linejoin="miter" points="480.194,57.7421 476.667,55.2727 473.139,57.7421 476.667,50.6865 480.194,57.7421"/>
<text fill="#000000" x="464.75" y="58.1481" font-size="10" text-anchor="end" dy="5" font-family="Open Sans">RMS</text>
</g>
</g>
</svg>
