<?xml version="1.0" encoding="utf-8" standalone="no"?>
<?xml-stylesheet type="text/css" href="https://fonts.googleapis.com/css?family=Open+Sans:300italic,400italic,600italic,700italic,400,600,700,300&amp;subset=latin,cyrillic-ext,latin-ext,cyrillic" ?>
<!DOCTYPE svg PUBLIC "-//W3C//DTD SVG 1.1//EN"
  "http://www.w3.org/Graphics/SVG/1.1/DTD/svg11.dtd">
<!-- Created with matplotlib (http://matplotlib.org/) -->
<svg height="216pt" version="1.1" viewBox="0 0 460.8 216" width="460.8pt" xmlns="http://www.w3.org/2000/svg" xmlns:xlink="http://www.w3.org/1999/xlink">
 <defs>
  <style type="text/css">
*{stroke-linecap:butt;stroke-linejoin:round;}
  </style>
 </defs>
 <g id="figure_1">
  <g id="patch_1">
   <path d="M 0 216 
L 460.8 216 
L 460.8 0 
L 0 0 
z
" style="fill:#fefefe;"/>
  </g>
  <g id="axes_1">
   <g id="patch_2">
    <path clip-path="url(#p760c132079)" d="M 133.68706 107.908799 
C 135.413524 107.908799 137.069509 107.222867 138.290304 106.002073 
C 139.511099 104.781278 140.19703 103.125293 140.19703 101.398828 
C 140.19703 99.672364 139.511099 98.016378 138.290304 96.795584 
C 137.069509 95.574789 135.413524 94.888857 133.68706 94.888857 
C 131.960595 94.888857 130.30461 95.574789 129.083815 96.795584 
C 127.863021 98.016378 127.177089 99.672364 127.177089 101.398828 
C 127.177089 103.125293 127.863021 104.781278 129.083815 106.002073 
C 130.30461 107.222867 131.960595 107.908799 133.68706 107.908799 
z
" style="fill:none;stroke:#008000;stroke-linejoin:miter;"/>
   </g>
   <g id="patch_3">
    <path clip-path="url(#p760c132079)" d="M 133.68706 144.798633 
C 145.196822 144.798633 156.236725 140.225756 164.375356 132.087124 
C 172.513987 123.948493 177.086864 112.908591 177.086864 101.398828 
C 177.086864 89.889065 172.513987 78.849163 164.375356 70.710532 
C 156.236725 62.571901 145.196822 57.999023 133.68706 57.999023 
C 122.177297 57.999023 111.137395 62.571901 102.998763 70.710532 
C 94.860132 78.849163 90.287255 89.889065 90.287255 101.398828 
C 90.287255 112.908591 94.860132 123.948493 102.998763 132.087124 
C 111.137395 140.225756 122.177297 144.798633 133.68706 144.798633 
z
" style="fill:none;stroke:#ff0000;stroke-linejoin:miter;"/>
   </g>
   <g id="patch_4">
    <path clip-path="url(#p760c132079)" d="M 172.746884 105.738809 
L 181.426845 105.738809 
L 181.426845 97.058848 
L 172.746884 97.058848 
L 172.746884 105.738809 
z
" style="fill:none;stroke:#000000;stroke-dasharray:3.7,1.6;stroke-dashoffset:0;stroke-linejoin:miter;"/>
   </g>
   <g id="line2d_1">
    <defs>
     <path d="M 0 3 
C 0.795609 3 1.55874 2.683901 2.12132 2.12132 
C 2.683901 1.55874 3 0.795609 3 0 
C 3 -0.795609 2.683901 -1.55874 2.12132 -2.12132 
C 1.55874 -2.683901 0.795609 -3 0 -3 
C -0.795609 -3 -1.55874 -2.683901 -2.12132 -2.12132 
C -2.683901 -1.55874 -3 -0.795609 -3 0 
C -3 0.795609 -2.683901 1.55874 -2.12132 2.12132 
C -1.55874 2.683901 -0.795609 3 0 3 
z
" id="m5e909bea16" style="stroke:#1f77b4;"/>
    </defs>
    <g clip-path="url(#p760c132079)">
     <use style="fill:#008000;stroke:#1f77b4;" x="133.68706" xlink:href="#m5e909bea16" y="101.398828"/>
    </g>
   </g>
  </g>
  <g id="axes_2">
   <g id="patch_5">
    <path d="M 256.83657 188.198437 
L 430.435788 188.198437 
L 430.435788 14.599219 
L 256.83657 14.599219 
z
" style="fill:#ffffff;"/>
   </g>
   <g id="patch_6">
    <path clip-path="url(#pb4b994559d)" d="M -524.359915 231.598242 
C -489.830627 231.598242 -456.71092 217.879611 -432.295026 193.463717 
C -407.879132 169.047823 -394.160501 135.928116 -394.160501 101.398828 
C -394.160501 66.86954 -407.879132 33.749833 -432.295026 9.33394 
C -456.71092 -15.081954 -489.830627 -28.800586 -524.359915 -28.800586 
C -558.889203 -28.800586 -592.00891 -15.081954 -616.424803 9.33394 
C -640.840697 33.749833 -654.559329 66.86954 -654.559329 101.398828 
C -654.559329 135.928116 -640.840697 169.047823 -616.424803 193.463717 
C -592.00891 217.879611 -558.889203 231.598242 -524.359915 231.598242 
z
" style="fill:none;stroke:#008000;stroke-linejoin:miter;"/>
   </g>
   <g id="patch_7">
    <path clip-path="url(#pb4b994559d)" d="M -524.359915 969.394922 
C -294.16466 969.394922 -73.366617 877.937378 89.406009 715.164752 
C 252.178635 552.392126 343.636179 331.594083 343.636179 101.398828 
C 343.636179 -128.796427 252.178635 -349.59447 89.406009 -512.367096 
C -73.366617 -675.139722 -294.16466 -766.597266 -524.359915 -766.597266 
C -754.55517 -766.597266 -975.353213 -675.139722 -1138.125839 -512.367096 
C -1300.898464 -349.59447 -1392.356009 -128.796427 -1392.356009 101.398828 
C -1392.356009 331.594083 -1300.898464 552.392126 -1138.125839 715.164752 
C -975.353213 877.937378 -754.55517 969.394922 -524.359915 969.394922 
z
" style="fill:none;stroke:#ff0000;stroke-linejoin:miter;"/>
   </g>
   <g id="patch_8">
    <path d="M 256.83657 14.599219 
L 172.746884 97.058848 
" style="fill:none;stroke:#000000;stroke-dasharray:3.7,1.6;stroke-dashoffset:0;stroke-linejoin:miter;"/>
   </g>
   <g id="patch_9">
    <path d="M 256.83657 188.198437 
L 172.746884 105.738809 
" style="fill:none;stroke:#000000;stroke-dasharray:3.7,1.6;stroke-dashoffset:0;stroke-linejoin:miter;"/>
   </g>
   <g id="matplotlib.axis_1"/>
   <g id="matplotlib.axis_2"/>
   <g id="LineCollection_1">
    <path clip-path="url(#pb4b994559d)" d="M 343.636179 217 
L 343.636179 -1 
" style="fill:none;stroke:#0000ff;stroke-dasharray:1.5,2.475;stroke-dashoffset:0;stroke-width:1.5;"/>
   </g>
   <g id="line2d_2">
    <g clip-path="url(#pb4b994559d)"/>
   </g>
   <g id="patch_10">
    <path d="M 256.83657 188.198437 
L 256.83657 14.599219 
" style="fill:none;stroke:#000000;stroke-linecap:square;stroke-linejoin:miter;stroke-width:0.8;"/>
   </g>
   <g id="patch_11">
    <path d="M 430.435788 188.198437 
L 430.435788 14.599219 
" style="fill:none;stroke:#000000;stroke-linecap:square;stroke-linejoin:miter;stroke-width:0.8;"/>
   </g>
   <g id="patch_12">
    <path d="M 256.83657 188.198437 
L 430.435788 188.198437 
" style="fill:none;stroke:#000000;stroke-linecap:square;stroke-linejoin:miter;stroke-width:0.8;"/>
   </g>
   <g id="patch_13">
    <path d="M 256.83657 14.599219 
L 430.435788 14.599219 
" style="fill:none;stroke:#000000;stroke-linecap:square;stroke-linejoin:miter;stroke-width:0.8;"/>
   </g>
   <g id="patch_14">
    <path d="M 350.148534 99.398828 
Q 370.187047 99.398828 390.22556 99.398828 
L 390.22556 95.398828 
Q 396.224877 98.398828 402.224194 101.398828 
Q 396.224877 104.398828 390.22556 107.398828 
L 390.22556 103.398828 
Q 370.187047 103.398828 350.148534 103.398828 
L 350.148534 99.398828 
z
"/>
   </g>
  </g>
 </g>
 <defs>
  <clipPath id="p760c132079">
   <rect height="173.599219" width="173.599219" x="46.88745" y="14.599219"/>
  </clipPath>
  <clipPath id="pb4b994559d">
   <rect height="173.599219" width="173.599219" x="256.83657" y="14.599219"/>
  </clipPath>
 </defs>
</svg>
