<?xml-stylesheet type="text/css" href="https://fonts.googleapis.com/css?family=Open+Sans:300italic,400italic,600italic,700italic,400,600,700,300&amp;subset=latin,cyrillic-ext,latin-ext,cyrillic" ?><svg xmlns="http://www.w3.org/2000/svg" xmlns:xlink="http://www.w3.org/1999/xlink" viewBox="0 0 631.634 115.067" color-interpolation-filters="sRGB" fill="none" fill-rule="evenodd" font-size="12" overflow="visible" stroke-linecap="square" stroke-miterlimit="3"><style>.st1{fill:#67b6eb;stroke:#fff;stroke-linecap:round;stroke-linejoin:round;stroke-opacity:.6;stroke-width:1}.st2{fill:#146194}.st3{fill:url(#grad0-16)}.st4,.st6{fill:#fff;font-family:Open Sans}.st4{font-stretch:semi-expanded;font-size:1.00001em}.st6{font-size:.666664em}.st7{fill:url(#grad0-59);stroke:#fff;stroke-opacity:.6;stroke-width:1}.st10,.st7,.st9{stroke-linecap:round;stroke-linejoin:round}.st9{stroke-opacity:.6;stroke:#fff;stroke-width:1}.st10{marker-end:url(#mrkr4-86);stroke:#105482;stroke-width:.5}.st12{fill:#06304d;font-family:Open Sans;font-size:.666664em}.st13{font-size:1em}.st14{marker-end:url(#mrkr4-123);stroke:#105482;stroke-dasharray:3.5,2.5;stroke-linecap:round;stroke-linejoin:round;stroke-width:.5}</style><defs id="Patterns_And_Gradients"><linearGradient id="grad0-6" x2="1" gradientTransform="rotate(20 .5 .5)"><stop offset=".35" stop-color="#0e4264"/><stop offset=".35" stop-color="#0d3e5e"/></linearGradient><linearGradient id="grad0-16" x2="1" gradientTransform="rotate(160 .5 .5)"><stop offset=".45" stop-color="#0f4b73"/><stop offset=".45" stop-color="#125785"/><stop offset=".6" stop-color="#125785"/><stop offset=".6" stop-color="#11517c"/><stop offset=".85" stop-color="#11517c"/><stop offset=".85" stop-color="#0d3e5e"/></linearGradient><linearGradient id="grad0-54" x2="1" gradientTransform="rotate(25 .5 .5)"><stop offset=".2" stop-color="#31c8ed"/><stop offset=".2" stop-color="#70d8f2"/><stop offset=".6" stop-color="#70d8f2"/><stop offset=".6" stop-color="#31c8ed"/><stop offset=".85" stop-color="#31c8ed"/><stop offset=".85" stop-color="#11a8cd"/></linearGradient><linearGradient id="grad0-59" x2="1" gradientTransform="rotate(30 .5 .5)"><stop offset=".65" stop-color="#063f81"/><stop offset=".65" stop-color="#063a78"/></linearGradient></defs><defs id="Markers"><path d="M2 1L0 0l2-1v2" id="lend4"/><marker id="mrkr4-86" refX="-12.08" orient="auto" overflow="visible" fill="#105482" stroke="#105482" stroke-width=".166"><use xlink:href="#lend4" transform="scale(-6.04)"/></marker><marker id="mrkr4-123" refX="-7.76" orient="auto" overflow="visible" fill="#105482" stroke="#105482" stroke-width=".258"><use xlink:href="#lend4" transform="scale(-3.88)"/></marker></defs><g id="group20-1" transform="translate(.5 -2.835)"><g id="group21-2"><path d="M0 115.07h245.62V3.33H0v111.74z" class="st1" id="shape21-7"/></g><g id="group23-9" transform="translate(0 -86.22)"><g id="shape24-10" transform="translate(0 12.256)"><path d="M.5 115.07a883.844 883.844 0 0 1 244.62 0v-4.26a883.844 883.844-180 0 0-244.62 0v4.26z" class="st2"/></g><g id="shape23-13"><path d="M0 123.57a891.05 891.05 0 0 1 245.62 0V89.56H0v34.01z" class="st3"/><text x="83.78" y="105.91" class="st4">Digital realm</text></g></g></g><g id="group27-19" transform="translate(267.382 -2.835)"><g id="group28-20"><path d="M0 115.07h197.01V3.33H0v111.74z" class="st1" id="shape28-24"/></g><g id="group30-26" transform="translate(0 -86.22)"><g id="shape31-27" transform="translate(0 12.256)"><path d="M.5 115.07a568.977 568.977 0 0 1 196.01 0v-4.26a568.977 568.977-180 0 0-196.01 0v4.26z" class="st2"/></g><g id="shape30-30"><path d="M0 123.57a574.754 574.754 0 0 1 197.01 0V89.56H0v34.01z" class="st3"/><text x="57.74" y="105.91" class="st4">Analog realm</text></g></g></g><g id="group32-35" transform="translate(482.815 -2.835)"><g id="group33-36"><path d="M0 115.07h145.98V3.33H0v111.74z" class="st1" id="shape33-40"/></g><g id="group35-42" transform="translate(0 -86.22)"><g id="shape36-43" transform="translate(0 12.256)"><path d="M.5 115.07a313.233 313.233 0 0 1 144.98 0v-4.26a313.233 313.233-180 0 0-144.98 0v4.26z" class="st2"/></g><g id="shape35-46"><path d="M0 123.57a317.51 317.51 0 0 1 145.98 0V89.56H0v34.01z" class="st3"/><text x="27.76" y="105.91" class="st4">Acoustic realm</text></g></g></g><g id="shape53-51" transform="translate(495.571 -11.339)"><path fill="url(#grad0-54)" stroke="#fff" stroke-linecap="round" stroke-linejoin="round" stroke-opacity=".6" d="M0 63.584h119.055v51.483H0z"/><text x="48.58" y="74.78" class="st6">LISTENING ROOM</text></g><g id="shape1-56" transform="translate(9.43 -32.362)"><path class="st7" d="M0 95.224h59.528v19.843H0z"/><text x="5.29" y="107.55" class="st6">Digital media</text></g><g id="shape4-61" transform="translate(227.697 -32.362)"><path class="st7" d="M0 95.224h59.528v19.843H0z"/><text x="21.79" y="107.55" class="st6">DAC</text></g><g id="shape5-65" transform="translate(336.831 -32.362)"><path class="st7" d="M0 95.224h59.528v19.843H0z"/><text x="12.79" y="107.55" class="st6">Amplifier</text></g><g id="shape6-69" transform="translate(445.965 -32.362)"><path class="st7" d="M0 95.224h59.528v19.843H0z"/><text x="5.56" y="107.55" class="st6">Loudspeaker</text></g><g id="shape13-73" transform="translate(562.953 -11.805)"><path d="M13.74 90.37H3.27a3.293 3.293 0 0 0-2.93 1.77c-.22.42-.34.91-.34 1.42v12.14h2.87v9.37h11.16v-9.37h2.98V93.56c0-.74-.26-1.41-.69-1.96-.3-.37-.68-.68-1.12-.9-.44-.21-.94-.33-1.46-.33zm-.34-6.01a4.891 4.727-180 1 0-9.79 0 4.891 4.727-180 1 0 9.79 0z" fill="url(#grad0-6)"/><path d="M13.74 90.37H3.27a3.293 3.293 0 0 0-2.93 1.77c-.22.42-.34.91-.34 1.42v12.14h2.87v9.37h11.16v-9.37h2.98V93.56c0-.74-.26-1.41-.69-1.96-.3-.37-.68-.68-1.12-.9-.44-.21-.94-.33-1.46-.33M8.5 115.07v-7.49M2.87 105.7v-6.47M14.03 105.7v-6.47M13.4 84.36a4.891 4.727-180 1 0-9.79 0 4.891 4.727-180 1 0 9.79 0" class="st9"/></g><g id="shape17-81" transform="translate(287.224 -35.197)"><path d="M0 107.98h43.57" class="st10"/><text x="12.17" y="105.58" class="st12">0.5-3 V<tspan x="11.77" dy="1.2em" class="st13">&lt;</tspan>1 mW</text></g><g id="shape18-89" transform="translate(396.358 -35.197)"><path d="M0 107.98h43.57" class="st10"/><text x="13.23" y="105.58" class="st12">1-30 V<tspan x="9.63" dy="1.2em" class="st13">1</tspan>-100 W</text></g><g id="shape19-96" transform="translate(505.492 -35.197)"><path d="M0 107.98h49.89" class="st10"/><text x="12.04" y="117.47" class="st12">0.1-4 Pa</text></g><g id="shape43-102" transform="translate(178.091 -35.197)"><path d="M0 107.98h43.57" class="st10"/><text x="15.55" y="117.47" class="st12">PCM</text></g><g id="shape44-108" transform="translate(118.563 -32.362)"><path class="st7" d="M0 95.224h59.528v19.843H0z"/><text x="13.96" y="107.55" class="st6">Decoder</text></g><g id="shape45-112" transform="translate(68.957 -35.197)"><path d="M0 107.98h43.57" class="st10"/><text x="5.41" y="117.47" class="st12">MP3 &amp; co.</text></g><g id="shape54-118" transform="translate(505.492 -47.924)"><path d="M0 120.71l28.06 30.9 24.92-25.25" class="st14"/></g><g id="shape56-124" transform="translate(505.492 -36.968)"><path d="M0 109.75L27.92 89.2l25.1 15.02" class="st14"/></g></svg>